{
  "header": {
    "keySignatures": [
      {
        "key": "C",
        "scale": "major",
        "ticks": 0
      }
    ],
    "meta": [],
    "name": "WinJammer Demo",
    "ppq": 48,
    "tempos": [
      {
        "bpm": 72.00002880001152,
        "ticks": 0
      }
    ],
    "timeSignatures": [
      {
        "ticks": 0,
        "timeSignature": [
          4,
          4
        ],
        "measures": 0
      }
    ]
  },
  "tracks": [
    {
      "channel": 0,
      "controlChanges": {
        "7": [
          {
            "number": 7,
            "ticks": 0,
            "time": 0,
            "value": 1
          }
        ],
        "10": [
          {
            "number": 10,
            "ticks": 0,
            "time": 0,
            "value": 0
          }
        ]
      },
      "pitchBends": [],
      "instrument": {
        "family": "piano",
        "number": 0,
        "name": "acoustic grand piano"
      },
      "name": "WinJammer Demo",
      "notes": [],
      "endOfTrackTicks": 11616
    },
    {
      "channel": 0,
      "controlChanges": {},
      "pitchBends": [],
      "instrument": {
        "family": "piano",
        "number": 1,
        "name": "bright acoustic piano"
      },
      "name": "",
      "notes": [
        {
          "duration": 1.666666,
          "durationTicks": 96,
          "midi": 50,
          "name": "D3",
          "ticks": 0,
          "time": "0i",
          "velocity": 1
        },
        {
          "duration": 1.666666,
          "durationTicks": 96,
          "midi": 45,
          "name": "A2",
          "ticks": 96,
          "time": "96i",
          "velocity": 1
        },
        {
          "duration": 1.6666659999999998,
          "durationTicks": 96,
          "midi": 47,
          "name": "B2",
          "ticks": 192,
          "time": "192i",
          "velocity": 1
        },
        {
          "duration": 1.6666660000000002,
          "durationTicks": 96,
          "midi": 42,
          "name": "F#2",
          "ticks": 288,
          "time": "288i",
          "velocity": 1
        },
        {
          "duration": 1.6666660000000002,
          "durationTicks": 96,
          "midi": 43,
          "name": "G2",
          "ticks": 384,
          "time": "384i",
          "velocity": 1
        },
        {
          "duration": 1.6666659999999993,
          "durationTicks": 96,
          "midi": 38,
          "name": "D2",
          "ticks": 480,
          "time": "480i",
          "velocity": 1
        },
        {
          "duration": 1.666666000000001,
          "durationTicks": 96,
          "midi": 43,
          "name": "G2",
          "ticks": 576,
          "time": "576i",
          "velocity": 1
        },
        {
          "duration": 1.6666659999999993,
          "durationTicks": 96,
          "midi": 45,
          "name": "A2",
          "ticks": 672,
          "time": "672i",
          "velocity": 1
        },
        {
          "duration": 1.6666659999999993,
          "durationTicks": 96,
          "midi": 50,
          "name": "D3",
          "ticks": 768,
          "time": "768i",
          "velocity": 1
        },
        {
          "duration": 1.666666000000001,
          "durationTicks": 96,
          "midi": 45,
          "name": "A2",
          "ticks": 864,
          "time": "864i",
          "velocity": 1
        },
        {
          "duration": 1.6666659999999993,
          "durationTicks": 96,
          "midi": 47,
          "name": "B2",
          "ticks": 960,
          "time": "960i",
          "velocity": 1
        },
        {
          "duration": 1.6666659999999993,
          "durationTicks": 96,
          "midi": 42,
          "name": "F#2",
          "ticks": 1056,
          "time": "1056i",
          "velocity": 1
        },
        {
          "duration": 1.6666659999999993,
          "durationTicks": 96,
          "midi": 43,
          "name": "G2",
          "ticks": 1152,
          "time": "1152i",
          "velocity": 1
        },
        {
          "duration": 1.6666660000000029,
          "durationTicks": 96,
          "midi": 38,
          "name": "D2",
          "ticks": 1248,
          "time": "1248i",
          "velocity": 1
        },
        {
          "duration": 1.6666659999999993,
          "durationTicks": 96,
          "midi": 43,
          "name": "G2",
          "ticks": 1344,
          "time": "1344i",
          "velocity": 1
        },
        {
          "duration": 1.6666659999999993,
          "durationTicks": 96,
          "midi": 45,
          "name": "A2",
          "ticks": 1440,
          "time": "1440i",
          "velocity": 1
        },
        {
          "duration": 1.6666659999999993,
          "durationTicks": 96,
          "midi": 50,
          "name": "D3",
          "ticks": 1536,
          "time": "1536i",
          "velocity": 1
        },
        {
          "duration": 1.6666659999999993,
          "durationTicks": 96,
          "midi": 45,
          "name": "A2",
          "ticks": 1632,
          "time": "1632i",
          "velocity": 1
        },
        {
          "duration": 1.6666660000000029,
          "durationTicks": 96,
          "midi": 47,
          "name": "B2",
          "ticks": 1728,
          "time": "1728i",
          "velocity": 1
        },
        {
          "duration": 1.6666659999999993,
          "durationTicks": 96,
          "midi": 42,
          "name": "F#2",
          "ticks": 1824,
          "time": "1824i",
          "velocity": 1
        },
        {
          "duration": 1.6666659999999993,
          "durationTicks": 96,
          "midi": 43,
          "name": "G2",
          "ticks": 1920,
          "time": "1920i",
          "velocity": 1
        },
        {
          "duration": 1.6666659999999993,
          "durationTicks": 96,
          "midi": 38,
          "name": "D2",
          "ticks": 2016,
          "time": "2016i",
          "velocity": 1
        },
        {
          "duration": 1.6666659999999993,
          "durationTicks": 96,
          "midi": 43,
          "name": "G2",
          "ticks": 2112,
          "time": "2112i",
          "velocity": 1
        },
        {
          "duration": 1.6666659999999993,
          "durationTicks": 96,
          "midi": 45,
          "name": "A2",
          "ticks": 2208,
          "time": "2208i",
          "velocity": 1
        },
        {
          "duration": 1.6666659999999993,
          "durationTicks": 96,
          "midi": 50,
          "name": "D3",
          "ticks": 2304,
          "time": "2304i",
          "velocity": 1
        },
        {
          "duration": 1.6666659999999993,
          "durationTicks": 96,
          "midi": 45,
          "name": "A2",
          "ticks": 2400,
          "time": "2400i",
          "velocity": 1
        },
        {
          "duration": 1.6666660000000064,
          "durationTicks": 96,
          "midi": 47,
          "name": "B2",
          "ticks": 2496,
          "time": "2496i",
          "velocity": 1
        },
        {
          "duration": 1.6666659999999993,
          "durationTicks": 96,
          "midi": 42,
          "name": "F#2",
          "ticks": 2592,
          "time": "2592i",
          "velocity": 1
        },
        {
          "duration": 1.6666659999999993,
          "durationTicks": 96,
          "midi": 43,
          "name": "G2",
          "ticks": 2688,
          "time": "2688i",
          "velocity": 1
        },
        {
          "duration": 1.6666659999999993,
          "durationTicks": 96,
          "midi": 38,
          "name": "D2",
          "ticks": 2784,
          "time": "2784i",
          "velocity": 1
        },
        {
          "duration": 1.6666659999999993,
          "durationTicks": 96,
          "midi": 43,
          "name": "G2",
          "ticks": 2880,
          "time": "2880i",
          "velocity": 1
        },
        {
          "duration": 1.6666659999999993,
          "durationTicks": 96,
          "midi": 45,
          "name": "A2",
          "ticks": 2976,
          "time": "2976i",
          "velocity": 1
        },
        {
          "duration": 1.6666659999999993,
          "durationTicks": 96,
          "midi": 50,
          "name": "D3",
          "ticks": 3072,
          "time": "3072i",
          "velocity": 1
        },
        {
          "duration": 1.6666659999999993,
          "durationTicks": 96,
          "midi": 45,
          "name": "A2",
          "ticks": 3168,
          "time": "3168i",
          "velocity": 1
        },
        {
          "duration": 1.6666659999999993,
          "durationTicks": 96,
          "midi": 47,
          "name": "B2",
          "ticks": 3264,
          "time": "3264i",
          "velocity": 1
        },
        {
          "duration": 1.6666659999999993,
          "durationTicks": 96,
          "midi": 42,
          "name": "F#2",
          "ticks": 3360,
          "time": "3360i",
          "velocity": 1
        },
        {
          "duration": 1.6666659999999993,
          "durationTicks": 96,
          "midi": 43,
          "name": "G2",
          "ticks": 3456,
          "time": "3456i",
          "velocity": 1
        },
        {
          "duration": 1.6666660000000064,
          "durationTicks": 96,
          "midi": 38,
          "name": "D2",
          "ticks": 3552,
          "time": "3552i",
          "velocity": 1
        },
        {
          "duration": 1.6666659999999922,
          "durationTicks": 96,
          "midi": 43,
          "name": "G2",
          "ticks": 3648,
          "time": "3648i",
          "velocity": 1
        },
        {
          "duration": 1.6666660000000064,
          "durationTicks": 96,
          "midi": 45,
          "name": "A2",
          "ticks": 3744,
          "time": "3744i",
          "velocity": 1
        },
        {
          "duration": 1.6666659999999922,
          "durationTicks": 96,
          "midi": 50,
          "name": "D3",
          "ticks": 3840,
          "time": "3840i",
          "velocity": 1
        },
        {
          "duration": 1.6666660000000064,
          "durationTicks": 96,
          "midi": 45,
          "name": "A2",
          "ticks": 3936,
          "time": "3936i",
          "velocity": 1
        },
        {
          "duration": 1.6666660000000064,
          "durationTicks": 96,
          "midi": 47,
          "name": "B2",
          "ticks": 4032,
          "time": "4032i",
          "velocity": 1
        },
        {
          "duration": 1.6666659999999922,
          "durationTicks": 96,
          "midi": 42,
          "name": "F#2",
          "ticks": 4128,
          "time": "4128i",
          "velocity": 1
        },
        {
          "duration": 1.6666660000000064,
          "durationTicks": 96,
          "midi": 43,
          "name": "G2",
          "ticks": 4224,
          "time": "4224i",
          "velocity": 1
        },
        {
          "duration": 1.6666659999999922,
          "durationTicks": 96,
          "midi": 38,
          "name": "D2",
          "ticks": 4320,
          "time": "4320i",
          "velocity": 1
        },
        {
          "duration": 1.6666660000000064,
          "durationTicks": 96,
          "midi": 43,
          "name": "G2",
          "ticks": 4416,
          "time": "4416i",
          "velocity": 1
        },
        {
          "duration": 1.6666659999999922,
          "durationTicks": 96,
          "midi": 45,
          "name": "A2",
          "ticks": 4512,
          "time": "4512i",
          "velocity": 1
        },
        {
          "duration": 1.6666660000000064,
          "durationTicks": 96,
          "midi": 50,
          "name": "D3",
          "ticks": 4608,
          "time": "4608i",
          "velocity": 1
        },
        {
          "duration": 1.6666659999999922,
          "durationTicks": 96,
          "midi": 45,
          "name": "A2",
          "ticks": 4704,
          "time": "4704i",
          "velocity": 1
        },
        {
          "duration": 1.6666660000000064,
          "durationTicks": 96,
          "midi": 47,
          "name": "B2",
          "ticks": 4800,
          "time": "4800i",
          "velocity": 1
        },
        {
          "duration": 1.6666659999999922,
          "durationTicks": 96,
          "midi": 42,
          "name": "F#2",
          "ticks": 4896,
          "time": "4896i",
          "velocity": 1
        },
        {
          "duration": 1.6666660000000064,
          "durationTicks": 96,
          "midi": 43,
          "name": "G2",
          "ticks": 4992,
          "time": "4992i",
          "velocity": 1
        },
        {
          "duration": 1.6666660000000064,
          "durationTicks": 96,
          "midi": 38,
          "name": "D2",
          "ticks": 5088,
          "time": "5088i",
          "velocity": 1
        },
        {
          "duration": 1.6666659999999922,
          "durationTicks": 96,
          "midi": 43,
          "name": "G2",
          "ticks": 5184,
          "time": "5184i",
          "velocity": 1
        },
        {
          "duration": 1.6666660000000064,
          "durationTicks": 96,
          "midi": 45,
          "name": "A2",
          "ticks": 5280,
          "time": "5280i",
          "velocity": 1
        },
        {
          "duration": 1.6666659999999922,
          "durationTicks": 96,
          "midi": 50,
          "name": "D3",
          "ticks": 5376,
          "time": "5376i",
          "velocity": 1
        },
        {
          "duration": 0.41666650000000516,
          "durationTicks": 24,
          "midi": 45,
          "name": "A2",
          "ticks": 5472,
          "time": "5472i",
          "velocity": 1
        },
        {
          "duration": 1.6666659999999922,
          "durationTicks": 96,
          "midi": 47,
          "name": "B2",
          "ticks": 5568,
          "time": "5568i",
          "velocity": 1
        },
        {
          "duration": 1.6666660000000064,
          "durationTicks": 96,
          "midi": 50,
          "name": "D3",
          "ticks": 5664,
          "time": "5664i",
          "velocity": 1
        },
        {
          "duration": 0.20833325000000968,
          "durationTicks": 12,
          "midi": 50,
          "name": "D3",
          "ticks": 5856,
          "time": "5856i",
          "velocity": 1
        },
        {
          "duration": 0.20833325000000968,
          "durationTicks": 12,
          "midi": 45,
          "name": "A2",
          "ticks": 6048,
          "time": "6048i",
          "velocity": 1
        },
        {
          "duration": 1.6666660000000064,
          "durationTicks": 96,
          "midi": 54,
          "name": "F#3",
          "ticks": 6144,
          "time": "6144i",
          "velocity": 1
        },
        {
          "duration": 1.6666659999999922,
          "durationTicks": 96,
          "midi": 45,
          "name": "A2",
          "ticks": 6240,
          "time": "6240i",
          "velocity": 1
        },
        {
          "duration": 1.6666660000000064,
          "durationTicks": 96,
          "midi": 47,
          "name": "B2",
          "ticks": 6336,
          "time": "6336i",
          "velocity": 1
        },
        {
          "duration": 1.6666659999999922,
          "durationTicks": 96,
          "midi": 42,
          "name": "F#2",
          "ticks": 6432,
          "time": "6432i",
          "velocity": 1
        },
        {
          "duration": 1.6666660000000064,
          "durationTicks": 96,
          "midi": 43,
          "name": "G2",
          "ticks": 6528,
          "time": "6528i",
          "velocity": 1
        },
        {
          "duration": 1.6666659999999922,
          "durationTicks": 96,
          "midi": 38,
          "name": "D2",
          "ticks": 6624,
          "time": "6624i",
          "velocity": 1
        },
        {
          "duration": 1.6666660000000064,
          "durationTicks": 96,
          "midi": 43,
          "name": "G2",
          "ticks": 6720,
          "time": "6720i",
          "velocity": 1
        },
        {
          "duration": 1.6666659999999922,
          "durationTicks": 96,
          "midi": 45,
          "name": "A2",
          "ticks": 6816,
          "time": "6816i",
          "velocity": 1
        },
        {
          "duration": 0.41666650000000516,
          "durationTicks": 24,
          "midi": 38,
          "name": "D2",
          "ticks": 6912,
          "time": "6912i",
          "velocity": 1
        },
        {
          "duration": 0.20833324999999547,
          "durationTicks": 12,
          "midi": 50,
          "name": "D3",
          "ticks": 6936,
          "time": "6936i",
          "velocity": 1
        },
        {
          "duration": 0.20833325000000968,
          "durationTicks": 12,
          "midi": 52,
          "name": "E3",
          "ticks": 6948,
          "time": "6948i",
          "velocity": 1
        },
        {
          "duration": 0.41666649999999095,
          "durationTicks": 24,
          "midi": 54,
          "name": "F#3",
          "ticks": 6960,
          "time": "6960i",
          "velocity": 1
        },
        {
          "duration": 0.41666650000000516,
          "durationTicks": 24,
          "midi": 50,
          "name": "D3",
          "ticks": 6984,
          "time": "6984i",
          "velocity": 1
        },
        {
          "duration": 0.41666650000000516,
          "durationTicks": 24,
          "midi": 45,
          "name": "A2",
          "ticks": 7008,
          "time": "7008i",
          "velocity": 1
        },
        {
          "duration": 0.41666649999999095,
          "durationTicks": 24,
          "midi": 57,
          "name": "A3",
          "ticks": 7032,
          "time": "7032i",
          "velocity": 1
        },
        {
          "duration": 0.41666650000000516,
          "durationTicks": 24,
          "midi": 57,
          "name": "A3",
          "ticks": 7056,
          "time": "7056i",
          "velocity": 1
        },
        {
          "duration": 0.41666649999999095,
          "durationTicks": 24,
          "midi": 57,
          "name": "A3",
          "ticks": 7080,
          "time": "7080i",
          "velocity": 1
        },
        {
          "duration": 0.41666650000000516,
          "durationTicks": 24,
          "midi": 47,
          "name": "B2",
          "ticks": 7104,
          "time": "7104i",
          "velocity": 1
        },
        {
          "duration": 0.41666650000000516,
          "durationTicks": 24,
          "midi": 54,
          "name": "F#3",
          "ticks": 7128,
          "time": "7128i",
          "velocity": 1
        },
        {
          "duration": 0.41666649999999095,
          "durationTicks": 24,
          "midi": 54,
          "name": "F#3",
          "ticks": 7152,
          "time": "7152i",
          "velocity": 1
        },
        {
          "duration": 0.41666650000000516,
          "durationTicks": 24,
          "midi": 54,
          "name": "F#3",
          "ticks": 7176,
          "time": "7176i",
          "velocity": 1
        },
        {
          "duration": 0.41666650000000516,
          "durationTicks": 24,
          "midi": 42,
          "name": "F#2",
          "ticks": 7200,
          "time": "7200i",
          "velocity": 1
        },
        {
          "duration": 0.20833324999999547,
          "durationTicks": 12,
          "midi": 57,
          "name": "A3",
          "ticks": 7224,
          "time": "7224i",
          "velocity": 1
        },
        {
          "duration": 0.20833324999999547,
          "durationTicks": 12,
          "midi": 55,
          "name": "G3",
          "ticks": 7236,
          "time": "7236i",
          "velocity": 1
        },
        {
          "duration": 0.41666650000000516,
          "durationTicks": 24,
          "midi": 54,
          "name": "F#3",
          "ticks": 7248,
          "time": "7248i",
          "velocity": 1
        },
        {
          "duration": 0.41666650000000516,
          "durationTicks": 24,
          "midi": 52,
          "name": "E3",
          "ticks": 7272,
          "time": "7272i",
          "velocity": 1
        },
        {
          "duration": 0.41666649999999095,
          "durationTicks": 24,
          "midi": 43,
          "name": "G2",
          "ticks": 7296,
          "time": "7296i",
          "velocity": 1
        },
        {
          "duration": 0.20833325000000968,
          "durationTicks": 12,
          "midi": 55,
          "name": "G3",
          "ticks": 7320,
          "time": "7320i",
          "velocity": 1
        },
        {
          "duration": 0.20833324999999547,
          "durationTicks": 12,
          "midi": 54,
          "name": "F#3",
          "ticks": 7332,
          "time": "7332i",
          "velocity": 1
        },
        {
          "duration": 0.41666649999999095,
          "durationTicks": 24,
          "midi": 52,
          "name": "E3",
          "ticks": 7344,
          "time": "7344i",
          "velocity": 1
        },
        {
          "duration": 0.41666650000000516,
          "durationTicks": 24,
          "midi": 55,
          "name": "G3",
          "ticks": 7368,
          "time": "7368i",
          "velocity": 1
        },
        {
          "duration": 0.41666649999999095,
          "durationTicks": 24,
          "midi": 38,
          "name": "D2",
          "ticks": 7392,
          "time": "7392i",
          "velocity": 1
        },
        {
          "duration": 0.20833325000000968,
          "durationTicks": 12,
          "midi": 50,
          "name": "D3",
          "ticks": 7416,
          "time": "7416i",
          "velocity": 1
        },
        {
          "duration": 0.20833325000000968,
          "durationTicks": 12,
          "midi": 52,
          "name": "E3",
          "ticks": 7428,
          "time": "7428i",
          "velocity": 1
        },
        {
          "duration": 0.41666649999999095,
          "durationTicks": 24,
          "midi": 54,
          "name": "F#3",
          "ticks": 7440,
          "time": "7440i",
          "velocity": 1
        },
        {
          "duration": 0.41666649999999095,
          "durationTicks": 24,
          "midi": 57,
          "name": "A3",
          "ticks": 7464,
          "time": "7464i",
          "velocity": 1
        },
        {
          "duration": 0.41666650000001937,
          "durationTicks": 24,
          "midi": 50,
          "name": "D3",
          "ticks": 7488,
          "time": "7488i",
          "velocity": 1
        },
        {
          "duration": 0.20833324999998126,
          "durationTicks": 12,
          "midi": 59,
          "name": "B3",
          "ticks": 7512,
          "time": "7512i",
          "velocity": 1
        },
        {
          "duration": 0.20833325000000968,
          "durationTicks": 12,
          "midi": 57,
          "name": "A3",
          "ticks": 7524,
          "time": "7524i",
          "velocity": 1
        },
        {
          "duration": 0.41666649999999095,
          "durationTicks": 24,
          "midi": 55,
          "name": "G3",
          "ticks": 7536,
          "time": "7536i",
          "velocity": 1
        },
        {
          "duration": 0.41666650000001937,
          "durationTicks": 24,
          "midi": 54,
          "name": "F#3",
          "ticks": 7560,
          "time": "7560i",
          "velocity": 1
        },
        {
          "duration": 0.41666649999999095,
          "durationTicks": 24,
          "midi": 52,
          "name": "E3",
          "ticks": 7584,
          "time": "7584i",
          "velocity": 1
        },
        {
          "duration": 0.20833325000000968,
          "durationTicks": 12,
          "midi": 57,
          "name": "A3",
          "ticks": 7608,
          "time": "7608i",
          "velocity": 1
        },
        {
          "duration": 0.20833324999998126,
          "durationTicks": 12,
          "midi": 55,
          "name": "G3",
          "ticks": 7620,
          "time": "7620i",
          "velocity": 1
        },
        {
          "duration": 0.41666650000001937,
          "durationTicks": 24,
          "midi": 54,
          "name": "F#3",
          "ticks": 7632,
          "time": "7632i",
          "velocity": 1
        },
        {
          "duration": 0.41666649999999095,
          "durationTicks": 24,
          "midi": 52,
          "name": "E3",
          "ticks": 7656,
          "time": "7656i",
          "velocity": 1
        },
        {
          "duration": 1.6666659999999922,
          "durationTicks": 96,
          "midi": 50,
          "name": "D3",
          "ticks": 7680,
          "time": "7680i",
          "velocity": 1
        },
        {
          "duration": 1.6666659999999922,
          "durationTicks": 96,
          "midi": 45,
          "name": "A2",
          "ticks": 7776,
          "time": "7776i",
          "velocity": 1
        },
        {
          "duration": 1.6666660000000206,
          "durationTicks": 96,
          "midi": 47,
          "name": "B2",
          "ticks": 7872,
          "time": "7872i",
          "velocity": 1
        },
        {
          "duration": 1.6666659999999922,
          "durationTicks": 96,
          "midi": 42,
          "name": "F#2",
          "ticks": 7968,
          "time": "7968i",
          "velocity": 1
        },
        {
          "duration": 1.6666659999999922,
          "durationTicks": 96,
          "midi": 43,
          "name": "G2",
          "ticks": 8064,
          "time": "8064i",
          "velocity": 1
        },
        {
          "duration": 1.6666660000000206,
          "durationTicks": 96,
          "midi": 42,
          "name": "F#2",
          "ticks": 8160,
          "time": "8160i",
          "velocity": 1
        },
        {
          "duration": 1.6666659999999922,
          "durationTicks": 96,
          "midi": 43,
          "name": "G2",
          "ticks": 8256,
          "time": "8256i",
          "velocity": 1
        },
        {
          "duration": 1.6666659999999922,
          "durationTicks": 96,
          "midi": 45,
          "name": "A2",
          "ticks": 8352,
          "time": "8352i",
          "velocity": 1
        },
        {
          "duration": 1.6666659999999922,
          "durationTicks": 96,
          "midi": 50,
          "name": "D3",
          "ticks": 8448,
          "time": "8448i",
          "velocity": 1
        },
        {
          "duration": 1.6666660000000206,
          "durationTicks": 96,
          "midi": 45,
          "name": "A2",
          "ticks": 8544,
          "time": "8544i",
          "velocity": 1
        },
        {
          "duration": 1.6666659999999922,
          "durationTicks": 96,
          "midi": 47,
          "name": "B2",
          "ticks": 8640,
          "time": "8640i",
          "velocity": 1
        },
        {
          "duration": 1.6666659999999922,
          "durationTicks": 96,
          "midi": 42,
          "name": "F#2",
          "ticks": 8736,
          "time": "8736i",
          "velocity": 1
        },
        {
          "duration": 1.6666659999999922,
          "durationTicks": 96,
          "midi": 43,
          "name": "G2",
          "ticks": 8832,
          "time": "8832i",
          "velocity": 1
        },
        {
          "duration": 1.6666660000000206,
          "durationTicks": 96,
          "midi": 38,
          "name": "D2",
          "ticks": 8928,
          "time": "8928i",
          "velocity": 1
        },
        {
          "duration": 1.6666659999999922,
          "durationTicks": 96,
          "midi": 43,
          "name": "G2",
          "ticks": 9024,
          "time": "9024i",
          "velocity": 1
        },
        {
          "duration": 1.6666659999999922,
          "durationTicks": 96,
          "midi": 45,
          "name": "A2",
          "ticks": 9120,
          "time": "9120i",
          "velocity": 1
        },
        {
          "duration": 0.20833325000000968,
          "durationTicks": 12,
          "midi": 38,
          "name": "D2",
          "ticks": 9216,
          "time": "9216i",
          "velocity": 1
        },
        {
          "duration": 0.20833325000000968,
          "durationTicks": 12,
          "midi": 45,
          "name": "A2",
          "ticks": 9228,
          "time": "9228i",
          "velocity": 1
        },
        {
          "duration": 0.20833324999998126,
          "durationTicks": 12,
          "midi": 50,
          "name": "D3",
          "ticks": 9240,
          "time": "9240i",
          "velocity": 1
        },
        {
          "duration": 0.20833325000000968,
          "durationTicks": 12,
          "midi": 54,
          "name": "F#3",
          "ticks": 9252,
          "time": "9252i",
          "velocity": 1
        },
        {
          "duration": 0.20833325000000968,
          "durationTicks": 12,
          "midi": 57,
          "name": "A3",
          "ticks": 9264,
          "time": "9264i",
          "velocity": 1
        },
        {
          "duration": 0.20833324999998126,
          "durationTicks": 12,
          "midi": 50,
          "name": "D3",
          "ticks": 9276,
          "time": "9276i",
          "velocity": 1
        },
        {
          "duration": 0.20833325000000968,
          "durationTicks": 12,
          "midi": 66,
          "name": "F#4",
          "ticks": 9288,
          "time": "9288i",
          "velocity": 1
        },
        {
          "duration": 0.20833325000000968,
          "durationTicks": 12,
          "midi": 57,
          "name": "A3",
          "ticks": 9300,
          "time": "9300i",
          "velocity": 1
        },
        {
          "duration": 0.20833324999998126,
          "durationTicks": 12,
          "midi": 45,
          "name": "A2",
          "ticks": 9312,
          "time": "9312i",
          "velocity": 1
        },
        {
          "duration": 0.20833325000000968,
          "durationTicks": 12,
          "midi": 57,
          "name": "A3",
          "ticks": 9324,
          "time": "9324i",
          "velocity": 1
        },
        {
          "duration": 0.20833325000000968,
          "durationTicks": 12,
          "midi": 67,
          "name": "G4",
          "ticks": 9336,
          "time": "9336i",
          "velocity": 1
        },
        {
          "duration": 0.20833324999998126,
          "durationTicks": 12,
          "midi": 57,
          "name": "A3",
          "ticks": 9348,
          "time": "9348i",
          "velocity": 1
        },
        {
          "duration": 0.20833325000000968,
          "durationTicks": 12,
          "midi": 66,
          "name": "F#4",
          "ticks": 9360,
          "time": "9360i",
          "velocity": 1
        },
        {
          "duration": 0.20833324999998126,
          "durationTicks": 12,
          "midi": 57,
          "name": "A3",
          "ticks": 9372,
          "time": "9372i",
          "velocity": 1
        },
        {
          "duration": 0.20833325000000968,
          "durationTicks": 12,
          "midi": 64,
          "name": "E4",
          "ticks": 9384,
          "time": "9384i",
          "velocity": 1
        },
        {
          "duration": 0.20833325000000968,
          "durationTicks": 12,
          "midi": 57,
          "name": "A3",
          "ticks": 9396,
          "time": "9396i",
          "velocity": 1
        },
        {
          "duration": 0.20833324999998126,
          "durationTicks": 12,
          "midi": 47,
          "name": "B2",
          "ticks": 9408,
          "time": "9408i",
          "velocity": 1
        },
        {
          "duration": 0.20833325000000968,
          "durationTicks": 12,
          "midi": 50,
          "name": "D3",
          "ticks": 9420,
          "time": "9420i",
          "velocity": 1
        },
        {
          "duration": 0.20833325000000968,
          "durationTicks": 12,
          "midi": 54,
          "name": "F#3",
          "ticks": 9432,
          "time": "9432i",
          "velocity": 1
        },
        {
          "duration": 0.20833324999998126,
          "durationTicks": 12,
          "midi": 59,
          "name": "B3",
          "ticks": 9444,
          "time": "9444i",
          "velocity": 1
        },
        {
          "duration": 0.20833325000000968,
          "durationTicks": 12,
          "midi": 62,
          "name": "D4",
          "ticks": 9456,
          "time": "9456i",
          "velocity": 1
        },
        {
          "duration": 0.20833325000000968,
          "durationTicks": 12,
          "midi": 54,
          "name": "F#3",
          "ticks": 9468,
          "time": "9468i",
          "velocity": 1
        },
        {
          "duration": 0.20833324999998126,
          "durationTicks": 12,
          "midi": 62,
          "name": "D4",
          "ticks": 9480,
          "time": "9480i",
          "velocity": 1
        },
        {
          "duration": 0.20833325000000968,
          "durationTicks": 12,
          "midi": 54,
          "name": "F#3",
          "ticks": 9492,
          "time": "9492i",
          "velocity": 1
        },
        {
          "duration": 0.20833325000000968,
          "durationTicks": 12,
          "midi": 42,
          "name": "F#2",
          "ticks": 9504,
          "time": "9504i",
          "velocity": 1
        },
        {
          "duration": 0.20833324999998126,
          "durationTicks": 12,
          "midi": 54,
          "name": "F#3",
          "ticks": 9516,
          "time": "9516i",
          "velocity": 1
        },
        {
          "duration": 0.20833325000000968,
          "durationTicks": 12,
          "midi": 64,
          "name": "E4",
          "ticks": 9528,
          "time": "9528i",
          "velocity": 1
        },
        {
          "duration": 0.20833325000000968,
          "durationTicks": 12,
          "midi": 54,
          "name": "F#3",
          "ticks": 9540,
          "time": "9540i",
          "velocity": 1
        },
        {
          "duration": 0.20833324999998126,
          "durationTicks": 12,
          "midi": 62,
          "name": "D4",
          "ticks": 9552,
          "time": "9552i",
          "velocity": 1
        },
        {
          "duration": 0.20833325000000968,
          "durationTicks": 12,
          "midi": 54,
          "name": "F#3",
          "ticks": 9564,
          "time": "9564i",
          "velocity": 1
        },
        {
          "duration": 0.20833325000000968,
          "durationTicks": 12,
          "midi": 61,
          "name": "C#4",
          "ticks": 9576,
          "time": "9576i",
          "velocity": 1
        },
        {
          "duration": 0.20833324999998126,
          "durationTicks": 12,
          "midi": 54,
          "name": "F#3",
          "ticks": 9588,
          "time": "9588i",
          "velocity": 1
        },
        {
          "duration": 0.20833325000000968,
          "durationTicks": 12,
          "midi": 43,
          "name": "G2",
          "ticks": 9600,
          "time": "9600i",
          "velocity": 1
        },
        {
          "duration": 0.20833325000000968,
          "durationTicks": 12,
          "midi": 50,
          "name": "D3",
          "ticks": 9612,
          "time": "9612i",
          "velocity": 1
        },
        {
          "duration": 0.20833324999998126,
          "durationTicks": 12,
          "midi": 60,
          "name": "C4",
          "ticks": 9624,
          "time": "9624i",
          "velocity": 1
        },
        {
          "duration": 0.20833325000000968,
          "durationTicks": 12,
          "midi": 50,
          "name": "D3",
          "ticks": 9636,
          "time": "9636i",
          "velocity": 1
        },
        {
          "duration": 0.20833325000000968,
          "durationTicks": 12,
          "midi": 59,
          "name": "B3",
          "ticks": 9648,
          "time": "9648i",
          "velocity": 1
        },
        {
          "duration": 0.20833324999998126,
          "durationTicks": 12,
          "midi": 50,
          "name": "D3",
          "ticks": 9660,
          "time": "9660i",
          "velocity": 1
        },
        {
          "duration": 0.20833325000000968,
          "durationTicks": 12,
          "midi": 61,
          "name": "C#4",
          "ticks": 9672,
          "time": "9672i",
          "velocity": 1
        },
        {
          "duration": 0.20833325000000968,
          "durationTicks": 12,
          "midi": 50,
          "name": "D3",
          "ticks": 9684,
          "time": "9684i",
          "velocity": 1
        },
        {
          "duration": 0.20833324999998126,
          "durationTicks": 12,
          "midi": 38,
          "name": "D2",
          "ticks": 9696,
          "time": "9696i",
          "velocity": 1
        },
        {
          "duration": 0.20833325000000968,
          "durationTicks": 12,
          "midi": 45,
          "name": "A2",
          "ticks": 9708,
          "time": "9708i",
          "velocity": 1
        },
        {
          "duration": 0.20833325000000968,
          "durationTicks": 12,
          "midi": 50,
          "name": "D3",
          "ticks": 9720,
          "time": "9720i",
          "velocity": 1
        },
        {
          "duration": 0.20833324999998126,
          "durationTicks": 12,
          "midi": 54,
          "name": "F#3",
          "ticks": 9732,
          "time": "9732i",
          "velocity": 1
        },
        {
          "duration": 0.20833325000000968,
          "durationTicks": 12,
          "midi": 57,
          "name": "A3",
          "ticks": 9744,
          "time": "9744i",
          "velocity": 1
        },
        {
          "duration": 0.20833325000000968,
          "durationTicks": 12,
          "midi": 54,
          "name": "F#3",
          "ticks": 9756,
          "time": "9756i",
          "velocity": 1
        },
        {
          "duration": 0.20833324999998126,
          "durationTicks": 12,
          "midi": 50,
          "name": "D3",
          "ticks": 9768,
          "time": "9768i",
          "velocity": 1
        },
        {
          "duration": 0.20833325000000968,
          "durationTicks": 12,
          "midi": 45,
          "name": "A2",
          "ticks": 9780,
          "time": "9780i",
          "velocity": 1
        },
        {
          "duration": 0.20833325000000968,
          "durationTicks": 12,
          "midi": 43,
          "name": "G2",
          "ticks": 9792,
          "time": "9792i",
          "velocity": 1
        },
        {
          "duration": 0.20833324999998126,
          "durationTicks": 12,
          "midi": 47,
          "name": "B2",
          "ticks": 9804,
          "time": "9804i",
          "velocity": 1
        },
        {
          "duration": 0.20833325000000968,
          "durationTicks": 12,
          "midi": 50,
          "name": "D3",
          "ticks": 9816,
          "time": "9816i",
          "velocity": 1
        },
        {
          "duration": 0.20833325000000968,
          "durationTicks": 12,
          "midi": 55,
          "name": "G3",
          "ticks": 9828,
          "time": "9828i",
          "velocity": 1
        },
        {
          "duration": 0.20833324999998126,
          "durationTicks": 12,
          "midi": 59,
          "name": "B3",
          "ticks": 9840,
          "time": "9840i",
          "velocity": 1
        },
        {
          "duration": 0.20833325000000968,
          "durationTicks": 12,
          "midi": 55,
          "name": "G3",
          "ticks": 9852,
          "time": "9852i",
          "velocity": 1
        },
        {
          "duration": 0.20833325000000968,
          "durationTicks": 12,
          "midi": 50,
          "name": "D3",
          "ticks": 9864,
          "time": "9864i",
          "velocity": 1
        },
        {
          "duration": 0.20833324999998126,
          "durationTicks": 12,
          "midi": 47,
          "name": "B2",
          "ticks": 9876,
          "time": "9876i",
          "velocity": 1
        },
        {
          "duration": 0.20833324999998126,
          "durationTicks": 12,
          "midi": 50,
          "name": "D3",
          "ticks": 9900,
          "time": "9900i",
          "velocity": 1
        },
        {
          "duration": 0.20833325000000968,
          "durationTicks": 12,
          "midi": 52,
          "name": "E3",
          "ticks": 9912,
          "time": "9912i",
          "velocity": 1
        },
        {
          "duration": 0.20833325000000968,
          "durationTicks": 12,
          "midi": 55,
          "name": "G3",
          "ticks": 9924,
          "time": "9924i",
          "velocity": 1
        },
        {
          "duration": 0.20833324999998126,
          "durationTicks": 12,
          "midi": 57,
          "name": "A3",
          "ticks": 9936,
          "time": "9936i",
          "velocity": 1
        },
        {
          "duration": 0.20833325000000968,
          "durationTicks": 12,
          "midi": 55,
          "name": "G3",
          "ticks": 9948,
          "time": "9948i",
          "velocity": 1
        },
        {
          "duration": 0.20833325000000968,
          "durationTicks": 12,
          "midi": 52,
          "name": "E3",
          "ticks": 9960,
          "time": "9960i",
          "velocity": 1
        },
        {
          "duration": 0.20833324999998126,
          "durationTicks": 12,
          "midi": 45,
          "name": "A2",
          "ticks": 9972,
          "time": "9972i",
          "velocity": 1
        },
        {
          "duration": 0.2777776666666796,
          "durationTicks": 16,
          "midi": 38,
          "name": "D2",
          "ticks": 9984,
          "time": "9984i",
          "velocity": 1
        },
        {
          "duration": 0.27777766666665116,
          "durationTicks": 16,
          "midi": 50,
          "name": "D3",
          "ticks": 10000,
          "time": "10000i",
          "velocity": 1
        },
        {
          "duration": 0.2777776666666796,
          "durationTicks": 16,
          "midi": 54,
          "name": "F#3",
          "ticks": 10016,
          "time": "10016i",
          "velocity": 1
        },
        {
          "duration": 0.2777776666666796,
          "durationTicks": 16,
          "midi": 57,
          "name": "A3",
          "ticks": 10032,
          "time": "10032i",
          "velocity": 1
        },
        {
          "duration": 0.27777766666665116,
          "durationTicks": 16,
          "midi": 54,
          "name": "F#3",
          "ticks": 10048,
          "time": "10048i",
          "velocity": 1
        },
        {
          "duration": 0.2777776666666796,
          "durationTicks": 16,
          "midi": 50,
          "name": "D3",
          "ticks": 10064,
          "time": "10064i",
          "velocity": 1
        },
        {
          "duration": 0.2777776666666796,
          "durationTicks": 16,
          "midi": 45,
          "name": "A2",
          "ticks": 10080,
          "time": "10080i",
          "velocity": 1
        },
        {
          "duration": 0.27777766666665116,
          "durationTicks": 16,
          "midi": 49,
          "name": "C#3",
          "ticks": 10096,
          "time": "10096i",
          "velocity": 1
        },
        {
          "duration": 0.27777766666665116,
          "durationTicks": 16,
          "midi": 52,
          "name": "E3",
          "ticks": 10112,
          "time": "10112i",
          "velocity": 1
        },
        {
          "duration": 0.2777776666666796,
          "durationTicks": 16,
          "midi": 57,
          "name": "A3",
          "ticks": 10128,
          "time": "10128i",
          "velocity": 1
        },
        {
          "duration": 0.27777766666665116,
          "durationTicks": 16,
          "midi": 52,
          "name": "E3",
          "ticks": 10144,
          "time": "10144i",
          "velocity": 1
        },
        {
          "duration": 0.2777776666666796,
          "durationTicks": 16,
          "midi": 49,
          "name": "C#3",
          "ticks": 10160,
          "time": "10160i",
          "velocity": 1
        },
        {
          "duration": 0.2777776666666796,
          "durationTicks": 16,
          "midi": 47,
          "name": "B2",
          "ticks": 10176,
          "time": "10176i",
          "velocity": 1
        },
        {
          "duration": 0.27777766666665116,
          "durationTicks": 16,
          "midi": 50,
          "name": "D3",
          "ticks": 10192,
          "time": "10192i",
          "velocity": 1
        },
        {
          "duration": 0.2777776666666796,
          "durationTicks": 16,
          "midi": 54,
          "name": "F#3",
          "ticks": 10208,
          "time": "10208i",
          "velocity": 1
        },
        {
          "duration": 0.27777766666665116,
          "durationTicks": 16,
          "midi": 59,
          "name": "B3",
          "ticks": 10224,
          "time": "10224i",
          "velocity": 1
        },
        {
          "duration": 0.27777766666665116,
          "durationTicks": 16,
          "midi": 54,
          "name": "F#3",
          "ticks": 10240,
          "time": "10240i",
          "velocity": 1
        },
        {
          "duration": 0.2777776666666796,
          "durationTicks": 16,
          "midi": 50,
          "name": "D3",
          "ticks": 10256,
          "time": "10256i",
          "velocity": 1
        },
        {
          "duration": 0.2777776666666796,
          "durationTicks": 16,
          "midi": 42,
          "name": "F#2",
          "ticks": 10272,
          "time": "10272i",
          "velocity": 1
        },
        {
          "duration": 0.27777766666665116,
          "durationTicks": 16,
          "midi": 50,
          "name": "D3",
          "ticks": 10288,
          "time": "10288i",
          "velocity": 1
        },
        {
          "duration": 0.2777776666666796,
          "durationTicks": 16,
          "midi": 54,
          "name": "F#3",
          "ticks": 10304,
          "time": "10304i",
          "velocity": 1
        },
        {
          "duration": 0.2777776666666796,
          "durationTicks": 16,
          "midi": 57,
          "name": "A3",
          "ticks": 10320,
          "time": "10320i",
          "velocity": 1
        },
        {
          "duration": 0.27777766666665116,
          "durationTicks": 16,
          "midi": 54,
          "name": "F#3",
          "ticks": 10336,
          "time": "10336i",
          "velocity": 1
        },
        {
          "duration": 0.2777776666666796,
          "durationTicks": 16,
          "midi": 50,
          "name": "D3",
          "ticks": 10352,
          "time": "10352i",
          "velocity": 1
        },
        {
          "duration": 0.27777766666665116,
          "durationTicks": 16,
          "midi": 43,
          "name": "G2",
          "ticks": 10368,
          "time": "10368i",
          "velocity": 1
        },
        {
          "duration": 0.27777766666665116,
          "durationTicks": 16,
          "midi": 47,
          "name": "B2",
          "ticks": 10384,
          "time": "10384i",
          "velocity": 1
        },
        {
          "duration": 0.2777776666666796,
          "durationTicks": 16,
          "midi": 50,
          "name": "D3",
          "ticks": 10400,
          "time": "10400i",
          "velocity": 1
        },
        {
          "duration": 0.2777776666666796,
          "durationTicks": 16,
          "midi": 55,
          "name": "G3",
          "ticks": 10416,
          "time": "10416i",
          "velocity": 1
        },
        {
          "duration": 0.27777766666665116,
          "durationTicks": 16,
          "midi": 50,
          "name": "D3",
          "ticks": 10432,
          "time": "10432i",
          "velocity": 1
        },
        {
          "duration": 0.2777776666666796,
          "durationTicks": 16,
          "midi": 47,
          "name": "B2",
          "ticks": 10448,
          "time": "10448i",
          "velocity": 1
        },
        {
          "duration": 0.2777776666666796,
          "durationTicks": 16,
          "midi": 38,
          "name": "D2",
          "ticks": 10464,
          "time": "10464i",
          "velocity": 1
        },
        {
          "duration": 0.27777766666665116,
          "durationTicks": 16,
          "midi": 45,
          "name": "A2",
          "ticks": 10480,
          "time": "10480i",
          "velocity": 1
        },
        {
          "duration": 0.27777766666665116,
          "durationTicks": 16,
          "midi": 50,
          "name": "D3",
          "ticks": 10496,
          "time": "10496i",
          "velocity": 1
        },
        {
          "duration": 0.2777776666666796,
          "durationTicks": 16,
          "midi": 54,
          "name": "F#3",
          "ticks": 10512,
          "time": "10512i",
          "velocity": 1
        },
        {
          "duration": 0.27777766666665116,
          "durationTicks": 16,
          "midi": 50,
          "name": "D3",
          "ticks": 10528,
          "time": "10528i",
          "velocity": 1
        },
        {
          "duration": 0.2777776666666796,
          "durationTicks": 16,
          "midi": 45,
          "name": "A2",
          "ticks": 10544,
          "time": "10544i",
          "velocity": 1
        },
        {
          "duration": 0.2777776666666796,
          "durationTicks": 16,
          "midi": 43,
          "name": "G2",
          "ticks": 10560,
          "time": "10560i",
          "velocity": 1
        },
        {
          "duration": 0.27777766666665116,
          "durationTicks": 16,
          "midi": 47,
          "name": "B2",
          "ticks": 10576,
          "time": "10576i",
          "velocity": 1
        },
        {
          "duration": 0.2777776666666796,
          "durationTicks": 16,
          "midi": 52,
          "name": "E3",
          "ticks": 10592,
          "time": "10592i",
          "velocity": 1
        },
        {
          "duration": 0.2777776666666796,
          "durationTicks": 16,
          "midi": 55,
          "name": "G3",
          "ticks": 10608,
          "time": "10608i",
          "velocity": 1
        },
        {
          "duration": 0.27777766666665116,
          "durationTicks": 16,
          "midi": 52,
          "name": "E3",
          "ticks": 10624,
          "time": "10624i",
          "velocity": 1
        },
        {
          "duration": 0.27777766666665116,
          "durationTicks": 16,
          "midi": 47,
          "name": "B2",
          "ticks": 10640,
          "time": "10640i",
          "velocity": 1
        },
        {
          "duration": 0.2777776666666796,
          "durationTicks": 16,
          "midi": 45,
          "name": "A2",
          "ticks": 10656,
          "time": "10656i",
          "velocity": 1
        },
        {
          "duration": 0.27777766666665116,
          "durationTicks": 16,
          "midi": 49,
          "name": "C#3",
          "ticks": 10672,
          "time": "10672i",
          "velocity": 1
        },
        {
          "duration": 0.2777776666666796,
          "durationTicks": 16,
          "midi": 52,
          "name": "E3",
          "ticks": 10688,
          "time": "10688i",
          "velocity": 1
        },
        {
          "duration": 0.2777776666666796,
          "durationTicks": 16,
          "midi": 57,
          "name": "A3",
          "ticks": 10704,
          "time": "10704i",
          "velocity": 1
        },
        {
          "duration": 0.27777766666665116,
          "durationTicks": 16,
          "midi": 52,
          "name": "E3",
          "ticks": 10720,
          "time": "10720i",
          "velocity": 1
        },
        {
          "duration": 0.2777776666666796,
          "durationTicks": 16,
          "midi": 49,
          "name": "C#3",
          "ticks": 10736,
          "time": "10736i",
          "velocity": 1
        },
        {
          "duration": 0.20833324999998126,
          "durationTicks": 12,
          "midi": 38,
          "name": "D2",
          "ticks": 10752,
          "time": "10752i",
          "velocity": 1
        },
        {
          "duration": 0.20833325000000968,
          "durationTicks": 12,
          "midi": 45,
          "name": "A2",
          "ticks": 10764,
          "time": "10764i",
          "velocity": 1
        },
        {
          "duration": 0.20833325000000968,
          "durationTicks": 12,
          "midi": 50,
          "name": "D3",
          "ticks": 10776,
          "time": "10776i",
          "velocity": 1
        },
        {
          "duration": 0.20833324999998126,
          "durationTicks": 12,
          "midi": 54,
          "name": "F#3",
          "ticks": 10788,
          "time": "10788i",
          "velocity": 1
        },
        {
          "duration": 0.41666650000001937,
          "durationTicks": 24,
          "midi": 57,
          "name": "A3",
          "ticks": 10800,
          "time": "10800i",
          "velocity": 1
        },
        {
          "duration": 0.41666649999999095,
          "durationTicks": 24,
          "midi": 50,
          "name": "D3",
          "ticks": 10824,
          "time": "10824i",
          "velocity": 1
        },
        {
          "duration": 0.20833325000000968,
          "durationTicks": 12,
          "midi": 33,
          "name": "A1",
          "ticks": 10848,
          "time": "10848i",
          "velocity": 1
        },
        {
          "duration": 0.20833324999998126,
          "durationTicks": 12,
          "midi": 45,
          "name": "A2",
          "ticks": 10860,
          "time": "10860i",
          "velocity": 1
        },
        {
          "duration": 0.20833325000000968,
          "durationTicks": 12,
          "midi": 49,
          "name": "C#3",
          "ticks": 10872,
          "time": "10872i",
          "velocity": 1
        },
        {
          "duration": 0.20833325000000968,
          "durationTicks": 12,
          "midi": 52,
          "name": "E3",
          "ticks": 10884,
          "time": "10884i",
          "velocity": 1
        },
        {
          "duration": 0.41666649999999095,
          "durationTicks": 24,
          "midi": 57,
          "name": "A3",
          "ticks": 10896,
          "time": "10896i",
          "velocity": 1
        },
        {
          "duration": 0.41666649999999095,
          "durationTicks": 24,
          "midi": 52,
          "name": "E3",
          "ticks": 10920,
          "time": "10920i",
          "velocity": 1
        },
        {
          "duration": 0.20833325000000968,
          "durationTicks": 12,
          "midi": 35,
          "name": "B1",
          "ticks": 10944,
          "time": "10944i",
          "velocity": 1
        },
        {
          "duration": 0.20833324999998126,
          "durationTicks": 12,
          "midi": 47,
          "name": "B2",
          "ticks": 10956,
          "time": "10956i",
          "velocity": 1
        },
        {
          "duration": 0.20833325000000968,
          "durationTicks": 12,
          "midi": 50,
          "name": "D3",
          "ticks": 10968,
          "time": "10968i",
          "velocity": 1
        },
        {
          "duration": 0.20833325000000968,
          "durationTicks": 12,
          "midi": 54,
          "name": "F#3",
          "ticks": 10980,
          "time": "10980i",
          "velocity": 1
        },
        {
          "duration": 0.41666649999999095,
          "durationTicks": 24,
          "midi": 57,
          "name": "A3",
          "ticks": 10992,
          "time": "10992i",
          "velocity": 1
        },
        {
          "duration": 0.41666649999999095,
          "durationTicks": 24,
          "midi": 54,
          "name": "F#3",
          "ticks": 11016,
          "time": "11016i",
          "velocity": 1
        },
        {
          "duration": 0.20833325000000968,
          "durationTicks": 12,
          "midi": 42,
          "name": "F#2",
          "ticks": 11040,
          "time": "11040i",
          "velocity": 1
        },
        {
          "duration": 0.20833325000000968,
          "durationTicks": 12,
          "midi": 45,
          "name": "A2",
          "ticks": 11052,
          "time": "11052i",
          "velocity": 1
        },
        {
          "duration": 0.20833324999998126,
          "durationTicks": 12,
          "midi": 49,
          "name": "C#3",
          "ticks": 11064,
          "time": "11064i",
          "velocity": 1
        },
        {
          "duration": 0.20833325000000968,
          "durationTicks": 12,
          "midi": 54,
          "name": "F#3",
          "ticks": 11076,
          "time": "11076i",
          "velocity": 1
        },
        {
          "duration": 0.41666649999999095,
          "durationTicks": 24,
          "midi": 57,
          "name": "A3",
          "ticks": 11088,
          "time": "11088i",
          "velocity": 1
        },
        {
          "duration": 0.41666650000001937,
          "durationTicks": 24,
          "midi": 49,
          "name": "C#3",
          "ticks": 11112,
          "time": "11112i",
          "velocity": 1
        },
        {
          "duration": 0.20833324999998126,
          "durationTicks": 12,
          "midi": 43,
          "name": "G2",
          "ticks": 11136,
          "time": "11136i",
          "velocity": 1
        },
        {
          "duration": 0.20833325000000968,
          "durationTicks": 12,
          "midi": 47,
          "name": "B2",
          "ticks": 11148,
          "time": "11148i",
          "velocity": 1
        },
        {
          "duration": 0.20833325000000968,
          "durationTicks": 12,
          "midi": 50,
          "name": "D3",
          "ticks": 11160,
          "time": "11160i",
          "velocity": 1
        },
        {
          "duration": 0.20833324999998126,
          "durationTicks": 12,
          "midi": 55,
          "name": "G3",
          "ticks": 11172,
          "time": "11172i",
          "velocity": 1
        },
        {
          "duration": 0.41666650000001937,
          "durationTicks": 24,
          "midi": 59,
          "name": "B3",
          "ticks": 11184,
          "time": "11184i",
          "velocity": 1
        },
        {
          "duration": 0.41666649999999095,
          "durationTicks": 24,
          "midi": 50,
          "name": "D3",
          "ticks": 11208,
          "time": "11208i",
          "velocity": 1
        },
        {
          "duration": 0.20833325000000968,
          "durationTicks": 12,
          "midi": 38,
          "name": "D2",
          "ticks": 11232,
          "time": "11232i",
          "velocity": 1
        },
        {
          "duration": 0.20833324999998126,
          "durationTicks": 12,
          "midi": 45,
          "name": "A2",
          "ticks": 11244,
          "time": "11244i",
          "velocity": 1
        },
        {
          "duration": 0.20833325000000968,
          "durationTicks": 12,
          "midi": 50,
          "name": "D3",
          "ticks": 11256,
          "time": "11256i",
          "velocity": 1
        },
        {
          "duration": 0.20833325000000968,
          "durationTicks": 12,
          "midi": 54,
          "name": "F#3",
          "ticks": 11268,
          "time": "11268i",
          "velocity": 1
        },
        {
          "duration": 0.41666649999999095,
          "durationTicks": 24,
          "midi": 57,
          "name": "A3",
          "ticks": 11280,
          "time": "11280i",
          "velocity": 1
        },
        {
          "duration": 0.41666649999999095,
          "durationTicks": 24,
          "midi": 50,
          "name": "D3",
          "ticks": 11304,
          "time": "11304i",
          "velocity": 1
        },
        {
          "duration": 0.20833325000000968,
          "durationTicks": 12,
          "midi": 31,
          "name": "G1",
          "ticks": 11328,
          "time": "11328i",
          "velocity": 1
        },
        {
          "duration": 0.20833325000000968,
          "durationTicks": 12,
          "midi": 43,
          "name": "G2",
          "ticks": 11340,
          "time": "11340i",
          "velocity": 1
        },
        {
          "duration": 0.20833324999998126,
          "durationTicks": 12,
          "midi": 47,
          "name": "B2",
          "ticks": 11352,
          "time": "11352i",
          "velocity": 1
        },
        {
          "duration": 0.20833325000000968,
          "durationTicks": 12,
          "midi": 50,
          "name": "D3",
          "ticks": 11364,
          "time": "11364i",
          "velocity": 1
        },
        {
          "duration": 0.20833325000000968,
          "durationTicks": 12,
          "midi": 55,
          "name": "G3",
          "ticks": 11376,
          "time": "11376i",
          "velocity": 1
        },
        {
          "duration": 0.20833324999998126,
          "durationTicks": 12,
          "midi": 50,
          "name": "D3",
          "ticks": 11388,
          "time": "11388i",
          "velocity": 1
        },
        {
          "duration": 0.20833325000000968,
          "durationTicks": 12,
          "midi": 47,
          "name": "B2",
          "ticks": 11400,
          "time": "11400i",
          "velocity": 1
        },
        {
          "duration": 0.20833325000000968,
          "durationTicks": 12,
          "midi": 42,
          "name": "F#2",
          "ticks": 11412,
          "time": "11412i",
          "velocity": 1
        },
        {
          "duration": 0.20833324999998126,
          "durationTicks": 12,
          "midi": 33,
          "name": "A1",
          "ticks": 11424,
          "time": "11424i",
          "velocity": 1
        },
        {
          "duration": 0.20833325000000968,
          "durationTicks": 12,
          "midi": 45,
          "name": "A2",
          "ticks": 11436,
          "time": "11436i",
          "velocity": 1
        },
        {
          "duration": 0.20833325000000968,
          "durationTicks": 12,
          "midi": 49,
          "name": "C#3",
          "ticks": 11448,
          "time": "11448i",
          "velocity": 1
        },
        {
          "duration": 0.20833324999998126,
          "durationTicks": 12,
          "midi": 52,
          "name": "E3",
          "ticks": 11460,
          "time": "11460i",
          "velocity": 1
        },
        {
          "duration": 0.20833325000000968,
          "durationTicks": 12,
          "midi": 57,
          "name": "A3",
          "ticks": 11472,
          "time": "11472i",
          "velocity": 1
        },
        {
          "duration": 0.20833324999998126,
          "durationTicks": 12,
          "midi": 52,
          "name": "E3",
          "ticks": 11484,
          "time": "11484i",
          "velocity": 1
        },
        {
          "duration": 0.20833325000000968,
          "durationTicks": 12,
          "midi": 49,
          "name": "C#3",
          "ticks": 11496,
          "time": "11496i",
          "velocity": 1
        },
        {
          "duration": 0.20833325000000968,
          "durationTicks": 12,
          "midi": 45,
          "name": "A2",
          "ticks": 11508,
          "time": "11508i",
          "velocity": 1
        },
        {
          "duration": 1.6666659999999922,
          "durationTicks": 96,
          "midi": 78,
          "name": "F#5",
          "ticks": 11520,
          "time": "11520i",
          "velocity": 1
        }
      ]
    },
    {
      "channel": 0,
      "controlChanges": {
        "7": [
          {
            "number": 7,
            "ticks": 0,
            "time": 0,
            "value": 1
          }
        ],
        "10": [
          {
            "number": 10,
            "ticks": 0,
            "time": 0,
            "value": 1
          }
        ]
      },
      "pitchBends": [],
      "instrument": {
        "family": "piano",
        "number": 0,
        "name": "acoustic grand piano"
      },
      "name": "WinJammer Demo",
      "notes": [],
      "endOfTrackTicks": 11616
    },
    {
      "channel": 1,
      "controlChanges": {},
      "pitchBends": [],
      "instrument": {
        "family": "piano",
        "number": 1,
        "name": "bright acoustic piano"
      },
      "name": "",
      "notes": [
        {
          "duration": 0.4166665,
          "durationTicks": 24,
          "midi": 54,
          "name": "F#3",
          "ticks": 24,
          "time": "24i",
          "velocity": 0.7559055118110236
        },
        {
          "duration": 0.41666649999999994,
          "durationTicks": 24,
          "midi": 57,
          "name": "A3",
          "ticks": 48,
          "time": "48i",
          "velocity": 0.7559055118110236
        },
        {
          "duration": 0.41666650000000005,
          "durationTicks": 24,
          "midi": 62,
          "name": "D4",
          "ticks": 72,
          "time": "72i",
          "velocity": 0.7559055118110236
        },
        {
          "duration": 0.41666649999999983,
          "durationTicks": 24,
          "midi": 52,
          "name": "E3",
          "ticks": 120,
          "time": "120i",
          "velocity": 0.7559055118110236
        },
        {
          "duration": 0.4166665000000003,
          "durationTicks": 24,
          "midi": 57,
          "name": "A3",
          "ticks": 144,
          "time": "144i",
          "velocity": 0.7559055118110236
        },
        {
          "duration": 0.41666649999999983,
          "durationTicks": 24,
          "midi": 61,
          "name": "C#4",
          "ticks": 168,
          "time": "168i",
          "velocity": 0.7559055118110236
        },
        {
          "duration": 0.4166665000000003,
          "durationTicks": 24,
          "midi": 50,
          "name": "D3",
          "ticks": 216,
          "time": "216i",
          "velocity": 0.7559055118110236
        },
        {
          "duration": 0.41666649999999983,
          "durationTicks": 24,
          "midi": 54,
          "name": "F#3",
          "ticks": 240,
          "time": "240i",
          "velocity": 0.7559055118110236
        },
        {
          "duration": 0.41666649999999983,
          "durationTicks": 24,
          "midi": 59,
          "name": "B3",
          "ticks": 264,
          "time": "264i",
          "velocity": 0.7559055118110236
        },
        {
          "duration": 0.4166665000000007,
          "durationTicks": 24,
          "midi": 49,
          "name": "C#3",
          "ticks": 312,
          "time": "312i",
          "velocity": 0.7559055118110236
        },
        {
          "duration": 0.41666649999999983,
          "durationTicks": 24,
          "midi": 54,
          "name": "F#3",
          "ticks": 336,
          "time": "336i",
          "velocity": 0.7559055118110236
        },
        {
          "duration": 0.41666649999999983,
          "durationTicks": 24,
          "midi": 57,
          "name": "A3",
          "ticks": 360,
          "time": "360i",
          "velocity": 0.7559055118110236
        },
        {
          "duration": 0.41666649999999983,
          "durationTicks": 24,
          "midi": 47,
          "name": "B2",
          "ticks": 408,
          "time": "408i",
          "velocity": 0.7559055118110236
        },
        {
          "duration": 0.4166665000000007,
          "durationTicks": 24,
          "midi": 50,
          "name": "D3",
          "ticks": 432,
          "time": "432i",
          "velocity": 0.7559055118110236
        },
        {
          "duration": 0.41666649999999983,
          "durationTicks": 24,
          "midi": 55,
          "name": "G3",
          "ticks": 456,
          "time": "456i",
          "velocity": 0.7559055118110236
        },
        {
          "duration": 0.41666649999999983,
          "durationTicks": 24,
          "midi": 54,
          "name": "F#3",
          "ticks": 504,
          "time": "504i",
          "velocity": 0.7559055118110236
        },
        {
          "duration": 0.41666649999999983,
          "durationTicks": 24,
          "midi": 57,
          "name": "A3",
          "ticks": 528,
          "time": "528i",
          "velocity": 0.7559055118110236
        },
        {
          "duration": 0.41666649999999983,
          "durationTicks": 24,
          "midi": 62,
          "name": "D4",
          "ticks": 552,
          "time": "552i",
          "velocity": 0.7559055118110236
        },
        {
          "duration": 0.41666649999999983,
          "durationTicks": 24,
          "midi": 52,
          "name": "E3",
          "ticks": 600,
          "time": "600i",
          "velocity": 0.7559055118110236
        },
        {
          "duration": 0.4166665000000016,
          "durationTicks": 24,
          "midi": 59,
          "name": "B3",
          "ticks": 624,
          "time": "624i",
          "velocity": 0.7559055118110236
        },
        {
          "duration": 0.41666649999999983,
          "durationTicks": 24,
          "midi": 62,
          "name": "D4",
          "ticks": 648,
          "time": "648i",
          "velocity": 0.7559055118110236
        },
        {
          "duration": 0.41666649999999983,
          "durationTicks": 24,
          "midi": 52,
          "name": "E3",
          "ticks": 696,
          "time": "696i",
          "velocity": 0.7559055118110236
        },
        {
          "duration": 0.41666649999999983,
          "durationTicks": 24,
          "midi": 57,
          "name": "A3",
          "ticks": 720,
          "time": "720i",
          "velocity": 0.7559055118110236
        },
        {
          "duration": 0.41666649999999983,
          "durationTicks": 24,
          "midi": 61,
          "name": "C#4",
          "ticks": 744,
          "time": "744i",
          "velocity": 0.7559055118110236
        },
        {
          "duration": 0.41666649999999983,
          "durationTicks": 24,
          "midi": 54,
          "name": "F#3",
          "ticks": 792,
          "time": "792i",
          "velocity": 0.7559055118110236
        },
        {
          "duration": 0.41666649999999983,
          "durationTicks": 24,
          "midi": 57,
          "name": "A3",
          "ticks": 816,
          "time": "816i",
          "velocity": 0.7559055118110236
        },
        {
          "duration": 0.41666649999999983,
          "durationTicks": 24,
          "midi": 62,
          "name": "D4",
          "ticks": 840,
          "time": "840i",
          "velocity": 0.7559055118110236
        },
        {
          "duration": 0.4166665000000016,
          "durationTicks": 24,
          "midi": 52,
          "name": "E3",
          "ticks": 888,
          "time": "888i",
          "velocity": 0.7559055118110236
        },
        {
          "duration": 0.41666649999999805,
          "durationTicks": 24,
          "midi": 57,
          "name": "A3",
          "ticks": 912,
          "time": "912i",
          "velocity": 0.7559055118110236
        },
        {
          "duration": 0.4166665000000016,
          "durationTicks": 24,
          "midi": 61,
          "name": "C#4",
          "ticks": 936,
          "time": "936i",
          "velocity": 0.7559055118110236
        },
        {
          "duration": 0.4166665000000016,
          "durationTicks": 24,
          "midi": 50,
          "name": "D3",
          "ticks": 984,
          "time": "984i",
          "velocity": 0.7559055118110236
        },
        {
          "duration": 0.4166665000000016,
          "durationTicks": 24,
          "midi": 54,
          "name": "F#3",
          "ticks": 1008,
          "time": "1008i",
          "velocity": 0.7559055118110236
        },
        {
          "duration": 0.41666649999999805,
          "durationTicks": 24,
          "midi": 59,
          "name": "B3",
          "ticks": 1032,
          "time": "1032i",
          "velocity": 0.7559055118110236
        },
        {
          "duration": 0.41666649999999805,
          "durationTicks": 24,
          "midi": 49,
          "name": "C#3",
          "ticks": 1080,
          "time": "1080i",
          "velocity": 0.7559055118110236
        },
        {
          "duration": 0.4166665000000016,
          "durationTicks": 24,
          "midi": 54,
          "name": "F#3",
          "ticks": 1104,
          "time": "1104i",
          "velocity": 0.7559055118110236
        },
        {
          "duration": 0.41666649999999805,
          "durationTicks": 24,
          "midi": 57,
          "name": "A3",
          "ticks": 1128,
          "time": "1128i",
          "velocity": 0.7559055118110236
        },
        {
          "duration": 0.41666649999999805,
          "durationTicks": 24,
          "midi": 47,
          "name": "B2",
          "ticks": 1176,
          "time": "1176i",
          "velocity": 0.7559055118110236
        },
        {
          "duration": 0.4166665000000016,
          "durationTicks": 24,
          "midi": 50,
          "name": "D3",
          "ticks": 1200,
          "time": "1200i",
          "velocity": 0.7559055118110236
        },
        {
          "duration": 0.41666649999999805,
          "durationTicks": 24,
          "midi": 55,
          "name": "G3",
          "ticks": 1224,
          "time": "1224i",
          "velocity": 0.7559055118110236
        },
        {
          "duration": 0.4166665000000016,
          "durationTicks": 24,
          "midi": 54,
          "name": "F#3",
          "ticks": 1272,
          "time": "1272i",
          "velocity": 0.7559055118110236
        },
        {
          "duration": 0.41666649999999805,
          "durationTicks": 24,
          "midi": 57,
          "name": "A3",
          "ticks": 1296,
          "time": "1296i",
          "velocity": 0.7559055118110236
        },
        {
          "duration": 0.4166665000000016,
          "durationTicks": 24,
          "midi": 62,
          "name": "D4",
          "ticks": 1320,
          "time": "1320i",
          "velocity": 0.7559055118110236
        },
        {
          "duration": 0.4166665000000016,
          "durationTicks": 24,
          "midi": 52,
          "name": "E3",
          "ticks": 1368,
          "time": "1368i",
          "velocity": 0.7559055118110236
        },
        {
          "duration": 0.41666649999999805,
          "durationTicks": 24,
          "midi": 59,
          "name": "B3",
          "ticks": 1392,
          "time": "1392i",
          "velocity": 0.7559055118110236
        },
        {
          "duration": 0.4166665000000016,
          "durationTicks": 24,
          "midi": 62,
          "name": "D4",
          "ticks": 1416,
          "time": "1416i",
          "velocity": 0.7559055118110236
        },
        {
          "duration": 0.4166665000000016,
          "durationTicks": 24,
          "midi": 52,
          "name": "E3",
          "ticks": 1464,
          "time": "1464i",
          "velocity": 0.7559055118110236
        },
        {
          "duration": 0.41666649999999805,
          "durationTicks": 24,
          "midi": 57,
          "name": "A3",
          "ticks": 1488,
          "time": "1488i",
          "velocity": 0.7559055118110236
        },
        {
          "duration": 0.4166665000000016,
          "durationTicks": 24,
          "midi": 61,
          "name": "C#4",
          "ticks": 1512,
          "time": "1512i",
          "velocity": 0.7559055118110236
        },
        {
          "duration": 0.41666649999999805,
          "durationTicks": 24,
          "midi": 54,
          "name": "F#3",
          "ticks": 1560,
          "time": "1560i",
          "velocity": 0.7559055118110236
        },
        {
          "duration": 0.4166665000000016,
          "durationTicks": 24,
          "midi": 57,
          "name": "A3",
          "ticks": 1584,
          "time": "1584i",
          "velocity": 0.7559055118110236
        },
        {
          "duration": 0.41666649999999805,
          "durationTicks": 24,
          "midi": 62,
          "name": "D4",
          "ticks": 1608,
          "time": "1608i",
          "velocity": 0.7559055118110236
        },
        {
          "duration": 0.41666649999999805,
          "durationTicks": 24,
          "midi": 52,
          "name": "E3",
          "ticks": 1656,
          "time": "1656i",
          "velocity": 0.7559055118110236
        },
        {
          "duration": 0.4166665000000016,
          "durationTicks": 24,
          "midi": 57,
          "name": "A3",
          "ticks": 1680,
          "time": "1680i",
          "velocity": 0.7559055118110236
        },
        {
          "duration": 0.41666649999999805,
          "durationTicks": 24,
          "midi": 61,
          "name": "C#4",
          "ticks": 1704,
          "time": "1704i",
          "velocity": 0.7559055118110236
        },
        {
          "duration": 0.41666649999999805,
          "durationTicks": 24,
          "midi": 50,
          "name": "D3",
          "ticks": 1752,
          "time": "1752i",
          "velocity": 0.7559055118110236
        },
        {
          "duration": 0.4166665000000016,
          "durationTicks": 24,
          "midi": 54,
          "name": "F#3",
          "ticks": 1776,
          "time": "1776i",
          "velocity": 0.7559055118110236
        },
        {
          "duration": 0.4166665000000016,
          "durationTicks": 24,
          "midi": 59,
          "name": "B3",
          "ticks": 1800,
          "time": "1800i",
          "velocity": 0.7559055118110236
        },
        {
          "duration": 0.41666649999999805,
          "durationTicks": 24,
          "midi": 49,
          "name": "C#3",
          "ticks": 1848,
          "time": "1848i",
          "velocity": 0.7559055118110236
        },
        {
          "duration": 0.41666650000000516,
          "durationTicks": 24,
          "midi": 54,
          "name": "F#3",
          "ticks": 1872,
          "time": "1872i",
          "velocity": 0.7559055118110236
        },
        {
          "duration": 0.41666649999999805,
          "durationTicks": 24,
          "midi": 57,
          "name": "A3",
          "ticks": 1896,
          "time": "1896i",
          "velocity": 0.7559055118110236
        },
        {
          "duration": 0.41666649999999805,
          "durationTicks": 24,
          "midi": 47,
          "name": "B2",
          "ticks": 1944,
          "time": "1944i",
          "velocity": 0.7559055118110236
        },
        {
          "duration": 0.41666650000000516,
          "durationTicks": 24,
          "midi": 50,
          "name": "D3",
          "ticks": 1968,
          "time": "1968i",
          "velocity": 0.7559055118110236
        },
        {
          "duration": 0.41666649999999805,
          "durationTicks": 24,
          "midi": 55,
          "name": "G3",
          "ticks": 1992,
          "time": "1992i",
          "velocity": 0.7559055118110236
        },
        {
          "duration": 0.41666650000000516,
          "durationTicks": 24,
          "midi": 54,
          "name": "F#3",
          "ticks": 2040,
          "time": "2040i",
          "velocity": 0.7559055118110236
        },
        {
          "duration": 0.41666649999999805,
          "durationTicks": 24,
          "midi": 57,
          "name": "A3",
          "ticks": 2064,
          "time": "2064i",
          "velocity": 0.7559055118110236
        },
        {
          "duration": 0.41666649999999805,
          "durationTicks": 24,
          "midi": 62,
          "name": "D4",
          "ticks": 2088,
          "time": "2088i",
          "velocity": 0.7559055118110236
        },
        {
          "duration": 0.41666650000000516,
          "durationTicks": 24,
          "midi": 52,
          "name": "E3",
          "ticks": 2136,
          "time": "2136i",
          "velocity": 0.7559055118110236
        },
        {
          "duration": 0.41666649999999805,
          "durationTicks": 24,
          "midi": 59,
          "name": "B3",
          "ticks": 2160,
          "time": "2160i",
          "velocity": 0.7559055118110236
        },
        {
          "duration": 0.41666649999999805,
          "durationTicks": 24,
          "midi": 62,
          "name": "D4",
          "ticks": 2184,
          "time": "2184i",
          "velocity": 0.7559055118110236
        },
        {
          "duration": 0.41666650000000516,
          "durationTicks": 24,
          "midi": 52,
          "name": "E3",
          "ticks": 2232,
          "time": "2232i",
          "velocity": 0.7559055118110236
        },
        {
          "duration": 0.41666649999999805,
          "durationTicks": 24,
          "midi": 57,
          "name": "A3",
          "ticks": 2256,
          "time": "2256i",
          "velocity": 0.7559055118110236
        },
        {
          "duration": 0.41666649999999805,
          "durationTicks": 24,
          "midi": 61,
          "name": "C#4",
          "ticks": 2280,
          "time": "2280i",
          "velocity": 0.7559055118110236
        },
        {
          "duration": 0.41666649999999805,
          "durationTicks": 24,
          "midi": 54,
          "name": "F#3",
          "ticks": 2328,
          "time": "2328i",
          "velocity": 0.7559055118110236
        },
        {
          "duration": 0.41666649999999805,
          "durationTicks": 24,
          "midi": 57,
          "name": "A3",
          "ticks": 2352,
          "time": "2352i",
          "velocity": 0.7559055118110236
        },
        {
          "duration": 0.41666649999999805,
          "durationTicks": 24,
          "midi": 54,
          "name": "F#3",
          "ticks": 2376,
          "time": "2376i",
          "velocity": 0.7559055118110236
        },
        {
          "duration": 0.41666649999999805,
          "durationTicks": 24,
          "midi": 49,
          "name": "C#3",
          "ticks": 2424,
          "time": "2424i",
          "velocity": 0.7559055118110236
        },
        {
          "duration": 0.41666649999999805,
          "durationTicks": 24,
          "midi": 52,
          "name": "E3",
          "ticks": 2448,
          "time": "2448i",
          "velocity": 0.7559055118110236
        },
        {
          "duration": 0.41666649999999805,
          "durationTicks": 24,
          "midi": 57,
          "name": "A3",
          "ticks": 2472,
          "time": "2472i",
          "velocity": 0.7559055118110236
        },
        {
          "duration": 0.41666649999999805,
          "durationTicks": 24,
          "midi": 50,
          "name": "D3",
          "ticks": 2520,
          "time": "2520i",
          "velocity": 0.7559055118110236
        },
        {
          "duration": 0.41666649999999805,
          "durationTicks": 24,
          "midi": 54,
          "name": "F#3",
          "ticks": 2544,
          "time": "2544i",
          "velocity": 0.7559055118110236
        },
        {
          "duration": 0.41666650000000516,
          "durationTicks": 24,
          "midi": 50,
          "name": "D3",
          "ticks": 2568,
          "time": "2568i",
          "velocity": 0.7559055118110236
        },
        {
          "duration": 0.41666649999999805,
          "durationTicks": 24,
          "midi": 45,
          "name": "A2",
          "ticks": 2616,
          "time": "2616i",
          "velocity": 0.7559055118110236
        },
        {
          "duration": 0.41666649999999805,
          "durationTicks": 24,
          "midi": 49,
          "name": "C#3",
          "ticks": 2640,
          "time": "2640i",
          "velocity": 0.7559055118110236
        },
        {
          "duration": 0.41666650000000516,
          "durationTicks": 24,
          "midi": 54,
          "name": "F#3",
          "ticks": 2664,
          "time": "2664i",
          "velocity": 0.7559055118110236
        },
        {
          "duration": 0.41666649999999805,
          "durationTicks": 24,
          "midi": 47,
          "name": "B2",
          "ticks": 2712,
          "time": "2712i",
          "velocity": 0.7559055118110236
        },
        {
          "duration": 0.41666649999999805,
          "durationTicks": 24,
          "midi": 50,
          "name": "D3",
          "ticks": 2736,
          "time": "2736i",
          "velocity": 0.7559055118110236
        },
        {
          "duration": 0.41666650000000516,
          "durationTicks": 24,
          "midi": 55,
          "name": "G3",
          "ticks": 2760,
          "time": "2760i",
          "velocity": 0.7559055118110236
        },
        {
          "duration": 0.41666649999999805,
          "durationTicks": 24,
          "midi": 45,
          "name": "A2",
          "ticks": 2808,
          "time": "2808i",
          "velocity": 0.7559055118110236
        },
        {
          "duration": 0.41666650000000516,
          "durationTicks": 24,
          "midi": 50,
          "name": "D3",
          "ticks": 2832,
          "time": "2832i",
          "velocity": 0.7559055118110236
        },
        {
          "duration": 0.41666649999999805,
          "durationTicks": 24,
          "midi": 54,
          "name": "F#3",
          "ticks": 2856,
          "time": "2856i",
          "velocity": 0.7559055118110236
        },
        {
          "duration": 0.41666649999999805,
          "durationTicks": 24,
          "midi": 52,
          "name": "E3",
          "ticks": 2904,
          "time": "2904i",
          "velocity": 0.7559055118110236
        },
        {
          "duration": 0.41666650000000516,
          "durationTicks": 24,
          "midi": 55,
          "name": "G3",
          "ticks": 2928,
          "time": "2928i",
          "velocity": 0.7559055118110236
        },
        {
          "duration": 0.41666649999999805,
          "durationTicks": 24,
          "midi": 52,
          "name": "E3",
          "ticks": 2952,
          "time": "2952i",
          "velocity": 0.7559055118110236
        },
        {
          "duration": 0.41666649999999805,
          "durationTicks": 24,
          "midi": 49,
          "name": "C#3",
          "ticks": 3000,
          "time": "3000i",
          "velocity": 0.7559055118110236
        },
        {
          "duration": 0.41666650000000516,
          "durationTicks": 24,
          "midi": 52,
          "name": "E3",
          "ticks": 3024,
          "time": "3024i",
          "velocity": 0.7559055118110236
        },
        {
          "duration": 0.41666649999999805,
          "durationTicks": 24,
          "midi": 57,
          "name": "A3",
          "ticks": 3048,
          "time": "3048i",
          "velocity": 0.7559055118110236
        },
        {
          "duration": 0.41666649999999805,
          "durationTicks": 24,
          "midi": 74,
          "name": "D5",
          "ticks": 3072,
          "time": "3072i",
          "velocity": 0.7559055118110236
        },
        {
          "duration": 0.41666650000000516,
          "durationTicks": 24,
          "midi": 73,
          "name": "C#5",
          "ticks": 3096,
          "time": "3096i",
          "velocity": 0.7559055118110236
        },
        {
          "duration": 0.41666649999999805,
          "durationTicks": 24,
          "midi": 74,
          "name": "D5",
          "ticks": 3120,
          "time": "3120i",
          "velocity": 0.7559055118110236
        },
        {
          "duration": 0.41666649999999805,
          "durationTicks": 24,
          "midi": 62,
          "name": "D4",
          "ticks": 3144,
          "time": "3144i",
          "velocity": 0.7559055118110236
        },
        {
          "duration": 0.41666649999999805,
          "durationTicks": 24,
          "midi": 61,
          "name": "C#4",
          "ticks": 3168,
          "time": "3168i",
          "velocity": 0.7559055118110236
        },
        {
          "duration": 0.41666650000000516,
          "durationTicks": 24,
          "midi": 69,
          "name": "A4",
          "ticks": 3192,
          "time": "3192i",
          "velocity": 0.7559055118110236
        },
        {
          "duration": 0.41666649999999805,
          "durationTicks": 24,
          "midi": 64,
          "name": "E4",
          "ticks": 3216,
          "time": "3216i",
          "velocity": 0.7559055118110236
        },
        {
          "duration": 0.41666649999999805,
          "durationTicks": 24,
          "midi": 66,
          "name": "F#4",
          "ticks": 3240,
          "time": "3240i",
          "velocity": 0.7559055118110236
        },
        {
          "duration": 0.41666649999999805,
          "durationTicks": 24,
          "midi": 62,
          "name": "D4",
          "ticks": 3264,
          "time": "3264i",
          "velocity": 0.7559055118110236
        },
        {
          "duration": 0.41666650000000516,
          "durationTicks": 24,
          "midi": 74,
          "name": "D5",
          "ticks": 3288,
          "time": "3288i",
          "velocity": 0.7559055118110236
        },
        {
          "duration": 0.41666649999999805,
          "durationTicks": 24,
          "midi": 73,
          "name": "C#5",
          "ticks": 3312,
          "time": "3312i",
          "velocity": 0.7559055118110236
        },
        {
          "duration": 0.41666649999999805,
          "durationTicks": 24,
          "midi": 71,
          "name": "B4",
          "ticks": 3336,
          "time": "3336i",
          "velocity": 0.7559055118110236
        },
        {
          "duration": 0.41666650000000516,
          "durationTicks": 24,
          "midi": 69,
          "name": "A4",
          "ticks": 3360,
          "time": "3360i",
          "velocity": 0.7559055118110236
        },
        {
          "duration": 0.41666649999999805,
          "durationTicks": 24,
          "midi": 66,
          "name": "F#4",
          "ticks": 3384,
          "time": "3384i",
          "velocity": 0.7559055118110236
        },
        {
          "duration": 0.41666649999999805,
          "durationTicks": 24,
          "midi": 69,
          "name": "A4",
          "ticks": 3408,
          "time": "3408i",
          "velocity": 0.7559055118110236
        },
        {
          "duration": 0.41666649999999805,
          "durationTicks": 24,
          "midi": 71,
          "name": "B4",
          "ticks": 3432,
          "time": "3432i",
          "velocity": 0.7559055118110236
        },
        {
          "duration": 0.41666650000000516,
          "durationTicks": 24,
          "midi": 67,
          "name": "G4",
          "ticks": 3456,
          "time": "3456i",
          "velocity": 0.7559055118110236
        },
        {
          "duration": 0.41666649999999805,
          "durationTicks": 24,
          "midi": 66,
          "name": "F#4",
          "ticks": 3480,
          "time": "3480i",
          "velocity": 0.7559055118110236
        },
        {
          "duration": 0.41666649999999805,
          "durationTicks": 24,
          "midi": 64,
          "name": "E4",
          "ticks": 3504,
          "time": "3504i",
          "velocity": 0.7559055118110236
        },
        {
          "duration": 0.41666649999999805,
          "durationTicks": 24,
          "midi": 67,
          "name": "G4",
          "ticks": 3528,
          "time": "3528i",
          "velocity": 0.7559055118110236
        },
        {
          "duration": 0.41666650000000516,
          "durationTicks": 24,
          "midi": 66,
          "name": "F#4",
          "ticks": 3552,
          "time": "3552i",
          "velocity": 0.7559055118110236
        },
        {
          "duration": 0.41666649999999805,
          "durationTicks": 24,
          "midi": 64,
          "name": "E4",
          "ticks": 3576,
          "time": "3576i",
          "velocity": 0.7559055118110236
        },
        {
          "duration": 0.41666649999999805,
          "durationTicks": 24,
          "midi": 62,
          "name": "D4",
          "ticks": 3600,
          "time": "3600i",
          "velocity": 0.7559055118110236
        },
        {
          "duration": 0.41666650000000516,
          "durationTicks": 24,
          "midi": 61,
          "name": "C#4",
          "ticks": 3624,
          "time": "3624i",
          "velocity": 0.7559055118110236
        },
        {
          "duration": 0.41666649999999805,
          "durationTicks": 24,
          "midi": 59,
          "name": "B3",
          "ticks": 3648,
          "time": "3648i",
          "velocity": 0.7559055118110236
        },
        {
          "duration": 0.41666649999999805,
          "durationTicks": 24,
          "midi": 69,
          "name": "A4",
          "ticks": 3672,
          "time": "3672i",
          "velocity": 0.7559055118110236
        },
        {
          "duration": 0.41666650000000516,
          "durationTicks": 24,
          "midi": 67,
          "name": "G4",
          "ticks": 3696,
          "time": "3696i",
          "velocity": 0.7559055118110236
        },
        {
          "duration": 0.41666649999999095,
          "durationTicks": 24,
          "midi": 66,
          "name": "F#4",
          "ticks": 3720,
          "time": "3720i",
          "velocity": 0.7559055118110236
        },
        {
          "duration": 0.41666650000000516,
          "durationTicks": 24,
          "midi": 64,
          "name": "E4",
          "ticks": 3744,
          "time": "3744i",
          "velocity": 0.7559055118110236
        },
        {
          "duration": 0.41666650000000516,
          "durationTicks": 24,
          "midi": 67,
          "name": "G4",
          "ticks": 3768,
          "time": "3768i",
          "velocity": 0.7559055118110236
        },
        {
          "duration": 0.41666649999999095,
          "durationTicks": 24,
          "midi": 66,
          "name": "F#4",
          "ticks": 3792,
          "time": "3792i",
          "velocity": 0.7559055118110236
        },
        {
          "duration": 0.41666650000000516,
          "durationTicks": 24,
          "midi": 64,
          "name": "E4",
          "ticks": 3816,
          "time": "3816i",
          "velocity": 0.7559055118110236
        },
        {
          "duration": 0.8333329999999961,
          "durationTicks": 48,
          "midi": 62,
          "name": "D4",
          "ticks": 3840,
          "time": "3840i",
          "velocity": 0.7559055118110236
        },
        {
          "duration": 0.8333329999999961,
          "durationTicks": 48,
          "midi": 74,
          "name": "D5",
          "ticks": 3888,
          "time": "3888i",
          "velocity": 0.7559055118110236
        },
        {
          "duration": 0.8333330000000103,
          "durationTicks": 48,
          "midi": 73,
          "name": "C#5",
          "ticks": 3936,
          "time": "3936i",
          "velocity": 0.7559055118110236
        },
        {
          "duration": 0.8333329999999961,
          "durationTicks": 48,
          "midi": 64,
          "name": "E4",
          "ticks": 3984,
          "time": "3984i",
          "velocity": 0.7559055118110236
        },
        {
          "duration": 0.8333329999999961,
          "durationTicks": 48,
          "midi": 62,
          "name": "D4",
          "ticks": 4032,
          "time": "4032i",
          "velocity": 0.7559055118110236
        },
        {
          "duration": 0.8333330000000103,
          "durationTicks": 48,
          "midi": 66,
          "name": "F#4",
          "ticks": 4080,
          "time": "4080i",
          "velocity": 0.7559055118110236
        },
        {
          "duration": 0.8333329999999961,
          "durationTicks": 48,
          "midi": 69,
          "name": "A4",
          "ticks": 4128,
          "time": "4128i",
          "velocity": 0.7559055118110236
        },
        {
          "duration": 0.8333329999999961,
          "durationTicks": 48,
          "midi": 57,
          "name": "A3",
          "ticks": 4176,
          "time": "4176i",
          "velocity": 0.7559055118110236
        },
        {
          "duration": 0.8333329999999961,
          "durationTicks": 48,
          "midi": 59,
          "name": "B3",
          "ticks": 4224,
          "time": "4224i",
          "velocity": 0.7559055118110236
        },
        {
          "duration": 0.8333330000000103,
          "durationTicks": 48,
          "midi": 67,
          "name": "G4",
          "ticks": 4272,
          "time": "4272i",
          "velocity": 0.7559055118110236
        },
        {
          "duration": 0.8333329999999961,
          "durationTicks": 48,
          "midi": 66,
          "name": "F#4",
          "ticks": 4320,
          "time": "4320i",
          "velocity": 0.7559055118110236
        },
        {
          "duration": 0.41666650000000516,
          "durationTicks": 24,
          "midi": 74,
          "name": "D5",
          "ticks": 4368,
          "time": "4368i",
          "velocity": 0.7559055118110236
        },
        {
          "duration": 0.41666649999999095,
          "durationTicks": 24,
          "midi": 73,
          "name": "C#5",
          "ticks": 4392,
          "time": "4392i",
          "velocity": 0.7559055118110236
        },
        {
          "duration": 1.6666660000000064,
          "durationTicks": 96,
          "midi": 71,
          "name": "B4",
          "ticks": 4416,
          "time": "4416i",
          "velocity": 0.7559055118110236
        },
        {
          "duration": 1.6666659999999922,
          "durationTicks": 96,
          "midi": 73,
          "name": "C#5",
          "ticks": 4512,
          "time": "4512i",
          "velocity": 0.7559055118110236
        },
        {
          "duration": 0.41666650000000516,
          "durationTicks": 24,
          "midi": 74,
          "name": "D5",
          "ticks": 4608,
          "time": "4608i",
          "velocity": 0.7559055118110236
        },
        {
          "duration": 0.20833324999999547,
          "durationTicks": 12,
          "midi": 78,
          "name": "F#5",
          "ticks": 4632,
          "time": "4632i",
          "velocity": 0.7559055118110236
        },
        {
          "duration": 0.20833325000000968,
          "durationTicks": 12,
          "midi": 79,
          "name": "G5",
          "ticks": 4644,
          "time": "4644i",
          "velocity": 0.7559055118110236
        },
        {
          "duration": 0.41666649999999095,
          "durationTicks": 24,
          "midi": 81,
          "name": "A5",
          "ticks": 4656,
          "time": "4656i",
          "velocity": 0.7559055118110236
        },
        {
          "duration": 0.20833324999999547,
          "durationTicks": 12,
          "midi": 78,
          "name": "F#5",
          "ticks": 4680,
          "time": "4680i",
          "velocity": 0.7559055118110236
        },
        {
          "duration": 0.20833325000000968,
          "durationTicks": 12,
          "midi": 79,
          "name": "G5",
          "ticks": 4692,
          "time": "4692i",
          "velocity": 0.7559055118110236
        },
        {
          "duration": 0.20833324999999547,
          "durationTicks": 12,
          "midi": 81,
          "name": "A5",
          "ticks": 4704,
          "time": "4704i",
          "velocity": 0.7559055118110236
        },
        {
          "duration": 0.20833324999999547,
          "durationTicks": 12,
          "midi": 69,
          "name": "A4",
          "ticks": 4716,
          "time": "4716i",
          "velocity": 0.7559055118110236
        },
        {
          "duration": 0.20833325000000968,
          "durationTicks": 12,
          "midi": 71,
          "name": "B4",
          "ticks": 4728,
          "time": "4728i",
          "velocity": 0.7559055118110236
        },
        {
          "duration": 0.20833324999999547,
          "durationTicks": 12,
          "midi": 73,
          "name": "C#5",
          "ticks": 4740,
          "time": "4740i",
          "velocity": 0.7559055118110236
        },
        {
          "duration": 0.20833324999999547,
          "durationTicks": 12,
          "midi": 74,
          "name": "D5",
          "ticks": 4752,
          "time": "4752i",
          "velocity": 0.7559055118110236
        },
        {
          "duration": 0.20833325000000968,
          "durationTicks": 12,
          "midi": 76,
          "name": "E5",
          "ticks": 4764,
          "time": "4764i",
          "velocity": 0.7559055118110236
        },
        {
          "duration": 0.20833324999999547,
          "durationTicks": 12,
          "midi": 78,
          "name": "F#5",
          "ticks": 4776,
          "time": "4776i",
          "velocity": 0.7559055118110236
        },
        {
          "duration": 0.20833324999999547,
          "durationTicks": 12,
          "midi": 79,
          "name": "G5",
          "ticks": 4788,
          "time": "4788i",
          "velocity": 0.7559055118110236
        },
        {
          "duration": 0.41666650000000516,
          "durationTicks": 24,
          "midi": 78,
          "name": "F#5",
          "ticks": 4800,
          "time": "4800i",
          "velocity": 0.7559055118110236
        },
        {
          "duration": 0.20833324999999547,
          "durationTicks": 12,
          "midi": 74,
          "name": "D5",
          "ticks": 4824,
          "time": "4824i",
          "velocity": 0.7559055118110236
        },
        {
          "duration": 0.20833325000000968,
          "durationTicks": 12,
          "midi": 76,
          "name": "E5",
          "ticks": 4836,
          "time": "4836i",
          "velocity": 0.7559055118110236
        },
        {
          "duration": 0.41666649999999095,
          "durationTicks": 24,
          "midi": 78,
          "name": "F#5",
          "ticks": 4848,
          "time": "4848i",
          "velocity": 0.7559055118110236
        },
        {
          "duration": 0.20833325000000968,
          "durationTicks": 12,
          "midi": 66,
          "name": "F#4",
          "ticks": 4872,
          "time": "4872i",
          "velocity": 0.7559055118110236
        },
        {
          "duration": 0.20833324999999547,
          "durationTicks": 12,
          "midi": 67,
          "name": "G4",
          "ticks": 4884,
          "time": "4884i",
          "velocity": 0.7559055118110236
        },
        {
          "duration": 0.20833324999999547,
          "durationTicks": 12,
          "midi": 69,
          "name": "A4",
          "ticks": 4896,
          "time": "4896i",
          "velocity": 0.7559055118110236
        },
        {
          "duration": 0.20833325000000968,
          "durationTicks": 12,
          "midi": 71,
          "name": "B4",
          "ticks": 4908,
          "time": "4908i",
          "velocity": 0.7559055118110236
        },
        {
          "duration": 0.20833324999999547,
          "durationTicks": 12,
          "midi": 69,
          "name": "A4",
          "ticks": 4920,
          "time": "4920i",
          "velocity": 0.7559055118110236
        },
        {
          "duration": 0.20833324999999547,
          "durationTicks": 12,
          "midi": 67,
          "name": "G4",
          "ticks": 4932,
          "time": "4932i",
          "velocity": 0.7559055118110236
        },
        {
          "duration": 0.20833324999999547,
          "durationTicks": 12,
          "midi": 69,
          "name": "A4",
          "ticks": 4944,
          "time": "4944i",
          "velocity": 0.7559055118110236
        },
        {
          "duration": 0.20833325000000968,
          "durationTicks": 12,
          "midi": 66,
          "name": "F#4",
          "ticks": 4956,
          "time": "4956i",
          "velocity": 0.7559055118110236
        },
        {
          "duration": 0.20833324999999547,
          "durationTicks": 12,
          "midi": 67,
          "name": "G4",
          "ticks": 4968,
          "time": "4968i",
          "velocity": 0.7559055118110236
        },
        {
          "duration": 0.20833324999999547,
          "durationTicks": 12,
          "midi": 69,
          "name": "A4",
          "ticks": 4980,
          "time": "4980i",
          "velocity": 0.7559055118110236
        },
        {
          "duration": 0.41666650000000516,
          "durationTicks": 24,
          "midi": 67,
          "name": "G4",
          "ticks": 4992,
          "time": "4992i",
          "velocity": 0.7559055118110236
        },
        {
          "duration": 0.20833324999999547,
          "durationTicks": 12,
          "midi": 71,
          "name": "B4",
          "ticks": 5016,
          "time": "5016i",
          "velocity": 0.7559055118110236
        },
        {
          "duration": 0.20833325000000968,
          "durationTicks": 12,
          "midi": 69,
          "name": "A4",
          "ticks": 5028,
          "time": "5028i",
          "velocity": 0.7559055118110236
        },
        {
          "duration": 0.41666649999999095,
          "durationTicks": 24,
          "midi": 67,
          "name": "G4",
          "ticks": 5040,
          "time": "5040i",
          "velocity": 0.7559055118110236
        },
        {
          "duration": 0.20833325000000968,
          "durationTicks": 12,
          "midi": 66,
          "name": "F#4",
          "ticks": 5064,
          "time": "5064i",
          "velocity": 0.7559055118110236
        },
        {
          "duration": 0.20833324999999547,
          "durationTicks": 12,
          "midi": 64,
          "name": "E4",
          "ticks": 5076,
          "time": "5076i",
          "velocity": 0.7559055118110236
        },
        {
          "duration": 0.20833324999999547,
          "durationTicks": 12,
          "midi": 66,
          "name": "F#4",
          "ticks": 5088,
          "time": "5088i",
          "velocity": 0.7559055118110236
        },
        {
          "duration": 0.20833325000000968,
          "durationTicks": 12,
          "midi": 64,
          "name": "E4",
          "ticks": 5100,
          "time": "5100i",
          "velocity": 0.7559055118110236
        },
        {
          "duration": 0.20833324999999547,
          "durationTicks": 12,
          "midi": 62,
          "name": "D4",
          "ticks": 5112,
          "time": "5112i",
          "velocity": 0.7559055118110236
        },
        {
          "duration": 0.20833324999999547,
          "durationTicks": 12,
          "midi": 64,
          "name": "E4",
          "ticks": 5124,
          "time": "5124i",
          "velocity": 0.7559055118110236
        },
        {
          "duration": 0.20833325000000968,
          "durationTicks": 12,
          "midi": 66,
          "name": "F#4",
          "ticks": 5136,
          "time": "5136i",
          "velocity": 0.7559055118110236
        },
        {
          "duration": 0.20833324999999547,
          "durationTicks": 12,
          "midi": 67,
          "name": "G4",
          "ticks": 5148,
          "time": "5148i",
          "velocity": 0.7559055118110236
        },
        {
          "duration": 0.20833324999999547,
          "durationTicks": 12,
          "midi": 69,
          "name": "A4",
          "ticks": 5160,
          "time": "5160i",
          "velocity": 0.7559055118110236
        },
        {
          "duration": 0.20833325000000968,
          "durationTicks": 12,
          "midi": 71,
          "name": "B4",
          "ticks": 5172,
          "time": "5172i",
          "velocity": 0.7559055118110236
        },
        {
          "duration": 0.41666649999999095,
          "durationTicks": 24,
          "midi": 67,
          "name": "G4",
          "ticks": 5184,
          "time": "5184i",
          "velocity": 0.7559055118110236
        },
        {
          "duration": 0.20833324999999547,
          "durationTicks": 12,
          "midi": 71,
          "name": "B4",
          "ticks": 5208,
          "time": "5208i",
          "velocity": 0.7559055118110236
        },
        {
          "duration": 0.20833325000000968,
          "durationTicks": 12,
          "midi": 69,
          "name": "A4",
          "ticks": 5220,
          "time": "5220i",
          "velocity": 0.7559055118110236
        },
        {
          "duration": 0.41666649999999095,
          "durationTicks": 24,
          "midi": 71,
          "name": "B4",
          "ticks": 5232,
          "time": "5232i",
          "velocity": 0.7559055118110236
        },
        {
          "duration": 0.20833325000000968,
          "durationTicks": 12,
          "midi": 73,
          "name": "C#5",
          "ticks": 5256,
          "time": "5256i",
          "velocity": 0.7559055118110236
        },
        {
          "duration": 0.20833324999999547,
          "durationTicks": 12,
          "midi": 74,
          "name": "D5",
          "ticks": 5268,
          "time": "5268i",
          "velocity": 0.7559055118110236
        },
        {
          "duration": 0.20833324999999547,
          "durationTicks": 12,
          "midi": 69,
          "name": "A4",
          "ticks": 5280,
          "time": "5280i",
          "velocity": 0.7559055118110236
        },
        {
          "duration": 0.20833325000000968,
          "durationTicks": 12,
          "midi": 71,
          "name": "B4",
          "ticks": 5292,
          "time": "5292i",
          "velocity": 0.7559055118110236
        },
        {
          "duration": 0.20833324999999547,
          "durationTicks": 12,
          "midi": 73,
          "name": "C#5",
          "ticks": 5304,
          "time": "5304i",
          "velocity": 0.7559055118110236
        },
        {
          "duration": 0.20833324999999547,
          "durationTicks": 12,
          "midi": 74,
          "name": "D5",
          "ticks": 5316,
          "time": "5316i",
          "velocity": 0.7559055118110236
        },
        {
          "duration": 0.20833325000000968,
          "durationTicks": 12,
          "midi": 76,
          "name": "E5",
          "ticks": 5328,
          "time": "5328i",
          "velocity": 0.7559055118110236
        },
        {
          "duration": 0.20833324999999547,
          "durationTicks": 12,
          "midi": 78,
          "name": "F#5",
          "ticks": 5340,
          "time": "5340i",
          "velocity": 0.7559055118110236
        },
        {
          "duration": 0.20833324999999547,
          "durationTicks": 12,
          "midi": 79,
          "name": "G5",
          "ticks": 5352,
          "time": "5352i",
          "velocity": 0.7559055118110236
        },
        {
          "duration": 0.20833325000000968,
          "durationTicks": 12,
          "midi": 81,
          "name": "A5",
          "ticks": 5364,
          "time": "5364i",
          "velocity": 0.7559055118110236
        },
        {
          "duration": 0.41666649999999095,
          "durationTicks": 24,
          "midi": 78,
          "name": "F#5",
          "ticks": 5376,
          "time": "5376i",
          "velocity": 0.7559055118110236
        },
        {
          "duration": 0.20833325000000968,
          "durationTicks": 12,
          "midi": 74,
          "name": "D5",
          "ticks": 5400,
          "time": "5400i",
          "velocity": 0.7559055118110236
        },
        {
          "duration": 0.20833324999999547,
          "durationTicks": 12,
          "midi": 76,
          "name": "E5",
          "ticks": 5412,
          "time": "5412i",
          "velocity": 0.7559055118110236
        },
        {
          "duration": 0.41666650000000516,
          "durationTicks": 24,
          "midi": 78,
          "name": "F#5",
          "ticks": 5424,
          "time": "5424i",
          "velocity": 0.7559055118110236
        },
        {
          "duration": 0.20833324999999547,
          "durationTicks": 12,
          "midi": 76,
          "name": "E5",
          "ticks": 5448,
          "time": "5448i",
          "velocity": 0.7559055118110236
        },
        {
          "duration": 0.20833324999999547,
          "durationTicks": 12,
          "midi": 74,
          "name": "D5",
          "ticks": 5460,
          "time": "5460i",
          "velocity": 0.7559055118110236
        },
        {
          "duration": 0.20833324999999547,
          "durationTicks": 12,
          "midi": 76,
          "name": "E5",
          "ticks": 5472,
          "time": "5472i",
          "velocity": 0.7559055118110236
        },
        {
          "duration": 0.20833325000000968,
          "durationTicks": 12,
          "midi": 73,
          "name": "C#5",
          "ticks": 5484,
          "time": "5484i",
          "velocity": 0.7559055118110236
        },
        {
          "duration": 0.20833324999999547,
          "durationTicks": 12,
          "midi": 74,
          "name": "D5",
          "ticks": 5496,
          "time": "5496i",
          "velocity": 0.7559055118110236
        },
        {
          "duration": 0.20833324999999547,
          "durationTicks": 12,
          "midi": 76,
          "name": "E5",
          "ticks": 5508,
          "time": "5508i",
          "velocity": 0.7559055118110236
        },
        {
          "duration": 0.20833325000000968,
          "durationTicks": 12,
          "midi": 78,
          "name": "F#5",
          "ticks": 5520,
          "time": "5520i",
          "velocity": 0.7559055118110236
        },
        {
          "duration": 0.20833324999999547,
          "durationTicks": 12,
          "midi": 76,
          "name": "E5",
          "ticks": 5532,
          "time": "5532i",
          "velocity": 0.7559055118110236
        },
        {
          "duration": 0.20833324999999547,
          "durationTicks": 12,
          "midi": 74,
          "name": "D5",
          "ticks": 5544,
          "time": "5544i",
          "velocity": 0.7559055118110236
        },
        {
          "duration": 0.20833325000000968,
          "durationTicks": 12,
          "midi": 73,
          "name": "C#5",
          "ticks": 5556,
          "time": "5556i",
          "velocity": 0.7559055118110236
        },
        {
          "duration": 0.41666649999999095,
          "durationTicks": 24,
          "midi": 74,
          "name": "D5",
          "ticks": 5568,
          "time": "5568i",
          "velocity": 0.7559055118110236
        },
        {
          "duration": 0.20833325000000968,
          "durationTicks": 12,
          "midi": 71,
          "name": "B4",
          "ticks": 5592,
          "time": "5592i",
          "velocity": 0.7559055118110236
        },
        {
          "duration": 0.20833324999999547,
          "durationTicks": 12,
          "midi": 73,
          "name": "C#5",
          "ticks": 5604,
          "time": "5604i",
          "velocity": 0.7559055118110236
        },
        {
          "duration": 0.41666650000000516,
          "durationTicks": 24,
          "midi": 74,
          "name": "D5",
          "ticks": 5616,
          "time": "5616i",
          "velocity": 0.7559055118110236
        },
        {
          "duration": 0.20833324999999547,
          "durationTicks": 12,
          "midi": 62,
          "name": "D4",
          "ticks": 5640,
          "time": "5640i",
          "velocity": 0.7559055118110236
        },
        {
          "duration": 0.20833324999999547,
          "durationTicks": 12,
          "midi": 64,
          "name": "E4",
          "ticks": 5652,
          "time": "5652i",
          "velocity": 0.7559055118110236
        },
        {
          "duration": 0.20833325000000968,
          "durationTicks": 12,
          "midi": 66,
          "name": "F#4",
          "ticks": 5664,
          "time": "5664i",
          "velocity": 0.7559055118110236
        },
        {
          "duration": 0.20833324999999547,
          "durationTicks": 12,
          "midi": 67,
          "name": "G4",
          "ticks": 5676,
          "time": "5676i",
          "velocity": 0.7559055118110236
        },
        {
          "duration": 0.20833324999999547,
          "durationTicks": 12,
          "midi": 66,
          "name": "F#4",
          "ticks": 5688,
          "time": "5688i",
          "velocity": 0.7559055118110236
        },
        {
          "duration": 0.20833325000000968,
          "durationTicks": 12,
          "midi": 64,
          "name": "E4",
          "ticks": 5700,
          "time": "5700i",
          "velocity": 0.7559055118110236
        },
        {
          "duration": 0.20833324999999547,
          "durationTicks": 12,
          "midi": 66,
          "name": "F#4",
          "ticks": 5712,
          "time": "5712i",
          "velocity": 0.7559055118110236
        },
        {
          "duration": 0.20833324999999547,
          "durationTicks": 12,
          "midi": 74,
          "name": "D5",
          "ticks": 5724,
          "time": "5724i",
          "velocity": 0.7559055118110236
        },
        {
          "duration": 0.20833324999999547,
          "durationTicks": 12,
          "midi": 73,
          "name": "C#5",
          "ticks": 5736,
          "time": "5736i",
          "velocity": 0.7559055118110236
        },
        {
          "duration": 0.20833325000000968,
          "durationTicks": 12,
          "midi": 74,
          "name": "D5",
          "ticks": 5748,
          "time": "5748i",
          "velocity": 0.7559055118110236
        },
        {
          "duration": 0.41666649999999095,
          "durationTicks": 24,
          "midi": 71,
          "name": "B4",
          "ticks": 5760,
          "time": "5760i",
          "velocity": 0.7559055118110236
        },
        {
          "duration": 0.20833325000000968,
          "durationTicks": 12,
          "midi": 74,
          "name": "D5",
          "ticks": 5784,
          "time": "5784i",
          "velocity": 0.7559055118110236
        },
        {
          "duration": 0.20833324999999547,
          "durationTicks": 12,
          "midi": 73,
          "name": "C#5",
          "ticks": 5796,
          "time": "5796i",
          "velocity": 0.7559055118110236
        },
        {
          "duration": 0.41666650000000516,
          "durationTicks": 24,
          "midi": 71,
          "name": "B4",
          "ticks": 5808,
          "time": "5808i",
          "velocity": 0.7559055118110236
        },
        {
          "duration": 0.20833324999999547,
          "durationTicks": 12,
          "midi": 69,
          "name": "A4",
          "ticks": 5832,
          "time": "5832i",
          "velocity": 0.7559055118110236
        },
        {
          "duration": 0.20833324999999547,
          "durationTicks": 12,
          "midi": 67,
          "name": "G4",
          "ticks": 5844,
          "time": "5844i",
          "velocity": 0.7559055118110236
        },
        {
          "duration": 0.20833325000000968,
          "durationTicks": 12,
          "midi": 69,
          "name": "A4",
          "ticks": 5856,
          "time": "5856i",
          "velocity": 0.7559055118110236
        },
        {
          "duration": 0.20833324999999547,
          "durationTicks": 12,
          "midi": 67,
          "name": "G4",
          "ticks": 5868,
          "time": "5868i",
          "velocity": 0.7559055118110236
        },
        {
          "duration": 0.20833324999999547,
          "durationTicks": 12,
          "midi": 66,
          "name": "F#4",
          "ticks": 5880,
          "time": "5880i",
          "velocity": 0.7559055118110236
        },
        {
          "duration": 0.20833325000000968,
          "durationTicks": 12,
          "midi": 67,
          "name": "G4",
          "ticks": 5892,
          "time": "5892i",
          "velocity": 0.7559055118110236
        },
        {
          "duration": 0.20833324999999547,
          "durationTicks": 12,
          "midi": 69,
          "name": "A4",
          "ticks": 5904,
          "time": "5904i",
          "velocity": 0.7559055118110236
        },
        {
          "duration": 0.20833324999999547,
          "durationTicks": 12,
          "midi": 71,
          "name": "B4",
          "ticks": 5916,
          "time": "5916i",
          "velocity": 0.7559055118110236
        },
        {
          "duration": 0.20833325000000968,
          "durationTicks": 12,
          "midi": 73,
          "name": "C#5",
          "ticks": 5928,
          "time": "5928i",
          "velocity": 0.7559055118110236
        },
        {
          "duration": 0.20833324999999547,
          "durationTicks": 12,
          "midi": 74,
          "name": "D5",
          "ticks": 5940,
          "time": "5940i",
          "velocity": 0.7559055118110236
        },
        {
          "duration": 0.41666650000000516,
          "durationTicks": 24,
          "midi": 71,
          "name": "B4",
          "ticks": 5952,
          "time": "5952i",
          "velocity": 0.7559055118110236
        },
        {
          "duration": 0.20833324999999547,
          "durationTicks": 12,
          "midi": 74,
          "name": "D5",
          "ticks": 5976,
          "time": "5976i",
          "velocity": 0.7559055118110236
        },
        {
          "duration": 0.20833324999999547,
          "durationTicks": 12,
          "midi": 73,
          "name": "C#5",
          "ticks": 5988,
          "time": "5988i",
          "velocity": 0.7559055118110236
        },
        {
          "duration": 0.41666650000000516,
          "durationTicks": 24,
          "midi": 74,
          "name": "D5",
          "ticks": 6000,
          "time": "6000i",
          "velocity": 0.7559055118110236
        },
        {
          "duration": 0.20833324999999547,
          "durationTicks": 12,
          "midi": 73,
          "name": "C#5",
          "ticks": 6024,
          "time": "6024i",
          "velocity": 0.7559055118110236
        },
        {
          "duration": 0.20833324999999547,
          "durationTicks": 12,
          "midi": 71,
          "name": "B4",
          "ticks": 6036,
          "time": "6036i",
          "velocity": 0.7559055118110236
        },
        {
          "duration": 0.20833325000000968,
          "durationTicks": 12,
          "midi": 73,
          "name": "C#5",
          "ticks": 6048,
          "time": "6048i",
          "velocity": 0.7559055118110236
        },
        {
          "duration": 0.20833324999999547,
          "durationTicks": 12,
          "midi": 74,
          "name": "D5",
          "ticks": 6060,
          "time": "6060i",
          "velocity": 0.7559055118110236
        },
        {
          "duration": 0.20833324999999547,
          "durationTicks": 12,
          "midi": 76,
          "name": "E5",
          "ticks": 6072,
          "time": "6072i",
          "velocity": 0.7559055118110236
        },
        {
          "duration": 0.20833325000000968,
          "durationTicks": 12,
          "midi": 74,
          "name": "D5",
          "ticks": 6084,
          "time": "6084i",
          "velocity": 0.7559055118110236
        },
        {
          "duration": 0.20833324999999547,
          "durationTicks": 12,
          "midi": 73,
          "name": "C#5",
          "ticks": 6096,
          "time": "6096i",
          "velocity": 0.7559055118110236
        },
        {
          "duration": 0.20833324999999547,
          "durationTicks": 12,
          "midi": 74,
          "name": "D5",
          "ticks": 6108,
          "time": "6108i",
          "velocity": 0.7559055118110236
        },
        {
          "duration": 0.20833325000000968,
          "durationTicks": 12,
          "midi": 71,
          "name": "B4",
          "ticks": 6120,
          "time": "6120i",
          "velocity": 0.7559055118110236
        },
        {
          "duration": 0.20833324999999547,
          "durationTicks": 12,
          "midi": 73,
          "name": "C#5",
          "ticks": 6132,
          "time": "6132i",
          "velocity": 0.7559055118110236
        },
        {
          "duration": 0.41666650000000516,
          "durationTicks": 24,
          "midi": 74,
          "name": "D5",
          "ticks": 6144,
          "time": "6144i",
          "velocity": 0.7559055118110236
        },
        {
          "duration": 0.20833324999999547,
          "durationTicks": 12,
          "midi": 62,
          "name": "D4",
          "ticks": 6168,
          "time": "6168i",
          "velocity": 0.7559055118110236
        },
        {
          "duration": 0.20833324999999547,
          "durationTicks": 12,
          "midi": 64,
          "name": "E4",
          "ticks": 6180,
          "time": "6180i",
          "velocity": 0.7559055118110236
        },
        {
          "duration": 0.41666650000000516,
          "durationTicks": 24,
          "midi": 66,
          "name": "F#4",
          "ticks": 6192,
          "time": "6192i",
          "velocity": 0.7559055118110236
        },
        {
          "duration": 0.41666650000000516,
          "durationTicks": 24,
          "midi": 62,
          "name": "D4",
          "ticks": 6216,
          "time": "6216i",
          "velocity": 0.7559055118110236
        },
        {
          "duration": 0.41666649999999095,
          "durationTicks": 24,
          "midi": 61,
          "name": "C#4",
          "ticks": 6240,
          "time": "6240i",
          "velocity": 0.7559055118110236
        },
        {
          "duration": 0.20833325000000968,
          "durationTicks": 12,
          "midi": 73,
          "name": "C#5",
          "ticks": 6264,
          "time": "6264i",
          "velocity": 0.7559055118110236
        },
        {
          "duration": 0.20833324999999547,
          "durationTicks": 12,
          "midi": 74,
          "name": "D5",
          "ticks": 6276,
          "time": "6276i",
          "velocity": 0.7559055118110236
        },
        {
          "duration": 0.41666649999999095,
          "durationTicks": 24,
          "midi": 76,
          "name": "E5",
          "ticks": 6288,
          "time": "6288i",
          "velocity": 0.7559055118110236
        },
        {
          "duration": 0.41666650000000516,
          "durationTicks": 24,
          "midi": 73,
          "name": "C#5",
          "ticks": 6312,
          "time": "6312i",
          "velocity": 0.7559055118110236
        },
        {
          "duration": 0.41666650000000516,
          "durationTicks": 24,
          "midi": 71,
          "name": "B4",
          "ticks": 6336,
          "time": "6336i",
          "velocity": 0.7559055118110236
        },
        {
          "duration": 0.20833324999999547,
          "durationTicks": 12,
          "midi": 59,
          "name": "B3",
          "ticks": 6360,
          "time": "6360i",
          "velocity": 0.7559055118110236
        },
        {
          "duration": 0.20833324999999547,
          "durationTicks": 12,
          "midi": 61,
          "name": "C#4",
          "ticks": 6372,
          "time": "6372i",
          "velocity": 0.7559055118110236
        },
        {
          "duration": 0.41666650000000516,
          "durationTicks": 24,
          "midi": 62,
          "name": "D4",
          "ticks": 6384,
          "time": "6384i",
          "velocity": 0.7559055118110236
        },
        {
          "duration": 0.41666650000000516,
          "durationTicks": 24,
          "midi": 59,
          "name": "B3",
          "ticks": 6408,
          "time": "6408i",
          "velocity": 0.7559055118110236
        },
        {
          "duration": 0.41666649999999095,
          "durationTicks": 24,
          "midi": 61,
          "name": "C#4",
          "ticks": 6432,
          "time": "6432i",
          "velocity": 0.7559055118110236
        },
        {
          "duration": 0.20833325000000968,
          "durationTicks": 12,
          "midi": 69,
          "name": "A4",
          "ticks": 6456,
          "time": "6456i",
          "velocity": 0.7559055118110236
        },
        {
          "duration": 0.20833324999999547,
          "durationTicks": 12,
          "midi": 67,
          "name": "G4",
          "ticks": 6468,
          "time": "6468i",
          "velocity": 0.7559055118110236
        },
        {
          "duration": 0.41666650000000516,
          "durationTicks": 24,
          "midi": 66,
          "name": "F#4",
          "ticks": 6480,
          "time": "6480i",
          "velocity": 0.7559055118110236
        },
        {
          "duration": 0.41666649999999095,
          "durationTicks": 24,
          "midi": 64,
          "name": "E4",
          "ticks": 6504,
          "time": "6504i",
          "velocity": 0.7559055118110236
        },
        {
          "duration": 0.41666650000000516,
          "durationTicks": 24,
          "midi": 62,
          "name": "D4",
          "ticks": 6528,
          "time": "6528i",
          "velocity": 0.7559055118110236
        },
        {
          "duration": 0.20833324999999547,
          "durationTicks": 12,
          "midi": 67,
          "name": "G4",
          "ticks": 6552,
          "time": "6552i",
          "velocity": 0.7559055118110236
        },
        {
          "duration": 0.20833324999999547,
          "durationTicks": 12,
          "midi": 66,
          "name": "F#4",
          "ticks": 6564,
          "time": "6564i",
          "velocity": 0.7559055118110236
        },
        {
          "duration": 0.41666650000000516,
          "durationTicks": 24,
          "midi": 64,
          "name": "E4",
          "ticks": 6576,
          "time": "6576i",
          "velocity": 0.7559055118110236
        },
        {
          "duration": 0.41666650000000516,
          "durationTicks": 24,
          "midi": 67,
          "name": "G4",
          "ticks": 6600,
          "time": "6600i",
          "velocity": 0.7559055118110236
        },
        {
          "duration": 0.41666649999999095,
          "durationTicks": 24,
          "midi": 66,
          "name": "F#4",
          "ticks": 6624,
          "time": "6624i",
          "velocity": 0.7559055118110236
        },
        {
          "duration": 0.20833325000000968,
          "durationTicks": 12,
          "midi": 62,
          "name": "D4",
          "ticks": 6648,
          "time": "6648i",
          "velocity": 0.7559055118110236
        },
        {
          "duration": 0.20833324999999547,
          "durationTicks": 12,
          "midi": 64,
          "name": "E4",
          "ticks": 6660,
          "time": "6660i",
          "velocity": 0.7559055118110236
        },
        {
          "duration": 0.41666650000000516,
          "durationTicks": 24,
          "midi": 66,
          "name": "F#4",
          "ticks": 6672,
          "time": "6672i",
          "velocity": 0.7559055118110236
        },
        {
          "duration": 0.41666649999999095,
          "durationTicks": 24,
          "midi": 69,
          "name": "A4",
          "ticks": 6696,
          "time": "6696i",
          "velocity": 0.7559055118110236
        },
        {
          "duration": 0.41666650000000516,
          "durationTicks": 24,
          "midi": 67,
          "name": "G4",
          "ticks": 6720,
          "time": "6720i",
          "velocity": 0.7559055118110236
        },
        {
          "duration": 0.20833324999999547,
          "durationTicks": 12,
          "midi": 71,
          "name": "B4",
          "ticks": 6744,
          "time": "6744i",
          "velocity": 0.7559055118110236
        },
        {
          "duration": 0.20833325000000968,
          "durationTicks": 12,
          "midi": 69,
          "name": "A4",
          "ticks": 6756,
          "time": "6756i",
          "velocity": 0.7559055118110236
        },
        {
          "duration": 0.41666649999999095,
          "durationTicks": 24,
          "midi": 67,
          "name": "G4",
          "ticks": 6768,
          "time": "6768i",
          "velocity": 0.7559055118110236
        },
        {
          "duration": 0.41666650000000516,
          "durationTicks": 24,
          "midi": 66,
          "name": "F#4",
          "ticks": 6792,
          "time": "6792i",
          "velocity": 0.7559055118110236
        },
        {
          "duration": 0.41666649999999095,
          "durationTicks": 24,
          "midi": 64,
          "name": "E4",
          "ticks": 6816,
          "time": "6816i",
          "velocity": 0.7559055118110236
        },
        {
          "duration": 0.20833325000000968,
          "durationTicks": 12,
          "midi": 69,
          "name": "A4",
          "ticks": 6840,
          "time": "6840i",
          "velocity": 0.7559055118110236
        },
        {
          "duration": 0.20833324999999547,
          "durationTicks": 12,
          "midi": 67,
          "name": "G4",
          "ticks": 6852,
          "time": "6852i",
          "velocity": 0.7559055118110236
        },
        {
          "duration": 0.41666650000000516,
          "durationTicks": 24,
          "midi": 66,
          "name": "F#4",
          "ticks": 6864,
          "time": "6864i",
          "velocity": 0.7559055118110236
        },
        {
          "duration": 0.41666649999999095,
          "durationTicks": 24,
          "midi": 64,
          "name": "E4",
          "ticks": 6888,
          "time": "6888i",
          "velocity": 0.7559055118110236
        },
        {
          "duration": 0.41666650000000516,
          "durationTicks": 24,
          "midi": 62,
          "name": "D4",
          "ticks": 6912,
          "time": "6912i",
          "velocity": 0.7559055118110236
        },
        {
          "duration": 0.20833324999999547,
          "durationTicks": 12,
          "midi": 74,
          "name": "D5",
          "ticks": 6936,
          "time": "6936i",
          "velocity": 0.7559055118110236
        },
        {
          "duration": 0.20833325000000968,
          "durationTicks": 12,
          "midi": 73,
          "name": "C#5",
          "ticks": 6948,
          "time": "6948i",
          "velocity": 0.7559055118110236
        },
        {
          "duration": 0.41666649999999095,
          "durationTicks": 24,
          "midi": 74,
          "name": "D5",
          "ticks": 6960,
          "time": "6960i",
          "velocity": 0.7559055118110236
        },
        {
          "duration": 0.41666650000000516,
          "durationTicks": 24,
          "midi": 66,
          "name": "F#4",
          "ticks": 6984,
          "time": "6984i",
          "velocity": 0.7559055118110236
        },
        {
          "duration": 0.41666650000000516,
          "durationTicks": 24,
          "midi": 69,
          "name": "A4",
          "ticks": 7008,
          "time": "7008i",
          "velocity": 0.7559055118110236
        },
        {
          "duration": 0.20833324999999547,
          "durationTicks": 12,
          "midi": 69,
          "name": "A4",
          "ticks": 7032,
          "time": "7032i",
          "velocity": 0.7559055118110236
        },
        {
          "duration": 0.20833324999999547,
          "durationTicks": 12,
          "midi": 71,
          "name": "B4",
          "ticks": 7044,
          "time": "7044i",
          "velocity": 0.7559055118110236
        },
        {
          "duration": 0.41666650000000516,
          "durationTicks": 24,
          "midi": 73,
          "name": "C#5",
          "ticks": 7056,
          "time": "7056i",
          "velocity": 0.7559055118110236
        },
        {
          "duration": 0.41666649999999095,
          "durationTicks": 24,
          "midi": 69,
          "name": "A4",
          "ticks": 7080,
          "time": "7080i",
          "velocity": 0.7559055118110236
        },
        {
          "duration": 0.41666650000000516,
          "durationTicks": 24,
          "midi": 66,
          "name": "F#4",
          "ticks": 7104,
          "time": "7104i",
          "velocity": 0.7559055118110236
        },
        {
          "duration": 0.20833324999999547,
          "durationTicks": 12,
          "midi": 74,
          "name": "D5",
          "ticks": 7128,
          "time": "7128i",
          "velocity": 0.7559055118110236
        },
        {
          "duration": 0.20833325000000968,
          "durationTicks": 12,
          "midi": 76,
          "name": "E5",
          "ticks": 7140,
          "time": "7140i",
          "velocity": 0.7559055118110236
        },
        {
          "duration": 0.41666649999999095,
          "durationTicks": 24,
          "midi": 78,
          "name": "F#5",
          "ticks": 7152,
          "time": "7152i",
          "velocity": 0.7559055118110236
        },
        {
          "duration": 0.41666650000000516,
          "durationTicks": 24,
          "midi": 74,
          "name": "D5",
          "ticks": 7176,
          "time": "7176i",
          "velocity": 0.7559055118110236
        },
        {
          "duration": 0.41666650000000516,
          "durationTicks": 24,
          "midi": 78,
          "name": "F#5",
          "ticks": 7200,
          "time": "7200i",
          "velocity": 0.7559055118110236
        },
        {
          "duration": 0.20833324999999547,
          "durationTicks": 12,
          "midi": 78,
          "name": "F#5",
          "ticks": 7224,
          "time": "7224i",
          "velocity": 0.7559055118110236
        },
        {
          "duration": 0.20833324999999547,
          "durationTicks": 12,
          "midi": 76,
          "name": "E5",
          "ticks": 7236,
          "time": "7236i",
          "velocity": 0.7559055118110236
        },
        {
          "duration": 0.41666650000000516,
          "durationTicks": 24,
          "midi": 74,
          "name": "D5",
          "ticks": 7248,
          "time": "7248i",
          "velocity": 0.7559055118110236
        },
        {
          "duration": 0.41666650000000516,
          "durationTicks": 24,
          "midi": 73,
          "name": "C#5",
          "ticks": 7272,
          "time": "7272i",
          "velocity": 0.7559055118110236
        },
        {
          "duration": 0.41666649999999095,
          "durationTicks": 24,
          "midi": 71,
          "name": "B4",
          "ticks": 7296,
          "time": "7296i",
          "velocity": 0.7559055118110236
        },
        {
          "duration": 0.20833325000000968,
          "durationTicks": 12,
          "midi": 71,
          "name": "B4",
          "ticks": 7320,
          "time": "7320i",
          "velocity": 0.7559055118110236
        },
        {
          "duration": 0.20833324999999547,
          "durationTicks": 12,
          "midi": 69,
          "name": "A4",
          "ticks": 7332,
          "time": "7332i",
          "velocity": 0.7559055118110236
        },
        {
          "duration": 0.41666649999999095,
          "durationTicks": 24,
          "midi": 71,
          "name": "B4",
          "ticks": 7344,
          "time": "7344i",
          "velocity": 0.7559055118110236
        },
        {
          "duration": 0.41666650000000516,
          "durationTicks": 24,
          "midi": 73,
          "name": "C#5",
          "ticks": 7368,
          "time": "7368i",
          "velocity": 0.7559055118110236
        },
        {
          "duration": 0.41666649999999095,
          "durationTicks": 24,
          "midi": 74,
          "name": "D5",
          "ticks": 7392,
          "time": "7392i",
          "velocity": 0.7559055118110236
        },
        {
          "duration": 0.20833325000000968,
          "durationTicks": 12,
          "midi": 78,
          "name": "F#5",
          "ticks": 7416,
          "time": "7416i",
          "velocity": 0.7559055118110236
        },
        {
          "duration": 0.20833325000000968,
          "durationTicks": 12,
          "midi": 76,
          "name": "E5",
          "ticks": 7428,
          "time": "7428i",
          "velocity": 0.7559055118110236
        },
        {
          "duration": 0.41666649999999095,
          "durationTicks": 24,
          "midi": 74,
          "name": "D5",
          "ticks": 7440,
          "time": "7440i",
          "velocity": 0.7559055118110236
        },
        {
          "duration": 0.41666649999999095,
          "durationTicks": 24,
          "midi": 78,
          "name": "F#5",
          "ticks": 7464,
          "time": "7464i",
          "velocity": 0.7559055118110236
        },
        {
          "duration": 0.41666650000001937,
          "durationTicks": 24,
          "midi": 79,
          "name": "G5",
          "ticks": 7488,
          "time": "7488i",
          "velocity": 0.7559055118110236
        },
        {
          "duration": 0.20833324999998126,
          "durationTicks": 12,
          "midi": 74,
          "name": "D5",
          "ticks": 7512,
          "time": "7512i",
          "velocity": 0.7559055118110236
        },
        {
          "duration": 0.20833325000000968,
          "durationTicks": 12,
          "midi": 73,
          "name": "C#5",
          "ticks": 7524,
          "time": "7524i",
          "velocity": 0.7559055118110236
        },
        {
          "duration": 0.41666649999999095,
          "durationTicks": 24,
          "midi": 71,
          "name": "B4",
          "ticks": 7536,
          "time": "7536i",
          "velocity": 0.7559055118110236
        },
        {
          "duration": 0.41666650000001937,
          "durationTicks": 24,
          "midi": 71,
          "name": "B4",
          "ticks": 7560,
          "time": "7560i",
          "velocity": 0.7559055118110236
        },
        {
          "duration": 0.41666649999999095,
          "durationTicks": 24,
          "midi": 73,
          "name": "C#5",
          "ticks": 7584,
          "time": "7584i",
          "velocity": 0.7559055118110236
        },
        {
          "duration": 0.41666649999999095,
          "durationTicks": 24,
          "midi": 64,
          "name": "E4",
          "ticks": 7608,
          "time": "7608i",
          "velocity": 0.7559055118110236
        },
        {
          "duration": 0.41666650000001937,
          "durationTicks": 24,
          "midi": 69,
          "name": "A4",
          "ticks": 7632,
          "time": "7632i",
          "velocity": 0.7559055118110236
        },
        {
          "duration": 0.41666649999999095,
          "durationTicks": 24,
          "midi": 67,
          "name": "G4",
          "ticks": 7656,
          "time": "7656i",
          "velocity": 0.7559055118110236
        },
        {
          "duration": 1.2499995000000013,
          "durationTicks": 72,
          "midi": 66,
          "name": "F#4",
          "ticks": 7680,
          "time": "7680i",
          "velocity": 0.7559055118110236
        },
        {
          "duration": 0.41666649999999095,
          "durationTicks": 24,
          "midi": 78,
          "name": "F#5",
          "ticks": 7752,
          "time": "7752i",
          "velocity": 0.7559055118110236
        },
        {
          "duration": 0.41666649999999095,
          "durationTicks": 24,
          "midi": 78,
          "name": "F#5",
          "ticks": 7776,
          "time": "7776i",
          "velocity": 0.7559055118110236
        },
        {
          "duration": 0.41666650000001937,
          "durationTicks": 24,
          "midi": 79,
          "name": "G5",
          "ticks": 7800,
          "time": "7800i",
          "velocity": 0.7559055118110236
        },
        {
          "duration": 0.41666649999999095,
          "durationTicks": 24,
          "midi": 78,
          "name": "F#5",
          "ticks": 7824,
          "time": "7824i",
          "velocity": 0.7559055118110236
        },
        {
          "duration": 0.41666649999999095,
          "durationTicks": 24,
          "midi": 76,
          "name": "E5",
          "ticks": 7848,
          "time": "7848i",
          "velocity": 0.7559055118110236
        },
        {
          "duration": 1.2499995000000013,
          "durationTicks": 72,
          "midi": 74,
          "name": "D5",
          "ticks": 7872,
          "time": "7872i",
          "velocity": 0.7559055118110236
        },
        {
          "duration": 0.41666650000001937,
          "durationTicks": 24,
          "midi": 74,
          "name": "D5",
          "ticks": 7944,
          "time": "7944i",
          "velocity": 0.7559055118110236
        },
        {
          "duration": 0.41666649999999095,
          "durationTicks": 24,
          "midi": 74,
          "name": "D5",
          "ticks": 7968,
          "time": "7968i",
          "velocity": 0.7559055118110236
        },
        {
          "duration": 0.41666649999999095,
          "durationTicks": 24,
          "midi": 76,
          "name": "E5",
          "ticks": 7992,
          "time": "7992i",
          "velocity": 0.7559055118110236
        },
        {
          "duration": 0.41666650000001937,
          "durationTicks": 24,
          "midi": 74,
          "name": "D5",
          "ticks": 8016,
          "time": "8016i",
          "velocity": 0.7559055118110236
        },
        {
          "duration": 0.41666649999999095,
          "durationTicks": 24,
          "midi": 73,
          "name": "C#5",
          "ticks": 8040,
          "time": "8040i",
          "velocity": 0.7559055118110236
        },
        {
          "duration": 1.6666659999999922,
          "durationTicks": 96,
          "midi": 71,
          "name": "B4",
          "ticks": 8064,
          "time": "8064i",
          "velocity": 0.7559055118110236
        },
        {
          "duration": 1.6666660000000206,
          "durationTicks": 96,
          "midi": 74,
          "name": "D5",
          "ticks": 8160,
          "time": "8160i",
          "velocity": 0.7559055118110236
        },
        {
          "duration": 0.41666649999999095,
          "durationTicks": 24,
          "midi": 74,
          "name": "D5",
          "ticks": 8256,
          "time": "8256i",
          "velocity": 0.7559055118110236
        },
        {
          "duration": 0.41666649999999095,
          "durationTicks": 24,
          "midi": 72,
          "name": "C5",
          "ticks": 8280,
          "time": "8280i",
          "velocity": 0.7559055118110236
        },
        {
          "duration": 0.41666649999999095,
          "durationTicks": 24,
          "midi": 71,
          "name": "B4",
          "ticks": 8304,
          "time": "8304i",
          "velocity": 0.7559055118110236
        },
        {
          "duration": 0.41666650000001937,
          "durationTicks": 24,
          "midi": 73,
          "name": "C#5",
          "ticks": 8328,
          "time": "8328i",
          "velocity": 0.7559055118110236
        },
        {
          "duration": 1.2499995000000013,
          "durationTicks": 72,
          "midi": 69,
          "name": "A4",
          "ticks": 8352,
          "time": "8352i",
          "velocity": 0.7559055118110236
        },
        {
          "duration": 0.41666649999999095,
          "durationTicks": 24,
          "midi": 69,
          "name": "A4",
          "ticks": 8424,
          "time": "8424i",
          "velocity": 0.7559055118110236
        },
        {
          "duration": 0.41666649999999095,
          "durationTicks": 24,
          "midi": 66,
          "name": "F#4",
          "ticks": 8448,
          "time": "8448i",
          "velocity": 0.7559055118110236
        },
        {
          "duration": 0.41666649999999095,
          "durationTicks": 24,
          "midi": 81,
          "name": "A5",
          "ticks": 8520,
          "time": "8520i",
          "velocity": 0.7559055118110236
        },
        {
          "duration": 0.41666650000001937,
          "durationTicks": 24,
          "midi": 81,
          "name": "A5",
          "ticks": 8544,
          "time": "8544i",
          "velocity": 0.7559055118110236
        },
        {
          "duration": 0.41666649999999095,
          "durationTicks": 24,
          "midi": 83,
          "name": "B5",
          "ticks": 8568,
          "time": "8568i",
          "velocity": 0.7559055118110236
        },
        {
          "duration": 0.41666649999999095,
          "durationTicks": 24,
          "midi": 81,
          "name": "A5",
          "ticks": 8592,
          "time": "8592i",
          "velocity": 0.7559055118110236
        },
        {
          "duration": 0.41666650000001937,
          "durationTicks": 24,
          "midi": 79,
          "name": "G5",
          "ticks": 8616,
          "time": "8616i",
          "velocity": 0.7559055118110236
        },
        {
          "duration": 1.2499995000000013,
          "durationTicks": 72,
          "midi": 78,
          "name": "F#5",
          "ticks": 8640,
          "time": "8640i",
          "velocity": 0.7559055118110236
        },
        {
          "duration": 0.41666649999999095,
          "durationTicks": 24,
          "midi": 78,
          "name": "F#5",
          "ticks": 8712,
          "time": "8712i",
          "velocity": 0.7559055118110236
        },
        {
          "duration": 0.41666649999999095,
          "durationTicks": 24,
          "midi": 78,
          "name": "F#5",
          "ticks": 8736,
          "time": "8736i",
          "velocity": 0.7559055118110236
        },
        {
          "duration": 0.41666650000001937,
          "durationTicks": 24,
          "midi": 79,
          "name": "G5",
          "ticks": 8760,
          "time": "8760i",
          "velocity": 0.7559055118110236
        },
        {
          "duration": 0.41666649999999095,
          "durationTicks": 24,
          "midi": 78,
          "name": "F#5",
          "ticks": 8784,
          "time": "8784i",
          "velocity": 0.7559055118110236
        },
        {
          "duration": 0.41666649999999095,
          "durationTicks": 24,
          "midi": 76,
          "name": "E5",
          "ticks": 8808,
          "time": "8808i",
          "velocity": 0.7559055118110236
        },
        {
          "duration": 0.41666649999999095,
          "durationTicks": 24,
          "midi": 74,
          "name": "D5",
          "ticks": 8832,
          "time": "8832i",
          "velocity": 0.7559055118110236
        },
        {
          "duration": 0.41666650000001937,
          "durationTicks": 24,
          "midi": 72,
          "name": "C5",
          "ticks": 8856,
          "time": "8856i",
          "velocity": 0.7559055118110236
        },
        {
          "duration": 0.41666649999999095,
          "durationTicks": 24,
          "midi": 71,
          "name": "B4",
          "ticks": 8880,
          "time": "8880i",
          "velocity": 0.7559055118110236
        },
        {
          "duration": 0.41666649999999095,
          "durationTicks": 24,
          "midi": 73,
          "name": "C#5",
          "ticks": 8904,
          "time": "8904i",
          "velocity": 0.7559055118110236
        },
        {
          "duration": 1.2499995000000013,
          "durationTicks": 72,
          "midi": 69,
          "name": "A4",
          "ticks": 8928,
          "time": "8928i",
          "velocity": 0.7559055118110236
        },
        {
          "duration": 0.41666650000001937,
          "durationTicks": 24,
          "midi": 69,
          "name": "A4",
          "ticks": 9000,
          "time": "9000i",
          "velocity": 0.7559055118110236
        },
        {
          "duration": 0.8333329999999819,
          "durationTicks": 48,
          "midi": 71,
          "name": "B4",
          "ticks": 9024,
          "time": "9024i",
          "velocity": 0.7559055118110236
        },
        {
          "duration": 0.8333330000000103,
          "durationTicks": 48,
          "midi": 74,
          "name": "D5",
          "ticks": 9072,
          "time": "9072i",
          "velocity": 0.7559055118110236
        },
        {
          "duration": 1.2499995000000013,
          "durationTicks": 72,
          "midi": 73,
          "name": "C#5",
          "ticks": 9120,
          "time": "9120i",
          "velocity": 0.7559055118110236
        },
        {
          "duration": 0.41666649999999095,
          "durationTicks": 24,
          "midi": 73,
          "name": "C#5",
          "ticks": 9192,
          "time": "9192i",
          "velocity": 0.7559055118110236
        },
        {
          "duration": 1.2499995000000013,
          "durationTicks": 72,
          "midi": 74,
          "name": "D5",
          "ticks": 9216,
          "time": "9216i",
          "velocity": 0.7559055118110236
        },
        {
          "duration": 0.41666650000001937,
          "durationTicks": 24,
          "midi": 81,
          "name": "A5",
          "ticks": 9288,
          "time": "9288i",
          "velocity": 0.7559055118110236
        },
        {
          "duration": 0.41666649999999095,
          "durationTicks": 24,
          "midi": 81,
          "name": "A5",
          "ticks": 9312,
          "time": "9312i",
          "velocity": 0.7559055118110236
        },
        {
          "duration": 0.41666649999999095,
          "durationTicks": 24,
          "midi": 83,
          "name": "B5",
          "ticks": 9336,
          "time": "9336i",
          "velocity": 0.7559055118110236
        },
        {
          "duration": 0.41666649999999095,
          "durationTicks": 24,
          "midi": 81,
          "name": "A5",
          "ticks": 9360,
          "time": "9360i",
          "velocity": 0.7559055118110236
        },
        {
          "duration": 0.41666650000001937,
          "durationTicks": 24,
          "midi": 79,
          "name": "G5",
          "ticks": 9384,
          "time": "9384i",
          "velocity": 0.7559055118110236
        },
        {
          "duration": 1.2499995000000013,
          "durationTicks": 72,
          "midi": 78,
          "name": "F#5",
          "ticks": 9408,
          "time": "9408i",
          "velocity": 0.7559055118110236
        },
        {
          "duration": 0.41666649999999095,
          "durationTicks": 24,
          "midi": 78,
          "name": "F#5",
          "ticks": 9480,
          "time": "9480i",
          "velocity": 0.7559055118110236
        },
        {
          "duration": 0.41666649999999095,
          "durationTicks": 24,
          "midi": 78,
          "name": "F#5",
          "ticks": 9504,
          "time": "9504i",
          "velocity": 0.7559055118110236
        },
        {
          "duration": 0.41666650000001937,
          "durationTicks": 24,
          "midi": 79,
          "name": "G5",
          "ticks": 9528,
          "time": "9528i",
          "velocity": 0.7559055118110236
        },
        {
          "duration": 0.41666649999999095,
          "durationTicks": 24,
          "midi": 78,
          "name": "F#5",
          "ticks": 9552,
          "time": "9552i",
          "velocity": 0.7559055118110236
        },
        {
          "duration": 0.41666649999999095,
          "durationTicks": 24,
          "midi": 76,
          "name": "E5",
          "ticks": 9576,
          "time": "9576i",
          "velocity": 0.7559055118110236
        },
        {
          "duration": 1.6666660000000206,
          "durationTicks": 96,
          "midi": 74,
          "name": "D5",
          "ticks": 9600,
          "time": "9600i",
          "velocity": 0.7559055118110236
        },
        {
          "duration": 1.6666659999999922,
          "durationTicks": 96,
          "midi": 71,
          "name": "B4",
          "ticks": 9696,
          "time": "9696i",
          "velocity": 0.7559055118110236
        },
        {
          "duration": 0.8333330000000103,
          "durationTicks": 48,
          "midi": 71,
          "name": "B4",
          "ticks": 9792,
          "time": "9792i",
          "velocity": 0.7559055118110236
        },
        {
          "duration": 0.8333329999999819,
          "durationTicks": 48,
          "midi": 74,
          "name": "D5",
          "ticks": 9840,
          "time": "9840i",
          "velocity": 0.7559055118110236
        },
        {
          "duration": 1.6666659999999922,
          "durationTicks": 96,
          "midi": 67,
          "name": "G4",
          "ticks": 9888,
          "time": "9888i",
          "velocity": 0.7559055118110236
        },
        {
          "duration": 0.8333330000000103,
          "durationTicks": 48,
          "midi": 66,
          "name": "F#4",
          "ticks": 9984,
          "time": "9984i",
          "velocity": 0.7559055118110236
        },
        {
          "duration": 0.8333330000000103,
          "durationTicks": 48,
          "midi": 78,
          "name": "F#5",
          "ticks": 10032,
          "time": "10032i",
          "velocity": 0.7559055118110236
        },
        {
          "duration": 0.8333329999999819,
          "durationTicks": 48,
          "midi": 78,
          "name": "F#5",
          "ticks": 10080,
          "time": "10080i",
          "velocity": 0.7559055118110236
        },
        {
          "duration": 0.8333330000000103,
          "durationTicks": 48,
          "midi": 76,
          "name": "E5",
          "ticks": 10128,
          "time": "10128i",
          "velocity": 0.7559055118110236
        },
        {
          "duration": 0.8333330000000103,
          "durationTicks": 48,
          "midi": 74,
          "name": "D5",
          "ticks": 10176,
          "time": "10176i",
          "velocity": 0.7559055118110236
        },
        {
          "duration": 0.8333329999999819,
          "durationTicks": 48,
          "midi": 86,
          "name": "D6",
          "ticks": 10224,
          "time": "10224i",
          "velocity": 0.7559055118110236
        },
        {
          "duration": 0.8333330000000103,
          "durationTicks": 48,
          "midi": 86,
          "name": "D6",
          "ticks": 10272,
          "time": "10272i",
          "velocity": 0.7559055118110236
        },
        {
          "duration": 0.8333330000000103,
          "durationTicks": 48,
          "midi": 84,
          "name": "C6",
          "ticks": 10320,
          "time": "10320i",
          "velocity": 0.7559055118110236
        },
        {
          "duration": 0.8333329999999819,
          "durationTicks": 48,
          "midi": 83,
          "name": "B5",
          "ticks": 10368,
          "time": "10368i",
          "velocity": 0.7559055118110236
        },
        {
          "duration": 0.8333330000000103,
          "durationTicks": 48,
          "midi": 86,
          "name": "D6",
          "ticks": 10416,
          "time": "10416i",
          "velocity": 0.7559055118110236
        },
        {
          "duration": 0.8333329999999819,
          "durationTicks": 48,
          "midi": 86,
          "name": "D6",
          "ticks": 10464,
          "time": "10464i",
          "velocity": 0.7559055118110236
        },
        {
          "duration": 0.8333330000000103,
          "durationTicks": 48,
          "midi": 81,
          "name": "A5",
          "ticks": 10512,
          "time": "10512i",
          "velocity": 0.7559055118110236
        },
        {
          "duration": 1.6666659999999922,
          "durationTicks": 96,
          "midi": 83,
          "name": "B5",
          "ticks": 10560,
          "time": "10560i",
          "velocity": 0.7559055118110236
        },
        {
          "duration": 1.6666660000000206,
          "durationTicks": 96,
          "midi": 81,
          "name": "A5",
          "ticks": 10656,
          "time": "10656i",
          "velocity": 0.7559055118110236
        },
        {
          "duration": 0.8333329999999819,
          "durationTicks": 48,
          "midi": 78,
          "name": "F#5",
          "ticks": 10752,
          "time": "10752i",
          "velocity": 0.7559055118110236
        },
        {
          "duration": 0.8333330000000103,
          "durationTicks": 48,
          "midi": 66,
          "name": "F#4",
          "ticks": 10800,
          "time": "10800i",
          "velocity": 0.7559055118110236
        },
        {
          "duration": 0.8333330000000103,
          "durationTicks": 48,
          "midi": 64,
          "name": "E4",
          "ticks": 10848,
          "time": "10848i",
          "velocity": 0.7559055118110236
        },
        {
          "duration": 0.8333329999999819,
          "durationTicks": 48,
          "midi": 76,
          "name": "E5",
          "ticks": 10896,
          "time": "10896i",
          "velocity": 0.7559055118110236
        },
        {
          "duration": 0.8333330000000103,
          "durationTicks": 48,
          "midi": 74,
          "name": "D5",
          "ticks": 10944,
          "time": "10944i",
          "velocity": 0.7559055118110236
        },
        {
          "duration": 0.8333329999999819,
          "durationTicks": 48,
          "midi": 66,
          "name": "F#4",
          "ticks": 10992,
          "time": "10992i",
          "velocity": 0.7559055118110236
        },
        {
          "duration": 0.8333330000000103,
          "durationTicks": 48,
          "midi": 61,
          "name": "C#4",
          "ticks": 11040,
          "time": "11040i",
          "velocity": 0.7559055118110236
        },
        {
          "duration": 0.8333330000000103,
          "durationTicks": 48,
          "midi": 73,
          "name": "C#5",
          "ticks": 11088,
          "time": "11088i",
          "velocity": 0.7559055118110236
        },
        {
          "duration": 0.8333329999999819,
          "durationTicks": 48,
          "midi": 71,
          "name": "B4",
          "ticks": 11136,
          "time": "11136i",
          "velocity": 0.7559055118110236
        },
        {
          "duration": 0.8333330000000103,
          "durationTicks": 48,
          "midi": 83,
          "name": "B5",
          "ticks": 11184,
          "time": "11184i",
          "velocity": 0.7559055118110236
        },
        {
          "duration": 0.8333330000000103,
          "durationTicks": 48,
          "midi": 81,
          "name": "A5",
          "ticks": 11232,
          "time": "11232i",
          "velocity": 0.7559055118110236
        },
        {
          "duration": 0.8333329999999819,
          "durationTicks": 48,
          "midi": 74,
          "name": "D5",
          "ticks": 11280,
          "time": "11280i",
          "velocity": 0.7559055118110236
        },
        {
          "duration": 0.8333330000000103,
          "durationTicks": 48,
          "midi": 74,
          "name": "D5",
          "ticks": 11328,
          "time": "11328i",
          "velocity": 0.7559055118110236
        },
        {
          "duration": 0.41666649999999095,
          "durationTicks": 24,
          "midi": 71,
          "name": "B4",
          "ticks": 11376,
          "time": "11376i",
          "velocity": 0.7559055118110236
        },
        {
          "duration": 0.41666650000001937,
          "durationTicks": 24,
          "midi": 76,
          "name": "E5",
          "ticks": 11400,
          "time": "11400i",
          "velocity": 0.7559055118110236
        },
        {
          "duration": 0.8333329999999819,
          "durationTicks": 48,
          "midi": 73,
          "name": "C#5",
          "ticks": 11424,
          "time": "11424i",
          "velocity": 0.7559055118110236
        },
        {
          "duration": 0.8333330000000103,
          "durationTicks": 48,
          "midi": 76,
          "name": "E5",
          "ticks": 11472,
          "time": "11472i",
          "velocity": 0.7559055118110236
        },
        {
          "duration": 1.6666659999999922,
          "durationTicks": 96,
          "midi": 74,
          "name": "D5",
          "ticks": 11520,
          "time": "11520i",
          "velocity": 0.7559055118110236
        }
      ]
    },
    {
      "channel": 0,
      "controlChanges": {
        "7": [
          {
            "number": 7,
            "ticks": 0,
            "time": 0,
            "value": 1
          }
        ],
        "10": [
          {
            "number": 10,
            "ticks": 0,
            "time": 0,
            "value": 0
          }
        ]
      },
      "pitchBends": [],
      "instrument": {
        "family": "piano",
        "number": 0,
        "name": "acoustic grand piano"
      },
      "name": "WinJammer Demo",
      "notes": [],
      "endOfTrackTicks": 11616
    },
    {
      "channel": 2,
      "controlChanges": {},
      "pitchBends": [],
      "instrument": {
        "family": "piano",
        "number": 1,
        "name": "bright acoustic piano"
      },
      "name": "",
      "notes": [
        {
          "duration": 1.6666659999999993,
          "durationTicks": 96,
          "midi": 78,
          "name": "F#5",
          "ticks": 768,
          "time": "768i",
          "velocity": 0.7559055118110236
        },
        {
          "duration": 1.666666000000001,
          "durationTicks": 96,
          "midi": 76,
          "name": "E5",
          "ticks": 864,
          "time": "864i",
          "velocity": 0.7559055118110236
        },
        {
          "duration": 1.6666659999999993,
          "durationTicks": 96,
          "midi": 74,
          "name": "D5",
          "ticks": 960,
          "time": "960i",
          "velocity": 0.7559055118110236
        },
        {
          "duration": 1.6666659999999993,
          "durationTicks": 96,
          "midi": 73,
          "name": "C#5",
          "ticks": 1056,
          "time": "1056i",
          "velocity": 0.7559055118110236
        },
        {
          "duration": 1.6666659999999993,
          "durationTicks": 96,
          "midi": 71,
          "name": "B4",
          "ticks": 1152,
          "time": "1152i",
          "velocity": 0.7559055118110236
        },
        {
          "duration": 1.6666660000000029,
          "durationTicks": 96,
          "midi": 69,
          "name": "A4",
          "ticks": 1248,
          "time": "1248i",
          "velocity": 0.7559055118110236
        },
        {
          "duration": 1.6666659999999993,
          "durationTicks": 96,
          "midi": 71,
          "name": "B4",
          "ticks": 1344,
          "time": "1344i",
          "velocity": 0.7559055118110236
        },
        {
          "duration": 1.6666659999999993,
          "durationTicks": 96,
          "midi": 73,
          "name": "C#5",
          "ticks": 1440,
          "time": "1440i",
          "velocity": 0.7559055118110236
        },
        {
          "duration": 1.6666659999999993,
          "durationTicks": 96,
          "midi": 74,
          "name": "D5",
          "ticks": 1536,
          "time": "1536i",
          "velocity": 0.7559055118110236
        },
        {
          "duration": 1.6666659999999993,
          "durationTicks": 96,
          "midi": 73,
          "name": "C#5",
          "ticks": 1632,
          "time": "1632i",
          "velocity": 0.7559055118110236
        },
        {
          "duration": 1.6666660000000029,
          "durationTicks": 96,
          "midi": 71,
          "name": "B4",
          "ticks": 1728,
          "time": "1728i",
          "velocity": 0.7559055118110236
        },
        {
          "duration": 1.6666659999999993,
          "durationTicks": 96,
          "midi": 69,
          "name": "A4",
          "ticks": 1824,
          "time": "1824i",
          "velocity": 0.7559055118110236
        },
        {
          "duration": 1.6666659999999993,
          "durationTicks": 96,
          "midi": 67,
          "name": "G4",
          "ticks": 1920,
          "time": "1920i",
          "velocity": 0.7559055118110236
        },
        {
          "duration": 1.6666659999999993,
          "durationTicks": 96,
          "midi": 66,
          "name": "F#4",
          "ticks": 2016,
          "time": "2016i",
          "velocity": 0.7559055118110236
        },
        {
          "duration": 1.6666659999999993,
          "durationTicks": 96,
          "midi": 67,
          "name": "G4",
          "ticks": 2112,
          "time": "2112i",
          "velocity": 0.7559055118110236
        },
        {
          "duration": 1.6666659999999993,
          "durationTicks": 96,
          "midi": 64,
          "name": "E4",
          "ticks": 2208,
          "time": "2208i",
          "velocity": 0.7559055118110236
        },
        {
          "duration": 0.8333330000000032,
          "durationTicks": 48,
          "midi": 62,
          "name": "D4",
          "ticks": 2304,
          "time": "2304i",
          "velocity": 0.7559055118110236
        },
        {
          "duration": 0.8333329999999961,
          "durationTicks": 48,
          "midi": 66,
          "name": "F#4",
          "ticks": 2352,
          "time": "2352i",
          "velocity": 0.7559055118110236
        },
        {
          "duration": 0.8333330000000032,
          "durationTicks": 48,
          "midi": 69,
          "name": "A4",
          "ticks": 2400,
          "time": "2400i",
          "velocity": 0.7559055118110236
        },
        {
          "duration": 0.8333329999999961,
          "durationTicks": 48,
          "midi": 67,
          "name": "G4",
          "ticks": 2448,
          "time": "2448i",
          "velocity": 0.7559055118110236
        },
        {
          "duration": 0.8333330000000032,
          "durationTicks": 48,
          "midi": 66,
          "name": "F#4",
          "ticks": 2496,
          "time": "2496i",
          "velocity": 0.7559055118110236
        },
        {
          "duration": 0.8333330000000032,
          "durationTicks": 48,
          "midi": 62,
          "name": "D4",
          "ticks": 2544,
          "time": "2544i",
          "velocity": 0.7559055118110236
        },
        {
          "duration": 0.8333329999999961,
          "durationTicks": 48,
          "midi": 66,
          "name": "F#4",
          "ticks": 2592,
          "time": "2592i",
          "velocity": 0.7559055118110236
        },
        {
          "duration": 0.8333330000000032,
          "durationTicks": 48,
          "midi": 64,
          "name": "E4",
          "ticks": 2640,
          "time": "2640i",
          "velocity": 0.7559055118110236
        },
        {
          "duration": 0.8333329999999961,
          "durationTicks": 48,
          "midi": 62,
          "name": "D4",
          "ticks": 2688,
          "time": "2688i",
          "velocity": 0.7559055118110236
        },
        {
          "duration": 0.8333330000000032,
          "durationTicks": 48,
          "midi": 59,
          "name": "B3",
          "ticks": 2736,
          "time": "2736i",
          "velocity": 0.7559055118110236
        },
        {
          "duration": 0.8333329999999961,
          "durationTicks": 48,
          "midi": 62,
          "name": "D4",
          "ticks": 2784,
          "time": "2784i",
          "velocity": 0.7559055118110236
        },
        {
          "duration": 0.8333330000000032,
          "durationTicks": 48,
          "midi": 69,
          "name": "A4",
          "ticks": 2832,
          "time": "2832i",
          "velocity": 0.7559055118110236
        },
        {
          "duration": 0.8333329999999961,
          "durationTicks": 48,
          "midi": 67,
          "name": "G4",
          "ticks": 2880,
          "time": "2880i",
          "velocity": 0.7559055118110236
        },
        {
          "duration": 0.8333330000000032,
          "durationTicks": 48,
          "midi": 71,
          "name": "B4",
          "ticks": 2928,
          "time": "2928i",
          "velocity": 0.7559055118110236
        },
        {
          "duration": 0.8333329999999961,
          "durationTicks": 48,
          "midi": 69,
          "name": "A4",
          "ticks": 2976,
          "time": "2976i",
          "velocity": 0.7559055118110236
        },
        {
          "duration": 0.8333330000000032,
          "durationTicks": 48,
          "midi": 67,
          "name": "G4",
          "ticks": 3024,
          "time": "3024i",
          "velocity": 0.7559055118110236
        },
        {
          "duration": 0.41666649999999805,
          "durationTicks": 24,
          "midi": 66,
          "name": "F#4",
          "ticks": 3072,
          "time": "3072i",
          "velocity": 0.7559055118110236
        },
        {
          "duration": 1.6666659999999922,
          "durationTicks": 96,
          "midi": 59,
          "name": "B3",
          "ticks": 3648,
          "time": "3648i",
          "velocity": 0.7559055118110236
        },
        {
          "duration": 1.6666660000000064,
          "durationTicks": 96,
          "midi": 61,
          "name": "C#4",
          "ticks": 3744,
          "time": "3744i",
          "velocity": 0.7559055118110236
        },
        {
          "duration": 0.41666649999999095,
          "durationTicks": 24,
          "midi": 69,
          "name": "A4",
          "ticks": 4440,
          "time": "4440i",
          "velocity": 0.7559055118110236
        },
        {
          "duration": 0.41666650000000516,
          "durationTicks": 24,
          "midi": 67,
          "name": "G4",
          "ticks": 4464,
          "time": "4464i",
          "velocity": 0.7559055118110236
        },
        {
          "duration": 0.41666650000000516,
          "durationTicks": 24,
          "midi": 66,
          "name": "F#4",
          "ticks": 4488,
          "time": "4488i",
          "velocity": 0.7559055118110236
        },
        {
          "duration": 1.6666659999999922,
          "durationTicks": 96,
          "midi": 64,
          "name": "E4",
          "ticks": 4512,
          "time": "4512i",
          "velocity": 0.7559055118110236
        },
        {
          "duration": 0.41666650000000516,
          "durationTicks": 24,
          "midi": 66,
          "name": "F#4",
          "ticks": 4608,
          "time": "4608i",
          "velocity": 0.7559055118110236
        },
        {
          "duration": 0.41666649999999095,
          "durationTicks": 24,
          "midi": 57,
          "name": "A3",
          "ticks": 5376,
          "time": "5376i",
          "velocity": 0.7559055118110236
        },
        {
          "duration": 0.20833325000000968,
          "durationTicks": 12,
          "midi": 54,
          "name": "F#3",
          "ticks": 5400,
          "time": "5400i",
          "velocity": 0.7559055118110236
        },
        {
          "duration": 0.20833324999999547,
          "durationTicks": 12,
          "midi": 55,
          "name": "G3",
          "ticks": 5412,
          "time": "5412i",
          "velocity": 0.7559055118110236
        },
        {
          "duration": 0.41666650000000516,
          "durationTicks": 24,
          "midi": 57,
          "name": "A3",
          "ticks": 5424,
          "time": "5424i",
          "velocity": 0.7559055118110236
        },
        {
          "duration": 0.20833324999999547,
          "durationTicks": 12,
          "midi": 55,
          "name": "G3",
          "ticks": 5448,
          "time": "5448i",
          "velocity": 0.7559055118110236
        },
        {
          "duration": 0.20833324999999547,
          "durationTicks": 12,
          "midi": 54,
          "name": "F#3",
          "ticks": 5460,
          "time": "5460i",
          "velocity": 0.7559055118110236
        },
        {
          "duration": 0.41666650000000516,
          "durationTicks": 24,
          "midi": 57,
          "name": "A3",
          "ticks": 5472,
          "time": "5472i",
          "velocity": 0.7559055118110236
        },
        {
          "duration": 0.20833324999999547,
          "durationTicks": 12,
          "midi": 47,
          "name": "B2",
          "ticks": 5496,
          "time": "5496i",
          "velocity": 0.7559055118110236
        },
        {
          "duration": 0.20833324999999547,
          "durationTicks": 12,
          "midi": 49,
          "name": "C#3",
          "ticks": 5508,
          "time": "5508i",
          "velocity": 0.7559055118110236
        },
        {
          "duration": 0.20833325000000968,
          "durationTicks": 12,
          "midi": 50,
          "name": "D3",
          "ticks": 5520,
          "time": "5520i",
          "velocity": 0.7559055118110236
        },
        {
          "duration": 0.20833324999999547,
          "durationTicks": 12,
          "midi": 52,
          "name": "E3",
          "ticks": 5532,
          "time": "5532i",
          "velocity": 0.7559055118110236
        },
        {
          "duration": 0.20833324999999547,
          "durationTicks": 12,
          "midi": 54,
          "name": "F#3",
          "ticks": 5544,
          "time": "5544i",
          "velocity": 0.7559055118110236
        },
        {
          "duration": 0.41666649999999095,
          "durationTicks": 24,
          "midi": 54,
          "name": "F#3",
          "ticks": 5568,
          "time": "5568i",
          "velocity": 0.7559055118110236
        },
        {
          "duration": 0.20833325000000968,
          "durationTicks": 12,
          "midi": 50,
          "name": "D3",
          "ticks": 5592,
          "time": "5592i",
          "velocity": 0.7559055118110236
        },
        {
          "duration": 0.20833324999999547,
          "durationTicks": 12,
          "midi": 52,
          "name": "E3",
          "ticks": 5604,
          "time": "5604i",
          "velocity": 0.7559055118110236
        },
        {
          "duration": 0.41666650000000516,
          "durationTicks": 24,
          "midi": 54,
          "name": "F#3",
          "ticks": 5616,
          "time": "5616i",
          "velocity": 0.7559055118110236
        },
        {
          "duration": 0.20833324999999547,
          "durationTicks": 12,
          "midi": 54,
          "name": "F#3",
          "ticks": 5640,
          "time": "5640i",
          "velocity": 0.7559055118110236
        },
        {
          "duration": 0.20833324999999547,
          "durationTicks": 12,
          "midi": 55,
          "name": "G3",
          "ticks": 5652,
          "time": "5652i",
          "velocity": 0.7559055118110236
        },
        {
          "duration": 0.20833325000000968,
          "durationTicks": 12,
          "midi": 57,
          "name": "A3",
          "ticks": 5664,
          "time": "5664i",
          "velocity": 0.7559055118110236
        },
        {
          "duration": 0.20833324999999547,
          "durationTicks": 12,
          "midi": 59,
          "name": "B3",
          "ticks": 5676,
          "time": "5676i",
          "velocity": 0.7559055118110236
        },
        {
          "duration": 0.20833324999999547,
          "durationTicks": 12,
          "midi": 57,
          "name": "A3",
          "ticks": 5688,
          "time": "5688i",
          "velocity": 0.7559055118110236
        },
        {
          "duration": 0.20833325000000968,
          "durationTicks": 12,
          "midi": 55,
          "name": "G3",
          "ticks": 5700,
          "time": "5700i",
          "velocity": 0.7559055118110236
        },
        {
          "duration": 0.8333329999999961,
          "durationTicks": 48,
          "midi": 57,
          "name": "A3",
          "ticks": 5712,
          "time": "5712i",
          "velocity": 0.7559055118110236
        },
        {
          "duration": 0.41666649999999095,
          "durationTicks": 24,
          "midi": 43,
          "name": "G2",
          "ticks": 5760,
          "time": "5760i",
          "velocity": 0.7559055118110236
        },
        {
          "duration": 0.20833325000000968,
          "durationTicks": 12,
          "midi": 59,
          "name": "B3",
          "ticks": 5784,
          "time": "5784i",
          "velocity": 0.7559055118110236
        },
        {
          "duration": 0.20833324999999547,
          "durationTicks": 12,
          "midi": 57,
          "name": "A3",
          "ticks": 5796,
          "time": "5796i",
          "velocity": 0.7559055118110236
        },
        {
          "duration": 0.41666650000000516,
          "durationTicks": 24,
          "midi": 55,
          "name": "G3",
          "ticks": 5808,
          "time": "5808i",
          "velocity": 0.7559055118110236
        },
        {
          "duration": 0.20833324999999547,
          "durationTicks": 12,
          "midi": 54,
          "name": "F#3",
          "ticks": 5832,
          "time": "5832i",
          "velocity": 0.7559055118110236
        },
        {
          "duration": 0.20833324999999547,
          "durationTicks": 12,
          "midi": 52,
          "name": "E3",
          "ticks": 5844,
          "time": "5844i",
          "velocity": 0.7559055118110236
        },
        {
          "duration": 0.20833325000000968,
          "durationTicks": 12,
          "midi": 54,
          "name": "F#3",
          "ticks": 5856,
          "time": "5856i",
          "velocity": 0.7559055118110236
        },
        {
          "duration": 0.20833324999999547,
          "durationTicks": 12,
          "midi": 52,
          "name": "E3",
          "ticks": 5868,
          "time": "5868i",
          "velocity": 0.7559055118110236
        },
        {
          "duration": 0.20833324999999547,
          "durationTicks": 12,
          "midi": 50,
          "name": "D3",
          "ticks": 5880,
          "time": "5880i",
          "velocity": 0.7559055118110236
        },
        {
          "duration": 0.20833325000000968,
          "durationTicks": 12,
          "midi": 52,
          "name": "E3",
          "ticks": 5892,
          "time": "5892i",
          "velocity": 0.7559055118110236
        },
        {
          "duration": 0.20833324999999547,
          "durationTicks": 12,
          "midi": 54,
          "name": "F#3",
          "ticks": 5904,
          "time": "5904i",
          "velocity": 0.7559055118110236
        },
        {
          "duration": 0.20833324999999547,
          "durationTicks": 12,
          "midi": 55,
          "name": "G3",
          "ticks": 5916,
          "time": "5916i",
          "velocity": 0.7559055118110236
        },
        {
          "duration": 0.20833325000000968,
          "durationTicks": 12,
          "midi": 57,
          "name": "A3",
          "ticks": 5928,
          "time": "5928i",
          "velocity": 0.7559055118110236
        },
        {
          "duration": 0.20833324999999547,
          "durationTicks": 12,
          "midi": 59,
          "name": "B3",
          "ticks": 5940,
          "time": "5940i",
          "velocity": 0.7559055118110236
        },
        {
          "duration": 0.41666650000000516,
          "durationTicks": 24,
          "midi": 43,
          "name": "G2",
          "ticks": 5952,
          "time": "5952i",
          "velocity": 0.7559055118110236
        },
        {
          "duration": 0.20833324999999547,
          "durationTicks": 12,
          "midi": 59,
          "name": "B3",
          "ticks": 5976,
          "time": "5976i",
          "velocity": 0.7559055118110236
        },
        {
          "duration": 0.20833324999999547,
          "durationTicks": 12,
          "midi": 57,
          "name": "A3",
          "ticks": 5988,
          "time": "5988i",
          "velocity": 0.7559055118110236
        },
        {
          "duration": 0.41666650000000516,
          "durationTicks": 24,
          "midi": 59,
          "name": "B3",
          "ticks": 6000,
          "time": "6000i",
          "velocity": 0.7559055118110236
        },
        {
          "duration": 0.20833324999999547,
          "durationTicks": 12,
          "midi": 57,
          "name": "A3",
          "ticks": 6024,
          "time": "6024i",
          "velocity": 0.7559055118110236
        },
        {
          "duration": 0.20833324999999547,
          "durationTicks": 12,
          "midi": 55,
          "name": "G3",
          "ticks": 6036,
          "time": "6036i",
          "velocity": 0.7559055118110236
        },
        {
          "duration": 0.20833325000000968,
          "durationTicks": 12,
          "midi": 57,
          "name": "A3",
          "ticks": 6048,
          "time": "6048i",
          "velocity": 0.7559055118110236
        },
        {
          "duration": 0.20833324999999547,
          "durationTicks": 12,
          "midi": 47,
          "name": "B2",
          "ticks": 6060,
          "time": "6060i",
          "velocity": 0.7559055118110236
        },
        {
          "duration": 0.20833324999999547,
          "durationTicks": 12,
          "midi": 49,
          "name": "C#3",
          "ticks": 6072,
          "time": "6072i",
          "velocity": 0.7559055118110236
        },
        {
          "duration": 0.20833325000000968,
          "durationTicks": 12,
          "midi": 50,
          "name": "D3",
          "ticks": 6084,
          "time": "6084i",
          "velocity": 0.7559055118110236
        },
        {
          "duration": 0.20833324999999547,
          "durationTicks": 12,
          "midi": 52,
          "name": "E3",
          "ticks": 6096,
          "time": "6096i",
          "velocity": 0.7559055118110236
        },
        {
          "duration": 0.20833324999999547,
          "durationTicks": 12,
          "midi": 54,
          "name": "F#3",
          "ticks": 6108,
          "time": "6108i",
          "velocity": 0.7559055118110236
        },
        {
          "duration": 0.20833325000000968,
          "durationTicks": 12,
          "midi": 55,
          "name": "G3",
          "ticks": 6120,
          "time": "6120i",
          "velocity": 0.7559055118110236
        },
        {
          "duration": 0.20833324999999547,
          "durationTicks": 12,
          "midi": 57,
          "name": "A3",
          "ticks": 6132,
          "time": "6132i",
          "velocity": 0.7559055118110236
        },
        {
          "duration": 0.41666649999999095,
          "durationTicks": 24,
          "midi": 57,
          "name": "A3",
          "ticks": 6168,
          "time": "6168i",
          "velocity": 0.7559055118110236
        },
        {
          "duration": 0.41666650000000516,
          "durationTicks": 24,
          "midi": 61,
          "name": "C#4",
          "ticks": 6192,
          "time": "6192i",
          "velocity": 0.7559055118110236
        },
        {
          "duration": 0.41666650000000516,
          "durationTicks": 24,
          "midi": 57,
          "name": "A3",
          "ticks": 6216,
          "time": "6216i",
          "velocity": 0.7559055118110236
        },
        {
          "duration": 0.41666650000000516,
          "durationTicks": 24,
          "midi": 55,
          "name": "G3",
          "ticks": 6264,
          "time": "6264i",
          "velocity": 0.7559055118110236
        },
        {
          "duration": 0.41666649999999095,
          "durationTicks": 24,
          "midi": 64,
          "name": "E4",
          "ticks": 6288,
          "time": "6288i",
          "velocity": 0.7559055118110236
        },
        {
          "duration": 0.41666650000000516,
          "durationTicks": 24,
          "midi": 55,
          "name": "G3",
          "ticks": 6312,
          "time": "6312i",
          "velocity": 0.7559055118110236
        },
        {
          "duration": 0.41666649999999095,
          "durationTicks": 24,
          "midi": 50,
          "name": "D3",
          "ticks": 6360,
          "time": "6360i",
          "velocity": 0.7559055118110236
        },
        {
          "duration": 0.41666650000000516,
          "durationTicks": 24,
          "midi": 54,
          "name": "F#3",
          "ticks": 6384,
          "time": "6384i",
          "velocity": 0.7559055118110236
        },
        {
          "duration": 0.41666650000000516,
          "durationTicks": 24,
          "midi": 50,
          "name": "D3",
          "ticks": 6408,
          "time": "6408i",
          "velocity": 0.7559055118110236
        },
        {
          "duration": 0.41666650000000516,
          "durationTicks": 24,
          "midi": 49,
          "name": "C#3",
          "ticks": 6456,
          "time": "6456i",
          "velocity": 0.7559055118110236
        },
        {
          "duration": 0.41666650000000516,
          "durationTicks": 24,
          "midi": 57,
          "name": "A3",
          "ticks": 6480,
          "time": "6480i",
          "velocity": 0.7559055118110236
        },
        {
          "duration": 0.41666649999999095,
          "durationTicks": 24,
          "midi": 49,
          "name": "C#3",
          "ticks": 6504,
          "time": "6504i",
          "velocity": 0.7559055118110236
        },
        {
          "duration": 0.41666649999999095,
          "durationTicks": 24,
          "midi": 50,
          "name": "D3",
          "ticks": 6552,
          "time": "6552i",
          "velocity": 0.7559055118110236
        },
        {
          "duration": 0.41666650000000516,
          "durationTicks": 24,
          "midi": 59,
          "name": "B3",
          "ticks": 6576,
          "time": "6576i",
          "velocity": 0.7559055118110236
        },
        {
          "duration": 0.41666650000000516,
          "durationTicks": 24,
          "midi": 50,
          "name": "D3",
          "ticks": 6600,
          "time": "6600i",
          "velocity": 0.7559055118110236
        },
        {
          "duration": 0.41666650000000516,
          "durationTicks": 24,
          "midi": 45,
          "name": "A2",
          "ticks": 6648,
          "time": "6648i",
          "velocity": 0.7559055118110236
        },
        {
          "duration": 0.41666650000000516,
          "durationTicks": 24,
          "midi": 50,
          "name": "D3",
          "ticks": 6672,
          "time": "6672i",
          "velocity": 0.7559055118110236
        },
        {
          "duration": 0.41666649999999095,
          "durationTicks": 24,
          "midi": 54,
          "name": "F#3",
          "ticks": 6696,
          "time": "6696i",
          "velocity": 0.7559055118110236
        },
        {
          "duration": 0.41666650000000516,
          "durationTicks": 24,
          "midi": 50,
          "name": "D3",
          "ticks": 6744,
          "time": "6744i",
          "velocity": 0.7559055118110236
        },
        {
          "duration": 0.41666649999999095,
          "durationTicks": 24,
          "midi": 59,
          "name": "B3",
          "ticks": 6768,
          "time": "6768i",
          "velocity": 0.7559055118110236
        },
        {
          "duration": 0.41666650000000516,
          "durationTicks": 24,
          "midi": 50,
          "name": "D3",
          "ticks": 6792,
          "time": "6792i",
          "velocity": 0.7559055118110236
        },
        {
          "duration": 0.41666650000000516,
          "durationTicks": 24,
          "midi": 52,
          "name": "E3",
          "ticks": 6840,
          "time": "6840i",
          "velocity": 0.7559055118110236
        },
        {
          "duration": 0.41666650000000516,
          "durationTicks": 24,
          "midi": 61,
          "name": "C#4",
          "ticks": 6864,
          "time": "6864i",
          "velocity": 0.7559055118110236
        },
        {
          "duration": 0.41666649999999095,
          "durationTicks": 24,
          "midi": 52,
          "name": "E3",
          "ticks": 6888,
          "time": "6888i",
          "velocity": 0.7559055118110236
        },
        {
          "duration": 0.41666650000000516,
          "durationTicks": 24,
          "midi": 61,
          "name": "C#4",
          "ticks": 7008,
          "time": "7008i",
          "velocity": 0.7559055118110236
        },
        {
          "duration": 0.41666650000000516,
          "durationTicks": 24,
          "midi": 62,
          "name": "D4",
          "ticks": 7104,
          "time": "7104i",
          "velocity": 0.7559055118110236
        },
        {
          "duration": 0.41666650000000516,
          "durationTicks": 24,
          "midi": 69,
          "name": "A4",
          "ticks": 7200,
          "time": "7200i",
          "velocity": 0.7559055118110236
        },
        {
          "duration": 0.41666650000000516,
          "durationTicks": 24,
          "midi": 62,
          "name": "D4",
          "ticks": 7320,
          "time": "7320i",
          "velocity": 0.7559055118110236
        },
        {
          "duration": 0.41666649999999095,
          "durationTicks": 24,
          "midi": 67,
          "name": "G4",
          "ticks": 7344,
          "time": "7344i",
          "velocity": 0.7559055118110236
        },
        {
          "duration": 0.41666650000000516,
          "durationTicks": 24,
          "midi": 64,
          "name": "E4",
          "ticks": 7368,
          "time": "7368i",
          "velocity": 0.7559055118110236
        },
        {
          "duration": 0.41666649999999095,
          "durationTicks": 24,
          "midi": 69,
          "name": "A4",
          "ticks": 7392,
          "time": "7392i",
          "velocity": 0.7559055118110236
        },
        {
          "duration": 0.41666650000001937,
          "durationTicks": 24,
          "midi": 69,
          "name": "A4",
          "ticks": 7416,
          "time": "7416i",
          "velocity": 0.7559055118110236
        },
        {
          "duration": 0.41666649999999095,
          "durationTicks": 24,
          "midi": 69,
          "name": "A4",
          "ticks": 7440,
          "time": "7440i",
          "velocity": 0.7559055118110236
        },
        {
          "duration": 0.41666649999999095,
          "durationTicks": 24,
          "midi": 69,
          "name": "A4",
          "ticks": 7464,
          "time": "7464i",
          "velocity": 0.7559055118110236
        },
        {
          "duration": 0.41666650000001937,
          "durationTicks": 24,
          "midi": 71,
          "name": "B4",
          "ticks": 7488,
          "time": "7488i",
          "velocity": 0.7559055118110236
        },
        {
          "duration": 0.41666649999999095,
          "durationTicks": 24,
          "midi": 69,
          "name": "A4",
          "ticks": 7584,
          "time": "7584i",
          "velocity": 0.7559055118110236
        },
        {
          "duration": 0.41666649999999095,
          "durationTicks": 24,
          "midi": 61,
          "name": "C#4",
          "ticks": 7608,
          "time": "7608i",
          "velocity": 0.7559055118110236
        },
        {
          "duration": 0.41666650000001937,
          "durationTicks": 24,
          "midi": 61,
          "name": "C#4",
          "ticks": 7632,
          "time": "7632i",
          "velocity": 0.7559055118110236
        },
        {
          "duration": 0.41666649999999095,
          "durationTicks": 24,
          "midi": 61,
          "name": "C#4",
          "ticks": 7656,
          "time": "7656i",
          "velocity": 0.7559055118110236
        },
        {
          "duration": 1.2499995000000013,
          "durationTicks": 72,
          "midi": 62,
          "name": "D4",
          "ticks": 7680,
          "time": "7680i",
          "velocity": 0.7559055118110236
        },
        {
          "duration": 0.41666649999999095,
          "durationTicks": 24,
          "midi": 74,
          "name": "D5",
          "ticks": 7752,
          "time": "7752i",
          "velocity": 0.7559055118110236
        },
        {
          "duration": 1.6666659999999922,
          "durationTicks": 96,
          "midi": 73,
          "name": "C#5",
          "ticks": 7776,
          "time": "7776i",
          "velocity": 0.7559055118110236
        },
        {
          "duration": 1.6666660000000206,
          "durationTicks": 96,
          "midi": 71,
          "name": "B4",
          "ticks": 7872,
          "time": "7872i",
          "velocity": 0.7559055118110236
        },
        {
          "duration": 1.6666659999999922,
          "durationTicks": 96,
          "midi": 69,
          "name": "A4",
          "ticks": 7968,
          "time": "7968i",
          "velocity": 0.7559055118110236
        },
        {
          "duration": 1.2499995000000013,
          "durationTicks": 72,
          "midi": 62,
          "name": "D4",
          "ticks": 8064,
          "time": "8064i",
          "velocity": 0.7559055118110236
        },
        {
          "duration": 0.41666649999999095,
          "durationTicks": 24,
          "midi": 64,
          "name": "E4",
          "ticks": 8136,
          "time": "8136i",
          "velocity": 0.7559055118110236
        },
        {
          "duration": 1.6666660000000206,
          "durationTicks": 96,
          "midi": 66,
          "name": "F#4",
          "ticks": 8160,
          "time": "8160i",
          "velocity": 0.7559055118110236
        },
        {
          "duration": 0.8333329999999819,
          "durationTicks": 48,
          "midi": 67,
          "name": "G4",
          "ticks": 8256,
          "time": "8256i",
          "velocity": 0.7559055118110236
        },
        {
          "duration": 0.8333330000000103,
          "durationTicks": 48,
          "midi": 62,
          "name": "D4",
          "ticks": 8304,
          "time": "8304i",
          "velocity": 0.7559055118110236
        },
        {
          "duration": 0.8333329999999819,
          "durationTicks": 48,
          "midi": 62,
          "name": "D4",
          "ticks": 8352,
          "time": "8352i",
          "velocity": 0.7559055118110236
        },
        {
          "duration": 0.8333330000000103,
          "durationTicks": 48,
          "midi": 61,
          "name": "C#4",
          "ticks": 8400,
          "time": "8400i",
          "velocity": 0.7559055118110236
        },
        {
          "duration": 0.41666649999999095,
          "durationTicks": 24,
          "midi": 62,
          "name": "D4",
          "ticks": 8448,
          "time": "8448i",
          "velocity": 0.7559055118110236
        },
        {
          "duration": 0.8333330000000103,
          "durationTicks": 48,
          "midi": 74,
          "name": "D5",
          "ticks": 8472,
          "time": "8472i",
          "velocity": 0.7559055118110236
        },
        {
          "duration": 0.41666649999999095,
          "durationTicks": 24,
          "midi": 78,
          "name": "F#5",
          "ticks": 8520,
          "time": "8520i",
          "velocity": 0.7559055118110236
        },
        {
          "duration": 0.41666650000001937,
          "durationTicks": 24,
          "midi": 78,
          "name": "F#5",
          "ticks": 8544,
          "time": "8544i",
          "velocity": 0.7559055118110236
        },
        {
          "duration": 0.41666649999999095,
          "durationTicks": 24,
          "midi": 79,
          "name": "G5",
          "ticks": 8568,
          "time": "8568i",
          "velocity": 0.7559055118110236
        },
        {
          "duration": 0.41666649999999095,
          "durationTicks": 24,
          "midi": 78,
          "name": "F#5",
          "ticks": 8592,
          "time": "8592i",
          "velocity": 0.7559055118110236
        },
        {
          "duration": 0.41666650000001937,
          "durationTicks": 24,
          "midi": 76,
          "name": "E5",
          "ticks": 8616,
          "time": "8616i",
          "velocity": 0.7559055118110236
        },
        {
          "duration": 1.2499995000000013,
          "durationTicks": 72,
          "midi": 74,
          "name": "D5",
          "ticks": 8640,
          "time": "8640i",
          "velocity": 0.7559055118110236
        },
        {
          "duration": 0.41666649999999095,
          "durationTicks": 24,
          "midi": 74,
          "name": "D5",
          "ticks": 8712,
          "time": "8712i",
          "velocity": 0.7559055118110236
        },
        {
          "duration": 0.41666649999999095,
          "durationTicks": 24,
          "midi": 74,
          "name": "D5",
          "ticks": 8736,
          "time": "8736i",
          "velocity": 0.7559055118110236
        },
        {
          "duration": 0.41666650000001937,
          "durationTicks": 24,
          "midi": 76,
          "name": "E5",
          "ticks": 8760,
          "time": "8760i",
          "velocity": 0.7559055118110236
        },
        {
          "duration": 0.41666649999999095,
          "durationTicks": 24,
          "midi": 74,
          "name": "D5",
          "ticks": 8784,
          "time": "8784i",
          "velocity": 0.7559055118110236
        },
        {
          "duration": 0.41666649999999095,
          "durationTicks": 24,
          "midi": 73,
          "name": "C#5",
          "ticks": 8808,
          "time": "8808i",
          "velocity": 0.7559055118110236
        },
        {
          "duration": 0.41666649999999095,
          "durationTicks": 24,
          "midi": 71,
          "name": "B4",
          "ticks": 8832,
          "time": "8832i",
          "velocity": 0.7559055118110236
        },
        {
          "duration": 0.41666649999999095,
          "durationTicks": 24,
          "midi": 62,
          "name": "D4",
          "ticks": 8880,
          "time": "8880i",
          "velocity": 0.7559055118110236
        },
        {
          "duration": 0.41666649999999095,
          "durationTicks": 24,
          "midi": 64,
          "name": "E4",
          "ticks": 8904,
          "time": "8904i",
          "velocity": 0.7559055118110236
        },
        {
          "duration": 1.6666660000000206,
          "durationTicks": 96,
          "midi": 66,
          "name": "F#4",
          "ticks": 8928,
          "time": "8928i",
          "velocity": 0.7559055118110236
        },
        {
          "duration": 0.41666649999999095,
          "durationTicks": 24,
          "midi": 62,
          "name": "D4",
          "ticks": 9024,
          "time": "9024i",
          "velocity": 0.7559055118110236
        },
        {
          "duration": 0.41666649999999095,
          "durationTicks": 24,
          "midi": 60,
          "name": "C4",
          "ticks": 9048,
          "time": "9048i",
          "velocity": 0.7559055118110236
        },
        {
          "duration": 0.8333330000000103,
          "durationTicks": 48,
          "midi": 67,
          "name": "G4",
          "ticks": 9072,
          "time": "9072i",
          "velocity": 0.7559055118110236
        },
        {
          "duration": 0.41666649999999095,
          "durationTicks": 24,
          "midi": 69,
          "name": "A4",
          "ticks": 9120,
          "time": "9120i",
          "velocity": 0.7559055118110236
        },
        {
          "duration": 0.41666650000001937,
          "durationTicks": 24,
          "midi": 64,
          "name": "E4",
          "ticks": 9144,
          "time": "9144i",
          "velocity": 0.7559055118110236
        },
        {
          "duration": 0.41666649999999095,
          "durationTicks": 24,
          "midi": 69,
          "name": "A4",
          "ticks": 9168,
          "time": "9168i",
          "velocity": 0.7559055118110236
        },
        {
          "duration": 0.41666649999999095,
          "durationTicks": 24,
          "midi": 67,
          "name": "G4",
          "ticks": 9192,
          "time": "9192i",
          "velocity": 0.7559055118110236
        },
        {
          "duration": 1.2499995000000013,
          "durationTicks": 72,
          "midi": 66,
          "name": "F#4",
          "ticks": 9216,
          "time": "9216i",
          "velocity": 0.7559055118110236
        },
        {
          "duration": 0.41666650000001937,
          "durationTicks": 24,
          "midi": 74,
          "name": "D5",
          "ticks": 9288,
          "time": "9288i",
          "velocity": 0.7559055118110236
        },
        {
          "duration": 0.8333329999999819,
          "durationTicks": 48,
          "midi": 76,
          "name": "E5",
          "ticks": 9312,
          "time": "9312i",
          "velocity": 0.7559055118110236
        },
        {
          "duration": 0.8333330000000103,
          "durationTicks": 48,
          "midi": 73,
          "name": "C#5",
          "ticks": 9360,
          "time": "9360i",
          "velocity": 0.7559055118110236
        },
        {
          "duration": 1.2499995000000013,
          "durationTicks": 72,
          "midi": 74,
          "name": "D5",
          "ticks": 9408,
          "time": "9408i",
          "velocity": 0.7559055118110236
        },
        {
          "duration": 0.8333330000000103,
          "durationTicks": 48,
          "midi": 71,
          "name": "B4",
          "ticks": 9504,
          "time": "9504i",
          "velocity": 0.7559055118110236
        },
        {
          "duration": 0.8333329999999819,
          "durationTicks": 48,
          "midi": 69,
          "name": "A4",
          "ticks": 9552,
          "time": "9552i",
          "velocity": 0.7559055118110236
        },
        {
          "duration": 1.6666660000000206,
          "durationTicks": 96,
          "midi": 71,
          "name": "B4",
          "ticks": 9600,
          "time": "9600i",
          "velocity": 0.7559055118110236
        },
        {
          "duration": 0.8333330000000103,
          "durationTicks": 48,
          "midi": 67,
          "name": "G4",
          "ticks": 9792,
          "time": "9792i",
          "velocity": 0.7559055118110236
        },
        {
          "duration": 0.8333329999999819,
          "durationTicks": 48,
          "midi": 62,
          "name": "D4",
          "ticks": 9840,
          "time": "9840i",
          "velocity": 0.7559055118110236
        },
        {
          "duration": 0.8333330000000103,
          "durationTicks": 48,
          "midi": 74,
          "name": "D5",
          "ticks": 9888,
          "time": "9888i",
          "velocity": 0.7559055118110236
        },
        {
          "duration": 0.8333329999999819,
          "durationTicks": 48,
          "midi": 74,
          "name": "D5",
          "ticks": 9936,
          "time": "9936i",
          "velocity": 0.7559055118110236
        },
        {
          "duration": 0.8333330000000103,
          "durationTicks": 48,
          "midi": 73,
          "name": "C#5",
          "ticks": 9984,
          "time": "9984i",
          "velocity": 0.7559055118110236
        },
        {
          "duration": 0.8333330000000103,
          "durationTicks": 48,
          "midi": 74,
          "name": "D5",
          "ticks": 10032,
          "time": "10032i",
          "velocity": 0.7559055118110236
        },
        {
          "duration": 1.6666659999999922,
          "durationTicks": 96,
          "midi": 73,
          "name": "C#5",
          "ticks": 10080,
          "time": "10080i",
          "velocity": 0.7559055118110236
        },
        {
          "duration": 0.8333330000000103,
          "durationTicks": 48,
          "midi": 71,
          "name": "B4",
          "ticks": 10176,
          "time": "10176i",
          "velocity": 0.7559055118110236
        },
        {
          "duration": 0.8333329999999819,
          "durationTicks": 48,
          "midi": 83,
          "name": "B5",
          "ticks": 10224,
          "time": "10224i",
          "velocity": 0.7559055118110236
        },
        {
          "duration": 1.6666660000000206,
          "durationTicks": 96,
          "midi": 81,
          "name": "A5",
          "ticks": 10272,
          "time": "10272i",
          "velocity": 0.7559055118110236
        },
        {
          "duration": 0.8333329999999819,
          "durationTicks": 48,
          "midi": 79,
          "name": "G5",
          "ticks": 10368,
          "time": "10368i",
          "velocity": 0.7559055118110236
        },
        {
          "duration": 0.8333330000000103,
          "durationTicks": 48,
          "midi": 83,
          "name": "B5",
          "ticks": 10416,
          "time": "10416i",
          "velocity": 0.7559055118110236
        },
        {
          "duration": 1.6666659999999922,
          "durationTicks": 96,
          "midi": 78,
          "name": "F#5",
          "ticks": 10464,
          "time": "10464i",
          "velocity": 0.7559055118110236
        },
        {
          "duration": 0.8333330000000103,
          "durationTicks": 48,
          "midi": 74,
          "name": "D5",
          "ticks": 10560,
          "time": "10560i",
          "velocity": 0.7559055118110236
        },
        {
          "duration": 0.8333329999999819,
          "durationTicks": 48,
          "midi": 71,
          "name": "B4",
          "ticks": 10608,
          "time": "10608i",
          "velocity": 0.7559055118110236
        },
        {
          "duration": 0.8333330000000103,
          "durationTicks": 48,
          "midi": 73,
          "name": "C#5",
          "ticks": 10656,
          "time": "10656i",
          "velocity": 0.7559055118110236
        },
        {
          "duration": 0.8333330000000103,
          "durationTicks": 48,
          "midi": 76,
          "name": "E5",
          "ticks": 10704,
          "time": "10704i",
          "velocity": 0.7559055118110236
        },
        {
          "duration": 0.8333329999999819,
          "durationTicks": 48,
          "midi": 74,
          "name": "D5",
          "ticks": 10752,
          "time": "10752i",
          "velocity": 0.7559055118110236
        },
        {
          "duration": 0.8333330000000103,
          "durationTicks": 48,
          "midi": 62,
          "name": "D4",
          "ticks": 10800,
          "time": "10800i",
          "velocity": 0.7559055118110236
        },
        {
          "duration": 0.8333330000000103,
          "durationTicks": 48,
          "midi": 61,
          "name": "C#4",
          "ticks": 10848,
          "time": "10848i",
          "velocity": 0.7559055118110236
        },
        {
          "duration": 0.8333329999999819,
          "durationTicks": 48,
          "midi": 73,
          "name": "C#5",
          "ticks": 10896,
          "time": "10896i",
          "velocity": 0.7559055118110236
        },
        {
          "duration": 0.8333330000000103,
          "durationTicks": 48,
          "midi": 71,
          "name": "B4",
          "ticks": 10944,
          "time": "10944i",
          "velocity": 0.7559055118110236
        },
        {
          "duration": 0.8333329999999819,
          "durationTicks": 48,
          "midi": 62,
          "name": "D4",
          "ticks": 10992,
          "time": "10992i",
          "velocity": 0.7559055118110236
        },
        {
          "duration": 0.8333330000000103,
          "durationTicks": 48,
          "midi": 57,
          "name": "A3",
          "ticks": 11040,
          "time": "11040i",
          "velocity": 0.7559055118110236
        },
        {
          "duration": 0.8333330000000103,
          "durationTicks": 48,
          "midi": 69,
          "name": "A4",
          "ticks": 11088,
          "time": "11088i",
          "velocity": 0.7559055118110236
        },
        {
          "duration": 0.8333329999999819,
          "durationTicks": 48,
          "midi": 67,
          "name": "G4",
          "ticks": 11136,
          "time": "11136i",
          "velocity": 0.7559055118110236
        },
        {
          "duration": 0.8333330000000103,
          "durationTicks": 48,
          "midi": 79,
          "name": "G5",
          "ticks": 11184,
          "time": "11184i",
          "velocity": 0.7559055118110236
        },
        {
          "duration": 0.8333330000000103,
          "durationTicks": 48,
          "midi": 78,
          "name": "F#5",
          "ticks": 11232,
          "time": "11232i",
          "velocity": 0.7559055118110236
        },
        {
          "duration": 0.8333329999999819,
          "durationTicks": 48,
          "midi": 69,
          "name": "A4",
          "ticks": 11280,
          "time": "11280i",
          "velocity": 0.7559055118110236
        },
        {
          "duration": 1.6666660000000206,
          "durationTicks": 96,
          "midi": 67,
          "name": "G4",
          "ticks": 11328,
          "time": "11328i",
          "velocity": 0.7559055118110236
        },
        {
          "duration": 0.8333329999999819,
          "durationTicks": 48,
          "midi": 69,
          "name": "A4",
          "ticks": 11424,
          "time": "11424i",
          "velocity": 0.7559055118110236
        },
        {
          "duration": 0.8333330000000103,
          "durationTicks": 48,
          "midi": 73,
          "name": "C#5",
          "ticks": 11472,
          "time": "11472i",
          "velocity": 0.7559055118110236
        },
        {
          "duration": 1.6666659999999922,
          "durationTicks": 96,
          "midi": 69,
          "name": "A4",
          "ticks": 11520,
          "time": "11520i",
          "velocity": 0.7559055118110236
        }
      ]
    },
    {
      "channel": 0,
      "controlChanges": {
        "7": [
          {
            "number": 7,
            "ticks": 0,
            "time": 0,
            "value": 1
          }
        ],
        "10": [
          {
            "number": 10,
            "ticks": 0,
            "time": 0,
            "value": 1
          }
        ]
      },
      "pitchBends": [],
      "instrument": {
        "family": "piano",
        "number": 0,
        "name": "acoustic grand piano"
      },
      "name": "WinJammer Demo",
      "notes": [],
      "endOfTrackTicks": 11712
    },
    {
      "channel": 3,
      "controlChanges": {},
      "pitchBends": [],
      "instrument": {
        "family": "piano",
        "number": 1,
        "name": "bright acoustic piano"
      },
      "name": "",
      "notes": [
        {
          "duration": 1.6666659999999993,
          "durationTicks": 96,
          "midi": 66,
          "name": "F#4",
          "ticks": 1536,
          "time": "1536i",
          "velocity": 0.6771653543307087
        },
        {
          "duration": 1.6666659999999993,
          "durationTicks": 96,
          "midi": 64,
          "name": "E4",
          "ticks": 1632,
          "time": "1632i",
          "velocity": 0.6771653543307087
        },
        {
          "duration": 1.6666660000000029,
          "durationTicks": 96,
          "midi": 62,
          "name": "D4",
          "ticks": 1728,
          "time": "1728i",
          "velocity": 0.6771653543307087
        },
        {
          "duration": 1.6666659999999993,
          "durationTicks": 96,
          "midi": 61,
          "name": "C#4",
          "ticks": 1824,
          "time": "1824i",
          "velocity": 0.6771653543307087
        },
        {
          "duration": 1.6666659999999993,
          "durationTicks": 96,
          "midi": 59,
          "name": "B3",
          "ticks": 1920,
          "time": "1920i",
          "velocity": 0.6771653543307087
        },
        {
          "duration": 1.6666659999999993,
          "durationTicks": 96,
          "midi": 57,
          "name": "A3",
          "ticks": 2016,
          "time": "2016i",
          "velocity": 0.6771653543307087
        },
        {
          "duration": 1.6666659999999993,
          "durationTicks": 96,
          "midi": 59,
          "name": "B3",
          "ticks": 2112,
          "time": "2112i",
          "velocity": 0.6771653543307087
        },
        {
          "duration": 1.6666659999999993,
          "durationTicks": 96,
          "midi": 61,
          "name": "C#4",
          "ticks": 2208,
          "time": "2208i",
          "velocity": 0.6771653543307087
        },
        {
          "duration": 0.8333329999999961,
          "durationTicks": 48,
          "midi": 62,
          "name": "D4",
          "ticks": 2352,
          "time": "2352i",
          "velocity": 0.6771653543307087
        },
        {
          "duration": 1.6666659999999993,
          "durationTicks": 96,
          "midi": 61,
          "name": "C#4",
          "ticks": 2400,
          "time": "2400i",
          "velocity": 0.6771653543307087
        },
        {
          "duration": 0.8333330000000032,
          "durationTicks": 48,
          "midi": 59,
          "name": "B3",
          "ticks": 2544,
          "time": "2544i",
          "velocity": 0.6771653543307087
        },
        {
          "duration": 1.6666659999999993,
          "durationTicks": 96,
          "midi": 57,
          "name": "A3",
          "ticks": 2592,
          "time": "2592i",
          "velocity": 0.6771653543307087
        },
        {
          "duration": 0.8333330000000032,
          "durationTicks": 48,
          "midi": 59,
          "name": "B3",
          "ticks": 2736,
          "time": "2736i",
          "velocity": 0.6771653543307087
        },
        {
          "duration": 1.6666659999999993,
          "durationTicks": 96,
          "midi": 57,
          "name": "A3",
          "ticks": 2784,
          "time": "2784i",
          "velocity": 0.6771653543307087
        },
        {
          "duration": 0.8333330000000032,
          "durationTicks": 48,
          "midi": 62,
          "name": "D4",
          "ticks": 2928,
          "time": "2928i",
          "velocity": 0.6771653543307087
        },
        {
          "duration": 1.6666659999999993,
          "durationTicks": 96,
          "midi": 61,
          "name": "C#4",
          "ticks": 2976,
          "time": "2976i",
          "velocity": 0.6771653543307087
        },
        {
          "duration": 0.8333330000000032,
          "durationTicks": 48,
          "midi": 50,
          "name": "D3",
          "ticks": 3072,
          "time": "3072i",
          "velocity": 0.6771653543307087
        },
        {
          "duration": 0.8333329999999961,
          "durationTicks": 48,
          "midi": 54,
          "name": "F#3",
          "ticks": 3120,
          "time": "3120i",
          "velocity": 0.6771653543307087
        },
        {
          "duration": 0.8333330000000032,
          "durationTicks": 48,
          "midi": 57,
          "name": "A3",
          "ticks": 3168,
          "time": "3168i",
          "velocity": 0.6771653543307087
        },
        {
          "duration": 0.8333329999999961,
          "durationTicks": 48,
          "midi": 55,
          "name": "G3",
          "ticks": 3216,
          "time": "3216i",
          "velocity": 0.6771653543307087
        },
        {
          "duration": 0.8333330000000032,
          "durationTicks": 48,
          "midi": 54,
          "name": "F#3",
          "ticks": 3264,
          "time": "3264i",
          "velocity": 0.6771653543307087
        },
        {
          "duration": 0.8333329999999961,
          "durationTicks": 48,
          "midi": 50,
          "name": "D3",
          "ticks": 3312,
          "time": "3312i",
          "velocity": 0.6771653543307087
        },
        {
          "duration": 0.8333330000000032,
          "durationTicks": 48,
          "midi": 54,
          "name": "F#3",
          "ticks": 3360,
          "time": "3360i",
          "velocity": 0.6771653543307087
        },
        {
          "duration": 0.8333329999999961,
          "durationTicks": 48,
          "midi": 52,
          "name": "E3",
          "ticks": 3408,
          "time": "3408i",
          "velocity": 0.6771653543307087
        },
        {
          "duration": 0.8333330000000032,
          "durationTicks": 48,
          "midi": 50,
          "name": "D3",
          "ticks": 3456,
          "time": "3456i",
          "velocity": 0.6771653543307087
        },
        {
          "duration": 0.8333329999999961,
          "durationTicks": 48,
          "midi": 59,
          "name": "B3",
          "ticks": 3504,
          "time": "3504i",
          "velocity": 0.6771653543307087
        },
        {
          "duration": 0.8333330000000032,
          "durationTicks": 48,
          "midi": 57,
          "name": "A3",
          "ticks": 3552,
          "time": "3552i",
          "velocity": 0.6771653543307087
        },
        {
          "duration": 0.8333330000000032,
          "durationTicks": 48,
          "midi": 54,
          "name": "F#3",
          "ticks": 3600,
          "time": "3600i",
          "velocity": 0.6771653543307087
        },
        {
          "duration": 0.8333329999999961,
          "durationTicks": 48,
          "midi": 52,
          "name": "E3",
          "ticks": 3648,
          "time": "3648i",
          "velocity": 0.6771653543307087
        },
        {
          "duration": 0.8333329999999961,
          "durationTicks": 48,
          "midi": 50,
          "name": "D3",
          "ticks": 3696,
          "time": "3696i",
          "velocity": 0.6771653543307087
        },
        {
          "duration": 0.41666650000000516,
          "durationTicks": 24,
          "midi": 52,
          "name": "E3",
          "ticks": 3768,
          "time": "3768i",
          "velocity": 0.6771653543307087
        },
        {
          "duration": 0.8333329999999961,
          "durationTicks": 48,
          "midi": 57,
          "name": "A3",
          "ticks": 3792,
          "time": "3792i",
          "velocity": 0.6771653543307087
        },
        {
          "duration": 0.41666650000000516,
          "durationTicks": 24,
          "midi": 50,
          "name": "D3",
          "ticks": 3840,
          "time": "3840i",
          "velocity": 0.6771653543307087
        },
        {
          "duration": 0.41666649999999095,
          "durationTicks": 24,
          "midi": 52,
          "name": "E3",
          "ticks": 3864,
          "time": "3864i",
          "velocity": 0.6771653543307087
        },
        {
          "duration": 0.41666650000000516,
          "durationTicks": 24,
          "midi": 54,
          "name": "F#3",
          "ticks": 3888,
          "time": "3888i",
          "velocity": 0.6771653543307087
        },
        {
          "duration": 0.41666649999999095,
          "durationTicks": 24,
          "midi": 55,
          "name": "G3",
          "ticks": 3912,
          "time": "3912i",
          "velocity": 0.6771653543307087
        },
        {
          "duration": 0.41666650000000516,
          "durationTicks": 24,
          "midi": 57,
          "name": "A3",
          "ticks": 3936,
          "time": "3936i",
          "velocity": 0.6771653543307087
        },
        {
          "duration": 0.41666650000000516,
          "durationTicks": 24,
          "midi": 52,
          "name": "E3",
          "ticks": 3960,
          "time": "3960i",
          "velocity": 0.6771653543307087
        },
        {
          "duration": 0.41666649999999095,
          "durationTicks": 24,
          "midi": 57,
          "name": "A3",
          "ticks": 3984,
          "time": "3984i",
          "velocity": 0.6771653543307087
        },
        {
          "duration": 0.41666650000000516,
          "durationTicks": 24,
          "midi": 55,
          "name": "G3",
          "ticks": 4008,
          "time": "4008i",
          "velocity": 0.6771653543307087
        },
        {
          "duration": 0.41666650000000516,
          "durationTicks": 24,
          "midi": 54,
          "name": "F#3",
          "ticks": 4032,
          "time": "4032i",
          "velocity": 0.6771653543307087
        },
        {
          "duration": 0.41666649999999095,
          "durationTicks": 24,
          "midi": 59,
          "name": "B3",
          "ticks": 4056,
          "time": "4056i",
          "velocity": 0.6771653543307087
        },
        {
          "duration": 0.41666650000000516,
          "durationTicks": 24,
          "midi": 57,
          "name": "A3",
          "ticks": 4080,
          "time": "4080i",
          "velocity": 0.6771653543307087
        },
        {
          "duration": 0.41666650000000516,
          "durationTicks": 24,
          "midi": 55,
          "name": "G3",
          "ticks": 4104,
          "time": "4104i",
          "velocity": 0.6771653543307087
        },
        {
          "duration": 0.41666649999999095,
          "durationTicks": 24,
          "midi": 54,
          "name": "F#3",
          "ticks": 4128,
          "time": "4128i",
          "velocity": 0.6771653543307087
        },
        {
          "duration": 0.41666650000000516,
          "durationTicks": 24,
          "midi": 49,
          "name": "C#3",
          "ticks": 4152,
          "time": "4152i",
          "velocity": 0.6771653543307087
        },
        {
          "duration": 0.41666649999999095,
          "durationTicks": 24,
          "midi": 54,
          "name": "F#3",
          "ticks": 4176,
          "time": "4176i",
          "velocity": 0.6771653543307087
        },
        {
          "duration": 0.41666650000000516,
          "durationTicks": 24,
          "midi": 52,
          "name": "E3",
          "ticks": 4200,
          "time": "4200i",
          "velocity": 0.6771653543307087
        },
        {
          "duration": 0.41666650000000516,
          "durationTicks": 24,
          "midi": 50,
          "name": "D3",
          "ticks": 4224,
          "time": "4224i",
          "velocity": 0.6771653543307087
        },
        {
          "duration": 0.41666649999999095,
          "durationTicks": 24,
          "midi": 47,
          "name": "B2",
          "ticks": 4248,
          "time": "4248i",
          "velocity": 0.6771653543307087
        },
        {
          "duration": 0.41666650000000516,
          "durationTicks": 24,
          "midi": 47,
          "name": "B2",
          "ticks": 4272,
          "time": "4272i",
          "velocity": 0.6771653543307087
        },
        {
          "duration": 0.41666650000000516,
          "durationTicks": 24,
          "midi": 49,
          "name": "C#3",
          "ticks": 4296,
          "time": "4296i",
          "velocity": 0.6771653543307087
        },
        {
          "duration": 0.41666649999999095,
          "durationTicks": 24,
          "midi": 50,
          "name": "D3",
          "ticks": 4320,
          "time": "4320i",
          "velocity": 0.6771653543307087
        },
        {
          "duration": 0.41666650000000516,
          "durationTicks": 24,
          "midi": 49,
          "name": "C#3",
          "ticks": 4344,
          "time": "4344i",
          "velocity": 0.6771653543307087
        },
        {
          "duration": 0.41666650000000516,
          "durationTicks": 24,
          "midi": 47,
          "name": "B2",
          "ticks": 4368,
          "time": "4368i",
          "velocity": 0.6771653543307087
        },
        {
          "duration": 0.41666649999999095,
          "durationTicks": 24,
          "midi": 45,
          "name": "A2",
          "ticks": 4392,
          "time": "4392i",
          "velocity": 0.6771653543307087
        },
        {
          "duration": 0.41666649999999095,
          "durationTicks": 24,
          "midi": 54,
          "name": "F#3",
          "ticks": 4440,
          "time": "4440i",
          "velocity": 0.6771653543307087
        },
        {
          "duration": 0.41666650000000516,
          "durationTicks": 24,
          "midi": 52,
          "name": "E3",
          "ticks": 4464,
          "time": "4464i",
          "velocity": 0.6771653543307087
        },
        {
          "duration": 0.41666650000000516,
          "durationTicks": 24,
          "midi": 50,
          "name": "D3",
          "ticks": 4488,
          "time": "4488i",
          "velocity": 0.6771653543307087
        },
        {
          "duration": 0.41666650000000516,
          "durationTicks": 24,
          "midi": 55,
          "name": "G3",
          "ticks": 4536,
          "time": "4536i",
          "velocity": 0.6771653543307087
        },
        {
          "duration": 0.41666650000000516,
          "durationTicks": 24,
          "midi": 54,
          "name": "F#3",
          "ticks": 4560,
          "time": "4560i",
          "velocity": 0.6771653543307087
        },
        {
          "duration": 0.41666649999999095,
          "durationTicks": 24,
          "midi": 52,
          "name": "E3",
          "ticks": 4584,
          "time": "4584i",
          "velocity": 0.6771653543307087
        },
        {
          "duration": 0.41666650000000516,
          "durationTicks": 24,
          "midi": 57,
          "name": "A3",
          "ticks": 4632,
          "time": "4632i",
          "velocity": 0.6771653543307087
        },
        {
          "duration": 0.8333329999999961,
          "durationTicks": 48,
          "midi": 62,
          "name": "D4",
          "ticks": 4656,
          "time": "4656i",
          "velocity": 0.6771653543307087
        },
        {
          "duration": 0.41666650000000516,
          "durationTicks": 24,
          "midi": 52,
          "name": "E3",
          "ticks": 4728,
          "time": "4728i",
          "velocity": 0.6771653543307087
        },
        {
          "duration": 0.8333329999999961,
          "durationTicks": 48,
          "midi": 57,
          "name": "A3",
          "ticks": 4752,
          "time": "4752i",
          "velocity": 0.6771653543307087
        },
        {
          "duration": 0.41666650000000516,
          "durationTicks": 24,
          "midi": 54,
          "name": "F#3",
          "ticks": 4824,
          "time": "4824i",
          "velocity": 0.6771653543307087
        },
        {
          "duration": 0.8333329999999961,
          "durationTicks": 48,
          "midi": 59,
          "name": "B3",
          "ticks": 4848,
          "time": "4848i",
          "velocity": 0.6771653543307087
        },
        {
          "duration": 0.41666649999999095,
          "durationTicks": 24,
          "midi": 50,
          "name": "D3",
          "ticks": 4920,
          "time": "4920i",
          "velocity": 0.6771653543307087
        },
        {
          "duration": 0.8333329999999961,
          "durationTicks": 48,
          "midi": 54,
          "name": "F#3",
          "ticks": 4944,
          "time": "4944i",
          "velocity": 0.6771653543307087
        },
        {
          "duration": 0.41666650000000516,
          "durationTicks": 24,
          "midi": 50,
          "name": "D3",
          "ticks": 5016,
          "time": "5016i",
          "velocity": 0.6771653543307087
        },
        {
          "duration": 0.8333329999999961,
          "durationTicks": 48,
          "midi": 59,
          "name": "B3",
          "ticks": 5040,
          "time": "5040i",
          "velocity": 0.6771653543307087
        },
        {
          "duration": 0.41666649999999095,
          "durationTicks": 24,
          "midi": 45,
          "name": "A2",
          "ticks": 5112,
          "time": "5112i",
          "velocity": 0.6771653543307087
        },
        {
          "duration": 0.8333330000000103,
          "durationTicks": 48,
          "midi": 50,
          "name": "D3",
          "ticks": 5136,
          "time": "5136i",
          "velocity": 0.6771653543307087
        },
        {
          "duration": 0.41666650000000516,
          "durationTicks": 24,
          "midi": 50,
          "name": "D3",
          "ticks": 5208,
          "time": "5208i",
          "velocity": 0.6771653543307087
        },
        {
          "duration": 0.8333329999999961,
          "durationTicks": 48,
          "midi": 55,
          "name": "G3",
          "ticks": 5232,
          "time": "5232i",
          "velocity": 0.6771653543307087
        },
        {
          "duration": 0.41666649999999095,
          "durationTicks": 24,
          "midi": 52,
          "name": "E3",
          "ticks": 5304,
          "time": "5304i",
          "velocity": 0.6771653543307087
        },
        {
          "duration": 0.8333330000000103,
          "durationTicks": 48,
          "midi": 61,
          "name": "C#4",
          "ticks": 5328,
          "time": "5328i",
          "velocity": 0.6771653543307087
        },
        {
          "duration": 0.41666650000000516,
          "durationTicks": 24,
          "midi": 50,
          "name": "D3",
          "ticks": 6912,
          "time": "6912i",
          "velocity": 0.6771653543307087
        },
        {
          "duration": 0.41666650000000516,
          "durationTicks": 24,
          "midi": 57,
          "name": "A3",
          "ticks": 6936,
          "time": "6936i",
          "velocity": 0.6771653543307087
        },
        {
          "duration": 0.41666649999999095,
          "durationTicks": 24,
          "midi": 57,
          "name": "A3",
          "ticks": 6960,
          "time": "6960i",
          "velocity": 0.6771653543307087
        },
        {
          "duration": 0.41666650000000516,
          "durationTicks": 24,
          "midi": 57,
          "name": "A3",
          "ticks": 6984,
          "time": "6984i",
          "velocity": 0.6771653543307087
        },
        {
          "duration": 0.41666650000000516,
          "durationTicks": 24,
          "midi": 57,
          "name": "A3",
          "ticks": 7008,
          "time": "7008i",
          "velocity": 0.6771653543307087
        },
        {
          "duration": 0.20833324999999547,
          "durationTicks": 12,
          "midi": 61,
          "name": "C#4",
          "ticks": 7032,
          "time": "7032i",
          "velocity": 0.6771653543307087
        },
        {
          "duration": 0.20833324999999547,
          "durationTicks": 12,
          "midi": 62,
          "name": "D4",
          "ticks": 7044,
          "time": "7044i",
          "velocity": 0.6771653543307087
        },
        {
          "duration": 0.41666650000000516,
          "durationTicks": 24,
          "midi": 64,
          "name": "E4",
          "ticks": 7056,
          "time": "7056i",
          "velocity": 0.6771653543307087
        },
        {
          "duration": 0.41666649999999095,
          "durationTicks": 24,
          "midi": 61,
          "name": "C#4",
          "ticks": 7080,
          "time": "7080i",
          "velocity": 0.6771653543307087
        },
        {
          "duration": 0.41666650000000516,
          "durationTicks": 24,
          "midi": 47,
          "name": "B2",
          "ticks": 7104,
          "time": "7104i",
          "velocity": 0.6771653543307087
        },
        {
          "duration": 0.20833324999999547,
          "durationTicks": 12,
          "midi": 59,
          "name": "B3",
          "ticks": 7128,
          "time": "7128i",
          "velocity": 0.6771653543307087
        },
        {
          "duration": 0.20833325000000968,
          "durationTicks": 12,
          "midi": 61,
          "name": "C#4",
          "ticks": 7140,
          "time": "7140i",
          "velocity": 0.6771653543307087
        },
        {
          "duration": 0.41666649999999095,
          "durationTicks": 24,
          "midi": 62,
          "name": "D4",
          "ticks": 7152,
          "time": "7152i",
          "velocity": 0.6771653543307087
        },
        {
          "duration": 0.41666650000000516,
          "durationTicks": 24,
          "midi": 59,
          "name": "B3",
          "ticks": 7176,
          "time": "7176i",
          "velocity": 0.6771653543307087
        },
        {
          "duration": 0.41666650000000516,
          "durationTicks": 24,
          "midi": 49,
          "name": "C#3",
          "ticks": 7200,
          "time": "7200i",
          "velocity": 0.6771653543307087
        },
        {
          "duration": 0.41666649999999095,
          "durationTicks": 24,
          "midi": 57,
          "name": "A3",
          "ticks": 7224,
          "time": "7224i",
          "velocity": 0.6771653543307087
        },
        {
          "duration": 0.41666650000000516,
          "durationTicks": 24,
          "midi": 57,
          "name": "A3",
          "ticks": 7248,
          "time": "7248i",
          "velocity": 0.6771653543307087
        },
        {
          "duration": 0.41666650000000516,
          "durationTicks": 24,
          "midi": 57,
          "name": "A3",
          "ticks": 7272,
          "time": "7272i",
          "velocity": 0.6771653543307087
        },
        {
          "duration": 0.41666649999999095,
          "durationTicks": 24,
          "midi": 50,
          "name": "D3",
          "ticks": 7296,
          "time": "7296i",
          "velocity": 0.6771653543307087
        },
        {
          "duration": 0.41666649999999095,
          "durationTicks": 24,
          "midi": 45,
          "name": "A2",
          "ticks": 7392,
          "time": "7392i",
          "velocity": 0.6771653543307087
        },
        {
          "duration": 0.41666650000001937,
          "durationTicks": 24,
          "midi": 43,
          "name": "G2",
          "ticks": 7488,
          "time": "7488i",
          "velocity": 0.6771653543307087
        },
        {
          "duration": 0.41666649999999095,
          "durationTicks": 24,
          "midi": 50,
          "name": "D3",
          "ticks": 7512,
          "time": "7512i",
          "velocity": 0.6771653543307087
        },
        {
          "duration": 0.41666649999999095,
          "durationTicks": 24,
          "midi": 50,
          "name": "D3",
          "ticks": 7536,
          "time": "7536i",
          "velocity": 0.6771653543307087
        },
        {
          "duration": 0.41666650000001937,
          "durationTicks": 24,
          "midi": 50,
          "name": "D3",
          "ticks": 7560,
          "time": "7560i",
          "velocity": 0.6771653543307087
        },
        {
          "duration": 0.41666649999999095,
          "durationTicks": 24,
          "midi": 45,
          "name": "A2",
          "ticks": 7584,
          "time": "7584i",
          "velocity": 0.6771653543307087
        },
        {
          "duration": 0.41666650000001937,
          "durationTicks": 24,
          "midi": 54,
          "name": "F#3",
          "ticks": 7704,
          "time": "7704i",
          "velocity": 0.6771653543307087
        },
        {
          "duration": 0.41666649999999095,
          "durationTicks": 24,
          "midi": 57,
          "name": "A3",
          "ticks": 7728,
          "time": "7728i",
          "velocity": 0.6771653543307087
        },
        {
          "duration": 0.41666649999999095,
          "durationTicks": 24,
          "midi": 62,
          "name": "D4",
          "ticks": 7752,
          "time": "7752i",
          "velocity": 0.6771653543307087
        },
        {
          "duration": 0.41666650000001937,
          "durationTicks": 24,
          "midi": 52,
          "name": "E3",
          "ticks": 7800,
          "time": "7800i",
          "velocity": 0.6771653543307087
        },
        {
          "duration": 0.41666649999999095,
          "durationTicks": 24,
          "midi": 57,
          "name": "A3",
          "ticks": 7824,
          "time": "7824i",
          "velocity": 0.6771653543307087
        },
        {
          "duration": 0.41666649999999095,
          "durationTicks": 24,
          "midi": 61,
          "name": "C#4",
          "ticks": 7848,
          "time": "7848i",
          "velocity": 0.6771653543307087
        },
        {
          "duration": 0.41666649999999095,
          "durationTicks": 24,
          "midi": 50,
          "name": "D3",
          "ticks": 7896,
          "time": "7896i",
          "velocity": 0.6771653543307087
        },
        {
          "duration": 0.41666649999999095,
          "durationTicks": 24,
          "midi": 54,
          "name": "F#3",
          "ticks": 7920,
          "time": "7920i",
          "velocity": 0.6771653543307087
        },
        {
          "duration": 0.41666650000001937,
          "durationTicks": 24,
          "midi": 59,
          "name": "B3",
          "ticks": 7944,
          "time": "7944i",
          "velocity": 0.6771653543307087
        },
        {
          "duration": 0.41666649999999095,
          "durationTicks": 24,
          "midi": 50,
          "name": "D3",
          "ticks": 7992,
          "time": "7992i",
          "velocity": 0.6771653543307087
        },
        {
          "duration": 0.41666650000001937,
          "durationTicks": 24,
          "midi": 54,
          "name": "F#3",
          "ticks": 8016,
          "time": "8016i",
          "velocity": 0.6771653543307087
        },
        {
          "duration": 0.41666649999999095,
          "durationTicks": 24,
          "midi": 57,
          "name": "A3",
          "ticks": 8040,
          "time": "8040i",
          "velocity": 0.6771653543307087
        },
        {
          "duration": 0.41666650000001937,
          "durationTicks": 24,
          "midi": 50,
          "name": "D3",
          "ticks": 8088,
          "time": "8088i",
          "velocity": 0.6771653543307087
        },
        {
          "duration": 0.8333329999999819,
          "durationTicks": 48,
          "midi": 55,
          "name": "G3",
          "ticks": 8112,
          "time": "8112i",
          "velocity": 0.6771653543307087
        },
        {
          "duration": 0.41666649999999095,
          "durationTicks": 24,
          "midi": 45,
          "name": "A2",
          "ticks": 8184,
          "time": "8184i",
          "velocity": 0.6771653543307087
        },
        {
          "duration": 0.41666649999999095,
          "durationTicks": 24,
          "midi": 50,
          "name": "D3",
          "ticks": 8208,
          "time": "8208i",
          "velocity": 0.6771653543307087
        },
        {
          "duration": 0.41666650000001937,
          "durationTicks": 24,
          "midi": 54,
          "name": "F#3",
          "ticks": 8232,
          "time": "8232i",
          "velocity": 0.6771653543307087
        },
        {
          "duration": 0.41666649999999095,
          "durationTicks": 24,
          "midi": 50,
          "name": "D3",
          "ticks": 8280,
          "time": "8280i",
          "velocity": 0.6771653543307087
        },
        {
          "duration": 0.8333330000000103,
          "durationTicks": 48,
          "midi": 55,
          "name": "G3",
          "ticks": 8304,
          "time": "8304i",
          "velocity": 0.6771653543307087
        },
        {
          "duration": 0.41666649999999095,
          "durationTicks": 24,
          "midi": 52,
          "name": "E3",
          "ticks": 8376,
          "time": "8376i",
          "velocity": 0.6771653543307087
        },
        {
          "duration": 0.41666650000001937,
          "durationTicks": 24,
          "midi": 55,
          "name": "G3",
          "ticks": 8400,
          "time": "8400i",
          "velocity": 0.6771653543307087
        },
        {
          "duration": 0.41666649999999095,
          "durationTicks": 24,
          "midi": 57,
          "name": "A3",
          "ticks": 8424,
          "time": "8424i",
          "velocity": 0.6771653543307087
        },
        {
          "duration": 0.41666650000001937,
          "durationTicks": 24,
          "midi": 54,
          "name": "F#3",
          "ticks": 8472,
          "time": "8472i",
          "velocity": 0.6771653543307087
        },
        {
          "duration": 0.41666649999999095,
          "durationTicks": 24,
          "midi": 57,
          "name": "A3",
          "ticks": 8496,
          "time": "8496i",
          "velocity": 0.6771653543307087
        },
        {
          "duration": 0.41666649999999095,
          "durationTicks": 24,
          "midi": 62,
          "name": "D4",
          "ticks": 8520,
          "time": "8520i",
          "velocity": 0.6771653543307087
        },
        {
          "duration": 0.41666649999999095,
          "durationTicks": 24,
          "midi": 52,
          "name": "E3",
          "ticks": 8568,
          "time": "8568i",
          "velocity": 0.6771653543307087
        },
        {
          "duration": 0.8333330000000103,
          "durationTicks": 48,
          "midi": 57,
          "name": "A3",
          "ticks": 8592,
          "time": "8592i",
          "velocity": 0.6771653543307087
        },
        {
          "duration": 0.41666649999999095,
          "durationTicks": 24,
          "midi": 54,
          "name": "F#3",
          "ticks": 8664,
          "time": "8664i",
          "velocity": 0.6771653543307087
        },
        {
          "duration": 0.41666650000001937,
          "durationTicks": 24,
          "midi": 57,
          "name": "A3",
          "ticks": 8688,
          "time": "8688i",
          "velocity": 0.6771653543307087
        },
        {
          "duration": 0.41666649999999095,
          "durationTicks": 24,
          "midi": 62,
          "name": "D4",
          "ticks": 8712,
          "time": "8712i",
          "velocity": 0.6771653543307087
        },
        {
          "duration": 0.41666650000001937,
          "durationTicks": 24,
          "midi": 45,
          "name": "A2",
          "ticks": 8760,
          "time": "8760i",
          "velocity": 0.6771653543307087
        },
        {
          "duration": 0.8333329999999819,
          "durationTicks": 48,
          "midi": 50,
          "name": "D3",
          "ticks": 8784,
          "time": "8784i",
          "velocity": 0.6771653543307087
        },
        {
          "duration": 0.41666650000001937,
          "durationTicks": 24,
          "midi": 50,
          "name": "D3",
          "ticks": 8856,
          "time": "8856i",
          "velocity": 0.6771653543307087
        },
        {
          "duration": 0.8333329999999819,
          "durationTicks": 48,
          "midi": 55,
          "name": "G3",
          "ticks": 8880,
          "time": "8880i",
          "velocity": 0.6771653543307087
        },
        {
          "duration": 0.41666649999999095,
          "durationTicks": 24,
          "midi": 45,
          "name": "A2",
          "ticks": 8952,
          "time": "8952i",
          "velocity": 0.6771653543307087
        },
        {
          "duration": 0.41666649999999095,
          "durationTicks": 24,
          "midi": 50,
          "name": "D3",
          "ticks": 8976,
          "time": "8976i",
          "velocity": 0.6771653543307087
        },
        {
          "duration": 0.41666650000001937,
          "durationTicks": 24,
          "midi": 54,
          "name": "F#3",
          "ticks": 9000,
          "time": "9000i",
          "velocity": 0.6771653543307087
        },
        {
          "duration": 0.8333330000000103,
          "durationTicks": 48,
          "midi": 59,
          "name": "B3",
          "ticks": 9072,
          "time": "9072i",
          "velocity": 0.6771653543307087
        },
        {
          "duration": 0.41666650000001937,
          "durationTicks": 24,
          "midi": 52,
          "name": "E3",
          "ticks": 9144,
          "time": "9144i",
          "velocity": 0.6771653543307087
        },
        {
          "duration": 0.8333329999999819,
          "durationTicks": 48,
          "midi": 61,
          "name": "C#4",
          "ticks": 9168,
          "time": "9168i",
          "velocity": 0.6771653543307087
        },
        {
          "duration": 0.8333329999999819,
          "durationTicks": 48,
          "midi": 74,
          "name": "D5",
          "ticks": 9312,
          "time": "9312i",
          "velocity": 0.6771653543307087
        },
        {
          "duration": 0.8333330000000103,
          "durationTicks": 48,
          "midi": 73,
          "name": "C#5",
          "ticks": 9384,
          "time": "9384i",
          "velocity": 0.6771653543307087
        },
        {
          "duration": 0.41666650000001937,
          "durationTicks": 24,
          "midi": 62,
          "name": "D4",
          "ticks": 9456,
          "time": "9456i",
          "velocity": 0.6771653543307087
        },
        {
          "duration": 0.41666649999999095,
          "durationTicks": 24,
          "midi": 64,
          "name": "E4",
          "ticks": 9504,
          "time": "9504i",
          "velocity": 0.6771653543307087
        },
        {
          "duration": 0.41666650000001937,
          "durationTicks": 24,
          "midi": 62,
          "name": "D4",
          "ticks": 9528,
          "time": "9528i",
          "velocity": 0.6771653543307087
        },
        {
          "duration": 0.41666649999999095,
          "durationTicks": 24,
          "midi": 61,
          "name": "C#4",
          "ticks": 9552,
          "time": "9552i",
          "velocity": 0.6771653543307087
        },
        {
          "duration": 0.8333330000000103,
          "durationTicks": 48,
          "midi": 69,
          "name": "A4",
          "ticks": 9576,
          "time": "9576i",
          "velocity": 0.6771653543307087
        },
        {
          "duration": 0.8333329999999819,
          "durationTicks": 48,
          "midi": 69,
          "name": "A4",
          "ticks": 9624,
          "time": "9624i",
          "velocity": 0.6771653543307087
        },
        {
          "duration": 0.8333330000000103,
          "durationTicks": 48,
          "midi": 67,
          "name": "G4",
          "ticks": 9672,
          "time": "9672i",
          "velocity": 0.6771653543307087
        },
        {
          "duration": 0.41666649999999095,
          "durationTicks": 24,
          "midi": 67,
          "name": "G4",
          "ticks": 9720,
          "time": "9720i",
          "velocity": 0.6771653543307087
        },
        {
          "duration": 0.41666650000001937,
          "durationTicks": 24,
          "midi": 66,
          "name": "F#4",
          "ticks": 9744,
          "time": "9744i",
          "velocity": 0.6771653543307087
        },
        {
          "duration": 0.41666649999999095,
          "durationTicks": 24,
          "midi": 64,
          "name": "E4",
          "ticks": 9768,
          "time": "9768i",
          "velocity": 0.6771653543307087
        },
        {
          "duration": 0.41666649999999095,
          "durationTicks": 24,
          "midi": 66,
          "name": "F#4",
          "ticks": 9792,
          "time": "9792i",
          "velocity": 0.6771653543307087
        },
        {
          "duration": 1.2499995000000013,
          "durationTicks": 72,
          "midi": 66,
          "name": "F#4",
          "ticks": 9816,
          "time": "9816i",
          "velocity": 0.6771653543307087
        },
        {
          "duration": 0.41666649999999095,
          "durationTicks": 24,
          "midi": 64,
          "name": "E4",
          "ticks": 9888,
          "time": "9888i",
          "velocity": 0.6771653543307087
        },
        {
          "duration": 0.8333330000000103,
          "durationTicks": 48,
          "midi": 62,
          "name": "D4",
          "ticks": 9912,
          "time": "9912i",
          "velocity": 0.6771653543307087
        },
        {
          "duration": 0.8333330000000103,
          "durationTicks": 48,
          "midi": 61,
          "name": "C#4",
          "ticks": 9960,
          "time": "9960i",
          "velocity": 0.6771653543307087
        },
        {
          "duration": 0.41666649999999095,
          "durationTicks": 24,
          "midi": 67,
          "name": "G4",
          "ticks": 10176,
          "time": "10176i",
          "velocity": 0.6771653543307087
        },
        {
          "duration": 0.41666649999999095,
          "durationTicks": 24,
          "midi": 76,
          "name": "E5",
          "ticks": 10368,
          "time": "10368i",
          "velocity": 0.6771653543307087
        },
        {
          "duration": 0.41666649999999095,
          "durationTicks": 24,
          "midi": 69,
          "name": "A4",
          "ticks": 10896,
          "time": "10896i",
          "velocity": 0.6771653543307087
        },
        {
          "duration": 0.41666649999999095,
          "durationTicks": 24,
          "midi": 67,
          "name": "G4",
          "ticks": 10920,
          "time": "10920i",
          "velocity": 0.6771653543307087
        },
        {
          "duration": 0.8333330000000103,
          "durationTicks": 48,
          "midi": 66,
          "name": "F#4",
          "ticks": 10944,
          "time": "10944i",
          "velocity": 0.6771653543307087
        },
        {
          "duration": 0.41666649999999095,
          "durationTicks": 24,
          "midi": 66,
          "name": "F#4",
          "ticks": 11088,
          "time": "11088i",
          "velocity": 0.6771653543307087
        },
        {
          "duration": 0.41666650000001937,
          "durationTicks": 24,
          "midi": 64,
          "name": "E4",
          "ticks": 11112,
          "time": "11112i",
          "velocity": 0.6771653543307087
        },
        {
          "duration": 0.8333329999999819,
          "durationTicks": 48,
          "midi": 62,
          "name": "D4",
          "ticks": 11136,
          "time": "11136i",
          "velocity": 0.6771653543307087
        },
        {
          "duration": 0.8333330000000103,
          "durationTicks": 48,
          "midi": 74,
          "name": "D5",
          "ticks": 11184,
          "time": "11184i",
          "velocity": 0.6771653543307087
        },
        {
          "duration": 0.8333330000000103,
          "durationTicks": 48,
          "midi": 74,
          "name": "D5",
          "ticks": 11232,
          "time": "11232i",
          "velocity": 0.6771653543307087
        },
        {
          "duration": 0.8333329999999819,
          "durationTicks": 48,
          "midi": 66,
          "name": "F#4",
          "ticks": 11280,
          "time": "11280i",
          "velocity": 0.6771653543307087
        },
        {
          "duration": 1.6666660000000206,
          "durationTicks": 96,
          "midi": 64,
          "name": "E4",
          "ticks": 11328,
          "time": "11328i",
          "velocity": 0.6771653543307087
        },
        {
          "duration": 0.8333329999999819,
          "durationTicks": 48,
          "midi": 64,
          "name": "E4",
          "ticks": 11424,
          "time": "11424i",
          "velocity": 0.6771653543307087
        },
        {
          "duration": 0.8333330000000103,
          "durationTicks": 48,
          "midi": 69,
          "name": "A4",
          "ticks": 11472,
          "time": "11472i",
          "velocity": 0.6771653543307087
        },
        {
          "duration": 1.6666659999999922,
          "durationTicks": 96,
          "midi": 66,
          "name": "F#4",
          "ticks": 11520,
          "time": "11520i",
          "velocity": 0.6771653543307087
        },
        {
          "duration": 1.6666659999999922,
          "durationTicks": 96,
          "midi": 66,
          "name": "F#4",
          "ticks": 11616,
          "time": "11616i",
          "velocity": 0.6771653543307087
        }
      ]
    },
    {
      "channel": 0,
      "controlChanges": {
        "7": [
          {
            "number": 7,
            "ticks": 0,
            "time": 0,
            "value": 1
          }
        ],
        "10": [
          {
            "number": 10,
            "ticks": 0,
            "time": 0,
            "value": 0
          }
        ]
      },
      "pitchBends": [],
      "instrument": {
        "family": "piano",
        "number": 0,
        "name": "acoustic grand piano"
      },
      "name": "WinJammer Demo",
      "notes": [],
      "endOfTrackTicks": 11616
    },
    {
      "channel": 4,
      "controlChanges": {},
      "pitchBends": [],
      "instrument": {
        "family": "piano",
        "number": 1,
        "name": "bright acoustic piano"
      },
      "name": "",
      "notes": [
        {
          "duration": 0.41666649999999095,
          "durationTicks": 24,
          "midi": 62,
          "name": "D4",
          "ticks": 7392,
          "time": "7392i",
          "velocity": 0.7559055118110236
        },
        {
          "duration": 1.6666660000000206,
          "durationTicks": 96,
          "midi": 73,
          "name": "C#5",
          "ticks": 8544,
          "time": "8544i",
          "velocity": 0.7559055118110236
        },
        {
          "duration": 0.8333330000000103,
          "durationTicks": 48,
          "midi": 71,
          "name": "B4",
          "ticks": 8664,
          "time": "8664i",
          "velocity": 0.7559055118110236
        },
        {
          "duration": 1.6666659999999922,
          "durationTicks": 96,
          "midi": 69,
          "name": "A4",
          "ticks": 8736,
          "time": "8736i",
          "velocity": 0.7559055118110236
        },
        {
          "duration": 0.8333330000000103,
          "durationTicks": 48,
          "midi": 59,
          "name": "B3",
          "ticks": 9072,
          "time": "9072i",
          "velocity": 0.7559055118110236
        },
        {
          "duration": 0.41666649999999095,
          "durationTicks": 24,
          "midi": 57,
          "name": "A3",
          "ticks": 9300,
          "time": "9300i",
          "velocity": 0.7559055118110236
        },
        {
          "duration": 0.41666649999999095,
          "durationTicks": 24,
          "midi": 67,
          "name": "G4",
          "ticks": 9336,
          "time": "9336i",
          "velocity": 0.7559055118110236
        },
        {
          "duration": 0.41666649999999095,
          "durationTicks": 24,
          "midi": 66,
          "name": "F#4",
          "ticks": 9360,
          "time": "9360i",
          "velocity": 0.7559055118110236
        },
        {
          "duration": 0.41666650000001937,
          "durationTicks": 24,
          "midi": 64,
          "name": "E4",
          "ticks": 9384,
          "time": "9384i",
          "velocity": 0.7559055118110236
        },
        {
          "duration": 0.41666649999999095,
          "durationTicks": 24,
          "midi": 60,
          "name": "C4",
          "ticks": 9624,
          "time": "9624i",
          "velocity": 0.7559055118110236
        },
        {
          "duration": 0.41666649999999095,
          "durationTicks": 24,
          "midi": 59,
          "name": "B3",
          "ticks": 9648,
          "time": "9648i",
          "velocity": 0.7559055118110236
        },
        {
          "duration": 0.41666650000001937,
          "durationTicks": 24,
          "midi": 61,
          "name": "C#4",
          "ticks": 9672,
          "time": "9672i",
          "velocity": 0.7559055118110236
        },
        {
          "duration": 1.6666659999999922,
          "durationTicks": 96,
          "midi": 45,
          "name": "A2",
          "ticks": 9888,
          "time": "9888i",
          "velocity": 0.7559055118110236
        },
        {
          "duration": 1.2499995000000013,
          "durationTicks": 72,
          "midi": 69,
          "name": "A4",
          "ticks": 10080,
          "time": "10080i",
          "velocity": 0.7559055118110236
        },
        {
          "duration": 0.8333330000000103,
          "durationTicks": 48,
          "midi": 66,
          "name": "F#4",
          "ticks": 10176,
          "time": "10176i",
          "velocity": 0.7559055118110236
        },
        {
          "duration": 0.8333329999999819,
          "durationTicks": 48,
          "midi": 78,
          "name": "F#5",
          "ticks": 10224,
          "time": "10224i",
          "velocity": 0.7559055118110236
        },
        {
          "duration": 1.2499995000000013,
          "durationTicks": 72,
          "midi": 78,
          "name": "F#5",
          "ticks": 10272,
          "time": "10272i",
          "velocity": 0.7559055118110236
        },
        {
          "duration": 1.6666659999999922,
          "durationTicks": 96,
          "midi": 54,
          "name": "F#3",
          "ticks": 11520,
          "time": "11520i",
          "velocity": 0.7559055118110236
        }
      ]
    },
    {
      "channel": 0,
      "controlChanges": {
        "7": [
          {
            "number": 7,
            "ticks": 0,
            "time": 0,
            "value": 1
          }
        ],
        "10": [
          {
            "number": 10,
            "ticks": 0,
            "time": 0,
            "value": 1
          }
        ]
      },
      "pitchBends": [],
      "instrument": {
        "family": "piano",
        "number": 0,
        "name": "acoustic grand piano"
      },
      "name": "WinJammer Demo",
      "notes": [],
      "endOfTrackTicks": 11616
    },
    {
      "channel": 5,
      "controlChanges": {},
      "pitchBends": [],
      "instrument": {
        "family": "piano",
        "number": 1,
        "name": "bright acoustic piano"
      },
      "name": "",
      "notes": [
        {
          "duration": 0.41666649999999095,
          "durationTicks": 24,
          "midi": 54,
          "name": "F#3",
          "ticks": 7392,
          "time": "7392i",
          "velocity": 0.7559055118110236
        },
        {
          "duration": 1.6666659999999922,
          "durationTicks": 96,
          "midi": 45,
          "name": "A2",
          "ticks": 11520,
          "time": "11520i",
          "velocity": 0.7559055118110236
        }
      ]
    }
  ]
}
