{
  "header": {
    "keySignatures": [
      {
        "key": "G",
        "scale": "major",
        "ticks": 0
      }
    ],
    "meta": [
      {
        "text": "David J. Grossman",
        "ticks": 0,
        "type": "text"
      },
      {
        "text": "soggetto with its retrograde\n",
        "ticks": 0,
        "type": "text"
      },
      {
        "text": "inverted soggetto with its retrograde\n",
        "ticks": 0,
        "type": "text"
      },
      {
        "text": "soggetto with its inversion\n",
        "ticks": 0,
        "type": "text"
      },
      {
        "text": "inverted soggetto with its inversion\n",
        "ticks": 0,
        "type": "text"
      },
      {
        "text": "Canon Duplex a 4\n",
        "ticks": 0,
        "type": "text"
      },
      {
        "text": "Canon simplex uber besagtes Fundament a 3\n",
        "ticks": 0,
        "type": "text"
      },
      {
        "text": "Idem a 3\n",
        "ticks": 0,
        "type": "text"
      },
      {
        "text": "Canon simplex a 3 il soggetto in Alto\n",
        "ticks": 0,
        "type": "text"
      },
      {
        "text": "Canon in unisono post semifusam a 3\n",
        "ticks": 0,
        "type": "text"
      },
      {
        "text": "Alio modo per syncopationes et per ligaturas a 2\n",
        "ticks": 0,
        "type": "text"
      },
      {
        "text": "Canon duplex ubers Fundament a 5\n",
        "ticks": 0,
        "type": "text"
      },
      {
        "text": "Canon duplex uber Fundamental - Noten a 5\n",
        "ticks": 0,
        "type": "text"
      },
      {
        "text": "Triplex Canon ( aka BWV 1076 )\n",
        "ticks": 0,
        "type": "text"
      },
      {
        "text": "Canon a 4 per Augmentationem et Diminutionem\n",
        "ticks": 0,
        "type": "text"
      },
      {
        "text": "1",
        "ticks": 0,
        "type": "marker"
      },
      {
        "text": "2",
        "ticks": 8640,
        "type": "marker"
      },
      {
        "text": "3",
        "ticks": 17280,
        "type": "marker"
      },
      {
        "text": "4",
        "ticks": 29760,
        "type": "marker"
      },
      {
        "text": "5",
        "ticks": 40320,
        "type": "marker"
      },
      {
        "text": "6",
        "ticks": 52800,
        "type": "marker"
      },
      {
        "text": "7",
        "ticks": 65280,
        "type": "marker"
      },
      {
        "text": "8",
        "ticks": 77760,
        "type": "marker"
      },
      {
        "text": "9",
        "ticks": 90240,
        "type": "marker"
      },
      {
        "text": "10",
        "ticks": 102720,
        "type": "marker"
      },
      {
        "text": "11",
        "ticks": 115200,
        "type": "marker"
      },
      {
        "text": "12",
        "ticks": 127680,
        "type": "marker"
      },
      {
        "text": "13",
        "ticks": 148800,
        "type": "marker"
      },
      {
        "text": "14",
        "ticks": 162240,
        "type": "marker"
      }
    ],
    "name": "untitled",
    "ppq": 480,
    "tempos": [
      {
        "bpm": 100,
        "ticks": 0
      }
    ],
    "timeSignatures": [
      {
        "ticks": 0,
        "timeSignature": [
          2,
          4
        ],
        "measures": 0
      },
      {
        "ticks": 127680,
        "timeSignature": [
          4,
          4
        ],
        "measures": 133
      }
    ]
  },
  "tracks": [
    {
      "channel": 0,
      "controlChanges": {
        "7": [
          {
            "number": 7,
            "ticks": 0,
            "time": 0,
            "value": 0.7874015748031497
          }
        ],
        "10": [
          {
            "number": 10,
            "ticks": 0,
            "time": 0,
            "value": 0.6220472440944882
          }
        ]
      },
      "pitchBends": [],
      "instrument": {
        "family": "piano",
        "number": 6,
        "name": "harpsichord"
      },
      "name": "Harpsichord",
      "notes": [
        {
          "duration": 0.14999999999999858,
          "durationTicks": 120,
          "midi": 74,
          "name": "D5",
          "ticks": 42480,
          "time": "42480i",
          "velocity": 0.7874015748031497
        },
        {
          "duration": 0.14999999999999858,
          "durationTicks": 120,
          "midi": 76,
          "name": "E5",
          "ticks": 42600,
          "time": "42600i",
          "velocity": 0.7874015748031497
        },
        {
          "duration": 0.14999999999999858,
          "durationTicks": 120,
          "midi": 74,
          "name": "D5",
          "ticks": 42720,
          "time": "42720i",
          "velocity": 0.7874015748031497
        },
        {
          "duration": 0.14999999999999858,
          "durationTicks": 120,
          "midi": 72,
          "name": "C5",
          "ticks": 42840,
          "time": "42840i",
          "velocity": 0.7874015748031497
        },
        {
          "duration": 0.15000000000000568,
          "durationTicks": 120,
          "midi": 71,
          "name": "B4",
          "ticks": 42960,
          "time": "42960i",
          "velocity": 0.7874015748031497
        },
        {
          "duration": 0.14999999999999858,
          "durationTicks": 120,
          "midi": 69,
          "name": "A4",
          "ticks": 43080,
          "time": "43080i",
          "velocity": 0.7874015748031497
        },
        {
          "duration": 0.14999999999999858,
          "durationTicks": 120,
          "midi": 67,
          "name": "G4",
          "ticks": 43200,
          "time": "43200i",
          "velocity": 0.7874015748031497
        },
        {
          "duration": 0.14999999999999858,
          "durationTicks": 120,
          "midi": 72,
          "name": "C5",
          "ticks": 43320,
          "time": "43320i",
          "velocity": 0.7874015748031497
        },
        {
          "duration": 0.14999999999999858,
          "durationTicks": 120,
          "midi": 76,
          "name": "E5",
          "ticks": 43440,
          "time": "43440i",
          "velocity": 0.7874015748031497
        },
        {
          "duration": 0.15000000000000568,
          "durationTicks": 120,
          "midi": 79,
          "name": "G5",
          "ticks": 43560,
          "time": "43560i",
          "velocity": 0.7874015748031497
        },
        {
          "duration": 0.14999999999999858,
          "durationTicks": 120,
          "midi": 78,
          "name": "F#5",
          "ticks": 43680,
          "time": "43680i",
          "velocity": 0.7874015748031497
        },
        {
          "duration": 0.14999999999999858,
          "durationTicks": 120,
          "midi": 76,
          "name": "E5",
          "ticks": 43800,
          "time": "43800i",
          "velocity": 0.7874015748031497
        },
        {
          "duration": 0.14999999999999858,
          "durationTicks": 120,
          "midi": 74,
          "name": "D5",
          "ticks": 43920,
          "time": "43920i",
          "velocity": 0.7874015748031497
        },
        {
          "duration": 0.14999999999999858,
          "durationTicks": 120,
          "midi": 72,
          "name": "C5",
          "ticks": 44040,
          "time": "44040i",
          "velocity": 0.7874015748031497
        },
        {
          "duration": 0.30000000000000426,
          "durationTicks": 240,
          "midi": 71,
          "name": "B4",
          "ticks": 44160,
          "time": "44160i",
          "velocity": 0.7874015748031497
        },
        {
          "duration": 0.29999999999999716,
          "durationTicks": 240,
          "midi": 76,
          "name": "E5",
          "ticks": 44400,
          "time": "44400i",
          "velocity": 0.7874015748031497
        },
        {
          "duration": 0.75,
          "durationTicks": 600,
          "midi": 74,
          "name": "D5",
          "ticks": 44640,
          "time": "44640i",
          "velocity": 0.7874015748031497
        },
        {
          "duration": 0.07500000000000284,
          "durationTicks": 60,
          "midi": 72,
          "name": "C5",
          "ticks": 45240,
          "time": "45240i",
          "velocity": 0.7874015748031497
        },
        {
          "duration": 0.07499999999999574,
          "durationTicks": 60,
          "midi": 71,
          "name": "B4",
          "ticks": 45300,
          "time": "45300i",
          "velocity": 0.7874015748031497
        },
        {
          "duration": 0.15000000000000568,
          "durationTicks": 120,
          "midi": 69,
          "name": "A4",
          "ticks": 45360,
          "time": "45360i",
          "velocity": 0.7874015748031497
        },
        {
          "duration": 0.14999999999999858,
          "durationTicks": 120,
          "midi": 71,
          "name": "B4",
          "ticks": 45480,
          "time": "45480i",
          "velocity": 0.7874015748031497
        },
        {
          "duration": 0.14999999999999858,
          "durationTicks": 120,
          "midi": 72,
          "name": "C5",
          "ticks": 45600,
          "time": "45600i",
          "velocity": 0.7874015748031497
        },
        {
          "duration": 0.14999999999999858,
          "durationTicks": 120,
          "midi": 74,
          "name": "D5",
          "ticks": 45720,
          "time": "45720i",
          "velocity": 0.7874015748031497
        },
        {
          "duration": 0.14999999999999858,
          "durationTicks": 120,
          "midi": 71,
          "name": "B4",
          "ticks": 45840,
          "time": "45840i",
          "velocity": 0.7874015748031497
        },
        {
          "duration": 0.14999999999999858,
          "durationTicks": 120,
          "midi": 72,
          "name": "C5",
          "ticks": 45960,
          "time": "45960i",
          "velocity": 0.7874015748031497
        },
        {
          "duration": 0.15000000000000568,
          "durationTicks": 120,
          "midi": 74,
          "name": "D5",
          "ticks": 46080,
          "time": "46080i",
          "velocity": 0.7874015748031497
        },
        {
          "duration": 0.14999999999999858,
          "durationTicks": 120,
          "midi": 72,
          "name": "C5",
          "ticks": 46200,
          "time": "46200i",
          "velocity": 0.7874015748031497
        },
        {
          "duration": 0.14999999999999858,
          "durationTicks": 120,
          "midi": 74,
          "name": "D5",
          "ticks": 46320,
          "time": "46320i",
          "velocity": 0.7874015748031497
        },
        {
          "duration": 0.14999999999999858,
          "durationTicks": 120,
          "midi": 76,
          "name": "E5",
          "ticks": 46440,
          "time": "46440i",
          "velocity": 0.7874015748031497
        },
        {
          "duration": 0.14999999999999858,
          "durationTicks": 120,
          "midi": 74,
          "name": "D5",
          "ticks": 46560,
          "time": "46560i",
          "velocity": 0.7874015748031497
        },
        {
          "duration": 0.15000000000000568,
          "durationTicks": 120,
          "midi": 72,
          "name": "C5",
          "ticks": 46680,
          "time": "46680i",
          "velocity": 0.7874015748031497
        },
        {
          "duration": 0.14999999999999858,
          "durationTicks": 120,
          "midi": 71,
          "name": "B4",
          "ticks": 46800,
          "time": "46800i",
          "velocity": 0.7874015748031497
        },
        {
          "duration": 0.14999999999999858,
          "durationTicks": 120,
          "midi": 69,
          "name": "A4",
          "ticks": 46920,
          "time": "46920i",
          "velocity": 0.7874015748031497
        },
        {
          "duration": 0.14999999999999858,
          "durationTicks": 120,
          "midi": 67,
          "name": "G4",
          "ticks": 47040,
          "time": "47040i",
          "velocity": 0.7874015748031497
        },
        {
          "duration": 0.14999999999999858,
          "durationTicks": 120,
          "midi": 72,
          "name": "C5",
          "ticks": 47160,
          "time": "47160i",
          "velocity": 0.7874015748031497
        },
        {
          "duration": 0.15000000000000568,
          "durationTicks": 120,
          "midi": 76,
          "name": "E5",
          "ticks": 47280,
          "time": "47280i",
          "velocity": 0.7874015748031497
        },
        {
          "duration": 0.14999999999999858,
          "durationTicks": 120,
          "midi": 79,
          "name": "G5",
          "ticks": 47400,
          "time": "47400i",
          "velocity": 0.7874015748031497
        },
        {
          "duration": 0.14999999999999858,
          "durationTicks": 120,
          "midi": 78,
          "name": "F#5",
          "ticks": 47520,
          "time": "47520i",
          "velocity": 0.7874015748031497
        },
        {
          "duration": 0.14999999999999858,
          "durationTicks": 120,
          "midi": 76,
          "name": "E5",
          "ticks": 47640,
          "time": "47640i",
          "velocity": 0.7874015748031497
        },
        {
          "duration": 0.14999999999999858,
          "durationTicks": 120,
          "midi": 74,
          "name": "D5",
          "ticks": 47760,
          "time": "47760i",
          "velocity": 0.7874015748031497
        },
        {
          "duration": 0.15000000000000568,
          "durationTicks": 120,
          "midi": 72,
          "name": "C5",
          "ticks": 47880,
          "time": "47880i",
          "velocity": 0.7874015748031497
        },
        {
          "duration": 0.29999999999999716,
          "durationTicks": 240,
          "midi": 71,
          "name": "B4",
          "ticks": 48000,
          "time": "48000i",
          "velocity": 0.7874015748031497
        },
        {
          "duration": 0.29999999999999716,
          "durationTicks": 240,
          "midi": 76,
          "name": "E5",
          "ticks": 48240,
          "time": "48240i",
          "velocity": 0.7874015748031497
        },
        {
          "duration": 0.75,
          "durationTicks": 600,
          "midi": 74,
          "name": "D5",
          "ticks": 48480,
          "time": "48480i",
          "velocity": 0.7874015748031497
        },
        {
          "duration": 0.07500000000000284,
          "durationTicks": 60,
          "midi": 72,
          "name": "C5",
          "ticks": 49080,
          "time": "49080i",
          "velocity": 0.7874015748031497
        },
        {
          "duration": 0.07500000000000284,
          "durationTicks": 60,
          "midi": 71,
          "name": "B4",
          "ticks": 49140,
          "time": "49140i",
          "velocity": 0.7874015748031497
        },
        {
          "duration": 0.14999999999999858,
          "durationTicks": 120,
          "midi": 69,
          "name": "A4",
          "ticks": 49200,
          "time": "49200i",
          "velocity": 0.7874015748031497
        },
        {
          "duration": 0.14999999999999858,
          "durationTicks": 120,
          "midi": 71,
          "name": "B4",
          "ticks": 49320,
          "time": "49320i",
          "velocity": 0.7874015748031497
        },
        {
          "duration": 0.14999999999999858,
          "durationTicks": 120,
          "midi": 72,
          "name": "C5",
          "ticks": 49440,
          "time": "49440i",
          "velocity": 0.7874015748031497
        },
        {
          "duration": 0.14999999999999858,
          "durationTicks": 120,
          "midi": 74,
          "name": "D5",
          "ticks": 49560,
          "time": "49560i",
          "velocity": 0.7874015748031497
        },
        {
          "duration": 0.15000000000000568,
          "durationTicks": 120,
          "midi": 71,
          "name": "B4",
          "ticks": 49680,
          "time": "49680i",
          "velocity": 0.7874015748031497
        },
        {
          "duration": 0.14999999999999858,
          "durationTicks": 120,
          "midi": 72,
          "name": "C5",
          "ticks": 49800,
          "time": "49800i",
          "velocity": 0.7874015748031497
        },
        {
          "duration": 0.14999999999999858,
          "durationTicks": 120,
          "midi": 74,
          "name": "D5",
          "ticks": 49920,
          "time": "49920i",
          "velocity": 0.7874015748031497
        },
        {
          "duration": 0.14999999999999858,
          "durationTicks": 120,
          "midi": 72,
          "name": "C5",
          "ticks": 50040,
          "time": "50040i",
          "velocity": 0.7874015748031497
        },
        {
          "duration": 0.14999999999999858,
          "durationTicks": 120,
          "midi": 74,
          "name": "D5",
          "ticks": 50160,
          "time": "50160i",
          "velocity": 0.7874015748031497
        },
        {
          "duration": 0.15000000000000568,
          "durationTicks": 120,
          "midi": 76,
          "name": "E5",
          "ticks": 50280,
          "time": "50280i",
          "velocity": 0.7874015748031497
        },
        {
          "duration": 0.14999999999999858,
          "durationTicks": 120,
          "midi": 74,
          "name": "D5",
          "ticks": 50400,
          "time": "50400i",
          "velocity": 0.7874015748031497
        },
        {
          "duration": 0.14999999999999858,
          "durationTicks": 120,
          "midi": 72,
          "name": "C5",
          "ticks": 50520,
          "time": "50520i",
          "velocity": 0.7874015748031497
        },
        {
          "duration": 0.14999999999999858,
          "durationTicks": 120,
          "midi": 71,
          "name": "B4",
          "ticks": 50640,
          "time": "50640i",
          "velocity": 0.7874015748031497
        },
        {
          "duration": 0.14999999999999858,
          "durationTicks": 120,
          "midi": 69,
          "name": "A4",
          "ticks": 50760,
          "time": "50760i",
          "velocity": 0.7874015748031497
        },
        {
          "duration": 0.15000000000000568,
          "durationTicks": 120,
          "midi": 67,
          "name": "G4",
          "ticks": 50880,
          "time": "50880i",
          "velocity": 0.7874015748031497
        },
        {
          "duration": 0.14999999999999858,
          "durationTicks": 120,
          "midi": 72,
          "name": "C5",
          "ticks": 51000,
          "time": "51000i",
          "velocity": 0.7874015748031497
        },
        {
          "duration": 0.14999999999999858,
          "durationTicks": 120,
          "midi": 76,
          "name": "E5",
          "ticks": 51120,
          "time": "51120i",
          "velocity": 0.7874015748031497
        },
        {
          "duration": 0.15000000000000568,
          "durationTicks": 120,
          "midi": 79,
          "name": "G5",
          "ticks": 51240,
          "time": "51240i",
          "velocity": 0.7874015748031497
        },
        {
          "duration": 0.14999999999999147,
          "durationTicks": 120,
          "midi": 78,
          "name": "F#5",
          "ticks": 51360,
          "time": "51360i",
          "velocity": 0.7874015748031497
        },
        {
          "duration": 0.15000000000000568,
          "durationTicks": 120,
          "midi": 76,
          "name": "E5",
          "ticks": 51480,
          "time": "51480i",
          "velocity": 0.7874015748031497
        },
        {
          "duration": 0.14999999999999147,
          "durationTicks": 120,
          "midi": 74,
          "name": "D5",
          "ticks": 51600,
          "time": "51600i",
          "velocity": 0.7874015748031497
        },
        {
          "duration": 0.15000000000000568,
          "durationTicks": 120,
          "midi": 72,
          "name": "C5",
          "ticks": 51720,
          "time": "51720i",
          "velocity": 0.7874015748031497
        },
        {
          "duration": 1.2000000000000028,
          "durationTicks": 960,
          "midi": 71,
          "name": "B4",
          "ticks": 51840,
          "time": "51840i",
          "velocity": 0.7874015748031497
        },
        {
          "duration": 0.15000000000000568,
          "durationTicks": 120,
          "midi": 62,
          "name": "D4",
          "ticks": 54840,
          "time": "54840i",
          "velocity": 0.7874015748031497
        },
        {
          "duration": 0.14999999999999147,
          "durationTicks": 120,
          "midi": 64,
          "name": "E4",
          "ticks": 54960,
          "time": "54960i",
          "velocity": 0.7874015748031497
        },
        {
          "duration": 0.15000000000000568,
          "durationTicks": 120,
          "midi": 66,
          "name": "F#4",
          "ticks": 55080,
          "time": "55080i",
          "velocity": 0.7874015748031497
        },
        {
          "duration": 0.29999999999999716,
          "durationTicks": 240,
          "midi": 67,
          "name": "G4",
          "ticks": 55200,
          "time": "55200i",
          "velocity": 0.7874015748031497
        },
        {
          "duration": 0.29999999999999716,
          "durationTicks": 240,
          "midi": 68,
          "name": "G#4",
          "ticks": 55440,
          "time": "55440i",
          "velocity": 0.7874015748031497
        },
        {
          "duration": 0.29999999999999716,
          "durationTicks": 240,
          "midi": 69,
          "name": "A4",
          "ticks": 55680,
          "time": "55680i",
          "velocity": 0.7874015748031497
        },
        {
          "duration": 0.30000000000001137,
          "durationTicks": 240,
          "midi": 64,
          "name": "E4",
          "ticks": 55920,
          "time": "55920i",
          "velocity": 0.7874015748031497
        },
        {
          "duration": 0.29999999999999716,
          "durationTicks": 240,
          "midi": 65,
          "name": "F4",
          "ticks": 56160,
          "time": "56160i",
          "velocity": 0.7874015748031497
        },
        {
          "duration": 0.29999999999999716,
          "durationTicks": 240,
          "midi": 66,
          "name": "F#4",
          "ticks": 56400,
          "time": "56400i",
          "velocity": 0.7874015748031497
        },
        {
          "duration": 0.5999999999999943,
          "durationTicks": 480,
          "midi": 67,
          "name": "G4",
          "ticks": 56640,
          "time": "56640i",
          "velocity": 0.7874015748031497
        },
        {
          "duration": 0.15000000000000568,
          "durationTicks": 120,
          "midi": 64,
          "name": "E4",
          "ticks": 57240,
          "time": "57240i",
          "velocity": 0.7874015748031497
        },
        {
          "duration": 0.14999999999999147,
          "durationTicks": 120,
          "midi": 62,
          "name": "D4",
          "ticks": 57360,
          "time": "57360i",
          "velocity": 0.7874015748031497
        },
        {
          "duration": 0.15000000000000568,
          "durationTicks": 120,
          "midi": 61,
          "name": "C#4",
          "ticks": 57480,
          "time": "57480i",
          "velocity": 0.7874015748031497
        },
        {
          "duration": 0.14999999999999147,
          "durationTicks": 120,
          "midi": 62,
          "name": "D4",
          "ticks": 57600,
          "time": "57600i",
          "velocity": 0.7874015748031497
        },
        {
          "duration": 0.15000000000000568,
          "durationTicks": 120,
          "midi": 66,
          "name": "F#4",
          "ticks": 57720,
          "time": "57720i",
          "velocity": 0.7874015748031497
        },
        {
          "duration": 0.45000000000000284,
          "durationTicks": 360,
          "midi": 69,
          "name": "A4",
          "ticks": 57840,
          "time": "57840i",
          "velocity": 0.7874015748031497
        },
        {
          "duration": 0.07500000000000284,
          "durationTicks": 60,
          "midi": 67,
          "name": "G4",
          "ticks": 58200,
          "time": "58200i",
          "velocity": 0.7874015748031497
        },
        {
          "duration": 0.07499999999998863,
          "durationTicks": 60,
          "midi": 66,
          "name": "F#4",
          "ticks": 58260,
          "time": "58260i",
          "velocity": 0.7874015748031497
        },
        {
          "duration": 0.15000000000000568,
          "durationTicks": 120,
          "midi": 67,
          "name": "G4",
          "ticks": 58320,
          "time": "58320i",
          "velocity": 0.7874015748031497
        },
        {
          "duration": 0.15000000000000568,
          "durationTicks": 120,
          "midi": 69,
          "name": "A4",
          "ticks": 58440,
          "time": "58440i",
          "velocity": 0.7874015748031497
        },
        {
          "duration": 0.14999999999999147,
          "durationTicks": 120,
          "midi": 71,
          "name": "B4",
          "ticks": 58560,
          "time": "58560i",
          "velocity": 0.7874015748031497
        },
        {
          "duration": 0.15000000000000568,
          "durationTicks": 120,
          "midi": 62,
          "name": "D4",
          "ticks": 58680,
          "time": "58680i",
          "velocity": 0.7874015748031497
        },
        {
          "duration": 0.14999999999999147,
          "durationTicks": 120,
          "midi": 64,
          "name": "E4",
          "ticks": 58800,
          "time": "58800i",
          "velocity": 0.7874015748031497
        },
        {
          "duration": 0.15000000000000568,
          "durationTicks": 120,
          "midi": 66,
          "name": "F#4",
          "ticks": 58920,
          "time": "58920i",
          "velocity": 0.7874015748031497
        },
        {
          "duration": 0.29999999999999716,
          "durationTicks": 240,
          "midi": 67,
          "name": "G4",
          "ticks": 59040,
          "time": "59040i",
          "velocity": 0.7874015748031497
        },
        {
          "duration": 0.29999999999999716,
          "durationTicks": 240,
          "midi": 68,
          "name": "G#4",
          "ticks": 59280,
          "time": "59280i",
          "velocity": 0.7874015748031497
        },
        {
          "duration": 0.30000000000001137,
          "durationTicks": 240,
          "midi": 69,
          "name": "A4",
          "ticks": 59520,
          "time": "59520i",
          "velocity": 0.7874015748031497
        },
        {
          "duration": 0.29999999999999716,
          "durationTicks": 240,
          "midi": 64,
          "name": "E4",
          "ticks": 59760,
          "time": "59760i",
          "velocity": 0.7874015748031497
        },
        {
          "duration": 0.29999999999999716,
          "durationTicks": 240,
          "midi": 65,
          "name": "F4",
          "ticks": 60000,
          "time": "60000i",
          "velocity": 0.7874015748031497
        },
        {
          "duration": 0.29999999999999716,
          "durationTicks": 240,
          "midi": 66,
          "name": "F#4",
          "ticks": 60240,
          "time": "60240i",
          "velocity": 0.7874015748031497
        },
        {
          "duration": 0.6000000000000085,
          "durationTicks": 480,
          "midi": 67,
          "name": "G4",
          "ticks": 60480,
          "time": "60480i",
          "velocity": 0.7874015748031497
        },
        {
          "duration": 0.15000000000000568,
          "durationTicks": 120,
          "midi": 64,
          "name": "E4",
          "ticks": 61080,
          "time": "61080i",
          "velocity": 0.7874015748031497
        },
        {
          "duration": 0.14999999999999147,
          "durationTicks": 120,
          "midi": 62,
          "name": "D4",
          "ticks": 61200,
          "time": "61200i",
          "velocity": 0.7874015748031497
        },
        {
          "duration": 0.15000000000000568,
          "durationTicks": 120,
          "midi": 61,
          "name": "C#4",
          "ticks": 61320,
          "time": "61320i",
          "velocity": 0.7874015748031497
        },
        {
          "duration": 0.15000000000000568,
          "durationTicks": 120,
          "midi": 62,
          "name": "D4",
          "ticks": 61440,
          "time": "61440i",
          "velocity": 0.7874015748031497
        },
        {
          "duration": 0.14999999999999147,
          "durationTicks": 120,
          "midi": 66,
          "name": "F#4",
          "ticks": 61560,
          "time": "61560i",
          "velocity": 0.7874015748031497
        },
        {
          "duration": 0.45000000000000284,
          "durationTicks": 360,
          "midi": 69,
          "name": "A4",
          "ticks": 61680,
          "time": "61680i",
          "velocity": 0.7874015748031497
        },
        {
          "duration": 0.07500000000000284,
          "durationTicks": 60,
          "midi": 67,
          "name": "G4",
          "ticks": 62040,
          "time": "62040i",
          "velocity": 0.7874015748031497
        },
        {
          "duration": 0.07500000000000284,
          "durationTicks": 60,
          "midi": 66,
          "name": "F#4",
          "ticks": 62100,
          "time": "62100i",
          "velocity": 0.7874015748031497
        },
        {
          "duration": 0.14999999999999147,
          "durationTicks": 120,
          "midi": 67,
          "name": "G4",
          "ticks": 62160,
          "time": "62160i",
          "velocity": 0.7874015748031497
        },
        {
          "duration": 0.15000000000000568,
          "durationTicks": 120,
          "midi": 69,
          "name": "A4",
          "ticks": 62280,
          "time": "62280i",
          "velocity": 0.7874015748031497
        },
        {
          "duration": 0.14999999999999147,
          "durationTicks": 120,
          "midi": 71,
          "name": "B4",
          "ticks": 62400,
          "time": "62400i",
          "velocity": 0.7874015748031497
        },
        {
          "duration": 0.15000000000000568,
          "durationTicks": 120,
          "midi": 62,
          "name": "D4",
          "ticks": 62520,
          "time": "62520i",
          "velocity": 0.7874015748031497
        },
        {
          "duration": 0.15000000000000568,
          "durationTicks": 120,
          "midi": 64,
          "name": "E4",
          "ticks": 62640,
          "time": "62640i",
          "velocity": 0.7874015748031497
        },
        {
          "duration": 0.14999999999999147,
          "durationTicks": 120,
          "midi": 66,
          "name": "F#4",
          "ticks": 62760,
          "time": "62760i",
          "velocity": 0.7874015748031497
        },
        {
          "duration": 0.29999999999999716,
          "durationTicks": 240,
          "midi": 67,
          "name": "G4",
          "ticks": 62880,
          "time": "62880i",
          "velocity": 0.7874015748031497
        },
        {
          "duration": 0.30000000000001137,
          "durationTicks": 240,
          "midi": 68,
          "name": "G#4",
          "ticks": 63120,
          "time": "63120i",
          "velocity": 0.7874015748031497
        },
        {
          "duration": 0.29999999999999716,
          "durationTicks": 240,
          "midi": 69,
          "name": "A4",
          "ticks": 63360,
          "time": "63360i",
          "velocity": 0.7874015748031497
        },
        {
          "duration": 0.29999999999999716,
          "durationTicks": 240,
          "midi": 64,
          "name": "E4",
          "ticks": 63600,
          "time": "63600i",
          "velocity": 0.7874015748031497
        },
        {
          "duration": 0.29999999999999716,
          "durationTicks": 240,
          "midi": 65,
          "name": "F4",
          "ticks": 63840,
          "time": "63840i",
          "velocity": 0.7874015748031497
        },
        {
          "duration": 0.29999999999999716,
          "durationTicks": 240,
          "midi": 66,
          "name": "F#4",
          "ticks": 64080,
          "time": "64080i",
          "velocity": 0.7874015748031497
        },
        {
          "duration": 1.2000000000000028,
          "durationTicks": 960,
          "midi": 67,
          "name": "G4",
          "ticks": 64320,
          "time": "64320i",
          "velocity": 0.7874015748031497
        },
        {
          "duration": 0.15000000000000568,
          "durationTicks": 120,
          "midi": 67,
          "name": "G4",
          "ticks": 65880,
          "time": "65880i",
          "velocity": 0.7874015748031497
        },
        {
          "duration": 0.14999999999999147,
          "durationTicks": 120,
          "midi": 66,
          "name": "F#4",
          "ticks": 66000,
          "time": "66000i",
          "velocity": 0.7874015748031497
        },
        {
          "duration": 0.15000000000000568,
          "durationTicks": 120,
          "midi": 64,
          "name": "E4",
          "ticks": 66120,
          "time": "66120i",
          "velocity": 0.7874015748031497
        },
        {
          "duration": 0.15000000000000568,
          "durationTicks": 120,
          "midi": 62,
          "name": "D4",
          "ticks": 66240,
          "time": "66240i",
          "velocity": 0.7874015748031497
        },
        {
          "duration": 0.14999999999999147,
          "durationTicks": 120,
          "midi": 59,
          "name": "B3",
          "ticks": 66360,
          "time": "66360i",
          "velocity": 0.7874015748031497
        },
        {
          "duration": 0.15000000000000568,
          "durationTicks": 120,
          "midi": 60,
          "name": "C4",
          "ticks": 66480,
          "time": "66480i",
          "velocity": 0.7874015748031497
        },
        {
          "duration": 0.14999999999999147,
          "durationTicks": 120,
          "midi": 62,
          "name": "D4",
          "ticks": 66600,
          "time": "66600i",
          "velocity": 0.7874015748031497
        },
        {
          "duration": 0.75,
          "durationTicks": 600,
          "midi": 55,
          "name": "G3",
          "ticks": 66720,
          "time": "66720i",
          "velocity": 0.7874015748031497
        },
        {
          "duration": 0.15000000000000568,
          "durationTicks": 120,
          "midi": 54,
          "name": "F#3",
          "ticks": 67320,
          "time": "67320i",
          "velocity": 0.7874015748031497
        },
        {
          "duration": 0.15000000000000568,
          "durationTicks": 120,
          "midi": 55,
          "name": "G3",
          "ticks": 67440,
          "time": "67440i",
          "velocity": 0.7874015748031497
        },
        {
          "duration": 0.14999999999999147,
          "durationTicks": 120,
          "midi": 57,
          "name": "A3",
          "ticks": 67560,
          "time": "67560i",
          "velocity": 0.7874015748031497
        },
        {
          "duration": 0.75,
          "durationTicks": 600,
          "midi": 55,
          "name": "G3",
          "ticks": 67680,
          "time": "67680i",
          "velocity": 0.7874015748031497
        },
        {
          "duration": 0.15000000000000568,
          "durationTicks": 120,
          "midi": 71,
          "name": "B4",
          "ticks": 68280,
          "time": "68280i",
          "velocity": 0.7874015748031497
        },
        {
          "duration": 0.14999999999999147,
          "durationTicks": 120,
          "midi": 69,
          "name": "A4",
          "ticks": 68400,
          "time": "68400i",
          "velocity": 0.7874015748031497
        },
        {
          "duration": 0.15000000000000568,
          "durationTicks": 120,
          "midi": 67,
          "name": "G4",
          "ticks": 68520,
          "time": "68520i",
          "velocity": 0.7874015748031497
        },
        {
          "duration": 0.15000000000000568,
          "durationTicks": 120,
          "midi": 66,
          "name": "F#4",
          "ticks": 68640,
          "time": "68640i",
          "velocity": 0.7874015748031497
        },
        {
          "duration": 0.14999999999999147,
          "durationTicks": 120,
          "midi": 62,
          "name": "D4",
          "ticks": 68760,
          "time": "68760i",
          "velocity": 0.7874015748031497
        },
        {
          "duration": 0.15000000000000568,
          "durationTicks": 120,
          "midi": 64,
          "name": "E4",
          "ticks": 68880,
          "time": "68880i",
          "velocity": 0.7874015748031497
        },
        {
          "duration": 0.14999999999999147,
          "durationTicks": 120,
          "midi": 66,
          "name": "F#4",
          "ticks": 69000,
          "time": "69000i",
          "velocity": 0.7874015748031497
        },
        {
          "duration": 0.30000000000001137,
          "durationTicks": 240,
          "midi": 59,
          "name": "B3",
          "ticks": 69120,
          "time": "69120i",
          "velocity": 0.7874015748031497
        },
        {
          "duration": 0.29999999999999716,
          "durationTicks": 240,
          "midi": 60,
          "name": "C4",
          "ticks": 69360,
          "time": "69360i",
          "velocity": 0.7874015748031497
        },
        {
          "duration": 0.14999999999999147,
          "durationTicks": 120,
          "midi": 62,
          "name": "D4",
          "ticks": 69600,
          "time": "69600i",
          "velocity": 0.7874015748031497
        },
        {
          "duration": 0.15000000000000568,
          "durationTicks": 120,
          "midi": 67,
          "name": "G4",
          "ticks": 69720,
          "time": "69720i",
          "velocity": 0.7874015748031497
        },
        {
          "duration": 0.15000000000000568,
          "durationTicks": 120,
          "midi": 66,
          "name": "F#4",
          "ticks": 69840,
          "time": "69840i",
          "velocity": 0.7874015748031497
        },
        {
          "duration": 0.14999999999999147,
          "durationTicks": 120,
          "midi": 64,
          "name": "E4",
          "ticks": 69960,
          "time": "69960i",
          "velocity": 0.7874015748031497
        },
        {
          "duration": 0.15000000000000568,
          "durationTicks": 120,
          "midi": 62,
          "name": "D4",
          "ticks": 70080,
          "time": "70080i",
          "velocity": 0.7874015748031497
        },
        {
          "duration": 0.14999999999999147,
          "durationTicks": 120,
          "midi": 59,
          "name": "B3",
          "ticks": 70200,
          "time": "70200i",
          "velocity": 0.7874015748031497
        },
        {
          "duration": 0.15000000000000568,
          "durationTicks": 120,
          "midi": 60,
          "name": "C4",
          "ticks": 70320,
          "time": "70320i",
          "velocity": 0.7874015748031497
        },
        {
          "duration": 0.15000000000000568,
          "durationTicks": 120,
          "midi": 62,
          "name": "D4",
          "ticks": 70440,
          "time": "70440i",
          "velocity": 0.7874015748031497
        },
        {
          "duration": 0.75,
          "durationTicks": 600,
          "midi": 55,
          "name": "G3",
          "ticks": 70560,
          "time": "70560i",
          "velocity": 0.7874015748031497
        },
        {
          "duration": 0.14999999999999147,
          "durationTicks": 120,
          "midi": 54,
          "name": "F#3",
          "ticks": 71160,
          "time": "71160i",
          "velocity": 0.7874015748031497
        },
        {
          "duration": 0.15000000000000568,
          "durationTicks": 120,
          "midi": 55,
          "name": "G3",
          "ticks": 71280,
          "time": "71280i",
          "velocity": 0.7874015748031497
        },
        {
          "duration": 0.14999999999999147,
          "durationTicks": 120,
          "midi": 57,
          "name": "A3",
          "ticks": 71400,
          "time": "71400i",
          "velocity": 0.7874015748031497
        },
        {
          "duration": 0.75,
          "durationTicks": 600,
          "midi": 55,
          "name": "G3",
          "ticks": 71520,
          "time": "71520i",
          "velocity": 0.7874015748031497
        },
        {
          "duration": 0.15000000000000568,
          "durationTicks": 120,
          "midi": 71,
          "name": "B4",
          "ticks": 72120,
          "time": "72120i",
          "velocity": 0.7874015748031497
        },
        {
          "duration": 0.15000000000000568,
          "durationTicks": 120,
          "midi": 69,
          "name": "A4",
          "ticks": 72240,
          "time": "72240i",
          "velocity": 0.7874015748031497
        },
        {
          "duration": 0.14999999999999147,
          "durationTicks": 120,
          "midi": 67,
          "name": "G4",
          "ticks": 72360,
          "time": "72360i",
          "velocity": 0.7874015748031497
        },
        {
          "duration": 0.15000000000000568,
          "durationTicks": 120,
          "midi": 66,
          "name": "F#4",
          "ticks": 72480,
          "time": "72480i",
          "velocity": 0.7874015748031497
        },
        {
          "duration": 0.14999999999999147,
          "durationTicks": 120,
          "midi": 62,
          "name": "D4",
          "ticks": 72600,
          "time": "72600i",
          "velocity": 0.7874015748031497
        },
        {
          "duration": 0.15000000000000568,
          "durationTicks": 120,
          "midi": 64,
          "name": "E4",
          "ticks": 72720,
          "time": "72720i",
          "velocity": 0.7874015748031497
        },
        {
          "duration": 0.15000000000000568,
          "durationTicks": 120,
          "midi": 66,
          "name": "F#4",
          "ticks": 72840,
          "time": "72840i",
          "velocity": 0.7874015748031497
        },
        {
          "duration": 0.29999999999999716,
          "durationTicks": 240,
          "midi": 59,
          "name": "B3",
          "ticks": 72960,
          "time": "72960i",
          "velocity": 0.7874015748031497
        },
        {
          "duration": 0.29999999999999716,
          "durationTicks": 240,
          "midi": 60,
          "name": "C4",
          "ticks": 73200,
          "time": "73200i",
          "velocity": 0.7874015748031497
        },
        {
          "duration": 0.15000000000000568,
          "durationTicks": 120,
          "midi": 62,
          "name": "D4",
          "ticks": 73440,
          "time": "73440i",
          "velocity": 0.7874015748031497
        },
        {
          "duration": 0.14999999999999147,
          "durationTicks": 120,
          "midi": 67,
          "name": "G4",
          "ticks": 73560,
          "time": "73560i",
          "velocity": 0.7874015748031497
        },
        {
          "duration": 0.15000000000000568,
          "durationTicks": 120,
          "midi": 66,
          "name": "F#4",
          "ticks": 73680,
          "time": "73680i",
          "velocity": 0.7874015748031497
        },
        {
          "duration": 0.14999999999999147,
          "durationTicks": 120,
          "midi": 64,
          "name": "E4",
          "ticks": 73800,
          "time": "73800i",
          "velocity": 0.7874015748031497
        },
        {
          "duration": 0.75,
          "durationTicks": 600,
          "midi": 74,
          "name": "D5",
          "ticks": 73920,
          "time": "73920i",
          "velocity": 0.7874015748031497
        },
        {
          "duration": 0.15000000000000568,
          "durationTicks": 120,
          "midi": 76,
          "name": "E5",
          "ticks": 74520,
          "time": "74520i",
          "velocity": 0.7874015748031497
        },
        {
          "duration": 0.15000000000000568,
          "durationTicks": 120,
          "midi": 74,
          "name": "D5",
          "ticks": 74640,
          "time": "74640i",
          "velocity": 0.7874015748031497
        },
        {
          "duration": 0.14999999999999147,
          "durationTicks": 120,
          "midi": 73,
          "name": "C#5",
          "ticks": 74760,
          "time": "74760i",
          "velocity": 0.7874015748031497
        },
        {
          "duration": 0.75,
          "durationTicks": 600,
          "midi": 74,
          "name": "D5",
          "ticks": 74880,
          "time": "74880i",
          "velocity": 0.7874015748031497
        },
        {
          "duration": 0.15000000000000568,
          "durationTicks": 120,
          "midi": 59,
          "name": "B3",
          "ticks": 75480,
          "time": "75480i",
          "velocity": 0.7874015748031497
        },
        {
          "duration": 0.14999999999999147,
          "durationTicks": 120,
          "midi": 60,
          "name": "C4",
          "ticks": 75600,
          "time": "75600i",
          "velocity": 0.7874015748031497
        },
        {
          "duration": 0.15000000000000568,
          "durationTicks": 120,
          "midi": 62,
          "name": "D4",
          "ticks": 75720,
          "time": "75720i",
          "velocity": 0.7874015748031497
        },
        {
          "duration": 0.15000000000000568,
          "durationTicks": 120,
          "midi": 64,
          "name": "E4",
          "ticks": 75840,
          "time": "75840i",
          "velocity": 0.7874015748031497
        },
        {
          "duration": 0.14999999999999147,
          "durationTicks": 120,
          "midi": 67,
          "name": "G4",
          "ticks": 75960,
          "time": "75960i",
          "velocity": 0.7874015748031497
        },
        {
          "duration": 0.15000000000000568,
          "durationTicks": 120,
          "midi": 66,
          "name": "F#4",
          "ticks": 76080,
          "time": "76080i",
          "velocity": 0.7874015748031497
        },
        {
          "duration": 0.14999999999999147,
          "durationTicks": 120,
          "midi": 64,
          "name": "E4",
          "ticks": 76200,
          "time": "76200i",
          "velocity": 0.7874015748031497
        },
        {
          "duration": 0.30000000000001137,
          "durationTicks": 240,
          "midi": 71,
          "name": "B4",
          "ticks": 76320,
          "time": "76320i",
          "velocity": 0.7874015748031497
        },
        {
          "duration": 0.29999999999999716,
          "durationTicks": 240,
          "midi": 69,
          "name": "A4",
          "ticks": 76560,
          "time": "76560i",
          "velocity": 0.7874015748031497
        },
        {
          "duration": 1.2000000000000028,
          "durationTicks": 960,
          "midi": 67,
          "name": "G4",
          "ticks": 76800,
          "time": "76800i",
          "velocity": 0.7874015748031497
        },
        {
          "duration": 0.15000000000000568,
          "durationTicks": 120,
          "midi": 62,
          "name": "D4",
          "ticks": 79920,
          "time": "79920i",
          "velocity": 0.7874015748031497
        },
        {
          "duration": 0.15000000000000568,
          "durationTicks": 120,
          "midi": 64,
          "name": "E4",
          "ticks": 80040,
          "time": "80040i",
          "velocity": 0.7874015748031497
        },
        {
          "duration": 0.29999999999999716,
          "durationTicks": 240,
          "midi": 66,
          "name": "F#4",
          "ticks": 80160,
          "time": "80160i",
          "velocity": 0.7874015748031497
        },
        {
          "duration": 0.29999999999999716,
          "durationTicks": 240,
          "midi": 68,
          "name": "G#4",
          "ticks": 80400,
          "time": "80400i",
          "velocity": 0.7874015748031497
        },
        {
          "duration": 0.29999999999999716,
          "durationTicks": 240,
          "midi": 69,
          "name": "A4",
          "ticks": 80640,
          "time": "80640i",
          "velocity": 0.7874015748031497
        },
        {
          "duration": 0.29999999999999716,
          "durationTicks": 240,
          "midi": 72,
          "name": "C5",
          "ticks": 80880,
          "time": "80880i",
          "velocity": 0.7874015748031497
        },
        {
          "duration": 0.30000000000001137,
          "durationTicks": 240,
          "midi": 71,
          "name": "B4",
          "ticks": 81120,
          "time": "81120i",
          "velocity": 0.7874015748031497
        },
        {
          "duration": 0.29999999999999716,
          "durationTicks": 240,
          "midi": 69,
          "name": "A4",
          "ticks": 81360,
          "time": "81360i",
          "velocity": 0.7874015748031497
        },
        {
          "duration": 0.5999999999999943,
          "durationTicks": 480,
          "midi": 76,
          "name": "E5",
          "ticks": 81600,
          "time": "81600i",
          "velocity": 0.7874015748031497
        },
        {
          "duration": 0.30000000000001137,
          "durationTicks": 240,
          "midi": 74,
          "name": "D5",
          "ticks": 82320,
          "time": "82320i",
          "velocity": 0.7874015748031497
        },
        {
          "duration": 0.29999999999999716,
          "durationTicks": 240,
          "midi": 81,
          "name": "A5",
          "ticks": 82560,
          "time": "82560i",
          "velocity": 0.7874015748031497
        },
        {
          "duration": 0.29999999999999716,
          "durationTicks": 240,
          "midi": 69,
          "name": "A4",
          "ticks": 82800,
          "time": "82800i",
          "velocity": 0.7874015748031497
        },
        {
          "duration": 0.29999999999999716,
          "durationTicks": 240,
          "midi": 71,
          "name": "B4",
          "ticks": 83040,
          "time": "83040i",
          "velocity": 0.7874015748031497
        },
        {
          "duration": 0.29999999999999716,
          "durationTicks": 240,
          "midi": 73,
          "name": "C#5",
          "ticks": 83280,
          "time": "83280i",
          "velocity": 0.7874015748031497
        },
        {
          "duration": 0.30000000000001137,
          "durationTicks": 240,
          "midi": 74,
          "name": "D5",
          "ticks": 83520,
          "time": "83520i",
          "velocity": 0.7874015748031497
        },
        {
          "duration": 0.14999999999999147,
          "durationTicks": 120,
          "midi": 62,
          "name": "D4",
          "ticks": 83760,
          "time": "83760i",
          "velocity": 0.7874015748031497
        },
        {
          "duration": 0.15000000000000568,
          "durationTicks": 120,
          "midi": 64,
          "name": "E4",
          "ticks": 83880,
          "time": "83880i",
          "velocity": 0.7874015748031497
        },
        {
          "duration": 0.29999999999999716,
          "durationTicks": 240,
          "midi": 66,
          "name": "F#4",
          "ticks": 84000,
          "time": "84000i",
          "velocity": 0.7874015748031497
        },
        {
          "duration": 0.29999999999999716,
          "durationTicks": 240,
          "midi": 68,
          "name": "G#4",
          "ticks": 84240,
          "time": "84240i",
          "velocity": 0.7874015748031497
        },
        {
          "duration": 0.29999999999999716,
          "durationTicks": 240,
          "midi": 69,
          "name": "A4",
          "ticks": 84480,
          "time": "84480i",
          "velocity": 0.7874015748031497
        },
        {
          "duration": 0.30000000000001137,
          "durationTicks": 240,
          "midi": 72,
          "name": "C5",
          "ticks": 84720,
          "time": "84720i",
          "velocity": 0.7874015748031497
        },
        {
          "duration": 0.29999999999999716,
          "durationTicks": 240,
          "midi": 71,
          "name": "B4",
          "ticks": 84960,
          "time": "84960i",
          "velocity": 0.7874015748031497
        },
        {
          "duration": 0.29999999999999716,
          "durationTicks": 240,
          "midi": 69,
          "name": "A4",
          "ticks": 85200,
          "time": "85200i",
          "velocity": 0.7874015748031497
        },
        {
          "duration": 0.5999999999999943,
          "durationTicks": 480,
          "midi": 76,
          "name": "E5",
          "ticks": 85440,
          "time": "85440i",
          "velocity": 0.7874015748031497
        },
        {
          "duration": 0.29999999999999716,
          "durationTicks": 240,
          "midi": 74,
          "name": "D5",
          "ticks": 86160,
          "time": "86160i",
          "velocity": 0.7874015748031497
        },
        {
          "duration": 0.29999999999999716,
          "durationTicks": 240,
          "midi": 81,
          "name": "A5",
          "ticks": 86400,
          "time": "86400i",
          "velocity": 0.7874015748031497
        },
        {
          "duration": 0.29999999999999716,
          "durationTicks": 240,
          "midi": 69,
          "name": "A4",
          "ticks": 86640,
          "time": "86640i",
          "velocity": 0.7874015748031497
        },
        {
          "duration": 0.29999999999999716,
          "durationTicks": 240,
          "midi": 71,
          "name": "B4",
          "ticks": 86880,
          "time": "86880i",
          "velocity": 0.7874015748031497
        },
        {
          "duration": 0.30000000000001137,
          "durationTicks": 240,
          "midi": 73,
          "name": "C#5",
          "ticks": 87120,
          "time": "87120i",
          "velocity": 0.7874015748031497
        },
        {
          "duration": 0.29999999999999716,
          "durationTicks": 240,
          "midi": 74,
          "name": "D5",
          "ticks": 87360,
          "time": "87360i",
          "velocity": 0.7874015748031497
        },
        {
          "duration": 0.14999999999999147,
          "durationTicks": 120,
          "midi": 62,
          "name": "D4",
          "ticks": 87600,
          "time": "87600i",
          "velocity": 0.7874015748031497
        },
        {
          "duration": 0.15000000000000568,
          "durationTicks": 120,
          "midi": 64,
          "name": "E4",
          "ticks": 87720,
          "time": "87720i",
          "velocity": 0.7874015748031497
        },
        {
          "duration": 0.29999999999999716,
          "durationTicks": 240,
          "midi": 66,
          "name": "F#4",
          "ticks": 87840,
          "time": "87840i",
          "velocity": 0.7874015748031497
        },
        {
          "duration": 0.29999999999999716,
          "durationTicks": 240,
          "midi": 68,
          "name": "G#4",
          "ticks": 88080,
          "time": "88080i",
          "velocity": 0.7874015748031497
        },
        {
          "duration": 0.30000000000001137,
          "durationTicks": 240,
          "midi": 69,
          "name": "A4",
          "ticks": 88320,
          "time": "88320i",
          "velocity": 0.7874015748031497
        },
        {
          "duration": 0.29999999999999716,
          "durationTicks": 240,
          "midi": 72,
          "name": "C5",
          "ticks": 88560,
          "time": "88560i",
          "velocity": 0.7874015748031497
        },
        {
          "duration": 0.29999999999999716,
          "durationTicks": 240,
          "midi": 71,
          "name": "B4",
          "ticks": 88800,
          "time": "88800i",
          "velocity": 0.7874015748031497
        },
        {
          "duration": 0.29999999999999716,
          "durationTicks": 240,
          "midi": 69,
          "name": "A4",
          "ticks": 89040,
          "time": "89040i",
          "velocity": 0.7874015748031497
        },
        {
          "duration": 1.2000000000000028,
          "durationTicks": 960,
          "midi": 76,
          "name": "E5",
          "ticks": 89280,
          "time": "89280i",
          "velocity": 0.7874015748031497
        },
        {
          "duration": 0.14999999999999147,
          "durationTicks": 120,
          "midi": 67,
          "name": "G4",
          "ticks": 90360,
          "time": "90360i",
          "velocity": 0.7874015748031497
        },
        {
          "duration": 0.15000000000000568,
          "durationTicks": 120,
          "midi": 71,
          "name": "B4",
          "ticks": 90480,
          "time": "90480i",
          "velocity": 0.7874015748031497
        },
        {
          "duration": 0.14999999999999147,
          "durationTicks": 120,
          "midi": 74,
          "name": "D5",
          "ticks": 90600,
          "time": "90600i",
          "velocity": 0.7874015748031497
        },
        {
          "duration": 0.15000000000000568,
          "durationTicks": 120,
          "midi": 79,
          "name": "G5",
          "ticks": 90720,
          "time": "90720i",
          "velocity": 0.7874015748031497
        },
        {
          "duration": 0.15000000000000568,
          "durationTicks": 120,
          "midi": 74,
          "name": "D5",
          "ticks": 90840,
          "time": "90840i",
          "velocity": 0.7874015748031497
        },
        {
          "duration": 0.14999999999999147,
          "durationTicks": 120,
          "midi": 71,
          "name": "B4",
          "ticks": 90960,
          "time": "90960i",
          "velocity": 0.7874015748031497
        },
        {
          "duration": 0.15000000000000568,
          "durationTicks": 120,
          "midi": 67,
          "name": "G4",
          "ticks": 91080,
          "time": "91080i",
          "velocity": 0.7874015748031497
        },
        {
          "duration": 0.14999999999999147,
          "durationTicks": 120,
          "midi": 74,
          "name": "D5",
          "ticks": 91200,
          "time": "91200i",
          "velocity": 0.7874015748031497
        },
        {
          "duration": 0.15000000000000568,
          "durationTicks": 120,
          "midi": 62,
          "name": "D4",
          "ticks": 91320,
          "time": "91320i",
          "velocity": 0.7874015748031497
        },
        {
          "duration": 0.15000000000000568,
          "durationTicks": 120,
          "midi": 67,
          "name": "G4",
          "ticks": 91440,
          "time": "91440i",
          "velocity": 0.7874015748031497
        },
        {
          "duration": 0.14999999999999147,
          "durationTicks": 120,
          "midi": 71,
          "name": "B4",
          "ticks": 91560,
          "time": "91560i",
          "velocity": 0.7874015748031497
        },
        {
          "duration": 0.15000000000000568,
          "durationTicks": 120,
          "midi": 61,
          "name": "C#4",
          "ticks": 91680,
          "time": "91680i",
          "velocity": 0.7874015748031497
        },
        {
          "duration": 0.14999999999999147,
          "durationTicks": 120,
          "midi": 64,
          "name": "E4",
          "ticks": 91800,
          "time": "91800i",
          "velocity": 0.7874015748031497
        },
        {
          "duration": 0.15000000000000568,
          "durationTicks": 120,
          "midi": 67,
          "name": "G4",
          "ticks": 91920,
          "time": "91920i",
          "velocity": 0.7874015748031497
        },
        {
          "duration": 0.14999999999999147,
          "durationTicks": 120,
          "midi": 73,
          "name": "C#5",
          "ticks": 92040,
          "time": "92040i",
          "velocity": 0.7874015748031497
        },
        {
          "duration": 0.15000000000000568,
          "durationTicks": 120,
          "midi": 74,
          "name": "D5",
          "ticks": 92280,
          "time": "92280i",
          "velocity": 0.7874015748031497
        },
        {
          "duration": 0.14999999999999147,
          "durationTicks": 120,
          "midi": 69,
          "name": "A4",
          "ticks": 92400,
          "time": "92400i",
          "velocity": 0.7874015748031497
        },
        {
          "duration": 0.15000000000000568,
          "durationTicks": 120,
          "midi": 66,
          "name": "F#4",
          "ticks": 92520,
          "time": "92520i",
          "velocity": 0.7874015748031497
        },
        {
          "duration": 0.14999999999999147,
          "durationTicks": 120,
          "midi": 62,
          "name": "D4",
          "ticks": 92640,
          "time": "92640i",
          "velocity": 0.7874015748031497
        },
        {
          "duration": 0.15000000000000568,
          "durationTicks": 120,
          "midi": 67,
          "name": "G4",
          "ticks": 92760,
          "time": "92760i",
          "velocity": 0.7874015748031497
        },
        {
          "duration": 0.15000000000000568,
          "durationTicks": 120,
          "midi": 71,
          "name": "B4",
          "ticks": 92880,
          "time": "92880i",
          "velocity": 0.7874015748031497
        },
        {
          "duration": 0.14999999999999147,
          "durationTicks": 120,
          "midi": 74,
          "name": "D5",
          "ticks": 93000,
          "time": "93000i",
          "velocity": 0.7874015748031497
        },
        {
          "duration": 0.15000000000000568,
          "durationTicks": 120,
          "midi": 67,
          "name": "G4",
          "ticks": 93120,
          "time": "93120i",
          "velocity": 0.7874015748031497
        },
        {
          "duration": 0.14999999999999147,
          "durationTicks": 120,
          "midi": 74,
          "name": "D5",
          "ticks": 93240,
          "time": "93240i",
          "velocity": 0.7874015748031497
        },
        {
          "duration": 0.15000000000000568,
          "durationTicks": 120,
          "midi": 72,
          "name": "C5",
          "ticks": 93360,
          "time": "93360i",
          "velocity": 0.7874015748031497
        },
        {
          "duration": 0.15000000000000568,
          "durationTicks": 120,
          "midi": 69,
          "name": "A4",
          "ticks": 93480,
          "time": "93480i",
          "velocity": 0.7874015748031497
        },
        {
          "duration": 0.14999999999999147,
          "durationTicks": 120,
          "midi": 71,
          "name": "B4",
          "ticks": 93600,
          "time": "93600i",
          "velocity": 0.7874015748031497
        },
        {
          "duration": 0.15000000000000568,
          "durationTicks": 120,
          "midi": 66,
          "name": "F#4",
          "ticks": 93720,
          "time": "93720i",
          "velocity": 0.7874015748031497
        },
        {
          "duration": 0.14999999999999147,
          "durationTicks": 120,
          "midi": 69,
          "name": "A4",
          "ticks": 93840,
          "time": "93840i",
          "velocity": 0.7874015748031497
        },
        {
          "duration": 0.07500000000000284,
          "durationTicks": 60,
          "midi": 74,
          "name": "D5",
          "ticks": 93960,
          "time": "93960i",
          "velocity": 0.7874015748031497
        },
        {
          "duration": 0.07500000000000284,
          "durationTicks": 60,
          "midi": 72,
          "name": "C5",
          "ticks": 94020,
          "time": "94020i",
          "velocity": 0.7874015748031497
        },
        {
          "duration": 0.07500000000000284,
          "durationTicks": 60,
          "midi": 71,
          "name": "B4",
          "ticks": 94080,
          "time": "94080i",
          "velocity": 0.7874015748031497
        },
        {
          "duration": 0.07500000000000284,
          "durationTicks": 60,
          "midi": 69,
          "name": "A4",
          "ticks": 94140,
          "time": "94140i",
          "velocity": 0.7874015748031497
        },
        {
          "duration": 0.14999999999999147,
          "durationTicks": 120,
          "midi": 67,
          "name": "G4",
          "ticks": 94200,
          "time": "94200i",
          "velocity": 0.7874015748031497
        },
        {
          "duration": 0.15000000000000568,
          "durationTicks": 120,
          "midi": 71,
          "name": "B4",
          "ticks": 94320,
          "time": "94320i",
          "velocity": 0.7874015748031497
        },
        {
          "duration": 0.14999999999999147,
          "durationTicks": 120,
          "midi": 74,
          "name": "D5",
          "ticks": 94440,
          "time": "94440i",
          "velocity": 0.7874015748031497
        },
        {
          "duration": 0.15000000000000568,
          "durationTicks": 120,
          "midi": 79,
          "name": "G5",
          "ticks": 94560,
          "time": "94560i",
          "velocity": 0.7874015748031497
        },
        {
          "duration": 0.15000000000000568,
          "durationTicks": 120,
          "midi": 74,
          "name": "D5",
          "ticks": 94680,
          "time": "94680i",
          "velocity": 0.7874015748031497
        },
        {
          "duration": 0.14999999999999147,
          "durationTicks": 120,
          "midi": 71,
          "name": "B4",
          "ticks": 94800,
          "time": "94800i",
          "velocity": 0.7874015748031497
        },
        {
          "duration": 0.15000000000000568,
          "durationTicks": 120,
          "midi": 67,
          "name": "G4",
          "ticks": 94920,
          "time": "94920i",
          "velocity": 0.7874015748031497
        },
        {
          "duration": 0.14999999999999147,
          "durationTicks": 120,
          "midi": 74,
          "name": "D5",
          "ticks": 95040,
          "time": "95040i",
          "velocity": 0.7874015748031497
        },
        {
          "duration": 0.15000000000000568,
          "durationTicks": 120,
          "midi": 62,
          "name": "D4",
          "ticks": 95160,
          "time": "95160i",
          "velocity": 0.7874015748031497
        },
        {
          "duration": 0.15000000000000568,
          "durationTicks": 120,
          "midi": 67,
          "name": "G4",
          "ticks": 95280,
          "time": "95280i",
          "velocity": 0.7874015748031497
        },
        {
          "duration": 0.14999999999999147,
          "durationTicks": 120,
          "midi": 71,
          "name": "B4",
          "ticks": 95400,
          "time": "95400i",
          "velocity": 0.7874015748031497
        },
        {
          "duration": 0.15000000000000568,
          "durationTicks": 120,
          "midi": 61,
          "name": "C#4",
          "ticks": 95520,
          "time": "95520i",
          "velocity": 0.7874015748031497
        },
        {
          "duration": 0.14999999999999147,
          "durationTicks": 120,
          "midi": 64,
          "name": "E4",
          "ticks": 95640,
          "time": "95640i",
          "velocity": 0.7874015748031497
        },
        {
          "duration": 0.15000000000000568,
          "durationTicks": 120,
          "midi": 67,
          "name": "G4",
          "ticks": 95760,
          "time": "95760i",
          "velocity": 0.7874015748031497
        },
        {
          "duration": 0.15000000000000568,
          "durationTicks": 120,
          "midi": 73,
          "name": "C#5",
          "ticks": 95880,
          "time": "95880i",
          "velocity": 0.7874015748031497
        },
        {
          "duration": 0.15000000000000568,
          "durationTicks": 120,
          "midi": 74,
          "name": "D5",
          "ticks": 96120,
          "time": "96120i",
          "velocity": 0.7874015748031497
        },
        {
          "duration": 0.14999999999999147,
          "durationTicks": 120,
          "midi": 69,
          "name": "A4",
          "ticks": 96240,
          "time": "96240i",
          "velocity": 0.7874015748031497
        },
        {
          "duration": 0.15000000000000568,
          "durationTicks": 120,
          "midi": 66,
          "name": "F#4",
          "ticks": 96360,
          "time": "96360i",
          "velocity": 0.7874015748031497
        },
        {
          "duration": 0.15000000000000568,
          "durationTicks": 120,
          "midi": 62,
          "name": "D4",
          "ticks": 96480,
          "time": "96480i",
          "velocity": 0.7874015748031497
        },
        {
          "duration": 0.14999999999999147,
          "durationTicks": 120,
          "midi": 67,
          "name": "G4",
          "ticks": 96600,
          "time": "96600i",
          "velocity": 0.7874015748031497
        },
        {
          "duration": 0.15000000000000568,
          "durationTicks": 120,
          "midi": 71,
          "name": "B4",
          "ticks": 96720,
          "time": "96720i",
          "velocity": 0.7874015748031497
        },
        {
          "duration": 0.14999999999999147,
          "durationTicks": 120,
          "midi": 74,
          "name": "D5",
          "ticks": 96840,
          "time": "96840i",
          "velocity": 0.7874015748031497
        },
        {
          "duration": 0.15000000000000568,
          "durationTicks": 120,
          "midi": 67,
          "name": "G4",
          "ticks": 96960,
          "time": "96960i",
          "velocity": 0.7874015748031497
        },
        {
          "duration": 0.15000000000000568,
          "durationTicks": 120,
          "midi": 74,
          "name": "D5",
          "ticks": 97080,
          "time": "97080i",
          "velocity": 0.7874015748031497
        },
        {
          "duration": 0.14999999999999147,
          "durationTicks": 120,
          "midi": 72,
          "name": "C5",
          "ticks": 97200,
          "time": "97200i",
          "velocity": 0.7874015748031497
        },
        {
          "duration": 0.15000000000000568,
          "durationTicks": 120,
          "midi": 69,
          "name": "A4",
          "ticks": 97320,
          "time": "97320i",
          "velocity": 0.7874015748031497
        },
        {
          "duration": 0.14999999999999147,
          "durationTicks": 120,
          "midi": 71,
          "name": "B4",
          "ticks": 97440,
          "time": "97440i",
          "velocity": 0.7874015748031497
        },
        {
          "duration": 0.15000000000000568,
          "durationTicks": 120,
          "midi": 66,
          "name": "F#4",
          "ticks": 97560,
          "time": "97560i",
          "velocity": 0.7874015748031497
        },
        {
          "duration": 0.15000000000000568,
          "durationTicks": 120,
          "midi": 69,
          "name": "A4",
          "ticks": 97680,
          "time": "97680i",
          "velocity": 0.7874015748031497
        },
        {
          "duration": 0.07499999999998863,
          "durationTicks": 60,
          "midi": 74,
          "name": "D5",
          "ticks": 97800,
          "time": "97800i",
          "velocity": 0.7874015748031497
        },
        {
          "duration": 0.07500000000000284,
          "durationTicks": 60,
          "midi": 72,
          "name": "C5",
          "ticks": 97860,
          "time": "97860i",
          "velocity": 0.7874015748031497
        },
        {
          "duration": 0.07500000000000284,
          "durationTicks": 60,
          "midi": 71,
          "name": "B4",
          "ticks": 97920,
          "time": "97920i",
          "velocity": 0.7874015748031497
        },
        {
          "duration": 0.07500000000000284,
          "durationTicks": 60,
          "midi": 69,
          "name": "A4",
          "ticks": 97980,
          "time": "97980i",
          "velocity": 0.7874015748031497
        },
        {
          "duration": 0.14999999999999147,
          "durationTicks": 120,
          "midi": 67,
          "name": "G4",
          "ticks": 98040,
          "time": "98040i",
          "velocity": 0.7874015748031497
        },
        {
          "duration": 0.15000000000000568,
          "durationTicks": 120,
          "midi": 71,
          "name": "B4",
          "ticks": 98160,
          "time": "98160i",
          "velocity": 0.7874015748031497
        },
        {
          "duration": 0.15000000000000568,
          "durationTicks": 120,
          "midi": 74,
          "name": "D5",
          "ticks": 98280,
          "time": "98280i",
          "velocity": 0.7874015748031497
        },
        {
          "duration": 0.14999999999999147,
          "durationTicks": 120,
          "midi": 79,
          "name": "G5",
          "ticks": 98400,
          "time": "98400i",
          "velocity": 0.7874015748031497
        },
        {
          "duration": 0.15000000000000568,
          "durationTicks": 120,
          "midi": 74,
          "name": "D5",
          "ticks": 98520,
          "time": "98520i",
          "velocity": 0.7874015748031497
        },
        {
          "duration": 0.14999999999999147,
          "durationTicks": 120,
          "midi": 71,
          "name": "B4",
          "ticks": 98640,
          "time": "98640i",
          "velocity": 0.7874015748031497
        },
        {
          "duration": 0.15000000000000568,
          "durationTicks": 120,
          "midi": 67,
          "name": "G4",
          "ticks": 98760,
          "time": "98760i",
          "velocity": 0.7874015748031497
        },
        {
          "duration": 0.15000000000000568,
          "durationTicks": 120,
          "midi": 74,
          "name": "D5",
          "ticks": 98880,
          "time": "98880i",
          "velocity": 0.7874015748031497
        },
        {
          "duration": 0.14999999999999147,
          "durationTicks": 120,
          "midi": 62,
          "name": "D4",
          "ticks": 99000,
          "time": "99000i",
          "velocity": 0.7874015748031497
        },
        {
          "duration": 0.15000000000000568,
          "durationTicks": 120,
          "midi": 67,
          "name": "G4",
          "ticks": 99120,
          "time": "99120i",
          "velocity": 0.7874015748031497
        },
        {
          "duration": 0.14999999999999147,
          "durationTicks": 120,
          "midi": 71,
          "name": "B4",
          "ticks": 99240,
          "time": "99240i",
          "velocity": 0.7874015748031497
        },
        {
          "duration": 0.15000000000000568,
          "durationTicks": 120,
          "midi": 61,
          "name": "C#4",
          "ticks": 99360,
          "time": "99360i",
          "velocity": 0.7874015748031497
        },
        {
          "duration": 0.15000000000000568,
          "durationTicks": 120,
          "midi": 64,
          "name": "E4",
          "ticks": 99480,
          "time": "99480i",
          "velocity": 0.7874015748031497
        },
        {
          "duration": 0.14999999999999147,
          "durationTicks": 120,
          "midi": 67,
          "name": "G4",
          "ticks": 99600,
          "time": "99600i",
          "velocity": 0.7874015748031497
        },
        {
          "duration": 0.15000000000000568,
          "durationTicks": 120,
          "midi": 73,
          "name": "C#5",
          "ticks": 99720,
          "time": "99720i",
          "velocity": 0.7874015748031497
        },
        {
          "duration": 0.15000000000000568,
          "durationTicks": 120,
          "midi": 74,
          "name": "D5",
          "ticks": 99960,
          "time": "99960i",
          "velocity": 0.7874015748031497
        },
        {
          "duration": 0.15000000000000568,
          "durationTicks": 120,
          "midi": 69,
          "name": "A4",
          "ticks": 100080,
          "time": "100080i",
          "velocity": 0.7874015748031497
        },
        {
          "duration": 0.14999999999999147,
          "durationTicks": 120,
          "midi": 66,
          "name": "F#4",
          "ticks": 100200,
          "time": "100200i",
          "velocity": 0.7874015748031497
        },
        {
          "duration": 0.15000000000000568,
          "durationTicks": 120,
          "midi": 62,
          "name": "D4",
          "ticks": 100320,
          "time": "100320i",
          "velocity": 0.7874015748031497
        },
        {
          "duration": 0.14999999999999147,
          "durationTicks": 120,
          "midi": 67,
          "name": "G4",
          "ticks": 100440,
          "time": "100440i",
          "velocity": 0.7874015748031497
        },
        {
          "duration": 0.15000000000000568,
          "durationTicks": 120,
          "midi": 71,
          "name": "B4",
          "ticks": 100560,
          "time": "100560i",
          "velocity": 0.7874015748031497
        },
        {
          "duration": 0.15000000000000568,
          "durationTicks": 120,
          "midi": 74,
          "name": "D5",
          "ticks": 100680,
          "time": "100680i",
          "velocity": 0.7874015748031497
        },
        {
          "duration": 0.14999999999999147,
          "durationTicks": 120,
          "midi": 67,
          "name": "G4",
          "ticks": 100800,
          "time": "100800i",
          "velocity": 0.7874015748031497
        },
        {
          "duration": 0.15000000000000568,
          "durationTicks": 120,
          "midi": 74,
          "name": "D5",
          "ticks": 100920,
          "time": "100920i",
          "velocity": 0.7874015748031497
        },
        {
          "duration": 0.14999999999999147,
          "durationTicks": 120,
          "midi": 72,
          "name": "C5",
          "ticks": 101040,
          "time": "101040i",
          "velocity": 0.7874015748031497
        },
        {
          "duration": 0.15000000000000568,
          "durationTicks": 120,
          "midi": 69,
          "name": "A4",
          "ticks": 101160,
          "time": "101160i",
          "velocity": 0.7874015748031497
        },
        {
          "duration": 0.15000000000000568,
          "durationTicks": 120,
          "midi": 71,
          "name": "B4",
          "ticks": 101280,
          "time": "101280i",
          "velocity": 0.7874015748031497
        },
        {
          "duration": 0.14999999999999147,
          "durationTicks": 120,
          "midi": 66,
          "name": "F#4",
          "ticks": 101400,
          "time": "101400i",
          "velocity": 0.7874015748031497
        },
        {
          "duration": 0.15000000000000568,
          "durationTicks": 120,
          "midi": 69,
          "name": "A4",
          "ticks": 101520,
          "time": "101520i",
          "velocity": 0.7874015748031497
        },
        {
          "duration": 0.07500000000000284,
          "durationTicks": 60,
          "midi": 74,
          "name": "D5",
          "ticks": 101640,
          "time": "101640i",
          "velocity": 0.7874015748031497
        },
        {
          "duration": 0.07499999999998863,
          "durationTicks": 60,
          "midi": 72,
          "name": "C5",
          "ticks": 101700,
          "time": "101700i",
          "velocity": 0.7874015748031497
        },
        {
          "duration": 1.200000000000017,
          "durationTicks": 960,
          "midi": 71,
          "name": "B4",
          "ticks": 101760,
          "time": "101760i",
          "velocity": 0.7874015748031497
        },
        {
          "duration": 0.5999999999999943,
          "durationTicks": 480,
          "midi": 67,
          "name": "G4",
          "ticks": 105360,
          "time": "105360i",
          "velocity": 0.7874015748031497
        },
        {
          "duration": 0.6000000000000227,
          "durationTicks": 480,
          "midi": 69,
          "name": "A4",
          "ticks": 105840,
          "time": "105840i",
          "velocity": 0.7874015748031497
        },
        {
          "duration": 0.44999999999998863,
          "durationTicks": 360,
          "midi": 71,
          "name": "B4",
          "ticks": 106320,
          "time": "106320i",
          "velocity": 0.7874015748031497
        },
        {
          "duration": 0.15000000000000568,
          "durationTicks": 120,
          "midi": 72,
          "name": "C5",
          "ticks": 106680,
          "time": "106680i",
          "velocity": 0.7874015748031497
        },
        {
          "duration": 0.15000000000000568,
          "durationTicks": 120,
          "midi": 71,
          "name": "B4",
          "ticks": 106800,
          "time": "106800i",
          "velocity": 0.7874015748031497
        },
        {
          "duration": 0.14999999999997726,
          "durationTicks": 120,
          "midi": 69,
          "name": "A4",
          "ticks": 106920,
          "time": "106920i",
          "velocity": 0.7874015748031497
        },
        {
          "duration": 0.15000000000000568,
          "durationTicks": 120,
          "midi": 67,
          "name": "G4",
          "ticks": 107040,
          "time": "107040i",
          "velocity": 0.7874015748031497
        },
        {
          "duration": 0.15000000000000568,
          "durationTicks": 120,
          "midi": 64,
          "name": "E4",
          "ticks": 107160,
          "time": "107160i",
          "velocity": 0.7874015748031497
        },
        {
          "duration": 0.15000000000000568,
          "durationTicks": 120,
          "midi": 66,
          "name": "F#4",
          "ticks": 107280,
          "time": "107280i",
          "velocity": 0.7874015748031497
        },
        {
          "duration": 0.15000000000000568,
          "durationTicks": 120,
          "midi": 67,
          "name": "G4",
          "ticks": 107400,
          "time": "107400i",
          "velocity": 0.7874015748031497
        },
        {
          "duration": 0.14999999999997726,
          "durationTicks": 120,
          "midi": 69,
          "name": "A4",
          "ticks": 107520,
          "time": "107520i",
          "velocity": 0.7874015748031497
        },
        {
          "duration": 0.15000000000000568,
          "durationTicks": 120,
          "midi": 71,
          "name": "B4",
          "ticks": 107640,
          "time": "107640i",
          "velocity": 0.7874015748031497
        },
        {
          "duration": 0.15000000000000568,
          "durationTicks": 120,
          "midi": 72,
          "name": "C5",
          "ticks": 107760,
          "time": "107760i",
          "velocity": 0.7874015748031497
        },
        {
          "duration": 0.15000000000000568,
          "durationTicks": 120,
          "midi": 74,
          "name": "D5",
          "ticks": 107880,
          "time": "107880i",
          "velocity": 0.7874015748031497
        },
        {
          "duration": 0.15000000000000568,
          "durationTicks": 120,
          "midi": 76,
          "name": "E5",
          "ticks": 108000,
          "time": "108000i",
          "velocity": 0.7874015748031497
        },
        {
          "duration": 0.14999999999997726,
          "durationTicks": 120,
          "midi": 78,
          "name": "F#5",
          "ticks": 108120,
          "time": "108120i",
          "velocity": 0.7874015748031497
        },
        {
          "duration": 0.15000000000000568,
          "durationTicks": 120,
          "midi": 79,
          "name": "G5",
          "ticks": 108240,
          "time": "108240i",
          "velocity": 0.7874015748031497
        },
        {
          "duration": 0.15000000000000568,
          "durationTicks": 120,
          "midi": 81,
          "name": "A5",
          "ticks": 108360,
          "time": "108360i",
          "velocity": 0.7874015748031497
        },
        {
          "duration": 0.15000000000000568,
          "durationTicks": 120,
          "midi": 83,
          "name": "B5",
          "ticks": 108480,
          "time": "108480i",
          "velocity": 0.7874015748031497
        },
        {
          "duration": 0.15000000000000568,
          "durationTicks": 120,
          "midi": 81,
          "name": "A5",
          "ticks": 108600,
          "time": "108600i",
          "velocity": 0.7874015748031497
        },
        {
          "duration": 0.29999999999998295,
          "durationTicks": 240,
          "midi": 79,
          "name": "G5",
          "ticks": 108720,
          "time": "108720i",
          "velocity": 0.7874015748031497
        },
        {
          "duration": 0.5999999999999943,
          "durationTicks": 480,
          "midi": 67,
          "name": "G4",
          "ticks": 109200,
          "time": "109200i",
          "velocity": 0.7874015748031497
        },
        {
          "duration": 0.5999999999999943,
          "durationTicks": 480,
          "midi": 69,
          "name": "A4",
          "ticks": 109680,
          "time": "109680i",
          "velocity": 0.7874015748031497
        },
        {
          "duration": 0.45000000000001705,
          "durationTicks": 360,
          "midi": 71,
          "name": "B4",
          "ticks": 110160,
          "time": "110160i",
          "velocity": 0.7874015748031497
        },
        {
          "duration": 0.14999999999997726,
          "durationTicks": 120,
          "midi": 72,
          "name": "C5",
          "ticks": 110520,
          "time": "110520i",
          "velocity": 0.7874015748031497
        },
        {
          "duration": 0.15000000000000568,
          "durationTicks": 120,
          "midi": 71,
          "name": "B4",
          "ticks": 110640,
          "time": "110640i",
          "velocity": 0.7874015748031497
        },
        {
          "duration": 0.15000000000000568,
          "durationTicks": 120,
          "midi": 69,
          "name": "A4",
          "ticks": 110760,
          "time": "110760i",
          "velocity": 0.7874015748031497
        },
        {
          "duration": 0.15000000000000568,
          "durationTicks": 120,
          "midi": 67,
          "name": "G4",
          "ticks": 110880,
          "time": "110880i",
          "velocity": 0.7874015748031497
        },
        {
          "duration": 0.15000000000000568,
          "durationTicks": 120,
          "midi": 64,
          "name": "E4",
          "ticks": 111000,
          "time": "111000i",
          "velocity": 0.7874015748031497
        },
        {
          "duration": 0.14999999999997726,
          "durationTicks": 120,
          "midi": 66,
          "name": "F#4",
          "ticks": 111120,
          "time": "111120i",
          "velocity": 0.7874015748031497
        },
        {
          "duration": 0.15000000000000568,
          "durationTicks": 120,
          "midi": 67,
          "name": "G4",
          "ticks": 111240,
          "time": "111240i",
          "velocity": 0.7874015748031497
        },
        {
          "duration": 0.15000000000000568,
          "durationTicks": 120,
          "midi": 69,
          "name": "A4",
          "ticks": 111360,
          "time": "111360i",
          "velocity": 0.7874015748031497
        },
        {
          "duration": 0.15000000000000568,
          "durationTicks": 120,
          "midi": 71,
          "name": "B4",
          "ticks": 111480,
          "time": "111480i",
          "velocity": 0.7874015748031497
        },
        {
          "duration": 0.15000000000000568,
          "durationTicks": 120,
          "midi": 72,
          "name": "C5",
          "ticks": 111600,
          "time": "111600i",
          "velocity": 0.7874015748031497
        },
        {
          "duration": 0.14999999999997726,
          "durationTicks": 120,
          "midi": 74,
          "name": "D5",
          "ticks": 111720,
          "time": "111720i",
          "velocity": 0.7874015748031497
        },
        {
          "duration": 0.15000000000000568,
          "durationTicks": 120,
          "midi": 76,
          "name": "E5",
          "ticks": 111840,
          "time": "111840i",
          "velocity": 0.7874015748031497
        },
        {
          "duration": 0.15000000000000568,
          "durationTicks": 120,
          "midi": 78,
          "name": "F#5",
          "ticks": 111960,
          "time": "111960i",
          "velocity": 0.7874015748031497
        },
        {
          "duration": 0.15000000000000568,
          "durationTicks": 120,
          "midi": 79,
          "name": "G5",
          "ticks": 112080,
          "time": "112080i",
          "velocity": 0.7874015748031497
        },
        {
          "duration": 0.15000000000000568,
          "durationTicks": 120,
          "midi": 81,
          "name": "A5",
          "ticks": 112200,
          "time": "112200i",
          "velocity": 0.7874015748031497
        },
        {
          "duration": 0.14999999999997726,
          "durationTicks": 120,
          "midi": 83,
          "name": "B5",
          "ticks": 112320,
          "time": "112320i",
          "velocity": 0.7874015748031497
        },
        {
          "duration": 0.15000000000000568,
          "durationTicks": 120,
          "midi": 81,
          "name": "A5",
          "ticks": 112440,
          "time": "112440i",
          "velocity": 0.7874015748031497
        },
        {
          "duration": 0.30000000000001137,
          "durationTicks": 240,
          "midi": 79,
          "name": "G5",
          "ticks": 112560,
          "time": "112560i",
          "velocity": 0.7874015748031497
        },
        {
          "duration": 0.6000000000000227,
          "durationTicks": 480,
          "midi": 67,
          "name": "G4",
          "ticks": 113040,
          "time": "113040i",
          "velocity": 0.7874015748031497
        },
        {
          "duration": 0.5999999999999943,
          "durationTicks": 480,
          "midi": 69,
          "name": "A4",
          "ticks": 113520,
          "time": "113520i",
          "velocity": 0.7874015748031497
        },
        {
          "duration": 0.29999999999998295,
          "durationTicks": 240,
          "midi": 71,
          "name": "B4",
          "ticks": 114000,
          "time": "114000i",
          "velocity": 0.7874015748031497
        },
        {
          "duration": 1.200000000000017,
          "durationTicks": 960,
          "midi": 67,
          "name": "G4",
          "ticks": 114240,
          "time": "114240i",
          "velocity": 0.7874015748031497
        },
        {
          "duration": 0.30000000000001137,
          "durationTicks": 240,
          "midi": 74,
          "name": "D5",
          "ticks": 117840,
          "time": "117840i",
          "velocity": 0.7874015748031497
        },
        {
          "duration": 0.30000000000001137,
          "durationTicks": 240,
          "midi": 75,
          "name": "D#5",
          "ticks": 118080,
          "time": "118080i",
          "velocity": 0.7874015748031497
        },
        {
          "duration": 0.29999999999998295,
          "durationTicks": 240,
          "midi": 76,
          "name": "E5",
          "ticks": 118320,
          "time": "118320i",
          "velocity": 0.7874015748031497
        },
        {
          "duration": 0.30000000000001137,
          "durationTicks": 240,
          "midi": 77,
          "name": "F5",
          "ticks": 118560,
          "time": "118560i",
          "velocity": 0.7874015748031497
        },
        {
          "duration": 0.29999999999998295,
          "durationTicks": 240,
          "midi": 78,
          "name": "F#5",
          "ticks": 118800,
          "time": "118800i",
          "velocity": 0.7874015748031497
        },
        {
          "duration": 0.15000000000000568,
          "durationTicks": 120,
          "midi": 79,
          "name": "G5",
          "ticks": 119040,
          "time": "119040i",
          "velocity": 0.7874015748031497
        },
        {
          "duration": 0.15000000000000568,
          "durationTicks": 120,
          "midi": 78,
          "name": "F#5",
          "ticks": 119160,
          "time": "119160i",
          "velocity": 0.7874015748031497
        },
        {
          "duration": 0.15000000000000568,
          "durationTicks": 120,
          "midi": 79,
          "name": "G5",
          "ticks": 119280,
          "time": "119280i",
          "velocity": 0.7874015748031497
        },
        {
          "duration": 0.15000000000000568,
          "durationTicks": 120,
          "midi": 81,
          "name": "A5",
          "ticks": 119400,
          "time": "119400i",
          "velocity": 0.7874015748031497
        },
        {
          "duration": 0.29999999999998295,
          "durationTicks": 240,
          "midi": 83,
          "name": "B5",
          "ticks": 119520,
          "time": "119520i",
          "velocity": 0.7874015748031497
        },
        {
          "duration": 0.30000000000001137,
          "durationTicks": 240,
          "midi": 78,
          "name": "F#5",
          "ticks": 120240,
          "time": "120240i",
          "velocity": 0.7874015748031497
        },
        {
          "duration": 0.15000000000000568,
          "durationTicks": 120,
          "midi": 71,
          "name": "B4",
          "ticks": 120480,
          "time": "120480i",
          "velocity": 0.7874015748031497
        },
        {
          "duration": 0.15000000000000568,
          "durationTicks": 120,
          "midi": 73,
          "name": "C#5",
          "ticks": 120600,
          "time": "120600i",
          "velocity": 0.7874015748031497
        },
        {
          "duration": 0.14999999999997726,
          "durationTicks": 120,
          "midi": 74,
          "name": "D5",
          "ticks": 120720,
          "time": "120720i",
          "velocity": 0.7874015748031497
        },
        {
          "duration": 0.15000000000000568,
          "durationTicks": 120,
          "midi": 76,
          "name": "E5",
          "ticks": 120840,
          "time": "120840i",
          "velocity": 0.7874015748031497
        },
        {
          "duration": 0.5999999999999943,
          "durationTicks": 480,
          "midi": 78,
          "name": "F#5",
          "ticks": 120960,
          "time": "120960i",
          "velocity": 0.7874015748031497
        },
        {
          "duration": 0.30000000000001137,
          "durationTicks": 240,
          "midi": 74,
          "name": "D5",
          "ticks": 121680,
          "time": "121680i",
          "velocity": 0.7874015748031497
        },
        {
          "duration": 0.29999999999998295,
          "durationTicks": 240,
          "midi": 75,
          "name": "D#5",
          "ticks": 121920,
          "time": "121920i",
          "velocity": 0.7874015748031497
        },
        {
          "duration": 0.30000000000001137,
          "durationTicks": 240,
          "midi": 76,
          "name": "E5",
          "ticks": 122160,
          "time": "122160i",
          "velocity": 0.7874015748031497
        },
        {
          "duration": 0.29999999999998295,
          "durationTicks": 240,
          "midi": 77,
          "name": "F5",
          "ticks": 122400,
          "time": "122400i",
          "velocity": 0.7874015748031497
        },
        {
          "duration": 0.30000000000001137,
          "durationTicks": 240,
          "midi": 78,
          "name": "F#5",
          "ticks": 122640,
          "time": "122640i",
          "velocity": 0.7874015748031497
        },
        {
          "duration": 0.15000000000000568,
          "durationTicks": 120,
          "midi": 79,
          "name": "G5",
          "ticks": 122880,
          "time": "122880i",
          "velocity": 0.7874015748031497
        },
        {
          "duration": 0.15000000000000568,
          "durationTicks": 120,
          "midi": 78,
          "name": "F#5",
          "ticks": 123000,
          "time": "123000i",
          "velocity": 0.7874015748031497
        },
        {
          "duration": 0.14999999999997726,
          "durationTicks": 120,
          "midi": 79,
          "name": "G5",
          "ticks": 123120,
          "time": "123120i",
          "velocity": 0.7874015748031497
        },
        {
          "duration": 0.15000000000000568,
          "durationTicks": 120,
          "midi": 81,
          "name": "A5",
          "ticks": 123240,
          "time": "123240i",
          "velocity": 0.7874015748031497
        },
        {
          "duration": 0.30000000000001137,
          "durationTicks": 240,
          "midi": 83,
          "name": "B5",
          "ticks": 123360,
          "time": "123360i",
          "velocity": 0.7874015748031497
        },
        {
          "duration": 0.30000000000001137,
          "durationTicks": 240,
          "midi": 78,
          "name": "F#5",
          "ticks": 124080,
          "time": "124080i",
          "velocity": 0.7874015748031497
        },
        {
          "duration": 0.14999999999997726,
          "durationTicks": 120,
          "midi": 71,
          "name": "B4",
          "ticks": 124320,
          "time": "124320i",
          "velocity": 0.7874015748031497
        },
        {
          "duration": 0.15000000000000568,
          "durationTicks": 120,
          "midi": 73,
          "name": "C#5",
          "ticks": 124440,
          "time": "124440i",
          "velocity": 0.7874015748031497
        },
        {
          "duration": 0.15000000000000568,
          "durationTicks": 120,
          "midi": 74,
          "name": "D5",
          "ticks": 124560,
          "time": "124560i",
          "velocity": 0.7874015748031497
        },
        {
          "duration": 0.15000000000000568,
          "durationTicks": 120,
          "midi": 76,
          "name": "E5",
          "ticks": 124680,
          "time": "124680i",
          "velocity": 0.7874015748031497
        },
        {
          "duration": 0.5999999999999943,
          "durationTicks": 480,
          "midi": 78,
          "name": "F#5",
          "ticks": 124800,
          "time": "124800i",
          "velocity": 0.7874015748031497
        },
        {
          "duration": 0.29999999999998295,
          "durationTicks": 240,
          "midi": 74,
          "name": "D5",
          "ticks": 125520,
          "time": "125520i",
          "velocity": 0.7874015748031497
        },
        {
          "duration": 0.30000000000001137,
          "durationTicks": 240,
          "midi": 75,
          "name": "D#5",
          "ticks": 125760,
          "time": "125760i",
          "velocity": 0.7874015748031497
        },
        {
          "duration": 0.29999999999998295,
          "durationTicks": 240,
          "midi": 76,
          "name": "E5",
          "ticks": 126000,
          "time": "126000i",
          "velocity": 0.7874015748031497
        },
        {
          "duration": 0.30000000000001137,
          "durationTicks": 240,
          "midi": 77,
          "name": "F5",
          "ticks": 126240,
          "time": "126240i",
          "velocity": 0.7874015748031497
        },
        {
          "duration": 0.30000000000001137,
          "durationTicks": 240,
          "midi": 78,
          "name": "F#5",
          "ticks": 126480,
          "time": "126480i",
          "velocity": 0.7874015748031497
        },
        {
          "duration": 1.1999999999999886,
          "durationTicks": 960,
          "midi": 79,
          "name": "G5",
          "ticks": 126720,
          "time": "126720i",
          "velocity": 0.7874015748031497
        },
        {
          "duration": 0.15000000000000568,
          "durationTicks": 120,
          "midi": 62,
          "name": "D4",
          "ticks": 128280,
          "time": "128280i",
          "velocity": 0.7874015748031497
        },
        {
          "duration": 0.15000000000000568,
          "durationTicks": 120,
          "midi": 64,
          "name": "E4",
          "ticks": 128400,
          "time": "128400i",
          "velocity": 0.7874015748031497
        },
        {
          "duration": 0.14999999999997726,
          "durationTicks": 120,
          "midi": 66,
          "name": "F#4",
          "ticks": 128520,
          "time": "128520i",
          "velocity": 0.7874015748031497
        },
        {
          "duration": 0.15000000000000568,
          "durationTicks": 120,
          "midi": 67,
          "name": "G4",
          "ticks": 128640,
          "time": "128640i",
          "velocity": 0.7874015748031497
        },
        {
          "duration": 0.15000000000000568,
          "durationTicks": 120,
          "midi": 71,
          "name": "B4",
          "ticks": 128760,
          "time": "128760i",
          "velocity": 0.7874015748031497
        },
        {
          "duration": 0.15000000000000568,
          "durationTicks": 120,
          "midi": 69,
          "name": "A4",
          "ticks": 128880,
          "time": "128880i",
          "velocity": 0.7874015748031497
        },
        {
          "duration": 0.15000000000000568,
          "durationTicks": 120,
          "midi": 67,
          "name": "G4",
          "ticks": 129000,
          "time": "129000i",
          "velocity": 0.7874015748031497
        },
        {
          "duration": 0.14999999999997726,
          "durationTicks": 120,
          "midi": 74,
          "name": "D5",
          "ticks": 129120,
          "time": "129120i",
          "velocity": 0.7874015748031497
        },
        {
          "duration": 0.15000000000000568,
          "durationTicks": 120,
          "midi": 79,
          "name": "G5",
          "ticks": 129240,
          "time": "129240i",
          "velocity": 0.7874015748031497
        },
        {
          "duration": 0.75,
          "durationTicks": 600,
          "midi": 83,
          "name": "B5",
          "ticks": 129360,
          "time": "129360i",
          "velocity": 0.7874015748031497
        },
        {
          "duration": 0.15000000000000568,
          "durationTicks": 120,
          "midi": 81,
          "name": "A5",
          "ticks": 129960,
          "time": "129960i",
          "velocity": 0.7874015748031497
        },
        {
          "duration": 0.15000000000000568,
          "durationTicks": 120,
          "midi": 79,
          "name": "G5",
          "ticks": 130080,
          "time": "130080i",
          "velocity": 0.7874015748031497
        },
        {
          "duration": 0.15000000000000568,
          "durationTicks": 120,
          "midi": 78,
          "name": "F#5",
          "ticks": 130200,
          "time": "130200i",
          "velocity": 0.7874015748031497
        },
        {
          "duration": 0.14999999999997726,
          "durationTicks": 120,
          "midi": 76,
          "name": "E5",
          "ticks": 130320,
          "time": "130320i",
          "velocity": 0.7874015748031497
        },
        {
          "duration": 0.15000000000000568,
          "durationTicks": 120,
          "midi": 74,
          "name": "D5",
          "ticks": 130440,
          "time": "130440i",
          "velocity": 0.7874015748031497
        },
        {
          "duration": 0.30000000000001137,
          "durationTicks": 240,
          "midi": 73,
          "name": "C#5",
          "ticks": 130560,
          "time": "130560i",
          "velocity": 0.7874015748031497
        },
        {
          "duration": 0.29999999999998295,
          "durationTicks": 240,
          "midi": 79,
          "name": "G5",
          "ticks": 130800,
          "time": "130800i",
          "velocity": 0.7874015748031497
        },
        {
          "duration": 0.15000000000000568,
          "durationTicks": 120,
          "midi": 76,
          "name": "E5",
          "ticks": 131160,
          "time": "131160i",
          "velocity": 0.7874015748031497
        },
        {
          "duration": 0.15000000000000568,
          "durationTicks": 120,
          "midi": 78,
          "name": "F#5",
          "ticks": 131280,
          "time": "131280i",
          "velocity": 0.7874015748031497
        },
        {
          "duration": 0.15000000000000568,
          "durationTicks": 120,
          "midi": 79,
          "name": "G5",
          "ticks": 131400,
          "time": "131400i",
          "velocity": 0.7874015748031497
        },
        {
          "duration": 0.29999999999998295,
          "durationTicks": 240,
          "midi": 78,
          "name": "F#5",
          "ticks": 131520,
          "time": "131520i",
          "velocity": 0.7874015748031497
        },
        {
          "duration": 0.30000000000001137,
          "durationTicks": 240,
          "midi": 69,
          "name": "A4",
          "ticks": 131760,
          "time": "131760i",
          "velocity": 0.7874015748031497
        },
        {
          "duration": 0.14999999999997726,
          "durationTicks": 120,
          "midi": 62,
          "name": "D4",
          "ticks": 132120,
          "time": "132120i",
          "velocity": 0.7874015748031497
        },
        {
          "duration": 0.15000000000000568,
          "durationTicks": 120,
          "midi": 64,
          "name": "E4",
          "ticks": 132240,
          "time": "132240i",
          "velocity": 0.7874015748031497
        },
        {
          "duration": 0.15000000000000568,
          "durationTicks": 120,
          "midi": 66,
          "name": "F#4",
          "ticks": 132360,
          "time": "132360i",
          "velocity": 0.7874015748031497
        },
        {
          "duration": 0.30000000000001137,
          "durationTicks": 240,
          "midi": 67,
          "name": "G4",
          "ticks": 132480,
          "time": "132480i",
          "velocity": 0.7874015748031497
        },
        {
          "duration": 0.29999999999998295,
          "durationTicks": 240,
          "midi": 79,
          "name": "G5",
          "ticks": 132720,
          "time": "132720i",
          "velocity": 0.7874015748031497
        },
        {
          "duration": 0.15000000000000568,
          "durationTicks": 120,
          "midi": 71,
          "name": "B4",
          "ticks": 133080,
          "time": "133080i",
          "velocity": 0.7874015748031497
        },
        {
          "duration": 0.15000000000000568,
          "durationTicks": 120,
          "midi": 69,
          "name": "A4",
          "ticks": 133200,
          "time": "133200i",
          "velocity": 0.7874015748031497
        },
        {
          "duration": 0.14999999999997726,
          "durationTicks": 120,
          "midi": 67,
          "name": "G4",
          "ticks": 133320,
          "time": "133320i",
          "velocity": 0.7874015748031497
        },
        {
          "duration": 0.30000000000001137,
          "durationTicks": 240,
          "midi": 76,
          "name": "E5",
          "ticks": 133440,
          "time": "133440i",
          "velocity": 0.7874015748031497
        },
        {
          "duration": 0.30000000000001137,
          "durationTicks": 240,
          "midi": 64,
          "name": "E4",
          "ticks": 133680,
          "time": "133680i",
          "velocity": 0.7874015748031497
        },
        {
          "duration": 0.15000000000000568,
          "durationTicks": 120,
          "midi": 66,
          "name": "F#4",
          "ticks": 134040,
          "time": "134040i",
          "velocity": 0.7874015748031497
        },
        {
          "duration": 0.15000000000000568,
          "durationTicks": 120,
          "midi": 67,
          "name": "G4",
          "ticks": 134160,
          "time": "134160i",
          "velocity": 0.7874015748031497
        },
        {
          "duration": 0.15000000000000568,
          "durationTicks": 120,
          "midi": 69,
          "name": "A4",
          "ticks": 134280,
          "time": "134280i",
          "velocity": 0.7874015748031497
        },
        {
          "duration": 0.15000000000000568,
          "durationTicks": 120,
          "midi": 69,
          "name": "A4",
          "ticks": 134400,
          "time": "134400i",
          "velocity": 0.7874015748031497
        },
        {
          "duration": 0.14999999999997726,
          "durationTicks": 120,
          "midi": 60,
          "name": "C4",
          "ticks": 134520,
          "time": "134520i",
          "velocity": 0.7874015748031497
        },
        {
          "duration": 0.30000000000001137,
          "durationTicks": 240,
          "midi": 69,
          "name": "A4",
          "ticks": 134640,
          "time": "134640i",
          "velocity": 0.7874015748031497
        },
        {
          "duration": 0.15000000000000568,
          "durationTicks": 120,
          "midi": 72,
          "name": "C5",
          "ticks": 135000,
          "time": "135000i",
          "velocity": 0.7874015748031497
        },
        {
          "duration": 0.14999999999997726,
          "durationTicks": 120,
          "midi": 69,
          "name": "A4",
          "ticks": 135120,
          "time": "135120i",
          "velocity": 0.7874015748031497
        },
        {
          "duration": 0.15000000000000568,
          "durationTicks": 120,
          "midi": 64,
          "name": "E4",
          "ticks": 135240,
          "time": "135240i",
          "velocity": 0.7874015748031497
        },
        {
          "duration": 0.30000000000001137,
          "durationTicks": 240,
          "midi": 62,
          "name": "D4",
          "ticks": 135360,
          "time": "135360i",
          "velocity": 0.7874015748031497
        },
        {
          "duration": 0.29999999999998295,
          "durationTicks": 240,
          "midi": 60,
          "name": "C4",
          "ticks": 135600,
          "time": "135600i",
          "velocity": 0.7874015748031497
        },
        {
          "duration": 0.15000000000000568,
          "durationTicks": 120,
          "midi": 59,
          "name": "B3",
          "ticks": 135840,
          "time": "135840i",
          "velocity": 0.7874015748031497
        },
        {
          "duration": 0.15000000000000568,
          "durationTicks": 120,
          "midi": 62,
          "name": "D4",
          "ticks": 135960,
          "time": "135960i",
          "velocity": 0.7874015748031497
        },
        {
          "duration": 0.15000000000000568,
          "durationTicks": 120,
          "midi": 64,
          "name": "E4",
          "ticks": 136080,
          "time": "136080i",
          "velocity": 0.7874015748031497
        },
        {
          "duration": 0.15000000000000568,
          "durationTicks": 120,
          "midi": 66,
          "name": "F#4",
          "ticks": 136200,
          "time": "136200i",
          "velocity": 0.7874015748031497
        },
        {
          "duration": 0.14999999999997726,
          "durationTicks": 120,
          "midi": 67,
          "name": "G4",
          "ticks": 136320,
          "time": "136320i",
          "velocity": 0.7874015748031497
        },
        {
          "duration": 0.15000000000000568,
          "durationTicks": 120,
          "midi": 71,
          "name": "B4",
          "ticks": 136440,
          "time": "136440i",
          "velocity": 0.7874015748031497
        },
        {
          "duration": 0.15000000000000568,
          "durationTicks": 120,
          "midi": 69,
          "name": "A4",
          "ticks": 136560,
          "time": "136560i",
          "velocity": 0.7874015748031497
        },
        {
          "duration": 0.15000000000000568,
          "durationTicks": 120,
          "midi": 67,
          "name": "G4",
          "ticks": 136680,
          "time": "136680i",
          "velocity": 0.7874015748031497
        },
        {
          "duration": 0.15000000000000568,
          "durationTicks": 120,
          "midi": 74,
          "name": "D5",
          "ticks": 136800,
          "time": "136800i",
          "velocity": 0.7874015748031497
        },
        {
          "duration": 0.14999999999997726,
          "durationTicks": 120,
          "midi": 79,
          "name": "G5",
          "ticks": 136920,
          "time": "136920i",
          "velocity": 0.7874015748031497
        },
        {
          "duration": 0.75,
          "durationTicks": 600,
          "midi": 83,
          "name": "B5",
          "ticks": 137040,
          "time": "137040i",
          "velocity": 0.7874015748031497
        },
        {
          "duration": 0.15000000000000568,
          "durationTicks": 120,
          "midi": 81,
          "name": "A5",
          "ticks": 137640,
          "time": "137640i",
          "velocity": 0.7874015748031497
        },
        {
          "duration": 0.15000000000000568,
          "durationTicks": 120,
          "midi": 79,
          "name": "G5",
          "ticks": 137760,
          "time": "137760i",
          "velocity": 0.7874015748031497
        },
        {
          "duration": 0.15000000000000568,
          "durationTicks": 120,
          "midi": 78,
          "name": "F#5",
          "ticks": 137880,
          "time": "137880i",
          "velocity": 0.7874015748031497
        },
        {
          "duration": 0.15000000000000568,
          "durationTicks": 120,
          "midi": 76,
          "name": "E5",
          "ticks": 138000,
          "time": "138000i",
          "velocity": 0.7874015748031497
        },
        {
          "duration": 0.14999999999997726,
          "durationTicks": 120,
          "midi": 74,
          "name": "D5",
          "ticks": 138120,
          "time": "138120i",
          "velocity": 0.7874015748031497
        },
        {
          "duration": 0.30000000000001137,
          "durationTicks": 240,
          "midi": 73,
          "name": "C#5",
          "ticks": 138240,
          "time": "138240i",
          "velocity": 0.7874015748031497
        },
        {
          "duration": 0.30000000000001137,
          "durationTicks": 240,
          "midi": 79,
          "name": "G5",
          "ticks": 138480,
          "time": "138480i",
          "velocity": 0.7874015748031497
        },
        {
          "duration": 0.15000000000000568,
          "durationTicks": 120,
          "midi": 76,
          "name": "E5",
          "ticks": 138840,
          "time": "138840i",
          "velocity": 0.7874015748031497
        },
        {
          "duration": 0.15000000000000568,
          "durationTicks": 120,
          "midi": 78,
          "name": "F#5",
          "ticks": 138960,
          "time": "138960i",
          "velocity": 0.7874015748031497
        },
        {
          "duration": 0.15000000000000568,
          "durationTicks": 120,
          "midi": 79,
          "name": "G5",
          "ticks": 139080,
          "time": "139080i",
          "velocity": 0.7874015748031497
        },
        {
          "duration": 0.29999999999998295,
          "durationTicks": 240,
          "midi": 78,
          "name": "F#5",
          "ticks": 139200,
          "time": "139200i",
          "velocity": 0.7874015748031497
        },
        {
          "duration": 0.30000000000001137,
          "durationTicks": 240,
          "midi": 69,
          "name": "A4",
          "ticks": 139440,
          "time": "139440i",
          "velocity": 0.7874015748031497
        },
        {
          "duration": 0.15000000000000568,
          "durationTicks": 120,
          "midi": 62,
          "name": "D4",
          "ticks": 139800,
          "time": "139800i",
          "velocity": 0.7874015748031497
        },
        {
          "duration": 0.14999999999997726,
          "durationTicks": 120,
          "midi": 64,
          "name": "E4",
          "ticks": 139920,
          "time": "139920i",
          "velocity": 0.7874015748031497
        },
        {
          "duration": 0.15000000000000568,
          "durationTicks": 120,
          "midi": 66,
          "name": "F#4",
          "ticks": 140040,
          "time": "140040i",
          "velocity": 0.7874015748031497
        },
        {
          "duration": 0.30000000000001137,
          "durationTicks": 240,
          "midi": 67,
          "name": "G4",
          "ticks": 140160,
          "time": "140160i",
          "velocity": 0.7874015748031497
        },
        {
          "duration": 0.29999999999998295,
          "durationTicks": 240,
          "midi": 79,
          "name": "G5",
          "ticks": 140400,
          "time": "140400i",
          "velocity": 0.7874015748031497
        },
        {
          "duration": 0.15000000000000568,
          "durationTicks": 120,
          "midi": 71,
          "name": "B4",
          "ticks": 140760,
          "time": "140760i",
          "velocity": 0.7874015748031497
        },
        {
          "duration": 0.15000000000000568,
          "durationTicks": 120,
          "midi": 69,
          "name": "A4",
          "ticks": 140880,
          "time": "140880i",
          "velocity": 0.7874015748031497
        },
        {
          "duration": 0.15000000000000568,
          "durationTicks": 120,
          "midi": 67,
          "name": "G4",
          "ticks": 141000,
          "time": "141000i",
          "velocity": 0.7874015748031497
        },
        {
          "duration": 0.29999999999998295,
          "durationTicks": 240,
          "midi": 76,
          "name": "E5",
          "ticks": 141120,
          "time": "141120i",
          "velocity": 0.7874015748031497
        },
        {
          "duration": 0.30000000000001137,
          "durationTicks": 240,
          "midi": 64,
          "name": "E4",
          "ticks": 141360,
          "time": "141360i",
          "velocity": 0.7874015748031497
        },
        {
          "duration": 0.14999999999997726,
          "durationTicks": 120,
          "midi": 66,
          "name": "F#4",
          "ticks": 141720,
          "time": "141720i",
          "velocity": 0.7874015748031497
        },
        {
          "duration": 0.15000000000000568,
          "durationTicks": 120,
          "midi": 67,
          "name": "G4",
          "ticks": 141840,
          "time": "141840i",
          "velocity": 0.7874015748031497
        },
        {
          "duration": 0.15000000000000568,
          "durationTicks": 120,
          "midi": 69,
          "name": "A4",
          "ticks": 141960,
          "time": "141960i",
          "velocity": 0.7874015748031497
        },
        {
          "duration": 0.15000000000000568,
          "durationTicks": 120,
          "midi": 69,
          "name": "A4",
          "ticks": 142080,
          "time": "142080i",
          "velocity": 0.7874015748031497
        },
        {
          "duration": 0.15000000000000568,
          "durationTicks": 120,
          "midi": 60,
          "name": "C4",
          "ticks": 142200,
          "time": "142200i",
          "velocity": 0.7874015748031497
        },
        {
          "duration": 0.29999999999998295,
          "durationTicks": 240,
          "midi": 69,
          "name": "A4",
          "ticks": 142320,
          "time": "142320i",
          "velocity": 0.7874015748031497
        },
        {
          "duration": 0.15000000000000568,
          "durationTicks": 120,
          "midi": 72,
          "name": "C5",
          "ticks": 142680,
          "time": "142680i",
          "velocity": 0.7874015748031497
        },
        {
          "duration": 0.15000000000000568,
          "durationTicks": 120,
          "midi": 69,
          "name": "A4",
          "ticks": 142800,
          "time": "142800i",
          "velocity": 0.7874015748031497
        },
        {
          "duration": 0.14999999999997726,
          "durationTicks": 120,
          "midi": 64,
          "name": "E4",
          "ticks": 142920,
          "time": "142920i",
          "velocity": 0.7874015748031497
        },
        {
          "duration": 0.30000000000001137,
          "durationTicks": 240,
          "midi": 62,
          "name": "D4",
          "ticks": 143040,
          "time": "143040i",
          "velocity": 0.7874015748031497
        },
        {
          "duration": 0.30000000000001137,
          "durationTicks": 240,
          "midi": 60,
          "name": "C4",
          "ticks": 143280,
          "time": "143280i",
          "velocity": 0.7874015748031497
        },
        {
          "duration": 0.14999999999997726,
          "durationTicks": 120,
          "midi": 59,
          "name": "B3",
          "ticks": 143520,
          "time": "143520i",
          "velocity": 0.7874015748031497
        },
        {
          "duration": 0.15000000000000568,
          "durationTicks": 120,
          "midi": 62,
          "name": "D4",
          "ticks": 143640,
          "time": "143640i",
          "velocity": 0.7874015748031497
        },
        {
          "duration": 0.15000000000000568,
          "durationTicks": 120,
          "midi": 64,
          "name": "E4",
          "ticks": 143760,
          "time": "143760i",
          "velocity": 0.7874015748031497
        },
        {
          "duration": 0.15000000000000568,
          "durationTicks": 120,
          "midi": 66,
          "name": "F#4",
          "ticks": 143880,
          "time": "143880i",
          "velocity": 0.7874015748031497
        },
        {
          "duration": 0.15000000000000568,
          "durationTicks": 120,
          "midi": 67,
          "name": "G4",
          "ticks": 144000,
          "time": "144000i",
          "velocity": 0.7874015748031497
        },
        {
          "duration": 0.14999999999997726,
          "durationTicks": 120,
          "midi": 71,
          "name": "B4",
          "ticks": 144120,
          "time": "144120i",
          "velocity": 0.7874015748031497
        },
        {
          "duration": 0.15000000000000568,
          "durationTicks": 120,
          "midi": 69,
          "name": "A4",
          "ticks": 144240,
          "time": "144240i",
          "velocity": 0.7874015748031497
        },
        {
          "duration": 0.15000000000000568,
          "durationTicks": 120,
          "midi": 67,
          "name": "G4",
          "ticks": 144360,
          "time": "144360i",
          "velocity": 0.7874015748031497
        },
        {
          "duration": 0.15000000000000568,
          "durationTicks": 120,
          "midi": 74,
          "name": "D5",
          "ticks": 144480,
          "time": "144480i",
          "velocity": 0.7874015748031497
        },
        {
          "duration": 0.15000000000000568,
          "durationTicks": 120,
          "midi": 79,
          "name": "G5",
          "ticks": 144600,
          "time": "144600i",
          "velocity": 0.7874015748031497
        },
        {
          "duration": 0.75,
          "durationTicks": 600,
          "midi": 83,
          "name": "B5",
          "ticks": 144720,
          "time": "144720i",
          "velocity": 0.7874015748031497
        },
        {
          "duration": 0.14999999999997726,
          "durationTicks": 120,
          "midi": 81,
          "name": "A5",
          "ticks": 145320,
          "time": "145320i",
          "velocity": 0.7874015748031497
        },
        {
          "duration": 0.15000000000000568,
          "durationTicks": 120,
          "midi": 79,
          "name": "G5",
          "ticks": 145440,
          "time": "145440i",
          "velocity": 0.7874015748031497
        },
        {
          "duration": 0.15000000000000568,
          "durationTicks": 120,
          "midi": 78,
          "name": "F#5",
          "ticks": 145560,
          "time": "145560i",
          "velocity": 0.7874015748031497
        },
        {
          "duration": 0.15000000000000568,
          "durationTicks": 120,
          "midi": 76,
          "name": "E5",
          "ticks": 145680,
          "time": "145680i",
          "velocity": 0.7874015748031497
        },
        {
          "duration": 0.15000000000000568,
          "durationTicks": 120,
          "midi": 74,
          "name": "D5",
          "ticks": 145800,
          "time": "145800i",
          "velocity": 0.7874015748031497
        },
        {
          "duration": 0.29999999999998295,
          "durationTicks": 240,
          "midi": 73,
          "name": "C#5",
          "ticks": 145920,
          "time": "145920i",
          "velocity": 0.7874015748031497
        },
        {
          "duration": 0.30000000000001137,
          "durationTicks": 240,
          "midi": 79,
          "name": "G5",
          "ticks": 146160,
          "time": "146160i",
          "velocity": 0.7874015748031497
        },
        {
          "duration": 0.14999999999997726,
          "durationTicks": 120,
          "midi": 76,
          "name": "E5",
          "ticks": 146520,
          "time": "146520i",
          "velocity": 0.7874015748031497
        },
        {
          "duration": 0.15000000000000568,
          "durationTicks": 120,
          "midi": 78,
          "name": "F#5",
          "ticks": 146640,
          "time": "146640i",
          "velocity": 0.7874015748031497
        },
        {
          "duration": 0.15000000000000568,
          "durationTicks": 120,
          "midi": 79,
          "name": "G5",
          "ticks": 146760,
          "time": "146760i",
          "velocity": 0.7874015748031497
        },
        {
          "duration": 0.30000000000001137,
          "durationTicks": 240,
          "midi": 78,
          "name": "F#5",
          "ticks": 146880,
          "time": "146880i",
          "velocity": 0.7874015748031497
        },
        {
          "duration": 2.0999999999999943,
          "durationTicks": 1680,
          "midi": 69,
          "name": "A4",
          "ticks": 147120,
          "time": "147120i",
          "velocity": 0.7874015748031497
        },
        {
          "duration": 1.1999999999999886,
          "durationTicks": 960,
          "midi": 67,
          "name": "G4",
          "ticks": 151200,
          "time": "151200i",
          "velocity": 0.7874015748031497
        },
        {
          "duration": 0.5999999999999943,
          "durationTicks": 480,
          "midi": 66,
          "name": "F#4",
          "ticks": 152160,
          "time": "152160i",
          "velocity": 0.7874015748031497
        },
        {
          "duration": 0.6000000000000227,
          "durationTicks": 480,
          "midi": 64,
          "name": "E4",
          "ticks": 152640,
          "time": "152640i",
          "velocity": 0.7874015748031497
        },
        {
          "duration": 0.5999999999999943,
          "durationTicks": 480,
          "midi": 62,
          "name": "D4",
          "ticks": 153120,
          "time": "153120i",
          "velocity": 0.7874015748031497
        },
        {
          "duration": 0.30000000000001137,
          "durationTicks": 240,
          "midi": 66,
          "name": "F#4",
          "ticks": 153840,
          "time": "153840i",
          "velocity": 0.7874015748031497
        },
        {
          "duration": 0.30000000000001137,
          "durationTicks": 240,
          "midi": 67,
          "name": "G4",
          "ticks": 154080,
          "time": "154080i",
          "velocity": 0.7874015748031497
        },
        {
          "duration": 0.29999999999998295,
          "durationTicks": 240,
          "midi": 69,
          "name": "A4",
          "ticks": 154320,
          "time": "154320i",
          "velocity": 0.7874015748031497
        },
        {
          "duration": 0.30000000000001137,
          "durationTicks": 240,
          "midi": 71,
          "name": "B4",
          "ticks": 154560,
          "time": "154560i",
          "velocity": 0.7874015748031497
        },
        {
          "duration": 0.29999999999998295,
          "durationTicks": 240,
          "midi": 69,
          "name": "A4",
          "ticks": 154800,
          "time": "154800i",
          "velocity": 0.7874015748031497
        },
        {
          "duration": 1.200000000000017,
          "durationTicks": 960,
          "midi": 67,
          "name": "G4",
          "ticks": 155040,
          "time": "155040i",
          "velocity": 0.7874015748031497
        },
        {
          "duration": 0.5999999999999943,
          "durationTicks": 480,
          "midi": 66,
          "name": "F#4",
          "ticks": 156000,
          "time": "156000i",
          "velocity": 0.7874015748031497
        },
        {
          "duration": 0.5999999999999943,
          "durationTicks": 480,
          "midi": 64,
          "name": "E4",
          "ticks": 156480,
          "time": "156480i",
          "velocity": 0.7874015748031497
        },
        {
          "duration": 0.5999999999999943,
          "durationTicks": 480,
          "midi": 62,
          "name": "D4",
          "ticks": 156960,
          "time": "156960i",
          "velocity": 0.7874015748031497
        },
        {
          "duration": 0.30000000000001137,
          "durationTicks": 240,
          "midi": 66,
          "name": "F#4",
          "ticks": 157680,
          "time": "157680i",
          "velocity": 0.7874015748031497
        },
        {
          "duration": 0.29999999999998295,
          "durationTicks": 240,
          "midi": 67,
          "name": "G4",
          "ticks": 157920,
          "time": "157920i",
          "velocity": 0.7874015748031497
        },
        {
          "duration": 0.30000000000001137,
          "durationTicks": 240,
          "midi": 69,
          "name": "A4",
          "ticks": 158160,
          "time": "158160i",
          "velocity": 0.7874015748031497
        },
        {
          "duration": 0.29999999999998295,
          "durationTicks": 240,
          "midi": 71,
          "name": "B4",
          "ticks": 158400,
          "time": "158400i",
          "velocity": 0.7874015748031497
        },
        {
          "duration": 0.30000000000001137,
          "durationTicks": 240,
          "midi": 69,
          "name": "A4",
          "ticks": 158640,
          "time": "158640i",
          "velocity": 0.7874015748031497
        },
        {
          "duration": 1.1999999999999886,
          "durationTicks": 960,
          "midi": 67,
          "name": "G4",
          "ticks": 158880,
          "time": "158880i",
          "velocity": 0.7874015748031497
        },
        {
          "duration": 0.6000000000000227,
          "durationTicks": 480,
          "midi": 66,
          "name": "F#4",
          "ticks": 159840,
          "time": "159840i",
          "velocity": 0.7874015748031497
        },
        {
          "duration": 2.3999999999999773,
          "durationTicks": 1920,
          "midi": 64,
          "name": "E4",
          "ticks": 160320,
          "time": "160320i",
          "velocity": 0.7874015748031497
        },
        {
          "duration": 0.15000000000000568,
          "durationTicks": 120,
          "midi": 62,
          "name": "D4",
          "ticks": 162360,
          "time": "162360i",
          "velocity": 0.7874015748031497
        },
        {
          "duration": 0.15000000000000568,
          "durationTicks": 120,
          "midi": 64,
          "name": "E4",
          "ticks": 162480,
          "time": "162480i",
          "velocity": 0.7874015748031497
        },
        {
          "duration": 0.15000000000000568,
          "durationTicks": 120,
          "midi": 66,
          "name": "F#4",
          "ticks": 162600,
          "time": "162600i",
          "velocity": 0.7874015748031497
        },
        {
          "duration": 0.14999999999997726,
          "durationTicks": 120,
          "midi": 67,
          "name": "G4",
          "ticks": 162720,
          "time": "162720i",
          "velocity": 0.7874015748031497
        },
        {
          "duration": 0.15000000000000568,
          "durationTicks": 120,
          "midi": 71,
          "name": "B4",
          "ticks": 162840,
          "time": "162840i",
          "velocity": 0.7874015748031497
        },
        {
          "duration": 0.15000000000000568,
          "durationTicks": 120,
          "midi": 69,
          "name": "A4",
          "ticks": 162960,
          "time": "162960i",
          "velocity": 0.7874015748031497
        },
        {
          "duration": 0.15000000000000568,
          "durationTicks": 120,
          "midi": 67,
          "name": "G4",
          "ticks": 163080,
          "time": "163080i",
          "velocity": 0.7874015748031497
        },
        {
          "duration": 0.29999999999998295,
          "durationTicks": 240,
          "midi": 74,
          "name": "D5",
          "ticks": 163200,
          "time": "163200i",
          "velocity": 0.7874015748031497
        },
        {
          "duration": 0.30000000000001137,
          "durationTicks": 240,
          "midi": 62,
          "name": "D4",
          "ticks": 163440,
          "time": "163440i",
          "velocity": 0.7874015748031497
        },
        {
          "duration": 0.15000000000000568,
          "durationTicks": 120,
          "midi": 57,
          "name": "A3",
          "ticks": 163800,
          "time": "163800i",
          "velocity": 0.7874015748031497
        },
        {
          "duration": 0.14999999999997726,
          "durationTicks": 120,
          "midi": 59,
          "name": "B3",
          "ticks": 163920,
          "time": "163920i",
          "velocity": 0.7874015748031497
        },
        {
          "duration": 0.15000000000000568,
          "durationTicks": 120,
          "midi": 61,
          "name": "C#4",
          "ticks": 164040,
          "time": "164040i",
          "velocity": 0.7874015748031497
        },
        {
          "duration": 0.15000000000000568,
          "durationTicks": 120,
          "midi": 62,
          "name": "D4",
          "ticks": 164160,
          "time": "164160i",
          "velocity": 0.7874015748031497
        },
        {
          "duration": 0.15000000000000568,
          "durationTicks": 120,
          "midi": 66,
          "name": "F#4",
          "ticks": 164280,
          "time": "164280i",
          "velocity": 0.7874015748031497
        },
        {
          "duration": 0.15000000000000568,
          "durationTicks": 120,
          "midi": 64,
          "name": "E4",
          "ticks": 164400,
          "time": "164400i",
          "velocity": 0.7874015748031497
        },
        {
          "duration": 0.14999999999997726,
          "durationTicks": 120,
          "midi": 62,
          "name": "D4",
          "ticks": 164520,
          "time": "164520i",
          "velocity": 0.7874015748031497
        },
        {
          "duration": 0.15000000000000568,
          "durationTicks": 120,
          "midi": 69,
          "name": "A4",
          "ticks": 164640,
          "time": "164640i",
          "velocity": 0.7874015748031497
        },
        {
          "duration": 0.15000000000000568,
          "durationTicks": 120,
          "midi": 67,
          "name": "G4",
          "ticks": 164760,
          "time": "164760i",
          "velocity": 0.7874015748031497
        },
        {
          "duration": 0.15000000000000568,
          "durationTicks": 120,
          "midi": 66,
          "name": "F#4",
          "ticks": 164880,
          "time": "164880i",
          "velocity": 0.7874015748031497
        },
        {
          "duration": 0.15000000000000568,
          "durationTicks": 120,
          "midi": 74,
          "name": "D5",
          "ticks": 165000,
          "time": "165000i",
          "velocity": 0.7874015748031497
        },
        {
          "duration": 0.07500000000001705,
          "durationTicks": 60,
          "midi": 76,
          "name": "E5",
          "ticks": 165240,
          "time": "165240i",
          "velocity": 0.7874015748031497
        },
        {
          "duration": 0.07499999999998863,
          "durationTicks": 60,
          "midi": 78,
          "name": "F#5",
          "ticks": 165300,
          "time": "165300i",
          "velocity": 0.7874015748031497
        },
        {
          "duration": 0.15000000000000568,
          "durationTicks": 120,
          "midi": 79,
          "name": "G5",
          "ticks": 165360,
          "time": "165360i",
          "velocity": 0.7874015748031497
        },
        {
          "duration": 0.30000000000001137,
          "durationTicks": 240,
          "midi": 67,
          "name": "G4",
          "ticks": 165480,
          "time": "165480i",
          "velocity": 0.7874015748031497
        },
        {
          "duration": 0.07499999999998863,
          "durationTicks": 60,
          "midi": 69,
          "name": "A4",
          "ticks": 165720,
          "time": "165720i",
          "velocity": 0.7874015748031497
        },
        {
          "duration": 0.07499999999998863,
          "durationTicks": 60,
          "midi": 71,
          "name": "B4",
          "ticks": 165780,
          "time": "165780i",
          "velocity": 0.7874015748031497
        },
        {
          "duration": 0.15000000000000568,
          "durationTicks": 120,
          "midi": 64,
          "name": "E4",
          "ticks": 165840,
          "time": "165840i",
          "velocity": 0.7874015748031497
        },
        {
          "duration": 0.07500000000001705,
          "durationTicks": 60,
          "midi": 66,
          "name": "F#4",
          "ticks": 165960,
          "time": "165960i",
          "velocity": 0.7874015748031497
        },
        {
          "duration": 0.07499999999998863,
          "durationTicks": 60,
          "midi": 67,
          "name": "G4",
          "ticks": 166020,
          "time": "166020i",
          "velocity": 0.7874015748031497
        },
        {
          "duration": 0.15000000000000568,
          "durationTicks": 120,
          "midi": 66,
          "name": "F#4",
          "ticks": 166080,
          "time": "166080i",
          "velocity": 0.7874015748031497
        },
        {
          "duration": 0.15000000000000568,
          "durationTicks": 120,
          "midi": 79,
          "name": "G5",
          "ticks": 166200,
          "time": "166200i",
          "velocity": 0.7874015748031497
        },
        {
          "duration": 0.14999999999997726,
          "durationTicks": 120,
          "midi": 78,
          "name": "F#5",
          "ticks": 166320,
          "time": "166320i",
          "velocity": 0.7874015748031497
        },
        {
          "duration": 0.15000000000000568,
          "durationTicks": 120,
          "midi": 76,
          "name": "E5",
          "ticks": 166440,
          "time": "166440i",
          "velocity": 0.7874015748031497
        },
        {
          "duration": 0.15000000000000568,
          "durationTicks": 120,
          "midi": 74,
          "name": "D5",
          "ticks": 166560,
          "time": "166560i",
          "velocity": 0.7874015748031497
        },
        {
          "duration": 0.15000000000000568,
          "durationTicks": 120,
          "midi": 71,
          "name": "B4",
          "ticks": 166680,
          "time": "166680i",
          "velocity": 0.7874015748031497
        },
        {
          "duration": 0.15000000000000568,
          "durationTicks": 120,
          "midi": 72,
          "name": "C5",
          "ticks": 166800,
          "time": "166800i",
          "velocity": 0.7874015748031497
        },
        {
          "duration": 0.14999999999997726,
          "durationTicks": 120,
          "midi": 74,
          "name": "D5",
          "ticks": 166920,
          "time": "166920i",
          "velocity": 0.7874015748031497
        },
        {
          "duration": 0.15000000000000568,
          "durationTicks": 120,
          "midi": 67,
          "name": "G4",
          "ticks": 167040,
          "time": "167040i",
          "velocity": 0.7874015748031497
        },
        {
          "duration": 0.15000000000000568,
          "durationTicks": 120,
          "midi": 66,
          "name": "F#4",
          "ticks": 167160,
          "time": "167160i",
          "velocity": 0.7874015748031497
        },
        {
          "duration": 0.15000000000000568,
          "durationTicks": 120,
          "midi": 67,
          "name": "G4",
          "ticks": 167280,
          "time": "167280i",
          "velocity": 0.7874015748031497
        },
        {
          "duration": 0.15000000000000568,
          "durationTicks": 120,
          "midi": 69,
          "name": "A4",
          "ticks": 167400,
          "time": "167400i",
          "velocity": 0.7874015748031497
        },
        {
          "duration": 0.14999999999997726,
          "durationTicks": 120,
          "midi": 71,
          "name": "B4",
          "ticks": 167520,
          "time": "167520i",
          "velocity": 0.7874015748031497
        },
        {
          "duration": 0.15000000000000568,
          "durationTicks": 120,
          "midi": 74,
          "name": "D5",
          "ticks": 167640,
          "time": "167640i",
          "velocity": 0.7874015748031497
        },
        {
          "duration": 0.15000000000000568,
          "durationTicks": 120,
          "midi": 72,
          "name": "C5",
          "ticks": 167760,
          "time": "167760i",
          "velocity": 0.7874015748031497
        },
        {
          "duration": 0.15000000000000568,
          "durationTicks": 120,
          "midi": 71,
          "name": "B4",
          "ticks": 167880,
          "time": "167880i",
          "velocity": 0.7874015748031497
        },
        {
          "duration": 0.15000000000000568,
          "durationTicks": 120,
          "midi": 76,
          "name": "E5",
          "ticks": 168000,
          "time": "168000i",
          "velocity": 0.7874015748031497
        },
        {
          "duration": 0.14999999999997726,
          "durationTicks": 120,
          "midi": 77,
          "name": "F5",
          "ticks": 168120,
          "time": "168120i",
          "velocity": 0.7874015748031497
        },
        {
          "duration": 0.15000000000000568,
          "durationTicks": 120,
          "midi": 76,
          "name": "E5",
          "ticks": 168240,
          "time": "168240i",
          "velocity": 0.7874015748031497
        },
        {
          "duration": 0.15000000000000568,
          "durationTicks": 120,
          "midi": 74,
          "name": "D5",
          "ticks": 168360,
          "time": "168360i",
          "velocity": 0.7874015748031497
        },
        {
          "duration": 0.15000000000000568,
          "durationTicks": 120,
          "midi": 72,
          "name": "C5",
          "ticks": 168480,
          "time": "168480i",
          "velocity": 0.7874015748031497
        },
        {
          "duration": 0.15000000000000568,
          "durationTicks": 120,
          "midi": 69,
          "name": "A4",
          "ticks": 168600,
          "time": "168600i",
          "velocity": 0.7874015748031497
        },
        {
          "duration": 0.14999999999997726,
          "durationTicks": 120,
          "midi": 71,
          "name": "B4",
          "ticks": 168720,
          "time": "168720i",
          "velocity": 0.7874015748031497
        },
        {
          "duration": 0.15000000000000568,
          "durationTicks": 120,
          "midi": 72,
          "name": "C5",
          "ticks": 168840,
          "time": "168840i",
          "velocity": 0.7874015748031497
        },
        {
          "duration": 0.15000000000000568,
          "durationTicks": 120,
          "midi": 66,
          "name": "F#4",
          "ticks": 168960,
          "time": "168960i",
          "velocity": 0.7874015748031497
        },
        {
          "duration": 0.15000000000000568,
          "durationTicks": 120,
          "midi": 61,
          "name": "C#4",
          "ticks": 169080,
          "time": "169080i",
          "velocity": 0.7874015748031497
        },
        {
          "duration": 0.15000000000000568,
          "durationTicks": 120,
          "midi": 62,
          "name": "D4",
          "ticks": 169200,
          "time": "169200i",
          "velocity": 0.7874015748031497
        },
        {
          "duration": 0.14999999999997726,
          "durationTicks": 120,
          "midi": 64,
          "name": "E4",
          "ticks": 169320,
          "time": "169320i",
          "velocity": 0.7874015748031497
        },
        {
          "duration": 0.15000000000000568,
          "durationTicks": 120,
          "midi": 66,
          "name": "F#4",
          "ticks": 169440,
          "time": "169440i",
          "velocity": 0.7874015748031497
        },
        {
          "duration": 0.15000000000000568,
          "durationTicks": 120,
          "midi": 69,
          "name": "A4",
          "ticks": 169560,
          "time": "169560i",
          "velocity": 0.7874015748031497
        },
        {
          "duration": 0.15000000000000568,
          "durationTicks": 120,
          "midi": 67,
          "name": "G4",
          "ticks": 169680,
          "time": "169680i",
          "velocity": 0.7874015748031497
        },
        {
          "duration": 0.15000000000000568,
          "durationTicks": 120,
          "midi": 66,
          "name": "F#4",
          "ticks": 169800,
          "time": "169800i",
          "velocity": 0.7874015748031497
        },
        {
          "duration": 0.14999999999997726,
          "durationTicks": 120,
          "midi": 71,
          "name": "B4",
          "ticks": 169920,
          "time": "169920i",
          "velocity": 0.7874015748031497
        },
        {
          "duration": 0.15000000000000568,
          "durationTicks": 120,
          "midi": 62,
          "name": "D4",
          "ticks": 170040,
          "time": "170040i",
          "velocity": 0.7874015748031497
        },
        {
          "duration": 0.15000000000000568,
          "durationTicks": 120,
          "midi": 64,
          "name": "E4",
          "ticks": 170160,
          "time": "170160i",
          "velocity": 0.7874015748031497
        },
        {
          "duration": 0.15000000000000568,
          "durationTicks": 120,
          "midi": 66,
          "name": "F#4",
          "ticks": 170280,
          "time": "170280i",
          "velocity": 0.7874015748031497
        },
        {
          "duration": 0.15000000000000568,
          "durationTicks": 120,
          "midi": 67,
          "name": "G4",
          "ticks": 170400,
          "time": "170400i",
          "velocity": 0.7874015748031497
        },
        {
          "duration": 0.14999999999997726,
          "durationTicks": 120,
          "midi": 71,
          "name": "B4",
          "ticks": 170520,
          "time": "170520i",
          "velocity": 0.7874015748031497
        },
        {
          "duration": 0.15000000000000568,
          "durationTicks": 120,
          "midi": 69,
          "name": "A4",
          "ticks": 170640,
          "time": "170640i",
          "velocity": 0.7874015748031497
        },
        {
          "duration": 0.15000000000000568,
          "durationTicks": 120,
          "midi": 67,
          "name": "G4",
          "ticks": 170760,
          "time": "170760i",
          "velocity": 0.7874015748031497
        },
        {
          "duration": 0.30000000000001137,
          "durationTicks": 240,
          "midi": 74,
          "name": "D5",
          "ticks": 170880,
          "time": "170880i",
          "velocity": 0.7874015748031497
        },
        {
          "duration": 0.29999999999998295,
          "durationTicks": 240,
          "midi": 62,
          "name": "D4",
          "ticks": 171120,
          "time": "171120i",
          "velocity": 0.7874015748031497
        },
        {
          "duration": 0.15000000000000568,
          "durationTicks": 120,
          "midi": 57,
          "name": "A3",
          "ticks": 171480,
          "time": "171480i",
          "velocity": 0.7874015748031497
        },
        {
          "duration": 0.15000000000000568,
          "durationTicks": 120,
          "midi": 59,
          "name": "B3",
          "ticks": 171600,
          "time": "171600i",
          "velocity": 0.7874015748031497
        },
        {
          "duration": 0.14999999999997726,
          "durationTicks": 120,
          "midi": 61,
          "name": "C#4",
          "ticks": 171720,
          "time": "171720i",
          "velocity": 0.7874015748031497
        },
        {
          "duration": 0.15000000000000568,
          "durationTicks": 120,
          "midi": 62,
          "name": "D4",
          "ticks": 171840,
          "time": "171840i",
          "velocity": 0.7874015748031497
        },
        {
          "duration": 0.15000000000000568,
          "durationTicks": 120,
          "midi": 66,
          "name": "F#4",
          "ticks": 171960,
          "time": "171960i",
          "velocity": 0.7874015748031497
        },
        {
          "duration": 0.15000000000000568,
          "durationTicks": 120,
          "midi": 64,
          "name": "E4",
          "ticks": 172080,
          "time": "172080i",
          "velocity": 0.7874015748031497
        },
        {
          "duration": 0.15000000000000568,
          "durationTicks": 120,
          "midi": 62,
          "name": "D4",
          "ticks": 172200,
          "time": "172200i",
          "velocity": 0.7874015748031497
        },
        {
          "duration": 0.14999999999997726,
          "durationTicks": 120,
          "midi": 69,
          "name": "A4",
          "ticks": 172320,
          "time": "172320i",
          "velocity": 0.7874015748031497
        },
        {
          "duration": 0.15000000000000568,
          "durationTicks": 120,
          "midi": 67,
          "name": "G4",
          "ticks": 172440,
          "time": "172440i",
          "velocity": 0.7874015748031497
        },
        {
          "duration": 0.15000000000000568,
          "durationTicks": 120,
          "midi": 66,
          "name": "F#4",
          "ticks": 172560,
          "time": "172560i",
          "velocity": 0.7874015748031497
        },
        {
          "duration": 0.15000000000000568,
          "durationTicks": 120,
          "midi": 74,
          "name": "D5",
          "ticks": 172680,
          "time": "172680i",
          "velocity": 0.7874015748031497
        },
        {
          "duration": 0.07499999999998863,
          "durationTicks": 60,
          "midi": 76,
          "name": "E5",
          "ticks": 172920,
          "time": "172920i",
          "velocity": 0.7874015748031497
        },
        {
          "duration": 0.07499999999998863,
          "durationTicks": 60,
          "midi": 78,
          "name": "F#5",
          "ticks": 172980,
          "time": "172980i",
          "velocity": 0.7874015748031497
        },
        {
          "duration": 0.15000000000000568,
          "durationTicks": 120,
          "midi": 79,
          "name": "G5",
          "ticks": 173040,
          "time": "173040i",
          "velocity": 0.7874015748031497
        },
        {
          "duration": 0.30000000000001137,
          "durationTicks": 240,
          "midi": 67,
          "name": "G4",
          "ticks": 173160,
          "time": "173160i",
          "velocity": 0.7874015748031497
        },
        {
          "duration": 0.07499999999998863,
          "durationTicks": 60,
          "midi": 69,
          "name": "A4",
          "ticks": 173400,
          "time": "173400i",
          "velocity": 0.7874015748031497
        },
        {
          "duration": 0.07500000000001705,
          "durationTicks": 60,
          "midi": 71,
          "name": "B4",
          "ticks": 173460,
          "time": "173460i",
          "velocity": 0.7874015748031497
        },
        {
          "duration": 0.14999999999997726,
          "durationTicks": 120,
          "midi": 64,
          "name": "E4",
          "ticks": 173520,
          "time": "173520i",
          "velocity": 0.7874015748031497
        },
        {
          "duration": 0.07500000000001705,
          "durationTicks": 60,
          "midi": 66,
          "name": "F#4",
          "ticks": 173640,
          "time": "173640i",
          "velocity": 0.7874015748031497
        },
        {
          "duration": 0.07499999999998863,
          "durationTicks": 60,
          "midi": 67,
          "name": "G4",
          "ticks": 173700,
          "time": "173700i",
          "velocity": 0.7874015748031497
        },
        {
          "duration": 0.15000000000000568,
          "durationTicks": 120,
          "midi": 66,
          "name": "F#4",
          "ticks": 173760,
          "time": "173760i",
          "velocity": 0.7874015748031497
        },
        {
          "duration": 0.15000000000000568,
          "durationTicks": 120,
          "midi": 79,
          "name": "G5",
          "ticks": 173880,
          "time": "173880i",
          "velocity": 0.7874015748031497
        },
        {
          "duration": 0.15000000000000568,
          "durationTicks": 120,
          "midi": 78,
          "name": "F#5",
          "ticks": 174000,
          "time": "174000i",
          "velocity": 0.7874015748031497
        },
        {
          "duration": 0.14999999999997726,
          "durationTicks": 120,
          "midi": 76,
          "name": "E5",
          "ticks": 174120,
          "time": "174120i",
          "velocity": 0.7874015748031497
        },
        {
          "duration": 0.15000000000000568,
          "durationTicks": 120,
          "midi": 74,
          "name": "D5",
          "ticks": 174240,
          "time": "174240i",
          "velocity": 0.7874015748031497
        },
        {
          "duration": 0.15000000000000568,
          "durationTicks": 120,
          "midi": 71,
          "name": "B4",
          "ticks": 174360,
          "time": "174360i",
          "velocity": 0.7874015748031497
        },
        {
          "duration": 0.15000000000000568,
          "durationTicks": 120,
          "midi": 72,
          "name": "C5",
          "ticks": 174480,
          "time": "174480i",
          "velocity": 0.7874015748031497
        },
        {
          "duration": 0.15000000000000568,
          "durationTicks": 120,
          "midi": 74,
          "name": "D5",
          "ticks": 174600,
          "time": "174600i",
          "velocity": 0.7874015748031497
        },
        {
          "duration": 0.14999999999997726,
          "durationTicks": 120,
          "midi": 67,
          "name": "G4",
          "ticks": 174720,
          "time": "174720i",
          "velocity": 0.7874015748031497
        },
        {
          "duration": 0.15000000000000568,
          "durationTicks": 120,
          "midi": 66,
          "name": "F#4",
          "ticks": 174840,
          "time": "174840i",
          "velocity": 0.7874015748031497
        },
        {
          "duration": 0.15000000000000568,
          "durationTicks": 120,
          "midi": 67,
          "name": "G4",
          "ticks": 174960,
          "time": "174960i",
          "velocity": 0.7874015748031497
        },
        {
          "duration": 0.15000000000000568,
          "durationTicks": 120,
          "midi": 69,
          "name": "A4",
          "ticks": 175080,
          "time": "175080i",
          "velocity": 0.7874015748031497
        },
        {
          "duration": 0.15000000000000568,
          "durationTicks": 120,
          "midi": 71,
          "name": "B4",
          "ticks": 175200,
          "time": "175200i",
          "velocity": 0.7874015748031497
        },
        {
          "duration": 0.14999999999997726,
          "durationTicks": 120,
          "midi": 74,
          "name": "D5",
          "ticks": 175320,
          "time": "175320i",
          "velocity": 0.7874015748031497
        },
        {
          "duration": 0.15000000000000568,
          "durationTicks": 120,
          "midi": 72,
          "name": "C5",
          "ticks": 175440,
          "time": "175440i",
          "velocity": 0.7874015748031497
        },
        {
          "duration": 0.15000000000000568,
          "durationTicks": 120,
          "midi": 71,
          "name": "B4",
          "ticks": 175560,
          "time": "175560i",
          "velocity": 0.7874015748031497
        },
        {
          "duration": 0.15000000000000568,
          "durationTicks": 120,
          "midi": 76,
          "name": "E5",
          "ticks": 175680,
          "time": "175680i",
          "velocity": 0.7874015748031497
        },
        {
          "duration": 0.15000000000000568,
          "durationTicks": 120,
          "midi": 77,
          "name": "F5",
          "ticks": 175800,
          "time": "175800i",
          "velocity": 0.7874015748031497
        },
        {
          "duration": 0.14999999999997726,
          "durationTicks": 120,
          "midi": 76,
          "name": "E5",
          "ticks": 175920,
          "time": "175920i",
          "velocity": 0.7874015748031497
        },
        {
          "duration": 0.15000000000000568,
          "durationTicks": 120,
          "midi": 74,
          "name": "D5",
          "ticks": 176040,
          "time": "176040i",
          "velocity": 0.7874015748031497
        },
        {
          "duration": 0.15000000000000568,
          "durationTicks": 120,
          "midi": 72,
          "name": "C5",
          "ticks": 176160,
          "time": "176160i",
          "velocity": 0.7874015748031497
        },
        {
          "duration": 0.15000000000000568,
          "durationTicks": 120,
          "midi": 69,
          "name": "A4",
          "ticks": 176280,
          "time": "176280i",
          "velocity": 0.7874015748031497
        },
        {
          "duration": 0.15000000000000568,
          "durationTicks": 120,
          "midi": 71,
          "name": "B4",
          "ticks": 176400,
          "time": "176400i",
          "velocity": 0.7874015748031497
        },
        {
          "duration": 0.14999999999997726,
          "durationTicks": 120,
          "midi": 72,
          "name": "C5",
          "ticks": 176520,
          "time": "176520i",
          "velocity": 0.7874015748031497
        },
        {
          "duration": 0.15000000000000568,
          "durationTicks": 120,
          "midi": 66,
          "name": "F#4",
          "ticks": 176640,
          "time": "176640i",
          "velocity": 0.7874015748031497
        },
        {
          "duration": 0.15000000000000568,
          "durationTicks": 120,
          "midi": 61,
          "name": "C#4",
          "ticks": 176760,
          "time": "176760i",
          "velocity": 0.7874015748031497
        },
        {
          "duration": 0.15000000000000568,
          "durationTicks": 120,
          "midi": 62,
          "name": "D4",
          "ticks": 176880,
          "time": "176880i",
          "velocity": 0.7874015748031497
        },
        {
          "duration": 0.15000000000000568,
          "durationTicks": 120,
          "midi": 64,
          "name": "E4",
          "ticks": 177000,
          "time": "177000i",
          "velocity": 0.7874015748031497
        },
        {
          "duration": 0.14999999999997726,
          "durationTicks": 120,
          "midi": 66,
          "name": "F#4",
          "ticks": 177120,
          "time": "177120i",
          "velocity": 0.7874015748031497
        },
        {
          "duration": 0.15000000000000568,
          "durationTicks": 120,
          "midi": 69,
          "name": "A4",
          "ticks": 177240,
          "time": "177240i",
          "velocity": 0.7874015748031497
        },
        {
          "duration": 0.15000000000000568,
          "durationTicks": 120,
          "midi": 67,
          "name": "G4",
          "ticks": 177360,
          "time": "177360i",
          "velocity": 0.7874015748031497
        },
        {
          "duration": 0.15000000000000568,
          "durationTicks": 120,
          "midi": 66,
          "name": "F#4",
          "ticks": 177480,
          "time": "177480i",
          "velocity": 0.7874015748031497
        },
        {
          "duration": 0.15000000000000568,
          "durationTicks": 120,
          "midi": 71,
          "name": "B4",
          "ticks": 177600,
          "time": "177600i",
          "velocity": 0.7874015748031497
        },
        {
          "duration": 0.14999999999997726,
          "durationTicks": 120,
          "midi": 62,
          "name": "D4",
          "ticks": 177720,
          "time": "177720i",
          "velocity": 0.7874015748031497
        },
        {
          "duration": 0.15000000000000568,
          "durationTicks": 120,
          "midi": 64,
          "name": "E4",
          "ticks": 177840,
          "time": "177840i",
          "velocity": 0.7874015748031497
        },
        {
          "duration": 0.15000000000000568,
          "durationTicks": 120,
          "midi": 66,
          "name": "F#4",
          "ticks": 177960,
          "time": "177960i",
          "velocity": 0.7874015748031497
        },
        {
          "duration": 0.15000000000000568,
          "durationTicks": 120,
          "midi": 67,
          "name": "G4",
          "ticks": 178080,
          "time": "178080i",
          "velocity": 0.7874015748031497
        },
        {
          "duration": 0.15000000000000568,
          "durationTicks": 120,
          "midi": 71,
          "name": "B4",
          "ticks": 178200,
          "time": "178200i",
          "velocity": 0.7874015748031497
        },
        {
          "duration": 0.14999999999997726,
          "durationTicks": 120,
          "midi": 69,
          "name": "A4",
          "ticks": 178320,
          "time": "178320i",
          "velocity": 0.7874015748031497
        },
        {
          "duration": 0.15000000000000568,
          "durationTicks": 120,
          "midi": 67,
          "name": "G4",
          "ticks": 178440,
          "time": "178440i",
          "velocity": 0.7874015748031497
        },
        {
          "duration": 0.30000000000001137,
          "durationTicks": 240,
          "midi": 74,
          "name": "D5",
          "ticks": 178560,
          "time": "178560i",
          "velocity": 0.7874015748031497
        },
        {
          "duration": 0.29999999999998295,
          "durationTicks": 240,
          "midi": 62,
          "name": "D4",
          "ticks": 178800,
          "time": "178800i",
          "velocity": 0.7874015748031497
        },
        {
          "duration": 0.15000000000000568,
          "durationTicks": 120,
          "midi": 57,
          "name": "A3",
          "ticks": 179160,
          "time": "179160i",
          "velocity": 0.7874015748031497
        },
        {
          "duration": 0.15000000000000568,
          "durationTicks": 120,
          "midi": 59,
          "name": "B3",
          "ticks": 179280,
          "time": "179280i",
          "velocity": 0.7874015748031497
        },
        {
          "duration": 0.15000000000000568,
          "durationTicks": 120,
          "midi": 61,
          "name": "C#4",
          "ticks": 179400,
          "time": "179400i",
          "velocity": 0.7874015748031497
        },
        {
          "duration": 0.14999999999997726,
          "durationTicks": 120,
          "midi": 62,
          "name": "D4",
          "ticks": 179520,
          "time": "179520i",
          "velocity": 0.7874015748031497
        },
        {
          "duration": 0.15000000000000568,
          "durationTicks": 120,
          "midi": 66,
          "name": "F#4",
          "ticks": 179640,
          "time": "179640i",
          "velocity": 0.7874015748031497
        },
        {
          "duration": 0.15000000000000568,
          "durationTicks": 120,
          "midi": 64,
          "name": "E4",
          "ticks": 179760,
          "time": "179760i",
          "velocity": 0.7874015748031497
        },
        {
          "duration": 0.15000000000000568,
          "durationTicks": 120,
          "midi": 62,
          "name": "D4",
          "ticks": 179880,
          "time": "179880i",
          "velocity": 0.7874015748031497
        },
        {
          "duration": 0.15000000000000568,
          "durationTicks": 120,
          "midi": 69,
          "name": "A4",
          "ticks": 180000,
          "time": "180000i",
          "velocity": 0.7874015748031497
        },
        {
          "duration": 0.14999999999997726,
          "durationTicks": 120,
          "midi": 67,
          "name": "G4",
          "ticks": 180120,
          "time": "180120i",
          "velocity": 0.7874015748031497
        },
        {
          "duration": 0.15000000000000568,
          "durationTicks": 120,
          "midi": 66,
          "name": "F#4",
          "ticks": 180240,
          "time": "180240i",
          "velocity": 0.7874015748031497
        },
        {
          "duration": 0.15000000000000568,
          "durationTicks": 120,
          "midi": 74,
          "name": "D5",
          "ticks": 180360,
          "time": "180360i",
          "velocity": 0.7874015748031497
        },
        {
          "duration": 0.07499999999998863,
          "durationTicks": 60,
          "midi": 76,
          "name": "E5",
          "ticks": 180600,
          "time": "180600i",
          "velocity": 0.7874015748031497
        },
        {
          "duration": 0.07500000000001705,
          "durationTicks": 60,
          "midi": 78,
          "name": "F#5",
          "ticks": 180660,
          "time": "180660i",
          "velocity": 0.7874015748031497
        },
        {
          "duration": 0.14999999999997726,
          "durationTicks": 120,
          "midi": 79,
          "name": "G5",
          "ticks": 180720,
          "time": "180720i",
          "velocity": 0.7874015748031497
        },
        {
          "duration": 0.30000000000001137,
          "durationTicks": 240,
          "midi": 67,
          "name": "G4",
          "ticks": 180840,
          "time": "180840i",
          "velocity": 0.7874015748031497
        },
        {
          "duration": 0.07499999999998863,
          "durationTicks": 60,
          "midi": 69,
          "name": "A4",
          "ticks": 181080,
          "time": "181080i",
          "velocity": 0.7874015748031497
        },
        {
          "duration": 0.07500000000001705,
          "durationTicks": 60,
          "midi": 71,
          "name": "B4",
          "ticks": 181140,
          "time": "181140i",
          "velocity": 0.7874015748031497
        },
        {
          "duration": 0.15000000000000568,
          "durationTicks": 120,
          "midi": 64,
          "name": "E4",
          "ticks": 181200,
          "time": "181200i",
          "velocity": 0.7874015748031497
        },
        {
          "duration": 0.07499999999998863,
          "durationTicks": 60,
          "midi": 66,
          "name": "F#4",
          "ticks": 181320,
          "time": "181320i",
          "velocity": 0.7874015748031497
        },
        {
          "duration": 0.07499999999998863,
          "durationTicks": 60,
          "midi": 67,
          "name": "G4",
          "ticks": 181380,
          "time": "181380i",
          "velocity": 0.7874015748031497
        },
        {
          "duration": 0.15000000000000568,
          "durationTicks": 120,
          "midi": 66,
          "name": "F#4",
          "ticks": 181440,
          "time": "181440i",
          "velocity": 0.7874015748031497
        },
        {
          "duration": 0.15000000000000568,
          "durationTicks": 120,
          "midi": 79,
          "name": "G5",
          "ticks": 181560,
          "time": "181560i",
          "velocity": 0.7874015748031497
        },
        {
          "duration": 0.15000000000000568,
          "durationTicks": 120,
          "midi": 78,
          "name": "F#5",
          "ticks": 181680,
          "time": "181680i",
          "velocity": 0.7874015748031497
        },
        {
          "duration": 0.15000000000000568,
          "durationTicks": 120,
          "midi": 76,
          "name": "E5",
          "ticks": 181800,
          "time": "181800i",
          "velocity": 0.7874015748031497
        },
        {
          "duration": 0.14999999999997726,
          "durationTicks": 120,
          "midi": 74,
          "name": "D5",
          "ticks": 181920,
          "time": "181920i",
          "velocity": 0.7874015748031497
        },
        {
          "duration": 0.15000000000000568,
          "durationTicks": 120,
          "midi": 71,
          "name": "B4",
          "ticks": 182040,
          "time": "182040i",
          "velocity": 0.7874015748031497
        },
        {
          "duration": 0.15000000000000568,
          "durationTicks": 120,
          "midi": 72,
          "name": "C5",
          "ticks": 182160,
          "time": "182160i",
          "velocity": 0.7874015748031497
        },
        {
          "duration": 0.15000000000000568,
          "durationTicks": 120,
          "midi": 74,
          "name": "D5",
          "ticks": 182280,
          "time": "182280i",
          "velocity": 0.7874015748031497
        },
        {
          "duration": 0.15000000000000568,
          "durationTicks": 120,
          "midi": 67,
          "name": "G4",
          "ticks": 182400,
          "time": "182400i",
          "velocity": 0.7874015748031497
        },
        {
          "duration": 0.14999999999997726,
          "durationTicks": 120,
          "midi": 66,
          "name": "F#4",
          "ticks": 182520,
          "time": "182520i",
          "velocity": 0.7874015748031497
        },
        {
          "duration": 0.15000000000000568,
          "durationTicks": 120,
          "midi": 67,
          "name": "G4",
          "ticks": 182640,
          "time": "182640i",
          "velocity": 0.7874015748031497
        },
        {
          "duration": 0.15000000000000568,
          "durationTicks": 120,
          "midi": 69,
          "name": "A4",
          "ticks": 182760,
          "time": "182760i",
          "velocity": 0.7874015748031497
        },
        {
          "duration": 0.15000000000000568,
          "durationTicks": 120,
          "midi": 71,
          "name": "B4",
          "ticks": 182880,
          "time": "182880i",
          "velocity": 0.7874015748031497
        },
        {
          "duration": 0.15000000000000568,
          "durationTicks": 120,
          "midi": 74,
          "name": "D5",
          "ticks": 183000,
          "time": "183000i",
          "velocity": 0.7874015748031497
        },
        {
          "duration": 0.14999999999997726,
          "durationTicks": 120,
          "midi": 72,
          "name": "C5",
          "ticks": 183120,
          "time": "183120i",
          "velocity": 0.7874015748031497
        },
        {
          "duration": 0.15000000000000568,
          "durationTicks": 120,
          "midi": 71,
          "name": "B4",
          "ticks": 183240,
          "time": "183240i",
          "velocity": 0.7874015748031497
        },
        {
          "duration": 0.15000000000000568,
          "durationTicks": 120,
          "midi": 76,
          "name": "E5",
          "ticks": 183360,
          "time": "183360i",
          "velocity": 0.7874015748031497
        },
        {
          "duration": 0.15000000000000568,
          "durationTicks": 120,
          "midi": 77,
          "name": "F5",
          "ticks": 183480,
          "time": "183480i",
          "velocity": 0.7874015748031497
        },
        {
          "duration": 0.15000000000000568,
          "durationTicks": 120,
          "midi": 76,
          "name": "E5",
          "ticks": 183600,
          "time": "183600i",
          "velocity": 0.7874015748031497
        },
        {
          "duration": 0.14999999999997726,
          "durationTicks": 120,
          "midi": 74,
          "name": "D5",
          "ticks": 183720,
          "time": "183720i",
          "velocity": 0.7874015748031497
        },
        {
          "duration": 0.15000000000000568,
          "durationTicks": 120,
          "midi": 72,
          "name": "C5",
          "ticks": 183840,
          "time": "183840i",
          "velocity": 0.7874015748031497
        },
        {
          "duration": 0.15000000000000568,
          "durationTicks": 120,
          "midi": 69,
          "name": "A4",
          "ticks": 183960,
          "time": "183960i",
          "velocity": 0.7874015748031497
        },
        {
          "duration": 0.15000000000000568,
          "durationTicks": 120,
          "midi": 71,
          "name": "B4",
          "ticks": 184080,
          "time": "184080i",
          "velocity": 0.7874015748031497
        },
        {
          "duration": 0.14999999999997726,
          "durationTicks": 120,
          "midi": 72,
          "name": "C5",
          "ticks": 184200,
          "time": "184200i",
          "velocity": 0.7874015748031497
        },
        {
          "duration": 0.15000000000000568,
          "durationTicks": 120,
          "midi": 66,
          "name": "F#4",
          "ticks": 184320,
          "time": "184320i",
          "velocity": 0.7874015748031497
        },
        {
          "duration": 0.15000000000000568,
          "durationTicks": 120,
          "midi": 61,
          "name": "C#4",
          "ticks": 184440,
          "time": "184440i",
          "velocity": 0.7874015748031497
        },
        {
          "duration": 0.15000000000000568,
          "durationTicks": 120,
          "midi": 62,
          "name": "D4",
          "ticks": 184560,
          "time": "184560i",
          "velocity": 0.7874015748031497
        },
        {
          "duration": 0.15000000000000568,
          "durationTicks": 120,
          "midi": 64,
          "name": "E4",
          "ticks": 184680,
          "time": "184680i",
          "velocity": 0.7874015748031497
        },
        {
          "duration": 0.14999999999997726,
          "durationTicks": 120,
          "midi": 66,
          "name": "F#4",
          "ticks": 184800,
          "time": "184800i",
          "velocity": 0.7874015748031497
        },
        {
          "duration": 0.15000000000000568,
          "durationTicks": 120,
          "midi": 69,
          "name": "A4",
          "ticks": 184920,
          "time": "184920i",
          "velocity": 0.7874015748031497
        },
        {
          "duration": 0.15000000000000568,
          "durationTicks": 120,
          "midi": 67,
          "name": "G4",
          "ticks": 185040,
          "time": "185040i",
          "velocity": 0.7874015748031497
        },
        {
          "duration": 0.15000000000000568,
          "durationTicks": 120,
          "midi": 66,
          "name": "F#4",
          "ticks": 185160,
          "time": "185160i",
          "velocity": 0.7874015748031497
        },
        {
          "duration": 2.4000000000000057,
          "durationTicks": 1920,
          "midi": 71,
          "name": "B4",
          "ticks": 185280,
          "time": "185280i",
          "velocity": 0.7874015748031497
        }
      ],
      "endOfTrackTicks": 187200
    },
    {
      "channel": 1,
      "controlChanges": {
        "7": [
          {
            "number": 7,
            "ticks": 0,
            "time": 0,
            "value": 0.7874015748031497
          }
        ],
        "10": [
          {
            "number": 10,
            "ticks": 0,
            "time": 0,
            "value": 0.5433070866141733
          }
        ]
      },
      "pitchBends": [],
      "instrument": {
        "family": "piano",
        "number": 6,
        "name": "harpsichord"
      },
      "name": "( no instrument specified in score )",
      "notes": [
        {
          "duration": 0.6000000000000014,
          "durationTicks": 480,
          "midi": 62,
          "name": "D4",
          "ticks": 19680,
          "time": "19680i",
          "velocity": 0.7874015748031497
        },
        {
          "duration": 0.6000000000000014,
          "durationTicks": 480,
          "midi": 64,
          "name": "E4",
          "ticks": 20160,
          "time": "20160i",
          "velocity": 0.7874015748031497
        },
        {
          "duration": 0.5999999999999979,
          "durationTicks": 480,
          "midi": 66,
          "name": "F#4",
          "ticks": 20640,
          "time": "20640i",
          "velocity": 0.7874015748031497
        },
        {
          "duration": 0.6000000000000014,
          "durationTicks": 480,
          "midi": 67,
          "name": "G4",
          "ticks": 21120,
          "time": "21120i",
          "velocity": 0.7874015748031497
        },
        {
          "duration": 0.5999999999999979,
          "durationTicks": 480,
          "midi": 71,
          "name": "B4",
          "ticks": 21600,
          "time": "21600i",
          "velocity": 0.7874015748031497
        },
        {
          "duration": 0.6000000000000014,
          "durationTicks": 480,
          "midi": 69,
          "name": "A4",
          "ticks": 22080,
          "time": "22080i",
          "velocity": 0.7874015748031497
        },
        {
          "duration": 0.5999999999999979,
          "durationTicks": 480,
          "midi": 67,
          "name": "G4",
          "ticks": 22560,
          "time": "22560i",
          "velocity": 0.7874015748031497
        },
        {
          "duration": 0.6000000000000014,
          "durationTicks": 480,
          "midi": 74,
          "name": "D5",
          "ticks": 23040,
          "time": "23040i",
          "velocity": 0.7874015748031497
        },
        {
          "duration": 0.6000000000000014,
          "durationTicks": 480,
          "midi": 62,
          "name": "D4",
          "ticks": 23520,
          "time": "23520i",
          "velocity": 0.7874015748031497
        },
        {
          "duration": 0.5999999999999979,
          "durationTicks": 480,
          "midi": 64,
          "name": "E4",
          "ticks": 24000,
          "time": "24000i",
          "velocity": 0.7874015748031497
        },
        {
          "duration": 0.6000000000000014,
          "durationTicks": 480,
          "midi": 66,
          "name": "F#4",
          "ticks": 24480,
          "time": "24480i",
          "velocity": 0.7874015748031497
        },
        {
          "duration": 0.5999999999999979,
          "durationTicks": 480,
          "midi": 67,
          "name": "G4",
          "ticks": 24960,
          "time": "24960i",
          "velocity": 0.7874015748031497
        },
        {
          "duration": 0.6000000000000014,
          "durationTicks": 480,
          "midi": 71,
          "name": "B4",
          "ticks": 25440,
          "time": "25440i",
          "velocity": 0.7874015748031497
        },
        {
          "duration": 0.6000000000000014,
          "durationTicks": 480,
          "midi": 69,
          "name": "A4",
          "ticks": 25920,
          "time": "25920i",
          "velocity": 0.7874015748031497
        },
        {
          "duration": 0.6000000000000014,
          "durationTicks": 480,
          "midi": 67,
          "name": "G4",
          "ticks": 26400,
          "time": "26400i",
          "velocity": 0.7874015748031497
        },
        {
          "duration": 0.5999999999999943,
          "durationTicks": 480,
          "midi": 74,
          "name": "D5",
          "ticks": 26880,
          "time": "26880i",
          "velocity": 0.7874015748031497
        },
        {
          "duration": 0.6000000000000014,
          "durationTicks": 480,
          "midi": 62,
          "name": "D4",
          "ticks": 27360,
          "time": "27360i",
          "velocity": 0.7874015748031497
        },
        {
          "duration": 0.6000000000000014,
          "durationTicks": 480,
          "midi": 64,
          "name": "E4",
          "ticks": 27840,
          "time": "27840i",
          "velocity": 0.7874015748031497
        },
        {
          "duration": 0.6000000000000014,
          "durationTicks": 480,
          "midi": 66,
          "name": "F#4",
          "ticks": 28320,
          "time": "28320i",
          "velocity": 0.7874015748031497
        },
        {
          "duration": 1.1999999999999957,
          "durationTicks": 960,
          "midi": 67,
          "name": "G4",
          "ticks": 28800,
          "time": "28800i",
          "velocity": 0.7874015748031497
        },
        {
          "duration": 0.6000000000000014,
          "durationTicks": 480,
          "midi": 67,
          "name": "G4",
          "ticks": 32160,
          "time": "32160i",
          "velocity": 0.7874015748031497
        },
        {
          "duration": 0.6000000000000014,
          "durationTicks": 480,
          "midi": 66,
          "name": "F#4",
          "ticks": 32640,
          "time": "32640i",
          "velocity": 0.7874015748031497
        },
        {
          "duration": 0.6000000000000014,
          "durationTicks": 480,
          "midi": 64,
          "name": "E4",
          "ticks": 33120,
          "time": "33120i",
          "velocity": 0.7874015748031497
        },
        {
          "duration": 0.6000000000000014,
          "durationTicks": 480,
          "midi": 62,
          "name": "D4",
          "ticks": 33600,
          "time": "33600i",
          "velocity": 0.7874015748031497
        },
        {
          "duration": 0.5999999999999943,
          "durationTicks": 480,
          "midi": 59,
          "name": "B3",
          "ticks": 34080,
          "time": "34080i",
          "velocity": 0.7874015748031497
        },
        {
          "duration": 0.6000000000000014,
          "durationTicks": 480,
          "midi": 60,
          "name": "C4",
          "ticks": 34560,
          "time": "34560i",
          "velocity": 0.7874015748031497
        },
        {
          "duration": 0.6000000000000014,
          "durationTicks": 480,
          "midi": 62,
          "name": "D4",
          "ticks": 35040,
          "time": "35040i",
          "velocity": 0.7874015748031497
        },
        {
          "duration": 0.6000000000000014,
          "durationTicks": 480,
          "midi": 55,
          "name": "G3",
          "ticks": 35520,
          "time": "35520i",
          "velocity": 0.7874015748031497
        },
        {
          "duration": 0.6000000000000014,
          "durationTicks": 480,
          "midi": 67,
          "name": "G4",
          "ticks": 36000,
          "time": "36000i",
          "velocity": 0.7874015748031497
        },
        {
          "duration": 0.5999999999999943,
          "durationTicks": 480,
          "midi": 66,
          "name": "F#4",
          "ticks": 36480,
          "time": "36480i",
          "velocity": 0.7874015748031497
        },
        {
          "duration": 0.6000000000000014,
          "durationTicks": 480,
          "midi": 64,
          "name": "E4",
          "ticks": 36960,
          "time": "36960i",
          "velocity": 0.7874015748031497
        },
        {
          "duration": 0.6000000000000014,
          "durationTicks": 480,
          "midi": 62,
          "name": "D4",
          "ticks": 37440,
          "time": "37440i",
          "velocity": 0.7874015748031497
        },
        {
          "duration": 0.6000000000000014,
          "durationTicks": 480,
          "midi": 59,
          "name": "B3",
          "ticks": 37920,
          "time": "37920i",
          "velocity": 0.7874015748031497
        },
        {
          "duration": 0.6000000000000014,
          "durationTicks": 480,
          "midi": 60,
          "name": "C4",
          "ticks": 38400,
          "time": "38400i",
          "velocity": 0.7874015748031497
        },
        {
          "duration": 0.5999999999999943,
          "durationTicks": 480,
          "midi": 62,
          "name": "D4",
          "ticks": 38880,
          "time": "38880i",
          "velocity": 0.7874015748031497
        },
        {
          "duration": 1.2000000000000028,
          "durationTicks": 960,
          "midi": 55,
          "name": "G3",
          "ticks": 39360,
          "time": "39360i",
          "velocity": 0.7874015748031497
        },
        {
          "duration": 0.15000000000000568,
          "durationTicks": 120,
          "midi": 67,
          "name": "G4",
          "ticks": 40560,
          "time": "40560i",
          "velocity": 0.7874015748031497
        },
        {
          "duration": 0.14999999999999858,
          "durationTicks": 120,
          "midi": 66,
          "name": "F#4",
          "ticks": 40680,
          "time": "40680i",
          "velocity": 0.7874015748031497
        },
        {
          "duration": 0.14999999999999858,
          "durationTicks": 120,
          "midi": 67,
          "name": "G4",
          "ticks": 40800,
          "time": "40800i",
          "velocity": 0.7874015748031497
        },
        {
          "duration": 0.14999999999999858,
          "durationTicks": 120,
          "midi": 69,
          "name": "A4",
          "ticks": 40920,
          "time": "40920i",
          "velocity": 0.7874015748031497
        },
        {
          "duration": 0.14999999999999858,
          "durationTicks": 120,
          "midi": 71,
          "name": "B4",
          "ticks": 41040,
          "time": "41040i",
          "velocity": 0.7874015748031497
        },
        {
          "duration": 0.15000000000000568,
          "durationTicks": 120,
          "midi": 72,
          "name": "C5",
          "ticks": 41160,
          "time": "41160i",
          "velocity": 0.7874015748031497
        },
        {
          "duration": 0.14999999999999858,
          "durationTicks": 120,
          "midi": 74,
          "name": "D5",
          "ticks": 41280,
          "time": "41280i",
          "velocity": 0.7874015748031497
        },
        {
          "duration": 0.14999999999999858,
          "durationTicks": 120,
          "midi": 69,
          "name": "A4",
          "ticks": 41400,
          "time": "41400i",
          "velocity": 0.7874015748031497
        },
        {
          "duration": 0.14999999999999858,
          "durationTicks": 120,
          "midi": 66,
          "name": "F#4",
          "ticks": 41520,
          "time": "41520i",
          "velocity": 0.7874015748031497
        },
        {
          "duration": 0.14999999999999858,
          "durationTicks": 120,
          "midi": 62,
          "name": "D4",
          "ticks": 41640,
          "time": "41640i",
          "velocity": 0.7874015748031497
        },
        {
          "duration": 0.15000000000000568,
          "durationTicks": 120,
          "midi": 64,
          "name": "E4",
          "ticks": 41760,
          "time": "41760i",
          "velocity": 0.7874015748031497
        },
        {
          "duration": 0.14999999999999858,
          "durationTicks": 120,
          "midi": 66,
          "name": "F#4",
          "ticks": 41880,
          "time": "41880i",
          "velocity": 0.7874015748031497
        },
        {
          "duration": 0.14999999999999858,
          "durationTicks": 120,
          "midi": 67,
          "name": "G4",
          "ticks": 42000,
          "time": "42000i",
          "velocity": 0.7874015748031497
        },
        {
          "duration": 0.14999999999999858,
          "durationTicks": 120,
          "midi": 69,
          "name": "A4",
          "ticks": 42120,
          "time": "42120i",
          "velocity": 0.7874015748031497
        },
        {
          "duration": 0.30000000000000426,
          "durationTicks": 240,
          "midi": 71,
          "name": "B4",
          "ticks": 42240,
          "time": "42240i",
          "velocity": 0.7874015748031497
        },
        {
          "duration": 0.29999999999999716,
          "durationTicks": 240,
          "midi": 66,
          "name": "F#4",
          "ticks": 42480,
          "time": "42480i",
          "velocity": 0.7874015748031497
        },
        {
          "duration": 0.75,
          "durationTicks": 600,
          "midi": 67,
          "name": "G4",
          "ticks": 42720,
          "time": "42720i",
          "velocity": 0.7874015748031497
        },
        {
          "duration": 0.07500000000000284,
          "durationTicks": 60,
          "midi": 69,
          "name": "A4",
          "ticks": 43320,
          "time": "43320i",
          "velocity": 0.7874015748031497
        },
        {
          "duration": 0.07499999999999574,
          "durationTicks": 60,
          "midi": 71,
          "name": "B4",
          "ticks": 43380,
          "time": "43380i",
          "velocity": 0.7874015748031497
        },
        {
          "duration": 0.14999999999999858,
          "durationTicks": 120,
          "midi": 72,
          "name": "C5",
          "ticks": 43440,
          "time": "43440i",
          "velocity": 0.7874015748031497
        },
        {
          "duration": 0.15000000000000568,
          "durationTicks": 120,
          "midi": 71,
          "name": "B4",
          "ticks": 43560,
          "time": "43560i",
          "velocity": 0.7874015748031497
        },
        {
          "duration": 0.14999999999999858,
          "durationTicks": 120,
          "midi": 69,
          "name": "A4",
          "ticks": 43680,
          "time": "43680i",
          "velocity": 0.7874015748031497
        },
        {
          "duration": 0.14999999999999858,
          "durationTicks": 120,
          "midi": 67,
          "name": "G4",
          "ticks": 43800,
          "time": "43800i",
          "velocity": 0.7874015748031497
        },
        {
          "duration": 0.14999999999999858,
          "durationTicks": 120,
          "midi": 71,
          "name": "B4",
          "ticks": 43920,
          "time": "43920i",
          "velocity": 0.7874015748031497
        },
        {
          "duration": 0.14999999999999858,
          "durationTicks": 120,
          "midi": 69,
          "name": "A4",
          "ticks": 44040,
          "time": "44040i",
          "velocity": 0.7874015748031497
        },
        {
          "duration": 0.15000000000000568,
          "durationTicks": 120,
          "midi": 67,
          "name": "G4",
          "ticks": 44160,
          "time": "44160i",
          "velocity": 0.7874015748031497
        },
        {
          "duration": 0.14999999999999858,
          "durationTicks": 120,
          "midi": 69,
          "name": "A4",
          "ticks": 44280,
          "time": "44280i",
          "velocity": 0.7874015748031497
        },
        {
          "duration": 0.14999999999999858,
          "durationTicks": 120,
          "midi": 67,
          "name": "G4",
          "ticks": 44400,
          "time": "44400i",
          "velocity": 0.7874015748031497
        },
        {
          "duration": 0.14999999999999858,
          "durationTicks": 120,
          "midi": 66,
          "name": "F#4",
          "ticks": 44520,
          "time": "44520i",
          "velocity": 0.7874015748031497
        },
        {
          "duration": 0.14999999999999858,
          "durationTicks": 120,
          "midi": 67,
          "name": "G4",
          "ticks": 44640,
          "time": "44640i",
          "velocity": 0.7874015748031497
        },
        {
          "duration": 0.15000000000000568,
          "durationTicks": 120,
          "midi": 69,
          "name": "A4",
          "ticks": 44760,
          "time": "44760i",
          "velocity": 0.7874015748031497
        },
        {
          "duration": 0.14999999999999858,
          "durationTicks": 120,
          "midi": 71,
          "name": "B4",
          "ticks": 44880,
          "time": "44880i",
          "velocity": 0.7874015748031497
        },
        {
          "duration": 0.14999999999999858,
          "durationTicks": 120,
          "midi": 72,
          "name": "C5",
          "ticks": 45000,
          "time": "45000i",
          "velocity": 0.7874015748031497
        },
        {
          "duration": 0.14999999999999858,
          "durationTicks": 120,
          "midi": 74,
          "name": "D5",
          "ticks": 45120,
          "time": "45120i",
          "velocity": 0.7874015748031497
        },
        {
          "duration": 0.14999999999999858,
          "durationTicks": 120,
          "midi": 69,
          "name": "A4",
          "ticks": 45240,
          "time": "45240i",
          "velocity": 0.7874015748031497
        },
        {
          "duration": 0.15000000000000568,
          "durationTicks": 120,
          "midi": 66,
          "name": "F#4",
          "ticks": 45360,
          "time": "45360i",
          "velocity": 0.7874015748031497
        },
        {
          "duration": 0.14999999999999858,
          "durationTicks": 120,
          "midi": 62,
          "name": "D4",
          "ticks": 45480,
          "time": "45480i",
          "velocity": 0.7874015748031497
        },
        {
          "duration": 0.14999999999999858,
          "durationTicks": 120,
          "midi": 64,
          "name": "E4",
          "ticks": 45600,
          "time": "45600i",
          "velocity": 0.7874015748031497
        },
        {
          "duration": 0.14999999999999858,
          "durationTicks": 120,
          "midi": 66,
          "name": "F#4",
          "ticks": 45720,
          "time": "45720i",
          "velocity": 0.7874015748031497
        },
        {
          "duration": 0.14999999999999858,
          "durationTicks": 120,
          "midi": 67,
          "name": "G4",
          "ticks": 45840,
          "time": "45840i",
          "velocity": 0.7874015748031497
        },
        {
          "duration": 0.14999999999999858,
          "durationTicks": 120,
          "midi": 69,
          "name": "A4",
          "ticks": 45960,
          "time": "45960i",
          "velocity": 0.7874015748031497
        },
        {
          "duration": 0.30000000000000426,
          "durationTicks": 240,
          "midi": 71,
          "name": "B4",
          "ticks": 46080,
          "time": "46080i",
          "velocity": 0.7874015748031497
        },
        {
          "duration": 0.29999999999999716,
          "durationTicks": 240,
          "midi": 66,
          "name": "F#4",
          "ticks": 46320,
          "time": "46320i",
          "velocity": 0.7874015748031497
        },
        {
          "duration": 0.75,
          "durationTicks": 600,
          "midi": 67,
          "name": "G4",
          "ticks": 46560,
          "time": "46560i",
          "velocity": 0.7874015748031497
        },
        {
          "duration": 0.07500000000000284,
          "durationTicks": 60,
          "midi": 69,
          "name": "A4",
          "ticks": 47160,
          "time": "47160i",
          "velocity": 0.7874015748031497
        },
        {
          "duration": 0.07499999999999574,
          "durationTicks": 60,
          "midi": 71,
          "name": "B4",
          "ticks": 47220,
          "time": "47220i",
          "velocity": 0.7874015748031497
        },
        {
          "duration": 0.15000000000000568,
          "durationTicks": 120,
          "midi": 72,
          "name": "C5",
          "ticks": 47280,
          "time": "47280i",
          "velocity": 0.7874015748031497
        },
        {
          "duration": 0.14999999999999858,
          "durationTicks": 120,
          "midi": 71,
          "name": "B4",
          "ticks": 47400,
          "time": "47400i",
          "velocity": 0.7874015748031497
        },
        {
          "duration": 0.14999999999999858,
          "durationTicks": 120,
          "midi": 69,
          "name": "A4",
          "ticks": 47520,
          "time": "47520i",
          "velocity": 0.7874015748031497
        },
        {
          "duration": 0.14999999999999858,
          "durationTicks": 120,
          "midi": 67,
          "name": "G4",
          "ticks": 47640,
          "time": "47640i",
          "velocity": 0.7874015748031497
        },
        {
          "duration": 0.14999999999999858,
          "durationTicks": 120,
          "midi": 71,
          "name": "B4",
          "ticks": 47760,
          "time": "47760i",
          "velocity": 0.7874015748031497
        },
        {
          "duration": 0.15000000000000568,
          "durationTicks": 120,
          "midi": 69,
          "name": "A4",
          "ticks": 47880,
          "time": "47880i",
          "velocity": 0.7874015748031497
        },
        {
          "duration": 0.14999999999999858,
          "durationTicks": 120,
          "midi": 67,
          "name": "G4",
          "ticks": 48000,
          "time": "48000i",
          "velocity": 0.7874015748031497
        },
        {
          "duration": 0.14999999999999858,
          "durationTicks": 120,
          "midi": 69,
          "name": "A4",
          "ticks": 48120,
          "time": "48120i",
          "velocity": 0.7874015748031497
        },
        {
          "duration": 0.14999999999999858,
          "durationTicks": 120,
          "midi": 67,
          "name": "G4",
          "ticks": 48240,
          "time": "48240i",
          "velocity": 0.7874015748031497
        },
        {
          "duration": 0.14999999999999858,
          "durationTicks": 120,
          "midi": 66,
          "name": "F#4",
          "ticks": 48360,
          "time": "48360i",
          "velocity": 0.7874015748031497
        },
        {
          "duration": 0.15000000000000568,
          "durationTicks": 120,
          "midi": 67,
          "name": "G4",
          "ticks": 48480,
          "time": "48480i",
          "velocity": 0.7874015748031497
        },
        {
          "duration": 0.14999999999999858,
          "durationTicks": 120,
          "midi": 69,
          "name": "A4",
          "ticks": 48600,
          "time": "48600i",
          "velocity": 0.7874015748031497
        },
        {
          "duration": 0.14999999999999858,
          "durationTicks": 120,
          "midi": 71,
          "name": "B4",
          "ticks": 48720,
          "time": "48720i",
          "velocity": 0.7874015748031497
        },
        {
          "duration": 0.14999999999999858,
          "durationTicks": 120,
          "midi": 72,
          "name": "C5",
          "ticks": 48840,
          "time": "48840i",
          "velocity": 0.7874015748031497
        },
        {
          "duration": 0.14999999999999858,
          "durationTicks": 120,
          "midi": 74,
          "name": "D5",
          "ticks": 48960,
          "time": "48960i",
          "velocity": 0.7874015748031497
        },
        {
          "duration": 0.15000000000000568,
          "durationTicks": 120,
          "midi": 69,
          "name": "A4",
          "ticks": 49080,
          "time": "49080i",
          "velocity": 0.7874015748031497
        },
        {
          "duration": 0.14999999999999858,
          "durationTicks": 120,
          "midi": 66,
          "name": "F#4",
          "ticks": 49200,
          "time": "49200i",
          "velocity": 0.7874015748031497
        },
        {
          "duration": 0.14999999999999858,
          "durationTicks": 120,
          "midi": 62,
          "name": "D4",
          "ticks": 49320,
          "time": "49320i",
          "velocity": 0.7874015748031497
        },
        {
          "duration": 0.14999999999999858,
          "durationTicks": 120,
          "midi": 64,
          "name": "E4",
          "ticks": 49440,
          "time": "49440i",
          "velocity": 0.7874015748031497
        },
        {
          "duration": 0.14999999999999858,
          "durationTicks": 120,
          "midi": 66,
          "name": "F#4",
          "ticks": 49560,
          "time": "49560i",
          "velocity": 0.7874015748031497
        },
        {
          "duration": 0.15000000000000568,
          "durationTicks": 120,
          "midi": 67,
          "name": "G4",
          "ticks": 49680,
          "time": "49680i",
          "velocity": 0.7874015748031497
        },
        {
          "duration": 0.14999999999999858,
          "durationTicks": 120,
          "midi": 69,
          "name": "A4",
          "ticks": 49800,
          "time": "49800i",
          "velocity": 0.7874015748031497
        },
        {
          "duration": 0.29999999999999716,
          "durationTicks": 240,
          "midi": 71,
          "name": "B4",
          "ticks": 49920,
          "time": "49920i",
          "velocity": 0.7874015748031497
        },
        {
          "duration": 0.30000000000000426,
          "durationTicks": 240,
          "midi": 66,
          "name": "F#4",
          "ticks": 50160,
          "time": "50160i",
          "velocity": 0.7874015748031497
        },
        {
          "duration": 0.75,
          "durationTicks": 600,
          "midi": 67,
          "name": "G4",
          "ticks": 50400,
          "time": "50400i",
          "velocity": 0.7874015748031497
        },
        {
          "duration": 0.07499999999999574,
          "durationTicks": 60,
          "midi": 69,
          "name": "A4",
          "ticks": 51000,
          "time": "51000i",
          "velocity": 0.7874015748031497
        },
        {
          "duration": 0.07500000000000284,
          "durationTicks": 60,
          "midi": 71,
          "name": "B4",
          "ticks": 51060,
          "time": "51060i",
          "velocity": 0.7874015748031497
        },
        {
          "duration": 0.14999999999999858,
          "durationTicks": 120,
          "midi": 72,
          "name": "C5",
          "ticks": 51120,
          "time": "51120i",
          "velocity": 0.7874015748031497
        },
        {
          "duration": 0.15000000000000568,
          "durationTicks": 120,
          "midi": 71,
          "name": "B4",
          "ticks": 51240,
          "time": "51240i",
          "velocity": 0.7874015748031497
        },
        {
          "duration": 0.14999999999999147,
          "durationTicks": 120,
          "midi": 69,
          "name": "A4",
          "ticks": 51360,
          "time": "51360i",
          "velocity": 0.7874015748031497
        },
        {
          "duration": 0.15000000000000568,
          "durationTicks": 120,
          "midi": 67,
          "name": "G4",
          "ticks": 51480,
          "time": "51480i",
          "velocity": 0.7874015748031497
        },
        {
          "duration": 0.14999999999999147,
          "durationTicks": 120,
          "midi": 71,
          "name": "B4",
          "ticks": 51600,
          "time": "51600i",
          "velocity": 0.7874015748031497
        },
        {
          "duration": 0.15000000000000568,
          "durationTicks": 120,
          "midi": 69,
          "name": "A4",
          "ticks": 51720,
          "time": "51720i",
          "velocity": 0.7874015748031497
        },
        {
          "duration": 1.2000000000000028,
          "durationTicks": 960,
          "midi": 67,
          "name": "G4",
          "ticks": 51840,
          "time": "51840i",
          "velocity": 0.7874015748031497
        },
        {
          "duration": 0.15000000000000568,
          "durationTicks": 120,
          "midi": 64,
          "name": "E4",
          "ticks": 52920,
          "time": "52920i",
          "velocity": 0.7874015748031497
        },
        {
          "duration": 0.15000000000000568,
          "durationTicks": 120,
          "midi": 62,
          "name": "D4",
          "ticks": 53040,
          "time": "53040i",
          "velocity": 0.7874015748031497
        },
        {
          "duration": 0.14999999999999147,
          "durationTicks": 120,
          "midi": 60,
          "name": "C4",
          "ticks": 53160,
          "time": "53160i",
          "velocity": 0.7874015748031497
        },
        {
          "duration": 0.29999999999999716,
          "durationTicks": 240,
          "midi": 59,
          "name": "B3",
          "ticks": 53280,
          "time": "53280i",
          "velocity": 0.7874015748031497
        },
        {
          "duration": 0.30000000000001137,
          "durationTicks": 240,
          "midi": 58,
          "name": "A#3",
          "ticks": 53520,
          "time": "53520i",
          "velocity": 0.7874015748031497
        },
        {
          "duration": 0.29999999999999716,
          "durationTicks": 240,
          "midi": 57,
          "name": "A3",
          "ticks": 53760,
          "time": "53760i",
          "velocity": 0.7874015748031497
        },
        {
          "duration": 0.29999999999999716,
          "durationTicks": 240,
          "midi": 62,
          "name": "D4",
          "ticks": 54000,
          "time": "54000i",
          "velocity": 0.7874015748031497
        },
        {
          "duration": 0.29999999999999716,
          "durationTicks": 240,
          "midi": 61,
          "name": "C#4",
          "ticks": 54240,
          "time": "54240i",
          "velocity": 0.7874015748031497
        },
        {
          "duration": 0.29999999999999716,
          "durationTicks": 240,
          "midi": 60,
          "name": "C4",
          "ticks": 54480,
          "time": "54480i",
          "velocity": 0.7874015748031497
        },
        {
          "duration": 0.6000000000000085,
          "durationTicks": 480,
          "midi": 59,
          "name": "B3",
          "ticks": 54720,
          "time": "54720i",
          "velocity": 0.7874015748031497
        },
        {
          "duration": 0.15000000000000568,
          "durationTicks": 120,
          "midi": 62,
          "name": "D4",
          "ticks": 55320,
          "time": "55320i",
          "velocity": 0.7874015748031497
        },
        {
          "duration": 0.15000000000000568,
          "durationTicks": 120,
          "midi": 64,
          "name": "E4",
          "ticks": 55440,
          "time": "55440i",
          "velocity": 0.7874015748031497
        },
        {
          "duration": 0.14999999999999147,
          "durationTicks": 120,
          "midi": 65,
          "name": "F4",
          "ticks": 55560,
          "time": "55560i",
          "velocity": 0.7874015748031497
        },
        {
          "duration": 0.15000000000000568,
          "durationTicks": 120,
          "midi": 64,
          "name": "E4",
          "ticks": 55680,
          "time": "55680i",
          "velocity": 0.7874015748031497
        },
        {
          "duration": 0.14999999999999147,
          "durationTicks": 120,
          "midi": 60,
          "name": "C4",
          "ticks": 55800,
          "time": "55800i",
          "velocity": 0.7874015748031497
        },
        {
          "duration": 0.45000000000000284,
          "durationTicks": 360,
          "midi": 57,
          "name": "A3",
          "ticks": 55920,
          "time": "55920i",
          "velocity": 0.7874015748031497
        },
        {
          "duration": 0.07500000000000284,
          "durationTicks": 60,
          "midi": 59,
          "name": "B3",
          "ticks": 56280,
          "time": "56280i",
          "velocity": 0.7874015748031497
        },
        {
          "duration": 0.07500000000000284,
          "durationTicks": 60,
          "midi": 60,
          "name": "C4",
          "ticks": 56340,
          "time": "56340i",
          "velocity": 0.7874015748031497
        },
        {
          "duration": 0.14999999999999147,
          "durationTicks": 120,
          "midi": 59,
          "name": "B3",
          "ticks": 56400,
          "time": "56400i",
          "velocity": 0.7874015748031497
        },
        {
          "duration": 0.15000000000000568,
          "durationTicks": 120,
          "midi": 57,
          "name": "A3",
          "ticks": 56520,
          "time": "56520i",
          "velocity": 0.7874015748031497
        },
        {
          "duration": 0.15000000000000568,
          "durationTicks": 120,
          "midi": 55,
          "name": "G3",
          "ticks": 56640,
          "time": "56640i",
          "velocity": 0.7874015748031497
        },
        {
          "duration": 0.14999999999999147,
          "durationTicks": 120,
          "midi": 64,
          "name": "E4",
          "ticks": 56760,
          "time": "56760i",
          "velocity": 0.7874015748031497
        },
        {
          "duration": 0.15000000000000568,
          "durationTicks": 120,
          "midi": 62,
          "name": "D4",
          "ticks": 56880,
          "time": "56880i",
          "velocity": 0.7874015748031497
        },
        {
          "duration": 0.14999999999999147,
          "durationTicks": 120,
          "midi": 60,
          "name": "C4",
          "ticks": 57000,
          "time": "57000i",
          "velocity": 0.7874015748031497
        },
        {
          "duration": 0.30000000000001137,
          "durationTicks": 240,
          "midi": 59,
          "name": "B3",
          "ticks": 57120,
          "time": "57120i",
          "velocity": 0.7874015748031497
        },
        {
          "duration": 0.29999999999999716,
          "durationTicks": 240,
          "midi": 58,
          "name": "A#3",
          "ticks": 57360,
          "time": "57360i",
          "velocity": 0.7874015748031497
        },
        {
          "duration": 0.29999999999999716,
          "durationTicks": 240,
          "midi": 57,
          "name": "A3",
          "ticks": 57600,
          "time": "57600i",
          "velocity": 0.7874015748031497
        },
        {
          "duration": 0.29999999999999716,
          "durationTicks": 240,
          "midi": 62,
          "name": "D4",
          "ticks": 57840,
          "time": "57840i",
          "velocity": 0.7874015748031497
        },
        {
          "duration": 0.29999999999999716,
          "durationTicks": 240,
          "midi": 61,
          "name": "C#4",
          "ticks": 58080,
          "time": "58080i",
          "velocity": 0.7874015748031497
        },
        {
          "duration": 0.30000000000001137,
          "durationTicks": 240,
          "midi": 60,
          "name": "C4",
          "ticks": 58320,
          "time": "58320i",
          "velocity": 0.7874015748031497
        },
        {
          "duration": 0.5999999999999943,
          "durationTicks": 480,
          "midi": 59,
          "name": "B3",
          "ticks": 58560,
          "time": "58560i",
          "velocity": 0.7874015748031497
        },
        {
          "duration": 0.14999999999999147,
          "durationTicks": 120,
          "midi": 62,
          "name": "D4",
          "ticks": 59160,
          "time": "59160i",
          "velocity": 0.7874015748031497
        },
        {
          "duration": 0.15000000000000568,
          "durationTicks": 120,
          "midi": 64,
          "name": "E4",
          "ticks": 59280,
          "time": "59280i",
          "velocity": 0.7874015748031497
        },
        {
          "duration": 0.14999999999999147,
          "durationTicks": 120,
          "midi": 65,
          "name": "F4",
          "ticks": 59400,
          "time": "59400i",
          "velocity": 0.7874015748031497
        },
        {
          "duration": 0.15000000000000568,
          "durationTicks": 120,
          "midi": 64,
          "name": "E4",
          "ticks": 59520,
          "time": "59520i",
          "velocity": 0.7874015748031497
        },
        {
          "duration": 0.15000000000000568,
          "durationTicks": 120,
          "midi": 60,
          "name": "C4",
          "ticks": 59640,
          "time": "59640i",
          "velocity": 0.7874015748031497
        },
        {
          "duration": 0.44999999999998863,
          "durationTicks": 360,
          "midi": 57,
          "name": "A3",
          "ticks": 59760,
          "time": "59760i",
          "velocity": 0.7874015748031497
        },
        {
          "duration": 0.07500000000000284,
          "durationTicks": 60,
          "midi": 59,
          "name": "B3",
          "ticks": 60120,
          "time": "60120i",
          "velocity": 0.7874015748031497
        },
        {
          "duration": 0.07500000000000284,
          "durationTicks": 60,
          "midi": 60,
          "name": "C4",
          "ticks": 60180,
          "time": "60180i",
          "velocity": 0.7874015748031497
        },
        {
          "duration": 0.15000000000000568,
          "durationTicks": 120,
          "midi": 59,
          "name": "B3",
          "ticks": 60240,
          "time": "60240i",
          "velocity": 0.7874015748031497
        },
        {
          "duration": 0.14999999999999147,
          "durationTicks": 120,
          "midi": 57,
          "name": "A3",
          "ticks": 60360,
          "time": "60360i",
          "velocity": 0.7874015748031497
        },
        {
          "duration": 0.15000000000000568,
          "durationTicks": 120,
          "midi": 55,
          "name": "G3",
          "ticks": 60480,
          "time": "60480i",
          "velocity": 0.7874015748031497
        },
        {
          "duration": 0.14999999999999147,
          "durationTicks": 120,
          "midi": 64,
          "name": "E4",
          "ticks": 60600,
          "time": "60600i",
          "velocity": 0.7874015748031497
        },
        {
          "duration": 0.15000000000000568,
          "durationTicks": 120,
          "midi": 62,
          "name": "D4",
          "ticks": 60720,
          "time": "60720i",
          "velocity": 0.7874015748031497
        },
        {
          "duration": 0.15000000000000568,
          "durationTicks": 120,
          "midi": 60,
          "name": "C4",
          "ticks": 60840,
          "time": "60840i",
          "velocity": 0.7874015748031497
        },
        {
          "duration": 0.29999999999999716,
          "durationTicks": 240,
          "midi": 59,
          "name": "B3",
          "ticks": 60960,
          "time": "60960i",
          "velocity": 0.7874015748031497
        },
        {
          "duration": 0.29999999999999716,
          "durationTicks": 240,
          "midi": 58,
          "name": "A#3",
          "ticks": 61200,
          "time": "61200i",
          "velocity": 0.7874015748031497
        },
        {
          "duration": 0.29999999999999716,
          "durationTicks": 240,
          "midi": 57,
          "name": "A3",
          "ticks": 61440,
          "time": "61440i",
          "velocity": 0.7874015748031497
        },
        {
          "duration": 0.29999999999999716,
          "durationTicks": 240,
          "midi": 62,
          "name": "D4",
          "ticks": 61680,
          "time": "61680i",
          "velocity": 0.7874015748031497
        },
        {
          "duration": 0.30000000000001137,
          "durationTicks": 240,
          "midi": 61,
          "name": "C#4",
          "ticks": 61920,
          "time": "61920i",
          "velocity": 0.7874015748031497
        },
        {
          "duration": 0.29999999999999716,
          "durationTicks": 240,
          "midi": 60,
          "name": "C4",
          "ticks": 62160,
          "time": "62160i",
          "velocity": 0.7874015748031497
        },
        {
          "duration": 0.5999999999999943,
          "durationTicks": 480,
          "midi": 59,
          "name": "B3",
          "ticks": 62400,
          "time": "62400i",
          "velocity": 0.7874015748031497
        },
        {
          "duration": 0.14999999999999147,
          "durationTicks": 120,
          "midi": 62,
          "name": "D4",
          "ticks": 63000,
          "time": "63000i",
          "velocity": 0.7874015748031497
        },
        {
          "duration": 0.15000000000000568,
          "durationTicks": 120,
          "midi": 64,
          "name": "E4",
          "ticks": 63120,
          "time": "63120i",
          "velocity": 0.7874015748031497
        },
        {
          "duration": 0.15000000000000568,
          "durationTicks": 120,
          "midi": 65,
          "name": "F4",
          "ticks": 63240,
          "time": "63240i",
          "velocity": 0.7874015748031497
        },
        {
          "duration": 0.14999999999999147,
          "durationTicks": 120,
          "midi": 64,
          "name": "E4",
          "ticks": 63360,
          "time": "63360i",
          "velocity": 0.7874015748031497
        },
        {
          "duration": 0.15000000000000568,
          "durationTicks": 120,
          "midi": 60,
          "name": "C4",
          "ticks": 63480,
          "time": "63480i",
          "velocity": 0.7874015748031497
        },
        {
          "duration": 0.45000000000000284,
          "durationTicks": 360,
          "midi": 57,
          "name": "A3",
          "ticks": 63600,
          "time": "63600i",
          "velocity": 0.7874015748031497
        },
        {
          "duration": 0.07499999999998863,
          "durationTicks": 60,
          "midi": 59,
          "name": "B3",
          "ticks": 63960,
          "time": "63960i",
          "velocity": 0.7874015748031497
        },
        {
          "duration": 0.07500000000000284,
          "durationTicks": 60,
          "midi": 60,
          "name": "C4",
          "ticks": 64020,
          "time": "64020i",
          "velocity": 0.7874015748031497
        },
        {
          "duration": 0.15000000000000568,
          "durationTicks": 120,
          "midi": 59,
          "name": "B3",
          "ticks": 64080,
          "time": "64080i",
          "velocity": 0.7874015748031497
        },
        {
          "duration": 0.14999999999999147,
          "durationTicks": 120,
          "midi": 57,
          "name": "A3",
          "ticks": 64200,
          "time": "64200i",
          "velocity": 0.7874015748031497
        },
        {
          "duration": 1.2000000000000028,
          "durationTicks": 960,
          "midi": 55,
          "name": "G3",
          "ticks": 64320,
          "time": "64320i",
          "velocity": 0.7874015748031497
        },
        {
          "duration": 0.14999999999999147,
          "durationTicks": 120,
          "midi": 62,
          "name": "D4",
          "ticks": 65400,
          "time": "65400i",
          "velocity": 0.7874015748031497
        },
        {
          "duration": 0.15000000000000568,
          "durationTicks": 120,
          "midi": 64,
          "name": "E4",
          "ticks": 65520,
          "time": "65520i",
          "velocity": 0.7874015748031497
        },
        {
          "duration": 0.15000000000000568,
          "durationTicks": 120,
          "midi": 66,
          "name": "F#4",
          "ticks": 65640,
          "time": "65640i",
          "velocity": 0.7874015748031497
        },
        {
          "duration": 0.14999999999999147,
          "durationTicks": 120,
          "midi": 67,
          "name": "G4",
          "ticks": 65760,
          "time": "65760i",
          "velocity": 0.7874015748031497
        },
        {
          "duration": 0.15000000000000568,
          "durationTicks": 120,
          "midi": 71,
          "name": "B4",
          "ticks": 65880,
          "time": "65880i",
          "velocity": 0.7874015748031497
        },
        {
          "duration": 0.14999999999999147,
          "durationTicks": 120,
          "midi": 69,
          "name": "A4",
          "ticks": 66000,
          "time": "66000i",
          "velocity": 0.7874015748031497
        },
        {
          "duration": 0.15000000000000568,
          "durationTicks": 120,
          "midi": 67,
          "name": "G4",
          "ticks": 66120,
          "time": "66120i",
          "velocity": 0.7874015748031497
        },
        {
          "duration": 0.75,
          "durationTicks": 600,
          "midi": 74,
          "name": "D5",
          "ticks": 66240,
          "time": "66240i",
          "velocity": 0.7874015748031497
        },
        {
          "duration": 0.15000000000000568,
          "durationTicks": 120,
          "midi": 76,
          "name": "E5",
          "ticks": 66840,
          "time": "66840i",
          "velocity": 0.7874015748031497
        },
        {
          "duration": 0.14999999999999147,
          "durationTicks": 120,
          "midi": 74,
          "name": "D5",
          "ticks": 66960,
          "time": "66960i",
          "velocity": 0.7874015748031497
        },
        {
          "duration": 0.15000000000000568,
          "durationTicks": 120,
          "midi": 73,
          "name": "C#5",
          "ticks": 67080,
          "time": "67080i",
          "velocity": 0.7874015748031497
        },
        {
          "duration": 0.75,
          "durationTicks": 600,
          "midi": 74,
          "name": "D5",
          "ticks": 67200,
          "time": "67200i",
          "velocity": 0.7874015748031497
        },
        {
          "duration": 0.14999999999999147,
          "durationTicks": 120,
          "midi": 59,
          "name": "B3",
          "ticks": 67800,
          "time": "67800i",
          "velocity": 0.7874015748031497
        },
        {
          "duration": 0.15000000000000568,
          "durationTicks": 120,
          "midi": 60,
          "name": "C4",
          "ticks": 67920,
          "time": "67920i",
          "velocity": 0.7874015748031497
        },
        {
          "duration": 0.15000000000000568,
          "durationTicks": 120,
          "midi": 62,
          "name": "D4",
          "ticks": 68040,
          "time": "68040i",
          "velocity": 0.7874015748031497
        },
        {
          "duration": 0.14999999999999147,
          "durationTicks": 120,
          "midi": 64,
          "name": "E4",
          "ticks": 68160,
          "time": "68160i",
          "velocity": 0.7874015748031497
        },
        {
          "duration": 0.15000000000000568,
          "durationTicks": 120,
          "midi": 67,
          "name": "G4",
          "ticks": 68280,
          "time": "68280i",
          "velocity": 0.7874015748031497
        },
        {
          "duration": 0.14999999999999147,
          "durationTicks": 120,
          "midi": 66,
          "name": "F#4",
          "ticks": 68400,
          "time": "68400i",
          "velocity": 0.7874015748031497
        },
        {
          "duration": 0.15000000000000568,
          "durationTicks": 120,
          "midi": 64,
          "name": "E4",
          "ticks": 68520,
          "time": "68520i",
          "velocity": 0.7874015748031497
        },
        {
          "duration": 0.29999999999999716,
          "durationTicks": 240,
          "midi": 71,
          "name": "B4",
          "ticks": 68640,
          "time": "68640i",
          "velocity": 0.7874015748031497
        },
        {
          "duration": 0.29999999999999716,
          "durationTicks": 240,
          "midi": 69,
          "name": "A4",
          "ticks": 68880,
          "time": "68880i",
          "velocity": 0.7874015748031497
        },
        {
          "duration": 0.15000000000000568,
          "durationTicks": 120,
          "midi": 67,
          "name": "G4",
          "ticks": 69120,
          "time": "69120i",
          "velocity": 0.7874015748031497
        },
        {
          "duration": 0.15000000000000568,
          "durationTicks": 120,
          "midi": 62,
          "name": "D4",
          "ticks": 69240,
          "time": "69240i",
          "velocity": 0.7874015748031497
        },
        {
          "duration": 0.14999999999999147,
          "durationTicks": 120,
          "midi": 64,
          "name": "E4",
          "ticks": 69360,
          "time": "69360i",
          "velocity": 0.7874015748031497
        },
        {
          "duration": 0.15000000000000568,
          "durationTicks": 120,
          "midi": 66,
          "name": "F#4",
          "ticks": 69480,
          "time": "69480i",
          "velocity": 0.7874015748031497
        },
        {
          "duration": 0.14999999999999147,
          "durationTicks": 120,
          "midi": 67,
          "name": "G4",
          "ticks": 69600,
          "time": "69600i",
          "velocity": 0.7874015748031497
        },
        {
          "duration": 0.15000000000000568,
          "durationTicks": 120,
          "midi": 71,
          "name": "B4",
          "ticks": 69720,
          "time": "69720i",
          "velocity": 0.7874015748031497
        },
        {
          "duration": 0.15000000000000568,
          "durationTicks": 120,
          "midi": 69,
          "name": "A4",
          "ticks": 69840,
          "time": "69840i",
          "velocity": 0.7874015748031497
        },
        {
          "duration": 0.14999999999999147,
          "durationTicks": 120,
          "midi": 67,
          "name": "G4",
          "ticks": 69960,
          "time": "69960i",
          "velocity": 0.7874015748031497
        },
        {
          "duration": 0.75,
          "durationTicks": 600,
          "midi": 74,
          "name": "D5",
          "ticks": 70080,
          "time": "70080i",
          "velocity": 0.7874015748031497
        },
        {
          "duration": 0.15000000000000568,
          "durationTicks": 120,
          "midi": 76,
          "name": "E5",
          "ticks": 70680,
          "time": "70680i",
          "velocity": 0.7874015748031497
        },
        {
          "duration": 0.14999999999999147,
          "durationTicks": 120,
          "midi": 74,
          "name": "D5",
          "ticks": 70800,
          "time": "70800i",
          "velocity": 0.7874015748031497
        },
        {
          "duration": 0.15000000000000568,
          "durationTicks": 120,
          "midi": 73,
          "name": "C#5",
          "ticks": 70920,
          "time": "70920i",
          "velocity": 0.7874015748031497
        },
        {
          "duration": 0.75,
          "durationTicks": 600,
          "midi": 74,
          "name": "D5",
          "ticks": 71040,
          "time": "71040i",
          "velocity": 0.7874015748031497
        },
        {
          "duration": 0.15000000000000568,
          "durationTicks": 120,
          "midi": 59,
          "name": "B3",
          "ticks": 71640,
          "time": "71640i",
          "velocity": 0.7874015748031497
        },
        {
          "duration": 0.14999999999999147,
          "durationTicks": 120,
          "midi": 60,
          "name": "C4",
          "ticks": 71760,
          "time": "71760i",
          "velocity": 0.7874015748031497
        },
        {
          "duration": 0.15000000000000568,
          "durationTicks": 120,
          "midi": 62,
          "name": "D4",
          "ticks": 71880,
          "time": "71880i",
          "velocity": 0.7874015748031497
        },
        {
          "duration": 0.14999999999999147,
          "durationTicks": 120,
          "midi": 64,
          "name": "E4",
          "ticks": 72000,
          "time": "72000i",
          "velocity": 0.7874015748031497
        },
        {
          "duration": 0.15000000000000568,
          "durationTicks": 120,
          "midi": 67,
          "name": "G4",
          "ticks": 72120,
          "time": "72120i",
          "velocity": 0.7874015748031497
        },
        {
          "duration": 0.15000000000000568,
          "durationTicks": 120,
          "midi": 66,
          "name": "F#4",
          "ticks": 72240,
          "time": "72240i",
          "velocity": 0.7874015748031497
        },
        {
          "duration": 0.14999999999999147,
          "durationTicks": 120,
          "midi": 64,
          "name": "E4",
          "ticks": 72360,
          "time": "72360i",
          "velocity": 0.7874015748031497
        },
        {
          "duration": 0.29999999999999716,
          "durationTicks": 240,
          "midi": 71,
          "name": "B4",
          "ticks": 72480,
          "time": "72480i",
          "velocity": 0.7874015748031497
        },
        {
          "duration": 0.30000000000001137,
          "durationTicks": 240,
          "midi": 69,
          "name": "A4",
          "ticks": 72720,
          "time": "72720i",
          "velocity": 0.7874015748031497
        },
        {
          "duration": 0.14999999999999147,
          "durationTicks": 120,
          "midi": 67,
          "name": "G4",
          "ticks": 72960,
          "time": "72960i",
          "velocity": 0.7874015748031497
        },
        {
          "duration": 0.15000000000000568,
          "durationTicks": 120,
          "midi": 62,
          "name": "D4",
          "ticks": 73080,
          "time": "73080i",
          "velocity": 0.7874015748031497
        },
        {
          "duration": 0.14999999999999147,
          "durationTicks": 120,
          "midi": 64,
          "name": "E4",
          "ticks": 73200,
          "time": "73200i",
          "velocity": 0.7874015748031497
        },
        {
          "duration": 0.15000000000000568,
          "durationTicks": 120,
          "midi": 66,
          "name": "F#4",
          "ticks": 73320,
          "time": "73320i",
          "velocity": 0.7874015748031497
        },
        {
          "duration": 0.15000000000000568,
          "durationTicks": 120,
          "midi": 67,
          "name": "G4",
          "ticks": 73440,
          "time": "73440i",
          "velocity": 0.7874015748031497
        },
        {
          "duration": 0.14999999999999147,
          "durationTicks": 120,
          "midi": 71,
          "name": "B4",
          "ticks": 73560,
          "time": "73560i",
          "velocity": 0.7874015748031497
        },
        {
          "duration": 0.15000000000000568,
          "durationTicks": 120,
          "midi": 69,
          "name": "A4",
          "ticks": 73680,
          "time": "73680i",
          "velocity": 0.7874015748031497
        },
        {
          "duration": 0.14999999999999147,
          "durationTicks": 120,
          "midi": 67,
          "name": "G4",
          "ticks": 73800,
          "time": "73800i",
          "velocity": 0.7874015748031497
        },
        {
          "duration": 0.15000000000000568,
          "durationTicks": 120,
          "midi": 62,
          "name": "D4",
          "ticks": 73920,
          "time": "73920i",
          "velocity": 0.7874015748031497
        },
        {
          "duration": 0.15000000000000568,
          "durationTicks": 120,
          "midi": 59,
          "name": "B3",
          "ticks": 74040,
          "time": "74040i",
          "velocity": 0.7874015748031497
        },
        {
          "duration": 0.14999999999999147,
          "durationTicks": 120,
          "midi": 60,
          "name": "C4",
          "ticks": 74160,
          "time": "74160i",
          "velocity": 0.7874015748031497
        },
        {
          "duration": 0.15000000000000568,
          "durationTicks": 120,
          "midi": 62,
          "name": "D4",
          "ticks": 74280,
          "time": "74280i",
          "velocity": 0.7874015748031497
        },
        {
          "duration": 0.75,
          "durationTicks": 600,
          "midi": 55,
          "name": "G3",
          "ticks": 74400,
          "time": "74400i",
          "velocity": 0.7874015748031497
        },
        {
          "duration": 0.14999999999999147,
          "durationTicks": 120,
          "midi": 54,
          "name": "F#3",
          "ticks": 75000,
          "time": "75000i",
          "velocity": 0.7874015748031497
        },
        {
          "duration": 0.15000000000000568,
          "durationTicks": 120,
          "midi": 55,
          "name": "G3",
          "ticks": 75120,
          "time": "75120i",
          "velocity": 0.7874015748031497
        },
        {
          "duration": 0.15000000000000568,
          "durationTicks": 120,
          "midi": 57,
          "name": "A3",
          "ticks": 75240,
          "time": "75240i",
          "velocity": 0.7874015748031497
        },
        {
          "duration": 0.75,
          "durationTicks": 600,
          "midi": 55,
          "name": "G3",
          "ticks": 75360,
          "time": "75360i",
          "velocity": 0.7874015748031497
        },
        {
          "duration": 0.14999999999999147,
          "durationTicks": 120,
          "midi": 71,
          "name": "B4",
          "ticks": 75960,
          "time": "75960i",
          "velocity": 0.7874015748031497
        },
        {
          "duration": 0.15000000000000568,
          "durationTicks": 120,
          "midi": 69,
          "name": "A4",
          "ticks": 76080,
          "time": "76080i",
          "velocity": 0.7874015748031497
        },
        {
          "duration": 0.14999999999999147,
          "durationTicks": 120,
          "midi": 67,
          "name": "G4",
          "ticks": 76200,
          "time": "76200i",
          "velocity": 0.7874015748031497
        },
        {
          "duration": 0.15000000000000568,
          "durationTicks": 120,
          "midi": 66,
          "name": "F#4",
          "ticks": 76320,
          "time": "76320i",
          "velocity": 0.7874015748031497
        },
        {
          "duration": 0.15000000000000568,
          "durationTicks": 120,
          "midi": 62,
          "name": "D4",
          "ticks": 76440,
          "time": "76440i",
          "velocity": 0.7874015748031497
        },
        {
          "duration": 0.14999999999999147,
          "durationTicks": 120,
          "midi": 64,
          "name": "E4",
          "ticks": 76560,
          "time": "76560i",
          "velocity": 0.7874015748031497
        },
        {
          "duration": 0.15000000000000568,
          "durationTicks": 120,
          "midi": 66,
          "name": "F#4",
          "ticks": 76680,
          "time": "76680i",
          "velocity": 0.7874015748031497
        },
        {
          "duration": 1.2000000000000028,
          "durationTicks": 960,
          "midi": 59,
          "name": "B3",
          "ticks": 76800,
          "time": "76800i",
          "velocity": 0.7874015748031497
        },
        {
          "duration": 0.5999999999999943,
          "durationTicks": 480,
          "midi": 67,
          "name": "G4",
          "ticks": 78240,
          "time": "78240i",
          "velocity": 0.7874015748031497
        },
        {
          "duration": 0.6000000000000085,
          "durationTicks": 480,
          "midi": 66,
          "name": "F#4",
          "ticks": 78720,
          "time": "78720i",
          "velocity": 0.7874015748031497
        },
        {
          "duration": 0.5999999999999943,
          "durationTicks": 480,
          "midi": 64,
          "name": "E4",
          "ticks": 79200,
          "time": "79200i",
          "velocity": 0.7874015748031497
        },
        {
          "duration": 0.6000000000000085,
          "durationTicks": 480,
          "midi": 62,
          "name": "D4",
          "ticks": 79680,
          "time": "79680i",
          "velocity": 0.7874015748031497
        },
        {
          "duration": 0.5999999999999943,
          "durationTicks": 480,
          "midi": 59,
          "name": "B3",
          "ticks": 80160,
          "time": "80160i",
          "velocity": 0.7874015748031497
        },
        {
          "duration": 0.5999999999999943,
          "durationTicks": 480,
          "midi": 60,
          "name": "C4",
          "ticks": 80640,
          "time": "80640i",
          "velocity": 0.7874015748031497
        },
        {
          "duration": 0.6000000000000085,
          "durationTicks": 480,
          "midi": 62,
          "name": "D4",
          "ticks": 81120,
          "time": "81120i",
          "velocity": 0.7874015748031497
        },
        {
          "duration": 0.5999999999999943,
          "durationTicks": 480,
          "midi": 55,
          "name": "G3",
          "ticks": 81600,
          "time": "81600i",
          "velocity": 0.7874015748031497
        },
        {
          "duration": 0.6000000000000085,
          "durationTicks": 480,
          "midi": 67,
          "name": "G4",
          "ticks": 82080,
          "time": "82080i",
          "velocity": 0.7874015748031497
        },
        {
          "duration": 0.5999999999999943,
          "durationTicks": 480,
          "midi": 66,
          "name": "F#4",
          "ticks": 82560,
          "time": "82560i",
          "velocity": 0.7874015748031497
        },
        {
          "duration": 0.5999999999999943,
          "durationTicks": 480,
          "midi": 64,
          "name": "E4",
          "ticks": 83040,
          "time": "83040i",
          "velocity": 0.7874015748031497
        },
        {
          "duration": 0.6000000000000085,
          "durationTicks": 480,
          "midi": 62,
          "name": "D4",
          "ticks": 83520,
          "time": "83520i",
          "velocity": 0.7874015748031497
        },
        {
          "duration": 0.5999999999999943,
          "durationTicks": 480,
          "midi": 59,
          "name": "B3",
          "ticks": 84000,
          "time": "84000i",
          "velocity": 0.7874015748031497
        },
        {
          "duration": 0.6000000000000085,
          "durationTicks": 480,
          "midi": 60,
          "name": "C4",
          "ticks": 84480,
          "time": "84480i",
          "velocity": 0.7874015748031497
        },
        {
          "duration": 0.5999999999999943,
          "durationTicks": 480,
          "midi": 62,
          "name": "D4",
          "ticks": 84960,
          "time": "84960i",
          "velocity": 0.7874015748031497
        },
        {
          "duration": 0.5999999999999943,
          "durationTicks": 480,
          "midi": 55,
          "name": "G3",
          "ticks": 85440,
          "time": "85440i",
          "velocity": 0.7874015748031497
        },
        {
          "duration": 0.6000000000000085,
          "durationTicks": 480,
          "midi": 67,
          "name": "G4",
          "ticks": 85920,
          "time": "85920i",
          "velocity": 0.7874015748031497
        },
        {
          "duration": 0.5999999999999943,
          "durationTicks": 480,
          "midi": 66,
          "name": "F#4",
          "ticks": 86400,
          "time": "86400i",
          "velocity": 0.7874015748031497
        },
        {
          "duration": 0.6000000000000085,
          "durationTicks": 480,
          "midi": 64,
          "name": "E4",
          "ticks": 86880,
          "time": "86880i",
          "velocity": 0.7874015748031497
        },
        {
          "duration": 0.5999999999999943,
          "durationTicks": 480,
          "midi": 62,
          "name": "D4",
          "ticks": 87360,
          "time": "87360i",
          "velocity": 0.7874015748031497
        },
        {
          "duration": 0.5999999999999943,
          "durationTicks": 480,
          "midi": 59,
          "name": "B3",
          "ticks": 87840,
          "time": "87840i",
          "velocity": 0.7874015748031497
        },
        {
          "duration": 0.6000000000000085,
          "durationTicks": 480,
          "midi": 60,
          "name": "C4",
          "ticks": 88320,
          "time": "88320i",
          "velocity": 0.7874015748031497
        },
        {
          "duration": 0.5999999999999943,
          "durationTicks": 480,
          "midi": 62,
          "name": "D4",
          "ticks": 88800,
          "time": "88800i",
          "velocity": 0.7874015748031497
        },
        {
          "duration": 1.2000000000000028,
          "durationTicks": 960,
          "midi": 55,
          "name": "G3",
          "ticks": 89280,
          "time": "89280i",
          "velocity": 0.7874015748031497
        },
        {
          "duration": 0.15000000000000568,
          "durationTicks": 120,
          "midi": 67,
          "name": "G4",
          "ticks": 90240,
          "time": "90240i",
          "velocity": 0.7874015748031497
        },
        {
          "duration": 0.14999999999999147,
          "durationTicks": 120,
          "midi": 71,
          "name": "B4",
          "ticks": 90360,
          "time": "90360i",
          "velocity": 0.7874015748031497
        },
        {
          "duration": 0.15000000000000568,
          "durationTicks": 120,
          "midi": 74,
          "name": "D5",
          "ticks": 90480,
          "time": "90480i",
          "velocity": 0.7874015748031497
        },
        {
          "duration": 0.14999999999999147,
          "durationTicks": 120,
          "midi": 79,
          "name": "G5",
          "ticks": 90600,
          "time": "90600i",
          "velocity": 0.7874015748031497
        },
        {
          "duration": 0.15000000000000568,
          "durationTicks": 120,
          "midi": 74,
          "name": "D5",
          "ticks": 90720,
          "time": "90720i",
          "velocity": 0.7874015748031497
        },
        {
          "duration": 0.15000000000000568,
          "durationTicks": 120,
          "midi": 71,
          "name": "B4",
          "ticks": 90840,
          "time": "90840i",
          "velocity": 0.7874015748031497
        },
        {
          "duration": 0.14999999999999147,
          "durationTicks": 120,
          "midi": 67,
          "name": "G4",
          "ticks": 90960,
          "time": "90960i",
          "velocity": 0.7874015748031497
        },
        {
          "duration": 0.15000000000000568,
          "durationTicks": 120,
          "midi": 74,
          "name": "D5",
          "ticks": 91080,
          "time": "91080i",
          "velocity": 0.7874015748031497
        },
        {
          "duration": 0.14999999999999147,
          "durationTicks": 120,
          "midi": 62,
          "name": "D4",
          "ticks": 91200,
          "time": "91200i",
          "velocity": 0.7874015748031497
        },
        {
          "duration": 0.15000000000000568,
          "durationTicks": 120,
          "midi": 67,
          "name": "G4",
          "ticks": 91320,
          "time": "91320i",
          "velocity": 0.7874015748031497
        },
        {
          "duration": 0.15000000000000568,
          "durationTicks": 120,
          "midi": 71,
          "name": "B4",
          "ticks": 91440,
          "time": "91440i",
          "velocity": 0.7874015748031497
        },
        {
          "duration": 0.14999999999999147,
          "durationTicks": 120,
          "midi": 61,
          "name": "C#4",
          "ticks": 91560,
          "time": "91560i",
          "velocity": 0.7874015748031497
        },
        {
          "duration": 0.15000000000000568,
          "durationTicks": 120,
          "midi": 64,
          "name": "E4",
          "ticks": 91680,
          "time": "91680i",
          "velocity": 0.7874015748031497
        },
        {
          "duration": 0.14999999999999147,
          "durationTicks": 120,
          "midi": 67,
          "name": "G4",
          "ticks": 91800,
          "time": "91800i",
          "velocity": 0.7874015748031497
        },
        {
          "duration": 0.15000000000000568,
          "durationTicks": 120,
          "midi": 73,
          "name": "C#5",
          "ticks": 91920,
          "time": "91920i",
          "velocity": 0.7874015748031497
        },
        {
          "duration": 0.15000000000000568,
          "durationTicks": 120,
          "midi": 74,
          "name": "D5",
          "ticks": 92160,
          "time": "92160i",
          "velocity": 0.7874015748031497
        },
        {
          "duration": 0.15000000000000568,
          "durationTicks": 120,
          "midi": 69,
          "name": "A4",
          "ticks": 92280,
          "time": "92280i",
          "velocity": 0.7874015748031497
        },
        {
          "duration": 0.14999999999999147,
          "durationTicks": 120,
          "midi": 66,
          "name": "F#4",
          "ticks": 92400,
          "time": "92400i",
          "velocity": 0.7874015748031497
        },
        {
          "duration": 0.15000000000000568,
          "durationTicks": 120,
          "midi": 62,
          "name": "D4",
          "ticks": 92520,
          "time": "92520i",
          "velocity": 0.7874015748031497
        },
        {
          "duration": 0.14999999999999147,
          "durationTicks": 120,
          "midi": 67,
          "name": "G4",
          "ticks": 92640,
          "time": "92640i",
          "velocity": 0.7874015748031497
        },
        {
          "duration": 0.15000000000000568,
          "durationTicks": 120,
          "midi": 71,
          "name": "B4",
          "ticks": 92760,
          "time": "92760i",
          "velocity": 0.7874015748031497
        },
        {
          "duration": 0.15000000000000568,
          "durationTicks": 120,
          "midi": 74,
          "name": "D5",
          "ticks": 92880,
          "time": "92880i",
          "velocity": 0.7874015748031497
        },
        {
          "duration": 0.14999999999999147,
          "durationTicks": 120,
          "midi": 67,
          "name": "G4",
          "ticks": 93000,
          "time": "93000i",
          "velocity": 0.7874015748031497
        },
        {
          "duration": 0.15000000000000568,
          "durationTicks": 120,
          "midi": 74,
          "name": "D5",
          "ticks": 93120,
          "time": "93120i",
          "velocity": 0.7874015748031497
        },
        {
          "duration": 0.14999999999999147,
          "durationTicks": 120,
          "midi": 72,
          "name": "C5",
          "ticks": 93240,
          "time": "93240i",
          "velocity": 0.7874015748031497
        },
        {
          "duration": 0.15000000000000568,
          "durationTicks": 120,
          "midi": 69,
          "name": "A4",
          "ticks": 93360,
          "time": "93360i",
          "velocity": 0.7874015748031497
        },
        {
          "duration": 0.15000000000000568,
          "durationTicks": 120,
          "midi": 71,
          "name": "B4",
          "ticks": 93480,
          "time": "93480i",
          "velocity": 0.7874015748031497
        },
        {
          "duration": 0.14999999999999147,
          "durationTicks": 120,
          "midi": 66,
          "name": "F#4",
          "ticks": 93600,
          "time": "93600i",
          "velocity": 0.7874015748031497
        },
        {
          "duration": 0.15000000000000568,
          "durationTicks": 120,
          "midi": 69,
          "name": "A4",
          "ticks": 93720,
          "time": "93720i",
          "velocity": 0.7874015748031497
        },
        {
          "duration": 0.07500000000000284,
          "durationTicks": 60,
          "midi": 74,
          "name": "D5",
          "ticks": 93840,
          "time": "93840i",
          "velocity": 0.7874015748031497
        },
        {
          "duration": 0.07499999999998863,
          "durationTicks": 60,
          "midi": 72,
          "name": "C5",
          "ticks": 93900,
          "time": "93900i",
          "velocity": 0.7874015748031497
        },
        {
          "duration": 0.07500000000000284,
          "durationTicks": 60,
          "midi": 71,
          "name": "B4",
          "ticks": 93960,
          "time": "93960i",
          "velocity": 0.7874015748031497
        },
        {
          "duration": 0.07500000000000284,
          "durationTicks": 60,
          "midi": 69,
          "name": "A4",
          "ticks": 94020,
          "time": "94020i",
          "velocity": 0.7874015748031497
        },
        {
          "duration": 0.15000000000000568,
          "durationTicks": 120,
          "midi": 67,
          "name": "G4",
          "ticks": 94080,
          "time": "94080i",
          "velocity": 0.7874015748031497
        },
        {
          "duration": 0.14999999999999147,
          "durationTicks": 120,
          "midi": 71,
          "name": "B4",
          "ticks": 94200,
          "time": "94200i",
          "velocity": 0.7874015748031497
        },
        {
          "duration": 0.15000000000000568,
          "durationTicks": 120,
          "midi": 74,
          "name": "D5",
          "ticks": 94320,
          "time": "94320i",
          "velocity": 0.7874015748031497
        },
        {
          "duration": 0.14999999999999147,
          "durationTicks": 120,
          "midi": 79,
          "name": "G5",
          "ticks": 94440,
          "time": "94440i",
          "velocity": 0.7874015748031497
        },
        {
          "duration": 0.15000000000000568,
          "durationTicks": 120,
          "midi": 74,
          "name": "D5",
          "ticks": 94560,
          "time": "94560i",
          "velocity": 0.7874015748031497
        },
        {
          "duration": 0.15000000000000568,
          "durationTicks": 120,
          "midi": 71,
          "name": "B4",
          "ticks": 94680,
          "time": "94680i",
          "velocity": 0.7874015748031497
        },
        {
          "duration": 0.14999999999999147,
          "durationTicks": 120,
          "midi": 67,
          "name": "G4",
          "ticks": 94800,
          "time": "94800i",
          "velocity": 0.7874015748031497
        },
        {
          "duration": 0.15000000000000568,
          "durationTicks": 120,
          "midi": 74,
          "name": "D5",
          "ticks": 94920,
          "time": "94920i",
          "velocity": 0.7874015748031497
        },
        {
          "duration": 0.14999999999999147,
          "durationTicks": 120,
          "midi": 62,
          "name": "D4",
          "ticks": 95040,
          "time": "95040i",
          "velocity": 0.7874015748031497
        },
        {
          "duration": 0.15000000000000568,
          "durationTicks": 120,
          "midi": 67,
          "name": "G4",
          "ticks": 95160,
          "time": "95160i",
          "velocity": 0.7874015748031497
        },
        {
          "duration": 0.15000000000000568,
          "durationTicks": 120,
          "midi": 71,
          "name": "B4",
          "ticks": 95280,
          "time": "95280i",
          "velocity": 0.7874015748031497
        },
        {
          "duration": 0.14999999999999147,
          "durationTicks": 120,
          "midi": 61,
          "name": "C#4",
          "ticks": 95400,
          "time": "95400i",
          "velocity": 0.7874015748031497
        },
        {
          "duration": 0.15000000000000568,
          "durationTicks": 120,
          "midi": 64,
          "name": "E4",
          "ticks": 95520,
          "time": "95520i",
          "velocity": 0.7874015748031497
        },
        {
          "duration": 0.14999999999999147,
          "durationTicks": 120,
          "midi": 67,
          "name": "G4",
          "ticks": 95640,
          "time": "95640i",
          "velocity": 0.7874015748031497
        },
        {
          "duration": 0.15000000000000568,
          "durationTicks": 120,
          "midi": 73,
          "name": "C#5",
          "ticks": 95760,
          "time": "95760i",
          "velocity": 0.7874015748031497
        },
        {
          "duration": 0.14999999999999147,
          "durationTicks": 120,
          "midi": 74,
          "name": "D5",
          "ticks": 96000,
          "time": "96000i",
          "velocity": 0.7874015748031497
        },
        {
          "duration": 0.15000000000000568,
          "durationTicks": 120,
          "midi": 69,
          "name": "A4",
          "ticks": 96120,
          "time": "96120i",
          "velocity": 0.7874015748031497
        },
        {
          "duration": 0.14999999999999147,
          "durationTicks": 120,
          "midi": 66,
          "name": "F#4",
          "ticks": 96240,
          "time": "96240i",
          "velocity": 0.7874015748031497
        },
        {
          "duration": 0.15000000000000568,
          "durationTicks": 120,
          "midi": 62,
          "name": "D4",
          "ticks": 96360,
          "time": "96360i",
          "velocity": 0.7874015748031497
        },
        {
          "duration": 0.15000000000000568,
          "durationTicks": 120,
          "midi": 67,
          "name": "G4",
          "ticks": 96480,
          "time": "96480i",
          "velocity": 0.7874015748031497
        },
        {
          "duration": 0.14999999999999147,
          "durationTicks": 120,
          "midi": 71,
          "name": "B4",
          "ticks": 96600,
          "time": "96600i",
          "velocity": 0.7874015748031497
        },
        {
          "duration": 0.15000000000000568,
          "durationTicks": 120,
          "midi": 74,
          "name": "D5",
          "ticks": 96720,
          "time": "96720i",
          "velocity": 0.7874015748031497
        },
        {
          "duration": 0.14999999999999147,
          "durationTicks": 120,
          "midi": 67,
          "name": "G4",
          "ticks": 96840,
          "time": "96840i",
          "velocity": 0.7874015748031497
        },
        {
          "duration": 0.15000000000000568,
          "durationTicks": 120,
          "midi": 74,
          "name": "D5",
          "ticks": 96960,
          "time": "96960i",
          "velocity": 0.7874015748031497
        },
        {
          "duration": 0.15000000000000568,
          "durationTicks": 120,
          "midi": 72,
          "name": "C5",
          "ticks": 97080,
          "time": "97080i",
          "velocity": 0.7874015748031497
        },
        {
          "duration": 0.14999999999999147,
          "durationTicks": 120,
          "midi": 69,
          "name": "A4",
          "ticks": 97200,
          "time": "97200i",
          "velocity": 0.7874015748031497
        },
        {
          "duration": 0.15000000000000568,
          "durationTicks": 120,
          "midi": 71,
          "name": "B4",
          "ticks": 97320,
          "time": "97320i",
          "velocity": 0.7874015748031497
        },
        {
          "duration": 0.14999999999999147,
          "durationTicks": 120,
          "midi": 66,
          "name": "F#4",
          "ticks": 97440,
          "time": "97440i",
          "velocity": 0.7874015748031497
        },
        {
          "duration": 0.15000000000000568,
          "durationTicks": 120,
          "midi": 69,
          "name": "A4",
          "ticks": 97560,
          "time": "97560i",
          "velocity": 0.7874015748031497
        },
        {
          "duration": 0.07500000000000284,
          "durationTicks": 60,
          "midi": 74,
          "name": "D5",
          "ticks": 97680,
          "time": "97680i",
          "velocity": 0.7874015748031497
        },
        {
          "duration": 0.07500000000000284,
          "durationTicks": 60,
          "midi": 72,
          "name": "C5",
          "ticks": 97740,
          "time": "97740i",
          "velocity": 0.7874015748031497
        },
        {
          "duration": 0.07499999999998863,
          "durationTicks": 60,
          "midi": 71,
          "name": "B4",
          "ticks": 97800,
          "time": "97800i",
          "velocity": 0.7874015748031497
        },
        {
          "duration": 0.07500000000000284,
          "durationTicks": 60,
          "midi": 69,
          "name": "A4",
          "ticks": 97860,
          "time": "97860i",
          "velocity": 0.7874015748031497
        },
        {
          "duration": 0.15000000000000568,
          "durationTicks": 120,
          "midi": 67,
          "name": "G4",
          "ticks": 97920,
          "time": "97920i",
          "velocity": 0.7874015748031497
        },
        {
          "duration": 0.14999999999999147,
          "durationTicks": 120,
          "midi": 71,
          "name": "B4",
          "ticks": 98040,
          "time": "98040i",
          "velocity": 0.7874015748031497
        },
        {
          "duration": 0.15000000000000568,
          "durationTicks": 120,
          "midi": 74,
          "name": "D5",
          "ticks": 98160,
          "time": "98160i",
          "velocity": 0.7874015748031497
        },
        {
          "duration": 0.15000000000000568,
          "durationTicks": 120,
          "midi": 79,
          "name": "G5",
          "ticks": 98280,
          "time": "98280i",
          "velocity": 0.7874015748031497
        },
        {
          "duration": 0.14999999999999147,
          "durationTicks": 120,
          "midi": 74,
          "name": "D5",
          "ticks": 98400,
          "time": "98400i",
          "velocity": 0.7874015748031497
        },
        {
          "duration": 0.15000000000000568,
          "durationTicks": 120,
          "midi": 71,
          "name": "B4",
          "ticks": 98520,
          "time": "98520i",
          "velocity": 0.7874015748031497
        },
        {
          "duration": 0.14999999999999147,
          "durationTicks": 120,
          "midi": 67,
          "name": "G4",
          "ticks": 98640,
          "time": "98640i",
          "velocity": 0.7874015748031497
        },
        {
          "duration": 0.15000000000000568,
          "durationTicks": 120,
          "midi": 74,
          "name": "D5",
          "ticks": 98760,
          "time": "98760i",
          "velocity": 0.7874015748031497
        },
        {
          "duration": 0.15000000000000568,
          "durationTicks": 120,
          "midi": 62,
          "name": "D4",
          "ticks": 98880,
          "time": "98880i",
          "velocity": 0.7874015748031497
        },
        {
          "duration": 0.14999999999999147,
          "durationTicks": 120,
          "midi": 67,
          "name": "G4",
          "ticks": 99000,
          "time": "99000i",
          "velocity": 0.7874015748031497
        },
        {
          "duration": 0.15000000000000568,
          "durationTicks": 120,
          "midi": 71,
          "name": "B4",
          "ticks": 99120,
          "time": "99120i",
          "velocity": 0.7874015748031497
        },
        {
          "duration": 0.14999999999999147,
          "durationTicks": 120,
          "midi": 61,
          "name": "C#4",
          "ticks": 99240,
          "time": "99240i",
          "velocity": 0.7874015748031497
        },
        {
          "duration": 0.15000000000000568,
          "durationTicks": 120,
          "midi": 64,
          "name": "E4",
          "ticks": 99360,
          "time": "99360i",
          "velocity": 0.7874015748031497
        },
        {
          "duration": 0.15000000000000568,
          "durationTicks": 120,
          "midi": 67,
          "name": "G4",
          "ticks": 99480,
          "time": "99480i",
          "velocity": 0.7874015748031497
        },
        {
          "duration": 0.14999999999999147,
          "durationTicks": 120,
          "midi": 73,
          "name": "C#5",
          "ticks": 99600,
          "time": "99600i",
          "velocity": 0.7874015748031497
        },
        {
          "duration": 0.14999999999999147,
          "durationTicks": 120,
          "midi": 74,
          "name": "D5",
          "ticks": 99840,
          "time": "99840i",
          "velocity": 0.7874015748031497
        },
        {
          "duration": 0.15000000000000568,
          "durationTicks": 120,
          "midi": 69,
          "name": "A4",
          "ticks": 99960,
          "time": "99960i",
          "velocity": 0.7874015748031497
        },
        {
          "duration": 0.15000000000000568,
          "durationTicks": 120,
          "midi": 66,
          "name": "F#4",
          "ticks": 100080,
          "time": "100080i",
          "velocity": 0.7874015748031497
        },
        {
          "duration": 0.14999999999999147,
          "durationTicks": 120,
          "midi": 62,
          "name": "D4",
          "ticks": 100200,
          "time": "100200i",
          "velocity": 0.7874015748031497
        },
        {
          "duration": 0.15000000000000568,
          "durationTicks": 120,
          "midi": 67,
          "name": "G4",
          "ticks": 100320,
          "time": "100320i",
          "velocity": 0.7874015748031497
        },
        {
          "duration": 0.14999999999999147,
          "durationTicks": 120,
          "midi": 71,
          "name": "B4",
          "ticks": 100440,
          "time": "100440i",
          "velocity": 0.7874015748031497
        },
        {
          "duration": 0.15000000000000568,
          "durationTicks": 120,
          "midi": 74,
          "name": "D5",
          "ticks": 100560,
          "time": "100560i",
          "velocity": 0.7874015748031497
        },
        {
          "duration": 0.15000000000000568,
          "durationTicks": 120,
          "midi": 67,
          "name": "G4",
          "ticks": 100680,
          "time": "100680i",
          "velocity": 0.7874015748031497
        },
        {
          "duration": 0.14999999999999147,
          "durationTicks": 120,
          "midi": 74,
          "name": "D5",
          "ticks": 100800,
          "time": "100800i",
          "velocity": 0.7874015748031497
        },
        {
          "duration": 0.15000000000000568,
          "durationTicks": 120,
          "midi": 72,
          "name": "C5",
          "ticks": 100920,
          "time": "100920i",
          "velocity": 0.7874015748031497
        },
        {
          "duration": 0.14999999999999147,
          "durationTicks": 120,
          "midi": 69,
          "name": "A4",
          "ticks": 101040,
          "time": "101040i",
          "velocity": 0.7874015748031497
        },
        {
          "duration": 0.15000000000000568,
          "durationTicks": 120,
          "midi": 71,
          "name": "B4",
          "ticks": 101160,
          "time": "101160i",
          "velocity": 0.7874015748031497
        },
        {
          "duration": 0.15000000000000568,
          "durationTicks": 120,
          "midi": 66,
          "name": "F#4",
          "ticks": 101280,
          "time": "101280i",
          "velocity": 0.7874015748031497
        },
        {
          "duration": 0.14999999999999147,
          "durationTicks": 120,
          "midi": 69,
          "name": "A4",
          "ticks": 101400,
          "time": "101400i",
          "velocity": 0.7874015748031497
        },
        {
          "duration": 0.07500000000000284,
          "durationTicks": 60,
          "midi": 74,
          "name": "D5",
          "ticks": 101520,
          "time": "101520i",
          "velocity": 0.7874015748031497
        },
        {
          "duration": 0.07500000000000284,
          "durationTicks": 60,
          "midi": 72,
          "name": "C5",
          "ticks": 101580,
          "time": "101580i",
          "velocity": 0.7874015748031497
        },
        {
          "duration": 0.07500000000000284,
          "durationTicks": 60,
          "midi": 71,
          "name": "B4",
          "ticks": 101640,
          "time": "101640i",
          "velocity": 0.7874015748031497
        },
        {
          "duration": 0.07499999999998863,
          "durationTicks": 60,
          "midi": 69,
          "name": "A4",
          "ticks": 101700,
          "time": "101700i",
          "velocity": 0.7874015748031497
        },
        {
          "duration": 1.200000000000017,
          "durationTicks": 960,
          "midi": 67,
          "name": "G4",
          "ticks": 101760,
          "time": "101760i",
          "velocity": 0.7874015748031497
        },
        {
          "duration": 0.6000000000000227,
          "durationTicks": 480,
          "midi": 71,
          "name": "B4",
          "ticks": 103440,
          "time": "103440i",
          "velocity": 0.7874015748031497
        },
        {
          "duration": 0.5999999999999943,
          "durationTicks": 480,
          "midi": 69,
          "name": "A4",
          "ticks": 103920,
          "time": "103920i",
          "velocity": 0.7874015748031497
        },
        {
          "duration": 0.44999999999998863,
          "durationTicks": 360,
          "midi": 67,
          "name": "G4",
          "ticks": 104400,
          "time": "104400i",
          "velocity": 0.7874015748031497
        },
        {
          "duration": 0.15000000000000568,
          "durationTicks": 120,
          "midi": 66,
          "name": "F#4",
          "ticks": 104760,
          "time": "104760i",
          "velocity": 0.7874015748031497
        },
        {
          "duration": 0.15000000000000568,
          "durationTicks": 120,
          "midi": 67,
          "name": "G4",
          "ticks": 104880,
          "time": "104880i",
          "velocity": 0.7874015748031497
        },
        {
          "duration": 0.15000000000000568,
          "durationTicks": 120,
          "midi": 69,
          "name": "A4",
          "ticks": 105000,
          "time": "105000i",
          "velocity": 0.7874015748031497
        },
        {
          "duration": 0.14999999999997726,
          "durationTicks": 120,
          "midi": 71,
          "name": "B4",
          "ticks": 105120,
          "time": "105120i",
          "velocity": 0.7874015748031497
        },
        {
          "duration": 0.15000000000000568,
          "durationTicks": 120,
          "midi": 74,
          "name": "D5",
          "ticks": 105240,
          "time": "105240i",
          "velocity": 0.7874015748031497
        },
        {
          "duration": 0.15000000000000568,
          "durationTicks": 120,
          "midi": 72,
          "name": "C5",
          "ticks": 105360,
          "time": "105360i",
          "velocity": 0.7874015748031497
        },
        {
          "duration": 0.15000000000000568,
          "durationTicks": 120,
          "midi": 71,
          "name": "B4",
          "ticks": 105480,
          "time": "105480i",
          "velocity": 0.7874015748031497
        },
        {
          "duration": 0.15000000000000568,
          "durationTicks": 120,
          "midi": 69,
          "name": "A4",
          "ticks": 105600,
          "time": "105600i",
          "velocity": 0.7874015748031497
        },
        {
          "duration": 0.14999999999997726,
          "durationTicks": 120,
          "midi": 67,
          "name": "G4",
          "ticks": 105720,
          "time": "105720i",
          "velocity": 0.7874015748031497
        },
        {
          "duration": 0.15000000000000568,
          "durationTicks": 120,
          "midi": 66,
          "name": "F#4",
          "ticks": 105840,
          "time": "105840i",
          "velocity": 0.7874015748031497
        },
        {
          "duration": 0.15000000000000568,
          "durationTicks": 120,
          "midi": 64,
          "name": "E4",
          "ticks": 105960,
          "time": "105960i",
          "velocity": 0.7874015748031497
        },
        {
          "duration": 0.15000000000000568,
          "durationTicks": 120,
          "midi": 62,
          "name": "D4",
          "ticks": 106080,
          "time": "106080i",
          "velocity": 0.7874015748031497
        },
        {
          "duration": 0.15000000000000568,
          "durationTicks": 120,
          "midi": 60,
          "name": "C4",
          "ticks": 106200,
          "time": "106200i",
          "velocity": 0.7874015748031497
        },
        {
          "duration": 0.14999999999997726,
          "durationTicks": 120,
          "midi": 59,
          "name": "B3",
          "ticks": 106320,
          "time": "106320i",
          "velocity": 0.7874015748031497
        },
        {
          "duration": 0.15000000000000568,
          "durationTicks": 120,
          "midi": 57,
          "name": "A3",
          "ticks": 106440,
          "time": "106440i",
          "velocity": 0.7874015748031497
        },
        {
          "duration": 0.15000000000000568,
          "durationTicks": 120,
          "midi": 55,
          "name": "G3",
          "ticks": 106560,
          "time": "106560i",
          "velocity": 0.7874015748031497
        },
        {
          "duration": 0.15000000000000568,
          "durationTicks": 120,
          "midi": 57,
          "name": "A3",
          "ticks": 106680,
          "time": "106680i",
          "velocity": 0.7874015748031497
        },
        {
          "duration": 0.29999999999998295,
          "durationTicks": 240,
          "midi": 59,
          "name": "B3",
          "ticks": 106800,
          "time": "106800i",
          "velocity": 0.7874015748031497
        },
        {
          "duration": 0.5999999999999943,
          "durationTicks": 480,
          "midi": 71,
          "name": "B4",
          "ticks": 107280,
          "time": "107280i",
          "velocity": 0.7874015748031497
        },
        {
          "duration": 0.5999999999999943,
          "durationTicks": 480,
          "midi": 69,
          "name": "A4",
          "ticks": 107760,
          "time": "107760i",
          "velocity": 0.7874015748031497
        },
        {
          "duration": 0.45000000000001705,
          "durationTicks": 360,
          "midi": 67,
          "name": "G4",
          "ticks": 108240,
          "time": "108240i",
          "velocity": 0.7874015748031497
        },
        {
          "duration": 0.15000000000000568,
          "durationTicks": 120,
          "midi": 66,
          "name": "F#4",
          "ticks": 108600,
          "time": "108600i",
          "velocity": 0.7874015748031497
        },
        {
          "duration": 0.14999999999997726,
          "durationTicks": 120,
          "midi": 67,
          "name": "G4",
          "ticks": 108720,
          "time": "108720i",
          "velocity": 0.7874015748031497
        },
        {
          "duration": 0.15000000000000568,
          "durationTicks": 120,
          "midi": 69,
          "name": "A4",
          "ticks": 108840,
          "time": "108840i",
          "velocity": 0.7874015748031497
        },
        {
          "duration": 0.15000000000000568,
          "durationTicks": 120,
          "midi": 71,
          "name": "B4",
          "ticks": 108960,
          "time": "108960i",
          "velocity": 0.7874015748031497
        },
        {
          "duration": 0.15000000000000568,
          "durationTicks": 120,
          "midi": 74,
          "name": "D5",
          "ticks": 109080,
          "time": "109080i",
          "velocity": 0.7874015748031497
        },
        {
          "duration": 0.15000000000000568,
          "durationTicks": 120,
          "midi": 72,
          "name": "C5",
          "ticks": 109200,
          "time": "109200i",
          "velocity": 0.7874015748031497
        },
        {
          "duration": 0.14999999999997726,
          "durationTicks": 120,
          "midi": 71,
          "name": "B4",
          "ticks": 109320,
          "time": "109320i",
          "velocity": 0.7874015748031497
        },
        {
          "duration": 0.15000000000000568,
          "durationTicks": 120,
          "midi": 69,
          "name": "A4",
          "ticks": 109440,
          "time": "109440i",
          "velocity": 0.7874015748031497
        },
        {
          "duration": 0.15000000000000568,
          "durationTicks": 120,
          "midi": 67,
          "name": "G4",
          "ticks": 109560,
          "time": "109560i",
          "velocity": 0.7874015748031497
        },
        {
          "duration": 0.15000000000000568,
          "durationTicks": 120,
          "midi": 66,
          "name": "F#4",
          "ticks": 109680,
          "time": "109680i",
          "velocity": 0.7874015748031497
        },
        {
          "duration": 0.15000000000000568,
          "durationTicks": 120,
          "midi": 64,
          "name": "E4",
          "ticks": 109800,
          "time": "109800i",
          "velocity": 0.7874015748031497
        },
        {
          "duration": 0.14999999999997726,
          "durationTicks": 120,
          "midi": 62,
          "name": "D4",
          "ticks": 109920,
          "time": "109920i",
          "velocity": 0.7874015748031497
        },
        {
          "duration": 0.15000000000000568,
          "durationTicks": 120,
          "midi": 60,
          "name": "C4",
          "ticks": 110040,
          "time": "110040i",
          "velocity": 0.7874015748031497
        },
        {
          "duration": 0.15000000000000568,
          "durationTicks": 120,
          "midi": 59,
          "name": "B3",
          "ticks": 110160,
          "time": "110160i",
          "velocity": 0.7874015748031497
        },
        {
          "duration": 0.15000000000000568,
          "durationTicks": 120,
          "midi": 57,
          "name": "A3",
          "ticks": 110280,
          "time": "110280i",
          "velocity": 0.7874015748031497
        },
        {
          "duration": 0.15000000000000568,
          "durationTicks": 120,
          "midi": 55,
          "name": "G3",
          "ticks": 110400,
          "time": "110400i",
          "velocity": 0.7874015748031497
        },
        {
          "duration": 0.14999999999997726,
          "durationTicks": 120,
          "midi": 57,
          "name": "A3",
          "ticks": 110520,
          "time": "110520i",
          "velocity": 0.7874015748031497
        },
        {
          "duration": 0.30000000000001137,
          "durationTicks": 240,
          "midi": 59,
          "name": "B3",
          "ticks": 110640,
          "time": "110640i",
          "velocity": 0.7874015748031497
        },
        {
          "duration": 0.5999999999999943,
          "durationTicks": 480,
          "midi": 71,
          "name": "B4",
          "ticks": 111120,
          "time": "111120i",
          "velocity": 0.7874015748031497
        },
        {
          "duration": 0.5999999999999943,
          "durationTicks": 480,
          "midi": 69,
          "name": "A4",
          "ticks": 111600,
          "time": "111600i",
          "velocity": 0.7874015748031497
        },
        {
          "duration": 0.44999999999998863,
          "durationTicks": 360,
          "midi": 67,
          "name": "G4",
          "ticks": 112080,
          "time": "112080i",
          "velocity": 0.7874015748031497
        },
        {
          "duration": 0.15000000000000568,
          "durationTicks": 120,
          "midi": 66,
          "name": "F#4",
          "ticks": 112440,
          "time": "112440i",
          "velocity": 0.7874015748031497
        },
        {
          "duration": 0.15000000000000568,
          "durationTicks": 120,
          "midi": 67,
          "name": "G4",
          "ticks": 112560,
          "time": "112560i",
          "velocity": 0.7874015748031497
        },
        {
          "duration": 0.15000000000000568,
          "durationTicks": 120,
          "midi": 69,
          "name": "A4",
          "ticks": 112680,
          "time": "112680i",
          "velocity": 0.7874015748031497
        },
        {
          "duration": 0.15000000000000568,
          "durationTicks": 120,
          "midi": 71,
          "name": "B4",
          "ticks": 112800,
          "time": "112800i",
          "velocity": 0.7874015748031497
        },
        {
          "duration": 0.14999999999997726,
          "durationTicks": 120,
          "midi": 74,
          "name": "D5",
          "ticks": 112920,
          "time": "112920i",
          "velocity": 0.7874015748031497
        },
        {
          "duration": 0.15000000000000568,
          "durationTicks": 120,
          "midi": 72,
          "name": "C5",
          "ticks": 113040,
          "time": "113040i",
          "velocity": 0.7874015748031497
        },
        {
          "duration": 0.15000000000000568,
          "durationTicks": 120,
          "midi": 71,
          "name": "B4",
          "ticks": 113160,
          "time": "113160i",
          "velocity": 0.7874015748031497
        },
        {
          "duration": 0.15000000000000568,
          "durationTicks": 120,
          "midi": 69,
          "name": "A4",
          "ticks": 113280,
          "time": "113280i",
          "velocity": 0.7874015748031497
        },
        {
          "duration": 0.15000000000000568,
          "durationTicks": 120,
          "midi": 67,
          "name": "G4",
          "ticks": 113400,
          "time": "113400i",
          "velocity": 0.7874015748031497
        },
        {
          "duration": 0.14999999999997726,
          "durationTicks": 120,
          "midi": 66,
          "name": "F#4",
          "ticks": 113520,
          "time": "113520i",
          "velocity": 0.7874015748031497
        },
        {
          "duration": 0.15000000000000568,
          "durationTicks": 120,
          "midi": 64,
          "name": "E4",
          "ticks": 113640,
          "time": "113640i",
          "velocity": 0.7874015748031497
        },
        {
          "duration": 0.15000000000000568,
          "durationTicks": 120,
          "midi": 62,
          "name": "D4",
          "ticks": 113760,
          "time": "113760i",
          "velocity": 0.7874015748031497
        },
        {
          "duration": 0.15000000000000568,
          "durationTicks": 120,
          "midi": 60,
          "name": "C4",
          "ticks": 113880,
          "time": "113880i",
          "velocity": 0.7874015748031497
        },
        {
          "duration": 0.15000000000000568,
          "durationTicks": 120,
          "midi": 59,
          "name": "B3",
          "ticks": 114000,
          "time": "114000i",
          "velocity": 0.7874015748031497
        },
        {
          "duration": 0.14999999999997726,
          "durationTicks": 120,
          "midi": 57,
          "name": "A3",
          "ticks": 114120,
          "time": "114120i",
          "velocity": 0.7874015748031497
        },
        {
          "duration": 1.200000000000017,
          "durationTicks": 960,
          "midi": 55,
          "name": "G3",
          "ticks": 114240,
          "time": "114240i",
          "velocity": 0.7874015748031497
        },
        {
          "duration": 0.29999999999998295,
          "durationTicks": 240,
          "midi": 71,
          "name": "B4",
          "ticks": 115920,
          "time": "115920i",
          "velocity": 0.7874015748031497
        },
        {
          "duration": 0.30000000000001137,
          "durationTicks": 240,
          "midi": 70,
          "name": "A#4",
          "ticks": 116160,
          "time": "116160i",
          "velocity": 0.7874015748031497
        },
        {
          "duration": 0.29999999999998295,
          "durationTicks": 240,
          "midi": 69,
          "name": "A4",
          "ticks": 116400,
          "time": "116400i",
          "velocity": 0.7874015748031497
        },
        {
          "duration": 0.30000000000001137,
          "durationTicks": 240,
          "midi": 68,
          "name": "G#4",
          "ticks": 116640,
          "time": "116640i",
          "velocity": 0.7874015748031497
        },
        {
          "duration": 0.30000000000001137,
          "durationTicks": 240,
          "midi": 67,
          "name": "G4",
          "ticks": 116880,
          "time": "116880i",
          "velocity": 0.7874015748031497
        },
        {
          "duration": 0.14999999999997726,
          "durationTicks": 120,
          "midi": 66,
          "name": "F#4",
          "ticks": 117120,
          "time": "117120i",
          "velocity": 0.7874015748031497
        },
        {
          "duration": 0.15000000000000568,
          "durationTicks": 120,
          "midi": 67,
          "name": "G4",
          "ticks": 117240,
          "time": "117240i",
          "velocity": 0.7874015748031497
        },
        {
          "duration": 0.15000000000000568,
          "durationTicks": 120,
          "midi": 66,
          "name": "F#4",
          "ticks": 117360,
          "time": "117360i",
          "velocity": 0.7874015748031497
        },
        {
          "duration": 0.15000000000000568,
          "durationTicks": 120,
          "midi": 64,
          "name": "E4",
          "ticks": 117480,
          "time": "117480i",
          "velocity": 0.7874015748031497
        },
        {
          "duration": 0.29999999999998295,
          "durationTicks": 240,
          "midi": 62,
          "name": "D4",
          "ticks": 117600,
          "time": "117600i",
          "velocity": 0.7874015748031497
        },
        {
          "duration": 0.29999999999998295,
          "durationTicks": 240,
          "midi": 67,
          "name": "G4",
          "ticks": 118320,
          "time": "118320i",
          "velocity": 0.7874015748031497
        },
        {
          "duration": 0.15000000000000568,
          "durationTicks": 120,
          "midi": 74,
          "name": "D5",
          "ticks": 118560,
          "time": "118560i",
          "velocity": 0.7874015748031497
        },
        {
          "duration": 0.15000000000000568,
          "durationTicks": 120,
          "midi": 72,
          "name": "C5",
          "ticks": 118680,
          "time": "118680i",
          "velocity": 0.7874015748031497
        },
        {
          "duration": 0.15000000000000568,
          "durationTicks": 120,
          "midi": 71,
          "name": "B4",
          "ticks": 118800,
          "time": "118800i",
          "velocity": 0.7874015748031497
        },
        {
          "duration": 0.14999999999997726,
          "durationTicks": 120,
          "midi": 69,
          "name": "A4",
          "ticks": 118920,
          "time": "118920i",
          "velocity": 0.7874015748031497
        },
        {
          "duration": 0.6000000000000227,
          "durationTicks": 480,
          "midi": 67,
          "name": "G4",
          "ticks": 119040,
          "time": "119040i",
          "velocity": 0.7874015748031497
        },
        {
          "duration": 0.30000000000001137,
          "durationTicks": 240,
          "midi": 71,
          "name": "B4",
          "ticks": 119760,
          "time": "119760i",
          "velocity": 0.7874015748031497
        },
        {
          "duration": 0.29999999999998295,
          "durationTicks": 240,
          "midi": 70,
          "name": "A#4",
          "ticks": 120000,
          "time": "120000i",
          "velocity": 0.7874015748031497
        },
        {
          "duration": 0.30000000000001137,
          "durationTicks": 240,
          "midi": 69,
          "name": "A4",
          "ticks": 120240,
          "time": "120240i",
          "velocity": 0.7874015748031497
        },
        {
          "duration": 0.30000000000001137,
          "durationTicks": 240,
          "midi": 68,
          "name": "G#4",
          "ticks": 120480,
          "time": "120480i",
          "velocity": 0.7874015748031497
        },
        {
          "duration": 0.29999999999998295,
          "durationTicks": 240,
          "midi": 67,
          "name": "G4",
          "ticks": 120720,
          "time": "120720i",
          "velocity": 0.7874015748031497
        },
        {
          "duration": 0.15000000000000568,
          "durationTicks": 120,
          "midi": 66,
          "name": "F#4",
          "ticks": 120960,
          "time": "120960i",
          "velocity": 0.7874015748031497
        },
        {
          "duration": 0.15000000000000568,
          "durationTicks": 120,
          "midi": 67,
          "name": "G4",
          "ticks": 121080,
          "time": "121080i",
          "velocity": 0.7874015748031497
        },
        {
          "duration": 0.15000000000000568,
          "durationTicks": 120,
          "midi": 66,
          "name": "F#4",
          "ticks": 121200,
          "time": "121200i",
          "velocity": 0.7874015748031497
        },
        {
          "duration": 0.14999999999997726,
          "durationTicks": 120,
          "midi": 64,
          "name": "E4",
          "ticks": 121320,
          "time": "121320i",
          "velocity": 0.7874015748031497
        },
        {
          "duration": 0.30000000000001137,
          "durationTicks": 240,
          "midi": 62,
          "name": "D4",
          "ticks": 121440,
          "time": "121440i",
          "velocity": 0.7874015748031497
        },
        {
          "duration": 0.30000000000001137,
          "durationTicks": 240,
          "midi": 67,
          "name": "G4",
          "ticks": 122160,
          "time": "122160i",
          "velocity": 0.7874015748031497
        },
        {
          "duration": 0.15000000000000568,
          "durationTicks": 120,
          "midi": 74,
          "name": "D5",
          "ticks": 122400,
          "time": "122400i",
          "velocity": 0.7874015748031497
        },
        {
          "duration": 0.14999999999997726,
          "durationTicks": 120,
          "midi": 72,
          "name": "C5",
          "ticks": 122520,
          "time": "122520i",
          "velocity": 0.7874015748031497
        },
        {
          "duration": 0.15000000000000568,
          "durationTicks": 120,
          "midi": 71,
          "name": "B4",
          "ticks": 122640,
          "time": "122640i",
          "velocity": 0.7874015748031497
        },
        {
          "duration": 0.15000000000000568,
          "durationTicks": 120,
          "midi": 69,
          "name": "A4",
          "ticks": 122760,
          "time": "122760i",
          "velocity": 0.7874015748031497
        },
        {
          "duration": 0.5999999999999943,
          "durationTicks": 480,
          "midi": 67,
          "name": "G4",
          "ticks": 122880,
          "time": "122880i",
          "velocity": 0.7874015748031497
        },
        {
          "duration": 0.29999999999998295,
          "durationTicks": 240,
          "midi": 71,
          "name": "B4",
          "ticks": 123600,
          "time": "123600i",
          "velocity": 0.7874015748031497
        },
        {
          "duration": 0.30000000000001137,
          "durationTicks": 240,
          "midi": 70,
          "name": "A#4",
          "ticks": 123840,
          "time": "123840i",
          "velocity": 0.7874015748031497
        },
        {
          "duration": 0.30000000000001137,
          "durationTicks": 240,
          "midi": 69,
          "name": "A4",
          "ticks": 124080,
          "time": "124080i",
          "velocity": 0.7874015748031497
        },
        {
          "duration": 0.29999999999998295,
          "durationTicks": 240,
          "midi": 68,
          "name": "G#4",
          "ticks": 124320,
          "time": "124320i",
          "velocity": 0.7874015748031497
        },
        {
          "duration": 0.30000000000001137,
          "durationTicks": 240,
          "midi": 67,
          "name": "G4",
          "ticks": 124560,
          "time": "124560i",
          "velocity": 0.7874015748031497
        },
        {
          "duration": 0.15000000000000568,
          "durationTicks": 120,
          "midi": 66,
          "name": "F#4",
          "ticks": 124800,
          "time": "124800i",
          "velocity": 0.7874015748031497
        },
        {
          "duration": 0.14999999999997726,
          "durationTicks": 120,
          "midi": 67,
          "name": "G4",
          "ticks": 124920,
          "time": "124920i",
          "velocity": 0.7874015748031497
        },
        {
          "duration": 0.15000000000000568,
          "durationTicks": 120,
          "midi": 66,
          "name": "F#4",
          "ticks": 125040,
          "time": "125040i",
          "velocity": 0.7874015748031497
        },
        {
          "duration": 0.15000000000000568,
          "durationTicks": 120,
          "midi": 64,
          "name": "E4",
          "ticks": 125160,
          "time": "125160i",
          "velocity": 0.7874015748031497
        },
        {
          "duration": 0.30000000000001137,
          "durationTicks": 240,
          "midi": 62,
          "name": "D4",
          "ticks": 125280,
          "time": "125280i",
          "velocity": 0.7874015748031497
        },
        {
          "duration": 0.29999999999998295,
          "durationTicks": 240,
          "midi": 67,
          "name": "G4",
          "ticks": 126000,
          "time": "126000i",
          "velocity": 0.7874015748031497
        },
        {
          "duration": 0.15000000000000568,
          "durationTicks": 120,
          "midi": 74,
          "name": "D5",
          "ticks": 126240,
          "time": "126240i",
          "velocity": 0.7874015748031497
        },
        {
          "duration": 0.15000000000000568,
          "durationTicks": 120,
          "midi": 72,
          "name": "C5",
          "ticks": 126360,
          "time": "126360i",
          "velocity": 0.7874015748031497
        },
        {
          "duration": 0.15000000000000568,
          "durationTicks": 120,
          "midi": 71,
          "name": "B4",
          "ticks": 126480,
          "time": "126480i",
          "velocity": 0.7874015748031497
        },
        {
          "duration": 0.15000000000000568,
          "durationTicks": 120,
          "midi": 69,
          "name": "A4",
          "ticks": 126600,
          "time": "126600i",
          "velocity": 0.7874015748031497
        },
        {
          "duration": 1.1999999999999886,
          "durationTicks": 960,
          "midi": 67,
          "name": "G4",
          "ticks": 126720,
          "time": "126720i",
          "velocity": 0.7874015748031497
        },
        {
          "duration": 0.15000000000000568,
          "durationTicks": 120,
          "midi": 79,
          "name": "G5",
          "ticks": 127800,
          "time": "127800i",
          "velocity": 0.7874015748031497
        },
        {
          "duration": 0.14999999999997726,
          "durationTicks": 120,
          "midi": 78,
          "name": "F#5",
          "ticks": 127920,
          "time": "127920i",
          "velocity": 0.7874015748031497
        },
        {
          "duration": 0.15000000000000568,
          "durationTicks": 120,
          "midi": 76,
          "name": "E5",
          "ticks": 128040,
          "time": "128040i",
          "velocity": 0.7874015748031497
        },
        {
          "duration": 0.15000000000000568,
          "durationTicks": 120,
          "midi": 74,
          "name": "D5",
          "ticks": 128160,
          "time": "128160i",
          "velocity": 0.7874015748031497
        },
        {
          "duration": 0.15000000000000568,
          "durationTicks": 120,
          "midi": 71,
          "name": "B4",
          "ticks": 128280,
          "time": "128280i",
          "velocity": 0.7874015748031497
        },
        {
          "duration": 0.15000000000000568,
          "durationTicks": 120,
          "midi": 72,
          "name": "C5",
          "ticks": 128400,
          "time": "128400i",
          "velocity": 0.7874015748031497
        },
        {
          "duration": 0.14999999999997726,
          "durationTicks": 120,
          "midi": 74,
          "name": "D5",
          "ticks": 128520,
          "time": "128520i",
          "velocity": 0.7874015748031497
        },
        {
          "duration": 0.15000000000000568,
          "durationTicks": 120,
          "midi": 67,
          "name": "G4",
          "ticks": 128640,
          "time": "128640i",
          "velocity": 0.7874015748031497
        },
        {
          "duration": 0.15000000000000568,
          "durationTicks": 120,
          "midi": 62,
          "name": "D4",
          "ticks": 128760,
          "time": "128760i",
          "velocity": 0.7874015748031497
        },
        {
          "duration": 0.75,
          "durationTicks": 600,
          "midi": 59,
          "name": "B3",
          "ticks": 128880,
          "time": "128880i",
          "velocity": 0.7874015748031497
        },
        {
          "duration": 0.15000000000000568,
          "durationTicks": 120,
          "midi": 61,
          "name": "C#4",
          "ticks": 129480,
          "time": "129480i",
          "velocity": 0.7874015748031497
        },
        {
          "duration": 0.15000000000000568,
          "durationTicks": 120,
          "midi": 62,
          "name": "D4",
          "ticks": 129600,
          "time": "129600i",
          "velocity": 0.7874015748031497
        },
        {
          "duration": 0.14999999999997726,
          "durationTicks": 120,
          "midi": 64,
          "name": "E4",
          "ticks": 129720,
          "time": "129720i",
          "velocity": 0.7874015748031497
        },
        {
          "duration": 0.15000000000000568,
          "durationTicks": 120,
          "midi": 66,
          "name": "F#4",
          "ticks": 129840,
          "time": "129840i",
          "velocity": 0.7874015748031497
        },
        {
          "duration": 0.15000000000000568,
          "durationTicks": 120,
          "midi": 67,
          "name": "G4",
          "ticks": 129960,
          "time": "129960i",
          "velocity": 0.7874015748031497
        },
        {
          "duration": 0.30000000000001137,
          "durationTicks": 240,
          "midi": 69,
          "name": "A4",
          "ticks": 130080,
          "time": "130080i",
          "velocity": 0.7874015748031497
        },
        {
          "duration": 0.29999999999998295,
          "durationTicks": 240,
          "midi": 62,
          "name": "D4",
          "ticks": 130320,
          "time": "130320i",
          "velocity": 0.7874015748031497
        },
        {
          "duration": 0.15000000000000568,
          "durationTicks": 120,
          "midi": 66,
          "name": "F#4",
          "ticks": 130680,
          "time": "130680i",
          "velocity": 0.7874015748031497
        },
        {
          "duration": 0.15000000000000568,
          "durationTicks": 120,
          "midi": 64,
          "name": "E4",
          "ticks": 130800,
          "time": "130800i",
          "velocity": 0.7874015748031497
        },
        {
          "duration": 0.14999999999997726,
          "durationTicks": 120,
          "midi": 62,
          "name": "D4",
          "ticks": 130920,
          "time": "130920i",
          "velocity": 0.7874015748031497
        },
        {
          "duration": 0.30000000000001137,
          "durationTicks": 240,
          "midi": 64,
          "name": "E4",
          "ticks": 131040,
          "time": "131040i",
          "velocity": 0.7874015748031497
        },
        {
          "duration": 0.30000000000001137,
          "durationTicks": 240,
          "midi": 73,
          "name": "C#5",
          "ticks": 131280,
          "time": "131280i",
          "velocity": 0.7874015748031497
        },
        {
          "duration": 0.15000000000000568,
          "durationTicks": 120,
          "midi": 79,
          "name": "G5",
          "ticks": 131640,
          "time": "131640i",
          "velocity": 0.7874015748031497
        },
        {
          "duration": 0.15000000000000568,
          "durationTicks": 120,
          "midi": 78,
          "name": "F#5",
          "ticks": 131760,
          "time": "131760i",
          "velocity": 0.7874015748031497
        },
        {
          "duration": 0.15000000000000568,
          "durationTicks": 120,
          "midi": 76,
          "name": "E5",
          "ticks": 131880,
          "time": "131880i",
          "velocity": 0.7874015748031497
        },
        {
          "duration": 0.29999999999998295,
          "durationTicks": 240,
          "midi": 74,
          "name": "D5",
          "ticks": 132000,
          "time": "132000i",
          "velocity": 0.7874015748031497
        },
        {
          "duration": 0.30000000000001137,
          "durationTicks": 240,
          "midi": 62,
          "name": "D4",
          "ticks": 132240,
          "time": "132240i",
          "velocity": 0.7874015748031497
        },
        {
          "duration": 0.15000000000000568,
          "durationTicks": 120,
          "midi": 71,
          "name": "B4",
          "ticks": 132600,
          "time": "132600i",
          "velocity": 0.7874015748031497
        },
        {
          "duration": 0.14999999999997726,
          "durationTicks": 120,
          "midi": 72,
          "name": "C5",
          "ticks": 132720,
          "time": "132720i",
          "velocity": 0.7874015748031497
        },
        {
          "duration": 0.15000000000000568,
          "durationTicks": 120,
          "midi": 74,
          "name": "D5",
          "ticks": 132840,
          "time": "132840i",
          "velocity": 0.7874015748031497
        },
        {
          "duration": 0.30000000000001137,
          "durationTicks": 240,
          "midi": 65,
          "name": "F4",
          "ticks": 132960,
          "time": "132960i",
          "velocity": 0.7874015748031497
        },
        {
          "duration": 0.29999999999998295,
          "durationTicks": 240,
          "midi": 77,
          "name": "F5",
          "ticks": 133200,
          "time": "133200i",
          "velocity": 0.7874015748031497
        },
        {
          "duration": 0.15000000000000568,
          "durationTicks": 120,
          "midi": 76,
          "name": "E5",
          "ticks": 133560,
          "time": "133560i",
          "velocity": 0.7874015748031497
        },
        {
          "duration": 0.15000000000000568,
          "durationTicks": 120,
          "midi": 74,
          "name": "D5",
          "ticks": 133680,
          "time": "133680i",
          "velocity": 0.7874015748031497
        },
        {
          "duration": 0.15000000000000568,
          "durationTicks": 120,
          "midi": 72,
          "name": "C5",
          "ticks": 133800,
          "time": "133800i",
          "velocity": 0.7874015748031497
        },
        {
          "duration": 0.14999999999997726,
          "durationTicks": 120,
          "midi": 72,
          "name": "C5",
          "ticks": 133920,
          "time": "133920i",
          "velocity": 0.7874015748031497
        },
        {
          "duration": 0.15000000000000568,
          "durationTicks": 120,
          "midi": 81,
          "name": "A5",
          "ticks": 134040,
          "time": "134040i",
          "velocity": 0.7874015748031497
        },
        {
          "duration": 0.30000000000001137,
          "durationTicks": 240,
          "midi": 72,
          "name": "C5",
          "ticks": 134160,
          "time": "134160i",
          "velocity": 0.7874015748031497
        },
        {
          "duration": 0.14999999999997726,
          "durationTicks": 120,
          "midi": 69,
          "name": "A4",
          "ticks": 134520,
          "time": "134520i",
          "velocity": 0.7874015748031497
        },
        {
          "duration": 0.15000000000000568,
          "durationTicks": 120,
          "midi": 72,
          "name": "C5",
          "ticks": 134640,
          "time": "134640i",
          "velocity": 0.7874015748031497
        },
        {
          "duration": 0.15000000000000568,
          "durationTicks": 120,
          "midi": 78,
          "name": "F#5",
          "ticks": 134760,
          "time": "134760i",
          "velocity": 0.7874015748031497
        },
        {
          "duration": 0.30000000000001137,
          "durationTicks": 240,
          "midi": 79,
          "name": "G5",
          "ticks": 134880,
          "time": "134880i",
          "velocity": 0.7874015748031497
        },
        {
          "duration": 0.29999999999998295,
          "durationTicks": 240,
          "midi": 81,
          "name": "A5",
          "ticks": 135120,
          "time": "135120i",
          "velocity": 0.7874015748031497
        },
        {
          "duration": 0.15000000000000568,
          "durationTicks": 120,
          "midi": 83,
          "name": "B5",
          "ticks": 135360,
          "time": "135360i",
          "velocity": 0.7874015748031497
        },
        {
          "duration": 0.15000000000000568,
          "durationTicks": 120,
          "midi": 79,
          "name": "G5",
          "ticks": 135480,
          "time": "135480i",
          "velocity": 0.7874015748031497
        },
        {
          "duration": 0.15000000000000568,
          "durationTicks": 120,
          "midi": 78,
          "name": "F#5",
          "ticks": 135600,
          "time": "135600i",
          "velocity": 0.7874015748031497
        },
        {
          "duration": 0.14999999999997726,
          "durationTicks": 120,
          "midi": 76,
          "name": "E5",
          "ticks": 135720,
          "time": "135720i",
          "velocity": 0.7874015748031497
        },
        {
          "duration": 0.15000000000000568,
          "durationTicks": 120,
          "midi": 74,
          "name": "D5",
          "ticks": 135840,
          "time": "135840i",
          "velocity": 0.7874015748031497
        },
        {
          "duration": 0.15000000000000568,
          "durationTicks": 120,
          "midi": 71,
          "name": "B4",
          "ticks": 135960,
          "time": "135960i",
          "velocity": 0.7874015748031497
        },
        {
          "duration": 0.15000000000000568,
          "durationTicks": 120,
          "midi": 72,
          "name": "C5",
          "ticks": 136080,
          "time": "136080i",
          "velocity": 0.7874015748031497
        },
        {
          "duration": 0.15000000000000568,
          "durationTicks": 120,
          "midi": 74,
          "name": "D5",
          "ticks": 136200,
          "time": "136200i",
          "velocity": 0.7874015748031497
        },
        {
          "duration": 0.14999999999997726,
          "durationTicks": 120,
          "midi": 67,
          "name": "G4",
          "ticks": 136320,
          "time": "136320i",
          "velocity": 0.7874015748031497
        },
        {
          "duration": 0.15000000000000568,
          "durationTicks": 120,
          "midi": 62,
          "name": "D4",
          "ticks": 136440,
          "time": "136440i",
          "velocity": 0.7874015748031497
        },
        {
          "duration": 0.75,
          "durationTicks": 600,
          "midi": 59,
          "name": "B3",
          "ticks": 136560,
          "time": "136560i",
          "velocity": 0.7874015748031497
        },
        {
          "duration": 0.15000000000000568,
          "durationTicks": 120,
          "midi": 61,
          "name": "C#4",
          "ticks": 137160,
          "time": "137160i",
          "velocity": 0.7874015748031497
        },
        {
          "duration": 0.15000000000000568,
          "durationTicks": 120,
          "midi": 62,
          "name": "D4",
          "ticks": 137280,
          "time": "137280i",
          "velocity": 0.7874015748031497
        },
        {
          "duration": 0.15000000000000568,
          "durationTicks": 120,
          "midi": 64,
          "name": "E4",
          "ticks": 137400,
          "time": "137400i",
          "velocity": 0.7874015748031497
        },
        {
          "duration": 0.14999999999997726,
          "durationTicks": 120,
          "midi": 66,
          "name": "F#4",
          "ticks": 137520,
          "time": "137520i",
          "velocity": 0.7874015748031497
        },
        {
          "duration": 0.15000000000000568,
          "durationTicks": 120,
          "midi": 67,
          "name": "G4",
          "ticks": 137640,
          "time": "137640i",
          "velocity": 0.7874015748031497
        },
        {
          "duration": 0.30000000000001137,
          "durationTicks": 240,
          "midi": 69,
          "name": "A4",
          "ticks": 137760,
          "time": "137760i",
          "velocity": 0.7874015748031497
        },
        {
          "duration": 0.29999999999998295,
          "durationTicks": 240,
          "midi": 62,
          "name": "D4",
          "ticks": 138000,
          "time": "138000i",
          "velocity": 0.7874015748031497
        },
        {
          "duration": 0.15000000000000568,
          "durationTicks": 120,
          "midi": 66,
          "name": "F#4",
          "ticks": 138360,
          "time": "138360i",
          "velocity": 0.7874015748031497
        },
        {
          "duration": 0.15000000000000568,
          "durationTicks": 120,
          "midi": 64,
          "name": "E4",
          "ticks": 138480,
          "time": "138480i",
          "velocity": 0.7874015748031497
        },
        {
          "duration": 0.15000000000000568,
          "durationTicks": 120,
          "midi": 62,
          "name": "D4",
          "ticks": 138600,
          "time": "138600i",
          "velocity": 0.7874015748031497
        },
        {
          "duration": 0.29999999999998295,
          "durationTicks": 240,
          "midi": 64,
          "name": "E4",
          "ticks": 138720,
          "time": "138720i",
          "velocity": 0.7874015748031497
        },
        {
          "duration": 0.30000000000001137,
          "durationTicks": 240,
          "midi": 73,
          "name": "C#5",
          "ticks": 138960,
          "time": "138960i",
          "velocity": 0.7874015748031497
        },
        {
          "duration": 0.14999999999997726,
          "durationTicks": 120,
          "midi": 79,
          "name": "G5",
          "ticks": 139320,
          "time": "139320i",
          "velocity": 0.7874015748031497
        },
        {
          "duration": 0.15000000000000568,
          "durationTicks": 120,
          "midi": 78,
          "name": "F#5",
          "ticks": 139440,
          "time": "139440i",
          "velocity": 0.7874015748031497
        },
        {
          "duration": 0.15000000000000568,
          "durationTicks": 120,
          "midi": 76,
          "name": "E5",
          "ticks": 139560,
          "time": "139560i",
          "velocity": 0.7874015748031497
        },
        {
          "duration": 0.30000000000001137,
          "durationTicks": 240,
          "midi": 74,
          "name": "D5",
          "ticks": 139680,
          "time": "139680i",
          "velocity": 0.7874015748031497
        },
        {
          "duration": 0.29999999999998295,
          "durationTicks": 240,
          "midi": 62,
          "name": "D4",
          "ticks": 139920,
          "time": "139920i",
          "velocity": 0.7874015748031497
        },
        {
          "duration": 0.15000000000000568,
          "durationTicks": 120,
          "midi": 71,
          "name": "B4",
          "ticks": 140280,
          "time": "140280i",
          "velocity": 0.7874015748031497
        },
        {
          "duration": 0.15000000000000568,
          "durationTicks": 120,
          "midi": 72,
          "name": "C5",
          "ticks": 140400,
          "time": "140400i",
          "velocity": 0.7874015748031497
        },
        {
          "duration": 0.14999999999997726,
          "durationTicks": 120,
          "midi": 74,
          "name": "D5",
          "ticks": 140520,
          "time": "140520i",
          "velocity": 0.7874015748031497
        },
        {
          "duration": 0.30000000000001137,
          "durationTicks": 240,
          "midi": 65,
          "name": "F4",
          "ticks": 140640,
          "time": "140640i",
          "velocity": 0.7874015748031497
        },
        {
          "duration": 0.30000000000001137,
          "durationTicks": 240,
          "midi": 77,
          "name": "F5",
          "ticks": 140880,
          "time": "140880i",
          "velocity": 0.7874015748031497
        },
        {
          "duration": 0.15000000000000568,
          "durationTicks": 120,
          "midi": 76,
          "name": "E5",
          "ticks": 141240,
          "time": "141240i",
          "velocity": 0.7874015748031497
        },
        {
          "duration": 0.15000000000000568,
          "durationTicks": 120,
          "midi": 74,
          "name": "D5",
          "ticks": 141360,
          "time": "141360i",
          "velocity": 0.7874015748031497
        },
        {
          "duration": 0.15000000000000568,
          "durationTicks": 120,
          "midi": 72,
          "name": "C5",
          "ticks": 141480,
          "time": "141480i",
          "velocity": 0.7874015748031497
        },
        {
          "duration": 0.15000000000000568,
          "durationTicks": 120,
          "midi": 72,
          "name": "C5",
          "ticks": 141600,
          "time": "141600i",
          "velocity": 0.7874015748031497
        },
        {
          "duration": 0.14999999999997726,
          "durationTicks": 120,
          "midi": 81,
          "name": "A5",
          "ticks": 141720,
          "time": "141720i",
          "velocity": 0.7874015748031497
        },
        {
          "duration": 0.30000000000001137,
          "durationTicks": 240,
          "midi": 72,
          "name": "C5",
          "ticks": 141840,
          "time": "141840i",
          "velocity": 0.7874015748031497
        },
        {
          "duration": 0.15000000000000568,
          "durationTicks": 120,
          "midi": 69,
          "name": "A4",
          "ticks": 142200,
          "time": "142200i",
          "velocity": 0.7874015748031497
        },
        {
          "duration": 0.14999999999997726,
          "durationTicks": 120,
          "midi": 72,
          "name": "C5",
          "ticks": 142320,
          "time": "142320i",
          "velocity": 0.7874015748031497
        },
        {
          "duration": 0.15000000000000568,
          "durationTicks": 120,
          "midi": 78,
          "name": "F#5",
          "ticks": 142440,
          "time": "142440i",
          "velocity": 0.7874015748031497
        },
        {
          "duration": 0.30000000000001137,
          "durationTicks": 240,
          "midi": 79,
          "name": "G5",
          "ticks": 142560,
          "time": "142560i",
          "velocity": 0.7874015748031497
        },
        {
          "duration": 0.29999999999998295,
          "durationTicks": 240,
          "midi": 81,
          "name": "A5",
          "ticks": 142800,
          "time": "142800i",
          "velocity": 0.7874015748031497
        },
        {
          "duration": 0.15000000000000568,
          "durationTicks": 120,
          "midi": 83,
          "name": "B5",
          "ticks": 143040,
          "time": "143040i",
          "velocity": 0.7874015748031497
        },
        {
          "duration": 0.15000000000000568,
          "durationTicks": 120,
          "midi": 79,
          "name": "G5",
          "ticks": 143160,
          "time": "143160i",
          "velocity": 0.7874015748031497
        },
        {
          "duration": 0.15000000000000568,
          "durationTicks": 120,
          "midi": 78,
          "name": "F#5",
          "ticks": 143280,
          "time": "143280i",
          "velocity": 0.7874015748031497
        },
        {
          "duration": 0.15000000000000568,
          "durationTicks": 120,
          "midi": 76,
          "name": "E5",
          "ticks": 143400,
          "time": "143400i",
          "velocity": 0.7874015748031497
        },
        {
          "duration": 0.14999999999997726,
          "durationTicks": 120,
          "midi": 74,
          "name": "D5",
          "ticks": 143520,
          "time": "143520i",
          "velocity": 0.7874015748031497
        },
        {
          "duration": 0.15000000000000568,
          "durationTicks": 120,
          "midi": 71,
          "name": "B4",
          "ticks": 143640,
          "time": "143640i",
          "velocity": 0.7874015748031497
        },
        {
          "duration": 0.15000000000000568,
          "durationTicks": 120,
          "midi": 72,
          "name": "C5",
          "ticks": 143760,
          "time": "143760i",
          "velocity": 0.7874015748031497
        },
        {
          "duration": 0.15000000000000568,
          "durationTicks": 120,
          "midi": 74,
          "name": "D5",
          "ticks": 143880,
          "time": "143880i",
          "velocity": 0.7874015748031497
        },
        {
          "duration": 0.15000000000000568,
          "durationTicks": 120,
          "midi": 67,
          "name": "G4",
          "ticks": 144000,
          "time": "144000i",
          "velocity": 0.7874015748031497
        },
        {
          "duration": 0.14999999999997726,
          "durationTicks": 120,
          "midi": 62,
          "name": "D4",
          "ticks": 144120,
          "time": "144120i",
          "velocity": 0.7874015748031497
        },
        {
          "duration": 0.75,
          "durationTicks": 600,
          "midi": 59,
          "name": "B3",
          "ticks": 144240,
          "time": "144240i",
          "velocity": 0.7874015748031497
        },
        {
          "duration": 0.15000000000000568,
          "durationTicks": 120,
          "midi": 61,
          "name": "C#4",
          "ticks": 144840,
          "time": "144840i",
          "velocity": 0.7874015748031497
        },
        {
          "duration": 0.15000000000000568,
          "durationTicks": 120,
          "midi": 62,
          "name": "D4",
          "ticks": 144960,
          "time": "144960i",
          "velocity": 0.7874015748031497
        },
        {
          "duration": 0.15000000000000568,
          "durationTicks": 120,
          "midi": 64,
          "name": "E4",
          "ticks": 145080,
          "time": "145080i",
          "velocity": 0.7874015748031497
        },
        {
          "duration": 0.15000000000000568,
          "durationTicks": 120,
          "midi": 66,
          "name": "F#4",
          "ticks": 145200,
          "time": "145200i",
          "velocity": 0.7874015748031497
        },
        {
          "duration": 0.14999999999997726,
          "durationTicks": 120,
          "midi": 67,
          "name": "G4",
          "ticks": 145320,
          "time": "145320i",
          "velocity": 0.7874015748031497
        },
        {
          "duration": 0.30000000000001137,
          "durationTicks": 240,
          "midi": 69,
          "name": "A4",
          "ticks": 145440,
          "time": "145440i",
          "velocity": 0.7874015748031497
        },
        {
          "duration": 0.30000000000001137,
          "durationTicks": 240,
          "midi": 62,
          "name": "D4",
          "ticks": 145680,
          "time": "145680i",
          "velocity": 0.7874015748031497
        },
        {
          "duration": 0.15000000000000568,
          "durationTicks": 120,
          "midi": 66,
          "name": "F#4",
          "ticks": 146040,
          "time": "146040i",
          "velocity": 0.7874015748031497
        },
        {
          "duration": 0.15000000000000568,
          "durationTicks": 120,
          "midi": 64,
          "name": "E4",
          "ticks": 146160,
          "time": "146160i",
          "velocity": 0.7874015748031497
        },
        {
          "duration": 0.15000000000000568,
          "durationTicks": 120,
          "midi": 62,
          "name": "D4",
          "ticks": 146280,
          "time": "146280i",
          "velocity": 0.7874015748031497
        },
        {
          "duration": 0.29999999999998295,
          "durationTicks": 240,
          "midi": 64,
          "name": "E4",
          "ticks": 146400,
          "time": "146400i",
          "velocity": 0.7874015748031497
        },
        {
          "duration": 0.30000000000001137,
          "durationTicks": 240,
          "midi": 73,
          "name": "C#5",
          "ticks": 146640,
          "time": "146640i",
          "velocity": 0.7874015748031497
        },
        {
          "duration": 0.15000000000000568,
          "durationTicks": 120,
          "midi": 79,
          "name": "G5",
          "ticks": 147000,
          "time": "147000i",
          "velocity": 0.7874015748031497
        },
        {
          "duration": 0.14999999999997726,
          "durationTicks": 120,
          "midi": 78,
          "name": "F#5",
          "ticks": 147120,
          "time": "147120i",
          "velocity": 0.7874015748031497
        },
        {
          "duration": 0.15000000000000568,
          "durationTicks": 120,
          "midi": 76,
          "name": "E5",
          "ticks": 147240,
          "time": "147240i",
          "velocity": 0.7874015748031497
        },
        {
          "duration": 1.8000000000000114,
          "durationTicks": 1440,
          "midi": 74,
          "name": "D5",
          "ticks": 147360,
          "time": "147360i",
          "velocity": 0.7874015748031497
        },
        {
          "duration": 1.1999999999999886,
          "durationTicks": 960,
          "midi": 62,
          "name": "D4",
          "ticks": 149280,
          "time": "149280i",
          "velocity": 0.7874015748031497
        },
        {
          "duration": 0.6000000000000227,
          "durationTicks": 480,
          "midi": 64,
          "name": "E4",
          "ticks": 150240,
          "time": "150240i",
          "velocity": 0.7874015748031497
        },
        {
          "duration": 0.5999999999999943,
          "durationTicks": 480,
          "midi": 66,
          "name": "F#4",
          "ticks": 150720,
          "time": "150720i",
          "velocity": 0.7874015748031497
        },
        {
          "duration": 0.5999999999999943,
          "durationTicks": 480,
          "midi": 67,
          "name": "G4",
          "ticks": 151200,
          "time": "151200i",
          "velocity": 0.7874015748031497
        },
        {
          "duration": 0.29999999999998295,
          "durationTicks": 240,
          "midi": 64,
          "name": "E4",
          "ticks": 151920,
          "time": "151920i",
          "velocity": 0.7874015748031497
        },
        {
          "duration": 0.30000000000001137,
          "durationTicks": 240,
          "midi": 62,
          "name": "D4",
          "ticks": 152160,
          "time": "152160i",
          "velocity": 0.7874015748031497
        },
        {
          "duration": 0.29999999999998295,
          "durationTicks": 240,
          "midi": 60,
          "name": "C4",
          "ticks": 152400,
          "time": "152400i",
          "velocity": 0.7874015748031497
        },
        {
          "duration": 0.30000000000001137,
          "durationTicks": 240,
          "midi": 59,
          "name": "B3",
          "ticks": 152640,
          "time": "152640i",
          "velocity": 0.7874015748031497
        },
        {
          "duration": 0.30000000000001137,
          "durationTicks": 240,
          "midi": 60,
          "name": "C4",
          "ticks": 152880,
          "time": "152880i",
          "velocity": 0.7874015748031497
        },
        {
          "duration": 1.1999999999999886,
          "durationTicks": 960,
          "midi": 62,
          "name": "D4",
          "ticks": 153120,
          "time": "153120i",
          "velocity": 0.7874015748031497
        },
        {
          "duration": 0.5999999999999943,
          "durationTicks": 480,
          "midi": 64,
          "name": "E4",
          "ticks": 154080,
          "time": "154080i",
          "velocity": 0.7874015748031497
        },
        {
          "duration": 0.5999999999999943,
          "durationTicks": 480,
          "midi": 66,
          "name": "F#4",
          "ticks": 154560,
          "time": "154560i",
          "velocity": 0.7874015748031497
        },
        {
          "duration": 0.6000000000000227,
          "durationTicks": 480,
          "midi": 67,
          "name": "G4",
          "ticks": 155040,
          "time": "155040i",
          "velocity": 0.7874015748031497
        },
        {
          "duration": 0.30000000000001137,
          "durationTicks": 240,
          "midi": 64,
          "name": "E4",
          "ticks": 155760,
          "time": "155760i",
          "velocity": 0.7874015748031497
        },
        {
          "duration": 0.29999999999998295,
          "durationTicks": 240,
          "midi": 62,
          "name": "D4",
          "ticks": 156000,
          "time": "156000i",
          "velocity": 0.7874015748031497
        },
        {
          "duration": 0.30000000000001137,
          "durationTicks": 240,
          "midi": 60,
          "name": "C4",
          "ticks": 156240,
          "time": "156240i",
          "velocity": 0.7874015748031497
        },
        {
          "duration": 0.30000000000001137,
          "durationTicks": 240,
          "midi": 59,
          "name": "B3",
          "ticks": 156480,
          "time": "156480i",
          "velocity": 0.7874015748031497
        },
        {
          "duration": 0.29999999999998295,
          "durationTicks": 240,
          "midi": 60,
          "name": "C4",
          "ticks": 156720,
          "time": "156720i",
          "velocity": 0.7874015748031497
        },
        {
          "duration": 1.200000000000017,
          "durationTicks": 960,
          "midi": 62,
          "name": "D4",
          "ticks": 156960,
          "time": "156960i",
          "velocity": 0.7874015748031497
        },
        {
          "duration": 0.5999999999999943,
          "durationTicks": 480,
          "midi": 64,
          "name": "E4",
          "ticks": 157920,
          "time": "157920i",
          "velocity": 0.7874015748031497
        },
        {
          "duration": 0.5999999999999943,
          "durationTicks": 480,
          "midi": 66,
          "name": "F#4",
          "ticks": 158400,
          "time": "158400i",
          "velocity": 0.7874015748031497
        },
        {
          "duration": 0.5999999999999943,
          "durationTicks": 480,
          "midi": 67,
          "name": "G4",
          "ticks": 158880,
          "time": "158880i",
          "velocity": 0.7874015748031497
        },
        {
          "duration": 0.29999999999998295,
          "durationTicks": 240,
          "midi": 64,
          "name": "E4",
          "ticks": 159600,
          "time": "159600i",
          "velocity": 0.7874015748031497
        },
        {
          "duration": 0.30000000000001137,
          "durationTicks": 240,
          "midi": 62,
          "name": "D4",
          "ticks": 159840,
          "time": "159840i",
          "velocity": 0.7874015748031497
        },
        {
          "duration": 0.30000000000001137,
          "durationTicks": 240,
          "midi": 60,
          "name": "C4",
          "ticks": 160080,
          "time": "160080i",
          "velocity": 0.7874015748031497
        },
        {
          "duration": 2.3999999999999773,
          "durationTicks": 1920,
          "midi": 59,
          "name": "B3",
          "ticks": 160320,
          "time": "160320i",
          "velocity": 0.7874015748031497
        },
        {
          "duration": 0.30000000000001137,
          "durationTicks": 240,
          "midi": 67,
          "name": "G4",
          "ticks": 163440,
          "time": "163440i",
          "velocity": 0.7874015748031497
        },
        {
          "duration": 0.30000000000001137,
          "durationTicks": 240,
          "midi": 66,
          "name": "F#4",
          "ticks": 163680,
          "time": "163680i",
          "velocity": 0.7874015748031497
        },
        {
          "duration": 0.29999999999998295,
          "durationTicks": 240,
          "midi": 64,
          "name": "E4",
          "ticks": 163920,
          "time": "163920i",
          "velocity": 0.7874015748031497
        },
        {
          "duration": 0.30000000000001137,
          "durationTicks": 240,
          "midi": 62,
          "name": "D4",
          "ticks": 164160,
          "time": "164160i",
          "velocity": 0.7874015748031497
        },
        {
          "duration": 0.29999999999998295,
          "durationTicks": 240,
          "midi": 59,
          "name": "B3",
          "ticks": 164400,
          "time": "164400i",
          "velocity": 0.7874015748031497
        },
        {
          "duration": 0.30000000000001137,
          "durationTicks": 240,
          "midi": 61,
          "name": "C#4",
          "ticks": 164640,
          "time": "164640i",
          "velocity": 0.7874015748031497
        },
        {
          "duration": 0.30000000000001137,
          "durationTicks": 240,
          "midi": 62,
          "name": "D4",
          "ticks": 164880,
          "time": "164880i",
          "velocity": 0.7874015748031497
        },
        {
          "duration": 0.5999999999999943,
          "durationTicks": 480,
          "midi": 55,
          "name": "G3",
          "ticks": 165120,
          "time": "165120i",
          "velocity": 0.7874015748031497
        },
        {
          "duration": 0.5999999999999943,
          "durationTicks": 480,
          "midi": 67,
          "name": "G4",
          "ticks": 165600,
          "time": "165600i",
          "velocity": 0.7874015748031497
        },
        {
          "duration": 0.29999999999998295,
          "durationTicks": 240,
          "midi": 72,
          "name": "C5",
          "ticks": 166320,
          "time": "166320i",
          "velocity": 0.7874015748031497
        },
        {
          "duration": 0.30000000000001137,
          "durationTicks": 240,
          "midi": 71,
          "name": "B4",
          "ticks": 166560,
          "time": "166560i",
          "velocity": 0.7874015748031497
        },
        {
          "duration": 0.29999999999998295,
          "durationTicks": 240,
          "midi": 69,
          "name": "A4",
          "ticks": 166800,
          "time": "166800i",
          "velocity": 0.7874015748031497
        },
        {
          "duration": 0.30000000000001137,
          "durationTicks": 240,
          "midi": 67,
          "name": "G4",
          "ticks": 167040,
          "time": "167040i",
          "velocity": 0.7874015748031497
        },
        {
          "duration": 0.30000000000001137,
          "durationTicks": 240,
          "midi": 64,
          "name": "E4",
          "ticks": 167280,
          "time": "167280i",
          "velocity": 0.7874015748031497
        },
        {
          "duration": 0.29999999999998295,
          "durationTicks": 240,
          "midi": 66,
          "name": "F#4",
          "ticks": 167520,
          "time": "167520i",
          "velocity": 0.7874015748031497
        },
        {
          "duration": 0.30000000000001137,
          "durationTicks": 240,
          "midi": 67,
          "name": "G4",
          "ticks": 167760,
          "time": "167760i",
          "velocity": 0.7874015748031497
        },
        {
          "duration": 0.29999999999998295,
          "durationTicks": 240,
          "midi": 60,
          "name": "C4",
          "ticks": 168000,
          "time": "168000i",
          "velocity": 0.7874015748031497
        },
        {
          "duration": 0.30000000000001137,
          "durationTicks": 240,
          "midi": 62,
          "name": "D4",
          "ticks": 168240,
          "time": "168240i",
          "velocity": 0.7874015748031497
        },
        {
          "duration": 0.30000000000001137,
          "durationTicks": 240,
          "midi": 64,
          "name": "E4",
          "ticks": 168480,
          "time": "168480i",
          "velocity": 0.7874015748031497
        },
        {
          "duration": 0.29999999999998295,
          "durationTicks": 240,
          "midi": 55,
          "name": "G3",
          "ticks": 168720,
          "time": "168720i",
          "velocity": 0.7874015748031497
        },
        {
          "duration": 0.15000000000000568,
          "durationTicks": 120,
          "midi": 54,
          "name": "F#3",
          "ticks": 169200,
          "time": "169200i",
          "velocity": 0.7874015748031497
        },
        {
          "duration": 0.14999999999997726,
          "durationTicks": 120,
          "midi": 52,
          "name": "E3",
          "ticks": 169320,
          "time": "169320i",
          "velocity": 0.7874015748031497
        },
        {
          "duration": 0.30000000000001137,
          "durationTicks": 240,
          "midi": 50,
          "name": "D3",
          "ticks": 169440,
          "time": "169440i",
          "velocity": 0.7874015748031497
        },
        {
          "duration": 0.5999999999999943,
          "durationTicks": 480,
          "midi": 62,
          "name": "D4",
          "ticks": 169680,
          "time": "169680i",
          "velocity": 0.7874015748031497
        },
        {
          "duration": 0.15000000000000568,
          "durationTicks": 120,
          "midi": 60,
          "name": "C4",
          "ticks": 170160,
          "time": "170160i",
          "velocity": 0.7874015748031497
        },
        {
          "duration": 0.15000000000000568,
          "durationTicks": 120,
          "midi": 59,
          "name": "B3",
          "ticks": 170280,
          "time": "170280i",
          "velocity": 0.7874015748031497
        },
        {
          "duration": 0.29999999999998295,
          "durationTicks": 240,
          "midi": 66,
          "name": "F#4",
          "ticks": 170400,
          "time": "170400i",
          "velocity": 0.7874015748031497
        },
        {
          "duration": 0.15000000000000568,
          "durationTicks": 120,
          "midi": 64,
          "name": "E4",
          "ticks": 170640,
          "time": "170640i",
          "velocity": 0.7874015748031497
        },
        {
          "duration": 0.15000000000000568,
          "durationTicks": 120,
          "midi": 62,
          "name": "D4",
          "ticks": 170760,
          "time": "170760i",
          "velocity": 0.7874015748031497
        },
        {
          "duration": 0.30000000000001137,
          "durationTicks": 240,
          "midi": 64,
          "name": "E4",
          "ticks": 170880,
          "time": "170880i",
          "velocity": 0.7874015748031497
        },
        {
          "duration": 0.29999999999998295,
          "durationTicks": 240,
          "midi": 67,
          "name": "G4",
          "ticks": 171120,
          "time": "171120i",
          "velocity": 0.7874015748031497
        },
        {
          "duration": 0.30000000000001137,
          "durationTicks": 240,
          "midi": 66,
          "name": "F#4",
          "ticks": 171360,
          "time": "171360i",
          "velocity": 0.7874015748031497
        },
        {
          "duration": 0.29999999999998295,
          "durationTicks": 240,
          "midi": 64,
          "name": "E4",
          "ticks": 171600,
          "time": "171600i",
          "velocity": 0.7874015748031497
        },
        {
          "duration": 0.30000000000001137,
          "durationTicks": 240,
          "midi": 62,
          "name": "D4",
          "ticks": 171840,
          "time": "171840i",
          "velocity": 0.7874015748031497
        },
        {
          "duration": 0.30000000000001137,
          "durationTicks": 240,
          "midi": 59,
          "name": "B3",
          "ticks": 172080,
          "time": "172080i",
          "velocity": 0.7874015748031497
        },
        {
          "duration": 0.29999999999998295,
          "durationTicks": 240,
          "midi": 61,
          "name": "C#4",
          "ticks": 172320,
          "time": "172320i",
          "velocity": 0.7874015748031497
        },
        {
          "duration": 0.30000000000001137,
          "durationTicks": 240,
          "midi": 62,
          "name": "D4",
          "ticks": 172560,
          "time": "172560i",
          "velocity": 0.7874015748031497
        },
        {
          "duration": 0.5999999999999943,
          "durationTicks": 480,
          "midi": 55,
          "name": "G3",
          "ticks": 172800,
          "time": "172800i",
          "velocity": 0.7874015748031497
        },
        {
          "duration": 0.5999999999999943,
          "durationTicks": 480,
          "midi": 67,
          "name": "G4",
          "ticks": 173280,
          "time": "173280i",
          "velocity": 0.7874015748031497
        },
        {
          "duration": 0.29999999999998295,
          "durationTicks": 240,
          "midi": 72,
          "name": "C5",
          "ticks": 174000,
          "time": "174000i",
          "velocity": 0.7874015748031497
        },
        {
          "duration": 0.30000000000001137,
          "durationTicks": 240,
          "midi": 71,
          "name": "B4",
          "ticks": 174240,
          "time": "174240i",
          "velocity": 0.7874015748031497
        },
        {
          "duration": 0.30000000000001137,
          "durationTicks": 240,
          "midi": 69,
          "name": "A4",
          "ticks": 174480,
          "time": "174480i",
          "velocity": 0.7874015748031497
        },
        {
          "duration": 0.29999999999998295,
          "durationTicks": 240,
          "midi": 67,
          "name": "G4",
          "ticks": 174720,
          "time": "174720i",
          "velocity": 0.7874015748031497
        },
        {
          "duration": 0.30000000000001137,
          "durationTicks": 240,
          "midi": 64,
          "name": "E4",
          "ticks": 174960,
          "time": "174960i",
          "velocity": 0.7874015748031497
        },
        {
          "duration": 0.29999999999998295,
          "durationTicks": 240,
          "midi": 66,
          "name": "F#4",
          "ticks": 175200,
          "time": "175200i",
          "velocity": 0.7874015748031497
        },
        {
          "duration": 0.30000000000001137,
          "durationTicks": 240,
          "midi": 67,
          "name": "G4",
          "ticks": 175440,
          "time": "175440i",
          "velocity": 0.7874015748031497
        },
        {
          "duration": 0.30000000000001137,
          "durationTicks": 240,
          "midi": 60,
          "name": "C4",
          "ticks": 175680,
          "time": "175680i",
          "velocity": 0.7874015748031497
        },
        {
          "duration": 0.29999999999998295,
          "durationTicks": 240,
          "midi": 62,
          "name": "D4",
          "ticks": 175920,
          "time": "175920i",
          "velocity": 0.7874015748031497
        },
        {
          "duration": 0.30000000000001137,
          "durationTicks": 240,
          "midi": 64,
          "name": "E4",
          "ticks": 176160,
          "time": "176160i",
          "velocity": 0.7874015748031497
        },
        {
          "duration": 0.29999999999998295,
          "durationTicks": 240,
          "midi": 55,
          "name": "G3",
          "ticks": 176400,
          "time": "176400i",
          "velocity": 0.7874015748031497
        },
        {
          "duration": 0.15000000000000568,
          "durationTicks": 120,
          "midi": 54,
          "name": "F#3",
          "ticks": 176880,
          "time": "176880i",
          "velocity": 0.7874015748031497
        },
        {
          "duration": 0.15000000000000568,
          "durationTicks": 120,
          "midi": 52,
          "name": "E3",
          "ticks": 177000,
          "time": "177000i",
          "velocity": 0.7874015748031497
        },
        {
          "duration": 0.29999999999998295,
          "durationTicks": 240,
          "midi": 50,
          "name": "D3",
          "ticks": 177120,
          "time": "177120i",
          "velocity": 0.7874015748031497
        },
        {
          "duration": 0.5999999999999943,
          "durationTicks": 480,
          "midi": 62,
          "name": "D4",
          "ticks": 177360,
          "time": "177360i",
          "velocity": 0.7874015748031497
        },
        {
          "duration": 0.15000000000000568,
          "durationTicks": 120,
          "midi": 60,
          "name": "C4",
          "ticks": 177840,
          "time": "177840i",
          "velocity": 0.7874015748031497
        },
        {
          "duration": 0.15000000000000568,
          "durationTicks": 120,
          "midi": 59,
          "name": "B3",
          "ticks": 177960,
          "time": "177960i",
          "velocity": 0.7874015748031497
        },
        {
          "duration": 0.30000000000001137,
          "durationTicks": 240,
          "midi": 66,
          "name": "F#4",
          "ticks": 178080,
          "time": "178080i",
          "velocity": 0.7874015748031497
        },
        {
          "duration": 0.14999999999997726,
          "durationTicks": 120,
          "midi": 64,
          "name": "E4",
          "ticks": 178320,
          "time": "178320i",
          "velocity": 0.7874015748031497
        },
        {
          "duration": 0.15000000000000568,
          "durationTicks": 120,
          "midi": 62,
          "name": "D4",
          "ticks": 178440,
          "time": "178440i",
          "velocity": 0.7874015748031497
        },
        {
          "duration": 0.30000000000001137,
          "durationTicks": 240,
          "midi": 64,
          "name": "E4",
          "ticks": 178560,
          "time": "178560i",
          "velocity": 0.7874015748031497
        },
        {
          "duration": 0.29999999999998295,
          "durationTicks": 240,
          "midi": 67,
          "name": "G4",
          "ticks": 178800,
          "time": "178800i",
          "velocity": 0.7874015748031497
        },
        {
          "duration": 0.30000000000001137,
          "durationTicks": 240,
          "midi": 66,
          "name": "F#4",
          "ticks": 179040,
          "time": "179040i",
          "velocity": 0.7874015748031497
        },
        {
          "duration": 0.30000000000001137,
          "durationTicks": 240,
          "midi": 64,
          "name": "E4",
          "ticks": 179280,
          "time": "179280i",
          "velocity": 0.7874015748031497
        },
        {
          "duration": 0.29999999999998295,
          "durationTicks": 240,
          "midi": 62,
          "name": "D4",
          "ticks": 179520,
          "time": "179520i",
          "velocity": 0.7874015748031497
        },
        {
          "duration": 0.30000000000001137,
          "durationTicks": 240,
          "midi": 59,
          "name": "B3",
          "ticks": 179760,
          "time": "179760i",
          "velocity": 0.7874015748031497
        },
        {
          "duration": 0.29999999999998295,
          "durationTicks": 240,
          "midi": 61,
          "name": "C#4",
          "ticks": 180000,
          "time": "180000i",
          "velocity": 0.7874015748031497
        },
        {
          "duration": 0.30000000000001137,
          "durationTicks": 240,
          "midi": 62,
          "name": "D4",
          "ticks": 180240,
          "time": "180240i",
          "velocity": 0.7874015748031497
        },
        {
          "duration": 0.5999999999999943,
          "durationTicks": 480,
          "midi": 55,
          "name": "G3",
          "ticks": 180480,
          "time": "180480i",
          "velocity": 0.7874015748031497
        },
        {
          "duration": 0.5999999999999943,
          "durationTicks": 480,
          "midi": 67,
          "name": "G4",
          "ticks": 180960,
          "time": "180960i",
          "velocity": 0.7874015748031497
        },
        {
          "duration": 0.30000000000001137,
          "durationTicks": 240,
          "midi": 72,
          "name": "C5",
          "ticks": 181680,
          "time": "181680i",
          "velocity": 0.7874015748031497
        },
        {
          "duration": 0.29999999999998295,
          "durationTicks": 240,
          "midi": 71,
          "name": "B4",
          "ticks": 181920,
          "time": "181920i",
          "velocity": 0.7874015748031497
        },
        {
          "duration": 0.30000000000001137,
          "durationTicks": 240,
          "midi": 69,
          "name": "A4",
          "ticks": 182160,
          "time": "182160i",
          "velocity": 0.7874015748031497
        },
        {
          "duration": 0.29999999999998295,
          "durationTicks": 240,
          "midi": 67,
          "name": "G4",
          "ticks": 182400,
          "time": "182400i",
          "velocity": 0.7874015748031497
        },
        {
          "duration": 0.30000000000001137,
          "durationTicks": 240,
          "midi": 64,
          "name": "E4",
          "ticks": 182640,
          "time": "182640i",
          "velocity": 0.7874015748031497
        },
        {
          "duration": 0.30000000000001137,
          "durationTicks": 240,
          "midi": 66,
          "name": "F#4",
          "ticks": 182880,
          "time": "182880i",
          "velocity": 0.7874015748031497
        },
        {
          "duration": 0.29999999999998295,
          "durationTicks": 240,
          "midi": 67,
          "name": "G4",
          "ticks": 183120,
          "time": "183120i",
          "velocity": 0.7874015748031497
        },
        {
          "duration": 0.30000000000001137,
          "durationTicks": 240,
          "midi": 60,
          "name": "C4",
          "ticks": 183360,
          "time": "183360i",
          "velocity": 0.7874015748031497
        },
        {
          "duration": 0.29999999999998295,
          "durationTicks": 240,
          "midi": 62,
          "name": "D4",
          "ticks": 183600,
          "time": "183600i",
          "velocity": 0.7874015748031497
        },
        {
          "duration": 0.30000000000001137,
          "durationTicks": 240,
          "midi": 64,
          "name": "E4",
          "ticks": 183840,
          "time": "183840i",
          "velocity": 0.7874015748031497
        },
        {
          "duration": 0.29999999999998295,
          "durationTicks": 240,
          "midi": 55,
          "name": "G3",
          "ticks": 184080,
          "time": "184080i",
          "velocity": 0.7874015748031497
        },
        {
          "duration": 0.15000000000000568,
          "durationTicks": 120,
          "midi": 54,
          "name": "F#3",
          "ticks": 184560,
          "time": "184560i",
          "velocity": 0.7874015748031497
        },
        {
          "duration": 0.15000000000000568,
          "durationTicks": 120,
          "midi": 52,
          "name": "E3",
          "ticks": 184680,
          "time": "184680i",
          "velocity": 0.7874015748031497
        },
        {
          "duration": 0.29999999999998295,
          "durationTicks": 240,
          "midi": 50,
          "name": "D3",
          "ticks": 184800,
          "time": "184800i",
          "velocity": 0.7874015748031497
        },
        {
          "duration": 2.700000000000017,
          "durationTicks": 2160,
          "midi": 62,
          "name": "D4",
          "ticks": 185040,
          "time": "185040i",
          "velocity": 0.7874015748031497
        }
      ],
      "endOfTrackTicks": 187200
    },
    {
      "channel": 2,
      "controlChanges": {
        "7": [
          {
            "number": 7,
            "ticks": 0,
            "time": 0,
            "value": 0.7874015748031497
          }
        ],
        "10": [
          {
            "number": 10,
            "ticks": 0,
            "time": 0,
            "value": 0.4645669291338583
          }
        ]
      },
      "pitchBends": [],
      "instrument": {
        "family": "piano",
        "number": 6,
        "name": "harpsichord"
      },
      "name": "--------------------------------------",
      "notes": [
        {
          "duration": 0.6,
          "durationTicks": 480,
          "midi": 43,
          "name": "G2",
          "ticks": 480,
          "time": "480i",
          "velocity": 0.7874015748031497
        },
        {
          "duration": 0.5999999999999999,
          "durationTicks": 480,
          "midi": 50,
          "name": "D3",
          "ticks": 960,
          "time": "960i",
          "velocity": 0.7874015748031497
        },
        {
          "duration": 0.6000000000000001,
          "durationTicks": 480,
          "midi": 48,
          "name": "C3",
          "ticks": 1440,
          "time": "1440i",
          "velocity": 0.7874015748031497
        },
        {
          "duration": 0.6000000000000001,
          "durationTicks": 480,
          "midi": 47,
          "name": "B2",
          "ticks": 1920,
          "time": "1920i",
          "velocity": 0.7874015748031497
        },
        {
          "duration": 0.5999999999999996,
          "durationTicks": 480,
          "midi": 50,
          "name": "D3",
          "ticks": 2400,
          "time": "2400i",
          "velocity": 0.7874015748031497
        },
        {
          "duration": 0.6000000000000005,
          "durationTicks": 480,
          "midi": 52,
          "name": "E3",
          "ticks": 2880,
          "time": "2880i",
          "velocity": 0.7874015748031497
        },
        {
          "duration": 0.5999999999999996,
          "durationTicks": 480,
          "midi": 54,
          "name": "F#3",
          "ticks": 3360,
          "time": "3360i",
          "velocity": 0.7874015748031497
        },
        {
          "duration": 0.5999999999999996,
          "durationTicks": 480,
          "midi": 55,
          "name": "G3",
          "ticks": 3840,
          "time": "3840i",
          "velocity": 0.7874015748031497
        },
        {
          "duration": 0.6000000000000005,
          "durationTicks": 480,
          "midi": 43,
          "name": "G2",
          "ticks": 4320,
          "time": "4320i",
          "velocity": 0.7874015748031497
        },
        {
          "duration": 0.5999999999999996,
          "durationTicks": 480,
          "midi": 50,
          "name": "D3",
          "ticks": 4800,
          "time": "4800i",
          "velocity": 0.7874015748031497
        },
        {
          "duration": 0.5999999999999996,
          "durationTicks": 480,
          "midi": 48,
          "name": "C3",
          "ticks": 5280,
          "time": "5280i",
          "velocity": 0.7874015748031497
        },
        {
          "duration": 0.6000000000000005,
          "durationTicks": 480,
          "midi": 47,
          "name": "B2",
          "ticks": 5760,
          "time": "5760i",
          "velocity": 0.7874015748031497
        },
        {
          "duration": 0.6000000000000005,
          "durationTicks": 480,
          "midi": 50,
          "name": "D3",
          "ticks": 6240,
          "time": "6240i",
          "velocity": 0.7874015748031497
        },
        {
          "duration": 0.5999999999999996,
          "durationTicks": 480,
          "midi": 52,
          "name": "E3",
          "ticks": 6720,
          "time": "6720i",
          "velocity": 0.7874015748031497
        },
        {
          "duration": 0.5999999999999996,
          "durationTicks": 480,
          "midi": 54,
          "name": "F#3",
          "ticks": 7200,
          "time": "7200i",
          "velocity": 0.7874015748031497
        },
        {
          "duration": 1.1999999999999993,
          "durationTicks": 960,
          "midi": 55,
          "name": "G3",
          "ticks": 7680,
          "time": "7680i",
          "velocity": 0.7874015748031497
        },
        {
          "duration": 0.5999999999999996,
          "durationTicks": 480,
          "midi": 62,
          "name": "D4",
          "ticks": 9120,
          "time": "9120i",
          "velocity": 0.7874015748031497
        },
        {
          "duration": 0.5999999999999996,
          "durationTicks": 480,
          "midi": 55,
          "name": "G3",
          "ticks": 9600,
          "time": "9600i",
          "velocity": 0.7874015748031497
        },
        {
          "duration": 0.5999999999999996,
          "durationTicks": 480,
          "midi": 57,
          "name": "A3",
          "ticks": 10080,
          "time": "10080i",
          "velocity": 0.7874015748031497
        },
        {
          "duration": 0.5999999999999996,
          "durationTicks": 480,
          "midi": 59,
          "name": "B3",
          "ticks": 10560,
          "time": "10560i",
          "velocity": 0.7874015748031497
        },
        {
          "duration": 0.5999999999999996,
          "durationTicks": 480,
          "midi": 55,
          "name": "G3",
          "ticks": 11040,
          "time": "11040i",
          "velocity": 0.7874015748031497
        },
        {
          "duration": 0.6000000000000014,
          "durationTicks": 480,
          "midi": 54,
          "name": "F#3",
          "ticks": 11520,
          "time": "11520i",
          "velocity": 0.7874015748031497
        },
        {
          "duration": 0.5999999999999996,
          "durationTicks": 480,
          "midi": 52,
          "name": "E3",
          "ticks": 12000,
          "time": "12000i",
          "velocity": 0.7874015748031497
        },
        {
          "duration": 0.5999999999999996,
          "durationTicks": 480,
          "midi": 50,
          "name": "D3",
          "ticks": 12480,
          "time": "12480i",
          "velocity": 0.7874015748031497
        },
        {
          "duration": 0.6000000000000014,
          "durationTicks": 480,
          "midi": 62,
          "name": "D4",
          "ticks": 12960,
          "time": "12960i",
          "velocity": 0.7874015748031497
        },
        {
          "duration": 0.5999999999999979,
          "durationTicks": 480,
          "midi": 55,
          "name": "G3",
          "ticks": 13440,
          "time": "13440i",
          "velocity": 0.7874015748031497
        },
        {
          "duration": 0.6000000000000014,
          "durationTicks": 480,
          "midi": 57,
          "name": "A3",
          "ticks": 13920,
          "time": "13920i",
          "velocity": 0.7874015748031497
        },
        {
          "duration": 0.5999999999999979,
          "durationTicks": 480,
          "midi": 59,
          "name": "B3",
          "ticks": 14400,
          "time": "14400i",
          "velocity": 0.7874015748031497
        },
        {
          "duration": 0.6000000000000014,
          "durationTicks": 480,
          "midi": 55,
          "name": "G3",
          "ticks": 14880,
          "time": "14880i",
          "velocity": 0.7874015748031497
        },
        {
          "duration": 0.6000000000000014,
          "durationTicks": 480,
          "midi": 54,
          "name": "F#3",
          "ticks": 15360,
          "time": "15360i",
          "velocity": 0.7874015748031497
        },
        {
          "duration": 0.5999999999999979,
          "durationTicks": 480,
          "midi": 52,
          "name": "E3",
          "ticks": 15840,
          "time": "15840i",
          "velocity": 0.7874015748031497
        },
        {
          "duration": 1.1999999999999993,
          "durationTicks": 960,
          "midi": 50,
          "name": "D3",
          "ticks": 16320,
          "time": "16320i",
          "velocity": 0.7874015748031497
        },
        {
          "duration": 0.6000000000000014,
          "durationTicks": 480,
          "midi": 55,
          "name": "G3",
          "ticks": 17760,
          "time": "17760i",
          "velocity": 0.7874015748031497
        },
        {
          "duration": 0.5999999999999979,
          "durationTicks": 480,
          "midi": 54,
          "name": "F#3",
          "ticks": 18240,
          "time": "18240i",
          "velocity": 0.7874015748031497
        },
        {
          "duration": 0.6000000000000014,
          "durationTicks": 480,
          "midi": 52,
          "name": "E3",
          "ticks": 18720,
          "time": "18720i",
          "velocity": 0.7874015748031497
        },
        {
          "duration": 0.5999999999999979,
          "durationTicks": 480,
          "midi": 50,
          "name": "D3",
          "ticks": 19200,
          "time": "19200i",
          "velocity": 0.7874015748031497
        },
        {
          "duration": 0.6000000000000014,
          "durationTicks": 480,
          "midi": 47,
          "name": "B2",
          "ticks": 19680,
          "time": "19680i",
          "velocity": 0.7874015748031497
        },
        {
          "duration": 0.6000000000000014,
          "durationTicks": 480,
          "midi": 48,
          "name": "C3",
          "ticks": 20160,
          "time": "20160i",
          "velocity": 0.7874015748031497
        },
        {
          "duration": 0.5999999999999979,
          "durationTicks": 480,
          "midi": 50,
          "name": "D3",
          "ticks": 20640,
          "time": "20640i",
          "velocity": 0.7874015748031497
        },
        {
          "duration": 0.6000000000000014,
          "durationTicks": 480,
          "midi": 43,
          "name": "G2",
          "ticks": 21120,
          "time": "21120i",
          "velocity": 0.7874015748031497
        },
        {
          "duration": 0.5999999999999979,
          "durationTicks": 480,
          "midi": 55,
          "name": "G3",
          "ticks": 21600,
          "time": "21600i",
          "velocity": 0.7874015748031497
        },
        {
          "duration": 0.6000000000000014,
          "durationTicks": 480,
          "midi": 54,
          "name": "F#3",
          "ticks": 22080,
          "time": "22080i",
          "velocity": 0.7874015748031497
        },
        {
          "duration": 0.5999999999999979,
          "durationTicks": 480,
          "midi": 52,
          "name": "E3",
          "ticks": 22560,
          "time": "22560i",
          "velocity": 0.7874015748031497
        },
        {
          "duration": 0.6000000000000014,
          "durationTicks": 480,
          "midi": 50,
          "name": "D3",
          "ticks": 23040,
          "time": "23040i",
          "velocity": 0.7874015748031497
        },
        {
          "duration": 0.6000000000000014,
          "durationTicks": 480,
          "midi": 47,
          "name": "B2",
          "ticks": 23520,
          "time": "23520i",
          "velocity": 0.7874015748031497
        },
        {
          "duration": 0.5999999999999979,
          "durationTicks": 480,
          "midi": 48,
          "name": "C3",
          "ticks": 24000,
          "time": "24000i",
          "velocity": 0.7874015748031497
        },
        {
          "duration": 0.6000000000000014,
          "durationTicks": 480,
          "midi": 50,
          "name": "D3",
          "ticks": 24480,
          "time": "24480i",
          "velocity": 0.7874015748031497
        },
        {
          "duration": 0.5999999999999979,
          "durationTicks": 480,
          "midi": 43,
          "name": "G2",
          "ticks": 24960,
          "time": "24960i",
          "velocity": 0.7874015748031497
        },
        {
          "duration": 0.6000000000000014,
          "durationTicks": 480,
          "midi": 55,
          "name": "G3",
          "ticks": 25440,
          "time": "25440i",
          "velocity": 0.7874015748031497
        },
        {
          "duration": 0.6000000000000014,
          "durationTicks": 480,
          "midi": 54,
          "name": "F#3",
          "ticks": 25920,
          "time": "25920i",
          "velocity": 0.7874015748031497
        },
        {
          "duration": 0.6000000000000014,
          "durationTicks": 480,
          "midi": 52,
          "name": "E3",
          "ticks": 26400,
          "time": "26400i",
          "velocity": 0.7874015748031497
        },
        {
          "duration": 0.5999999999999943,
          "durationTicks": 480,
          "midi": 50,
          "name": "D3",
          "ticks": 26880,
          "time": "26880i",
          "velocity": 0.7874015748031497
        },
        {
          "duration": 0.6000000000000014,
          "durationTicks": 480,
          "midi": 47,
          "name": "B2",
          "ticks": 27360,
          "time": "27360i",
          "velocity": 0.7874015748031497
        },
        {
          "duration": 0.6000000000000014,
          "durationTicks": 480,
          "midi": 48,
          "name": "C3",
          "ticks": 27840,
          "time": "27840i",
          "velocity": 0.7874015748031497
        },
        {
          "duration": 0.6000000000000014,
          "durationTicks": 480,
          "midi": 50,
          "name": "D3",
          "ticks": 28320,
          "time": "28320i",
          "velocity": 0.7874015748031497
        },
        {
          "duration": 1.1999999999999957,
          "durationTicks": 960,
          "midi": 43,
          "name": "G2",
          "ticks": 28800,
          "time": "28800i",
          "velocity": 0.7874015748031497
        },
        {
          "duration": 0.6000000000000014,
          "durationTicks": 480,
          "midi": 50,
          "name": "D3",
          "ticks": 30240,
          "time": "30240i",
          "velocity": 0.7874015748031497
        },
        {
          "duration": 0.6000000000000014,
          "durationTicks": 480,
          "midi": 52,
          "name": "E3",
          "ticks": 30720,
          "time": "30720i",
          "velocity": 0.7874015748031497
        },
        {
          "duration": 0.6000000000000014,
          "durationTicks": 480,
          "midi": 54,
          "name": "F#3",
          "ticks": 31200,
          "time": "31200i",
          "velocity": 0.7874015748031497
        },
        {
          "duration": 0.5999999999999943,
          "durationTicks": 480,
          "midi": 55,
          "name": "G3",
          "ticks": 31680,
          "time": "31680i",
          "velocity": 0.7874015748031497
        },
        {
          "duration": 0.6000000000000014,
          "durationTicks": 480,
          "midi": 59,
          "name": "B3",
          "ticks": 32160,
          "time": "32160i",
          "velocity": 0.7874015748031497
        },
        {
          "duration": 0.6000000000000014,
          "durationTicks": 480,
          "midi": 57,
          "name": "A3",
          "ticks": 32640,
          "time": "32640i",
          "velocity": 0.7874015748031497
        },
        {
          "duration": 0.6000000000000014,
          "durationTicks": 480,
          "midi": 55,
          "name": "G3",
          "ticks": 33120,
          "time": "33120i",
          "velocity": 0.7874015748031497
        },
        {
          "duration": 0.6000000000000014,
          "durationTicks": 480,
          "midi": 62,
          "name": "D4",
          "ticks": 33600,
          "time": "33600i",
          "velocity": 0.7874015748031497
        },
        {
          "duration": 0.5999999999999943,
          "durationTicks": 480,
          "midi": 50,
          "name": "D3",
          "ticks": 34080,
          "time": "34080i",
          "velocity": 0.7874015748031497
        },
        {
          "duration": 0.6000000000000014,
          "durationTicks": 480,
          "midi": 52,
          "name": "E3",
          "ticks": 34560,
          "time": "34560i",
          "velocity": 0.7874015748031497
        },
        {
          "duration": 0.6000000000000014,
          "durationTicks": 480,
          "midi": 54,
          "name": "F#3",
          "ticks": 35040,
          "time": "35040i",
          "velocity": 0.7874015748031497
        },
        {
          "duration": 0.6000000000000014,
          "durationTicks": 480,
          "midi": 55,
          "name": "G3",
          "ticks": 35520,
          "time": "35520i",
          "velocity": 0.7874015748031497
        },
        {
          "duration": 0.6000000000000014,
          "durationTicks": 480,
          "midi": 59,
          "name": "B3",
          "ticks": 36000,
          "time": "36000i",
          "velocity": 0.7874015748031497
        },
        {
          "duration": 0.5999999999999943,
          "durationTicks": 480,
          "midi": 57,
          "name": "A3",
          "ticks": 36480,
          "time": "36480i",
          "velocity": 0.7874015748031497
        },
        {
          "duration": 0.6000000000000014,
          "durationTicks": 480,
          "midi": 55,
          "name": "G3",
          "ticks": 36960,
          "time": "36960i",
          "velocity": 0.7874015748031497
        },
        {
          "duration": 0.6000000000000014,
          "durationTicks": 480,
          "midi": 62,
          "name": "D4",
          "ticks": 37440,
          "time": "37440i",
          "velocity": 0.7874015748031497
        },
        {
          "duration": 0.6000000000000014,
          "durationTicks": 480,
          "midi": 50,
          "name": "D3",
          "ticks": 37920,
          "time": "37920i",
          "velocity": 0.7874015748031497
        },
        {
          "duration": 0.6000000000000014,
          "durationTicks": 480,
          "midi": 52,
          "name": "E3",
          "ticks": 38400,
          "time": "38400i",
          "velocity": 0.7874015748031497
        },
        {
          "duration": 0.5999999999999943,
          "durationTicks": 480,
          "midi": 54,
          "name": "F#3",
          "ticks": 38880,
          "time": "38880i",
          "velocity": 0.7874015748031497
        },
        {
          "duration": 1.2000000000000028,
          "durationTicks": 960,
          "midi": 55,
          "name": "G3",
          "ticks": 39360,
          "time": "39360i",
          "velocity": 0.7874015748031497
        },
        {
          "duration": 0.6000000000000014,
          "durationTicks": 480,
          "midi": 50,
          "name": "D3",
          "ticks": 42720,
          "time": "42720i",
          "velocity": 0.7874015748031497
        },
        {
          "duration": 0.6000000000000014,
          "durationTicks": 480,
          "midi": 52,
          "name": "E3",
          "ticks": 43200,
          "time": "43200i",
          "velocity": 0.7874015748031497
        },
        {
          "duration": 0.5999999999999943,
          "durationTicks": 480,
          "midi": 54,
          "name": "F#3",
          "ticks": 43680,
          "time": "43680i",
          "velocity": 0.7874015748031497
        },
        {
          "duration": 0.6000000000000014,
          "durationTicks": 480,
          "midi": 55,
          "name": "G3",
          "ticks": 44160,
          "time": "44160i",
          "velocity": 0.7874015748031497
        },
        {
          "duration": 0.6000000000000014,
          "durationTicks": 480,
          "midi": 59,
          "name": "B3",
          "ticks": 44640,
          "time": "44640i",
          "velocity": 0.7874015748031497
        },
        {
          "duration": 0.6000000000000014,
          "durationTicks": 480,
          "midi": 57,
          "name": "A3",
          "ticks": 45120,
          "time": "45120i",
          "velocity": 0.7874015748031497
        },
        {
          "duration": 0.5999999999999943,
          "durationTicks": 480,
          "midi": 55,
          "name": "G3",
          "ticks": 45600,
          "time": "45600i",
          "velocity": 0.7874015748031497
        },
        {
          "duration": 0.6000000000000014,
          "durationTicks": 480,
          "midi": 62,
          "name": "D4",
          "ticks": 46080,
          "time": "46080i",
          "velocity": 0.7874015748031497
        },
        {
          "duration": 0.6000000000000014,
          "durationTicks": 480,
          "midi": 50,
          "name": "D3",
          "ticks": 46560,
          "time": "46560i",
          "velocity": 0.7874015748031497
        },
        {
          "duration": 0.6000000000000014,
          "durationTicks": 480,
          "midi": 52,
          "name": "E3",
          "ticks": 47040,
          "time": "47040i",
          "velocity": 0.7874015748031497
        },
        {
          "duration": 0.6000000000000014,
          "durationTicks": 480,
          "midi": 54,
          "name": "F#3",
          "ticks": 47520,
          "time": "47520i",
          "velocity": 0.7874015748031497
        },
        {
          "duration": 0.5999999999999943,
          "durationTicks": 480,
          "midi": 55,
          "name": "G3",
          "ticks": 48000,
          "time": "48000i",
          "velocity": 0.7874015748031497
        },
        {
          "duration": 0.6000000000000014,
          "durationTicks": 480,
          "midi": 59,
          "name": "B3",
          "ticks": 48480,
          "time": "48480i",
          "velocity": 0.7874015748031497
        },
        {
          "duration": 0.6000000000000014,
          "durationTicks": 480,
          "midi": 57,
          "name": "A3",
          "ticks": 48960,
          "time": "48960i",
          "velocity": 0.7874015748031497
        },
        {
          "duration": 0.6000000000000014,
          "durationTicks": 480,
          "midi": 55,
          "name": "G3",
          "ticks": 49440,
          "time": "49440i",
          "velocity": 0.7874015748031497
        },
        {
          "duration": 0.6000000000000014,
          "durationTicks": 480,
          "midi": 62,
          "name": "D4",
          "ticks": 49920,
          "time": "49920i",
          "velocity": 0.7874015748031497
        },
        {
          "duration": 0.5999999999999943,
          "durationTicks": 480,
          "midi": 50,
          "name": "D3",
          "ticks": 50400,
          "time": "50400i",
          "velocity": 0.7874015748031497
        },
        {
          "duration": 0.6000000000000085,
          "durationTicks": 480,
          "midi": 52,
          "name": "E3",
          "ticks": 50880,
          "time": "50880i",
          "velocity": 0.7874015748031497
        },
        {
          "duration": 0.5999999999999943,
          "durationTicks": 480,
          "midi": 54,
          "name": "F#3",
          "ticks": 51360,
          "time": "51360i",
          "velocity": 0.7874015748031497
        },
        {
          "duration": 1.2000000000000028,
          "durationTicks": 960,
          "midi": 55,
          "name": "G3",
          "ticks": 51840,
          "time": "51840i",
          "velocity": 0.7874015748031497
        },
        {
          "duration": 0.6000000000000085,
          "durationTicks": 480,
          "midi": 55,
          "name": "G3",
          "ticks": 53280,
          "time": "53280i",
          "velocity": 0.7874015748031497
        },
        {
          "duration": 0.5999999999999943,
          "durationTicks": 480,
          "midi": 54,
          "name": "F#3",
          "ticks": 53760,
          "time": "53760i",
          "velocity": 0.7874015748031497
        },
        {
          "duration": 0.5999999999999943,
          "durationTicks": 480,
          "midi": 52,
          "name": "E3",
          "ticks": 54240,
          "time": "54240i",
          "velocity": 0.7874015748031497
        },
        {
          "duration": 0.6000000000000085,
          "durationTicks": 480,
          "midi": 50,
          "name": "D3",
          "ticks": 54720,
          "time": "54720i",
          "velocity": 0.7874015748031497
        },
        {
          "duration": 0.5999999999999943,
          "durationTicks": 480,
          "midi": 47,
          "name": "B2",
          "ticks": 55200,
          "time": "55200i",
          "velocity": 0.7874015748031497
        },
        {
          "duration": 0.6000000000000085,
          "durationTicks": 480,
          "midi": 48,
          "name": "C3",
          "ticks": 55680,
          "time": "55680i",
          "velocity": 0.7874015748031497
        },
        {
          "duration": 0.5999999999999943,
          "durationTicks": 480,
          "midi": 50,
          "name": "D3",
          "ticks": 56160,
          "time": "56160i",
          "velocity": 0.7874015748031497
        },
        {
          "duration": 0.5999999999999943,
          "durationTicks": 480,
          "midi": 43,
          "name": "G2",
          "ticks": 56640,
          "time": "56640i",
          "velocity": 0.7874015748031497
        },
        {
          "duration": 0.6000000000000085,
          "durationTicks": 480,
          "midi": 55,
          "name": "G3",
          "ticks": 57120,
          "time": "57120i",
          "velocity": 0.7874015748031497
        },
        {
          "duration": 0.5999999999999943,
          "durationTicks": 480,
          "midi": 54,
          "name": "F#3",
          "ticks": 57600,
          "time": "57600i",
          "velocity": 0.7874015748031497
        },
        {
          "duration": 0.6000000000000085,
          "durationTicks": 480,
          "midi": 52,
          "name": "E3",
          "ticks": 58080,
          "time": "58080i",
          "velocity": 0.7874015748031497
        },
        {
          "duration": 0.5999999999999943,
          "durationTicks": 480,
          "midi": 50,
          "name": "D3",
          "ticks": 58560,
          "time": "58560i",
          "velocity": 0.7874015748031497
        },
        {
          "duration": 0.5999999999999943,
          "durationTicks": 480,
          "midi": 47,
          "name": "B2",
          "ticks": 59040,
          "time": "59040i",
          "velocity": 0.7874015748031497
        },
        {
          "duration": 0.6000000000000085,
          "durationTicks": 480,
          "midi": 48,
          "name": "C3",
          "ticks": 59520,
          "time": "59520i",
          "velocity": 0.7874015748031497
        },
        {
          "duration": 0.5999999999999943,
          "durationTicks": 480,
          "midi": 50,
          "name": "D3",
          "ticks": 60000,
          "time": "60000i",
          "velocity": 0.7874015748031497
        },
        {
          "duration": 0.6000000000000085,
          "durationTicks": 480,
          "midi": 43,
          "name": "G2",
          "ticks": 60480,
          "time": "60480i",
          "velocity": 0.7874015748031497
        },
        {
          "duration": 0.5999999999999943,
          "durationTicks": 480,
          "midi": 55,
          "name": "G3",
          "ticks": 60960,
          "time": "60960i",
          "velocity": 0.7874015748031497
        },
        {
          "duration": 0.5999999999999943,
          "durationTicks": 480,
          "midi": 54,
          "name": "F#3",
          "ticks": 61440,
          "time": "61440i",
          "velocity": 0.7874015748031497
        },
        {
          "duration": 0.6000000000000085,
          "durationTicks": 480,
          "midi": 52,
          "name": "E3",
          "ticks": 61920,
          "time": "61920i",
          "velocity": 0.7874015748031497
        },
        {
          "duration": 0.5999999999999943,
          "durationTicks": 480,
          "midi": 50,
          "name": "D3",
          "ticks": 62400,
          "time": "62400i",
          "velocity": 0.7874015748031497
        },
        {
          "duration": 0.6000000000000085,
          "durationTicks": 480,
          "midi": 47,
          "name": "B2",
          "ticks": 62880,
          "time": "62880i",
          "velocity": 0.7874015748031497
        },
        {
          "duration": 0.5999999999999943,
          "durationTicks": 480,
          "midi": 48,
          "name": "C3",
          "ticks": 63360,
          "time": "63360i",
          "velocity": 0.7874015748031497
        },
        {
          "duration": 0.5999999999999943,
          "durationTicks": 480,
          "midi": 50,
          "name": "D3",
          "ticks": 63840,
          "time": "63840i",
          "velocity": 0.7874015748031497
        },
        {
          "duration": 1.2000000000000028,
          "durationTicks": 960,
          "midi": 43,
          "name": "G2",
          "ticks": 64320,
          "time": "64320i",
          "velocity": 0.7874015748031497
        },
        {
          "duration": 0.5999999999999943,
          "durationTicks": 480,
          "midi": 55,
          "name": "G3",
          "ticks": 65760,
          "time": "65760i",
          "velocity": 0.7874015748031497
        },
        {
          "duration": 0.5999999999999943,
          "durationTicks": 480,
          "midi": 54,
          "name": "F#3",
          "ticks": 66240,
          "time": "66240i",
          "velocity": 0.7874015748031497
        },
        {
          "duration": 0.6000000000000085,
          "durationTicks": 480,
          "midi": 52,
          "name": "E3",
          "ticks": 66720,
          "time": "66720i",
          "velocity": 0.7874015748031497
        },
        {
          "duration": 0.5999999999999943,
          "durationTicks": 480,
          "midi": 50,
          "name": "D3",
          "ticks": 67200,
          "time": "67200i",
          "velocity": 0.7874015748031497
        },
        {
          "duration": 0.6000000000000085,
          "durationTicks": 480,
          "midi": 47,
          "name": "B2",
          "ticks": 67680,
          "time": "67680i",
          "velocity": 0.7874015748031497
        },
        {
          "duration": 0.5999999999999943,
          "durationTicks": 480,
          "midi": 48,
          "name": "C3",
          "ticks": 68160,
          "time": "68160i",
          "velocity": 0.7874015748031497
        },
        {
          "duration": 0.5999999999999943,
          "durationTicks": 480,
          "midi": 50,
          "name": "D3",
          "ticks": 68640,
          "time": "68640i",
          "velocity": 0.7874015748031497
        },
        {
          "duration": 0.6000000000000085,
          "durationTicks": 480,
          "midi": 43,
          "name": "G2",
          "ticks": 69120,
          "time": "69120i",
          "velocity": 0.7874015748031497
        },
        {
          "duration": 0.5999999999999943,
          "durationTicks": 480,
          "midi": 55,
          "name": "G3",
          "ticks": 69600,
          "time": "69600i",
          "velocity": 0.7874015748031497
        },
        {
          "duration": 0.6000000000000085,
          "durationTicks": 480,
          "midi": 54,
          "name": "F#3",
          "ticks": 70080,
          "time": "70080i",
          "velocity": 0.7874015748031497
        },
        {
          "duration": 0.5999999999999943,
          "durationTicks": 480,
          "midi": 52,
          "name": "E3",
          "ticks": 70560,
          "time": "70560i",
          "velocity": 0.7874015748031497
        },
        {
          "duration": 0.5999999999999943,
          "durationTicks": 480,
          "midi": 50,
          "name": "D3",
          "ticks": 71040,
          "time": "71040i",
          "velocity": 0.7874015748031497
        },
        {
          "duration": 0.6000000000000085,
          "durationTicks": 480,
          "midi": 47,
          "name": "B2",
          "ticks": 71520,
          "time": "71520i",
          "velocity": 0.7874015748031497
        },
        {
          "duration": 0.5999999999999943,
          "durationTicks": 480,
          "midi": 48,
          "name": "C3",
          "ticks": 72000,
          "time": "72000i",
          "velocity": 0.7874015748031497
        },
        {
          "duration": 0.6000000000000085,
          "durationTicks": 480,
          "midi": 50,
          "name": "D3",
          "ticks": 72480,
          "time": "72480i",
          "velocity": 0.7874015748031497
        },
        {
          "duration": 0.5999999999999943,
          "durationTicks": 480,
          "midi": 43,
          "name": "G2",
          "ticks": 72960,
          "time": "72960i",
          "velocity": 0.7874015748031497
        },
        {
          "duration": 0.5999999999999943,
          "durationTicks": 480,
          "midi": 55,
          "name": "G3",
          "ticks": 73440,
          "time": "73440i",
          "velocity": 0.7874015748031497
        },
        {
          "duration": 0.6000000000000085,
          "durationTicks": 480,
          "midi": 54,
          "name": "F#3",
          "ticks": 73920,
          "time": "73920i",
          "velocity": 0.7874015748031497
        },
        {
          "duration": 0.5999999999999943,
          "durationTicks": 480,
          "midi": 52,
          "name": "E3",
          "ticks": 74400,
          "time": "74400i",
          "velocity": 0.7874015748031497
        },
        {
          "duration": 0.6000000000000085,
          "durationTicks": 480,
          "midi": 50,
          "name": "D3",
          "ticks": 74880,
          "time": "74880i",
          "velocity": 0.7874015748031497
        },
        {
          "duration": 0.5999999999999943,
          "durationTicks": 480,
          "midi": 47,
          "name": "B2",
          "ticks": 75360,
          "time": "75360i",
          "velocity": 0.7874015748031497
        },
        {
          "duration": 0.5999999999999943,
          "durationTicks": 480,
          "midi": 48,
          "name": "C3",
          "ticks": 75840,
          "time": "75840i",
          "velocity": 0.7874015748031497
        },
        {
          "duration": 0.6000000000000085,
          "durationTicks": 480,
          "midi": 50,
          "name": "D3",
          "ticks": 76320,
          "time": "76320i",
          "velocity": 0.7874015748031497
        },
        {
          "duration": 1.2000000000000028,
          "durationTicks": 960,
          "midi": 43,
          "name": "G2",
          "ticks": 76800,
          "time": "76800i",
          "velocity": 0.7874015748031497
        },
        {
          "duration": 0.14999999999999147,
          "durationTicks": 120,
          "midi": 64,
          "name": "E4",
          "ticks": 78000,
          "time": "78000i",
          "velocity": 0.7874015748031497
        },
        {
          "duration": 0.15000000000000568,
          "durationTicks": 120,
          "midi": 62,
          "name": "D4",
          "ticks": 78120,
          "time": "78120i",
          "velocity": 0.7874015748031497
        },
        {
          "duration": 0.29999999999999716,
          "durationTicks": 240,
          "midi": 60,
          "name": "C4",
          "ticks": 78240,
          "time": "78240i",
          "velocity": 0.7874015748031497
        },
        {
          "duration": 0.29999999999999716,
          "durationTicks": 240,
          "midi": 58,
          "name": "A#3",
          "ticks": 78480,
          "time": "78480i",
          "velocity": 0.7874015748031497
        },
        {
          "duration": 0.30000000000001137,
          "durationTicks": 240,
          "midi": 57,
          "name": "A3",
          "ticks": 78720,
          "time": "78720i",
          "velocity": 0.7874015748031497
        },
        {
          "duration": 0.29999999999999716,
          "durationTicks": 240,
          "midi": 54,
          "name": "F#3",
          "ticks": 78960,
          "time": "78960i",
          "velocity": 0.7874015748031497
        },
        {
          "duration": 0.29999999999999716,
          "durationTicks": 240,
          "midi": 55,
          "name": "G3",
          "ticks": 79200,
          "time": "79200i",
          "velocity": 0.7874015748031497
        },
        {
          "duration": 0.29999999999999716,
          "durationTicks": 240,
          "midi": 57,
          "name": "A3",
          "ticks": 79440,
          "time": "79440i",
          "velocity": 0.7874015748031497
        },
        {
          "duration": 0.6000000000000085,
          "durationTicks": 480,
          "midi": 50,
          "name": "D3",
          "ticks": 79680,
          "time": "79680i",
          "velocity": 0.7874015748031497
        },
        {
          "duration": 0.29999999999999716,
          "durationTicks": 240,
          "midi": 52,
          "name": "E3",
          "ticks": 80400,
          "time": "80400i",
          "velocity": 0.7874015748031497
        },
        {
          "duration": 0.29999999999999716,
          "durationTicks": 240,
          "midi": 45,
          "name": "A2",
          "ticks": 80640,
          "time": "80640i",
          "velocity": 0.7874015748031497
        },
        {
          "duration": 0.29999999999999716,
          "durationTicks": 240,
          "midi": 57,
          "name": "A3",
          "ticks": 80880,
          "time": "80880i",
          "velocity": 0.7874015748031497
        },
        {
          "duration": 0.30000000000001137,
          "durationTicks": 240,
          "midi": 55,
          "name": "G3",
          "ticks": 81120,
          "time": "81120i",
          "velocity": 0.7874015748031497
        },
        {
          "duration": 0.29999999999999716,
          "durationTicks": 240,
          "midi": 53,
          "name": "F3",
          "ticks": 81360,
          "time": "81360i",
          "velocity": 0.7874015748031497
        },
        {
          "duration": 0.29999999999999716,
          "durationTicks": 240,
          "midi": 52,
          "name": "E3",
          "ticks": 81600,
          "time": "81600i",
          "velocity": 0.7874015748031497
        },
        {
          "duration": 0.15000000000000568,
          "durationTicks": 120,
          "midi": 64,
          "name": "E4",
          "ticks": 81840,
          "time": "81840i",
          "velocity": 0.7874015748031497
        },
        {
          "duration": 0.14999999999999147,
          "durationTicks": 120,
          "midi": 62,
          "name": "D4",
          "ticks": 81960,
          "time": "81960i",
          "velocity": 0.7874015748031497
        },
        {
          "duration": 0.29999999999999716,
          "durationTicks": 240,
          "midi": 60,
          "name": "C4",
          "ticks": 82080,
          "time": "82080i",
          "velocity": 0.7874015748031497
        },
        {
          "duration": 0.30000000000001137,
          "durationTicks": 240,
          "midi": 58,
          "name": "A#3",
          "ticks": 82320,
          "time": "82320i",
          "velocity": 0.7874015748031497
        },
        {
          "duration": 0.29999999999999716,
          "durationTicks": 240,
          "midi": 57,
          "name": "A3",
          "ticks": 82560,
          "time": "82560i",
          "velocity": 0.7874015748031497
        },
        {
          "duration": 0.29999999999999716,
          "durationTicks": 240,
          "midi": 54,
          "name": "F#3",
          "ticks": 82800,
          "time": "82800i",
          "velocity": 0.7874015748031497
        },
        {
          "duration": 0.29999999999999716,
          "durationTicks": 240,
          "midi": 55,
          "name": "G3",
          "ticks": 83040,
          "time": "83040i",
          "velocity": 0.7874015748031497
        },
        {
          "duration": 0.29999999999999716,
          "durationTicks": 240,
          "midi": 57,
          "name": "A3",
          "ticks": 83280,
          "time": "83280i",
          "velocity": 0.7874015748031497
        },
        {
          "duration": 0.6000000000000085,
          "durationTicks": 480,
          "midi": 50,
          "name": "D3",
          "ticks": 83520,
          "time": "83520i",
          "velocity": 0.7874015748031497
        },
        {
          "duration": 0.29999999999999716,
          "durationTicks": 240,
          "midi": 52,
          "name": "E3",
          "ticks": 84240,
          "time": "84240i",
          "velocity": 0.7874015748031497
        },
        {
          "duration": 0.29999999999999716,
          "durationTicks": 240,
          "midi": 45,
          "name": "A2",
          "ticks": 84480,
          "time": "84480i",
          "velocity": 0.7874015748031497
        },
        {
          "duration": 0.30000000000001137,
          "durationTicks": 240,
          "midi": 57,
          "name": "A3",
          "ticks": 84720,
          "time": "84720i",
          "velocity": 0.7874015748031497
        },
        {
          "duration": 0.29999999999999716,
          "durationTicks": 240,
          "midi": 55,
          "name": "G3",
          "ticks": 84960,
          "time": "84960i",
          "velocity": 0.7874015748031497
        },
        {
          "duration": 0.29999999999999716,
          "durationTicks": 240,
          "midi": 53,
          "name": "F3",
          "ticks": 85200,
          "time": "85200i",
          "velocity": 0.7874015748031497
        },
        {
          "duration": 0.29999999999999716,
          "durationTicks": 240,
          "midi": 52,
          "name": "E3",
          "ticks": 85440,
          "time": "85440i",
          "velocity": 0.7874015748031497
        },
        {
          "duration": 0.15000000000000568,
          "durationTicks": 120,
          "midi": 64,
          "name": "E4",
          "ticks": 85680,
          "time": "85680i",
          "velocity": 0.7874015748031497
        },
        {
          "duration": 0.14999999999999147,
          "durationTicks": 120,
          "midi": 62,
          "name": "D4",
          "ticks": 85800,
          "time": "85800i",
          "velocity": 0.7874015748031497
        },
        {
          "duration": 0.30000000000001137,
          "durationTicks": 240,
          "midi": 60,
          "name": "C4",
          "ticks": 85920,
          "time": "85920i",
          "velocity": 0.7874015748031497
        },
        {
          "duration": 0.29999999999999716,
          "durationTicks": 240,
          "midi": 58,
          "name": "A#3",
          "ticks": 86160,
          "time": "86160i",
          "velocity": 0.7874015748031497
        },
        {
          "duration": 0.29999999999999716,
          "durationTicks": 240,
          "midi": 57,
          "name": "A3",
          "ticks": 86400,
          "time": "86400i",
          "velocity": 0.7874015748031497
        },
        {
          "duration": 0.29999999999999716,
          "durationTicks": 240,
          "midi": 54,
          "name": "F#3",
          "ticks": 86640,
          "time": "86640i",
          "velocity": 0.7874015748031497
        },
        {
          "duration": 0.29999999999999716,
          "durationTicks": 240,
          "midi": 55,
          "name": "G3",
          "ticks": 86880,
          "time": "86880i",
          "velocity": 0.7874015748031497
        },
        {
          "duration": 0.30000000000001137,
          "durationTicks": 240,
          "midi": 57,
          "name": "A3",
          "ticks": 87120,
          "time": "87120i",
          "velocity": 0.7874015748031497
        },
        {
          "duration": 0.5999999999999943,
          "durationTicks": 480,
          "midi": 50,
          "name": "D3",
          "ticks": 87360,
          "time": "87360i",
          "velocity": 0.7874015748031497
        },
        {
          "duration": 0.29999999999999716,
          "durationTicks": 240,
          "midi": 52,
          "name": "E3",
          "ticks": 88080,
          "time": "88080i",
          "velocity": 0.7874015748031497
        },
        {
          "duration": 0.30000000000001137,
          "durationTicks": 240,
          "midi": 45,
          "name": "A2",
          "ticks": 88320,
          "time": "88320i",
          "velocity": 0.7874015748031497
        },
        {
          "duration": 0.29999999999999716,
          "durationTicks": 240,
          "midi": 57,
          "name": "A3",
          "ticks": 88560,
          "time": "88560i",
          "velocity": 0.7874015748031497
        },
        {
          "duration": 0.29999999999999716,
          "durationTicks": 240,
          "midi": 55,
          "name": "G3",
          "ticks": 88800,
          "time": "88800i",
          "velocity": 0.7874015748031497
        },
        {
          "duration": 0.29999999999999716,
          "durationTicks": 240,
          "midi": 53,
          "name": "F3",
          "ticks": 89040,
          "time": "89040i",
          "velocity": 0.7874015748031497
        },
        {
          "duration": 1.2000000000000028,
          "durationTicks": 960,
          "midi": 52,
          "name": "E3",
          "ticks": 89280,
          "time": "89280i",
          "velocity": 0.7874015748031497
        },
        {
          "duration": 0.6000000000000085,
          "durationTicks": 480,
          "midi": 55,
          "name": "G3",
          "ticks": 90720,
          "time": "90720i",
          "velocity": 0.7874015748031497
        },
        {
          "duration": 0.5999999999999943,
          "durationTicks": 480,
          "midi": 54,
          "name": "F#3",
          "ticks": 91200,
          "time": "91200i",
          "velocity": 0.7874015748031497
        },
        {
          "duration": 0.5999999999999943,
          "durationTicks": 480,
          "midi": 52,
          "name": "E3",
          "ticks": 91680,
          "time": "91680i",
          "velocity": 0.7874015748031497
        },
        {
          "duration": 0.6000000000000085,
          "durationTicks": 480,
          "midi": 50,
          "name": "D3",
          "ticks": 92160,
          "time": "92160i",
          "velocity": 0.7874015748031497
        },
        {
          "duration": 0.5999999999999943,
          "durationTicks": 480,
          "midi": 47,
          "name": "B2",
          "ticks": 92640,
          "time": "92640i",
          "velocity": 0.7874015748031497
        },
        {
          "duration": 0.6000000000000085,
          "durationTicks": 480,
          "midi": 48,
          "name": "C3",
          "ticks": 93120,
          "time": "93120i",
          "velocity": 0.7874015748031497
        },
        {
          "duration": 0.5999999999999943,
          "durationTicks": 480,
          "midi": 50,
          "name": "D3",
          "ticks": 93600,
          "time": "93600i",
          "velocity": 0.7874015748031497
        },
        {
          "duration": 0.5999999999999943,
          "durationTicks": 480,
          "midi": 43,
          "name": "G2",
          "ticks": 94080,
          "time": "94080i",
          "velocity": 0.7874015748031497
        },
        {
          "duration": 0.6000000000000085,
          "durationTicks": 480,
          "midi": 55,
          "name": "G3",
          "ticks": 94560,
          "time": "94560i",
          "velocity": 0.7874015748031497
        },
        {
          "duration": 0.5999999999999943,
          "durationTicks": 480,
          "midi": 54,
          "name": "F#3",
          "ticks": 95040,
          "time": "95040i",
          "velocity": 0.7874015748031497
        },
        {
          "duration": 0.6000000000000085,
          "durationTicks": 480,
          "midi": 52,
          "name": "E3",
          "ticks": 95520,
          "time": "95520i",
          "velocity": 0.7874015748031497
        },
        {
          "duration": 0.5999999999999943,
          "durationTicks": 480,
          "midi": 50,
          "name": "D3",
          "ticks": 96000,
          "time": "96000i",
          "velocity": 0.7874015748031497
        },
        {
          "duration": 0.5999999999999943,
          "durationTicks": 480,
          "midi": 47,
          "name": "B2",
          "ticks": 96480,
          "time": "96480i",
          "velocity": 0.7874015748031497
        },
        {
          "duration": 0.6000000000000085,
          "durationTicks": 480,
          "midi": 48,
          "name": "C3",
          "ticks": 96960,
          "time": "96960i",
          "velocity": 0.7874015748031497
        },
        {
          "duration": 0.5999999999999943,
          "durationTicks": 480,
          "midi": 50,
          "name": "D3",
          "ticks": 97440,
          "time": "97440i",
          "velocity": 0.7874015748031497
        },
        {
          "duration": 0.6000000000000085,
          "durationTicks": 480,
          "midi": 43,
          "name": "G2",
          "ticks": 97920,
          "time": "97920i",
          "velocity": 0.7874015748031497
        },
        {
          "duration": 0.5999999999999943,
          "durationTicks": 480,
          "midi": 55,
          "name": "G3",
          "ticks": 98400,
          "time": "98400i",
          "velocity": 0.7874015748031497
        },
        {
          "duration": 0.5999999999999943,
          "durationTicks": 480,
          "midi": 54,
          "name": "F#3",
          "ticks": 98880,
          "time": "98880i",
          "velocity": 0.7874015748031497
        },
        {
          "duration": 0.6000000000000085,
          "durationTicks": 480,
          "midi": 52,
          "name": "E3",
          "ticks": 99360,
          "time": "99360i",
          "velocity": 0.7874015748031497
        },
        {
          "duration": 0.5999999999999943,
          "durationTicks": 480,
          "midi": 50,
          "name": "D3",
          "ticks": 99840,
          "time": "99840i",
          "velocity": 0.7874015748031497
        },
        {
          "duration": 0.6000000000000085,
          "durationTicks": 480,
          "midi": 47,
          "name": "B2",
          "ticks": 100320,
          "time": "100320i",
          "velocity": 0.7874015748031497
        },
        {
          "duration": 0.5999999999999943,
          "durationTicks": 480,
          "midi": 48,
          "name": "C3",
          "ticks": 100800,
          "time": "100800i",
          "velocity": 0.7874015748031497
        },
        {
          "duration": 0.5999999999999943,
          "durationTicks": 480,
          "midi": 50,
          "name": "D3",
          "ticks": 101280,
          "time": "101280i",
          "velocity": 0.7874015748031497
        },
        {
          "duration": 1.200000000000017,
          "durationTicks": 960,
          "midi": 43,
          "name": "G2",
          "ticks": 101760,
          "time": "101760i",
          "velocity": 0.7874015748031497
        },
        {
          "duration": 0.5999999999999943,
          "durationTicks": 480,
          "midi": 55,
          "name": "G3",
          "ticks": 103200,
          "time": "103200i",
          "velocity": 0.7874015748031497
        },
        {
          "duration": 0.5999999999999943,
          "durationTicks": 480,
          "midi": 54,
          "name": "F#3",
          "ticks": 103680,
          "time": "103680i",
          "velocity": 0.7874015748031497
        },
        {
          "duration": 0.5999999999999943,
          "durationTicks": 480,
          "midi": 52,
          "name": "E3",
          "ticks": 104160,
          "time": "104160i",
          "velocity": 0.7874015748031497
        },
        {
          "duration": 0.6000000000000227,
          "durationTicks": 480,
          "midi": 50,
          "name": "D3",
          "ticks": 104640,
          "time": "104640i",
          "velocity": 0.7874015748031497
        },
        {
          "duration": 0.5999999999999943,
          "durationTicks": 480,
          "midi": 47,
          "name": "B2",
          "ticks": 105120,
          "time": "105120i",
          "velocity": 0.7874015748031497
        },
        {
          "duration": 0.5999999999999943,
          "durationTicks": 480,
          "midi": 48,
          "name": "C3",
          "ticks": 105600,
          "time": "105600i",
          "velocity": 0.7874015748031497
        },
        {
          "duration": 0.5999999999999943,
          "durationTicks": 480,
          "midi": 50,
          "name": "D3",
          "ticks": 106080,
          "time": "106080i",
          "velocity": 0.7874015748031497
        },
        {
          "duration": 0.5999999999999943,
          "durationTicks": 480,
          "midi": 43,
          "name": "G2",
          "ticks": 106560,
          "time": "106560i",
          "velocity": 0.7874015748031497
        },
        {
          "duration": 0.6000000000000227,
          "durationTicks": 480,
          "midi": 55,
          "name": "G3",
          "ticks": 107040,
          "time": "107040i",
          "velocity": 0.7874015748031497
        },
        {
          "duration": 0.5999999999999943,
          "durationTicks": 480,
          "midi": 54,
          "name": "F#3",
          "ticks": 107520,
          "time": "107520i",
          "velocity": 0.7874015748031497
        },
        {
          "duration": 0.5999999999999943,
          "durationTicks": 480,
          "midi": 52,
          "name": "E3",
          "ticks": 108000,
          "time": "108000i",
          "velocity": 0.7874015748031497
        },
        {
          "duration": 0.5999999999999943,
          "durationTicks": 480,
          "midi": 50,
          "name": "D3",
          "ticks": 108480,
          "time": "108480i",
          "velocity": 0.7874015748031497
        },
        {
          "duration": 0.5999999999999943,
          "durationTicks": 480,
          "midi": 47,
          "name": "B2",
          "ticks": 108960,
          "time": "108960i",
          "velocity": 0.7874015748031497
        },
        {
          "duration": 0.6000000000000227,
          "durationTicks": 480,
          "midi": 48,
          "name": "C3",
          "ticks": 109440,
          "time": "109440i",
          "velocity": 0.7874015748031497
        },
        {
          "duration": 0.5999999999999943,
          "durationTicks": 480,
          "midi": 50,
          "name": "D3",
          "ticks": 109920,
          "time": "109920i",
          "velocity": 0.7874015748031497
        },
        {
          "duration": 0.5999999999999943,
          "durationTicks": 480,
          "midi": 43,
          "name": "G2",
          "ticks": 110400,
          "time": "110400i",
          "velocity": 0.7874015748031497
        },
        {
          "duration": 0.5999999999999943,
          "durationTicks": 480,
          "midi": 55,
          "name": "G3",
          "ticks": 110880,
          "time": "110880i",
          "velocity": 0.7874015748031497
        },
        {
          "duration": 0.5999999999999943,
          "durationTicks": 480,
          "midi": 54,
          "name": "F#3",
          "ticks": 111360,
          "time": "111360i",
          "velocity": 0.7874015748031497
        },
        {
          "duration": 0.6000000000000227,
          "durationTicks": 480,
          "midi": 52,
          "name": "E3",
          "ticks": 111840,
          "time": "111840i",
          "velocity": 0.7874015748031497
        },
        {
          "duration": 0.5999999999999943,
          "durationTicks": 480,
          "midi": 50,
          "name": "D3",
          "ticks": 112320,
          "time": "112320i",
          "velocity": 0.7874015748031497
        },
        {
          "duration": 0.5999999999999943,
          "durationTicks": 480,
          "midi": 47,
          "name": "B2",
          "ticks": 112800,
          "time": "112800i",
          "velocity": 0.7874015748031497
        },
        {
          "duration": 0.5999999999999943,
          "durationTicks": 480,
          "midi": 48,
          "name": "C3",
          "ticks": 113280,
          "time": "113280i",
          "velocity": 0.7874015748031497
        },
        {
          "duration": 0.5999999999999943,
          "durationTicks": 480,
          "midi": 50,
          "name": "D3",
          "ticks": 113760,
          "time": "113760i",
          "velocity": 0.7874015748031497
        },
        {
          "duration": 1.200000000000017,
          "durationTicks": 960,
          "midi": 43,
          "name": "G2",
          "ticks": 114240,
          "time": "114240i",
          "velocity": 0.7874015748031497
        },
        {
          "duration": 0.30000000000001137,
          "durationTicks": 240,
          "midi": 62,
          "name": "D4",
          "ticks": 117840,
          "time": "117840i",
          "velocity": 0.7874015748031497
        },
        {
          "duration": 0.30000000000001137,
          "durationTicks": 240,
          "midi": 60,
          "name": "C4",
          "ticks": 118080,
          "time": "118080i",
          "velocity": 0.7874015748031497
        },
        {
          "duration": 0.29999999999998295,
          "durationTicks": 240,
          "midi": 58,
          "name": "A#3",
          "ticks": 118320,
          "time": "118320i",
          "velocity": 0.7874015748031497
        },
        {
          "duration": 0.30000000000001137,
          "durationTicks": 240,
          "midi": 57,
          "name": "A3",
          "ticks": 118560,
          "time": "118560i",
          "velocity": 0.7874015748031497
        },
        {
          "duration": 0.15000000000000568,
          "durationTicks": 120,
          "midi": 62,
          "name": "D4",
          "ticks": 118800,
          "time": "118800i",
          "velocity": 0.7874015748031497
        },
        {
          "duration": 0.14999999999997726,
          "durationTicks": 120,
          "midi": 60,
          "name": "C4",
          "ticks": 118920,
          "time": "118920i",
          "velocity": 0.7874015748031497
        },
        {
          "duration": 0.30000000000001137,
          "durationTicks": 240,
          "midi": 59,
          "name": "B3",
          "ticks": 119040,
          "time": "119040i",
          "velocity": 0.7874015748031497
        },
        {
          "duration": 0.30000000000001137,
          "durationTicks": 240,
          "midi": 64,
          "name": "E4",
          "ticks": 119280,
          "time": "119280i",
          "velocity": 0.7874015748031497
        },
        {
          "duration": 0.14999999999997726,
          "durationTicks": 120,
          "midi": 62,
          "name": "D4",
          "ticks": 119520,
          "time": "119520i",
          "velocity": 0.7874015748031497
        },
        {
          "duration": 0.15000000000000568,
          "durationTicks": 120,
          "midi": 61,
          "name": "C#4",
          "ticks": 119640,
          "time": "119640i",
          "velocity": 0.7874015748031497
        },
        {
          "duration": 0.15000000000000568,
          "durationTicks": 120,
          "midi": 62,
          "name": "D4",
          "ticks": 119760,
          "time": "119760i",
          "velocity": 0.7874015748031497
        },
        {
          "duration": 0.15000000000000568,
          "durationTicks": 120,
          "midi": 64,
          "name": "E4",
          "ticks": 119880,
          "time": "119880i",
          "velocity": 0.7874015748031497
        },
        {
          "duration": 0.5999999999999943,
          "durationTicks": 480,
          "midi": 66,
          "name": "F#4",
          "ticks": 120000,
          "time": "120000i",
          "velocity": 0.7874015748031497
        },
        {
          "duration": 0.44999999999998863,
          "durationTicks": 360,
          "midi": 71,
          "name": "B4",
          "ticks": 120720,
          "time": "120720i",
          "velocity": 0.7874015748031497
        },
        {
          "duration": 0.30000000000001137,
          "durationTicks": 240,
          "midi": 59,
          "name": "B3",
          "ticks": 121080,
          "time": "121080i",
          "velocity": 0.7874015748031497
        },
        {
          "duration": 0.14999999999997726,
          "durationTicks": 120,
          "midi": 61,
          "name": "C#4",
          "ticks": 121320,
          "time": "121320i",
          "velocity": 0.7874015748031497
        },
        {
          "duration": 0.15000000000000568,
          "durationTicks": 120,
          "midi": 62,
          "name": "D4",
          "ticks": 121440,
          "time": "121440i",
          "velocity": 0.7874015748031497
        },
        {
          "duration": 0.15000000000000568,
          "durationTicks": 120,
          "midi": 64,
          "name": "E4",
          "ticks": 121560,
          "time": "121560i",
          "velocity": 0.7874015748031497
        },
        {
          "duration": 0.30000000000001137,
          "durationTicks": 240,
          "midi": 62,
          "name": "D4",
          "ticks": 121680,
          "time": "121680i",
          "velocity": 0.7874015748031497
        },
        {
          "duration": 0.29999999999998295,
          "durationTicks": 240,
          "midi": 60,
          "name": "C4",
          "ticks": 121920,
          "time": "121920i",
          "velocity": 0.7874015748031497
        },
        {
          "duration": 0.30000000000001137,
          "durationTicks": 240,
          "midi": 58,
          "name": "A#3",
          "ticks": 122160,
          "time": "122160i",
          "velocity": 0.7874015748031497
        },
        {
          "duration": 0.29999999999998295,
          "durationTicks": 240,
          "midi": 57,
          "name": "A3",
          "ticks": 122400,
          "time": "122400i",
          "velocity": 0.7874015748031497
        },
        {
          "duration": 0.15000000000000568,
          "durationTicks": 120,
          "midi": 62,
          "name": "D4",
          "ticks": 122640,
          "time": "122640i",
          "velocity": 0.7874015748031497
        },
        {
          "duration": 0.15000000000000568,
          "durationTicks": 120,
          "midi": 60,
          "name": "C4",
          "ticks": 122760,
          "time": "122760i",
          "velocity": 0.7874015748031497
        },
        {
          "duration": 0.30000000000001137,
          "durationTicks": 240,
          "midi": 59,
          "name": "B3",
          "ticks": 122880,
          "time": "122880i",
          "velocity": 0.7874015748031497
        },
        {
          "duration": 0.29999999999998295,
          "durationTicks": 240,
          "midi": 64,
          "name": "E4",
          "ticks": 123120,
          "time": "123120i",
          "velocity": 0.7874015748031497
        },
        {
          "duration": 0.15000000000000568,
          "durationTicks": 120,
          "midi": 62,
          "name": "D4",
          "ticks": 123360,
          "time": "123360i",
          "velocity": 0.7874015748031497
        },
        {
          "duration": 0.15000000000000568,
          "durationTicks": 120,
          "midi": 61,
          "name": "C#4",
          "ticks": 123480,
          "time": "123480i",
          "velocity": 0.7874015748031497
        },
        {
          "duration": 0.15000000000000568,
          "durationTicks": 120,
          "midi": 62,
          "name": "D4",
          "ticks": 123600,
          "time": "123600i",
          "velocity": 0.7874015748031497
        },
        {
          "duration": 0.14999999999997726,
          "durationTicks": 120,
          "midi": 64,
          "name": "E4",
          "ticks": 123720,
          "time": "123720i",
          "velocity": 0.7874015748031497
        },
        {
          "duration": 0.6000000000000227,
          "durationTicks": 480,
          "midi": 66,
          "name": "F#4",
          "ticks": 123840,
          "time": "123840i",
          "velocity": 0.7874015748031497
        },
        {
          "duration": 0.45000000000001705,
          "durationTicks": 360,
          "midi": 71,
          "name": "B4",
          "ticks": 124560,
          "time": "124560i",
          "velocity": 0.7874015748031497
        },
        {
          "duration": 0.29999999999998295,
          "durationTicks": 240,
          "midi": 59,
          "name": "B3",
          "ticks": 124920,
          "time": "124920i",
          "velocity": 0.7874015748031497
        },
        {
          "duration": 0.15000000000000568,
          "durationTicks": 120,
          "midi": 61,
          "name": "C#4",
          "ticks": 125160,
          "time": "125160i",
          "velocity": 0.7874015748031497
        },
        {
          "duration": 0.15000000000000568,
          "durationTicks": 120,
          "midi": 62,
          "name": "D4",
          "ticks": 125280,
          "time": "125280i",
          "velocity": 0.7874015748031497
        },
        {
          "duration": 0.15000000000000568,
          "durationTicks": 120,
          "midi": 64,
          "name": "E4",
          "ticks": 125400,
          "time": "125400i",
          "velocity": 0.7874015748031497
        },
        {
          "duration": 0.29999999999998295,
          "durationTicks": 240,
          "midi": 62,
          "name": "D4",
          "ticks": 125520,
          "time": "125520i",
          "velocity": 0.7874015748031497
        },
        {
          "duration": 0.30000000000001137,
          "durationTicks": 240,
          "midi": 60,
          "name": "C4",
          "ticks": 125760,
          "time": "125760i",
          "velocity": 0.7874015748031497
        },
        {
          "duration": 0.29999999999998295,
          "durationTicks": 240,
          "midi": 58,
          "name": "A#3",
          "ticks": 126000,
          "time": "126000i",
          "velocity": 0.7874015748031497
        },
        {
          "duration": 0.30000000000001137,
          "durationTicks": 240,
          "midi": 57,
          "name": "A3",
          "ticks": 126240,
          "time": "126240i",
          "velocity": 0.7874015748031497
        },
        {
          "duration": 0.15000000000000568,
          "durationTicks": 120,
          "midi": 62,
          "name": "D4",
          "ticks": 126480,
          "time": "126480i",
          "velocity": 0.7874015748031497
        },
        {
          "duration": 0.15000000000000568,
          "durationTicks": 120,
          "midi": 60,
          "name": "C4",
          "ticks": 126600,
          "time": "126600i",
          "velocity": 0.7874015748031497
        },
        {
          "duration": 1.1999999999999886,
          "durationTicks": 960,
          "midi": 59,
          "name": "B3",
          "ticks": 126720,
          "time": "126720i",
          "velocity": 0.7874015748031497
        },
        {
          "duration": 0.30000000000001137,
          "durationTicks": 240,
          "midi": 62,
          "name": "D4",
          "ticks": 129840,
          "time": "129840i",
          "velocity": 0.7874015748031497
        },
        {
          "duration": 0.30000000000001137,
          "durationTicks": 240,
          "midi": 64,
          "name": "E4",
          "ticks": 130080,
          "time": "130080i",
          "velocity": 0.7874015748031497
        },
        {
          "duration": 0.29999999999998295,
          "durationTicks": 240,
          "midi": 66,
          "name": "F#4",
          "ticks": 130320,
          "time": "130320i",
          "velocity": 0.7874015748031497
        },
        {
          "duration": 0.30000000000001137,
          "durationTicks": 240,
          "midi": 67,
          "name": "G4",
          "ticks": 130560,
          "time": "130560i",
          "velocity": 0.7874015748031497
        },
        {
          "duration": 0.29999999999998295,
          "durationTicks": 240,
          "midi": 71,
          "name": "B4",
          "ticks": 130800,
          "time": "130800i",
          "velocity": 0.7874015748031497
        },
        {
          "duration": 0.30000000000001137,
          "durationTicks": 240,
          "midi": 69,
          "name": "A4",
          "ticks": 131040,
          "time": "131040i",
          "velocity": 0.7874015748031497
        },
        {
          "duration": 0.30000000000001137,
          "durationTicks": 240,
          "midi": 67,
          "name": "G4",
          "ticks": 131280,
          "time": "131280i",
          "velocity": 0.7874015748031497
        },
        {
          "duration": 0.29999999999998295,
          "durationTicks": 240,
          "midi": 74,
          "name": "D5",
          "ticks": 131520,
          "time": "131520i",
          "velocity": 0.7874015748031497
        },
        {
          "duration": 0.30000000000001137,
          "durationTicks": 240,
          "midi": 62,
          "name": "D4",
          "ticks": 131760,
          "time": "131760i",
          "velocity": 0.7874015748031497
        },
        {
          "duration": 0.5999999999999943,
          "durationTicks": 480,
          "midi": 69,
          "name": "A4",
          "ticks": 132000,
          "time": "132000i",
          "velocity": 0.7874015748031497
        },
        {
          "duration": 0.5999999999999943,
          "durationTicks": 480,
          "midi": 67,
          "name": "G4",
          "ticks": 132480,
          "time": "132480i",
          "velocity": 0.7874015748031497
        },
        {
          "duration": 0.30000000000001137,
          "durationTicks": 240,
          "midi": 71,
          "name": "B4",
          "ticks": 133680,
          "time": "133680i",
          "velocity": 0.7874015748031497
        },
        {
          "duration": 0.29999999999998295,
          "durationTicks": 240,
          "midi": 69,
          "name": "A4",
          "ticks": 133920,
          "time": "133920i",
          "velocity": 0.7874015748031497
        },
        {
          "duration": 0.30000000000001137,
          "durationTicks": 240,
          "midi": 67,
          "name": "G4",
          "ticks": 134160,
          "time": "134160i",
          "velocity": 0.7874015748031497
        },
        {
          "duration": 0.29999999999998295,
          "durationTicks": 240,
          "midi": 66,
          "name": "F#4",
          "ticks": 134400,
          "time": "134400i",
          "velocity": 0.7874015748031497
        },
        {
          "duration": 0.30000000000001137,
          "durationTicks": 240,
          "midi": 62,
          "name": "D4",
          "ticks": 134640,
          "time": "134640i",
          "velocity": 0.7874015748031497
        },
        {
          "duration": 0.30000000000001137,
          "durationTicks": 240,
          "midi": 64,
          "name": "E4",
          "ticks": 134880,
          "time": "134880i",
          "velocity": 0.7874015748031497
        },
        {
          "duration": 0.29999999999998295,
          "durationTicks": 240,
          "midi": 66,
          "name": "F#4",
          "ticks": 135120,
          "time": "135120i",
          "velocity": 0.7874015748031497
        },
        {
          "duration": 0.9000000000000057,
          "durationTicks": 720,
          "midi": 67,
          "name": "G4",
          "ticks": 135360,
          "time": "135360i",
          "velocity": 0.7874015748031497
        },
        {
          "duration": 0.30000000000001137,
          "durationTicks": 240,
          "midi": 69,
          "name": "A4",
          "ticks": 136080,
          "time": "136080i",
          "velocity": 0.7874015748031497
        },
        {
          "duration": 0.5999999999999943,
          "durationTicks": 480,
          "midi": 71,
          "name": "B4",
          "ticks": 136320,
          "time": "136320i",
          "velocity": 0.7874015748031497
        },
        {
          "duration": 0.29999999999998295,
          "durationTicks": 240,
          "midi": 62,
          "name": "D4",
          "ticks": 137520,
          "time": "137520i",
          "velocity": 0.7874015748031497
        },
        {
          "duration": 0.30000000000001137,
          "durationTicks": 240,
          "midi": 64,
          "name": "E4",
          "ticks": 137760,
          "time": "137760i",
          "velocity": 0.7874015748031497
        },
        {
          "duration": 0.29999999999998295,
          "durationTicks": 240,
          "midi": 66,
          "name": "F#4",
          "ticks": 138000,
          "time": "138000i",
          "velocity": 0.7874015748031497
        },
        {
          "duration": 0.30000000000001137,
          "durationTicks": 240,
          "midi": 67,
          "name": "G4",
          "ticks": 138240,
          "time": "138240i",
          "velocity": 0.7874015748031497
        },
        {
          "duration": 0.30000000000001137,
          "durationTicks": 240,
          "midi": 71,
          "name": "B4",
          "ticks": 138480,
          "time": "138480i",
          "velocity": 0.7874015748031497
        },
        {
          "duration": 0.29999999999998295,
          "durationTicks": 240,
          "midi": 69,
          "name": "A4",
          "ticks": 138720,
          "time": "138720i",
          "velocity": 0.7874015748031497
        },
        {
          "duration": 0.30000000000001137,
          "durationTicks": 240,
          "midi": 67,
          "name": "G4",
          "ticks": 138960,
          "time": "138960i",
          "velocity": 0.7874015748031497
        },
        {
          "duration": 0.29999999999998295,
          "durationTicks": 240,
          "midi": 74,
          "name": "D5",
          "ticks": 139200,
          "time": "139200i",
          "velocity": 0.7874015748031497
        },
        {
          "duration": 0.30000000000001137,
          "durationTicks": 240,
          "midi": 62,
          "name": "D4",
          "ticks": 139440,
          "time": "139440i",
          "velocity": 0.7874015748031497
        },
        {
          "duration": 0.5999999999999943,
          "durationTicks": 480,
          "midi": 69,
          "name": "A4",
          "ticks": 139680,
          "time": "139680i",
          "velocity": 0.7874015748031497
        },
        {
          "duration": 0.5999999999999943,
          "durationTicks": 480,
          "midi": 67,
          "name": "G4",
          "ticks": 140160,
          "time": "140160i",
          "velocity": 0.7874015748031497
        },
        {
          "duration": 0.30000000000001137,
          "durationTicks": 240,
          "midi": 71,
          "name": "B4",
          "ticks": 141360,
          "time": "141360i",
          "velocity": 0.7874015748031497
        },
        {
          "duration": 0.29999999999998295,
          "durationTicks": 240,
          "midi": 69,
          "name": "A4",
          "ticks": 141600,
          "time": "141600i",
          "velocity": 0.7874015748031497
        },
        {
          "duration": 0.30000000000001137,
          "durationTicks": 240,
          "midi": 67,
          "name": "G4",
          "ticks": 141840,
          "time": "141840i",
          "velocity": 0.7874015748031497
        },
        {
          "duration": 0.30000000000001137,
          "durationTicks": 240,
          "midi": 66,
          "name": "F#4",
          "ticks": 142080,
          "time": "142080i",
          "velocity": 0.7874015748031497
        },
        {
          "duration": 0.29999999999998295,
          "durationTicks": 240,
          "midi": 62,
          "name": "D4",
          "ticks": 142320,
          "time": "142320i",
          "velocity": 0.7874015748031497
        },
        {
          "duration": 0.30000000000001137,
          "durationTicks": 240,
          "midi": 64,
          "name": "E4",
          "ticks": 142560,
          "time": "142560i",
          "velocity": 0.7874015748031497
        },
        {
          "duration": 0.29999999999998295,
          "durationTicks": 240,
          "midi": 66,
          "name": "F#4",
          "ticks": 142800,
          "time": "142800i",
          "velocity": 0.7874015748031497
        },
        {
          "duration": 0.9000000000000057,
          "durationTicks": 720,
          "midi": 67,
          "name": "G4",
          "ticks": 143040,
          "time": "143040i",
          "velocity": 0.7874015748031497
        },
        {
          "duration": 0.30000000000001137,
          "durationTicks": 240,
          "midi": 69,
          "name": "A4",
          "ticks": 143760,
          "time": "143760i",
          "velocity": 0.7874015748031497
        },
        {
          "duration": 0.5999999999999943,
          "durationTicks": 480,
          "midi": 71,
          "name": "B4",
          "ticks": 144000,
          "time": "144000i",
          "velocity": 0.7874015748031497
        },
        {
          "duration": 0.29999999999998295,
          "durationTicks": 240,
          "midi": 62,
          "name": "D4",
          "ticks": 145200,
          "time": "145200i",
          "velocity": 0.7874015748031497
        },
        {
          "duration": 0.30000000000001137,
          "durationTicks": 240,
          "midi": 64,
          "name": "E4",
          "ticks": 145440,
          "time": "145440i",
          "velocity": 0.7874015748031497
        },
        {
          "duration": 0.30000000000001137,
          "durationTicks": 240,
          "midi": 66,
          "name": "F#4",
          "ticks": 145680,
          "time": "145680i",
          "velocity": 0.7874015748031497
        },
        {
          "duration": 0.29999999999998295,
          "durationTicks": 240,
          "midi": 67,
          "name": "G4",
          "ticks": 145920,
          "time": "145920i",
          "velocity": 0.7874015748031497
        },
        {
          "duration": 0.30000000000001137,
          "durationTicks": 240,
          "midi": 71,
          "name": "B4",
          "ticks": 146160,
          "time": "146160i",
          "velocity": 0.7874015748031497
        },
        {
          "duration": 0.29999999999998295,
          "durationTicks": 240,
          "midi": 69,
          "name": "A4",
          "ticks": 146400,
          "time": "146400i",
          "velocity": 0.7874015748031497
        },
        {
          "duration": 0.30000000000001137,
          "durationTicks": 240,
          "midi": 67,
          "name": "G4",
          "ticks": 146640,
          "time": "146640i",
          "velocity": 0.7874015748031497
        },
        {
          "duration": 0.30000000000001137,
          "durationTicks": 240,
          "midi": 74,
          "name": "D5",
          "ticks": 146880,
          "time": "146880i",
          "velocity": 0.7874015748031497
        },
        {
          "duration": 0.29999999999998295,
          "durationTicks": 240,
          "midi": 62,
          "name": "D4",
          "ticks": 147120,
          "time": "147120i",
          "velocity": 0.7874015748031497
        },
        {
          "duration": 1.8000000000000114,
          "durationTicks": 1440,
          "midi": 69,
          "name": "A4",
          "ticks": 147360,
          "time": "147360i",
          "velocity": 0.7874015748031497
        },
        {
          "duration": 1.1999999999999886,
          "durationTicks": 960,
          "midi": 62,
          "name": "D4",
          "ticks": 150720,
          "time": "150720i",
          "velocity": 0.7874015748031497
        },
        {
          "duration": 0.5999999999999943,
          "durationTicks": 480,
          "midi": 60,
          "name": "C4",
          "ticks": 151680,
          "time": "151680i",
          "velocity": 0.7874015748031497
        },
        {
          "duration": 0.5999999999999943,
          "durationTicks": 480,
          "midi": 57,
          "name": "A3",
          "ticks": 152160,
          "time": "152160i",
          "velocity": 0.7874015748031497
        },
        {
          "duration": 1.200000000000017,
          "durationTicks": 960,
          "midi": 59,
          "name": "B3",
          "ticks": 152640,
          "time": "152640i",
          "velocity": 0.7874015748031497
        },
        {
          "duration": 1.1999999999999886,
          "durationTicks": 960,
          "midi": 60,
          "name": "C4",
          "ticks": 153600,
          "time": "153600i",
          "velocity": 0.7874015748031497
        },
        {
          "duration": 1.200000000000017,
          "durationTicks": 960,
          "midi": 62,
          "name": "D4",
          "ticks": 154560,
          "time": "154560i",
          "velocity": 0.7874015748031497
        },
        {
          "duration": 0.5999999999999943,
          "durationTicks": 480,
          "midi": 60,
          "name": "C4",
          "ticks": 155520,
          "time": "155520i",
          "velocity": 0.7874015748031497
        },
        {
          "duration": 0.5999999999999943,
          "durationTicks": 480,
          "midi": 57,
          "name": "A3",
          "ticks": 156000,
          "time": "156000i",
          "velocity": 0.7874015748031497
        },
        {
          "duration": 1.1999999999999886,
          "durationTicks": 960,
          "midi": 59,
          "name": "B3",
          "ticks": 156480,
          "time": "156480i",
          "velocity": 0.7874015748031497
        },
        {
          "duration": 1.200000000000017,
          "durationTicks": 960,
          "midi": 60,
          "name": "C4",
          "ticks": 157440,
          "time": "157440i",
          "velocity": 0.7874015748031497
        },
        {
          "duration": 1.1999999999999886,
          "durationTicks": 960,
          "midi": 62,
          "name": "D4",
          "ticks": 158400,
          "time": "158400i",
          "velocity": 0.7874015748031497
        },
        {
          "duration": 0.5999999999999943,
          "durationTicks": 480,
          "midi": 60,
          "name": "C4",
          "ticks": 159360,
          "time": "159360i",
          "velocity": 0.7874015748031497
        },
        {
          "duration": 0.6000000000000227,
          "durationTicks": 480,
          "midi": 57,
          "name": "A3",
          "ticks": 159840,
          "time": "159840i",
          "velocity": 0.7874015748031497
        },
        {
          "duration": 2.3999999999999773,
          "durationTicks": 1920,
          "midi": 59,
          "name": "B3",
          "ticks": 160320,
          "time": "160320i",
          "velocity": 0.7874015748031497
        },
        {
          "duration": 0.6000000000000227,
          "durationTicks": 480,
          "midi": 57,
          "name": "A3",
          "ticks": 164640,
          "time": "164640i",
          "velocity": 0.7874015748031497
        },
        {
          "duration": 0.5999999999999943,
          "durationTicks": 480,
          "midi": 59,
          "name": "B3",
          "ticks": 165120,
          "time": "165120i",
          "velocity": 0.7874015748031497
        },
        {
          "duration": 0.5999999999999943,
          "durationTicks": 480,
          "midi": 61,
          "name": "C#4",
          "ticks": 165600,
          "time": "165600i",
          "velocity": 0.7874015748031497
        },
        {
          "duration": 0.5999999999999943,
          "durationTicks": 480,
          "midi": 62,
          "name": "D4",
          "ticks": 166080,
          "time": "166080i",
          "velocity": 0.7874015748031497
        },
        {
          "duration": 0.5999999999999943,
          "durationTicks": 480,
          "midi": 66,
          "name": "F#4",
          "ticks": 166560,
          "time": "166560i",
          "velocity": 0.7874015748031497
        },
        {
          "duration": 0.6000000000000227,
          "durationTicks": 480,
          "midi": 64,
          "name": "E4",
          "ticks": 167040,
          "time": "167040i",
          "velocity": 0.7874015748031497
        },
        {
          "duration": 0.5999999999999943,
          "durationTicks": 480,
          "midi": 62,
          "name": "D4",
          "ticks": 167520,
          "time": "167520i",
          "velocity": 0.7874015748031497
        },
        {
          "duration": 0.5999999999999943,
          "durationTicks": 480,
          "midi": 69,
          "name": "A4",
          "ticks": 168000,
          "time": "168000i",
          "velocity": 0.7874015748031497
        },
        {
          "duration": 0.5999999999999943,
          "durationTicks": 480,
          "midi": 67,
          "name": "G4",
          "ticks": 168480,
          "time": "168480i",
          "velocity": 0.7874015748031497
        },
        {
          "duration": 0.5999999999999943,
          "durationTicks": 480,
          "midi": 66,
          "name": "F#4",
          "ticks": 168960,
          "time": "168960i",
          "velocity": 0.7874015748031497
        },
        {
          "duration": 0.6000000000000227,
          "durationTicks": 480,
          "midi": 74,
          "name": "D5",
          "ticks": 169440,
          "time": "169440i",
          "velocity": 0.7874015748031497
        },
        {
          "duration": 0.29999999999998295,
          "durationTicks": 240,
          "midi": 76,
          "name": "E5",
          "ticks": 170400,
          "time": "170400i",
          "velocity": 0.7874015748031497
        },
        {
          "duration": 0.30000000000001137,
          "durationTicks": 240,
          "midi": 78,
          "name": "F#5",
          "ticks": 170640,
          "time": "170640i",
          "velocity": 0.7874015748031497
        },
        {
          "duration": 0.5999999999999943,
          "durationTicks": 480,
          "midi": 79,
          "name": "G5",
          "ticks": 170880,
          "time": "170880i",
          "velocity": 0.7874015748031497
        },
        {
          "duration": 1.200000000000017,
          "durationTicks": 960,
          "midi": 67,
          "name": "G4",
          "ticks": 171360,
          "time": "171360i",
          "velocity": 0.7874015748031497
        },
        {
          "duration": 0.5999999999999943,
          "durationTicks": 480,
          "midi": 57,
          "name": "A3",
          "ticks": 172320,
          "time": "172320i",
          "velocity": 0.7874015748031497
        },
        {
          "duration": 0.5999999999999943,
          "durationTicks": 480,
          "midi": 59,
          "name": "B3",
          "ticks": 172800,
          "time": "172800i",
          "velocity": 0.7874015748031497
        },
        {
          "duration": 0.5999999999999943,
          "durationTicks": 480,
          "midi": 61,
          "name": "C#4",
          "ticks": 173280,
          "time": "173280i",
          "velocity": 0.7874015748031497
        },
        {
          "duration": 0.5999999999999943,
          "durationTicks": 480,
          "midi": 62,
          "name": "D4",
          "ticks": 173760,
          "time": "173760i",
          "velocity": 0.7874015748031497
        },
        {
          "duration": 0.6000000000000227,
          "durationTicks": 480,
          "midi": 66,
          "name": "F#4",
          "ticks": 174240,
          "time": "174240i",
          "velocity": 0.7874015748031497
        },
        {
          "duration": 0.5999999999999943,
          "durationTicks": 480,
          "midi": 64,
          "name": "E4",
          "ticks": 174720,
          "time": "174720i",
          "velocity": 0.7874015748031497
        },
        {
          "duration": 0.5999999999999943,
          "durationTicks": 480,
          "midi": 62,
          "name": "D4",
          "ticks": 175200,
          "time": "175200i",
          "velocity": 0.7874015748031497
        },
        {
          "duration": 0.5999999999999943,
          "durationTicks": 480,
          "midi": 69,
          "name": "A4",
          "ticks": 175680,
          "time": "175680i",
          "velocity": 0.7874015748031497
        },
        {
          "duration": 0.5999999999999943,
          "durationTicks": 480,
          "midi": 67,
          "name": "G4",
          "ticks": 176160,
          "time": "176160i",
          "velocity": 0.7874015748031497
        },
        {
          "duration": 0.6000000000000227,
          "durationTicks": 480,
          "midi": 66,
          "name": "F#4",
          "ticks": 176640,
          "time": "176640i",
          "velocity": 0.7874015748031497
        },
        {
          "duration": 0.5999999999999943,
          "durationTicks": 480,
          "midi": 74,
          "name": "D5",
          "ticks": 177120,
          "time": "177120i",
          "velocity": 0.7874015748031497
        },
        {
          "duration": 0.30000000000001137,
          "durationTicks": 240,
          "midi": 76,
          "name": "E5",
          "ticks": 178080,
          "time": "178080i",
          "velocity": 0.7874015748031497
        },
        {
          "duration": 0.29999999999998295,
          "durationTicks": 240,
          "midi": 78,
          "name": "F#5",
          "ticks": 178320,
          "time": "178320i",
          "velocity": 0.7874015748031497
        },
        {
          "duration": 0.5999999999999943,
          "durationTicks": 480,
          "midi": 79,
          "name": "G5",
          "ticks": 178560,
          "time": "178560i",
          "velocity": 0.7874015748031497
        },
        {
          "duration": 1.200000000000017,
          "durationTicks": 960,
          "midi": 67,
          "name": "G4",
          "ticks": 179040,
          "time": "179040i",
          "velocity": 0.7874015748031497
        },
        {
          "duration": 0.5999999999999943,
          "durationTicks": 480,
          "midi": 57,
          "name": "A3",
          "ticks": 180000,
          "time": "180000i",
          "velocity": 0.7874015748031497
        },
        {
          "duration": 0.5999999999999943,
          "durationTicks": 480,
          "midi": 59,
          "name": "B3",
          "ticks": 180480,
          "time": "180480i",
          "velocity": 0.7874015748031497
        },
        {
          "duration": 0.5999999999999943,
          "durationTicks": 480,
          "midi": 61,
          "name": "C#4",
          "ticks": 180960,
          "time": "180960i",
          "velocity": 0.7874015748031497
        },
        {
          "duration": 0.6000000000000227,
          "durationTicks": 480,
          "midi": 62,
          "name": "D4",
          "ticks": 181440,
          "time": "181440i",
          "velocity": 0.7874015748031497
        },
        {
          "duration": 0.5999999999999943,
          "durationTicks": 480,
          "midi": 66,
          "name": "F#4",
          "ticks": 181920,
          "time": "181920i",
          "velocity": 0.7874015748031497
        },
        {
          "duration": 0.5999999999999943,
          "durationTicks": 480,
          "midi": 64,
          "name": "E4",
          "ticks": 182400,
          "time": "182400i",
          "velocity": 0.7874015748031497
        },
        {
          "duration": 0.5999999999999943,
          "durationTicks": 480,
          "midi": 62,
          "name": "D4",
          "ticks": 182880,
          "time": "182880i",
          "velocity": 0.7874015748031497
        },
        {
          "duration": 0.5999999999999943,
          "durationTicks": 480,
          "midi": 69,
          "name": "A4",
          "ticks": 183360,
          "time": "183360i",
          "velocity": 0.7874015748031497
        },
        {
          "duration": 0.5999999999999943,
          "durationTicks": 480,
          "midi": 67,
          "name": "G4",
          "ticks": 183840,
          "time": "183840i",
          "velocity": 0.7874015748031497
        },
        {
          "duration": 0.6000000000000227,
          "durationTicks": 480,
          "midi": 66,
          "name": "F#4",
          "ticks": 184320,
          "time": "184320i",
          "velocity": 0.7874015748031497
        },
        {
          "duration": 0.5999999999999943,
          "durationTicks": 480,
          "midi": 74,
          "name": "D5",
          "ticks": 184800,
          "time": "184800i",
          "velocity": 0.7874015748031497
        },
        {
          "duration": 2.4000000000000057,
          "durationTicks": 1920,
          "midi": 67,
          "name": "G4",
          "ticks": 185280,
          "time": "185280i",
          "velocity": 0.7874015748031497
        }
      ],
      "endOfTrackTicks": 187200
    },
    {
      "channel": 3,
      "controlChanges": {
        "7": [
          {
            "number": 7,
            "ticks": 0,
            "time": 0,
            "value": 0.7874015748031497
          }
        ],
        "10": [
          {
            "number": 10,
            "ticks": 0,
            "time": 0,
            "value": 0.3858267716535433
          }
        ]
      },
      "pitchBends": [],
      "instrument": {
        "family": "piano",
        "number": 6,
        "name": "harpsichord"
      },
      "name": "Johann Sebastian Bach  (1685-1750)",
      "notes": [
        {
          "duration": 0.6,
          "durationTicks": 480,
          "midi": 55,
          "name": "G3",
          "ticks": 480,
          "time": "480i",
          "velocity": 0.7874015748031497
        },
        {
          "duration": 0.5999999999999999,
          "durationTicks": 480,
          "midi": 54,
          "name": "F#3",
          "ticks": 960,
          "time": "960i",
          "velocity": 0.7874015748031497
        },
        {
          "duration": 0.6000000000000001,
          "durationTicks": 480,
          "midi": 52,
          "name": "E3",
          "ticks": 1440,
          "time": "1440i",
          "velocity": 0.7874015748031497
        },
        {
          "duration": 0.6000000000000001,
          "durationTicks": 480,
          "midi": 50,
          "name": "D3",
          "ticks": 1920,
          "time": "1920i",
          "velocity": 0.7874015748031497
        },
        {
          "duration": 0.5999999999999996,
          "durationTicks": 480,
          "midi": 47,
          "name": "B2",
          "ticks": 2400,
          "time": "2400i",
          "velocity": 0.7874015748031497
        },
        {
          "duration": 0.6000000000000005,
          "durationTicks": 480,
          "midi": 48,
          "name": "C3",
          "ticks": 2880,
          "time": "2880i",
          "velocity": 0.7874015748031497
        },
        {
          "duration": 0.5999999999999996,
          "durationTicks": 480,
          "midi": 50,
          "name": "D3",
          "ticks": 3360,
          "time": "3360i",
          "velocity": 0.7874015748031497
        },
        {
          "duration": 0.5999999999999996,
          "durationTicks": 480,
          "midi": 43,
          "name": "G2",
          "ticks": 3840,
          "time": "3840i",
          "velocity": 0.7874015748031497
        },
        {
          "duration": 0.6000000000000005,
          "durationTicks": 480,
          "midi": 55,
          "name": "G3",
          "ticks": 4320,
          "time": "4320i",
          "velocity": 0.7874015748031497
        },
        {
          "duration": 0.5999999999999996,
          "durationTicks": 480,
          "midi": 54,
          "name": "F#3",
          "ticks": 4800,
          "time": "4800i",
          "velocity": 0.7874015748031497
        },
        {
          "duration": 0.5999999999999996,
          "durationTicks": 480,
          "midi": 52,
          "name": "E3",
          "ticks": 5280,
          "time": "5280i",
          "velocity": 0.7874015748031497
        },
        {
          "duration": 0.6000000000000005,
          "durationTicks": 480,
          "midi": 50,
          "name": "D3",
          "ticks": 5760,
          "time": "5760i",
          "velocity": 0.7874015748031497
        },
        {
          "duration": 0.6000000000000005,
          "durationTicks": 480,
          "midi": 47,
          "name": "B2",
          "ticks": 6240,
          "time": "6240i",
          "velocity": 0.7874015748031497
        },
        {
          "duration": 0.5999999999999996,
          "durationTicks": 480,
          "midi": 48,
          "name": "C3",
          "ticks": 6720,
          "time": "6720i",
          "velocity": 0.7874015748031497
        },
        {
          "duration": 0.5999999999999996,
          "durationTicks": 480,
          "midi": 50,
          "name": "D3",
          "ticks": 7200,
          "time": "7200i",
          "velocity": 0.7874015748031497
        },
        {
          "duration": 1.1999999999999993,
          "durationTicks": 960,
          "midi": 43,
          "name": "G2",
          "ticks": 7680,
          "time": "7680i",
          "velocity": 0.7874015748031497
        },
        {
          "duration": 0.5999999999999996,
          "durationTicks": 480,
          "midi": 50,
          "name": "D3",
          "ticks": 9120,
          "time": "9120i",
          "velocity": 0.7874015748031497
        },
        {
          "duration": 0.5999999999999996,
          "durationTicks": 480,
          "midi": 52,
          "name": "E3",
          "ticks": 9600,
          "time": "9600i",
          "velocity": 0.7874015748031497
        },
        {
          "duration": 0.5999999999999996,
          "durationTicks": 480,
          "midi": 54,
          "name": "F#3",
          "ticks": 10080,
          "time": "10080i",
          "velocity": 0.7874015748031497
        },
        {
          "duration": 0.5999999999999996,
          "durationTicks": 480,
          "midi": 55,
          "name": "G3",
          "ticks": 10560,
          "time": "10560i",
          "velocity": 0.7874015748031497
        },
        {
          "duration": 0.5999999999999996,
          "durationTicks": 480,
          "midi": 59,
          "name": "B3",
          "ticks": 11040,
          "time": "11040i",
          "velocity": 0.7874015748031497
        },
        {
          "duration": 0.6000000000000014,
          "durationTicks": 480,
          "midi": 57,
          "name": "A3",
          "ticks": 11520,
          "time": "11520i",
          "velocity": 0.7874015748031497
        },
        {
          "duration": 0.5999999999999996,
          "durationTicks": 480,
          "midi": 55,
          "name": "G3",
          "ticks": 12000,
          "time": "12000i",
          "velocity": 0.7874015748031497
        },
        {
          "duration": 0.5999999999999996,
          "durationTicks": 480,
          "midi": 62,
          "name": "D4",
          "ticks": 12480,
          "time": "12480i",
          "velocity": 0.7874015748031497
        },
        {
          "duration": 0.6000000000000014,
          "durationTicks": 480,
          "midi": 50,
          "name": "D3",
          "ticks": 12960,
          "time": "12960i",
          "velocity": 0.7874015748031497
        },
        {
          "duration": 0.5999999999999979,
          "durationTicks": 480,
          "midi": 52,
          "name": "E3",
          "ticks": 13440,
          "time": "13440i",
          "velocity": 0.7874015748031497
        },
        {
          "duration": 0.6000000000000014,
          "durationTicks": 480,
          "midi": 54,
          "name": "F#3",
          "ticks": 13920,
          "time": "13920i",
          "velocity": 0.7874015748031497
        },
        {
          "duration": 0.5999999999999979,
          "durationTicks": 480,
          "midi": 55,
          "name": "G3",
          "ticks": 14400,
          "time": "14400i",
          "velocity": 0.7874015748031497
        },
        {
          "duration": 0.6000000000000014,
          "durationTicks": 480,
          "midi": 59,
          "name": "B3",
          "ticks": 14880,
          "time": "14880i",
          "velocity": 0.7874015748031497
        },
        {
          "duration": 0.6000000000000014,
          "durationTicks": 480,
          "midi": 57,
          "name": "A3",
          "ticks": 15360,
          "time": "15360i",
          "velocity": 0.7874015748031497
        },
        {
          "duration": 0.5999999999999979,
          "durationTicks": 480,
          "midi": 55,
          "name": "G3",
          "ticks": 15840,
          "time": "15840i",
          "velocity": 0.7874015748031497
        },
        {
          "duration": 1.1999999999999993,
          "durationTicks": 960,
          "midi": 62,
          "name": "D4",
          "ticks": 16320,
          "time": "16320i",
          "velocity": 0.7874015748031497
        },
        {
          "duration": 0.6000000000000014,
          "durationTicks": 480,
          "midi": 55,
          "name": "G3",
          "ticks": 40800,
          "time": "40800i",
          "velocity": 0.7874015748031497
        },
        {
          "duration": 0.5999999999999943,
          "durationTicks": 480,
          "midi": 54,
          "name": "F#3",
          "ticks": 41280,
          "time": "41280i",
          "velocity": 0.7874015748031497
        },
        {
          "duration": 0.6000000000000014,
          "durationTicks": 480,
          "midi": 52,
          "name": "E3",
          "ticks": 41760,
          "time": "41760i",
          "velocity": 0.7874015748031497
        },
        {
          "duration": 0.6000000000000014,
          "durationTicks": 480,
          "midi": 50,
          "name": "D3",
          "ticks": 42240,
          "time": "42240i",
          "velocity": 0.7874015748031497
        },
        {
          "duration": 0.6000000000000014,
          "durationTicks": 480,
          "midi": 47,
          "name": "B2",
          "ticks": 42720,
          "time": "42720i",
          "velocity": 0.7874015748031497
        },
        {
          "duration": 0.6000000000000014,
          "durationTicks": 480,
          "midi": 48,
          "name": "C3",
          "ticks": 43200,
          "time": "43200i",
          "velocity": 0.7874015748031497
        },
        {
          "duration": 0.5999999999999943,
          "durationTicks": 480,
          "midi": 50,
          "name": "D3",
          "ticks": 43680,
          "time": "43680i",
          "velocity": 0.7874015748031497
        },
        {
          "duration": 0.6000000000000014,
          "durationTicks": 480,
          "midi": 43,
          "name": "G2",
          "ticks": 44160,
          "time": "44160i",
          "velocity": 0.7874015748031497
        },
        {
          "duration": 0.6000000000000014,
          "durationTicks": 480,
          "midi": 55,
          "name": "G3",
          "ticks": 44640,
          "time": "44640i",
          "velocity": 0.7874015748031497
        },
        {
          "duration": 0.6000000000000014,
          "durationTicks": 480,
          "midi": 54,
          "name": "F#3",
          "ticks": 45120,
          "time": "45120i",
          "velocity": 0.7874015748031497
        },
        {
          "duration": 0.5999999999999943,
          "durationTicks": 480,
          "midi": 52,
          "name": "E3",
          "ticks": 45600,
          "time": "45600i",
          "velocity": 0.7874015748031497
        },
        {
          "duration": 0.6000000000000014,
          "durationTicks": 480,
          "midi": 50,
          "name": "D3",
          "ticks": 46080,
          "time": "46080i",
          "velocity": 0.7874015748031497
        },
        {
          "duration": 0.6000000000000014,
          "durationTicks": 480,
          "midi": 47,
          "name": "B2",
          "ticks": 46560,
          "time": "46560i",
          "velocity": 0.7874015748031497
        },
        {
          "duration": 0.6000000000000014,
          "durationTicks": 480,
          "midi": 48,
          "name": "C3",
          "ticks": 47040,
          "time": "47040i",
          "velocity": 0.7874015748031497
        },
        {
          "duration": 0.6000000000000014,
          "durationTicks": 480,
          "midi": 50,
          "name": "D3",
          "ticks": 47520,
          "time": "47520i",
          "velocity": 0.7874015748031497
        },
        {
          "duration": 0.5999999999999943,
          "durationTicks": 480,
          "midi": 43,
          "name": "G2",
          "ticks": 48000,
          "time": "48000i",
          "velocity": 0.7874015748031497
        },
        {
          "duration": 0.6000000000000014,
          "durationTicks": 480,
          "midi": 55,
          "name": "G3",
          "ticks": 48480,
          "time": "48480i",
          "velocity": 0.7874015748031497
        },
        {
          "duration": 0.6000000000000014,
          "durationTicks": 480,
          "midi": 54,
          "name": "F#3",
          "ticks": 48960,
          "time": "48960i",
          "velocity": 0.7874015748031497
        },
        {
          "duration": 0.6000000000000014,
          "durationTicks": 480,
          "midi": 52,
          "name": "E3",
          "ticks": 49440,
          "time": "49440i",
          "velocity": 0.7874015748031497
        },
        {
          "duration": 0.6000000000000014,
          "durationTicks": 480,
          "midi": 50,
          "name": "D3",
          "ticks": 49920,
          "time": "49920i",
          "velocity": 0.7874015748031497
        },
        {
          "duration": 0.5999999999999943,
          "durationTicks": 480,
          "midi": 47,
          "name": "B2",
          "ticks": 50400,
          "time": "50400i",
          "velocity": 0.7874015748031497
        },
        {
          "duration": 0.6000000000000085,
          "durationTicks": 480,
          "midi": 48,
          "name": "C3",
          "ticks": 50880,
          "time": "50880i",
          "velocity": 0.7874015748031497
        },
        {
          "duration": 0.5999999999999943,
          "durationTicks": 480,
          "midi": 50,
          "name": "D3",
          "ticks": 51360,
          "time": "51360i",
          "velocity": 0.7874015748031497
        },
        {
          "duration": 1.2000000000000028,
          "durationTicks": 960,
          "midi": 43,
          "name": "G2",
          "ticks": 51840,
          "time": "51840i",
          "velocity": 0.7874015748031497
        },
        {
          "duration": 0.5999999999999943,
          "durationTicks": 480,
          "midi": 50,
          "name": "D3",
          "ticks": 105120,
          "time": "105120i",
          "velocity": 0.7874015748031497
        },
        {
          "duration": 0.5999999999999943,
          "durationTicks": 480,
          "midi": 52,
          "name": "E3",
          "ticks": 105600,
          "time": "105600i",
          "velocity": 0.7874015748031497
        },
        {
          "duration": 0.5999999999999943,
          "durationTicks": 480,
          "midi": 54,
          "name": "F#3",
          "ticks": 106080,
          "time": "106080i",
          "velocity": 0.7874015748031497
        },
        {
          "duration": 0.5999999999999943,
          "durationTicks": 480,
          "midi": 55,
          "name": "G3",
          "ticks": 106560,
          "time": "106560i",
          "velocity": 0.7874015748031497
        },
        {
          "duration": 0.6000000000000227,
          "durationTicks": 480,
          "midi": 59,
          "name": "B3",
          "ticks": 107040,
          "time": "107040i",
          "velocity": 0.7874015748031497
        },
        {
          "duration": 0.5999999999999943,
          "durationTicks": 480,
          "midi": 57,
          "name": "A3",
          "ticks": 107520,
          "time": "107520i",
          "velocity": 0.7874015748031497
        },
        {
          "duration": 0.5999999999999943,
          "durationTicks": 480,
          "midi": 55,
          "name": "G3",
          "ticks": 108000,
          "time": "108000i",
          "velocity": 0.7874015748031497
        },
        {
          "duration": 0.5999999999999943,
          "durationTicks": 480,
          "midi": 62,
          "name": "D4",
          "ticks": 108480,
          "time": "108480i",
          "velocity": 0.7874015748031497
        },
        {
          "duration": 0.5999999999999943,
          "durationTicks": 480,
          "midi": 50,
          "name": "D3",
          "ticks": 108960,
          "time": "108960i",
          "velocity": 0.7874015748031497
        },
        {
          "duration": 0.6000000000000227,
          "durationTicks": 480,
          "midi": 52,
          "name": "E3",
          "ticks": 109440,
          "time": "109440i",
          "velocity": 0.7874015748031497
        },
        {
          "duration": 0.5999999999999943,
          "durationTicks": 480,
          "midi": 54,
          "name": "F#3",
          "ticks": 109920,
          "time": "109920i",
          "velocity": 0.7874015748031497
        },
        {
          "duration": 0.5999999999999943,
          "durationTicks": 480,
          "midi": 55,
          "name": "G3",
          "ticks": 110400,
          "time": "110400i",
          "velocity": 0.7874015748031497
        },
        {
          "duration": 0.5999999999999943,
          "durationTicks": 480,
          "midi": 59,
          "name": "B3",
          "ticks": 110880,
          "time": "110880i",
          "velocity": 0.7874015748031497
        },
        {
          "duration": 0.5999999999999943,
          "durationTicks": 480,
          "midi": 57,
          "name": "A3",
          "ticks": 111360,
          "time": "111360i",
          "velocity": 0.7874015748031497
        },
        {
          "duration": 0.6000000000000227,
          "durationTicks": 480,
          "midi": 55,
          "name": "G3",
          "ticks": 111840,
          "time": "111840i",
          "velocity": 0.7874015748031497
        },
        {
          "duration": 0.5999999999999943,
          "durationTicks": 480,
          "midi": 62,
          "name": "D4",
          "ticks": 112320,
          "time": "112320i",
          "velocity": 0.7874015748031497
        },
        {
          "duration": 0.5999999999999943,
          "durationTicks": 480,
          "midi": 50,
          "name": "D3",
          "ticks": 112800,
          "time": "112800i",
          "velocity": 0.7874015748031497
        },
        {
          "duration": 0.5999999999999943,
          "durationTicks": 480,
          "midi": 52,
          "name": "E3",
          "ticks": 113280,
          "time": "113280i",
          "velocity": 0.7874015748031497
        },
        {
          "duration": 0.5999999999999943,
          "durationTicks": 480,
          "midi": 54,
          "name": "F#3",
          "ticks": 113760,
          "time": "113760i",
          "velocity": 0.7874015748031497
        },
        {
          "duration": 1.200000000000017,
          "durationTicks": 960,
          "midi": 55,
          "name": "G3",
          "ticks": 114240,
          "time": "114240i",
          "velocity": 0.7874015748031497
        },
        {
          "duration": 0.29999999999998295,
          "durationTicks": 240,
          "midi": 59,
          "name": "B3",
          "ticks": 115920,
          "time": "115920i",
          "velocity": 0.7874015748031497
        },
        {
          "duration": 0.30000000000001137,
          "durationTicks": 240,
          "midi": 61,
          "name": "C#4",
          "ticks": 116160,
          "time": "116160i",
          "velocity": 0.7874015748031497
        },
        {
          "duration": 0.29999999999998295,
          "durationTicks": 240,
          "midi": 63,
          "name": "D#4",
          "ticks": 116400,
          "time": "116400i",
          "velocity": 0.7874015748031497
        },
        {
          "duration": 0.30000000000001137,
          "durationTicks": 240,
          "midi": 64,
          "name": "E4",
          "ticks": 116640,
          "time": "116640i",
          "velocity": 0.7874015748031497
        },
        {
          "duration": 0.15000000000000568,
          "durationTicks": 120,
          "midi": 59,
          "name": "B3",
          "ticks": 116880,
          "time": "116880i",
          "velocity": 0.7874015748031497
        },
        {
          "duration": 0.15000000000000568,
          "durationTicks": 120,
          "midi": 61,
          "name": "C#4",
          "ticks": 117000,
          "time": "117000i",
          "velocity": 0.7874015748031497
        },
        {
          "duration": 0.29999999999998295,
          "durationTicks": 240,
          "midi": 62,
          "name": "D4",
          "ticks": 117120,
          "time": "117120i",
          "velocity": 0.7874015748031497
        },
        {
          "duration": 0.30000000000001137,
          "durationTicks": 240,
          "midi": 57,
          "name": "A3",
          "ticks": 117360,
          "time": "117360i",
          "velocity": 0.7874015748031497
        },
        {
          "duration": 0.15000000000000568,
          "durationTicks": 120,
          "midi": 59,
          "name": "B3",
          "ticks": 117600,
          "time": "117600i",
          "velocity": 0.7874015748031497
        },
        {
          "duration": 0.14999999999997726,
          "durationTicks": 120,
          "midi": 60,
          "name": "C4",
          "ticks": 117720,
          "time": "117720i",
          "velocity": 0.7874015748031497
        },
        {
          "duration": 0.15000000000000568,
          "durationTicks": 120,
          "midi": 59,
          "name": "B3",
          "ticks": 117840,
          "time": "117840i",
          "velocity": 0.7874015748031497
        },
        {
          "duration": 0.15000000000000568,
          "durationTicks": 120,
          "midi": 57,
          "name": "A3",
          "ticks": 117960,
          "time": "117960i",
          "velocity": 0.7874015748031497
        },
        {
          "duration": 0.5999999999999943,
          "durationTicks": 480,
          "midi": 55,
          "name": "G3",
          "ticks": 118080,
          "time": "118080i",
          "velocity": 0.7874015748031497
        },
        {
          "duration": 0.44999999999998863,
          "durationTicks": 360,
          "midi": 50,
          "name": "D3",
          "ticks": 118800,
          "time": "118800i",
          "velocity": 0.7874015748031497
        },
        {
          "duration": 0.30000000000001137,
          "durationTicks": 240,
          "midi": 62,
          "name": "D4",
          "ticks": 119160,
          "time": "119160i",
          "velocity": 0.7874015748031497
        },
        {
          "duration": 0.15000000000000568,
          "durationTicks": 120,
          "midi": 60,
          "name": "C4",
          "ticks": 119400,
          "time": "119400i",
          "velocity": 0.7874015748031497
        },
        {
          "duration": 0.14999999999997726,
          "durationTicks": 120,
          "midi": 59,
          "name": "B3",
          "ticks": 119520,
          "time": "119520i",
          "velocity": 0.7874015748031497
        },
        {
          "duration": 0.15000000000000568,
          "durationTicks": 120,
          "midi": 57,
          "name": "A3",
          "ticks": 119640,
          "time": "119640i",
          "velocity": 0.7874015748031497
        },
        {
          "duration": 0.30000000000001137,
          "durationTicks": 240,
          "midi": 59,
          "name": "B3",
          "ticks": 119760,
          "time": "119760i",
          "velocity": 0.7874015748031497
        },
        {
          "duration": 0.29999999999998295,
          "durationTicks": 240,
          "midi": 61,
          "name": "C#4",
          "ticks": 120000,
          "time": "120000i",
          "velocity": 0.7874015748031497
        },
        {
          "duration": 0.30000000000001137,
          "durationTicks": 240,
          "midi": 63,
          "name": "D#4",
          "ticks": 120240,
          "time": "120240i",
          "velocity": 0.7874015748031497
        },
        {
          "duration": 0.30000000000001137,
          "durationTicks": 240,
          "midi": 64,
          "name": "E4",
          "ticks": 120480,
          "time": "120480i",
          "velocity": 0.7874015748031497
        },
        {
          "duration": 0.14999999999997726,
          "durationTicks": 120,
          "midi": 59,
          "name": "B3",
          "ticks": 120720,
          "time": "120720i",
          "velocity": 0.7874015748031497
        },
        {
          "duration": 0.15000000000000568,
          "durationTicks": 120,
          "midi": 61,
          "name": "C#4",
          "ticks": 120840,
          "time": "120840i",
          "velocity": 0.7874015748031497
        },
        {
          "duration": 0.30000000000001137,
          "durationTicks": 240,
          "midi": 62,
          "name": "D4",
          "ticks": 120960,
          "time": "120960i",
          "velocity": 0.7874015748031497
        },
        {
          "duration": 0.29999999999998295,
          "durationTicks": 240,
          "midi": 57,
          "name": "A3",
          "ticks": 121200,
          "time": "121200i",
          "velocity": 0.7874015748031497
        },
        {
          "duration": 0.15000000000000568,
          "durationTicks": 120,
          "midi": 59,
          "name": "B3",
          "ticks": 121440,
          "time": "121440i",
          "velocity": 0.7874015748031497
        },
        {
          "duration": 0.15000000000000568,
          "durationTicks": 120,
          "midi": 60,
          "name": "C4",
          "ticks": 121560,
          "time": "121560i",
          "velocity": 0.7874015748031497
        },
        {
          "duration": 0.15000000000000568,
          "durationTicks": 120,
          "midi": 59,
          "name": "B3",
          "ticks": 121680,
          "time": "121680i",
          "velocity": 0.7874015748031497
        },
        {
          "duration": 0.15000000000000568,
          "durationTicks": 120,
          "midi": 57,
          "name": "A3",
          "ticks": 121800,
          "time": "121800i",
          "velocity": 0.7874015748031497
        },
        {
          "duration": 0.5999999999999943,
          "durationTicks": 480,
          "midi": 55,
          "name": "G3",
          "ticks": 121920,
          "time": "121920i",
          "velocity": 0.7874015748031497
        },
        {
          "duration": 0.45000000000001705,
          "durationTicks": 360,
          "midi": 50,
          "name": "D3",
          "ticks": 122640,
          "time": "122640i",
          "velocity": 0.7874015748031497
        },
        {
          "duration": 0.29999999999998295,
          "durationTicks": 240,
          "midi": 62,
          "name": "D4",
          "ticks": 123000,
          "time": "123000i",
          "velocity": 0.7874015748031497
        },
        {
          "duration": 0.15000000000000568,
          "durationTicks": 120,
          "midi": 60,
          "name": "C4",
          "ticks": 123240,
          "time": "123240i",
          "velocity": 0.7874015748031497
        },
        {
          "duration": 0.15000000000000568,
          "durationTicks": 120,
          "midi": 59,
          "name": "B3",
          "ticks": 123360,
          "time": "123360i",
          "velocity": 0.7874015748031497
        },
        {
          "duration": 0.15000000000000568,
          "durationTicks": 120,
          "midi": 57,
          "name": "A3",
          "ticks": 123480,
          "time": "123480i",
          "velocity": 0.7874015748031497
        },
        {
          "duration": 0.29999999999998295,
          "durationTicks": 240,
          "midi": 59,
          "name": "B3",
          "ticks": 123600,
          "time": "123600i",
          "velocity": 0.7874015748031497
        },
        {
          "duration": 0.30000000000001137,
          "durationTicks": 240,
          "midi": 61,
          "name": "C#4",
          "ticks": 123840,
          "time": "123840i",
          "velocity": 0.7874015748031497
        },
        {
          "duration": 0.30000000000001137,
          "durationTicks": 240,
          "midi": 63,
          "name": "D#4",
          "ticks": 124080,
          "time": "124080i",
          "velocity": 0.7874015748031497
        },
        {
          "duration": 0.29999999999998295,
          "durationTicks": 240,
          "midi": 64,
          "name": "E4",
          "ticks": 124320,
          "time": "124320i",
          "velocity": 0.7874015748031497
        },
        {
          "duration": 0.15000000000000568,
          "durationTicks": 120,
          "midi": 59,
          "name": "B3",
          "ticks": 124560,
          "time": "124560i",
          "velocity": 0.7874015748031497
        },
        {
          "duration": 0.15000000000000568,
          "durationTicks": 120,
          "midi": 61,
          "name": "C#4",
          "ticks": 124680,
          "time": "124680i",
          "velocity": 0.7874015748031497
        },
        {
          "duration": 0.29999999999998295,
          "durationTicks": 240,
          "midi": 62,
          "name": "D4",
          "ticks": 124800,
          "time": "124800i",
          "velocity": 0.7874015748031497
        },
        {
          "duration": 0.30000000000001137,
          "durationTicks": 240,
          "midi": 57,
          "name": "A3",
          "ticks": 125040,
          "time": "125040i",
          "velocity": 0.7874015748031497
        },
        {
          "duration": 0.15000000000000568,
          "durationTicks": 120,
          "midi": 59,
          "name": "B3",
          "ticks": 125280,
          "time": "125280i",
          "velocity": 0.7874015748031497
        },
        {
          "duration": 0.15000000000000568,
          "durationTicks": 120,
          "midi": 60,
          "name": "C4",
          "ticks": 125400,
          "time": "125400i",
          "velocity": 0.7874015748031497
        },
        {
          "duration": 0.14999999999997726,
          "durationTicks": 120,
          "midi": 59,
          "name": "B3",
          "ticks": 125520,
          "time": "125520i",
          "velocity": 0.7874015748031497
        },
        {
          "duration": 0.15000000000000568,
          "durationTicks": 120,
          "midi": 57,
          "name": "A3",
          "ticks": 125640,
          "time": "125640i",
          "velocity": 0.7874015748031497
        },
        {
          "duration": 0.5999999999999943,
          "durationTicks": 480,
          "midi": 55,
          "name": "G3",
          "ticks": 125760,
          "time": "125760i",
          "velocity": 0.7874015748031497
        },
        {
          "duration": 1.5,
          "durationTicks": 1200,
          "midi": 50,
          "name": "D3",
          "ticks": 126480,
          "time": "126480i",
          "velocity": 0.7874015748031497
        },
        {
          "duration": 0.30000000000001137,
          "durationTicks": 240,
          "midi": 67,
          "name": "G4",
          "ticks": 128880,
          "time": "128880i",
          "velocity": 0.7874015748031497
        },
        {
          "duration": 0.29999999999998295,
          "durationTicks": 240,
          "midi": 66,
          "name": "F#4",
          "ticks": 129120,
          "time": "129120i",
          "velocity": 0.7874015748031497
        },
        {
          "duration": 0.30000000000001137,
          "durationTicks": 240,
          "midi": 64,
          "name": "E4",
          "ticks": 129360,
          "time": "129360i",
          "velocity": 0.7874015748031497
        },
        {
          "duration": 0.29999999999998295,
          "durationTicks": 240,
          "midi": 62,
          "name": "D4",
          "ticks": 129600,
          "time": "129600i",
          "velocity": 0.7874015748031497
        },
        {
          "duration": 0.30000000000001137,
          "durationTicks": 240,
          "midi": 59,
          "name": "B3",
          "ticks": 129840,
          "time": "129840i",
          "velocity": 0.7874015748031497
        },
        {
          "duration": 0.30000000000001137,
          "durationTicks": 240,
          "midi": 61,
          "name": "C#4",
          "ticks": 130080,
          "time": "130080i",
          "velocity": 0.7874015748031497
        },
        {
          "duration": 0.29999999999998295,
          "durationTicks": 240,
          "midi": 62,
          "name": "D4",
          "ticks": 130320,
          "time": "130320i",
          "velocity": 0.7874015748031497
        },
        {
          "duration": 0.30000000000001137,
          "durationTicks": 240,
          "midi": 55,
          "name": "G3",
          "ticks": 130560,
          "time": "130560i",
          "velocity": 0.7874015748031497
        },
        {
          "duration": 0.29999999999998295,
          "durationTicks": 240,
          "midi": 67,
          "name": "G4",
          "ticks": 130800,
          "time": "130800i",
          "velocity": 0.7874015748031497
        },
        {
          "duration": 0.6000000000000227,
          "durationTicks": 480,
          "midi": 61,
          "name": "C#4",
          "ticks": 131040,
          "time": "131040i",
          "velocity": 0.7874015748031497
        },
        {
          "duration": 0.5999999999999943,
          "durationTicks": 480,
          "midi": 62,
          "name": "D4",
          "ticks": 131520,
          "time": "131520i",
          "velocity": 0.7874015748031497
        },
        {
          "duration": 0.29999999999998295,
          "durationTicks": 240,
          "midi": 59,
          "name": "B3",
          "ticks": 132720,
          "time": "132720i",
          "velocity": 0.7874015748031497
        },
        {
          "duration": 0.30000000000001137,
          "durationTicks": 240,
          "midi": 60,
          "name": "C4",
          "ticks": 132960,
          "time": "132960i",
          "velocity": 0.7874015748031497
        },
        {
          "duration": 0.29999999999998295,
          "durationTicks": 240,
          "midi": 62,
          "name": "D4",
          "ticks": 133200,
          "time": "133200i",
          "velocity": 0.7874015748031497
        },
        {
          "duration": 0.30000000000001137,
          "durationTicks": 240,
          "midi": 64,
          "name": "E4",
          "ticks": 133440,
          "time": "133440i",
          "velocity": 0.7874015748031497
        },
        {
          "duration": 0.30000000000001137,
          "durationTicks": 240,
          "midi": 67,
          "name": "G4",
          "ticks": 133680,
          "time": "133680i",
          "velocity": 0.7874015748031497
        },
        {
          "duration": 0.29999999999998295,
          "durationTicks": 240,
          "midi": 66,
          "name": "F#4",
          "ticks": 133920,
          "time": "133920i",
          "velocity": 0.7874015748031497
        },
        {
          "duration": 0.30000000000001137,
          "durationTicks": 240,
          "midi": 64,
          "name": "E4",
          "ticks": 134160,
          "time": "134160i",
          "velocity": 0.7874015748031497
        },
        {
          "duration": 0.9000000000000057,
          "durationTicks": 720,
          "midi": 62,
          "name": "D4",
          "ticks": 134400,
          "time": "134400i",
          "velocity": 0.7874015748031497
        },
        {
          "duration": 0.29999999999998295,
          "durationTicks": 240,
          "midi": 60,
          "name": "C4",
          "ticks": 135120,
          "time": "135120i",
          "velocity": 0.7874015748031497
        },
        {
          "duration": 0.5999999999999943,
          "durationTicks": 480,
          "midi": 59,
          "name": "B3",
          "ticks": 135360,
          "time": "135360i",
          "velocity": 0.7874015748031497
        },
        {
          "duration": 0.30000000000001137,
          "durationTicks": 240,
          "midi": 67,
          "name": "G4",
          "ticks": 136560,
          "time": "136560i",
          "velocity": 0.7874015748031497
        },
        {
          "duration": 0.29999999999998295,
          "durationTicks": 240,
          "midi": 66,
          "name": "F#4",
          "ticks": 136800,
          "time": "136800i",
          "velocity": 0.7874015748031497
        },
        {
          "duration": 0.30000000000001137,
          "durationTicks": 240,
          "midi": 64,
          "name": "E4",
          "ticks": 137040,
          "time": "137040i",
          "velocity": 0.7874015748031497
        },
        {
          "duration": 0.30000000000001137,
          "durationTicks": 240,
          "midi": 62,
          "name": "D4",
          "ticks": 137280,
          "time": "137280i",
          "velocity": 0.7874015748031497
        },
        {
          "duration": 0.29999999999998295,
          "durationTicks": 240,
          "midi": 59,
          "name": "B3",
          "ticks": 137520,
          "time": "137520i",
          "velocity": 0.7874015748031497
        },
        {
          "duration": 0.30000000000001137,
          "durationTicks": 240,
          "midi": 61,
          "name": "C#4",
          "ticks": 137760,
          "time": "137760i",
          "velocity": 0.7874015748031497
        },
        {
          "duration": 0.29999999999998295,
          "durationTicks": 240,
          "midi": 62,
          "name": "D4",
          "ticks": 138000,
          "time": "138000i",
          "velocity": 0.7874015748031497
        },
        {
          "duration": 0.30000000000001137,
          "durationTicks": 240,
          "midi": 55,
          "name": "G3",
          "ticks": 138240,
          "time": "138240i",
          "velocity": 0.7874015748031497
        },
        {
          "duration": 0.30000000000001137,
          "durationTicks": 240,
          "midi": 67,
          "name": "G4",
          "ticks": 138480,
          "time": "138480i",
          "velocity": 0.7874015748031497
        },
        {
          "duration": 0.5999999999999943,
          "durationTicks": 480,
          "midi": 61,
          "name": "C#4",
          "ticks": 138720,
          "time": "138720i",
          "velocity": 0.7874015748031497
        },
        {
          "duration": 0.5999999999999943,
          "durationTicks": 480,
          "midi": 62,
          "name": "D4",
          "ticks": 139200,
          "time": "139200i",
          "velocity": 0.7874015748031497
        },
        {
          "duration": 0.29999999999998295,
          "durationTicks": 240,
          "midi": 59,
          "name": "B3",
          "ticks": 140400,
          "time": "140400i",
          "velocity": 0.7874015748031497
        },
        {
          "duration": 0.30000000000001137,
          "durationTicks": 240,
          "midi": 60,
          "name": "C4",
          "ticks": 140640,
          "time": "140640i",
          "velocity": 0.7874015748031497
        },
        {
          "duration": 0.30000000000001137,
          "durationTicks": 240,
          "midi": 62,
          "name": "D4",
          "ticks": 140880,
          "time": "140880i",
          "velocity": 0.7874015748031497
        },
        {
          "duration": 0.29999999999998295,
          "durationTicks": 240,
          "midi": 64,
          "name": "E4",
          "ticks": 141120,
          "time": "141120i",
          "velocity": 0.7874015748031497
        },
        {
          "duration": 0.30000000000001137,
          "durationTicks": 240,
          "midi": 67,
          "name": "G4",
          "ticks": 141360,
          "time": "141360i",
          "velocity": 0.7874015748031497
        },
        {
          "duration": 0.29999999999998295,
          "durationTicks": 240,
          "midi": 66,
          "name": "F#4",
          "ticks": 141600,
          "time": "141600i",
          "velocity": 0.7874015748031497
        },
        {
          "duration": 0.30000000000001137,
          "durationTicks": 240,
          "midi": 64,
          "name": "E4",
          "ticks": 141840,
          "time": "141840i",
          "velocity": 0.7874015748031497
        },
        {
          "duration": 0.9000000000000057,
          "durationTicks": 720,
          "midi": 62,
          "name": "D4",
          "ticks": 142080,
          "time": "142080i",
          "velocity": 0.7874015748031497
        },
        {
          "duration": 0.29999999999998295,
          "durationTicks": 240,
          "midi": 60,
          "name": "C4",
          "ticks": 142800,
          "time": "142800i",
          "velocity": 0.7874015748031497
        },
        {
          "duration": 0.6000000000000227,
          "durationTicks": 480,
          "midi": 59,
          "name": "B3",
          "ticks": 143040,
          "time": "143040i",
          "velocity": 0.7874015748031497
        },
        {
          "duration": 0.30000000000001137,
          "durationTicks": 240,
          "midi": 67,
          "name": "G4",
          "ticks": 144240,
          "time": "144240i",
          "velocity": 0.7874015748031497
        },
        {
          "duration": 0.30000000000001137,
          "durationTicks": 240,
          "midi": 66,
          "name": "F#4",
          "ticks": 144480,
          "time": "144480i",
          "velocity": 0.7874015748031497
        },
        {
          "duration": 0.29999999999998295,
          "durationTicks": 240,
          "midi": 64,
          "name": "E4",
          "ticks": 144720,
          "time": "144720i",
          "velocity": 0.7874015748031497
        },
        {
          "duration": 0.30000000000001137,
          "durationTicks": 240,
          "midi": 62,
          "name": "D4",
          "ticks": 144960,
          "time": "144960i",
          "velocity": 0.7874015748031497
        },
        {
          "duration": 0.29999999999998295,
          "durationTicks": 240,
          "midi": 59,
          "name": "B3",
          "ticks": 145200,
          "time": "145200i",
          "velocity": 0.7874015748031497
        },
        {
          "duration": 0.30000000000001137,
          "durationTicks": 240,
          "midi": 61,
          "name": "C#4",
          "ticks": 145440,
          "time": "145440i",
          "velocity": 0.7874015748031497
        },
        {
          "duration": 0.30000000000001137,
          "durationTicks": 240,
          "midi": 62,
          "name": "D4",
          "ticks": 145680,
          "time": "145680i",
          "velocity": 0.7874015748031497
        },
        {
          "duration": 0.29999999999998295,
          "durationTicks": 240,
          "midi": 55,
          "name": "G3",
          "ticks": 145920,
          "time": "145920i",
          "velocity": 0.7874015748031497
        },
        {
          "duration": 0.30000000000001137,
          "durationTicks": 240,
          "midi": 67,
          "name": "G4",
          "ticks": 146160,
          "time": "146160i",
          "velocity": 0.7874015748031497
        },
        {
          "duration": 0.5999999999999943,
          "durationTicks": 480,
          "midi": 61,
          "name": "C#4",
          "ticks": 146400,
          "time": "146400i",
          "velocity": 0.7874015748031497
        },
        {
          "duration": 2.4000000000000057,
          "durationTicks": 1920,
          "midi": 62,
          "name": "D4",
          "ticks": 146880,
          "time": "146880i",
          "velocity": 0.7874015748031497
        },
        {
          "duration": 1.1999999999999886,
          "durationTicks": 960,
          "midi": 55,
          "name": "G3",
          "ticks": 148800,
          "time": "148800i",
          "velocity": 0.7874015748031497
        },
        {
          "duration": 0.5999999999999943,
          "durationTicks": 480,
          "midi": 57,
          "name": "A3",
          "ticks": 149760,
          "time": "149760i",
          "velocity": 0.7874015748031497
        },
        {
          "duration": 0.6000000000000227,
          "durationTicks": 480,
          "midi": 60,
          "name": "C4",
          "ticks": 150240,
          "time": "150240i",
          "velocity": 0.7874015748031497
        },
        {
          "duration": 1.1999999999999886,
          "durationTicks": 960,
          "midi": 59,
          "name": "B3",
          "ticks": 150720,
          "time": "150720i",
          "velocity": 0.7874015748031497
        },
        {
          "duration": 1.1999999999999886,
          "durationTicks": 960,
          "midi": 57,
          "name": "A3",
          "ticks": 151680,
          "time": "151680i",
          "velocity": 0.7874015748031497
        },
        {
          "duration": 1.200000000000017,
          "durationTicks": 960,
          "midi": 55,
          "name": "G3",
          "ticks": 152640,
          "time": "152640i",
          "velocity": 0.7874015748031497
        },
        {
          "duration": 0.5999999999999943,
          "durationTicks": 480,
          "midi": 57,
          "name": "A3",
          "ticks": 153600,
          "time": "153600i",
          "velocity": 0.7874015748031497
        },
        {
          "duration": 0.5999999999999943,
          "durationTicks": 480,
          "midi": 60,
          "name": "C4",
          "ticks": 154080,
          "time": "154080i",
          "velocity": 0.7874015748031497
        },
        {
          "duration": 1.200000000000017,
          "durationTicks": 960,
          "midi": 59,
          "name": "B3",
          "ticks": 154560,
          "time": "154560i",
          "velocity": 0.7874015748031497
        },
        {
          "duration": 1.1999999999999886,
          "durationTicks": 960,
          "midi": 57,
          "name": "A3",
          "ticks": 155520,
          "time": "155520i",
          "velocity": 0.7874015748031497
        },
        {
          "duration": 1.1999999999999886,
          "durationTicks": 960,
          "midi": 55,
          "name": "G3",
          "ticks": 156480,
          "time": "156480i",
          "velocity": 0.7874015748031497
        },
        {
          "duration": 0.6000000000000227,
          "durationTicks": 480,
          "midi": 57,
          "name": "A3",
          "ticks": 157440,
          "time": "157440i",
          "velocity": 0.7874015748031497
        },
        {
          "duration": 0.5999999999999943,
          "durationTicks": 480,
          "midi": 60,
          "name": "C4",
          "ticks": 157920,
          "time": "157920i",
          "velocity": 0.7874015748031497
        },
        {
          "duration": 1.1999999999999886,
          "durationTicks": 960,
          "midi": 59,
          "name": "B3",
          "ticks": 158400,
          "time": "158400i",
          "velocity": 0.7874015748031497
        },
        {
          "duration": 1.200000000000017,
          "durationTicks": 960,
          "midi": 57,
          "name": "A3",
          "ticks": 159360,
          "time": "159360i",
          "velocity": 0.7874015748031497
        },
        {
          "duration": 2.3999999999999773,
          "durationTicks": 1920,
          "midi": 55,
          "name": "G3",
          "ticks": 160320,
          "time": "160320i",
          "velocity": 0.7874015748031497
        },
        {
          "duration": 1.1999999999999886,
          "durationTicks": 960,
          "midi": 55,
          "name": "G3",
          "ticks": 163200,
          "time": "163200i",
          "velocity": 0.7874015748031497
        },
        {
          "duration": 1.200000000000017,
          "durationTicks": 960,
          "midi": 54,
          "name": "F#3",
          "ticks": 164160,
          "time": "164160i",
          "velocity": 0.7874015748031497
        },
        {
          "duration": 1.1999999999999886,
          "durationTicks": 960,
          "midi": 52,
          "name": "E3",
          "ticks": 165120,
          "time": "165120i",
          "velocity": 0.7874015748031497
        },
        {
          "duration": 1.1999999999999886,
          "durationTicks": 960,
          "midi": 50,
          "name": "D3",
          "ticks": 166080,
          "time": "166080i",
          "velocity": 0.7874015748031497
        },
        {
          "duration": 1.200000000000017,
          "durationTicks": 960,
          "midi": 47,
          "name": "B2",
          "ticks": 167040,
          "time": "167040i",
          "velocity": 0.7874015748031497
        },
        {
          "duration": 1.1999999999999886,
          "durationTicks": 960,
          "midi": 48,
          "name": "C3",
          "ticks": 168000,
          "time": "168000i",
          "velocity": 0.7874015748031497
        },
        {
          "duration": 1.200000000000017,
          "durationTicks": 960,
          "midi": 50,
          "name": "D3",
          "ticks": 168960,
          "time": "168960i",
          "velocity": 0.7874015748031497
        },
        {
          "duration": 1.1999999999999886,
          "durationTicks": 960,
          "midi": 43,
          "name": "G2",
          "ticks": 169920,
          "time": "169920i",
          "velocity": 0.7874015748031497
        },
        {
          "duration": 1.1999999999999886,
          "durationTicks": 960,
          "midi": 55,
          "name": "G3",
          "ticks": 170880,
          "time": "170880i",
          "velocity": 0.7874015748031497
        },
        {
          "duration": 1.200000000000017,
          "durationTicks": 960,
          "midi": 54,
          "name": "F#3",
          "ticks": 171840,
          "time": "171840i",
          "velocity": 0.7874015748031497
        },
        {
          "duration": 1.1999999999999886,
          "durationTicks": 960,
          "midi": 52,
          "name": "E3",
          "ticks": 172800,
          "time": "172800i",
          "velocity": 0.7874015748031497
        },
        {
          "duration": 1.200000000000017,
          "durationTicks": 960,
          "midi": 50,
          "name": "D3",
          "ticks": 173760,
          "time": "173760i",
          "velocity": 0.7874015748031497
        },
        {
          "duration": 1.1999999999999886,
          "durationTicks": 960,
          "midi": 47,
          "name": "B2",
          "ticks": 174720,
          "time": "174720i",
          "velocity": 0.7874015748031497
        },
        {
          "duration": 1.1999999999999886,
          "durationTicks": 960,
          "midi": 48,
          "name": "C3",
          "ticks": 175680,
          "time": "175680i",
          "velocity": 0.7874015748031497
        },
        {
          "duration": 1.200000000000017,
          "durationTicks": 960,
          "midi": 50,
          "name": "D3",
          "ticks": 176640,
          "time": "176640i",
          "velocity": 0.7874015748031497
        },
        {
          "duration": 1.1999999999999886,
          "durationTicks": 960,
          "midi": 43,
          "name": "G2",
          "ticks": 177600,
          "time": "177600i",
          "velocity": 0.7874015748031497
        },
        {
          "duration": 1.200000000000017,
          "durationTicks": 960,
          "midi": 55,
          "name": "G3",
          "ticks": 178560,
          "time": "178560i",
          "velocity": 0.7874015748031497
        },
        {
          "duration": 1.1999999999999886,
          "durationTicks": 960,
          "midi": 54,
          "name": "F#3",
          "ticks": 179520,
          "time": "179520i",
          "velocity": 0.7874015748031497
        },
        {
          "duration": 1.1999999999999886,
          "durationTicks": 960,
          "midi": 52,
          "name": "E3",
          "ticks": 180480,
          "time": "180480i",
          "velocity": 0.7874015748031497
        },
        {
          "duration": 1.200000000000017,
          "durationTicks": 960,
          "midi": 50,
          "name": "D3",
          "ticks": 181440,
          "time": "181440i",
          "velocity": 0.7874015748031497
        },
        {
          "duration": 1.1999999999999886,
          "durationTicks": 960,
          "midi": 47,
          "name": "B2",
          "ticks": 182400,
          "time": "182400i",
          "velocity": 0.7874015748031497
        },
        {
          "duration": 1.1999999999999886,
          "durationTicks": 960,
          "midi": 48,
          "name": "C3",
          "ticks": 183360,
          "time": "183360i",
          "velocity": 0.7874015748031497
        },
        {
          "duration": 1.200000000000017,
          "durationTicks": 960,
          "midi": 50,
          "name": "D3",
          "ticks": 184320,
          "time": "184320i",
          "velocity": 0.7874015748031497
        },
        {
          "duration": 2.4000000000000057,
          "durationTicks": 1920,
          "midi": 43,
          "name": "G2",
          "ticks": 185280,
          "time": "185280i",
          "velocity": 0.7874015748031497
        }
      ],
      "endOfTrackTicks": 187200
    },
    {
      "channel": 4,
      "controlChanges": {
        "7": [
          {
            "number": 7,
            "ticks": 0,
            "time": 0,
            "value": 0.7874015748031497
          }
        ],
        "10": [
          {
            "number": 10,
            "ticks": 0,
            "time": 0,
            "value": 0.6220472440944882
          }
        ]
      },
      "pitchBends": [],
      "instrument": {
        "family": "piano",
        "number": 6,
        "name": "harpsichord"
      },
      "name": "14 Canons on the First Eight Notes of the Goldberg Ground",
      "notes": [
        {
          "duration": 0.5999999999999943,
          "durationTicks": 480,
          "midi": 55,
          "name": "G3",
          "ticks": 115680,
          "time": "115680i",
          "velocity": 0.7874015748031497
        },
        {
          "duration": 0.5999999999999943,
          "durationTicks": 480,
          "midi": 54,
          "name": "F#3",
          "ticks": 116160,
          "time": "116160i",
          "velocity": 0.7874015748031497
        },
        {
          "duration": 0.6000000000000227,
          "durationTicks": 480,
          "midi": 52,
          "name": "E3",
          "ticks": 116640,
          "time": "116640i",
          "velocity": 0.7874015748031497
        },
        {
          "duration": 0.5999999999999943,
          "durationTicks": 480,
          "midi": 50,
          "name": "D3",
          "ticks": 117120,
          "time": "117120i",
          "velocity": 0.7874015748031497
        },
        {
          "duration": 0.5999999999999943,
          "durationTicks": 480,
          "midi": 47,
          "name": "B2",
          "ticks": 117600,
          "time": "117600i",
          "velocity": 0.7874015748031497
        },
        {
          "duration": 0.5999999999999943,
          "durationTicks": 480,
          "midi": 48,
          "name": "C3",
          "ticks": 118080,
          "time": "118080i",
          "velocity": 0.7874015748031497
        },
        {
          "duration": 0.5999999999999943,
          "durationTicks": 480,
          "midi": 50,
          "name": "D3",
          "ticks": 118560,
          "time": "118560i",
          "velocity": 0.7874015748031497
        },
        {
          "duration": 0.6000000000000227,
          "durationTicks": 480,
          "midi": 43,
          "name": "G2",
          "ticks": 119040,
          "time": "119040i",
          "velocity": 0.7874015748031497
        },
        {
          "duration": 0.5999999999999943,
          "durationTicks": 480,
          "midi": 55,
          "name": "G3",
          "ticks": 119520,
          "time": "119520i",
          "velocity": 0.7874015748031497
        },
        {
          "duration": 0.5999999999999943,
          "durationTicks": 480,
          "midi": 54,
          "name": "F#3",
          "ticks": 120000,
          "time": "120000i",
          "velocity": 0.7874015748031497
        },
        {
          "duration": 0.5999999999999943,
          "durationTicks": 480,
          "midi": 52,
          "name": "E3",
          "ticks": 120480,
          "time": "120480i",
          "velocity": 0.7874015748031497
        },
        {
          "duration": 0.5999999999999943,
          "durationTicks": 480,
          "midi": 50,
          "name": "D3",
          "ticks": 120960,
          "time": "120960i",
          "velocity": 0.7874015748031497
        },
        {
          "duration": 0.6000000000000227,
          "durationTicks": 480,
          "midi": 47,
          "name": "B2",
          "ticks": 121440,
          "time": "121440i",
          "velocity": 0.7874015748031497
        },
        {
          "duration": 0.5999999999999943,
          "durationTicks": 480,
          "midi": 48,
          "name": "C3",
          "ticks": 121920,
          "time": "121920i",
          "velocity": 0.7874015748031497
        },
        {
          "duration": 0.5999999999999943,
          "durationTicks": 480,
          "midi": 50,
          "name": "D3",
          "ticks": 122400,
          "time": "122400i",
          "velocity": 0.7874015748031497
        },
        {
          "duration": 0.5999999999999943,
          "durationTicks": 480,
          "midi": 43,
          "name": "G2",
          "ticks": 122880,
          "time": "122880i",
          "velocity": 0.7874015748031497
        },
        {
          "duration": 0.5999999999999943,
          "durationTicks": 480,
          "midi": 55,
          "name": "G3",
          "ticks": 123360,
          "time": "123360i",
          "velocity": 0.7874015748031497
        },
        {
          "duration": 0.6000000000000227,
          "durationTicks": 480,
          "midi": 54,
          "name": "F#3",
          "ticks": 123840,
          "time": "123840i",
          "velocity": 0.7874015748031497
        },
        {
          "duration": 0.5999999999999943,
          "durationTicks": 480,
          "midi": 52,
          "name": "E3",
          "ticks": 124320,
          "time": "124320i",
          "velocity": 0.7874015748031497
        },
        {
          "duration": 0.5999999999999943,
          "durationTicks": 480,
          "midi": 50,
          "name": "D3",
          "ticks": 124800,
          "time": "124800i",
          "velocity": 0.7874015748031497
        },
        {
          "duration": 0.5999999999999943,
          "durationTicks": 480,
          "midi": 47,
          "name": "B2",
          "ticks": 125280,
          "time": "125280i",
          "velocity": 0.7874015748031497
        },
        {
          "duration": 0.5999999999999943,
          "durationTicks": 480,
          "midi": 48,
          "name": "C3",
          "ticks": 125760,
          "time": "125760i",
          "velocity": 0.7874015748031497
        },
        {
          "duration": 0.6000000000000227,
          "durationTicks": 480,
          "midi": 50,
          "name": "D3",
          "ticks": 126240,
          "time": "126240i",
          "velocity": 0.7874015748031497
        },
        {
          "duration": 1.1999999999999886,
          "durationTicks": 960,
          "midi": 43,
          "name": "G2",
          "ticks": 126720,
          "time": "126720i",
          "velocity": 0.7874015748031497
        },
        {
          "duration": 1.200000000000017,
          "durationTicks": 960,
          "midi": 55,
          "name": "G3",
          "ticks": 128640,
          "time": "128640i",
          "velocity": 0.7874015748031497
        },
        {
          "duration": 1.1999999999999886,
          "durationTicks": 960,
          "midi": 54,
          "name": "F#3",
          "ticks": 129600,
          "time": "129600i",
          "velocity": 0.7874015748031497
        },
        {
          "duration": 1.200000000000017,
          "durationTicks": 960,
          "midi": 52,
          "name": "E3",
          "ticks": 130560,
          "time": "130560i",
          "velocity": 0.7874015748031497
        },
        {
          "duration": 1.1999999999999886,
          "durationTicks": 960,
          "midi": 50,
          "name": "D3",
          "ticks": 131520,
          "time": "131520i",
          "velocity": 0.7874015748031497
        },
        {
          "duration": 1.1999999999999886,
          "durationTicks": 960,
          "midi": 47,
          "name": "B2",
          "ticks": 132480,
          "time": "132480i",
          "velocity": 0.7874015748031497
        },
        {
          "duration": 1.200000000000017,
          "durationTicks": 960,
          "midi": 48,
          "name": "C3",
          "ticks": 133440,
          "time": "133440i",
          "velocity": 0.7874015748031497
        },
        {
          "duration": 1.1999999999999886,
          "durationTicks": 960,
          "midi": 50,
          "name": "D3",
          "ticks": 134400,
          "time": "134400i",
          "velocity": 0.7874015748031497
        },
        {
          "duration": 1.200000000000017,
          "durationTicks": 960,
          "midi": 43,
          "name": "G2",
          "ticks": 135360,
          "time": "135360i",
          "velocity": 0.7874015748031497
        },
        {
          "duration": 1.1999999999999886,
          "durationTicks": 960,
          "midi": 55,
          "name": "G3",
          "ticks": 136320,
          "time": "136320i",
          "velocity": 0.7874015748031497
        },
        {
          "duration": 1.1999999999999886,
          "durationTicks": 960,
          "midi": 54,
          "name": "F#3",
          "ticks": 137280,
          "time": "137280i",
          "velocity": 0.7874015748031497
        },
        {
          "duration": 1.200000000000017,
          "durationTicks": 960,
          "midi": 52,
          "name": "E3",
          "ticks": 138240,
          "time": "138240i",
          "velocity": 0.7874015748031497
        },
        {
          "duration": 1.1999999999999886,
          "durationTicks": 960,
          "midi": 50,
          "name": "D3",
          "ticks": 139200,
          "time": "139200i",
          "velocity": 0.7874015748031497
        },
        {
          "duration": 1.200000000000017,
          "durationTicks": 960,
          "midi": 47,
          "name": "B2",
          "ticks": 140160,
          "time": "140160i",
          "velocity": 0.7874015748031497
        },
        {
          "duration": 1.1999999999999886,
          "durationTicks": 960,
          "midi": 48,
          "name": "C3",
          "ticks": 141120,
          "time": "141120i",
          "velocity": 0.7874015748031497
        },
        {
          "duration": 1.1999999999999886,
          "durationTicks": 960,
          "midi": 50,
          "name": "D3",
          "ticks": 142080,
          "time": "142080i",
          "velocity": 0.7874015748031497
        },
        {
          "duration": 1.200000000000017,
          "durationTicks": 960,
          "midi": 43,
          "name": "G2",
          "ticks": 143040,
          "time": "143040i",
          "velocity": 0.7874015748031497
        },
        {
          "duration": 1.1999999999999886,
          "durationTicks": 960,
          "midi": 55,
          "name": "G3",
          "ticks": 144000,
          "time": "144000i",
          "velocity": 0.7874015748031497
        },
        {
          "duration": 1.200000000000017,
          "durationTicks": 960,
          "midi": 54,
          "name": "F#3",
          "ticks": 144960,
          "time": "144960i",
          "velocity": 0.7874015748031497
        },
        {
          "duration": 1.1999999999999886,
          "durationTicks": 960,
          "midi": 52,
          "name": "E3",
          "ticks": 145920,
          "time": "145920i",
          "velocity": 0.7874015748031497
        },
        {
          "duration": 2.4000000000000057,
          "durationTicks": 1920,
          "midi": 50,
          "name": "D3",
          "ticks": 146880,
          "time": "146880i",
          "velocity": 0.7874015748031497
        },
        {
          "duration": 0.5999999999999943,
          "durationTicks": 480,
          "midi": 50,
          "name": "D3",
          "ticks": 151200,
          "time": "151200i",
          "velocity": 0.7874015748031497
        },
        {
          "duration": 0.5999999999999943,
          "durationTicks": 480,
          "midi": 52,
          "name": "E3",
          "ticks": 151680,
          "time": "151680i",
          "velocity": 0.7874015748031497
        },
        {
          "duration": 0.5999999999999943,
          "durationTicks": 480,
          "midi": 54,
          "name": "F#3",
          "ticks": 152160,
          "time": "152160i",
          "velocity": 0.7874015748031497
        },
        {
          "duration": 0.6000000000000227,
          "durationTicks": 480,
          "midi": 55,
          "name": "G3",
          "ticks": 152640,
          "time": "152640i",
          "velocity": 0.7874015748031497
        },
        {
          "duration": 0.5999999999999943,
          "durationTicks": 480,
          "midi": 59,
          "name": "B3",
          "ticks": 153120,
          "time": "153120i",
          "velocity": 0.7874015748031497
        },
        {
          "duration": 0.5999999999999943,
          "durationTicks": 480,
          "midi": 57,
          "name": "A3",
          "ticks": 153600,
          "time": "153600i",
          "velocity": 0.7874015748031497
        },
        {
          "duration": 0.5999999999999943,
          "durationTicks": 480,
          "midi": 55,
          "name": "G3",
          "ticks": 154080,
          "time": "154080i",
          "velocity": 0.7874015748031497
        },
        {
          "duration": 0.5999999999999943,
          "durationTicks": 480,
          "midi": 62,
          "name": "D4",
          "ticks": 154560,
          "time": "154560i",
          "velocity": 0.7874015748031497
        },
        {
          "duration": 0.6000000000000227,
          "durationTicks": 480,
          "midi": 50,
          "name": "D3",
          "ticks": 155040,
          "time": "155040i",
          "velocity": 0.7874015748031497
        },
        {
          "duration": 0.5999999999999943,
          "durationTicks": 480,
          "midi": 52,
          "name": "E3",
          "ticks": 155520,
          "time": "155520i",
          "velocity": 0.7874015748031497
        },
        {
          "duration": 0.5999999999999943,
          "durationTicks": 480,
          "midi": 54,
          "name": "F#3",
          "ticks": 156000,
          "time": "156000i",
          "velocity": 0.7874015748031497
        },
        {
          "duration": 0.5999999999999943,
          "durationTicks": 480,
          "midi": 55,
          "name": "G3",
          "ticks": 156480,
          "time": "156480i",
          "velocity": 0.7874015748031497
        },
        {
          "duration": 0.5999999999999943,
          "durationTicks": 480,
          "midi": 59,
          "name": "B3",
          "ticks": 156960,
          "time": "156960i",
          "velocity": 0.7874015748031497
        },
        {
          "duration": 0.6000000000000227,
          "durationTicks": 480,
          "midi": 57,
          "name": "A3",
          "ticks": 157440,
          "time": "157440i",
          "velocity": 0.7874015748031497
        },
        {
          "duration": 0.5999999999999943,
          "durationTicks": 480,
          "midi": 55,
          "name": "G3",
          "ticks": 157920,
          "time": "157920i",
          "velocity": 0.7874015748031497
        },
        {
          "duration": 0.5999999999999943,
          "durationTicks": 480,
          "midi": 62,
          "name": "D4",
          "ticks": 158400,
          "time": "158400i",
          "velocity": 0.7874015748031497
        },
        {
          "duration": 0.5999999999999943,
          "durationTicks": 480,
          "midi": 50,
          "name": "D3",
          "ticks": 158880,
          "time": "158880i",
          "velocity": 0.7874015748031497
        },
        {
          "duration": 0.5999999999999943,
          "durationTicks": 480,
          "midi": 52,
          "name": "E3",
          "ticks": 159360,
          "time": "159360i",
          "velocity": 0.7874015748031497
        },
        {
          "duration": 0.6000000000000227,
          "durationTicks": 480,
          "midi": 54,
          "name": "F#3",
          "ticks": 159840,
          "time": "159840i",
          "velocity": 0.7874015748031497
        },
        {
          "duration": 2.3999999999999773,
          "durationTicks": 1920,
          "midi": 55,
          "name": "G3",
          "ticks": 160320,
          "time": "160320i",
          "velocity": 0.7874015748031497
        }
      ],
      "endOfTrackTicks": 162240
    },
    {
      "channel": 5,
      "controlChanges": {
        "7": [
          {
            "number": 7,
            "ticks": 0,
            "time": 0,
            "value": 0.7874015748031497
          }
        ],
        "10": [
          {
            "number": 10,
            "ticks": 0,
            "time": 0,
            "value": 0.5433070866141733
          }
        ]
      },
      "pitchBends": [],
      "instrument": {
        "family": "piano",
        "number": 6,
        "name": "harpsichord"
      },
      "name": "BWV 1087",
      "notes": [
        {
          "duration": 0.5999999999999943,
          "durationTicks": 480,
          "midi": 55,
          "name": "G3",
          "ticks": 149280,
          "time": "149280i",
          "velocity": 0.7874015748031497
        },
        {
          "duration": 0.5999999999999943,
          "durationTicks": 480,
          "midi": 54,
          "name": "F#3",
          "ticks": 149760,
          "time": "149760i",
          "velocity": 0.7874015748031497
        },
        {
          "duration": 0.6000000000000227,
          "durationTicks": 480,
          "midi": 52,
          "name": "E3",
          "ticks": 150240,
          "time": "150240i",
          "velocity": 0.7874015748031497
        },
        {
          "duration": 0.5999999999999943,
          "durationTicks": 480,
          "midi": 50,
          "name": "D3",
          "ticks": 150720,
          "time": "150720i",
          "velocity": 0.7874015748031497
        },
        {
          "duration": 0.5999999999999943,
          "durationTicks": 480,
          "midi": 47,
          "name": "B2",
          "ticks": 151200,
          "time": "151200i",
          "velocity": 0.7874015748031497
        },
        {
          "duration": 0.5999999999999943,
          "durationTicks": 480,
          "midi": 48,
          "name": "C3",
          "ticks": 151680,
          "time": "151680i",
          "velocity": 0.7874015748031497
        },
        {
          "duration": 0.5999999999999943,
          "durationTicks": 480,
          "midi": 50,
          "name": "D3",
          "ticks": 152160,
          "time": "152160i",
          "velocity": 0.7874015748031497
        },
        {
          "duration": 0.6000000000000227,
          "durationTicks": 480,
          "midi": 43,
          "name": "G2",
          "ticks": 152640,
          "time": "152640i",
          "velocity": 0.7874015748031497
        },
        {
          "duration": 0.5999999999999943,
          "durationTicks": 480,
          "midi": 55,
          "name": "G3",
          "ticks": 153120,
          "time": "153120i",
          "velocity": 0.7874015748031497
        },
        {
          "duration": 0.5999999999999943,
          "durationTicks": 480,
          "midi": 54,
          "name": "F#3",
          "ticks": 153600,
          "time": "153600i",
          "velocity": 0.7874015748031497
        },
        {
          "duration": 0.5999999999999943,
          "durationTicks": 480,
          "midi": 52,
          "name": "E3",
          "ticks": 154080,
          "time": "154080i",
          "velocity": 0.7874015748031497
        },
        {
          "duration": 0.5999999999999943,
          "durationTicks": 480,
          "midi": 50,
          "name": "D3",
          "ticks": 154560,
          "time": "154560i",
          "velocity": 0.7874015748031497
        },
        {
          "duration": 0.6000000000000227,
          "durationTicks": 480,
          "midi": 47,
          "name": "B2",
          "ticks": 155040,
          "time": "155040i",
          "velocity": 0.7874015748031497
        },
        {
          "duration": 0.5999999999999943,
          "durationTicks": 480,
          "midi": 48,
          "name": "C3",
          "ticks": 155520,
          "time": "155520i",
          "velocity": 0.7874015748031497
        },
        {
          "duration": 0.5999999999999943,
          "durationTicks": 480,
          "midi": 50,
          "name": "D3",
          "ticks": 156000,
          "time": "156000i",
          "velocity": 0.7874015748031497
        },
        {
          "duration": 0.5999999999999943,
          "durationTicks": 480,
          "midi": 43,
          "name": "G2",
          "ticks": 156480,
          "time": "156480i",
          "velocity": 0.7874015748031497
        },
        {
          "duration": 0.5999999999999943,
          "durationTicks": 480,
          "midi": 55,
          "name": "G3",
          "ticks": 156960,
          "time": "156960i",
          "velocity": 0.7874015748031497
        },
        {
          "duration": 0.6000000000000227,
          "durationTicks": 480,
          "midi": 54,
          "name": "F#3",
          "ticks": 157440,
          "time": "157440i",
          "velocity": 0.7874015748031497
        },
        {
          "duration": 0.5999999999999943,
          "durationTicks": 480,
          "midi": 52,
          "name": "E3",
          "ticks": 157920,
          "time": "157920i",
          "velocity": 0.7874015748031497
        },
        {
          "duration": 0.5999999999999943,
          "durationTicks": 480,
          "midi": 50,
          "name": "D3",
          "ticks": 158400,
          "time": "158400i",
          "velocity": 0.7874015748031497
        },
        {
          "duration": 0.5999999999999943,
          "durationTicks": 480,
          "midi": 47,
          "name": "B2",
          "ticks": 158880,
          "time": "158880i",
          "velocity": 0.7874015748031497
        },
        {
          "duration": 0.5999999999999943,
          "durationTicks": 480,
          "midi": 48,
          "name": "C3",
          "ticks": 159360,
          "time": "159360i",
          "velocity": 0.7874015748031497
        },
        {
          "duration": 0.6000000000000227,
          "durationTicks": 480,
          "midi": 50,
          "name": "D3",
          "ticks": 159840,
          "time": "159840i",
          "velocity": 0.7874015748031497
        },
        {
          "duration": 2.3999999999999773,
          "durationTicks": 1920,
          "midi": 43,
          "name": "G2",
          "ticks": 160320,
          "time": "160320i",
          "velocity": 0.7874015748031497
        }
      ],
      "endOfTrackTicks": 162240
    },
    {
      "channel": 0,
      "controlChanges": {},
      "pitchBends": [],
      "instrument": {
        "family": "piano",
        "number": 0,
        "name": "acoustic grand piano"
      },
      "name": "--------------------------------------",
      "notes": [],
      "endOfTrackTicks": 0
    },
    {
      "channel": 0,
      "controlChanges": {},
      "pitchBends": [],
      "instrument": {
        "family": "piano",
        "number": 0,
        "name": "acoustic grand piano"
      },
      "name": "Sequenced with Cakewalk Pro Audio by",
      "notes": [],
      "endOfTrackTicks": 0
    },
    {
      "channel": 0,
      "controlChanges": {},
      "pitchBends": [],
      "instrument": {
        "family": "piano",
        "number": 0,
        "name": "acoustic grand piano"
      },
      "name": "David J. Grossman - dave@unpronounceable.com",
      "notes": [],
      "endOfTrackTicks": 0
    },
    {
      "channel": 0,
      "controlChanges": {},
      "pitchBends": [],
      "instrument": {
        "family": "piano",
        "number": 0,
        "name": "acoustic grand piano"
      },
      "name": "This and other Bach MIDI files can be found at:",
      "notes": [],
      "endOfTrackTicks": 0
    },
    {
      "channel": 0,
      "controlChanges": {},
      "pitchBends": [],
      "instrument": {
        "family": "piano",
        "number": 0,
        "name": "acoustic grand piano"
      },
      "name": "Dave's J.S. Bach Page",
      "notes": [],
      "endOfTrackTicks": 0
    },
    {
      "channel": 0,
      "controlChanges": {},
      "pitchBends": [],
      "instrument": {
        "family": "piano",
        "number": 0,
        "name": "acoustic grand piano"
      },
      "name": "http://www.unpronounceable.com/bach",
      "notes": [],
      "endOfTrackTicks": 0
    },
    {
      "channel": 0,
      "controlChanges": {},
      "pitchBends": [],
      "instrument": {
        "family": "piano",
        "number": 0,
        "name": "acoustic grand piano"
      },
      "name": "For more info about this work, check out:",
      "notes": [],
      "endOfTrackTicks": 0
    },
    {
      "channel": 0,
      "controlChanges": {},
      "pitchBends": [],
      "instrument": {
        "family": "piano",
        "number": 0,
        "name": "acoustic grand piano"
      },
      "name": "http://jan.ucc.nau.edu/~tas3/bachindex.html",
      "notes": [],
      "endOfTrackTicks": 0
    },
    {
      "channel": 0,
      "controlChanges": {},
      "pitchBends": [],
      "instrument": {
        "family": "piano",
        "number": 0,
        "name": "acoustic grand piano"
      },
      "name": "Original Filename: bwv1087.mid",
      "notes": [],
      "endOfTrackTicks": 0
    },
    {
      "channel": 0,
      "controlChanges": {},
      "pitchBends": [],
      "instrument": {
        "family": "piano",
        "number": 0,
        "name": "acoustic grand piano"
      },
      "name": "Last Modified: October 4, 1997",
      "notes": [],
      "endOfTrackTicks": 0
    }
  ]
}