{
    "header": {
      "keySignatures": [],
      "meta": [],
      "name": "",
      "ppq": 96,
      "tempos": [
        {
          "bpm": 96,
          "ticks": 0
        },
        {
          "bpm": 96,
          "ticks": 0
        },
        {
          "bpm": 96,
          "ticks": 0
        },
        {
          "bpm": 89.9999550000225,
          "ticks": 30240
        },
        {
          "bpm": 82.00003553334874,
          "ticks": 30384
        },
        {
          "bpm": 75,
          "ticks": 30528
        },
        {
          "bpm": 67.00002903334591,
          "ticks": 30672
        },
        {
          "bpm": 45.000011250002814,
          "ticks": 31104
        },
        {
          "bpm": 96,
          "ticks": 31392
        }
      ],
      "timeSignatures": [
        {
          "ticks": 0,
          "timeSignature": [
            4,
            4
          ],
          "measures": 0
        }
      ]
    },
    "tracks": [
      {
        "channel": 0,
        "controlChanges": {},
        "pitchBends": [],
        "instrument": {
          "family": "piano",
          "number": 0,
          "name": "acoustic grand piano"
        },
        "name": "",
        "notes": [],
        "endOfTrackTicks": 31392
      },
      {
        "channel": 0,
        "controlChanges": {
          "6": [
            {
              "number": 6,
              "ticks": 0,
              "time": 0,
              "value": 0.09448818897637795
            },
            {
              "number": 6,
              "ticks": 0,
              "time": 0,
              "value": 0.09448818897637795
            },
            {
              "number": 6,
              "ticks": 0,
              "time": 0,
              "value": 0.09448818897637795
            },
            {
              "number": 6,
              "ticks": 31392,
              "time": 208.202409,
              "value": 0.09448818897637795
            },
            {
              "number": 6,
              "ticks": 31393,
              "time": 208.20891941666665,
              "value": 0.09448818897637795
            }
          ],
          "7": [
            {
              "number": 7,
              "ticks": 0,
              "time": 0,
              "value": 0.7874015748031497
            },
            {
              "number": 7,
              "ticks": 0,
              "time": 0,
              "value": 0.7874015748031497
            },
            {
              "number": 7,
              "ticks": 0,
              "time": 0,
              "value": 0.7874015748031497
            },
            {
              "number": 7,
              "ticks": 0,
              "time": 0,
              "value": 0.7874015748031497
            },
            {
              "number": 7,
              "ticks": 0,
              "time": 0,
              "value": 0.7874015748031497
            },
            {
              "number": 7,
              "ticks": 0,
              "time": 0,
              "value": 0.7874015748031497
            },
            {
              "number": 7,
              "ticks": 31392,
              "time": 208.202409,
              "value": 0.7874015748031497
            },
            {
              "number": 7,
              "ticks": 31392,
              "time": 208.202409,
              "value": 0.7874015748031497
            },
            {
              "number": 7,
              "ticks": 31393,
              "time": 208.20891941666665,
              "value": 0.7874015748031497
            }
          ],
          "10": [
            {
              "number": 10,
              "ticks": 0,
              "time": 0,
              "value": 0.5039370078740157
            },
            {
              "number": 10,
              "ticks": 0,
              "time": 0,
              "value": 0.5039370078740157
            },
            {
              "number": 10,
              "ticks": 0,
              "time": 0,
              "value": 0.5039370078740157
            },
            {
              "number": 10,
              "ticks": 0,
              "time": 0,
              "value": 0.5039370078740157
            },
            {
              "number": 10,
              "ticks": 0,
              "time": 0,
              "value": 0.5039370078740157
            },
            {
              "number": 10,
              "ticks": 0,
              "time": 0,
              "value": 0.5039370078740157
            },
            {
              "number": 10,
              "ticks": 31392,
              "time": 208.202409,
              "value": 0.5039370078740157
            },
            {
              "number": 10,
              "ticks": 31392,
              "time": 208.202409,
              "value": 0.5039370078740157
            },
            {
              "number": 10,
              "ticks": 31393,
              "time": 208.20891941666665,
              "value": 0.5039370078740157
            }
          ],
          "100": [
            {
              "number": 100,
              "ticks": 0,
              "time": 0,
              "value": 0
            },
            {
              "number": 100,
              "ticks": 0,
              "time": 0,
              "value": 0
            },
            {
              "number": 100,
              "ticks": 0,
              "time": 0,
              "value": 0
            },
            {
              "number": 100,
              "ticks": 31392,
              "time": 208.202409,
              "value": 0
            },
            {
              "number": 100,
              "ticks": 31393,
              "time": 208.20891941666665,
              "value": 0
            }
          ],
          "101": [
            {
              "number": 101,
              "ticks": 0,
              "time": 0,
              "value": 0
            },
            {
              "number": 101,
              "ticks": 0,
              "time": 0,
              "value": 0
            },
            {
              "number": 101,
              "ticks": 0,
              "time": 0,
              "value": 0
            },
            {
              "number": 101,
              "ticks": 31392,
              "time": 208.202409,
              "value": 0
            },
            {
              "number": 101,
              "ticks": 31393,
              "time": 208.20891941666665,
              "value": 0
            }
          ]
        },
        "pitchBends": [
          {
            "ticks": 0,
            "time": 0,
            "value": 0
          },
          {
            "ticks": 0,
            "time": 0,
            "value": 0
          },
          {
            "ticks": 0,
            "time": 0,
            "value": 0
          },
          {
            "ticks": 0,
            "time": 0,
            "value": 0
          },
          {
            "ticks": 31392,
            "time": 208.202409,
            "value": 0
          },
          {
            "ticks": 31393,
            "time": 208.20891941666665,
            "value": 0
          }
        ],
        "instrument": {
          "family": "piano",
          "number": 0,
          "name": "acoustic grand piano"
        },
        "name": "Piano\u0000",
        "notes": [
          {
            "duration": 0.14322916666666666,
            "durationTicks": 22,
            "midi": 78,
            "name": "F#5",
            "ticks": 0,
            "time": "0i",
            "velocity": 0.3858267716535433
          },
          {
            "duration": 0.14322916666666669,
            "durationTicks": 22,
            "midi": 80,
            "name": "G#5",
            "ticks": 24,
            "time": "24i",
            "velocity": 0.3858267716535433
          },
          {
            "duration": 0.14322916666666663,
            "durationTicks": 22,
            "midi": 83,
            "name": "B5",
            "ticks": 48,
            "time": "48i",
            "velocity": 0.3858267716535433
          },
          {
            "duration": 0.14322916666666663,
            "durationTicks": 22,
            "midi": 85,
            "name": "C#6",
            "ticks": 72,
            "time": "72i",
            "velocity": 0.3858267716535433
          },
          {
            "duration": 0.14322916666666674,
            "durationTicks": 22,
            "midi": 83,
            "name": "B5",
            "ticks": 96,
            "time": "96i",
            "velocity": 0.3858267716535433
          },
          {
            "duration": 0.14322916666666674,
            "durationTicks": 22,
            "midi": 80,
            "name": "G#5",
            "ticks": 120,
            "time": "120i",
            "velocity": 0.3858267716535433
          },
          {
            "duration": 0.14322916666666674,
            "durationTicks": 22,
            "midi": 78,
            "name": "F#5",
            "ticks": 144,
            "time": "144i",
            "velocity": 0.3858267716535433
          },
          {
            "duration": 0.14322916666666674,
            "durationTicks": 22,
            "midi": 80,
            "name": "G#5",
            "ticks": 168,
            "time": "168i",
            "velocity": 0.3858267716535433
          },
          {
            "duration": 0.14322916666666652,
            "durationTicks": 22,
            "midi": 83,
            "name": "B5",
            "ticks": 192,
            "time": "192i",
            "velocity": 0.3858267716535433
          },
          {
            "duration": 0.14322916666666652,
            "durationTicks": 22,
            "midi": 85,
            "name": "C#6",
            "ticks": 216,
            "time": "216i",
            "velocity": 0.3858267716535433
          },
          {
            "duration": 0.14322916666666652,
            "durationTicks": 22,
            "midi": 83,
            "name": "B5",
            "ticks": 240,
            "time": "240i",
            "velocity": 0.3858267716535433
          },
          {
            "duration": 0.14322916666666652,
            "durationTicks": 22,
            "midi": 80,
            "name": "G#5",
            "ticks": 264,
            "time": "264i",
            "velocity": 0.3858267716535433
          },
          {
            "duration": 0.14322916666666652,
            "durationTicks": 22,
            "midi": 78,
            "name": "F#5",
            "ticks": 288,
            "time": "288i",
            "velocity": 0.3858267716535433
          },
          {
            "duration": 0.14322916666666652,
            "durationTicks": 22,
            "midi": 80,
            "name": "G#5",
            "ticks": 312,
            "time": "312i",
            "velocity": 0.3858267716535433
          },
          {
            "duration": 0.14322916666666652,
            "durationTicks": 22,
            "midi": 83,
            "name": "B5",
            "ticks": 336,
            "time": "336i",
            "velocity": 0.3858267716535433
          },
          {
            "duration": 0.14322916666666652,
            "durationTicks": 22,
            "midi": 85,
            "name": "C#6",
            "ticks": 360,
            "time": "360i",
            "velocity": 0.3858267716535433
          },
          {
            "duration": 0.14322916666666696,
            "durationTicks": 22,
            "midi": 83,
            "name": "B5",
            "ticks": 384,
            "time": "384i",
            "velocity": 0.3858267716535433
          },
          {
            "duration": 0.14322916666666696,
            "durationTicks": 22,
            "midi": 80,
            "name": "G#5",
            "ticks": 408,
            "time": "408i",
            "velocity": 0.3858267716535433
          },
          {
            "duration": 0.14322916666666696,
            "durationTicks": 22,
            "midi": 78,
            "name": "F#5",
            "ticks": 432,
            "time": "432i",
            "velocity": 0.3858267716535433
          },
          {
            "duration": 0.14322916666666696,
            "durationTicks": 22,
            "midi": 80,
            "name": "G#5",
            "ticks": 456,
            "time": "456i",
            "velocity": 0.3858267716535433
          },
          {
            "duration": 0.14322916666666696,
            "durationTicks": 22,
            "midi": 83,
            "name": "B5",
            "ticks": 480,
            "time": "480i",
            "velocity": 0.3858267716535433
          },
          {
            "duration": 0.14322916666666696,
            "durationTicks": 22,
            "midi": 85,
            "name": "C#6",
            "ticks": 504,
            "time": "504i",
            "velocity": 0.3858267716535433
          },
          {
            "duration": 0.14322916666666696,
            "durationTicks": 22,
            "midi": 83,
            "name": "B5",
            "ticks": 528,
            "time": "528i",
            "velocity": 0.3858267716535433
          },
          {
            "duration": 0.14322916666666696,
            "durationTicks": 22,
            "midi": 80,
            "name": "G#5",
            "ticks": 552,
            "time": "552i",
            "velocity": 0.3858267716535433
          },
          {
            "duration": 0.14322916666666696,
            "durationTicks": 22,
            "midi": 76,
            "name": "E5",
            "ticks": 576,
            "time": "576i",
            "velocity": 0.3858267716535433
          },
          {
            "duration": 0.14322916666666696,
            "durationTicks": 22,
            "midi": 80,
            "name": "G#5",
            "ticks": 600,
            "time": "600i",
            "velocity": 0.3858267716535433
          },
          {
            "duration": 0.14322916666666696,
            "durationTicks": 22,
            "midi": 83,
            "name": "B5",
            "ticks": 624,
            "time": "624i",
            "velocity": 0.3858267716535433
          },
          {
            "duration": 0.14322916666666696,
            "durationTicks": 22,
            "midi": 85,
            "name": "C#6",
            "ticks": 648,
            "time": "648i",
            "velocity": 0.3858267716535433
          },
          {
            "duration": 0.14322916666666696,
            "durationTicks": 22,
            "midi": 83,
            "name": "B5",
            "ticks": 672,
            "time": "672i",
            "velocity": 0.3858267716535433
          },
          {
            "duration": 0.14322916666666696,
            "durationTicks": 22,
            "midi": 80,
            "name": "G#5",
            "ticks": 696,
            "time": "696i",
            "velocity": 0.3858267716535433
          },
          {
            "duration": 0.14322916666666696,
            "durationTicks": 22,
            "midi": 76,
            "name": "E5",
            "ticks": 720,
            "time": "720i",
            "velocity": 0.3858267716535433
          },
          {
            "duration": 0.14322916666666696,
            "durationTicks": 22,
            "midi": 80,
            "name": "G#5",
            "ticks": 744,
            "time": "744i",
            "velocity": 0.3858267716535433
          },
          {
            "duration": 0.14322916666666607,
            "durationTicks": 22,
            "midi": 83,
            "name": "B5",
            "ticks": 768,
            "time": "768i",
            "velocity": 0.3858267716535433
          },
          {
            "duration": 0.14322916666666607,
            "durationTicks": 22,
            "midi": 85,
            "name": "C#6",
            "ticks": 792,
            "time": "792i",
            "velocity": 0.3858267716535433
          },
          {
            "duration": 0.14322916666666607,
            "durationTicks": 22,
            "midi": 83,
            "name": "B5",
            "ticks": 816,
            "time": "816i",
            "velocity": 0.3858267716535433
          },
          {
            "duration": 0.14322916666666607,
            "durationTicks": 22,
            "midi": 80,
            "name": "G#5",
            "ticks": 840,
            "time": "840i",
            "velocity": 0.3858267716535433
          },
          {
            "duration": 0.14322916666666607,
            "durationTicks": 22,
            "midi": 76,
            "name": "E5",
            "ticks": 864,
            "time": "864i",
            "velocity": 0.3858267716535433
          },
          {
            "duration": 0.14322916666666607,
            "durationTicks": 22,
            "midi": 80,
            "name": "G#5",
            "ticks": 888,
            "time": "888i",
            "velocity": 0.3858267716535433
          },
          {
            "duration": 0.14322916666666607,
            "durationTicks": 22,
            "midi": 83,
            "name": "B5",
            "ticks": 912,
            "time": "912i",
            "velocity": 0.3858267716535433
          },
          {
            "duration": 0.14322916666666607,
            "durationTicks": 22,
            "midi": 85,
            "name": "C#6",
            "ticks": 936,
            "time": "936i",
            "velocity": 0.3858267716535433
          },
          {
            "duration": 0.14322916666666607,
            "durationTicks": 22,
            "midi": 83,
            "name": "B5",
            "ticks": 960,
            "time": "960i",
            "velocity": 0.3858267716535433
          },
          {
            "duration": 0.14322916666666607,
            "durationTicks": 22,
            "midi": 80,
            "name": "G#5",
            "ticks": 984,
            "time": "984i",
            "velocity": 0.3858267716535433
          },
          {
            "duration": 0.14322916666666607,
            "durationTicks": 22,
            "midi": 76,
            "name": "E5",
            "ticks": 1008,
            "time": "1008i",
            "velocity": 0.3858267716535433
          },
          {
            "duration": 0.14322916666666607,
            "durationTicks": 22,
            "midi": 80,
            "name": "G#5",
            "ticks": 1032,
            "time": "1032i",
            "velocity": 0.3858267716535433
          },
          {
            "duration": 0.14322916666666607,
            "durationTicks": 22,
            "midi": 83,
            "name": "B5",
            "ticks": 1056,
            "time": "1056i",
            "velocity": 0.3858267716535433
          },
          {
            "duration": 0.14322916666666607,
            "durationTicks": 22,
            "midi": 85,
            "name": "C#6",
            "ticks": 1080,
            "time": "1080i",
            "velocity": 0.3858267716535433
          },
          {
            "duration": 0.14322916666666607,
            "durationTicks": 22,
            "midi": 83,
            "name": "B5",
            "ticks": 1104,
            "time": "1104i",
            "velocity": 0.3858267716535433
          },
          {
            "duration": 0.14322916666666607,
            "durationTicks": 22,
            "midi": 80,
            "name": "G#5",
            "ticks": 1128,
            "time": "1128i",
            "velocity": 0.3858267716535433
          },
          {
            "duration": 0.14322916666666607,
            "durationTicks": 22,
            "midi": 76,
            "name": "E5",
            "ticks": 1152,
            "time": "1152i",
            "velocity": 0.3858267716535433
          },
          {
            "duration": 0.14322916666666607,
            "durationTicks": 22,
            "midi": 78,
            "name": "F#5",
            "ticks": 1176,
            "time": "1176i",
            "velocity": 0.3858267716535433
          },
          {
            "duration": 0.14322916666666607,
            "durationTicks": 22,
            "midi": 81,
            "name": "A5",
            "ticks": 1200,
            "time": "1200i",
            "velocity": 0.3858267716535433
          },
          {
            "duration": 0.14322916666666607,
            "durationTicks": 22,
            "midi": 83,
            "name": "B5",
            "ticks": 1224,
            "time": "1224i",
            "velocity": 0.3858267716535433
          },
          {
            "duration": 0.14322916666666607,
            "durationTicks": 22,
            "midi": 81,
            "name": "A5",
            "ticks": 1248,
            "time": "1248i",
            "velocity": 0.3858267716535433
          },
          {
            "duration": 0.14322916666666607,
            "durationTicks": 22,
            "midi": 78,
            "name": "F#5",
            "ticks": 1272,
            "time": "1272i",
            "velocity": 0.3858267716535433
          },
          {
            "duration": 0.14322916666666607,
            "durationTicks": 22,
            "midi": 76,
            "name": "E5",
            "ticks": 1296,
            "time": "1296i",
            "velocity": 0.3858267716535433
          },
          {
            "duration": 0.14322916666666607,
            "durationTicks": 22,
            "midi": 78,
            "name": "F#5",
            "ticks": 1320,
            "time": "1320i",
            "velocity": 0.3858267716535433
          },
          {
            "duration": 0.14322916666666607,
            "durationTicks": 22,
            "midi": 81,
            "name": "A5",
            "ticks": 1344,
            "time": "1344i",
            "velocity": 0.3858267716535433
          },
          {
            "duration": 0.14322916666666607,
            "durationTicks": 22,
            "midi": 83,
            "name": "B5",
            "ticks": 1368,
            "time": "1368i",
            "velocity": 0.3858267716535433
          },
          {
            "duration": 0.14322916666666607,
            "durationTicks": 22,
            "midi": 81,
            "name": "A5",
            "ticks": 1392,
            "time": "1392i",
            "velocity": 0.3858267716535433
          },
          {
            "duration": 0.14322916666666607,
            "durationTicks": 22,
            "midi": 78,
            "name": "F#5",
            "ticks": 1416,
            "time": "1416i",
            "velocity": 0.3858267716535433
          },
          {
            "duration": 0.14322916666666607,
            "durationTicks": 22,
            "midi": 76,
            "name": "E5",
            "ticks": 1440,
            "time": "1440i",
            "velocity": 0.3858267716535433
          },
          {
            "duration": 0.14322916666666607,
            "durationTicks": 22,
            "midi": 78,
            "name": "F#5",
            "ticks": 1464,
            "time": "1464i",
            "velocity": 0.3858267716535433
          },
          {
            "duration": 0.14322916666666607,
            "durationTicks": 22,
            "midi": 81,
            "name": "A5",
            "ticks": 1488,
            "time": "1488i",
            "velocity": 0.3858267716535433
          },
          {
            "duration": 0.14322916666666607,
            "durationTicks": 22,
            "midi": 83,
            "name": "B5",
            "ticks": 1512,
            "time": "1512i",
            "velocity": 0.3858267716535433
          },
          {
            "duration": 0.14322916666666785,
            "durationTicks": 22,
            "midi": 81,
            "name": "A5",
            "ticks": 1536,
            "time": "1536i",
            "velocity": 0.3858267716535433
          },
          {
            "duration": 0.14322916666666785,
            "durationTicks": 22,
            "midi": 78,
            "name": "F#5",
            "ticks": 1560,
            "time": "1560i",
            "velocity": 0.3858267716535433
          },
          {
            "duration": 0.14322916666666785,
            "durationTicks": 22,
            "midi": 76,
            "name": "E5",
            "ticks": 1584,
            "time": "1584i",
            "velocity": 0.3858267716535433
          },
          {
            "duration": 0.14322916666666785,
            "durationTicks": 22,
            "midi": 78,
            "name": "F#5",
            "ticks": 1608,
            "time": "1608i",
            "velocity": 0.3858267716535433
          },
          {
            "duration": 0.14322916666666785,
            "durationTicks": 22,
            "midi": 81,
            "name": "A5",
            "ticks": 1632,
            "time": "1632i",
            "velocity": 0.3858267716535433
          },
          {
            "duration": 0.14322916666666785,
            "durationTicks": 22,
            "midi": 83,
            "name": "B5",
            "ticks": 1656,
            "time": "1656i",
            "velocity": 0.3858267716535433
          },
          {
            "duration": 0.14322916666666785,
            "durationTicks": 22,
            "midi": 81,
            "name": "A5",
            "ticks": 1680,
            "time": "1680i",
            "velocity": 0.3858267716535433
          },
          {
            "duration": 0.14322916666666785,
            "durationTicks": 22,
            "midi": 78,
            "name": "F#5",
            "ticks": 1704,
            "time": "1704i",
            "velocity": 0.3858267716535433
          },
          {
            "duration": 0.14322916666666785,
            "durationTicks": 22,
            "midi": 75,
            "name": "D#5",
            "ticks": 1728,
            "time": "1728i",
            "velocity": 0.3858267716535433
          },
          {
            "duration": 0.14322916666666785,
            "durationTicks": 22,
            "midi": 76,
            "name": "E5",
            "ticks": 1752,
            "time": "1752i",
            "velocity": 0.3858267716535433
          },
          {
            "duration": 0.14322916666666785,
            "durationTicks": 22,
            "midi": 78,
            "name": "F#5",
            "ticks": 1776,
            "time": "1776i",
            "velocity": 0.3858267716535433
          },
          {
            "duration": 0.14322916666666785,
            "durationTicks": 22,
            "midi": 80,
            "name": "G#5",
            "ticks": 1800,
            "time": "1800i",
            "velocity": 0.3858267716535433
          },
          {
            "duration": 0.14322916666666785,
            "durationTicks": 22,
            "midi": 78,
            "name": "F#5",
            "ticks": 1824,
            "time": "1824i",
            "velocity": 0.3858267716535433
          },
          {
            "duration": 0.14322916666666785,
            "durationTicks": 22,
            "midi": 76,
            "name": "E5",
            "ticks": 1848,
            "time": "1848i",
            "velocity": 0.3858267716535433
          },
          {
            "duration": 0.14322916666666785,
            "durationTicks": 22,
            "midi": 75,
            "name": "D#5",
            "ticks": 1872,
            "time": "1872i",
            "velocity": 0.3858267716535433
          },
          {
            "duration": 0.14322916666666785,
            "durationTicks": 22,
            "midi": 76,
            "name": "E5",
            "ticks": 1896,
            "time": "1896i",
            "velocity": 0.3858267716535433
          },
          {
            "duration": 0.14322916666666785,
            "durationTicks": 22,
            "midi": 78,
            "name": "F#5",
            "ticks": 1920,
            "time": "1920i",
            "velocity": 0.3858267716535433
          },
          {
            "duration": 0.14322916666666785,
            "durationTicks": 22,
            "midi": 80,
            "name": "G#5",
            "ticks": 1944,
            "time": "1944i",
            "velocity": 0.3858267716535433
          },
          {
            "duration": 0.14322916666666785,
            "durationTicks": 22,
            "midi": 78,
            "name": "F#5",
            "ticks": 1968,
            "time": "1968i",
            "velocity": 0.3858267716535433
          },
          {
            "duration": 0.14322916666666785,
            "durationTicks": 22,
            "midi": 76,
            "name": "E5",
            "ticks": 1992,
            "time": "1992i",
            "velocity": 0.3858267716535433
          },
          {
            "duration": 0.14322916666666785,
            "durationTicks": 22,
            "midi": 75,
            "name": "D#5",
            "ticks": 2016,
            "time": "2016i",
            "velocity": 0.3858267716535433
          },
          {
            "duration": 0.14322916666666785,
            "durationTicks": 22,
            "midi": 76,
            "name": "E5",
            "ticks": 2040,
            "time": "2040i",
            "velocity": 0.3937007874015748
          },
          {
            "duration": 0.14322916666666785,
            "durationTicks": 22,
            "midi": 78,
            "name": "F#5",
            "ticks": 2064,
            "time": "2064i",
            "velocity": 0.4015748031496063
          },
          {
            "duration": 0.14322916666666785,
            "durationTicks": 22,
            "midi": 80,
            "name": "G#5",
            "ticks": 2088,
            "time": "2088i",
            "velocity": 0.4094488188976378
          },
          {
            "duration": 0.14322916666666785,
            "durationTicks": 22,
            "midi": 78,
            "name": "F#5",
            "ticks": 2112,
            "time": "2112i",
            "velocity": 0.4251968503937008
          },
          {
            "duration": 0.14322916666666785,
            "durationTicks": 22,
            "midi": 76,
            "name": "E5",
            "ticks": 2136,
            "time": "2136i",
            "velocity": 0.4330708661417323
          },
          {
            "duration": 0.14322916666666785,
            "durationTicks": 22,
            "midi": 75,
            "name": "D#5",
            "ticks": 2160,
            "time": "2160i",
            "velocity": 0.4409448818897638
          },
          {
            "duration": 0.14322916666666785,
            "durationTicks": 22,
            "midi": 76,
            "name": "E5",
            "ticks": 2184,
            "time": "2184i",
            "velocity": 0.44881889763779526
          },
          {
            "duration": 0.14322916666666785,
            "durationTicks": 22,
            "midi": 78,
            "name": "F#5",
            "ticks": 2208,
            "time": "2208i",
            "velocity": 0.4645669291338583
          },
          {
            "duration": 0.14322916666666785,
            "durationTicks": 22,
            "midi": 80,
            "name": "G#5",
            "ticks": 2232,
            "time": "2232i",
            "velocity": 0.47244094488188976
          },
          {
            "duration": 0.14322916666666785,
            "durationTicks": 22,
            "midi": 78,
            "name": "F#5",
            "ticks": 2256,
            "time": "2256i",
            "velocity": 0.48031496062992124
          },
          {
            "duration": 0.14322916666666785,
            "durationTicks": 22,
            "midi": 76,
            "name": "E5",
            "ticks": 2280,
            "time": "2280i",
            "velocity": 0.4881889763779528
          },
          {
            "duration": 0.14322916666666785,
            "durationTicks": 22,
            "midi": 68,
            "name": "G#4",
            "ticks": 2304,
            "time": "2304i",
            "velocity": 0.5039370078740157
          },
          {
            "duration": 0.14322916666666785,
            "durationTicks": 22,
            "midi": 68,
            "name": "G#4",
            "ticks": 2328,
            "time": "2328i",
            "velocity": 0.5039370078740157
          },
          {
            "duration": 0.14322916666666785,
            "durationTicks": 22,
            "midi": 68,
            "name": "G#4",
            "ticks": 2352,
            "time": "2352i",
            "velocity": 0.5039370078740157
          },
          {
            "duration": 0.14322916666666785,
            "durationTicks": 22,
            "midi": 68,
            "name": "G#4",
            "ticks": 2376,
            "time": "2376i",
            "velocity": 0.5039370078740157
          },
          {
            "duration": 0.14322916666666785,
            "durationTicks": 22,
            "midi": 68,
            "name": "G#4",
            "ticks": 2400,
            "time": "2400i",
            "velocity": 0.5039370078740157
          },
          {
            "duration": 0.14322916666666785,
            "durationTicks": 22,
            "midi": 66,
            "name": "F#4",
            "ticks": 2424,
            "time": "2424i",
            "velocity": 0.5039370078740157
          },
          {
            "duration": 0.14973958333333215,
            "durationTicks": 23,
            "midi": 92,
            "name": "G#6",
            "ticks": 2448,
            "time": "2448i",
            "velocity": 0.7559055118110236
          },
          {
            "duration": 0.14322916666666785,
            "durationTicks": 22,
            "midi": 68,
            "name": "G#4",
            "ticks": 2592,
            "time": "2592i",
            "velocity": 0.5039370078740157
          },
          {
            "duration": 0.14322916666666785,
            "durationTicks": 22,
            "midi": 68,
            "name": "G#4",
            "ticks": 2616,
            "time": "2616i",
            "velocity": 0.5039370078740157
          },
          {
            "duration": 0.14322916666666785,
            "durationTicks": 22,
            "midi": 68,
            "name": "G#4",
            "ticks": 2640,
            "time": "2640i",
            "velocity": 0.5039370078740157
          },
          {
            "duration": 0.14322916666666785,
            "durationTicks": 22,
            "midi": 68,
            "name": "G#4",
            "ticks": 2664,
            "time": "2664i",
            "velocity": 0.5039370078740157
          },
          {
            "duration": 0.29296875,
            "durationTicks": 45,
            "midi": 68,
            "name": "G#4",
            "ticks": 2688,
            "time": "2688i",
            "velocity": 0.5039370078740157
          },
          {
            "duration": 0.14322916666666785,
            "durationTicks": 22,
            "midi": 68,
            "name": "G#4",
            "ticks": 2736,
            "time": "2736i",
            "velocity": 0.5039370078740157
          },
          {
            "duration": 0.14322916666666785,
            "durationTicks": 22,
            "midi": 68,
            "name": "G#4",
            "ticks": 2760,
            "time": "2760i",
            "velocity": 0.5039370078740157
          },
          {
            "duration": 0.14322916666666785,
            "durationTicks": 22,
            "midi": 68,
            "name": "G#4",
            "ticks": 2784,
            "time": "2784i",
            "velocity": 0.5039370078740157
          },
          {
            "duration": 0.14322916666666785,
            "durationTicks": 22,
            "midi": 68,
            "name": "G#4",
            "ticks": 2808,
            "time": "2808i",
            "velocity": 0.5039370078740157
          },
          {
            "duration": 0.29296875,
            "durationTicks": 45,
            "midi": 68,
            "name": "G#4",
            "ticks": 2832,
            "time": "2832i",
            "velocity": 0.5039370078740157
          },
          {
            "duration": 0.14322916666666785,
            "durationTicks": 22,
            "midi": 68,
            "name": "G#4",
            "ticks": 2880,
            "time": "2880i",
            "velocity": 0.5039370078740157
          },
          {
            "duration": 0.14322916666666785,
            "durationTicks": 22,
            "midi": 68,
            "name": "G#4",
            "ticks": 2904,
            "time": "2904i",
            "velocity": 0.5039370078740157
          },
          {
            "duration": 0.14322916666666785,
            "durationTicks": 22,
            "midi": 68,
            "name": "G#4",
            "ticks": 2928,
            "time": "2928i",
            "velocity": 0.5039370078740157
          },
          {
            "duration": 0.14322916666666785,
            "durationTicks": 22,
            "midi": 68,
            "name": "G#4",
            "ticks": 2952,
            "time": "2952i",
            "velocity": 0.5039370078740157
          },
          {
            "duration": 0.14322916666666785,
            "durationTicks": 22,
            "midi": 68,
            "name": "G#4",
            "ticks": 2976,
            "time": "2976i",
            "velocity": 0.5039370078740157
          },
          {
            "duration": 0.14322916666666785,
            "durationTicks": 22,
            "midi": 66,
            "name": "F#4",
            "ticks": 3000,
            "time": "3000i",
            "velocity": 0.5039370078740157
          },
          {
            "duration": 0.14973958333333215,
            "durationTicks": 23,
            "midi": 92,
            "name": "G#6",
            "ticks": 3024,
            "time": "3024i",
            "velocity": 0.7559055118110236
          },
          {
            "duration": 0.1432291666666643,
            "durationTicks": 22,
            "midi": 68,
            "name": "G#4",
            "ticks": 3168,
            "time": "3168i",
            "velocity": 0.5039370078740157
          },
          {
            "duration": 0.1432291666666643,
            "durationTicks": 22,
            "midi": 68,
            "name": "G#4",
            "ticks": 3192,
            "time": "3192i",
            "velocity": 0.5039370078740157
          },
          {
            "duration": 0.1432291666666643,
            "durationTicks": 22,
            "midi": 68,
            "name": "G#4",
            "ticks": 3216,
            "time": "3216i",
            "velocity": 0.5039370078740157
          },
          {
            "duration": 0.1432291666666643,
            "durationTicks": 22,
            "midi": 68,
            "name": "G#4",
            "ticks": 3240,
            "time": "3240i",
            "velocity": 0.5039370078740157
          },
          {
            "duration": 0.29296875,
            "durationTicks": 45,
            "midi": 68,
            "name": "G#4",
            "ticks": 3264,
            "time": "3264i",
            "velocity": 0.5039370078740157
          },
          {
            "duration": 0.1432291666666643,
            "durationTicks": 22,
            "midi": 68,
            "name": "G#4",
            "ticks": 3312,
            "time": "3312i",
            "velocity": 0.5039370078740157
          },
          {
            "duration": 0.1432291666666643,
            "durationTicks": 22,
            "midi": 68,
            "name": "G#4",
            "ticks": 3336,
            "time": "3336i",
            "velocity": 0.5039370078740157
          },
          {
            "duration": 0.1432291666666643,
            "durationTicks": 22,
            "midi": 68,
            "name": "G#4",
            "ticks": 3360,
            "time": "3360i",
            "velocity": 0.5039370078740157
          },
          {
            "duration": 0.1432291666666643,
            "durationTicks": 22,
            "midi": 68,
            "name": "G#4",
            "ticks": 3384,
            "time": "3384i",
            "velocity": 0.5039370078740157
          },
          {
            "duration": 0.29296875,
            "durationTicks": 45,
            "midi": 68,
            "name": "G#4",
            "ticks": 3408,
            "time": "3408i",
            "velocity": 0.5039370078740157
          },
          {
            "duration": 0.1432291666666643,
            "durationTicks": 22,
            "midi": 68,
            "name": "G#4",
            "ticks": 3456,
            "time": "3456i",
            "velocity": 0.5039370078740157
          },
          {
            "duration": 0.1432291666666643,
            "durationTicks": 22,
            "midi": 68,
            "name": "G#4",
            "ticks": 3480,
            "time": "3480i",
            "velocity": 0.5039370078740157
          },
          {
            "duration": 0.1432291666666643,
            "durationTicks": 22,
            "midi": 68,
            "name": "G#4",
            "ticks": 3504,
            "time": "3504i",
            "velocity": 0.5039370078740157
          },
          {
            "duration": 0.1432291666666643,
            "durationTicks": 22,
            "midi": 68,
            "name": "G#4",
            "ticks": 3528,
            "time": "3528i",
            "velocity": 0.5039370078740157
          },
          {
            "duration": 0.1432291666666643,
            "durationTicks": 22,
            "midi": 68,
            "name": "G#4",
            "ticks": 3552,
            "time": "3552i",
            "velocity": 0.5039370078740157
          },
          {
            "duration": 0.1432291666666643,
            "durationTicks": 22,
            "midi": 66,
            "name": "F#4",
            "ticks": 3576,
            "time": "3576i",
            "velocity": 0.5039370078740157
          },
          {
            "duration": 0.1497395833333357,
            "durationTicks": 23,
            "midi": 90,
            "name": "F#6",
            "ticks": 3600,
            "time": "3600i",
            "velocity": 0.7559055118110236
          },
          {
            "duration": 0.1432291666666643,
            "durationTicks": 22,
            "midi": 68,
            "name": "G#4",
            "ticks": 3744,
            "time": "3744i",
            "velocity": 0.5039370078740157
          },
          {
            "duration": 0.1432291666666643,
            "durationTicks": 22,
            "midi": 68,
            "name": "G#4",
            "ticks": 3768,
            "time": "3768i",
            "velocity": 0.5039370078740157
          },
          {
            "duration": 0.1432291666666643,
            "durationTicks": 22,
            "midi": 68,
            "name": "G#4",
            "ticks": 3792,
            "time": "3792i",
            "velocity": 0.5039370078740157
          },
          {
            "duration": 0.1432291666666643,
            "durationTicks": 22,
            "midi": 68,
            "name": "G#4",
            "ticks": 3816,
            "time": "3816i",
            "velocity": 0.5039370078740157
          },
          {
            "duration": 0.1432291666666643,
            "durationTicks": 22,
            "midi": 68,
            "name": "G#4",
            "ticks": 3840,
            "time": "3840i",
            "velocity": 0.5039370078740157
          },
          {
            "duration": 0.1432291666666643,
            "durationTicks": 22,
            "midi": 66,
            "name": "F#4",
            "ticks": 3864,
            "time": "3864i",
            "velocity": 0.5039370078740157
          },
          {
            "duration": 0.1497395833333357,
            "durationTicks": 23,
            "midi": 90,
            "name": "F#6",
            "ticks": 3888,
            "time": "3888i",
            "velocity": 0.7559055118110236
          },
          {
            "duration": 0.1432291666666643,
            "durationTicks": 22,
            "midi": 68,
            "name": "G#4",
            "ticks": 4032,
            "time": "4032i",
            "velocity": 0.5039370078740157
          },
          {
            "duration": 0.1432291666666643,
            "durationTicks": 22,
            "midi": 68,
            "name": "G#4",
            "ticks": 4056,
            "time": "4056i",
            "velocity": 0.5039370078740157
          },
          {
            "duration": 0.1432291666666643,
            "durationTicks": 22,
            "midi": 68,
            "name": "G#4",
            "ticks": 4080,
            "time": "4080i",
            "velocity": 0.5039370078740157
          },
          {
            "duration": 0.1432291666666643,
            "durationTicks": 22,
            "midi": 68,
            "name": "G#4",
            "ticks": 4104,
            "time": "4104i",
            "velocity": 0.5039370078740157
          },
          {
            "duration": 0.29296875,
            "durationTicks": 45,
            "midi": 68,
            "name": "G#4",
            "ticks": 4128,
            "time": "4128i",
            "velocity": 0.5039370078740157
          },
          {
            "duration": 0.1432291666666643,
            "durationTicks": 22,
            "midi": 68,
            "name": "G#4",
            "ticks": 4176,
            "time": "4176i",
            "velocity": 0.5039370078740157
          },
          {
            "duration": 0.8854166666666643,
            "durationTicks": 136,
            "midi": 75,
            "name": "D#5",
            "ticks": 4176,
            "time": "4176i",
            "velocity": 0.5039370078740157
          },
          {
            "duration": 0.1432291666666643,
            "durationTicks": 22,
            "midi": 68,
            "name": "G#4",
            "ticks": 4200,
            "time": "4200i",
            "velocity": 0.5039370078740157
          },
          {
            "duration": 0.1432291666666643,
            "durationTicks": 22,
            "midi": 68,
            "name": "G#4",
            "ticks": 4224,
            "time": "4224i",
            "velocity": 0.5039370078740157
          },
          {
            "duration": 0.1432291666666643,
            "durationTicks": 22,
            "midi": 68,
            "name": "G#4",
            "ticks": 4248,
            "time": "4248i",
            "velocity": 0.5039370078740157
          },
          {
            "duration": 0.29296875,
            "durationTicks": 45,
            "midi": 68,
            "name": "G#4",
            "ticks": 4272,
            "time": "4272i",
            "velocity": 0.5039370078740157
          },
          {
            "duration": 0.29296875,
            "durationTicks": 45,
            "midi": 68,
            "name": "G#4",
            "ticks": 4320,
            "time": "4320i",
            "velocity": 0.5039370078740157
          },
          {
            "duration": 0.8854166666666643,
            "durationTicks": 136,
            "midi": 76,
            "name": "E5",
            "ticks": 4320,
            "time": "4320i",
            "velocity": 0.5039370078740157
          },
          {
            "duration": 0.29296875,
            "durationTicks": 45,
            "midi": 68,
            "name": "G#4",
            "ticks": 4368,
            "time": "4368i",
            "velocity": 0.5196850393700787
          },
          {
            "duration": 0.1432291666666643,
            "durationTicks": 22,
            "midi": 68,
            "name": "G#4",
            "ticks": 4416,
            "time": "4416i",
            "velocity": 0.5433070866141733
          },
          {
            "duration": 0.1432291666666643,
            "durationTicks": 22,
            "midi": 66,
            "name": "F#4",
            "ticks": 4440,
            "time": "4440i",
            "velocity": 0.5511811023622047
          },
          {
            "duration": 0.29296875,
            "durationTicks": 45,
            "midi": 64,
            "name": "E4",
            "ticks": 4464,
            "time": "4464i",
            "velocity": 0.5669291338582677
          },
          {
            "duration": 0.8854166666666643,
            "durationTicks": 136,
            "midi": 78,
            "name": "F#5",
            "ticks": 4464,
            "time": "4464i",
            "velocity": 0.5669291338582677
          },
          {
            "duration": 0.29296875,
            "durationTicks": 45,
            "midi": 68,
            "name": "G#4",
            "ticks": 4512,
            "time": "4512i",
            "velocity": 0.5826771653543307
          },
          {
            "duration": 0.29296875,
            "durationTicks": 45,
            "midi": 71,
            "name": "B4",
            "ticks": 4560,
            "time": "4560i",
            "velocity": 0.6062992125984252
          },
          {
            "duration": 0.3125,
            "durationTicks": 48,
            "midi": 64,
            "name": "E4",
            "ticks": 4608,
            "time": "4608i",
            "velocity": 0.6299212598425197
          },
          {
            "duration": 1.1848958333333357,
            "durationTicks": 182,
            "midi": 69,
            "name": "A4",
            "ticks": 4617,
            "time": "4617i",
            "velocity": 0.6299212598425197
          },
          {
            "duration": 1.11328125,
            "durationTicks": 171,
            "midi": 73,
            "name": "C#5",
            "ticks": 4628,
            "time": "4628i",
            "velocity": 0.6299212598425197
          },
          {
            "duration": 0.29296875,
            "durationTicks": 45,
            "midi": 73,
            "name": "C#5",
            "ticks": 4800,
            "time": "4800i",
            "velocity": 0.6299212598425197
          },
          {
            "duration": 0.006510416666664298,
            "durationTicks": 1,
            "midi": 64,
            "name": "E4",
            "ticks": 4800,
            "time": "4800i",
            "velocity": 0.6299212598425197
          },
          {
            "duration": 0.29296875,
            "durationTicks": 45,
            "midi": 75,
            "name": "D#5",
            "ticks": 4848,
            "time": "4848i",
            "velocity": 0.6299212598425197
          },
          {
            "duration": 0.29296875,
            "durationTicks": 45,
            "midi": 69,
            "name": "A4",
            "ticks": 4848,
            "time": "4848i",
            "velocity": 0.6299212598425197
          },
          {
            "duration": 1.1848958333333357,
            "durationTicks": 182,
            "midi": 76,
            "name": "E5",
            "ticks": 4896,
            "time": "4896i",
            "velocity": 0.6299212598425197
          },
          {
            "duration": 1.1848958333333357,
            "durationTicks": 182,
            "midi": 73,
            "name": "C#5",
            "ticks": 4896,
            "time": "4896i",
            "velocity": 0.6299212598425197
          },
          {
            "duration": 1.1848958333333357,
            "durationTicks": 182,
            "midi": 69,
            "name": "A4",
            "ticks": 4896,
            "time": "4896i",
            "velocity": 0.6299212598425197
          },
          {
            "duration": 0.29296875,
            "durationTicks": 45,
            "midi": 73,
            "name": "C#5",
            "ticks": 5088,
            "time": "5088i",
            "velocity": 0.6299212598425197
          },
          {
            "duration": 0.29296875,
            "durationTicks": 45,
            "midi": 69,
            "name": "A4",
            "ticks": 5088,
            "time": "5088i",
            "velocity": 0.6299212598425197
          },
          {
            "duration": 0.29296875,
            "durationTicks": 45,
            "midi": 76,
            "name": "E5",
            "ticks": 5136,
            "time": "5136i",
            "velocity": 0.6299212598425197
          },
          {
            "duration": 0.29296875,
            "durationTicks": 45,
            "midi": 68,
            "name": "G#4",
            "ticks": 5136,
            "time": "5136i",
            "velocity": 0.6299212598425197
          },
          {
            "duration": 0.29296875,
            "durationTicks": 45,
            "midi": 75,
            "name": "D#5",
            "ticks": 5184,
            "time": "5184i",
            "velocity": 0.6299212598425197
          },
          {
            "duration": 0.29296875,
            "durationTicks": 45,
            "midi": 68,
            "name": "G#4",
            "ticks": 5184,
            "time": "5184i",
            "velocity": 0.6299212598425197
          },
          {
            "duration": 0.29296875,
            "durationTicks": 45,
            "midi": 73,
            "name": "C#5",
            "ticks": 5232,
            "time": "5232i",
            "velocity": 0.6299212598425197
          },
          {
            "duration": 0.29296875,
            "durationTicks": 45,
            "midi": 71,
            "name": "B4",
            "ticks": 5280,
            "time": "5280i",
            "velocity": 0.6299212598425197
          },
          {
            "duration": 0.29296875,
            "durationTicks": 45,
            "midi": 68,
            "name": "G#4",
            "ticks": 5280,
            "time": "5280i",
            "velocity": 0.6299212598425197
          },
          {
            "duration": 0.5924479166666643,
            "durationTicks": 91,
            "midi": 71,
            "name": "B4",
            "ticks": 5328,
            "time": "5328i",
            "velocity": 0.6299212598425197
          },
          {
            "duration": 0.5924479166666643,
            "durationTicks": 91,
            "midi": 68,
            "name": "G#4",
            "ticks": 5328,
            "time": "5328i",
            "velocity": 0.6299212598425197
          },
          {
            "duration": 0.29296875,
            "durationTicks": 45,
            "midi": 68,
            "name": "G#4",
            "ticks": 5424,
            "time": "5424i",
            "velocity": 0.6299212598425197
          },
          {
            "duration": 0.006510416666664298,
            "durationTicks": 1,
            "midi": 63,
            "name": "D#4",
            "ticks": 5424,
            "time": "5424i",
            "velocity": 0.6299212598425197
          },
          {
            "duration": 0.29296875,
            "durationTicks": 45,
            "midi": 75,
            "name": "D#5",
            "ticks": 5472,
            "time": "5472i",
            "velocity": 0.6299212598425197
          },
          {
            "duration": 0.29296875,
            "durationTicks": 45,
            "midi": 71,
            "name": "B4",
            "ticks": 5472,
            "time": "5472i",
            "velocity": 0.6299212598425197
          },
          {
            "duration": 0.29296875,
            "durationTicks": 45,
            "midi": 68,
            "name": "G#4",
            "ticks": 5472,
            "time": "5472i",
            "velocity": 0.6299212598425197
          },
          {
            "duration": 0.29296875,
            "durationTicks": 45,
            "midi": 63,
            "name": "D#4",
            "ticks": 5472,
            "time": "5472i",
            "velocity": 0.6299212598425197
          },
          {
            "duration": 0.29296875,
            "durationTicks": 45,
            "midi": 73,
            "name": "C#5",
            "ticks": 5520,
            "time": "5520i",
            "velocity": 0.6299212598425197
          },
          {
            "duration": 0.29296875,
            "durationTicks": 45,
            "midi": 71,
            "name": "B4",
            "ticks": 5568,
            "time": "5568i",
            "velocity": 0.6299212598425197
          },
          {
            "duration": 0.29296875,
            "durationTicks": 45,
            "midi": 68,
            "name": "G#4",
            "ticks": 5568,
            "time": "5568i",
            "velocity": 0.6299212598425197
          },
          {
            "duration": 0.29296875,
            "durationTicks": 45,
            "midi": 75,
            "name": "D#5",
            "ticks": 5616,
            "time": "5616i",
            "velocity": 0.6299212598425197
          },
          {
            "duration": 0.29296875,
            "durationTicks": 45,
            "midi": 68,
            "name": "G#4",
            "ticks": 5616,
            "time": "5616i",
            "velocity": 0.6299212598425197
          },
          {
            "duration": 0.29296875,
            "durationTicks": 45,
            "midi": 63,
            "name": "D#4",
            "ticks": 5616,
            "time": "5616i",
            "velocity": 0.6299212598425197
          },
          {
            "duration": 0.29296875,
            "durationTicks": 45,
            "midi": 73,
            "name": "C#5",
            "ticks": 5664,
            "time": "5664i",
            "velocity": 0.6299212598425197
          },
          {
            "duration": 0.29296875,
            "durationTicks": 45,
            "midi": 71,
            "name": "B4",
            "ticks": 5712,
            "time": "5712i",
            "velocity": 0.6299212598425197
          },
          {
            "duration": 0.29296875,
            "durationTicks": 45,
            "midi": 68,
            "name": "G#4",
            "ticks": 5712,
            "time": "5712i",
            "velocity": 0.6299212598425197
          },
          {
            "duration": 0.1432291666666643,
            "durationTicks": 22,
            "midi": 71,
            "name": "B4",
            "ticks": 5760,
            "time": "5760i",
            "velocity": 0.6299212598425197
          },
          {
            "duration": 0.1432291666666643,
            "durationTicks": 22,
            "midi": 66,
            "name": "F#4",
            "ticks": 5760,
            "time": "5760i",
            "velocity": 0.6299212598425197
          },
          {
            "duration": 2.2200520833333357,
            "durationTicks": 341,
            "midi": 69,
            "name": "A4",
            "ticks": 5784,
            "time": "5784i",
            "velocity": 0.6299212598425197
          },
          {
            "duration": 2.2200520833333357,
            "durationTicks": 341,
            "midi": 66,
            "name": "F#4",
            "ticks": 5784,
            "time": "5784i",
            "velocity": 0.6299212598425197
          },
          {
            "duration": 0.29296875,
            "durationTicks": 45,
            "midi": 73,
            "name": "C#5",
            "ticks": 6144,
            "time": "6144i",
            "velocity": 0.6299212598425197
          },
          {
            "duration": 0.29296875,
            "durationTicks": 45,
            "midi": 64,
            "name": "E4",
            "ticks": 6144,
            "time": "6144i",
            "velocity": 0.6299212598425197
          },
          {
            "duration": 0.006510416666671404,
            "durationTicks": 1,
            "midi": 61,
            "name": "C#4",
            "ticks": 6144,
            "time": "6144i",
            "velocity": 0.6299212598425197
          },
          {
            "duration": 0.29296875,
            "durationTicks": 45,
            "midi": 71,
            "name": "B4",
            "ticks": 6192,
            "time": "6192i",
            "velocity": 0.6299212598425197
          },
          {
            "duration": 0.29296875,
            "durationTicks": 45,
            "midi": 66,
            "name": "F#4",
            "ticks": 6192,
            "time": "6192i",
            "velocity": 0.6299212598425197
          },
          {
            "duration": 0.29296875,
            "durationTicks": 45,
            "midi": 64,
            "name": "E4",
            "ticks": 6192,
            "time": "6192i",
            "velocity": 0.6299212598425197
          },
          {
            "duration": 0.29296875,
            "durationTicks": 45,
            "midi": 61,
            "name": "C#4",
            "ticks": 6192,
            "time": "6192i",
            "velocity": 0.6299212598425197
          },
          {
            "duration": 0.29296875,
            "durationTicks": 45,
            "midi": 69,
            "name": "A4",
            "ticks": 6240,
            "time": "6240i",
            "velocity": 0.6299212598425197
          },
          {
            "duration": 0.29296875,
            "durationTicks": 45,
            "midi": 66,
            "name": "F#4",
            "ticks": 6240,
            "time": "6240i",
            "velocity": 0.6299212598425197
          },
          {
            "duration": 0.006510416666671404,
            "durationTicks": 1,
            "midi": 61,
            "name": "C#4",
            "ticks": 6240,
            "time": "6240i",
            "velocity": 0.6299212598425197
          },
          {
            "duration": 0.29296875,
            "durationTicks": 45,
            "midi": 68,
            "name": "G#4",
            "ticks": 6288,
            "time": "6288i",
            "velocity": 0.6299212598425197
          },
          {
            "duration": 0.29296875,
            "durationTicks": 45,
            "midi": 66,
            "name": "F#4",
            "ticks": 6288,
            "time": "6288i",
            "velocity": 0.6299212598425197
          },
          {
            "duration": 0.006510416666671404,
            "durationTicks": 1,
            "midi": 61,
            "name": "C#4",
            "ticks": 6288,
            "time": "6288i",
            "velocity": 0.6299212598425197
          },
          {
            "duration": 0.8854166666666714,
            "durationTicks": 136,
            "midi": 68,
            "name": "G#4",
            "ticks": 6336,
            "time": "6336i",
            "velocity": 0.6299212598425197
          },
          {
            "duration": 0.8854166666666714,
            "durationTicks": 136,
            "midi": 63,
            "name": "D#4",
            "ticks": 6336,
            "time": "6336i",
            "velocity": 0.6299212598425197
          },
          {
            "duration": 0.8854166666666714,
            "durationTicks": 136,
            "midi": 60,
            "name": "C4",
            "ticks": 6336,
            "time": "6336i",
            "velocity": 0.6299212598425197
          },
          {
            "duration": 0.8854166666666714,
            "durationTicks": 136,
            "midi": 73,
            "name": "C#5",
            "ticks": 6480,
            "time": "6480i",
            "velocity": 0.6614173228346457
          },
          {
            "duration": 0.8854166666666714,
            "durationTicks": 136,
            "midi": 68,
            "name": "G#4",
            "ticks": 6480,
            "time": "6480i",
            "velocity": 0.6614173228346457
          },
          {
            "duration": 0.8854166666666714,
            "durationTicks": 136,
            "midi": 61,
            "name": "C#4",
            "ticks": 6480,
            "time": "6480i",
            "velocity": 0.6614173228346457
          },
          {
            "duration": 0.8854166666666714,
            "durationTicks": 136,
            "midi": 76,
            "name": "E5",
            "ticks": 6624,
            "time": "6624i",
            "velocity": 0.6929133858267716
          },
          {
            "duration": 0.8854166666666714,
            "durationTicks": 136,
            "midi": 68,
            "name": "G#4",
            "ticks": 6624,
            "time": "6624i",
            "velocity": 0.6929133858267716
          },
          {
            "duration": 0.8854166666666714,
            "durationTicks": 136,
            "midi": 64,
            "name": "E4",
            "ticks": 6624,
            "time": "6624i",
            "velocity": 0.6929133858267716
          },
          {
            "duration": 0.8854166666666714,
            "durationTicks": 136,
            "midi": 78,
            "name": "F#5",
            "ticks": 6768,
            "time": "6768i",
            "velocity": 0.7244094488188977
          },
          {
            "duration": 0.8854166666666714,
            "durationTicks": 136,
            "midi": 72,
            "name": "C5",
            "ticks": 6768,
            "time": "6768i",
            "velocity": 0.7244094488188977
          },
          {
            "duration": 0.8854166666666714,
            "durationTicks": 136,
            "midi": 66,
            "name": "F#4",
            "ticks": 6768,
            "time": "6768i",
            "velocity": 0.7244094488188977
          },
          {
            "duration": 3.5611979166666714,
            "durationTicks": 547,
            "midi": 92,
            "name": "G#6",
            "ticks": 6912,
            "time": "6912i",
            "velocity": 0.7559055118110236
          },
          {
            "duration": 3.5611979166666714,
            "durationTicks": 547,
            "midi": 88,
            "name": "E6",
            "ticks": 6912,
            "time": "6912i",
            "velocity": 0.7559055118110236
          },
          {
            "duration": 0.46875,
            "durationTicks": 72,
            "midi": 85,
            "name": "C#6",
            "ticks": 6912,
            "time": "6912i",
            "velocity": 0.7559055118110236
          },
          {
            "duration": 0.006510416666671404,
            "durationTicks": 1,
            "midi": 80,
            "name": "G#5",
            "ticks": 6912,
            "time": "6912i",
            "velocity": 0.7559055118110236
          },
          {
            "duration": 0.15625,
            "durationTicks": 24,
            "midi": 80,
            "name": "G#5",
            "ticks": 6912,
            "time": "6912i",
            "velocity": 0.7559055118110236
          },
          {
            "duration": 0.625,
            "durationTicks": 96,
            "midi": 80,
            "name": "G#5",
            "ticks": 6936,
            "time": "6936i",
            "velocity": 0.7559055118110236
          },
          {
            "duration": 0.1432291666666714,
            "durationTicks": 22,
            "midi": 83,
            "name": "B5",
            "ticks": 6960,
            "time": "6960i",
            "velocity": 0.7559055118110236
          },
          {
            "duration": 0.9375,
            "durationTicks": 144,
            "midi": 85,
            "name": "C#6",
            "ticks": 6984,
            "time": "6984i",
            "velocity": 0.7559055118110236
          },
          {
            "duration": 0.1432291666666714,
            "durationTicks": 22,
            "midi": 83,
            "name": "B5",
            "ticks": 7008,
            "time": "7008i",
            "velocity": 0.7559055118110236
          },
          {
            "duration": 0.3125,
            "durationTicks": 48,
            "midi": 80,
            "name": "G#5",
            "ticks": 7032,
            "time": "7032i",
            "velocity": 0.7559055118110236
          },
          {
            "duration": 0.1432291666666714,
            "durationTicks": 22,
            "midi": 78,
            "name": "F#5",
            "ticks": 7056,
            "time": "7056i",
            "velocity": 0.7559055118110236
          },
          {
            "duration": 0.625,
            "durationTicks": 96,
            "midi": 80,
            "name": "G#5",
            "ticks": 7080,
            "time": "7080i",
            "velocity": 0.7559055118110236
          },
          {
            "duration": 0.1432291666666714,
            "durationTicks": 22,
            "midi": 83,
            "name": "B5",
            "ticks": 7104,
            "time": "7104i",
            "velocity": 0.7559055118110236
          },
          {
            "duration": 0.9375,
            "durationTicks": 144,
            "midi": 85,
            "name": "C#6",
            "ticks": 7128,
            "time": "7128i",
            "velocity": 0.7559055118110236
          },
          {
            "duration": 0.1432291666666714,
            "durationTicks": 22,
            "midi": 83,
            "name": "B5",
            "ticks": 7152,
            "time": "7152i",
            "velocity": 0.7559055118110236
          },
          {
            "duration": 0.3125,
            "durationTicks": 48,
            "midi": 80,
            "name": "G#5",
            "ticks": 7176,
            "time": "7176i",
            "velocity": 0.7559055118110236
          },
          {
            "duration": 0.006510416666671404,
            "durationTicks": 1,
            "midi": 78,
            "name": "F#5",
            "ticks": 7200,
            "time": "7200i",
            "velocity": 0.7559055118110236
          },
          {
            "duration": 0.625,
            "durationTicks": 96,
            "midi": 80,
            "name": "G#5",
            "ticks": 7224,
            "time": "7224i",
            "velocity": 0.7559055118110236
          },
          {
            "duration": 0.1432291666666714,
            "durationTicks": 22,
            "midi": 83,
            "name": "B5",
            "ticks": 7248,
            "time": "7248i",
            "velocity": 0.7559055118110236
          },
          {
            "duration": 0.9375,
            "durationTicks": 144,
            "midi": 85,
            "name": "C#6",
            "ticks": 7272,
            "time": "7272i",
            "velocity": 0.7559055118110236
          },
          {
            "duration": 0.1432291666666714,
            "durationTicks": 22,
            "midi": 83,
            "name": "B5",
            "ticks": 7296,
            "time": "7296i",
            "velocity": 0.7559055118110236
          },
          {
            "duration": 0.3125,
            "durationTicks": 48,
            "midi": 80,
            "name": "G#5",
            "ticks": 7320,
            "time": "7320i",
            "velocity": 0.7559055118110236
          },
          {
            "duration": 0.1432291666666714,
            "durationTicks": 22,
            "midi": 78,
            "name": "F#5",
            "ticks": 7344,
            "time": "7344i",
            "velocity": 0.7559055118110236
          },
          {
            "duration": 0.5924479166666714,
            "durationTicks": 91,
            "midi": 80,
            "name": "G#5",
            "ticks": 7368,
            "time": "7368i",
            "velocity": 0.7559055118110236
          },
          {
            "duration": 0.1432291666666714,
            "durationTicks": 22,
            "midi": 83,
            "name": "B5",
            "ticks": 7392,
            "time": "7392i",
            "velocity": 0.7559055118110236
          },
          {
            "duration": 0.2799479166666714,
            "durationTicks": 43,
            "midi": 85,
            "name": "C#6",
            "ticks": 7416,
            "time": "7416i",
            "velocity": 0.7559055118110236
          },
          {
            "duration": 0.1432291666666714,
            "durationTicks": 22,
            "midi": 83,
            "name": "B5",
            "ticks": 7440,
            "time": "7440i",
            "velocity": 0.7559055118110236
          },
          {
            "duration": 0.1432291666666714,
            "durationTicks": 22,
            "midi": 80,
            "name": "G#5",
            "ticks": 7464,
            "time": "7464i",
            "velocity": 0.7559055118110236
          },
          {
            "duration": 0.8854166666666714,
            "durationTicks": 136,
            "midi": 85,
            "name": "C#6",
            "ticks": 7488,
            "time": "7488i",
            "velocity": 0.7559055118110236
          },
          {
            "duration": 0.8854166666666714,
            "durationTicks": 136,
            "midi": 80,
            "name": "G#5",
            "ticks": 7488,
            "time": "7488i",
            "velocity": 0.7559055118110236
          },
          {
            "duration": 0.8854166666666714,
            "durationTicks": 136,
            "midi": 76,
            "name": "E5",
            "ticks": 7488,
            "time": "7488i",
            "velocity": 0.7559055118110236
          },
          {
            "duration": 0.8854166666666714,
            "durationTicks": 136,
            "midi": 73,
            "name": "C#5",
            "ticks": 7488,
            "time": "7488i",
            "velocity": 0.7559055118110236
          },
          {
            "duration": 0.8854166666666714,
            "durationTicks": 136,
            "midi": 87,
            "name": "D#6",
            "ticks": 7632,
            "time": "7632i",
            "velocity": 0.7559055118110236
          },
          {
            "duration": 0.8854166666666714,
            "durationTicks": 136,
            "midi": 80,
            "name": "G#5",
            "ticks": 7632,
            "time": "7632i",
            "velocity": 0.7559055118110236
          },
          {
            "duration": 0.8854166666666714,
            "durationTicks": 136,
            "midi": 75,
            "name": "D#5",
            "ticks": 7632,
            "time": "7632i",
            "velocity": 0.7559055118110236
          },
          {
            "duration": 0.9830729166666714,
            "durationTicks": 151,
            "midi": 88,
            "name": "E6",
            "ticks": 7776,
            "time": "7776i",
            "velocity": 0.7559055118110236
          },
          {
            "duration": 0.9830729166666714,
            "durationTicks": 151,
            "midi": 83,
            "name": "B5",
            "ticks": 7776,
            "time": "7776i",
            "velocity": 0.7559055118110236
          },
          {
            "duration": 0.9830729166666714,
            "durationTicks": 151,
            "midi": 95,
            "name": "B6",
            "ticks": 7787,
            "time": "7787i",
            "velocity": 0.7559055118110236
          },
          {
            "duration": 0.9830729166666714,
            "durationTicks": 151,
            "midi": 90,
            "name": "F#6",
            "ticks": 7920,
            "time": "7920i",
            "velocity": 0.7559055118110236
          },
          {
            "duration": 0.9830729166666714,
            "durationTicks": 151,
            "midi": 81,
            "name": "A5",
            "ticks": 7920,
            "time": "7920i",
            "velocity": 0.7559055118110236
          },
          {
            "duration": 0.9830729166666714,
            "durationTicks": 151,
            "midi": 93,
            "name": "A6",
            "ticks": 7931,
            "time": "7931i",
            "velocity": 0.7559055118110236
          },
          {
            "duration": 3.5611979166666714,
            "durationTicks": 547,
            "midi": 92,
            "name": "G#6",
            "ticks": 8064,
            "time": "8064i",
            "velocity": 0.7559055118110236
          },
          {
            "duration": 3.5611979166666714,
            "durationTicks": 547,
            "midi": 88,
            "name": "E6",
            "ticks": 8064,
            "time": "8064i",
            "velocity": 0.7559055118110236
          },
          {
            "duration": 3.5611979166666714,
            "durationTicks": 547,
            "midi": 87,
            "name": "D#6",
            "ticks": 8064,
            "time": "8064i",
            "velocity": 0.7559055118110236
          },
          {
            "duration": 0.006510416666671404,
            "durationTicks": 1,
            "midi": 80,
            "name": "G#5",
            "ticks": 8064,
            "time": "8064i",
            "velocity": 0.7559055118110236
          },
          {
            "duration": 0.46875,
            "durationTicks": 72,
            "midi": 80,
            "name": "G#5",
            "ticks": 8064,
            "time": "8064i",
            "velocity": 0.7559055118110236
          },
          {
            "duration": 0.1432291666666714,
            "durationTicks": 22,
            "midi": 76,
            "name": "E5",
            "ticks": 8088,
            "time": "8088i",
            "velocity": 0.7559055118110236
          },
          {
            "duration": 0.1432291666666714,
            "durationTicks": 22,
            "midi": 78,
            "name": "F#5",
            "ticks": 8112,
            "time": "8112i",
            "velocity": 0.7559055118110236
          },
          {
            "duration": 0.9375,
            "durationTicks": 144,
            "midi": 80,
            "name": "G#5",
            "ticks": 8136,
            "time": "8136i",
            "velocity": 0.7559055118110236
          },
          {
            "duration": 0.1432291666666714,
            "durationTicks": 22,
            "midi": 78,
            "name": "F#5",
            "ticks": 8160,
            "time": "8160i",
            "velocity": 0.7559055118110236
          },
          {
            "duration": 0.1432291666666714,
            "durationTicks": 22,
            "midi": 76,
            "name": "E5",
            "ticks": 8184,
            "time": "8184i",
            "velocity": 0.7559055118110236
          },
          {
            "duration": 0.1432291666666714,
            "durationTicks": 22,
            "midi": 75,
            "name": "D#5",
            "ticks": 8208,
            "time": "8208i",
            "velocity": 0.7559055118110236
          },
          {
            "duration": 0.1432291666666714,
            "durationTicks": 22,
            "midi": 76,
            "name": "E5",
            "ticks": 8232,
            "time": "8232i",
            "velocity": 0.7559055118110236
          },
          {
            "duration": 0.1432291666666714,
            "durationTicks": 22,
            "midi": 78,
            "name": "F#5",
            "ticks": 8256,
            "time": "8256i",
            "velocity": 0.7559055118110236
          },
          {
            "duration": 0.9375,
            "durationTicks": 144,
            "midi": 80,
            "name": "G#5",
            "ticks": 8280,
            "time": "8280i",
            "velocity": 0.7559055118110236
          },
          {
            "duration": 0.1432291666666714,
            "durationTicks": 22,
            "midi": 78,
            "name": "F#5",
            "ticks": 8304,
            "time": "8304i",
            "velocity": 0.7559055118110236
          },
          {
            "duration": 0.1432291666666714,
            "durationTicks": 22,
            "midi": 76,
            "name": "E5",
            "ticks": 8328,
            "time": "8328i",
            "velocity": 0.7559055118110236
          },
          {
            "duration": 0.006510416666671404,
            "durationTicks": 1,
            "midi": 75,
            "name": "D#5",
            "ticks": 8352,
            "time": "8352i",
            "velocity": 0.7559055118110236
          },
          {
            "duration": 0.1432291666666714,
            "durationTicks": 22,
            "midi": 76,
            "name": "E5",
            "ticks": 8376,
            "time": "8376i",
            "velocity": 0.7559055118110236
          },
          {
            "duration": 0.1432291666666714,
            "durationTicks": 22,
            "midi": 78,
            "name": "F#5",
            "ticks": 8400,
            "time": "8400i",
            "velocity": 0.7559055118110236
          },
          {
            "duration": 0.9375,
            "durationTicks": 144,
            "midi": 80,
            "name": "G#5",
            "ticks": 8424,
            "time": "8424i",
            "velocity": 0.7559055118110236
          },
          {
            "duration": 0.1432291666666714,
            "durationTicks": 22,
            "midi": 78,
            "name": "F#5",
            "ticks": 8448,
            "time": "8448i",
            "velocity": 0.7559055118110236
          },
          {
            "duration": 0.1432291666666714,
            "durationTicks": 22,
            "midi": 76,
            "name": "E5",
            "ticks": 8472,
            "time": "8472i",
            "velocity": 0.7559055118110236
          },
          {
            "duration": 0.1432291666666714,
            "durationTicks": 22,
            "midi": 75,
            "name": "D#5",
            "ticks": 8496,
            "time": "8496i",
            "velocity": 0.7559055118110236
          },
          {
            "duration": 0.1432291666666714,
            "durationTicks": 22,
            "midi": 76,
            "name": "E5",
            "ticks": 8520,
            "time": "8520i",
            "velocity": 0.7559055118110236
          },
          {
            "duration": 0.1432291666666714,
            "durationTicks": 22,
            "midi": 78,
            "name": "F#5",
            "ticks": 8544,
            "time": "8544i",
            "velocity": 0.7559055118110236
          },
          {
            "duration": 0.2799479166666714,
            "durationTicks": 43,
            "midi": 80,
            "name": "G#5",
            "ticks": 8568,
            "time": "8568i",
            "velocity": 0.7559055118110236
          },
          {
            "duration": 0.1432291666666714,
            "durationTicks": 22,
            "midi": 78,
            "name": "F#5",
            "ticks": 8592,
            "time": "8592i",
            "velocity": 0.7559055118110236
          },
          {
            "duration": 0.1432291666666714,
            "durationTicks": 22,
            "midi": 76,
            "name": "E5",
            "ticks": 8616,
            "time": "8616i",
            "velocity": 0.7559055118110236
          },
          {
            "duration": 0.1432291666666714,
            "durationTicks": 22,
            "midi": 75,
            "name": "D#5",
            "ticks": 8640,
            "time": "8640i",
            "velocity": 0.7559055118110236
          },
          {
            "duration": 0.1432291666666714,
            "durationTicks": 22,
            "midi": 76,
            "name": "E5",
            "ticks": 8664,
            "time": "8664i",
            "velocity": 0.7559055118110236
          },
          {
            "duration": 0.1432291666666714,
            "durationTicks": 22,
            "midi": 78,
            "name": "F#5",
            "ticks": 8688,
            "time": "8688i",
            "velocity": 0.7559055118110236
          },
          {
            "duration": 0.1432291666666714,
            "durationTicks": 22,
            "midi": 80,
            "name": "G#5",
            "ticks": 8712,
            "time": "8712i",
            "velocity": 0.7559055118110236
          },
          {
            "duration": 0.1432291666666714,
            "durationTicks": 22,
            "midi": 78,
            "name": "F#5",
            "ticks": 8736,
            "time": "8736i",
            "velocity": 0.7559055118110236
          },
          {
            "duration": 0.1432291666666714,
            "durationTicks": 22,
            "midi": 76,
            "name": "E5",
            "ticks": 8760,
            "time": "8760i",
            "velocity": 0.7559055118110236
          },
          {
            "duration": 0.8854166666666714,
            "durationTicks": 136,
            "midi": 87,
            "name": "D#6",
            "ticks": 8784,
            "time": "8784i",
            "velocity": 0.7559055118110236
          },
          {
            "duration": 0.1432291666666714,
            "durationTicks": 22,
            "midi": 75,
            "name": "D#5",
            "ticks": 8784,
            "time": "8784i",
            "velocity": 0.7559055118110236
          },
          {
            "duration": 0.1432291666666714,
            "durationTicks": 22,
            "midi": 76,
            "name": "E5",
            "ticks": 8808,
            "time": "8808i",
            "velocity": 0.7559055118110236
          },
          {
            "duration": 0.1432291666666714,
            "durationTicks": 22,
            "midi": 78,
            "name": "F#5",
            "ticks": 8832,
            "time": "8832i",
            "velocity": 0.7559055118110236
          },
          {
            "duration": 0.1432291666666714,
            "durationTicks": 22,
            "midi": 80,
            "name": "G#5",
            "ticks": 8856,
            "time": "8856i",
            "velocity": 0.7559055118110236
          },
          {
            "duration": 0.1432291666666714,
            "durationTicks": 22,
            "midi": 78,
            "name": "F#5",
            "ticks": 8880,
            "time": "8880i",
            "velocity": 0.7559055118110236
          },
          {
            "duration": 0.1432291666666714,
            "durationTicks": 22,
            "midi": 76,
            "name": "E5",
            "ticks": 8904,
            "time": "8904i",
            "velocity": 0.7559055118110236
          },
          {
            "duration": 0.8854166666666714,
            "durationTicks": 136,
            "midi": 88,
            "name": "E6",
            "ticks": 8928,
            "time": "8928i",
            "velocity": 0.7559055118110236
          },
          {
            "duration": 0.1432291666666714,
            "durationTicks": 22,
            "midi": 76,
            "name": "E5",
            "ticks": 8928,
            "time": "8928i",
            "velocity": 0.7559055118110236
          },
          {
            "duration": 0.1432291666666714,
            "durationTicks": 22,
            "midi": 76,
            "name": "E5",
            "ticks": 8952,
            "time": "8952i",
            "velocity": 0.7559055118110236
          },
          {
            "duration": 0.1432291666666714,
            "durationTicks": 22,
            "midi": 78,
            "name": "F#5",
            "ticks": 8976,
            "time": "8976i",
            "velocity": 0.7559055118110236
          },
          {
            "duration": 0.1432291666666714,
            "durationTicks": 22,
            "midi": 80,
            "name": "G#5",
            "ticks": 9000,
            "time": "9000i",
            "velocity": 0.7559055118110236
          },
          {
            "duration": 0.1432291666666714,
            "durationTicks": 22,
            "midi": 78,
            "name": "F#5",
            "ticks": 9024,
            "time": "9024i",
            "velocity": 0.7559055118110236
          },
          {
            "duration": 0.1432291666666714,
            "durationTicks": 22,
            "midi": 76,
            "name": "E5",
            "ticks": 9048,
            "time": "9048i",
            "velocity": 0.7559055118110236
          },
          {
            "duration": 0.8854166666666714,
            "durationTicks": 136,
            "midi": 90,
            "name": "F#6",
            "ticks": 9072,
            "time": "9072i",
            "velocity": 0.7559055118110236
          },
          {
            "duration": 0.1432291666666714,
            "durationTicks": 22,
            "midi": 78,
            "name": "F#5",
            "ticks": 9072,
            "time": "9072i",
            "velocity": 0.7559055118110236
          },
          {
            "duration": 0.1432291666666714,
            "durationTicks": 22,
            "midi": 76,
            "name": "E5",
            "ticks": 9096,
            "time": "9096i",
            "velocity": 0.7559055118110236
          },
          {
            "duration": 0.1432291666666714,
            "durationTicks": 22,
            "midi": 78,
            "name": "F#5",
            "ticks": 9120,
            "time": "9120i",
            "velocity": 0.7559055118110236
          },
          {
            "duration": 0.1432291666666714,
            "durationTicks": 22,
            "midi": 80,
            "name": "G#5",
            "ticks": 9144,
            "time": "9144i",
            "velocity": 0.7559055118110236
          },
          {
            "duration": 0.1432291666666714,
            "durationTicks": 22,
            "midi": 78,
            "name": "F#5",
            "ticks": 9168,
            "time": "9168i",
            "velocity": 0.7559055118110236
          },
          {
            "duration": 0.1432291666666714,
            "durationTicks": 22,
            "midi": 76,
            "name": "E5",
            "ticks": 9192,
            "time": "9192i",
            "velocity": 0.7559055118110236
          },
          {
            "duration": 3.5611979166666714,
            "durationTicks": 547,
            "midi": 92,
            "name": "G#6",
            "ticks": 9216,
            "time": "9216i",
            "velocity": 0.7559055118110236
          },
          {
            "duration": 3.5611979166666714,
            "durationTicks": 547,
            "midi": 88,
            "name": "E6",
            "ticks": 9216,
            "time": "9216i",
            "velocity": 0.7559055118110236
          },
          {
            "duration": 0.46875,
            "durationTicks": 72,
            "midi": 85,
            "name": "C#6",
            "ticks": 9216,
            "time": "9216i",
            "velocity": 0.7559055118110236
          },
          {
            "duration": 0.006510416666671404,
            "durationTicks": 1,
            "midi": 80,
            "name": "G#5",
            "ticks": 9216,
            "time": "9216i",
            "velocity": 0.7559055118110236
          },
          {
            "duration": 0.15625,
            "durationTicks": 24,
            "midi": 80,
            "name": "G#5",
            "ticks": 9216,
            "time": "9216i",
            "velocity": 0.7559055118110236
          },
          {
            "duration": 0.625,
            "durationTicks": 96,
            "midi": 80,
            "name": "G#5",
            "ticks": 9240,
            "time": "9240i",
            "velocity": 0.7559055118110236
          },
          {
            "duration": 0.1432291666666714,
            "durationTicks": 22,
            "midi": 83,
            "name": "B5",
            "ticks": 9264,
            "time": "9264i",
            "velocity": 0.7559055118110236
          },
          {
            "duration": 0.9375,
            "durationTicks": 144,
            "midi": 85,
            "name": "C#6",
            "ticks": 9288,
            "time": "9288i",
            "velocity": 0.7559055118110236
          },
          {
            "duration": 0.1432291666666714,
            "durationTicks": 22,
            "midi": 83,
            "name": "B5",
            "ticks": 9312,
            "time": "9312i",
            "velocity": 0.7559055118110236
          },
          {
            "duration": 0.3125,
            "durationTicks": 48,
            "midi": 80,
            "name": "G#5",
            "ticks": 9336,
            "time": "9336i",
            "velocity": 0.7559055118110236
          },
          {
            "duration": 0.1432291666666714,
            "durationTicks": 22,
            "midi": 78,
            "name": "F#5",
            "ticks": 9360,
            "time": "9360i",
            "velocity": 0.7559055118110236
          },
          {
            "duration": 0.625,
            "durationTicks": 96,
            "midi": 80,
            "name": "G#5",
            "ticks": 9384,
            "time": "9384i",
            "velocity": 0.7559055118110236
          },
          {
            "duration": 0.1432291666666714,
            "durationTicks": 22,
            "midi": 83,
            "name": "B5",
            "ticks": 9408,
            "time": "9408i",
            "velocity": 0.7559055118110236
          },
          {
            "duration": 0.9375,
            "durationTicks": 144,
            "midi": 85,
            "name": "C#6",
            "ticks": 9432,
            "time": "9432i",
            "velocity": 0.7559055118110236
          },
          {
            "duration": 0.1432291666666714,
            "durationTicks": 22,
            "midi": 83,
            "name": "B5",
            "ticks": 9456,
            "time": "9456i",
            "velocity": 0.7559055118110236
          },
          {
            "duration": 0.3125,
            "durationTicks": 48,
            "midi": 80,
            "name": "G#5",
            "ticks": 9480,
            "time": "9480i",
            "velocity": 0.7559055118110236
          },
          {
            "duration": 0.1432291666666714,
            "durationTicks": 22,
            "midi": 78,
            "name": "F#5",
            "ticks": 9504,
            "time": "9504i",
            "velocity": 0.7559055118110236
          },
          {
            "duration": 0.625,
            "durationTicks": 96,
            "midi": 80,
            "name": "G#5",
            "ticks": 9528,
            "time": "9528i",
            "velocity": 0.7559055118110236
          },
          {
            "duration": 0.1432291666666714,
            "durationTicks": 22,
            "midi": 83,
            "name": "B5",
            "ticks": 9552,
            "time": "9552i",
            "velocity": 0.7559055118110236
          },
          {
            "duration": 0.9375,
            "durationTicks": 144,
            "midi": 85,
            "name": "C#6",
            "ticks": 9576,
            "time": "9576i",
            "velocity": 0.7559055118110236
          },
          {
            "duration": 0.1432291666666714,
            "durationTicks": 22,
            "midi": 83,
            "name": "B5",
            "ticks": 9600,
            "time": "9600i",
            "velocity": 0.7559055118110236
          },
          {
            "duration": 0.3125,
            "durationTicks": 48,
            "midi": 80,
            "name": "G#5",
            "ticks": 9624,
            "time": "9624i",
            "velocity": 0.7559055118110236
          },
          {
            "duration": 0.1432291666666714,
            "durationTicks": 22,
            "midi": 78,
            "name": "F#5",
            "ticks": 9648,
            "time": "9648i",
            "velocity": 0.7559055118110236
          },
          {
            "duration": 0.5924479166666714,
            "durationTicks": 91,
            "midi": 80,
            "name": "G#5",
            "ticks": 9672,
            "time": "9672i",
            "velocity": 0.7559055118110236
          },
          {
            "duration": 0.1432291666666714,
            "durationTicks": 22,
            "midi": 83,
            "name": "B5",
            "ticks": 9696,
            "time": "9696i",
            "velocity": 0.7559055118110236
          },
          {
            "duration": 0.2799479166666714,
            "durationTicks": 43,
            "midi": 85,
            "name": "C#6",
            "ticks": 9720,
            "time": "9720i",
            "velocity": 0.7559055118110236
          },
          {
            "duration": 0.1432291666666714,
            "durationTicks": 22,
            "midi": 83,
            "name": "B5",
            "ticks": 9744,
            "time": "9744i",
            "velocity": 0.7559055118110236
          },
          {
            "duration": 0.1432291666666714,
            "durationTicks": 22,
            "midi": 80,
            "name": "G#5",
            "ticks": 9768,
            "time": "9768i",
            "velocity": 0.7559055118110236
          },
          {
            "duration": 0.8854166666666714,
            "durationTicks": 136,
            "midi": 85,
            "name": "C#6",
            "ticks": 9792,
            "time": "9792i",
            "velocity": 0.7559055118110236
          },
          {
            "duration": 0.8854166666666714,
            "durationTicks": 136,
            "midi": 80,
            "name": "G#5",
            "ticks": 9792,
            "time": "9792i",
            "velocity": 0.7559055118110236
          },
          {
            "duration": 0.8854166666666714,
            "durationTicks": 136,
            "midi": 76,
            "name": "E5",
            "ticks": 9792,
            "time": "9792i",
            "velocity": 0.7559055118110236
          },
          {
            "duration": 0.8854166666666714,
            "durationTicks": 136,
            "midi": 73,
            "name": "C#5",
            "ticks": 9792,
            "time": "9792i",
            "velocity": 0.7559055118110236
          },
          {
            "duration": 0.8854166666666714,
            "durationTicks": 136,
            "midi": 87,
            "name": "D#6",
            "ticks": 9936,
            "time": "9936i",
            "velocity": 0.7559055118110236
          },
          {
            "duration": 0.8854166666666714,
            "durationTicks": 136,
            "midi": 80,
            "name": "G#5",
            "ticks": 9936,
            "time": "9936i",
            "velocity": 0.7559055118110236
          },
          {
            "duration": 0.8854166666666714,
            "durationTicks": 136,
            "midi": 75,
            "name": "D#5",
            "ticks": 9936,
            "time": "9936i",
            "velocity": 0.7559055118110236
          },
          {
            "duration": 0.95703125,
            "durationTicks": 147,
            "midi": 88,
            "name": "E6",
            "ticks": 10080,
            "time": "10080i",
            "velocity": 0.7559055118110236
          },
          {
            "duration": 0.95703125,
            "durationTicks": 147,
            "midi": 83,
            "name": "B5",
            "ticks": 10080,
            "time": "10080i",
            "velocity": 0.7559055118110236
          },
          {
            "duration": 0.95703125,
            "durationTicks": 147,
            "midi": 95,
            "name": "B6",
            "ticks": 10091,
            "time": "10091i",
            "velocity": 0.7559055118110236
          },
          {
            "duration": 1.0091145833333286,
            "durationTicks": 155,
            "midi": 90,
            "name": "F#6",
            "ticks": 10224,
            "time": "10224i",
            "velocity": 0.7559055118110236
          },
          {
            "duration": 1.0091145833333286,
            "durationTicks": 155,
            "midi": 81,
            "name": "A5",
            "ticks": 10224,
            "time": "10224i",
            "velocity": 0.7559055118110236
          },
          {
            "duration": 1.0091145833333428,
            "durationTicks": 155,
            "midi": 93,
            "name": "A6",
            "ticks": 10235,
            "time": "10235i",
            "velocity": 0.7559055118110236
          },
          {
            "duration": 3.5611979166666714,
            "durationTicks": 547,
            "midi": 92,
            "name": "G#6",
            "ticks": 10368,
            "time": "10368i",
            "velocity": 0.7559055118110236
          },
          {
            "duration": 3.5611979166666714,
            "durationTicks": 547,
            "midi": 88,
            "name": "E6",
            "ticks": 10368,
            "time": "10368i",
            "velocity": 0.7559055118110236
          },
          {
            "duration": 3.5611979166666714,
            "durationTicks": 547,
            "midi": 87,
            "name": "D#6",
            "ticks": 10368,
            "time": "10368i",
            "velocity": 0.7559055118110236
          },
          {
            "duration": 0.006510416666671404,
            "durationTicks": 1,
            "midi": 80,
            "name": "G#5",
            "ticks": 10368,
            "time": "10368i",
            "velocity": 0.7559055118110236
          },
          {
            "duration": 0.46875,
            "durationTicks": 72,
            "midi": 80,
            "name": "G#5",
            "ticks": 10368,
            "time": "10368i",
            "velocity": 0.7559055118110236
          },
          {
            "duration": 0.1432291666666714,
            "durationTicks": 22,
            "midi": 76,
            "name": "E5",
            "ticks": 10392,
            "time": "10392i",
            "velocity": 0.7559055118110236
          },
          {
            "duration": 0.1432291666666714,
            "durationTicks": 22,
            "midi": 78,
            "name": "F#5",
            "ticks": 10416,
            "time": "10416i",
            "velocity": 0.7559055118110236
          },
          {
            "duration": 0.9375,
            "durationTicks": 144,
            "midi": 80,
            "name": "G#5",
            "ticks": 10440,
            "time": "10440i",
            "velocity": 0.7559055118110236
          },
          {
            "duration": 0.1432291666666714,
            "durationTicks": 22,
            "midi": 78,
            "name": "F#5",
            "ticks": 10464,
            "time": "10464i",
            "velocity": 0.7559055118110236
          },
          {
            "duration": 0.1432291666666714,
            "durationTicks": 22,
            "midi": 76,
            "name": "E5",
            "ticks": 10488,
            "time": "10488i",
            "velocity": 0.7559055118110236
          },
          {
            "duration": 0.1432291666666714,
            "durationTicks": 22,
            "midi": 75,
            "name": "D#5",
            "ticks": 10512,
            "time": "10512i",
            "velocity": 0.7559055118110236
          },
          {
            "duration": 0.1432291666666714,
            "durationTicks": 22,
            "midi": 76,
            "name": "E5",
            "ticks": 10536,
            "time": "10536i",
            "velocity": 0.7559055118110236
          },
          {
            "duration": 0.1432291666666714,
            "durationTicks": 22,
            "midi": 78,
            "name": "F#5",
            "ticks": 10560,
            "time": "10560i",
            "velocity": 0.7559055118110236
          },
          {
            "duration": 0.9375,
            "durationTicks": 144,
            "midi": 80,
            "name": "G#5",
            "ticks": 10584,
            "time": "10584i",
            "velocity": 0.7559055118110236
          },
          {
            "duration": 0.1432291666666714,
            "durationTicks": 22,
            "midi": 78,
            "name": "F#5",
            "ticks": 10608,
            "time": "10608i",
            "velocity": 0.7559055118110236
          },
          {
            "duration": 0.1432291666666714,
            "durationTicks": 22,
            "midi": 76,
            "name": "E5",
            "ticks": 10632,
            "time": "10632i",
            "velocity": 0.7559055118110236
          },
          {
            "duration": 0.006510416666671404,
            "durationTicks": 1,
            "midi": 75,
            "name": "D#5",
            "ticks": 10656,
            "time": "10656i",
            "velocity": 0.7559055118110236
          },
          {
            "duration": 0.1432291666666714,
            "durationTicks": 22,
            "midi": 76,
            "name": "E5",
            "ticks": 10680,
            "time": "10680i",
            "velocity": 0.7559055118110236
          },
          {
            "duration": 0.1432291666666714,
            "durationTicks": 22,
            "midi": 78,
            "name": "F#5",
            "ticks": 10704,
            "time": "10704i",
            "velocity": 0.7559055118110236
          },
          {
            "duration": 0.9375,
            "durationTicks": 144,
            "midi": 80,
            "name": "G#5",
            "ticks": 10728,
            "time": "10728i",
            "velocity": 0.7559055118110236
          },
          {
            "duration": 0.1432291666666714,
            "durationTicks": 22,
            "midi": 78,
            "name": "F#5",
            "ticks": 10752,
            "time": "10752i",
            "velocity": 0.7559055118110236
          },
          {
            "duration": 0.1432291666666714,
            "durationTicks": 22,
            "midi": 76,
            "name": "E5",
            "ticks": 10776,
            "time": "10776i",
            "velocity": 0.7559055118110236
          },
          {
            "duration": 0.1432291666666714,
            "durationTicks": 22,
            "midi": 75,
            "name": "D#5",
            "ticks": 10800,
            "time": "10800i",
            "velocity": 0.7559055118110236
          },
          {
            "duration": 0.1432291666666714,
            "durationTicks": 22,
            "midi": 76,
            "name": "E5",
            "ticks": 10824,
            "time": "10824i",
            "velocity": 0.7559055118110236
          },
          {
            "duration": 0.1432291666666714,
            "durationTicks": 22,
            "midi": 78,
            "name": "F#5",
            "ticks": 10848,
            "time": "10848i",
            "velocity": 0.7559055118110236
          },
          {
            "duration": 0.2799479166666714,
            "durationTicks": 43,
            "midi": 80,
            "name": "G#5",
            "ticks": 10872,
            "time": "10872i",
            "velocity": 0.7559055118110236
          },
          {
            "duration": 0.1432291666666714,
            "durationTicks": 22,
            "midi": 78,
            "name": "F#5",
            "ticks": 10896,
            "time": "10896i",
            "velocity": 0.7559055118110236
          },
          {
            "duration": 0.1432291666666714,
            "durationTicks": 22,
            "midi": 76,
            "name": "E5",
            "ticks": 10920,
            "time": "10920i",
            "velocity": 0.7559055118110236
          },
          {
            "duration": 0.1432291666666714,
            "durationTicks": 22,
            "midi": 75,
            "name": "D#5",
            "ticks": 10944,
            "time": "10944i",
            "velocity": 0.7559055118110236
          },
          {
            "duration": 0.1432291666666714,
            "durationTicks": 22,
            "midi": 76,
            "name": "E5",
            "ticks": 10968,
            "time": "10968i",
            "velocity": 0.7559055118110236
          },
          {
            "duration": 0.1432291666666714,
            "durationTicks": 22,
            "midi": 78,
            "name": "F#5",
            "ticks": 10992,
            "time": "10992i",
            "velocity": 0.7559055118110236
          },
          {
            "duration": 0.1432291666666714,
            "durationTicks": 22,
            "midi": 80,
            "name": "G#5",
            "ticks": 11016,
            "time": "11016i",
            "velocity": 0.7559055118110236
          },
          {
            "duration": 0.1432291666666714,
            "durationTicks": 22,
            "midi": 78,
            "name": "F#5",
            "ticks": 11040,
            "time": "11040i",
            "velocity": 0.7559055118110236
          },
          {
            "duration": 0.1432291666666714,
            "durationTicks": 22,
            "midi": 76,
            "name": "E5",
            "ticks": 11064,
            "time": "11064i",
            "velocity": 0.7559055118110236
          },
          {
            "duration": 0.1432291666666714,
            "durationTicks": 22,
            "midi": 75,
            "name": "D#5",
            "ticks": 11088,
            "time": "11088i",
            "velocity": 0.7559055118110236
          },
          {
            "duration": 0.1432291666666714,
            "durationTicks": 22,
            "midi": 76,
            "name": "E5",
            "ticks": 11112,
            "time": "11112i",
            "velocity": 0.7559055118110236
          },
          {
            "duration": 0.1432291666666714,
            "durationTicks": 22,
            "midi": 78,
            "name": "F#5",
            "ticks": 11136,
            "time": "11136i",
            "velocity": 0.7559055118110236
          },
          {
            "duration": 0.1432291666666714,
            "durationTicks": 22,
            "midi": 80,
            "name": "G#5",
            "ticks": 11160,
            "time": "11160i",
            "velocity": 0.7559055118110236
          },
          {
            "duration": 0.1432291666666714,
            "durationTicks": 22,
            "midi": 78,
            "name": "F#5",
            "ticks": 11184,
            "time": "11184i",
            "velocity": 0.7559055118110236
          },
          {
            "duration": 0.1432291666666714,
            "durationTicks": 22,
            "midi": 76,
            "name": "E5",
            "ticks": 11208,
            "time": "11208i",
            "velocity": 0.7559055118110236
          },
          {
            "duration": 0.1432291666666714,
            "durationTicks": 22,
            "midi": 74,
            "name": "D5",
            "ticks": 11232,
            "time": "11232i",
            "velocity": 0.7559055118110236
          },
          {
            "duration": 0.1432291666666714,
            "durationTicks": 22,
            "midi": 76,
            "name": "E5",
            "ticks": 11256,
            "time": "11256i",
            "velocity": 0.7401574803149606
          },
          {
            "duration": 0.1432291666666714,
            "durationTicks": 22,
            "midi": 78,
            "name": "F#5",
            "ticks": 11280,
            "time": "11280i",
            "velocity": 0.7165354330708661
          },
          {
            "duration": 0.1432291666666714,
            "durationTicks": 22,
            "midi": 80,
            "name": "G#5",
            "ticks": 11304,
            "time": "11304i",
            "velocity": 0.6929133858267716
          },
          {
            "duration": 0.1432291666666714,
            "durationTicks": 22,
            "midi": 78,
            "name": "F#5",
            "ticks": 11328,
            "time": "11328i",
            "velocity": 0.6771653543307087
          },
          {
            "duration": 0.1432291666666714,
            "durationTicks": 22,
            "midi": 76,
            "name": "E5",
            "ticks": 11352,
            "time": "11352i",
            "velocity": 0.6535433070866141
          },
          {
            "duration": 0.1432291666666714,
            "durationTicks": 22,
            "midi": 74,
            "name": "D5",
            "ticks": 11376,
            "time": "11376i",
            "velocity": 0.6299212598425197
          },
          {
            "duration": 0.1432291666666714,
            "durationTicks": 22,
            "midi": 76,
            "name": "E5",
            "ticks": 11400,
            "time": "11400i",
            "velocity": 0.6141732283464567
          },
          {
            "duration": 0.1432291666666714,
            "durationTicks": 22,
            "midi": 78,
            "name": "F#5",
            "ticks": 11424,
            "time": "11424i",
            "velocity": 0.5905511811023622
          },
          {
            "duration": 0.1432291666666714,
            "durationTicks": 22,
            "midi": 80,
            "name": "G#5",
            "ticks": 11448,
            "time": "11448i",
            "velocity": 0.5669291338582677
          },
          {
            "duration": 0.1432291666666714,
            "durationTicks": 22,
            "midi": 78,
            "name": "F#5",
            "ticks": 11472,
            "time": "11472i",
            "velocity": 0.5511811023622047
          },
          {
            "duration": 0.1432291666666714,
            "durationTicks": 22,
            "midi": 76,
            "name": "E5",
            "ticks": 11496,
            "time": "11496i",
            "velocity": 0.5275590551181102
          },
          {
            "duration": 0.1432291666666714,
            "durationTicks": 22,
            "midi": 68,
            "name": "G#4",
            "ticks": 11520,
            "time": "11520i",
            "velocity": 0.5039370078740157
          },
          {
            "duration": 0.1432291666666714,
            "durationTicks": 22,
            "midi": 68,
            "name": "G#4",
            "ticks": 11544,
            "time": "11544i",
            "velocity": 0.5039370078740157
          },
          {
            "duration": 0.1432291666666714,
            "durationTicks": 22,
            "midi": 68,
            "name": "G#4",
            "ticks": 11568,
            "time": "11568i",
            "velocity": 0.5039370078740157
          },
          {
            "duration": 0.1432291666666714,
            "durationTicks": 22,
            "midi": 68,
            "name": "G#4",
            "ticks": 11592,
            "time": "11592i",
            "velocity": 0.5039370078740157
          },
          {
            "duration": 0.1432291666666714,
            "durationTicks": 22,
            "midi": 68,
            "name": "G#4",
            "ticks": 11616,
            "time": "11616i",
            "velocity": 0.5039370078740157
          },
          {
            "duration": 0.1432291666666714,
            "durationTicks": 22,
            "midi": 66,
            "name": "F#4",
            "ticks": 11640,
            "time": "11640i",
            "velocity": 0.5039370078740157
          },
          {
            "duration": 0.1497395833333286,
            "durationTicks": 23,
            "midi": 92,
            "name": "G#6",
            "ticks": 11664,
            "time": "11664i",
            "velocity": 0.7559055118110236
          },
          {
            "duration": 0.1497395833333286,
            "durationTicks": 23,
            "midi": 80,
            "name": "G#5",
            "ticks": 11664,
            "time": "11664i",
            "velocity": 0.7559055118110236
          },
          {
            "duration": 0.1432291666666714,
            "durationTicks": 22,
            "midi": 68,
            "name": "G#4",
            "ticks": 11808,
            "time": "11808i",
            "velocity": 0.5039370078740157
          },
          {
            "duration": 0.1432291666666714,
            "durationTicks": 22,
            "midi": 68,
            "name": "G#4",
            "ticks": 11832,
            "time": "11832i",
            "velocity": 0.5039370078740157
          },
          {
            "duration": 0.1432291666666714,
            "durationTicks": 22,
            "midi": 68,
            "name": "G#4",
            "ticks": 11856,
            "time": "11856i",
            "velocity": 0.5039370078740157
          },
          {
            "duration": 0.1432291666666714,
            "durationTicks": 22,
            "midi": 68,
            "name": "G#4",
            "ticks": 11880,
            "time": "11880i",
            "velocity": 0.5039370078740157
          },
          {
            "duration": 0.29296875,
            "durationTicks": 45,
            "midi": 68,
            "name": "G#4",
            "ticks": 11904,
            "time": "11904i",
            "velocity": 0.5039370078740157
          },
          {
            "duration": 0.1432291666666714,
            "durationTicks": 22,
            "midi": 68,
            "name": "G#4",
            "ticks": 11952,
            "time": "11952i",
            "velocity": 0.5039370078740157
          },
          {
            "duration": 0.1432291666666714,
            "durationTicks": 22,
            "midi": 68,
            "name": "G#4",
            "ticks": 11976,
            "time": "11976i",
            "velocity": 0.5039370078740157
          },
          {
            "duration": 0.1432291666666714,
            "durationTicks": 22,
            "midi": 68,
            "name": "G#4",
            "ticks": 12000,
            "time": "12000i",
            "velocity": 0.5039370078740157
          },
          {
            "duration": 0.1432291666666714,
            "durationTicks": 22,
            "midi": 68,
            "name": "G#4",
            "ticks": 12024,
            "time": "12024i",
            "velocity": 0.5039370078740157
          },
          {
            "duration": 0.29296875,
            "durationTicks": 45,
            "midi": 68,
            "name": "G#4",
            "ticks": 12048,
            "time": "12048i",
            "velocity": 0.5039370078740157
          },
          {
            "duration": 0.1432291666666714,
            "durationTicks": 22,
            "midi": 68,
            "name": "G#4",
            "ticks": 12096,
            "time": "12096i",
            "velocity": 0.5039370078740157
          },
          {
            "duration": 0.1432291666666714,
            "durationTicks": 22,
            "midi": 68,
            "name": "G#4",
            "ticks": 12120,
            "time": "12120i",
            "velocity": 0.5039370078740157
          },
          {
            "duration": 0.1432291666666714,
            "durationTicks": 22,
            "midi": 68,
            "name": "G#4",
            "ticks": 12144,
            "time": "12144i",
            "velocity": 0.5039370078740157
          },
          {
            "duration": 0.1432291666666714,
            "durationTicks": 22,
            "midi": 68,
            "name": "G#4",
            "ticks": 12168,
            "time": "12168i",
            "velocity": 0.5039370078740157
          },
          {
            "duration": 0.1432291666666714,
            "durationTicks": 22,
            "midi": 68,
            "name": "G#4",
            "ticks": 12192,
            "time": "12192i",
            "velocity": 0.5039370078740157
          },
          {
            "duration": 0.1432291666666714,
            "durationTicks": 22,
            "midi": 66,
            "name": "F#4",
            "ticks": 12216,
            "time": "12216i",
            "velocity": 0.5039370078740157
          },
          {
            "duration": 0.1497395833333286,
            "durationTicks": 23,
            "midi": 92,
            "name": "G#6",
            "ticks": 12240,
            "time": "12240i",
            "velocity": 0.7559055118110236
          },
          {
            "duration": 0.1497395833333286,
            "durationTicks": 23,
            "midi": 80,
            "name": "G#5",
            "ticks": 12240,
            "time": "12240i",
            "velocity": 0.7559055118110236
          },
          {
            "duration": 0.1432291666666572,
            "durationTicks": 22,
            "midi": 68,
            "name": "G#4",
            "ticks": 12384,
            "time": "12384i",
            "velocity": 0.5039370078740157
          },
          {
            "duration": 0.1432291666666572,
            "durationTicks": 22,
            "midi": 68,
            "name": "G#4",
            "ticks": 12408,
            "time": "12408i",
            "velocity": 0.5039370078740157
          },
          {
            "duration": 0.1432291666666572,
            "durationTicks": 22,
            "midi": 68,
            "name": "G#4",
            "ticks": 12432,
            "time": "12432i",
            "velocity": 0.5039370078740157
          },
          {
            "duration": 0.1432291666666572,
            "durationTicks": 22,
            "midi": 68,
            "name": "G#4",
            "ticks": 12456,
            "time": "12456i",
            "velocity": 0.5039370078740157
          },
          {
            "duration": 0.29296875,
            "durationTicks": 45,
            "midi": 68,
            "name": "G#4",
            "ticks": 12480,
            "time": "12480i",
            "velocity": 0.5039370078740157
          },
          {
            "duration": 0.1432291666666572,
            "durationTicks": 22,
            "midi": 68,
            "name": "G#4",
            "ticks": 12528,
            "time": "12528i",
            "velocity": 0.5039370078740157
          },
          {
            "duration": 0.1432291666666572,
            "durationTicks": 22,
            "midi": 68,
            "name": "G#4",
            "ticks": 12552,
            "time": "12552i",
            "velocity": 0.5039370078740157
          },
          {
            "duration": 0.1432291666666572,
            "durationTicks": 22,
            "midi": 68,
            "name": "G#4",
            "ticks": 12576,
            "time": "12576i",
            "velocity": 0.5039370078740157
          },
          {
            "duration": 0.1432291666666572,
            "durationTicks": 22,
            "midi": 68,
            "name": "G#4",
            "ticks": 12600,
            "time": "12600i",
            "velocity": 0.5039370078740157
          },
          {
            "duration": 0.29296875,
            "durationTicks": 45,
            "midi": 68,
            "name": "G#4",
            "ticks": 12624,
            "time": "12624i",
            "velocity": 0.5039370078740157
          },
          {
            "duration": 0.1432291666666572,
            "durationTicks": 22,
            "midi": 68,
            "name": "G#4",
            "ticks": 12672,
            "time": "12672i",
            "velocity": 0.5039370078740157
          },
          {
            "duration": 0.1432291666666572,
            "durationTicks": 22,
            "midi": 68,
            "name": "G#4",
            "ticks": 12696,
            "time": "12696i",
            "velocity": 0.5039370078740157
          },
          {
            "duration": 0.1432291666666572,
            "durationTicks": 22,
            "midi": 68,
            "name": "G#4",
            "ticks": 12720,
            "time": "12720i",
            "velocity": 0.5039370078740157
          },
          {
            "duration": 0.1432291666666572,
            "durationTicks": 22,
            "midi": 68,
            "name": "G#4",
            "ticks": 12744,
            "time": "12744i",
            "velocity": 0.5039370078740157
          },
          {
            "duration": 0.1432291666666572,
            "durationTicks": 22,
            "midi": 68,
            "name": "G#4",
            "ticks": 12768,
            "time": "12768i",
            "velocity": 0.5039370078740157
          },
          {
            "duration": 0.1432291666666572,
            "durationTicks": 22,
            "midi": 66,
            "name": "F#4",
            "ticks": 12792,
            "time": "12792i",
            "velocity": 0.5039370078740157
          },
          {
            "duration": 0.1497395833333428,
            "durationTicks": 23,
            "midi": 90,
            "name": "F#6",
            "ticks": 12816,
            "time": "12816i",
            "velocity": 0.7559055118110236
          },
          {
            "duration": 0.1497395833333428,
            "durationTicks": 23,
            "midi": 78,
            "name": "F#5",
            "ticks": 12816,
            "time": "12816i",
            "velocity": 0.7559055118110236
          },
          {
            "duration": 0.1432291666666572,
            "durationTicks": 22,
            "midi": 68,
            "name": "G#4",
            "ticks": 12960,
            "time": "12960i",
            "velocity": 0.5039370078740157
          },
          {
            "duration": 0.1432291666666572,
            "durationTicks": 22,
            "midi": 68,
            "name": "G#4",
            "ticks": 12984,
            "time": "12984i",
            "velocity": 0.5039370078740157
          },
          {
            "duration": 0.1432291666666572,
            "durationTicks": 22,
            "midi": 68,
            "name": "G#4",
            "ticks": 13008,
            "time": "13008i",
            "velocity": 0.5039370078740157
          },
          {
            "duration": 0.1432291666666572,
            "durationTicks": 22,
            "midi": 68,
            "name": "G#4",
            "ticks": 13032,
            "time": "13032i",
            "velocity": 0.5039370078740157
          },
          {
            "duration": 0.1432291666666572,
            "durationTicks": 22,
            "midi": 68,
            "name": "G#4",
            "ticks": 13056,
            "time": "13056i",
            "velocity": 0.5039370078740157
          },
          {
            "duration": 0.1432291666666572,
            "durationTicks": 22,
            "midi": 66,
            "name": "F#4",
            "ticks": 13080,
            "time": "13080i",
            "velocity": 0.5039370078740157
          },
          {
            "duration": 0.1497395833333428,
            "durationTicks": 23,
            "midi": 90,
            "name": "F#6",
            "ticks": 13104,
            "time": "13104i",
            "velocity": 0.7559055118110236
          },
          {
            "duration": 0.1497395833333428,
            "durationTicks": 23,
            "midi": 78,
            "name": "F#5",
            "ticks": 13104,
            "time": "13104i",
            "velocity": 0.7559055118110236
          },
          {
            "duration": 0.1432291666666572,
            "durationTicks": 22,
            "midi": 68,
            "name": "G#4",
            "ticks": 13248,
            "time": "13248i",
            "velocity": 0.5039370078740157
          },
          {
            "duration": 0.1432291666666572,
            "durationTicks": 22,
            "midi": 68,
            "name": "G#4",
            "ticks": 13272,
            "time": "13272i",
            "velocity": 0.5039370078740157
          },
          {
            "duration": 0.1432291666666572,
            "durationTicks": 22,
            "midi": 68,
            "name": "G#4",
            "ticks": 13296,
            "time": "13296i",
            "velocity": 0.5039370078740157
          },
          {
            "duration": 0.1432291666666572,
            "durationTicks": 22,
            "midi": 68,
            "name": "G#4",
            "ticks": 13320,
            "time": "13320i",
            "velocity": 0.5039370078740157
          },
          {
            "duration": 0.29296875,
            "durationTicks": 45,
            "midi": 68,
            "name": "G#4",
            "ticks": 13344,
            "time": "13344i",
            "velocity": 0.5039370078740157
          },
          {
            "duration": 0.1432291666666572,
            "durationTicks": 22,
            "midi": 68,
            "name": "G#4",
            "ticks": 13392,
            "time": "13392i",
            "velocity": 0.5039370078740157
          },
          {
            "duration": 0.8854166666666572,
            "durationTicks": 136,
            "midi": 75,
            "name": "D#5",
            "ticks": 13392,
            "time": "13392i",
            "velocity": 0.5039370078740157
          },
          {
            "duration": 0.1432291666666572,
            "durationTicks": 22,
            "midi": 68,
            "name": "G#4",
            "ticks": 13416,
            "time": "13416i",
            "velocity": 0.5039370078740157
          },
          {
            "duration": 0.1432291666666572,
            "durationTicks": 22,
            "midi": 68,
            "name": "G#4",
            "ticks": 13440,
            "time": "13440i",
            "velocity": 0.5039370078740157
          },
          {
            "duration": 0.1432291666666572,
            "durationTicks": 22,
            "midi": 68,
            "name": "G#4",
            "ticks": 13464,
            "time": "13464i",
            "velocity": 0.5039370078740157
          },
          {
            "duration": 0.29296875,
            "durationTicks": 45,
            "midi": 68,
            "name": "G#4",
            "ticks": 13488,
            "time": "13488i",
            "velocity": 0.5039370078740157
          },
          {
            "duration": 0.29296875,
            "durationTicks": 45,
            "midi": 68,
            "name": "G#4",
            "ticks": 13536,
            "time": "13536i",
            "velocity": 0.5039370078740157
          },
          {
            "duration": 0.8854166666666572,
            "durationTicks": 136,
            "midi": 76,
            "name": "E5",
            "ticks": 13536,
            "time": "13536i",
            "velocity": 0.5039370078740157
          },
          {
            "duration": 0.29296875,
            "durationTicks": 45,
            "midi": 68,
            "name": "G#4",
            "ticks": 13584,
            "time": "13584i",
            "velocity": 0.5196850393700787
          },
          {
            "duration": 0.1432291666666572,
            "durationTicks": 22,
            "midi": 68,
            "name": "G#4",
            "ticks": 13632,
            "time": "13632i",
            "velocity": 0.5433070866141733
          },
          {
            "duration": 0.1432291666666572,
            "durationTicks": 22,
            "midi": 66,
            "name": "F#4",
            "ticks": 13656,
            "time": "13656i",
            "velocity": 0.5511811023622047
          },
          {
            "duration": 0.29296875,
            "durationTicks": 45,
            "midi": 64,
            "name": "E4",
            "ticks": 13680,
            "time": "13680i",
            "velocity": 0.5669291338582677
          },
          {
            "duration": 0.8854166666666572,
            "durationTicks": 136,
            "midi": 78,
            "name": "F#5",
            "ticks": 13680,
            "time": "13680i",
            "velocity": 0.5669291338582677
          },
          {
            "duration": 0.29296875,
            "durationTicks": 45,
            "midi": 68,
            "name": "G#4",
            "ticks": 13728,
            "time": "13728i",
            "velocity": 0.5826771653543307
          },
          {
            "duration": 0.29296875,
            "durationTicks": 45,
            "midi": 71,
            "name": "B4",
            "ticks": 13776,
            "time": "13776i",
            "velocity": 0.6062992125984252
          },
          {
            "duration": 1.2434895833333428,
            "durationTicks": 191,
            "midi": 64,
            "name": "E4",
            "ticks": 13824,
            "time": "13824i",
            "velocity": 0.6299212598425197
          },
          {
            "duration": 1.1848958333333428,
            "durationTicks": 182,
            "midi": 69,
            "name": "A4",
            "ticks": 13833,
            "time": "13833i",
            "velocity": 0.6299212598425197
          },
          {
            "duration": 1.11328125,
            "durationTicks": 171,
            "midi": 73,
            "name": "C#5",
            "ticks": 13844,
            "time": "13844i",
            "velocity": 0.6299212598425197
          },
          {
            "duration": 0.29296875,
            "durationTicks": 45,
            "midi": 73,
            "name": "C#5",
            "ticks": 14016,
            "time": "14016i",
            "velocity": 0.6299212598425197
          },
          {
            "duration": 0.29296875,
            "durationTicks": 45,
            "midi": 64,
            "name": "E4",
            "ticks": 14016,
            "time": "14016i",
            "velocity": 0.6299212598425197
          },
          {
            "duration": 0.29296875,
            "durationTicks": 45,
            "midi": 75,
            "name": "D#5",
            "ticks": 14064,
            "time": "14064i",
            "velocity": 0.6299212598425197
          },
          {
            "duration": 0.29296875,
            "durationTicks": 45,
            "midi": 69,
            "name": "A4",
            "ticks": 14064,
            "time": "14064i",
            "velocity": 0.6299212598425197
          },
          {
            "duration": 1.1848958333333428,
            "durationTicks": 182,
            "midi": 76,
            "name": "E5",
            "ticks": 14112,
            "time": "14112i",
            "velocity": 0.6299212598425197
          },
          {
            "duration": 1.1848958333333428,
            "durationTicks": 182,
            "midi": 73,
            "name": "C#5",
            "ticks": 14112,
            "time": "14112i",
            "velocity": 0.6299212598425197
          },
          {
            "duration": 1.1848958333333428,
            "durationTicks": 182,
            "midi": 69,
            "name": "A4",
            "ticks": 14112,
            "time": "14112i",
            "velocity": 0.6299212598425197
          },
          {
            "duration": 0.29296875,
            "durationTicks": 45,
            "midi": 76,
            "name": "E5",
            "ticks": 14304,
            "time": "14304i",
            "velocity": 0.6299212598425197
          },
          {
            "duration": 0.29296875,
            "durationTicks": 45,
            "midi": 69,
            "name": "A4",
            "ticks": 14304,
            "time": "14304i",
            "velocity": 0.6299212598425197
          },
          {
            "duration": 0.29296875,
            "durationTicks": 45,
            "midi": 78,
            "name": "F#5",
            "ticks": 14352,
            "time": "14352i",
            "velocity": 0.6299212598425197
          },
          {
            "duration": 0.29296875,
            "durationTicks": 45,
            "midi": 68,
            "name": "G#4",
            "ticks": 14352,
            "time": "14352i",
            "velocity": 0.6299212598425197
          },
          {
            "duration": 0.29296875,
            "durationTicks": 45,
            "midi": 75,
            "name": "D#5",
            "ticks": 14400,
            "time": "14400i",
            "velocity": 0.6299212598425197
          },
          {
            "duration": 0.29296875,
            "durationTicks": 45,
            "midi": 68,
            "name": "G#4",
            "ticks": 14400,
            "time": "14400i",
            "velocity": 0.6299212598425197
          },
          {
            "duration": 0.29296875,
            "durationTicks": 45,
            "midi": 73,
            "name": "C#5",
            "ticks": 14448,
            "time": "14448i",
            "velocity": 0.6299212598425197
          },
          {
            "duration": 0.29296875,
            "durationTicks": 45,
            "midi": 71,
            "name": "B4",
            "ticks": 14496,
            "time": "14496i",
            "velocity": 0.6299212598425197
          },
          {
            "duration": 0.29296875,
            "durationTicks": 45,
            "midi": 68,
            "name": "G#4",
            "ticks": 14496,
            "time": "14496i",
            "velocity": 0.6299212598425197
          },
          {
            "duration": 0.5924479166666572,
            "durationTicks": 91,
            "midi": 71,
            "name": "B4",
            "ticks": 14544,
            "time": "14544i",
            "velocity": 0.6299212598425197
          },
          {
            "duration": 0.5924479166666572,
            "durationTicks": 91,
            "midi": 68,
            "name": "G#4",
            "ticks": 14544,
            "time": "14544i",
            "velocity": 0.6299212598425197
          },
          {
            "duration": 0.29296875,
            "durationTicks": 45,
            "midi": 68,
            "name": "G#4",
            "ticks": 14640,
            "time": "14640i",
            "velocity": 0.6299212598425197
          },
          {
            "duration": 0.29296875,
            "durationTicks": 45,
            "midi": 63,
            "name": "D#4",
            "ticks": 14640,
            "time": "14640i",
            "velocity": 0.6299212598425197
          },
          {
            "duration": 0.29296875,
            "durationTicks": 45,
            "midi": 75,
            "name": "D#5",
            "ticks": 14688,
            "time": "14688i",
            "velocity": 0.6299212598425197
          },
          {
            "duration": 0.29296875,
            "durationTicks": 45,
            "midi": 71,
            "name": "B4",
            "ticks": 14688,
            "time": "14688i",
            "velocity": 0.6299212598425197
          },
          {
            "duration": 0.29296875,
            "durationTicks": 45,
            "midi": 68,
            "name": "G#4",
            "ticks": 14688,
            "time": "14688i",
            "velocity": 0.6299212598425197
          },
          {
            "duration": 0.29296875,
            "durationTicks": 45,
            "midi": 63,
            "name": "D#4",
            "ticks": 14688,
            "time": "14688i",
            "velocity": 0.6299212598425197
          },
          {
            "duration": 0.29296875,
            "durationTicks": 45,
            "midi": 73,
            "name": "C#5",
            "ticks": 14736,
            "time": "14736i",
            "velocity": 0.6299212598425197
          },
          {
            "duration": 0.29296875,
            "durationTicks": 45,
            "midi": 71,
            "name": "B4",
            "ticks": 14784,
            "time": "14784i",
            "velocity": 0.6299212598425197
          },
          {
            "duration": 0.29296875,
            "durationTicks": 45,
            "midi": 68,
            "name": "G#4",
            "ticks": 14784,
            "time": "14784i",
            "velocity": 0.6299212598425197
          },
          {
            "duration": 0.29296875,
            "durationTicks": 45,
            "midi": 75,
            "name": "D#5",
            "ticks": 14832,
            "time": "14832i",
            "velocity": 0.6299212598425197
          },
          {
            "duration": 0.29296875,
            "durationTicks": 45,
            "midi": 68,
            "name": "G#4",
            "ticks": 14832,
            "time": "14832i",
            "velocity": 0.6299212598425197
          },
          {
            "duration": 0.29296875,
            "durationTicks": 45,
            "midi": 63,
            "name": "D#4",
            "ticks": 14832,
            "time": "14832i",
            "velocity": 0.6299212598425197
          },
          {
            "duration": 0.29296875,
            "durationTicks": 45,
            "midi": 73,
            "name": "C#5",
            "ticks": 14880,
            "time": "14880i",
            "velocity": 0.6299212598425197
          },
          {
            "duration": 0.29296875,
            "durationTicks": 45,
            "midi": 71,
            "name": "B4",
            "ticks": 14928,
            "time": "14928i",
            "velocity": 0.6299212598425197
          },
          {
            "duration": 0.29296875,
            "durationTicks": 45,
            "midi": 68,
            "name": "G#4",
            "ticks": 14928,
            "time": "14928i",
            "velocity": 0.6299212598425197
          },
          {
            "duration": 0.1432291666666572,
            "durationTicks": 22,
            "midi": 71,
            "name": "B4",
            "ticks": 14976,
            "time": "14976i",
            "velocity": 0.6299212598425197
          },
          {
            "duration": 0.1432291666666572,
            "durationTicks": 22,
            "midi": 66,
            "name": "F#4",
            "ticks": 14976,
            "time": "14976i",
            "velocity": 0.6299212598425197
          },
          {
            "duration": 2.220052083333343,
            "durationTicks": 341,
            "midi": 69,
            "name": "A4",
            "ticks": 15000,
            "time": "15000i",
            "velocity": 0.6299212598425197
          },
          {
            "duration": 2.220052083333343,
            "durationTicks": 341,
            "midi": 66,
            "name": "F#4",
            "ticks": 15000,
            "time": "15000i",
            "velocity": 0.6299212598425197
          },
          {
            "duration": 0.29296875,
            "durationTicks": 45,
            "midi": 73,
            "name": "C#5",
            "ticks": 15360,
            "time": "15360i",
            "velocity": 0.6299212598425197
          },
          {
            "duration": 0.29296875,
            "durationTicks": 45,
            "midi": 64,
            "name": "E4",
            "ticks": 15360,
            "time": "15360i",
            "velocity": 0.6299212598425197
          },
          {
            "duration": 0.29296875,
            "durationTicks": 45,
            "midi": 61,
            "name": "C#4",
            "ticks": 15360,
            "time": "15360i",
            "velocity": 0.6299212598425197
          },
          {
            "duration": 0.29296875,
            "durationTicks": 45,
            "midi": 71,
            "name": "B4",
            "ticks": 15408,
            "time": "15408i",
            "velocity": 0.6299212598425197
          },
          {
            "duration": 0.29296875,
            "durationTicks": 45,
            "midi": 66,
            "name": "F#4",
            "ticks": 15408,
            "time": "15408i",
            "velocity": 0.6299212598425197
          },
          {
            "duration": 0.29296875,
            "durationTicks": 45,
            "midi": 64,
            "name": "E4",
            "ticks": 15408,
            "time": "15408i",
            "velocity": 0.6299212598425197
          },
          {
            "duration": 0.29296875,
            "durationTicks": 45,
            "midi": 61,
            "name": "C#4",
            "ticks": 15408,
            "time": "15408i",
            "velocity": 0.6299212598425197
          },
          {
            "duration": 0.29296875,
            "durationTicks": 45,
            "midi": 69,
            "name": "A4",
            "ticks": 15456,
            "time": "15456i",
            "velocity": 0.6299212598425197
          },
          {
            "duration": 0.29296875,
            "durationTicks": 45,
            "midi": 66,
            "name": "F#4",
            "ticks": 15456,
            "time": "15456i",
            "velocity": 0.6299212598425197
          },
          {
            "duration": 0.29296875,
            "durationTicks": 45,
            "midi": 61,
            "name": "C#4",
            "ticks": 15456,
            "time": "15456i",
            "velocity": 0.6299212598425197
          },
          {
            "duration": 0.1432291666666572,
            "durationTicks": 22,
            "midi": 68,
            "name": "G#4",
            "ticks": 15504,
            "time": "15504i",
            "velocity": 0.6299212598425197
          },
          {
            "duration": 0.1432291666666572,
            "durationTicks": 22,
            "midi": 66,
            "name": "F#4",
            "ticks": 15504,
            "time": "15504i",
            "velocity": 0.6299212598425197
          },
          {
            "duration": 0.1432291666666572,
            "durationTicks": 22,
            "midi": 61,
            "name": "C#4",
            "ticks": 15504,
            "time": "15504i",
            "velocity": 0.6299212598425197
          },
          {
            "duration": 2.51953125,
            "durationTicks": 387,
            "midi": 68,
            "name": "G#4",
            "ticks": 15528,
            "time": "15528i",
            "velocity": 0.6299212598425197
          },
          {
            "duration": 2.51953125,
            "durationTicks": 387,
            "midi": 64,
            "name": "E4",
            "ticks": 15528,
            "time": "15528i",
            "velocity": 0.6299212598425197
          },
          {
            "duration": 2.51953125,
            "durationTicks": 387,
            "midi": 59,
            "name": "B3",
            "ticks": 15528,
            "time": "15528i",
            "velocity": 0.6299212598425197
          },
          {
            "duration": 0.29296875,
            "durationTicks": 45,
            "midi": 66,
            "name": "F#4",
            "ticks": 15936,
            "time": "15936i",
            "velocity": 0.6299212598425197
          },
          {
            "duration": 0.29296875,
            "durationTicks": 45,
            "midi": 64,
            "name": "E4",
            "ticks": 15984,
            "time": "15984i",
            "velocity": 0.6299212598425197
          },
          {
            "duration": 0.29296875,
            "durationTicks": 45,
            "midi": 68,
            "name": "G#4",
            "ticks": 16032,
            "time": "16032i",
            "velocity": 0.6299212598425197
          },
          {
            "duration": 0.29296875,
            "durationTicks": 45,
            "midi": 71,
            "name": "B4",
            "ticks": 16080,
            "time": "16080i",
            "velocity": 0.6299212598425197
          },
          {
            "duration": 1.2434895833333428,
            "durationTicks": 191,
            "midi": 64,
            "name": "E4",
            "ticks": 16128,
            "time": "16128i",
            "velocity": 0.6299212598425197
          },
          {
            "duration": 1.1848958333333428,
            "durationTicks": 182,
            "midi": 69,
            "name": "A4",
            "ticks": 16137,
            "time": "16137i",
            "velocity": 0.6299212598425197
          },
          {
            "duration": 1.11328125,
            "durationTicks": 171,
            "midi": 73,
            "name": "C#5",
            "ticks": 16148,
            "time": "16148i",
            "velocity": 0.6299212598425197
          },
          {
            "duration": 0.29296875,
            "durationTicks": 45,
            "midi": 73,
            "name": "C#5",
            "ticks": 16320,
            "time": "16320i",
            "velocity": 0.6299212598425197
          },
          {
            "duration": 0.29296875,
            "durationTicks": 45,
            "midi": 64,
            "name": "E4",
            "ticks": 16320,
            "time": "16320i",
            "velocity": 0.6299212598425197
          },
          {
            "duration": 0.29296875,
            "durationTicks": 45,
            "midi": 75,
            "name": "D#5",
            "ticks": 16368,
            "time": "16368i",
            "velocity": 0.6299212598425197
          },
          {
            "duration": 0.29296875,
            "durationTicks": 45,
            "midi": 69,
            "name": "A4",
            "ticks": 16368,
            "time": "16368i",
            "velocity": 0.6299212598425197
          },
          {
            "duration": 1.1848958333333428,
            "durationTicks": 182,
            "midi": 76,
            "name": "E5",
            "ticks": 16416,
            "time": "16416i",
            "velocity": 0.6299212598425197
          },
          {
            "duration": 1.1848958333333428,
            "durationTicks": 182,
            "midi": 73,
            "name": "C#5",
            "ticks": 16416,
            "time": "16416i",
            "velocity": 0.6299212598425197
          },
          {
            "duration": 1.1848958333333428,
            "durationTicks": 182,
            "midi": 69,
            "name": "A4",
            "ticks": 16416,
            "time": "16416i",
            "velocity": 0.6299212598425197
          },
          {
            "duration": 0.29296875,
            "durationTicks": 45,
            "midi": 76,
            "name": "E5",
            "ticks": 16608,
            "time": "16608i",
            "velocity": 0.6299212598425197
          },
          {
            "duration": 0.29296875,
            "durationTicks": 45,
            "midi": 69,
            "name": "A4",
            "ticks": 16608,
            "time": "16608i",
            "velocity": 0.6299212598425197
          },
          {
            "duration": 0.29296875,
            "durationTicks": 45,
            "midi": 78,
            "name": "F#5",
            "ticks": 16656,
            "time": "16656i",
            "velocity": 0.6299212598425197
          },
          {
            "duration": 0.29296875,
            "durationTicks": 45,
            "midi": 68,
            "name": "G#4",
            "ticks": 16656,
            "time": "16656i",
            "velocity": 0.6299212598425197
          },
          {
            "duration": 0.29296875,
            "durationTicks": 45,
            "midi": 75,
            "name": "D#5",
            "ticks": 16704,
            "time": "16704i",
            "velocity": 0.6299212598425197
          },
          {
            "duration": 0.29296875,
            "durationTicks": 45,
            "midi": 68,
            "name": "G#4",
            "ticks": 16704,
            "time": "16704i",
            "velocity": 0.6299212598425197
          },
          {
            "duration": 0.29296875,
            "durationTicks": 45,
            "midi": 73,
            "name": "C#5",
            "ticks": 16752,
            "time": "16752i",
            "velocity": 0.6299212598425197
          },
          {
            "duration": 0.29296875,
            "durationTicks": 45,
            "midi": 71,
            "name": "B4",
            "ticks": 16800,
            "time": "16800i",
            "velocity": 0.6299212598425197
          },
          {
            "duration": 0.29296875,
            "durationTicks": 45,
            "midi": 68,
            "name": "G#4",
            "ticks": 16800,
            "time": "16800i",
            "velocity": 0.6299212598425197
          },
          {
            "duration": 0.5924479166666572,
            "durationTicks": 91,
            "midi": 71,
            "name": "B4",
            "ticks": 16848,
            "time": "16848i",
            "velocity": 0.6299212598425197
          },
          {
            "duration": 0.5924479166666572,
            "durationTicks": 91,
            "midi": 68,
            "name": "G#4",
            "ticks": 16848,
            "time": "16848i",
            "velocity": 0.6299212598425197
          },
          {
            "duration": 0.29296875,
            "durationTicks": 45,
            "midi": 68,
            "name": "G#4",
            "ticks": 16944,
            "time": "16944i",
            "velocity": 0.6299212598425197
          },
          {
            "duration": 0.29296875,
            "durationTicks": 45,
            "midi": 63,
            "name": "D#4",
            "ticks": 16944,
            "time": "16944i",
            "velocity": 0.6299212598425197
          },
          {
            "duration": 0.29296875,
            "durationTicks": 45,
            "midi": 75,
            "name": "D#5",
            "ticks": 16992,
            "time": "16992i",
            "velocity": 0.6299212598425197
          },
          {
            "duration": 0.29296875,
            "durationTicks": 45,
            "midi": 71,
            "name": "B4",
            "ticks": 16992,
            "time": "16992i",
            "velocity": 0.6299212598425197
          },
          {
            "duration": 0.29296875,
            "durationTicks": 45,
            "midi": 68,
            "name": "G#4",
            "ticks": 16992,
            "time": "16992i",
            "velocity": 0.6299212598425197
          },
          {
            "duration": 0.29296875,
            "durationTicks": 45,
            "midi": 63,
            "name": "D#4",
            "ticks": 16992,
            "time": "16992i",
            "velocity": 0.6299212598425197
          },
          {
            "duration": 0.29296875,
            "durationTicks": 45,
            "midi": 73,
            "name": "C#5",
            "ticks": 17040,
            "time": "17040i",
            "velocity": 0.6299212598425197
          },
          {
            "duration": 0.29296875,
            "durationTicks": 45,
            "midi": 71,
            "name": "B4",
            "ticks": 17088,
            "time": "17088i",
            "velocity": 0.6299212598425197
          },
          {
            "duration": 0.29296875,
            "durationTicks": 45,
            "midi": 68,
            "name": "G#4",
            "ticks": 17088,
            "time": "17088i",
            "velocity": 0.6299212598425197
          },
          {
            "duration": 0.29296875,
            "durationTicks": 45,
            "midi": 75,
            "name": "D#5",
            "ticks": 17136,
            "time": "17136i",
            "velocity": 0.6299212598425197
          },
          {
            "duration": 0.29296875,
            "durationTicks": 45,
            "midi": 68,
            "name": "G#4",
            "ticks": 17136,
            "time": "17136i",
            "velocity": 0.6299212598425197
          },
          {
            "duration": 0.29296875,
            "durationTicks": 45,
            "midi": 63,
            "name": "D#4",
            "ticks": 17136,
            "time": "17136i",
            "velocity": 0.6299212598425197
          },
          {
            "duration": 0.29296875,
            "durationTicks": 45,
            "midi": 73,
            "name": "C#5",
            "ticks": 17184,
            "time": "17184i",
            "velocity": 0.6299212598425197
          },
          {
            "duration": 0.29296875,
            "durationTicks": 45,
            "midi": 71,
            "name": "B4",
            "ticks": 17232,
            "time": "17232i",
            "velocity": 0.6299212598425197
          },
          {
            "duration": 0.29296875,
            "durationTicks": 45,
            "midi": 68,
            "name": "G#4",
            "ticks": 17232,
            "time": "17232i",
            "velocity": 0.6299212598425197
          },
          {
            "duration": 0.1432291666666572,
            "durationTicks": 22,
            "midi": 71,
            "name": "B4",
            "ticks": 17280,
            "time": "17280i",
            "velocity": 0.6299212598425197
          },
          {
            "duration": 0.1432291666666572,
            "durationTicks": 22,
            "midi": 66,
            "name": "F#4",
            "ticks": 17280,
            "time": "17280i",
            "velocity": 0.6299212598425197
          },
          {
            "duration": 1.71875,
            "durationTicks": 264,
            "midi": 69,
            "name": "A4",
            "ticks": 17304,
            "time": "17304i",
            "velocity": 0.6299212598425197
          },
          {
            "duration": 1.71875,
            "durationTicks": 264,
            "midi": 66,
            "name": "F#4",
            "ticks": 17304,
            "time": "17304i",
            "velocity": 0.6299212598425197
          },
          {
            "duration": 0.5924479166666572,
            "durationTicks": 91,
            "midi": 69,
            "name": "A4",
            "ticks": 17568,
            "time": "17568i",
            "velocity": 0.6299212598425197
          },
          {
            "duration": 0.5924479166666572,
            "durationTicks": 91,
            "midi": 66,
            "name": "F#4",
            "ticks": 17568,
            "time": "17568i",
            "velocity": 0.6299212598425197
          },
          {
            "duration": 0.29296875,
            "durationTicks": 45,
            "midi": 73,
            "name": "C#5",
            "ticks": 17664,
            "time": "17664i",
            "velocity": 0.6299212598425197
          },
          {
            "duration": 0.29296875,
            "durationTicks": 45,
            "midi": 64,
            "name": "E4",
            "ticks": 17664,
            "time": "17664i",
            "velocity": 0.6299212598425197
          },
          {
            "duration": 0.29296875,
            "durationTicks": 45,
            "midi": 61,
            "name": "C#4",
            "ticks": 17664,
            "time": "17664i",
            "velocity": 0.6299212598425197
          },
          {
            "duration": 0.29296875,
            "durationTicks": 45,
            "midi": 71,
            "name": "B4",
            "ticks": 17712,
            "time": "17712i",
            "velocity": 0.6299212598425197
          },
          {
            "duration": 0.29296875,
            "durationTicks": 45,
            "midi": 66,
            "name": "F#4",
            "ticks": 17712,
            "time": "17712i",
            "velocity": 0.6299212598425197
          },
          {
            "duration": 0.29296875,
            "durationTicks": 45,
            "midi": 64,
            "name": "E4",
            "ticks": 17712,
            "time": "17712i",
            "velocity": 0.6299212598425197
          },
          {
            "duration": 0.29296875,
            "durationTicks": 45,
            "midi": 61,
            "name": "C#4",
            "ticks": 17712,
            "time": "17712i",
            "velocity": 0.6299212598425197
          },
          {
            "duration": 0.29296875,
            "durationTicks": 45,
            "midi": 69,
            "name": "A4",
            "ticks": 17760,
            "time": "17760i",
            "velocity": 0.6299212598425197
          },
          {
            "duration": 0.29296875,
            "durationTicks": 45,
            "midi": 66,
            "name": "F#4",
            "ticks": 17760,
            "time": "17760i",
            "velocity": 0.6299212598425197
          },
          {
            "duration": 0.29296875,
            "durationTicks": 45,
            "midi": 61,
            "name": "C#4",
            "ticks": 17760,
            "time": "17760i",
            "velocity": 0.6299212598425197
          },
          {
            "duration": 0.29296875,
            "durationTicks": 45,
            "midi": 68,
            "name": "G#4",
            "ticks": 17808,
            "time": "17808i",
            "velocity": 0.6299212598425197
          },
          {
            "duration": 0.29296875,
            "durationTicks": 45,
            "midi": 66,
            "name": "F#4",
            "ticks": 17808,
            "time": "17808i",
            "velocity": 0.6299212598425197
          },
          {
            "duration": 0.29296875,
            "durationTicks": 45,
            "midi": 61,
            "name": "C#4",
            "ticks": 17808,
            "time": "17808i",
            "velocity": 0.6299212598425197
          },
          {
            "duration": 0.8854166666666572,
            "durationTicks": 136,
            "midi": 68,
            "name": "G#4",
            "ticks": 17856,
            "time": "17856i",
            "velocity": 0.6299212598425197
          },
          {
            "duration": 0.8854166666666572,
            "durationTicks": 136,
            "midi": 63,
            "name": "D#4",
            "ticks": 17856,
            "time": "17856i",
            "velocity": 0.6299212598425197
          },
          {
            "duration": 0.8854166666666572,
            "durationTicks": 136,
            "midi": 60,
            "name": "C4",
            "ticks": 17856,
            "time": "17856i",
            "velocity": 0.6299212598425197
          },
          {
            "duration": 0.8854166666666572,
            "durationTicks": 136,
            "midi": 73,
            "name": "C#5",
            "ticks": 18000,
            "time": "18000i",
            "velocity": 0.6929133858267716
          },
          {
            "duration": 0.8854166666666572,
            "durationTicks": 136,
            "midi": 68,
            "name": "G#4",
            "ticks": 18000,
            "time": "18000i",
            "velocity": 0.6929133858267716
          },
          {
            "duration": 0.8854166666666572,
            "durationTicks": 136,
            "midi": 61,
            "name": "C#4",
            "ticks": 18000,
            "time": "18000i",
            "velocity": 0.6929133858267716
          },
          {
            "duration": 0.8854166666666572,
            "durationTicks": 136,
            "midi": 76,
            "name": "E5",
            "ticks": 18144,
            "time": "18144i",
            "velocity": 0.7559055118110236
          },
          {
            "duration": 0.8854166666666572,
            "durationTicks": 136,
            "midi": 68,
            "name": "G#4",
            "ticks": 18144,
            "time": "18144i",
            "velocity": 0.7559055118110236
          },
          {
            "duration": 0.8854166666666572,
            "durationTicks": 136,
            "midi": 64,
            "name": "E4",
            "ticks": 18144,
            "time": "18144i",
            "velocity": 0.7559055118110236
          },
          {
            "duration": 0.8854166666666572,
            "durationTicks": 136,
            "midi": 78,
            "name": "F#5",
            "ticks": 18288,
            "time": "18288i",
            "velocity": 0.8188976377952756
          },
          {
            "duration": 0.8854166666666572,
            "durationTicks": 136,
            "midi": 72,
            "name": "C5",
            "ticks": 18288,
            "time": "18288i",
            "velocity": 0.8188976377952756
          },
          {
            "duration": 0.8854166666666572,
            "durationTicks": 136,
            "midi": 66,
            "name": "F#4",
            "ticks": 18288,
            "time": "18288i",
            "velocity": 0.8188976377952756
          },
          {
            "duration": 3.561197916666657,
            "durationTicks": 547,
            "midi": 92,
            "name": "G#6",
            "ticks": 18432,
            "time": "18432i",
            "velocity": 0.8818897637795275
          },
          {
            "duration": 3.561197916666657,
            "durationTicks": 547,
            "midi": 88,
            "name": "E6",
            "ticks": 18432,
            "time": "18432i",
            "velocity": 0.8818897637795275
          },
          {
            "duration": 0.46875,
            "durationTicks": 72,
            "midi": 85,
            "name": "C#6",
            "ticks": 18432,
            "time": "18432i",
            "velocity": 0.8818897637795275
          },
          {
            "duration": 0.006510416666657193,
            "durationTicks": 1,
            "midi": 80,
            "name": "G#5",
            "ticks": 18432,
            "time": "18432i",
            "velocity": 0.8818897637795275
          },
          {
            "duration": 0.15625,
            "durationTicks": 24,
            "midi": 80,
            "name": "G#5",
            "ticks": 18432,
            "time": "18432i",
            "velocity": 0.8818897637795275
          },
          {
            "duration": 0.625,
            "durationTicks": 96,
            "midi": 80,
            "name": "G#5",
            "ticks": 18456,
            "time": "18456i",
            "velocity": 0.8818897637795275
          },
          {
            "duration": 0.1432291666666572,
            "durationTicks": 22,
            "midi": 83,
            "name": "B5",
            "ticks": 18480,
            "time": "18480i",
            "velocity": 0.8818897637795275
          },
          {
            "duration": 0.9375,
            "durationTicks": 144,
            "midi": 85,
            "name": "C#6",
            "ticks": 18504,
            "time": "18504i",
            "velocity": 0.8818897637795275
          },
          {
            "duration": 0.1432291666666572,
            "durationTicks": 22,
            "midi": 83,
            "name": "B5",
            "ticks": 18528,
            "time": "18528i",
            "velocity": 0.8818897637795275
          },
          {
            "duration": 0.3125,
            "durationTicks": 48,
            "midi": 80,
            "name": "G#5",
            "ticks": 18552,
            "time": "18552i",
            "velocity": 0.8818897637795275
          },
          {
            "duration": 0.1432291666666572,
            "durationTicks": 22,
            "midi": 78,
            "name": "F#5",
            "ticks": 18576,
            "time": "18576i",
            "velocity": 0.8818897637795275
          },
          {
            "duration": 0.625,
            "durationTicks": 96,
            "midi": 80,
            "name": "G#5",
            "ticks": 18600,
            "time": "18600i",
            "velocity": 0.8818897637795275
          },
          {
            "duration": 0.1432291666666572,
            "durationTicks": 22,
            "midi": 83,
            "name": "B5",
            "ticks": 18624,
            "time": "18624i",
            "velocity": 0.8818897637795275
          },
          {
            "duration": 0.9375,
            "durationTicks": 144,
            "midi": 85,
            "name": "C#6",
            "ticks": 18648,
            "time": "18648i",
            "velocity": 0.8818897637795275
          },
          {
            "duration": 0.1432291666666572,
            "durationTicks": 22,
            "midi": 83,
            "name": "B5",
            "ticks": 18672,
            "time": "18672i",
            "velocity": 0.8818897637795275
          },
          {
            "duration": 0.3125,
            "durationTicks": 48,
            "midi": 80,
            "name": "G#5",
            "ticks": 18696,
            "time": "18696i",
            "velocity": 0.8818897637795275
          },
          {
            "duration": 0.006510416666657193,
            "durationTicks": 1,
            "midi": 78,
            "name": "F#5",
            "ticks": 18720,
            "time": "18720i",
            "velocity": 0.8818897637795275
          },
          {
            "duration": 0.625,
            "durationTicks": 96,
            "midi": 80,
            "name": "G#5",
            "ticks": 18744,
            "time": "18744i",
            "velocity": 0.8818897637795275
          },
          {
            "duration": 0.1432291666666572,
            "durationTicks": 22,
            "midi": 83,
            "name": "B5",
            "ticks": 18768,
            "time": "18768i",
            "velocity": 0.8818897637795275
          },
          {
            "duration": 0.9375,
            "durationTicks": 144,
            "midi": 85,
            "name": "C#6",
            "ticks": 18792,
            "time": "18792i",
            "velocity": 0.8818897637795275
          },
          {
            "duration": 0.1432291666666572,
            "durationTicks": 22,
            "midi": 83,
            "name": "B5",
            "ticks": 18816,
            "time": "18816i",
            "velocity": 0.8818897637795275
          },
          {
            "duration": 0.3125,
            "durationTicks": 48,
            "midi": 80,
            "name": "G#5",
            "ticks": 18840,
            "time": "18840i",
            "velocity": 0.8818897637795275
          },
          {
            "duration": 0.1432291666666572,
            "durationTicks": 22,
            "midi": 78,
            "name": "F#5",
            "ticks": 18864,
            "time": "18864i",
            "velocity": 0.8818897637795275
          },
          {
            "duration": 0.5924479166666572,
            "durationTicks": 91,
            "midi": 80,
            "name": "G#5",
            "ticks": 18888,
            "time": "18888i",
            "velocity": 0.8818897637795275
          },
          {
            "duration": 0.1432291666666572,
            "durationTicks": 22,
            "midi": 83,
            "name": "B5",
            "ticks": 18912,
            "time": "18912i",
            "velocity": 0.8818897637795275
          },
          {
            "duration": 0.2799479166666572,
            "durationTicks": 43,
            "midi": 85,
            "name": "C#6",
            "ticks": 18936,
            "time": "18936i",
            "velocity": 0.8818897637795275
          },
          {
            "duration": 0.1432291666666572,
            "durationTicks": 22,
            "midi": 83,
            "name": "B5",
            "ticks": 18960,
            "time": "18960i",
            "velocity": 0.8818897637795275
          },
          {
            "duration": 0.1432291666666572,
            "durationTicks": 22,
            "midi": 80,
            "name": "G#5",
            "ticks": 18984,
            "time": "18984i",
            "velocity": 0.8818897637795275
          },
          {
            "duration": 0.8854166666666572,
            "durationTicks": 136,
            "midi": 85,
            "name": "C#6",
            "ticks": 19008,
            "time": "19008i",
            "velocity": 0.8818897637795275
          },
          {
            "duration": 0.8854166666666572,
            "durationTicks": 136,
            "midi": 80,
            "name": "G#5",
            "ticks": 19008,
            "time": "19008i",
            "velocity": 0.8818897637795275
          },
          {
            "duration": 0.8854166666666572,
            "durationTicks": 136,
            "midi": 76,
            "name": "E5",
            "ticks": 19008,
            "time": "19008i",
            "velocity": 0.8818897637795275
          },
          {
            "duration": 0.8854166666666572,
            "durationTicks": 136,
            "midi": 73,
            "name": "C#5",
            "ticks": 19008,
            "time": "19008i",
            "velocity": 0.8818897637795275
          },
          {
            "duration": 0.8854166666666572,
            "durationTicks": 136,
            "midi": 87,
            "name": "D#6",
            "ticks": 19152,
            "time": "19152i",
            "velocity": 0.8818897637795275
          },
          {
            "duration": 0.8854166666666572,
            "durationTicks": 136,
            "midi": 80,
            "name": "G#5",
            "ticks": 19152,
            "time": "19152i",
            "velocity": 0.8818897637795275
          },
          {
            "duration": 0.8854166666666572,
            "durationTicks": 136,
            "midi": 75,
            "name": "D#5",
            "ticks": 19152,
            "time": "19152i",
            "velocity": 0.8818897637795275
          },
          {
            "duration": 1.03515625,
            "durationTicks": 159,
            "midi": 88,
            "name": "E6",
            "ticks": 19296,
            "time": "19296i",
            "velocity": 0.8818897637795275
          },
          {
            "duration": 1.03515625,
            "durationTicks": 159,
            "midi": 83,
            "name": "B5",
            "ticks": 19296,
            "time": "19296i",
            "velocity": 0.8818897637795275
          },
          {
            "duration": 1.03515625,
            "durationTicks": 159,
            "midi": 95,
            "name": "B6",
            "ticks": 19307,
            "time": "19307i",
            "velocity": 0.8818897637795275
          },
          {
            "duration": 1.03515625,
            "durationTicks": 159,
            "midi": 90,
            "name": "F#6",
            "ticks": 19440,
            "time": "19440i",
            "velocity": 0.8818897637795275
          },
          {
            "duration": 1.03515625,
            "durationTicks": 159,
            "midi": 81,
            "name": "A5",
            "ticks": 19440,
            "time": "19440i",
            "velocity": 0.8818897637795275
          },
          {
            "duration": 1.03515625,
            "durationTicks": 159,
            "midi": 93,
            "name": "A6",
            "ticks": 19451,
            "time": "19451i",
            "velocity": 0.8818897637795275
          },
          {
            "duration": 3.561197916666657,
            "durationTicks": 547,
            "midi": 92,
            "name": "G#6",
            "ticks": 19584,
            "time": "19584i",
            "velocity": 0.8818897637795275
          },
          {
            "duration": 3.561197916666657,
            "durationTicks": 547,
            "midi": 88,
            "name": "E6",
            "ticks": 19584,
            "time": "19584i",
            "velocity": 0.8818897637795275
          },
          {
            "duration": 3.561197916666657,
            "durationTicks": 547,
            "midi": 87,
            "name": "D#6",
            "ticks": 19584,
            "time": "19584i",
            "velocity": 0.8818897637795275
          },
          {
            "duration": 0.006510416666657193,
            "durationTicks": 1,
            "midi": 80,
            "name": "G#5",
            "ticks": 19584,
            "time": "19584i",
            "velocity": 0.8818897637795275
          },
          {
            "duration": 0.46875,
            "durationTicks": 72,
            "midi": 80,
            "name": "G#5",
            "ticks": 19584,
            "time": "19584i",
            "velocity": 0.8818897637795275
          },
          {
            "duration": 0.1432291666666572,
            "durationTicks": 22,
            "midi": 76,
            "name": "E5",
            "ticks": 19608,
            "time": "19608i",
            "velocity": 0.8818897637795275
          },
          {
            "duration": 0.1432291666666572,
            "durationTicks": 22,
            "midi": 78,
            "name": "F#5",
            "ticks": 19632,
            "time": "19632i",
            "velocity": 0.8818897637795275
          },
          {
            "duration": 0.9375,
            "durationTicks": 144,
            "midi": 80,
            "name": "G#5",
            "ticks": 19656,
            "time": "19656i",
            "velocity": 0.8818897637795275
          },
          {
            "duration": 0.1432291666666572,
            "durationTicks": 22,
            "midi": 78,
            "name": "F#5",
            "ticks": 19680,
            "time": "19680i",
            "velocity": 0.8818897637795275
          },
          {
            "duration": 0.1432291666666572,
            "durationTicks": 22,
            "midi": 76,
            "name": "E5",
            "ticks": 19704,
            "time": "19704i",
            "velocity": 0.8818897637795275
          },
          {
            "duration": 0.1432291666666572,
            "durationTicks": 22,
            "midi": 75,
            "name": "D#5",
            "ticks": 19728,
            "time": "19728i",
            "velocity": 0.8818897637795275
          },
          {
            "duration": 0.1432291666666572,
            "durationTicks": 22,
            "midi": 76,
            "name": "E5",
            "ticks": 19752,
            "time": "19752i",
            "velocity": 0.8818897637795275
          },
          {
            "duration": 0.1432291666666572,
            "durationTicks": 22,
            "midi": 78,
            "name": "F#5",
            "ticks": 19776,
            "time": "19776i",
            "velocity": 0.8818897637795275
          },
          {
            "duration": 0.9375,
            "durationTicks": 144,
            "midi": 80,
            "name": "G#5",
            "ticks": 19800,
            "time": "19800i",
            "velocity": 0.8818897637795275
          },
          {
            "duration": 0.1432291666666572,
            "durationTicks": 22,
            "midi": 78,
            "name": "F#5",
            "ticks": 19824,
            "time": "19824i",
            "velocity": 0.8818897637795275
          },
          {
            "duration": 0.1432291666666572,
            "durationTicks": 22,
            "midi": 76,
            "name": "E5",
            "ticks": 19848,
            "time": "19848i",
            "velocity": 0.8818897637795275
          },
          {
            "duration": 0.006510416666657193,
            "durationTicks": 1,
            "midi": 75,
            "name": "D#5",
            "ticks": 19872,
            "time": "19872i",
            "velocity": 0.8818897637795275
          },
          {
            "duration": 0.1432291666666572,
            "durationTicks": 22,
            "midi": 76,
            "name": "E5",
            "ticks": 19896,
            "time": "19896i",
            "velocity": 0.8818897637795275
          },
          {
            "duration": 0.1432291666666572,
            "durationTicks": 22,
            "midi": 78,
            "name": "F#5",
            "ticks": 19920,
            "time": "19920i",
            "velocity": 0.8818897637795275
          },
          {
            "duration": 0.9375,
            "durationTicks": 144,
            "midi": 80,
            "name": "G#5",
            "ticks": 19944,
            "time": "19944i",
            "velocity": 0.8818897637795275
          },
          {
            "duration": 0.1432291666666572,
            "durationTicks": 22,
            "midi": 78,
            "name": "F#5",
            "ticks": 19968,
            "time": "19968i",
            "velocity": 0.8818897637795275
          },
          {
            "duration": 0.1432291666666572,
            "durationTicks": 22,
            "midi": 76,
            "name": "E5",
            "ticks": 19992,
            "time": "19992i",
            "velocity": 0.8818897637795275
          },
          {
            "duration": 0.1432291666666572,
            "durationTicks": 22,
            "midi": 75,
            "name": "D#5",
            "ticks": 20016,
            "time": "20016i",
            "velocity": 0.8818897637795275
          },
          {
            "duration": 0.1432291666666572,
            "durationTicks": 22,
            "midi": 76,
            "name": "E5",
            "ticks": 20040,
            "time": "20040i",
            "velocity": 0.8818897637795275
          },
          {
            "duration": 0.1432291666666572,
            "durationTicks": 22,
            "midi": 78,
            "name": "F#5",
            "ticks": 20064,
            "time": "20064i",
            "velocity": 0.8818897637795275
          },
          {
            "duration": 0.2799479166666572,
            "durationTicks": 43,
            "midi": 80,
            "name": "G#5",
            "ticks": 20088,
            "time": "20088i",
            "velocity": 0.8818897637795275
          },
          {
            "duration": 0.1432291666666572,
            "durationTicks": 22,
            "midi": 78,
            "name": "F#5",
            "ticks": 20112,
            "time": "20112i",
            "velocity": 0.8818897637795275
          },
          {
            "duration": 0.1432291666666572,
            "durationTicks": 22,
            "midi": 76,
            "name": "E5",
            "ticks": 20136,
            "time": "20136i",
            "velocity": 0.8818897637795275
          },
          {
            "duration": 0.1432291666666572,
            "durationTicks": 22,
            "midi": 75,
            "name": "D#5",
            "ticks": 20160,
            "time": "20160i",
            "velocity": 0.8818897637795275
          },
          {
            "duration": 0.1432291666666572,
            "durationTicks": 22,
            "midi": 76,
            "name": "E5",
            "ticks": 20184,
            "time": "20184i",
            "velocity": 0.8818897637795275
          },
          {
            "duration": 0.1432291666666572,
            "durationTicks": 22,
            "midi": 78,
            "name": "F#5",
            "ticks": 20208,
            "time": "20208i",
            "velocity": 0.8818897637795275
          },
          {
            "duration": 0.1432291666666572,
            "durationTicks": 22,
            "midi": 80,
            "name": "G#5",
            "ticks": 20232,
            "time": "20232i",
            "velocity": 0.8818897637795275
          },
          {
            "duration": 0.1432291666666572,
            "durationTicks": 22,
            "midi": 78,
            "name": "F#5",
            "ticks": 20256,
            "time": "20256i",
            "velocity": 0.8818897637795275
          },
          {
            "duration": 0.1432291666666572,
            "durationTicks": 22,
            "midi": 76,
            "name": "E5",
            "ticks": 20280,
            "time": "20280i",
            "velocity": 0.8818897637795275
          },
          {
            "duration": 0.8854166666666572,
            "durationTicks": 136,
            "midi": 87,
            "name": "D#6",
            "ticks": 20304,
            "time": "20304i",
            "velocity": 0.8818897637795275
          },
          {
            "duration": 0.1432291666666572,
            "durationTicks": 22,
            "midi": 75,
            "name": "D#5",
            "ticks": 20304,
            "time": "20304i",
            "velocity": 0.8818897637795275
          },
          {
            "duration": 0.1432291666666572,
            "durationTicks": 22,
            "midi": 76,
            "name": "E5",
            "ticks": 20328,
            "time": "20328i",
            "velocity": 0.8818897637795275
          },
          {
            "duration": 0.1432291666666572,
            "durationTicks": 22,
            "midi": 78,
            "name": "F#5",
            "ticks": 20352,
            "time": "20352i",
            "velocity": 0.8818897637795275
          },
          {
            "duration": 0.1432291666666572,
            "durationTicks": 22,
            "midi": 80,
            "name": "G#5",
            "ticks": 20376,
            "time": "20376i",
            "velocity": 0.8818897637795275
          },
          {
            "duration": 0.1432291666666572,
            "durationTicks": 22,
            "midi": 78,
            "name": "F#5",
            "ticks": 20400,
            "time": "20400i",
            "velocity": 0.8818897637795275
          },
          {
            "duration": 0.1432291666666572,
            "durationTicks": 22,
            "midi": 76,
            "name": "E5",
            "ticks": 20424,
            "time": "20424i",
            "velocity": 0.8818897637795275
          },
          {
            "duration": 0.8854166666666572,
            "durationTicks": 136,
            "midi": 88,
            "name": "E6",
            "ticks": 20448,
            "time": "20448i",
            "velocity": 0.8818897637795275
          },
          {
            "duration": 0.1432291666666572,
            "durationTicks": 22,
            "midi": 76,
            "name": "E5",
            "ticks": 20448,
            "time": "20448i",
            "velocity": 0.8818897637795275
          },
          {
            "duration": 0.1432291666666572,
            "durationTicks": 22,
            "midi": 76,
            "name": "E5",
            "ticks": 20472,
            "time": "20472i",
            "velocity": 0.8818897637795275
          },
          {
            "duration": 0.1432291666666572,
            "durationTicks": 22,
            "midi": 78,
            "name": "F#5",
            "ticks": 20496,
            "time": "20496i",
            "velocity": 0.8818897637795275
          },
          {
            "duration": 0.1432291666666572,
            "durationTicks": 22,
            "midi": 80,
            "name": "G#5",
            "ticks": 20520,
            "time": "20520i",
            "velocity": 0.8818897637795275
          },
          {
            "duration": 0.1432291666666572,
            "durationTicks": 22,
            "midi": 78,
            "name": "F#5",
            "ticks": 20544,
            "time": "20544i",
            "velocity": 0.8818897637795275
          },
          {
            "duration": 0.1432291666666572,
            "durationTicks": 22,
            "midi": 76,
            "name": "E5",
            "ticks": 20568,
            "time": "20568i",
            "velocity": 0.8818897637795275
          },
          {
            "duration": 0.8854166666666572,
            "durationTicks": 136,
            "midi": 90,
            "name": "F#6",
            "ticks": 20592,
            "time": "20592i",
            "velocity": 0.8818897637795275
          },
          {
            "duration": 0.1432291666666572,
            "durationTicks": 22,
            "midi": 78,
            "name": "F#5",
            "ticks": 20592,
            "time": "20592i",
            "velocity": 0.8818897637795275
          },
          {
            "duration": 0.1432291666666572,
            "durationTicks": 22,
            "midi": 76,
            "name": "E5",
            "ticks": 20616,
            "time": "20616i",
            "velocity": 0.8818897637795275
          },
          {
            "duration": 0.1432291666666572,
            "durationTicks": 22,
            "midi": 78,
            "name": "F#5",
            "ticks": 20640,
            "time": "20640i",
            "velocity": 0.8818897637795275
          },
          {
            "duration": 0.1432291666666572,
            "durationTicks": 22,
            "midi": 80,
            "name": "G#5",
            "ticks": 20664,
            "time": "20664i",
            "velocity": 0.8818897637795275
          },
          {
            "duration": 0.1432291666666572,
            "durationTicks": 22,
            "midi": 78,
            "name": "F#5",
            "ticks": 20688,
            "time": "20688i",
            "velocity": 0.8818897637795275
          },
          {
            "duration": 0.1432291666666572,
            "durationTicks": 22,
            "midi": 76,
            "name": "E5",
            "ticks": 20712,
            "time": "20712i",
            "velocity": 0.8818897637795275
          },
          {
            "duration": 0.006510416666657193,
            "durationTicks": 1,
            "midi": 80,
            "name": "G#5",
            "ticks": 20736,
            "time": "20736i",
            "velocity": 0.8818897637795275
          },
          {
            "duration": 0.15625,
            "durationTicks": 24,
            "midi": 80,
            "name": "G#5",
            "ticks": 20736,
            "time": "20736i",
            "velocity": 0.8818897637795275
          },
          {
            "duration": 0.46875,
            "durationTicks": 72,
            "midi": 85,
            "name": "C#6",
            "ticks": 20736,
            "time": "20736i",
            "velocity": 0.8818897637795275
          },
          {
            "duration": 3.561197916666657,
            "durationTicks": 547,
            "midi": 88,
            "name": "E6",
            "ticks": 20736,
            "time": "20736i",
            "velocity": 0.8818897637795275
          },
          {
            "duration": 3.561197916666657,
            "durationTicks": 547,
            "midi": 92,
            "name": "G#6",
            "ticks": 20736,
            "time": "20736i",
            "velocity": 0.8818897637795275
          },
          {
            "duration": 0.625,
            "durationTicks": 96,
            "midi": 80,
            "name": "G#5",
            "ticks": 20760,
            "time": "20760i",
            "velocity": 0.8818897637795275
          },
          {
            "duration": 0.1432291666666572,
            "durationTicks": 22,
            "midi": 83,
            "name": "B5",
            "ticks": 20784,
            "time": "20784i",
            "velocity": 0.8818897637795275
          },
          {
            "duration": 0.9375,
            "durationTicks": 144,
            "midi": 85,
            "name": "C#6",
            "ticks": 20808,
            "time": "20808i",
            "velocity": 0.8818897637795275
          },
          {
            "duration": 0.1432291666666572,
            "durationTicks": 22,
            "midi": 83,
            "name": "B5",
            "ticks": 20832,
            "time": "20832i",
            "velocity": 0.8818897637795275
          },
          {
            "duration": 0.3125,
            "durationTicks": 48,
            "midi": 80,
            "name": "G#5",
            "ticks": 20856,
            "time": "20856i",
            "velocity": 0.8818897637795275
          },
          {
            "duration": 0.1432291666666572,
            "durationTicks": 22,
            "midi": 78,
            "name": "F#5",
            "ticks": 20880,
            "time": "20880i",
            "velocity": 0.8818897637795275
          },
          {
            "duration": 0.625,
            "durationTicks": 96,
            "midi": 80,
            "name": "G#5",
            "ticks": 20904,
            "time": "20904i",
            "velocity": 0.8818897637795275
          },
          {
            "duration": 0.1432291666666572,
            "durationTicks": 22,
            "midi": 83,
            "name": "B5",
            "ticks": 20928,
            "time": "20928i",
            "velocity": 0.8818897637795275
          },
          {
            "duration": 0.9375,
            "durationTicks": 144,
            "midi": 85,
            "name": "C#6",
            "ticks": 20952,
            "time": "20952i",
            "velocity": 0.8818897637795275
          },
          {
            "duration": 0.1432291666666572,
            "durationTicks": 22,
            "midi": 83,
            "name": "B5",
            "ticks": 20976,
            "time": "20976i",
            "velocity": 0.8818897637795275
          },
          {
            "duration": 0.3125,
            "durationTicks": 48,
            "midi": 80,
            "name": "G#5",
            "ticks": 21000,
            "time": "21000i",
            "velocity": 0.8818897637795275
          },
          {
            "duration": 0.1432291666666572,
            "durationTicks": 22,
            "midi": 78,
            "name": "F#5",
            "ticks": 21024,
            "time": "21024i",
            "velocity": 0.8818897637795275
          },
          {
            "duration": 0.625,
            "durationTicks": 96,
            "midi": 80,
            "name": "G#5",
            "ticks": 21048,
            "time": "21048i",
            "velocity": 0.8818897637795275
          },
          {
            "duration": 0.1432291666666572,
            "durationTicks": 22,
            "midi": 83,
            "name": "B5",
            "ticks": 21072,
            "time": "21072i",
            "velocity": 0.8818897637795275
          },
          {
            "duration": 0.9375,
            "durationTicks": 144,
            "midi": 85,
            "name": "C#6",
            "ticks": 21096,
            "time": "21096i",
            "velocity": 0.8818897637795275
          },
          {
            "duration": 0.1432291666666572,
            "durationTicks": 22,
            "midi": 83,
            "name": "B5",
            "ticks": 21120,
            "time": "21120i",
            "velocity": 0.8818897637795275
          },
          {
            "duration": 0.3125,
            "durationTicks": 48,
            "midi": 80,
            "name": "G#5",
            "ticks": 21144,
            "time": "21144i",
            "velocity": 0.8818897637795275
          },
          {
            "duration": 0.1432291666666572,
            "durationTicks": 22,
            "midi": 78,
            "name": "F#5",
            "ticks": 21168,
            "time": "21168i",
            "velocity": 0.8818897637795275
          },
          {
            "duration": 0.5924479166666572,
            "durationTicks": 91,
            "midi": 80,
            "name": "G#5",
            "ticks": 21192,
            "time": "21192i",
            "velocity": 0.8818897637795275
          },
          {
            "duration": 0.1432291666666572,
            "durationTicks": 22,
            "midi": 83,
            "name": "B5",
            "ticks": 21216,
            "time": "21216i",
            "velocity": 0.8818897637795275
          },
          {
            "duration": 0.2799479166666572,
            "durationTicks": 43,
            "midi": 85,
            "name": "C#6",
            "ticks": 21240,
            "time": "21240i",
            "velocity": 0.8818897637795275
          },
          {
            "duration": 0.1432291666666572,
            "durationTicks": 22,
            "midi": 83,
            "name": "B5",
            "ticks": 21264,
            "time": "21264i",
            "velocity": 0.8818897637795275
          },
          {
            "duration": 0.1432291666666572,
            "durationTicks": 22,
            "midi": 80,
            "name": "G#5",
            "ticks": 21288,
            "time": "21288i",
            "velocity": 0.8818897637795275
          },
          {
            "duration": 0.8854166666666572,
            "durationTicks": 136,
            "midi": 73,
            "name": "C#5",
            "ticks": 21312,
            "time": "21312i",
            "velocity": 0.8818897637795275
          },
          {
            "duration": 0.8854166666666572,
            "durationTicks": 136,
            "midi": 76,
            "name": "E5",
            "ticks": 21312,
            "time": "21312i",
            "velocity": 0.8818897637795275
          },
          {
            "duration": 0.8854166666666572,
            "durationTicks": 136,
            "midi": 80,
            "name": "G#5",
            "ticks": 21312,
            "time": "21312i",
            "velocity": 0.8818897637795275
          },
          {
            "duration": 0.8854166666666572,
            "durationTicks": 136,
            "midi": 85,
            "name": "C#6",
            "ticks": 21312,
            "time": "21312i",
            "velocity": 0.8818897637795275
          },
          {
            "duration": 0.8854166666666572,
            "durationTicks": 136,
            "midi": 75,
            "name": "D#5",
            "ticks": 21456,
            "time": "21456i",
            "velocity": 0.8818897637795275
          },
          {
            "duration": 0.8854166666666572,
            "durationTicks": 136,
            "midi": 80,
            "name": "G#5",
            "ticks": 21456,
            "time": "21456i",
            "velocity": 0.8818897637795275
          },
          {
            "duration": 0.8854166666666572,
            "durationTicks": 136,
            "midi": 87,
            "name": "D#6",
            "ticks": 21456,
            "time": "21456i",
            "velocity": 0.8818897637795275
          },
          {
            "duration": 1.11328125,
            "durationTicks": 171,
            "midi": 83,
            "name": "B5",
            "ticks": 21600,
            "time": "21600i",
            "velocity": 0.8818897637795275
          },
          {
            "duration": 1.11328125,
            "durationTicks": 171,
            "midi": 88,
            "name": "E6",
            "ticks": 21600,
            "time": "21600i",
            "velocity": 0.8818897637795275
          },
          {
            "duration": 1.11328125,
            "durationTicks": 171,
            "midi": 95,
            "name": "B6",
            "ticks": 21611,
            "time": "21611i",
            "velocity": 0.8818897637795275
          },
          {
            "duration": 1.11328125,
            "durationTicks": 171,
            "midi": 81,
            "name": "A5",
            "ticks": 21744,
            "time": "21744i",
            "velocity": 0.8818897637795275
          },
          {
            "duration": 1.11328125,
            "durationTicks": 171,
            "midi": 90,
            "name": "F#6",
            "ticks": 21744,
            "time": "21744i",
            "velocity": 0.8818897637795275
          },
          {
            "duration": 1.11328125,
            "durationTicks": 171,
            "midi": 93,
            "name": "A6",
            "ticks": 21755,
            "time": "21755i",
            "velocity": 0.8818897637795275
          },
          {
            "duration": 0.006510416666657193,
            "durationTicks": 1,
            "midi": 80,
            "name": "G#5",
            "ticks": 21888,
            "time": "21888i",
            "velocity": 0.8818897637795275
          },
          {
            "duration": 0.46875,
            "durationTicks": 72,
            "midi": 80,
            "name": "G#5",
            "ticks": 21888,
            "time": "21888i",
            "velocity": 0.8818897637795275
          },
          {
            "duration": 3.561197916666657,
            "durationTicks": 547,
            "midi": 87,
            "name": "D#6",
            "ticks": 21888,
            "time": "21888i",
            "velocity": 0.8818897637795275
          },
          {
            "duration": 3.561197916666657,
            "durationTicks": 547,
            "midi": 88,
            "name": "E6",
            "ticks": 21888,
            "time": "21888i",
            "velocity": 0.8818897637795275
          },
          {
            "duration": 3.561197916666657,
            "durationTicks": 547,
            "midi": 92,
            "name": "G#6",
            "ticks": 21888,
            "time": "21888i",
            "velocity": 0.8818897637795275
          },
          {
            "duration": 0.1432291666666572,
            "durationTicks": 22,
            "midi": 76,
            "name": "E5",
            "ticks": 21912,
            "time": "21912i",
            "velocity": 0.8818897637795275
          },
          {
            "duration": 0.1432291666666572,
            "durationTicks": 22,
            "midi": 78,
            "name": "F#5",
            "ticks": 21936,
            "time": "21936i",
            "velocity": 0.8818897637795275
          },
          {
            "duration": 0.9375,
            "durationTicks": 144,
            "midi": 80,
            "name": "G#5",
            "ticks": 21960,
            "time": "21960i",
            "velocity": 0.8818897637795275
          },
          {
            "duration": 0.1432291666666572,
            "durationTicks": 22,
            "midi": 78,
            "name": "F#5",
            "ticks": 21984,
            "time": "21984i",
            "velocity": 0.8818897637795275
          },
          {
            "duration": 0.1432291666666572,
            "durationTicks": 22,
            "midi": 76,
            "name": "E5",
            "ticks": 22008,
            "time": "22008i",
            "velocity": 0.8818897637795275
          },
          {
            "duration": 0.1432291666666572,
            "durationTicks": 22,
            "midi": 75,
            "name": "D#5",
            "ticks": 22032,
            "time": "22032i",
            "velocity": 0.8818897637795275
          },
          {
            "duration": 0.1432291666666572,
            "durationTicks": 22,
            "midi": 76,
            "name": "E5",
            "ticks": 22056,
            "time": "22056i",
            "velocity": 0.8818897637795275
          },
          {
            "duration": 0.1432291666666572,
            "durationTicks": 22,
            "midi": 78,
            "name": "F#5",
            "ticks": 22080,
            "time": "22080i",
            "velocity": 0.8818897637795275
          },
          {
            "duration": 0.9375,
            "durationTicks": 144,
            "midi": 80,
            "name": "G#5",
            "ticks": 22104,
            "time": "22104i",
            "velocity": 0.8818897637795275
          },
          {
            "duration": 0.1432291666666572,
            "durationTicks": 22,
            "midi": 78,
            "name": "F#5",
            "ticks": 22128,
            "time": "22128i",
            "velocity": 0.8818897637795275
          },
          {
            "duration": 0.1432291666666572,
            "durationTicks": 22,
            "midi": 76,
            "name": "E5",
            "ticks": 22152,
            "time": "22152i",
            "velocity": 0.8818897637795275
          },
          {
            "duration": 0.006510416666657193,
            "durationTicks": 1,
            "midi": 75,
            "name": "D#5",
            "ticks": 22176,
            "time": "22176i",
            "velocity": 0.8818897637795275
          },
          {
            "duration": 0.1432291666666572,
            "durationTicks": 22,
            "midi": 76,
            "name": "E5",
            "ticks": 22200,
            "time": "22200i",
            "velocity": 0.8818897637795275
          },
          {
            "duration": 0.1432291666666572,
            "durationTicks": 22,
            "midi": 78,
            "name": "F#5",
            "ticks": 22224,
            "time": "22224i",
            "velocity": 0.8818897637795275
          },
          {
            "duration": 0.9375,
            "durationTicks": 144,
            "midi": 80,
            "name": "G#5",
            "ticks": 22248,
            "time": "22248i",
            "velocity": 0.8818897637795275
          },
          {
            "duration": 0.1432291666666572,
            "durationTicks": 22,
            "midi": 78,
            "name": "F#5",
            "ticks": 22272,
            "time": "22272i",
            "velocity": 0.8818897637795275
          },
          {
            "duration": 0.1432291666666572,
            "durationTicks": 22,
            "midi": 76,
            "name": "E5",
            "ticks": 22296,
            "time": "22296i",
            "velocity": 0.8818897637795275
          },
          {
            "duration": 0.1432291666666572,
            "durationTicks": 22,
            "midi": 75,
            "name": "D#5",
            "ticks": 22320,
            "time": "22320i",
            "velocity": 0.8818897637795275
          },
          {
            "duration": 0.1432291666666572,
            "durationTicks": 22,
            "midi": 76,
            "name": "E5",
            "ticks": 22344,
            "time": "22344i",
            "velocity": 0.8818897637795275
          },
          {
            "duration": 0.1432291666666572,
            "durationTicks": 22,
            "midi": 78,
            "name": "F#5",
            "ticks": 22368,
            "time": "22368i",
            "velocity": 0.8818897637795275
          },
          {
            "duration": 0.2799479166666572,
            "durationTicks": 43,
            "midi": 80,
            "name": "G#5",
            "ticks": 22392,
            "time": "22392i",
            "velocity": 0.8818897637795275
          },
          {
            "duration": 0.1432291666666572,
            "durationTicks": 22,
            "midi": 78,
            "name": "F#5",
            "ticks": 22416,
            "time": "22416i",
            "velocity": 0.8818897637795275
          },
          {
            "duration": 0.1432291666666572,
            "durationTicks": 22,
            "midi": 76,
            "name": "E5",
            "ticks": 22440,
            "time": "22440i",
            "velocity": 0.8818897637795275
          },
          {
            "duration": 0.1432291666666572,
            "durationTicks": 22,
            "midi": 75,
            "name": "D#5",
            "ticks": 22464,
            "time": "22464i",
            "velocity": 0.8818897637795275
          },
          {
            "duration": 0.1432291666666572,
            "durationTicks": 22,
            "midi": 76,
            "name": "E5",
            "ticks": 22488,
            "time": "22488i",
            "velocity": 0.8661417322834646
          },
          {
            "duration": 0.1432291666666572,
            "durationTicks": 22,
            "midi": 78,
            "name": "F#5",
            "ticks": 22512,
            "time": "22512i",
            "velocity": 0.84251968503937
          },
          {
            "duration": 0.1432291666666572,
            "durationTicks": 22,
            "midi": 80,
            "name": "G#5",
            "ticks": 22536,
            "time": "22536i",
            "velocity": 0.8267716535433071
          },
          {
            "duration": 0.1432291666666572,
            "durationTicks": 22,
            "midi": 78,
            "name": "F#5",
            "ticks": 22560,
            "time": "22560i",
            "velocity": 0.8031496062992126
          },
          {
            "duration": 0.1432291666666572,
            "durationTicks": 22,
            "midi": 76,
            "name": "E5",
            "ticks": 22584,
            "time": "22584i",
            "velocity": 0.7795275590551181
          },
          {
            "duration": 0.1432291666666572,
            "durationTicks": 22,
            "midi": 75,
            "name": "D#5",
            "ticks": 22608,
            "time": "22608i",
            "velocity": 0.7637795275590551
          },
          {
            "duration": 0.1432291666666572,
            "durationTicks": 22,
            "midi": 76,
            "name": "E5",
            "ticks": 22632,
            "time": "22632i",
            "velocity": 0.7401574803149606
          },
          {
            "duration": 0.1432291666666572,
            "durationTicks": 22,
            "midi": 78,
            "name": "F#5",
            "ticks": 22656,
            "time": "22656i",
            "velocity": 0.7165354330708661
          },
          {
            "duration": 0.1432291666666572,
            "durationTicks": 22,
            "midi": 80,
            "name": "G#5",
            "ticks": 22680,
            "time": "22680i",
            "velocity": 0.7007874015748031
          },
          {
            "duration": 0.1432291666666572,
            "durationTicks": 22,
            "midi": 78,
            "name": "F#5",
            "ticks": 22704,
            "time": "22704i",
            "velocity": 0.6771653543307087
          },
          {
            "duration": 0.1432291666666572,
            "durationTicks": 22,
            "midi": 76,
            "name": "E5",
            "ticks": 22728,
            "time": "22728i",
            "velocity": 0.6614173228346457
          },
          {
            "duration": 0.8854166666666572,
            "durationTicks": 136,
            "midi": 88,
            "name": "E6",
            "ticks": 22752,
            "time": "22752i",
            "velocity": 0.6377952755905512
          },
          {
            "duration": 0.1432291666666572,
            "durationTicks": 22,
            "midi": 76,
            "name": "E5",
            "ticks": 22752,
            "time": "22752i",
            "velocity": 0.6377952755905512
          },
          {
            "duration": 0.1432291666666572,
            "durationTicks": 22,
            "midi": 76,
            "name": "E5",
            "ticks": 22776,
            "time": "22776i",
            "velocity": 0.6141732283464567
          },
          {
            "duration": 0.1432291666666572,
            "durationTicks": 22,
            "midi": 78,
            "name": "F#5",
            "ticks": 22800,
            "time": "22800i",
            "velocity": 0.5984251968503937
          },
          {
            "duration": 0.1432291666666572,
            "durationTicks": 22,
            "midi": 80,
            "name": "G#5",
            "ticks": 22824,
            "time": "22824i",
            "velocity": 0.5748031496062992
          },
          {
            "duration": 0.1432291666666572,
            "durationTicks": 22,
            "midi": 78,
            "name": "F#5",
            "ticks": 22848,
            "time": "22848i",
            "velocity": 0.5511811023622047
          },
          {
            "duration": 0.1432291666666572,
            "durationTicks": 22,
            "midi": 76,
            "name": "E5",
            "ticks": 22872,
            "time": "22872i",
            "velocity": 0.5354330708661418
          },
          {
            "duration": 0.8854166666666572,
            "durationTicks": 136,
            "midi": 90,
            "name": "F#6",
            "ticks": 22896,
            "time": "22896i",
            "velocity": 0.5118110236220472
          },
          {
            "duration": 0.1432291666666572,
            "durationTicks": 22,
            "midi": 78,
            "name": "F#5",
            "ticks": 22896,
            "time": "22896i",
            "velocity": 0.5118110236220472
          },
          {
            "duration": 0.1432291666666572,
            "durationTicks": 22,
            "midi": 76,
            "name": "E5",
            "ticks": 22920,
            "time": "22920i",
            "velocity": 0.49606299212598426
          },
          {
            "duration": 0.1432291666666572,
            "durationTicks": 22,
            "midi": 78,
            "name": "F#5",
            "ticks": 22944,
            "time": "22944i",
            "velocity": 0.47244094488188976
          },
          {
            "duration": 0.1432291666666572,
            "durationTicks": 22,
            "midi": 80,
            "name": "G#5",
            "ticks": 22968,
            "time": "22968i",
            "velocity": 0.44881889763779526
          },
          {
            "duration": 0.1432291666666572,
            "durationTicks": 22,
            "midi": 78,
            "name": "F#5",
            "ticks": 22992,
            "time": "22992i",
            "velocity": 0.4330708661417323
          },
          {
            "duration": 0.1432291666666572,
            "durationTicks": 22,
            "midi": 76,
            "name": "E5",
            "ticks": 23016,
            "time": "23016i",
            "velocity": 0.4094488188976378
          },
          {
            "duration": 3.65234375,
            "durationTicks": 561,
            "midi": 80,
            "name": "G#5",
            "ticks": 23040,
            "time": "23040i",
            "velocity": 0.3858267716535433
          },
          {
            "duration": 3.626302083333343,
            "durationTicks": 557,
            "midi": 85,
            "name": "C#6",
            "ticks": 23044,
            "time": "23044i",
            "velocity": 0.3858267716535433
          },
          {
            "duration": 3.587239583333343,
            "durationTicks": 551,
            "midi": 88,
            "name": "E6",
            "ticks": 23050,
            "time": "23050i",
            "velocity": 0.3858267716535433
          },
          {
            "duration": 3.561197916666657,
            "durationTicks": 547,
            "midi": 92,
            "name": "G#6",
            "ticks": 23054,
            "time": "23054i",
            "velocity": 0.3858267716535433
          },
          {
            "duration": 0.8854166666666572,
            "durationTicks": 136,
            "midi": 85,
            "name": "C#6",
            "ticks": 23616,
            "time": "23616i",
            "velocity": 0.3858267716535433
          },
          {
            "duration": 0.8854166666666572,
            "durationTicks": 136,
            "midi": 73,
            "name": "C#5",
            "ticks": 23616,
            "time": "23616i",
            "velocity": 0.3858267716535433
          },
          {
            "duration": 0.8854166666666572,
            "durationTicks": 136,
            "midi": 87,
            "name": "D#6",
            "ticks": 23760,
            "time": "23760i",
            "velocity": 0.3858267716535433
          },
          {
            "duration": 0.8854166666666572,
            "durationTicks": 136,
            "midi": 75,
            "name": "D#5",
            "ticks": 23760,
            "time": "23760i",
            "velocity": 0.3858267716535433
          },
          {
            "duration": 0.8854166666666572,
            "durationTicks": 136,
            "midi": 95,
            "name": "B6",
            "ticks": 23904,
            "time": "23904i",
            "velocity": 0.3858267716535433
          },
          {
            "duration": 0.8854166666666572,
            "durationTicks": 136,
            "midi": 83,
            "name": "B5",
            "ticks": 23904,
            "time": "23904i",
            "velocity": 0.3858267716535433
          },
          {
            "duration": 0.8854166666666572,
            "durationTicks": 136,
            "midi": 93,
            "name": "A6",
            "ticks": 24048,
            "time": "24048i",
            "velocity": 0.3858267716535433
          },
          {
            "duration": 0.8854166666666572,
            "durationTicks": 136,
            "midi": 81,
            "name": "A5",
            "ticks": 24048,
            "time": "24048i",
            "velocity": 0.3858267716535433
          },
          {
            "duration": 2.03125,
            "durationTicks": 312,
            "midi": 92,
            "name": "G#6",
            "ticks": 24192,
            "time": "24192i",
            "velocity": 0.3858267716535433
          },
          {
            "duration": 1.77734375,
            "durationTicks": 273,
            "midi": 40,
            "name": "E2",
            "ticks": 24192,
            "time": "24192i",
            "velocity": 0.3858267716535433
          }
        ],
        "endOfTrackTicks": 31393
      },
      {
        "channel": 1,
        "controlChanges": {
          "6": [
            {
              "number": 6,
              "ticks": 0,
              "time": 0,
              "value": 0.09448818897637795
            },
            {
              "number": 6,
              "ticks": 0,
              "time": 0,
              "value": 0.09448818897637795
            },
            {
              "number": 6,
              "ticks": 0,
              "time": 0,
              "value": 0.09448818897637795
            },
            {
              "number": 6,
              "ticks": 31392,
              "time": 208.202409,
              "value": 0.09448818897637795
            },
            {
              "number": 6,
              "ticks": 31393,
              "time": 208.20891941666665,
              "value": 0.09448818897637795
            }
          ],
          "7": [
            {
              "number": 7,
              "ticks": 0,
              "time": 0,
              "value": 0.7874015748031497
            },
            {
              "number": 7,
              "ticks": 0,
              "time": 0,
              "value": 0.7874015748031497
            },
            {
              "number": 7,
              "ticks": 0,
              "time": 0,
              "value": 0.7874015748031497
            },
            {
              "number": 7,
              "ticks": 0,
              "time": 0,
              "value": 0.7874015748031497
            },
            {
              "number": 7,
              "ticks": 31392,
              "time": 208.202409,
              "value": 0.7874015748031497
            },
            {
              "number": 7,
              "ticks": 31393,
              "time": 208.20891941666665,
              "value": 0.7874015748031497
            }
          ],
          "10": [
            {
              "number": 10,
              "ticks": 0,
              "time": 0,
              "value": 0.5039370078740157
            },
            {
              "number": 10,
              "ticks": 0,
              "time": 0,
              "value": 0.5039370078740157
            },
            {
              "number": 10,
              "ticks": 0,
              "time": 0,
              "value": 0.5039370078740157
            },
            {
              "number": 10,
              "ticks": 0,
              "time": 0,
              "value": 0.5039370078740157
            },
            {
              "number": 10,
              "ticks": 31392,
              "time": 208.202409,
              "value": 0.5039370078740157
            },
            {
              "number": 10,
              "ticks": 31393,
              "time": 208.20891941666665,
              "value": 0.5039370078740157
            }
          ],
          "100": [
            {
              "number": 100,
              "ticks": 0,
              "time": 0,
              "value": 0
            },
            {
              "number": 100,
              "ticks": 0,
              "time": 0,
              "value": 0
            },
            {
              "number": 100,
              "ticks": 0,
              "time": 0,
              "value": 0
            },
            {
              "number": 100,
              "ticks": 31392,
              "time": 208.202409,
              "value": 0
            },
            {
              "number": 100,
              "ticks": 31393,
              "time": 208.20891941666665,
              "value": 0
            }
          ],
          "101": [
            {
              "number": 101,
              "ticks": 0,
              "time": 0,
              "value": 0
            },
            {
              "number": 101,
              "ticks": 0,
              "time": 0,
              "value": 0
            },
            {
              "number": 101,
              "ticks": 0,
              "time": 0,
              "value": 0
            },
            {
              "number": 101,
              "ticks": 31392,
              "time": 208.202409,
              "value": 0
            },
            {
              "number": 101,
              "ticks": 31393,
              "time": 208.20891941666665,
              "value": 0
            }
          ]
        },
        "pitchBends": [
          {
            "ticks": 0,
            "time": 0,
            "value": 0
          },
          {
            "ticks": 0,
            "time": 0,
            "value": 0
          },
          {
            "ticks": 0,
            "time": 0,
            "value": 0
          },
          {
            "ticks": 0,
            "time": 0,
            "value": 0
          },
          {
            "ticks": 31392,
            "time": 208.202409,
            "value": 0
          },
          {
            "ticks": 31393,
            "time": 208.20891941666665,
            "value": 0
          }
        ],
        "instrument": {
          "family": "piano",
          "number": 0,
          "name": "acoustic grand piano"
        },
        "name": "Piano\u0000",
        "notes": [
          {
            "duration": 0.14322916666666666,
            "durationTicks": 22,
            "midi": 69,
            "name": "A4",
            "ticks": 0,
            "time": "0i",
            "velocity": 0.3858267716535433
          },
          {
            "duration": 0.14322916666666669,
            "durationTicks": 22,
            "midi": 73,
            "name": "C#5",
            "ticks": 24,
            "time": "24i",
            "velocity": 0.3858267716535433
          },
          {
            "duration": 0.14322916666666663,
            "durationTicks": 22,
            "midi": 76,
            "name": "E5",
            "ticks": 48,
            "time": "48i",
            "velocity": 0.3858267716535433
          },
          {
            "duration": 0.14322916666666663,
            "durationTicks": 22,
            "midi": 73,
            "name": "C#5",
            "ticks": 72,
            "time": "72i",
            "velocity": 0.3858267716535433
          },
          {
            "duration": 0.14322916666666674,
            "durationTicks": 22,
            "midi": 76,
            "name": "E5",
            "ticks": 96,
            "time": "96i",
            "velocity": 0.3858267716535433
          },
          {
            "duration": 0.14322916666666674,
            "durationTicks": 22,
            "midi": 73,
            "name": "C#5",
            "ticks": 120,
            "time": "120i",
            "velocity": 0.3858267716535433
          },
          {
            "duration": 0.14322916666666674,
            "durationTicks": 22,
            "midi": 69,
            "name": "A4",
            "ticks": 144,
            "time": "144i",
            "velocity": 0.3858267716535433
          },
          {
            "duration": 0.14322916666666674,
            "durationTicks": 22,
            "midi": 73,
            "name": "C#5",
            "ticks": 168,
            "time": "168i",
            "velocity": 0.3858267716535433
          },
          {
            "duration": 0.14322916666666652,
            "durationTicks": 22,
            "midi": 76,
            "name": "E5",
            "ticks": 192,
            "time": "192i",
            "velocity": 0.3858267716535433
          },
          {
            "duration": 0.14322916666666652,
            "durationTicks": 22,
            "midi": 73,
            "name": "C#5",
            "ticks": 216,
            "time": "216i",
            "velocity": 0.3858267716535433
          },
          {
            "duration": 0.14322916666666652,
            "durationTicks": 22,
            "midi": 76,
            "name": "E5",
            "ticks": 240,
            "time": "240i",
            "velocity": 0.3858267716535433
          },
          {
            "duration": 0.14322916666666652,
            "durationTicks": 22,
            "midi": 73,
            "name": "C#5",
            "ticks": 264,
            "time": "264i",
            "velocity": 0.3858267716535433
          },
          {
            "duration": 0.14322916666666652,
            "durationTicks": 22,
            "midi": 69,
            "name": "A4",
            "ticks": 288,
            "time": "288i",
            "velocity": 0.3858267716535433
          },
          {
            "duration": 0.14322916666666652,
            "durationTicks": 22,
            "midi": 73,
            "name": "C#5",
            "ticks": 312,
            "time": "312i",
            "velocity": 0.3858267716535433
          },
          {
            "duration": 0.14322916666666652,
            "durationTicks": 22,
            "midi": 76,
            "name": "E5",
            "ticks": 336,
            "time": "336i",
            "velocity": 0.3858267716535433
          },
          {
            "duration": 0.14322916666666652,
            "durationTicks": 22,
            "midi": 73,
            "name": "C#5",
            "ticks": 360,
            "time": "360i",
            "velocity": 0.3858267716535433
          },
          {
            "duration": 0.14322916666666696,
            "durationTicks": 22,
            "midi": 76,
            "name": "E5",
            "ticks": 384,
            "time": "384i",
            "velocity": 0.3858267716535433
          },
          {
            "duration": 0.14322916666666696,
            "durationTicks": 22,
            "midi": 73,
            "name": "C#5",
            "ticks": 408,
            "time": "408i",
            "velocity": 0.3858267716535433
          },
          {
            "duration": 0.14322916666666696,
            "durationTicks": 22,
            "midi": 69,
            "name": "A4",
            "ticks": 432,
            "time": "432i",
            "velocity": 0.3858267716535433
          },
          {
            "duration": 0.14322916666666696,
            "durationTicks": 22,
            "midi": 73,
            "name": "C#5",
            "ticks": 456,
            "time": "456i",
            "velocity": 0.3858267716535433
          },
          {
            "duration": 0.14322916666666696,
            "durationTicks": 22,
            "midi": 76,
            "name": "E5",
            "ticks": 480,
            "time": "480i",
            "velocity": 0.3858267716535433
          },
          {
            "duration": 0.14322916666666696,
            "durationTicks": 22,
            "midi": 73,
            "name": "C#5",
            "ticks": 504,
            "time": "504i",
            "velocity": 0.3858267716535433
          },
          {
            "duration": 0.14322916666666696,
            "durationTicks": 22,
            "midi": 76,
            "name": "E5",
            "ticks": 528,
            "time": "528i",
            "velocity": 0.3858267716535433
          },
          {
            "duration": 0.14322916666666696,
            "durationTicks": 22,
            "midi": 73,
            "name": "C#5",
            "ticks": 552,
            "time": "552i",
            "velocity": 0.3858267716535433
          },
          {
            "duration": 0.14322916666666696,
            "durationTicks": 22,
            "midi": 68,
            "name": "G#4",
            "ticks": 576,
            "time": "576i",
            "velocity": 0.3858267716535433
          },
          {
            "duration": 0.14322916666666696,
            "durationTicks": 22,
            "midi": 71,
            "name": "B4",
            "ticks": 600,
            "time": "600i",
            "velocity": 0.3858267716535433
          },
          {
            "duration": 0.14322916666666696,
            "durationTicks": 22,
            "midi": 75,
            "name": "D#5",
            "ticks": 624,
            "time": "624i",
            "velocity": 0.3858267716535433
          },
          {
            "duration": 0.14322916666666696,
            "durationTicks": 22,
            "midi": 71,
            "name": "B4",
            "ticks": 648,
            "time": "648i",
            "velocity": 0.3858267716535433
          },
          {
            "duration": 0.14322916666666696,
            "durationTicks": 22,
            "midi": 75,
            "name": "D#5",
            "ticks": 672,
            "time": "672i",
            "velocity": 0.3858267716535433
          },
          {
            "duration": 0.14322916666666696,
            "durationTicks": 22,
            "midi": 71,
            "name": "B4",
            "ticks": 696,
            "time": "696i",
            "velocity": 0.3858267716535433
          },
          {
            "duration": 0.14322916666666696,
            "durationTicks": 22,
            "midi": 68,
            "name": "G#4",
            "ticks": 720,
            "time": "720i",
            "velocity": 0.3858267716535433
          },
          {
            "duration": 0.14322916666666696,
            "durationTicks": 22,
            "midi": 71,
            "name": "B4",
            "ticks": 744,
            "time": "744i",
            "velocity": 0.3858267716535433
          },
          {
            "duration": 0.14322916666666607,
            "durationTicks": 22,
            "midi": 75,
            "name": "D#5",
            "ticks": 768,
            "time": "768i",
            "velocity": 0.3858267716535433
          },
          {
            "duration": 0.14322916666666607,
            "durationTicks": 22,
            "midi": 71,
            "name": "B4",
            "ticks": 792,
            "time": "792i",
            "velocity": 0.3858267716535433
          },
          {
            "duration": 0.14322916666666607,
            "durationTicks": 22,
            "midi": 75,
            "name": "D#5",
            "ticks": 816,
            "time": "816i",
            "velocity": 0.3858267716535433
          },
          {
            "duration": 0.14322916666666607,
            "durationTicks": 22,
            "midi": 71,
            "name": "B4",
            "ticks": 840,
            "time": "840i",
            "velocity": 0.3858267716535433
          },
          {
            "duration": 0.14322916666666607,
            "durationTicks": 22,
            "midi": 68,
            "name": "G#4",
            "ticks": 864,
            "time": "864i",
            "velocity": 0.3858267716535433
          },
          {
            "duration": 0.14322916666666607,
            "durationTicks": 22,
            "midi": 71,
            "name": "B4",
            "ticks": 888,
            "time": "888i",
            "velocity": 0.3858267716535433
          },
          {
            "duration": 0.14322916666666607,
            "durationTicks": 22,
            "midi": 75,
            "name": "D#5",
            "ticks": 912,
            "time": "912i",
            "velocity": 0.3858267716535433
          },
          {
            "duration": 0.14322916666666607,
            "durationTicks": 22,
            "midi": 71,
            "name": "B4",
            "ticks": 936,
            "time": "936i",
            "velocity": 0.3858267716535433
          },
          {
            "duration": 0.14322916666666607,
            "durationTicks": 22,
            "midi": 75,
            "name": "D#5",
            "ticks": 960,
            "time": "960i",
            "velocity": 0.3858267716535433
          },
          {
            "duration": 0.14322916666666607,
            "durationTicks": 22,
            "midi": 71,
            "name": "B4",
            "ticks": 984,
            "time": "984i",
            "velocity": 0.3858267716535433
          },
          {
            "duration": 0.14322916666666607,
            "durationTicks": 22,
            "midi": 67,
            "name": "G4",
            "ticks": 1008,
            "time": "1008i",
            "velocity": 0.3858267716535433
          },
          {
            "duration": 0.14322916666666607,
            "durationTicks": 22,
            "midi": 71,
            "name": "B4",
            "ticks": 1032,
            "time": "1032i",
            "velocity": 0.3858267716535433
          },
          {
            "duration": 0.14322916666666607,
            "durationTicks": 22,
            "midi": 75,
            "name": "D#5",
            "ticks": 1056,
            "time": "1056i",
            "velocity": 0.3858267716535433
          },
          {
            "duration": 0.14322916666666607,
            "durationTicks": 22,
            "midi": 71,
            "name": "B4",
            "ticks": 1080,
            "time": "1080i",
            "velocity": 0.3858267716535433
          },
          {
            "duration": 0.14322916666666607,
            "durationTicks": 22,
            "midi": 75,
            "name": "D#5",
            "ticks": 1104,
            "time": "1104i",
            "velocity": 0.3858267716535433
          },
          {
            "duration": 0.14322916666666607,
            "durationTicks": 22,
            "midi": 71,
            "name": "B4",
            "ticks": 1128,
            "time": "1128i",
            "velocity": 0.3858267716535433
          },
          {
            "duration": 0.14322916666666607,
            "durationTicks": 22,
            "midi": 66,
            "name": "F#4",
            "ticks": 1152,
            "time": "1152i",
            "velocity": 0.3858267716535433
          },
          {
            "duration": 0.14322916666666607,
            "durationTicks": 22,
            "midi": 69,
            "name": "A4",
            "ticks": 1176,
            "time": "1176i",
            "velocity": 0.3858267716535433
          },
          {
            "duration": 0.14322916666666607,
            "durationTicks": 22,
            "midi": 73,
            "name": "C#5",
            "ticks": 1200,
            "time": "1200i",
            "velocity": 0.3858267716535433
          },
          {
            "duration": 0.14322916666666607,
            "durationTicks": 22,
            "midi": 69,
            "name": "A4",
            "ticks": 1224,
            "time": "1224i",
            "velocity": 0.3858267716535433
          },
          {
            "duration": 0.14322916666666607,
            "durationTicks": 22,
            "midi": 73,
            "name": "C#5",
            "ticks": 1248,
            "time": "1248i",
            "velocity": 0.3858267716535433
          },
          {
            "duration": 0.14322916666666607,
            "durationTicks": 22,
            "midi": 69,
            "name": "A4",
            "ticks": 1272,
            "time": "1272i",
            "velocity": 0.3858267716535433
          },
          {
            "duration": 0.14322916666666607,
            "durationTicks": 22,
            "midi": 66,
            "name": "F#4",
            "ticks": 1296,
            "time": "1296i",
            "velocity": 0.3858267716535433
          },
          {
            "duration": 0.14322916666666607,
            "durationTicks": 22,
            "midi": 69,
            "name": "A4",
            "ticks": 1320,
            "time": "1320i",
            "velocity": 0.3858267716535433
          },
          {
            "duration": 0.14322916666666607,
            "durationTicks": 22,
            "midi": 73,
            "name": "C#5",
            "ticks": 1344,
            "time": "1344i",
            "velocity": 0.3858267716535433
          },
          {
            "duration": 0.14322916666666607,
            "durationTicks": 22,
            "midi": 69,
            "name": "A4",
            "ticks": 1368,
            "time": "1368i",
            "velocity": 0.3858267716535433
          },
          {
            "duration": 0.14322916666666607,
            "durationTicks": 22,
            "midi": 73,
            "name": "C#5",
            "ticks": 1392,
            "time": "1392i",
            "velocity": 0.3858267716535433
          },
          {
            "duration": 0.14322916666666607,
            "durationTicks": 22,
            "midi": 69,
            "name": "A4",
            "ticks": 1416,
            "time": "1416i",
            "velocity": 0.3858267716535433
          },
          {
            "duration": 0.14322916666666607,
            "durationTicks": 22,
            "midi": 66,
            "name": "F#4",
            "ticks": 1440,
            "time": "1440i",
            "velocity": 0.3858267716535433
          },
          {
            "duration": 0.14322916666666607,
            "durationTicks": 22,
            "midi": 69,
            "name": "A4",
            "ticks": 1464,
            "time": "1464i",
            "velocity": 0.3858267716535433
          },
          {
            "duration": 0.14322916666666607,
            "durationTicks": 22,
            "midi": 73,
            "name": "C#5",
            "ticks": 1488,
            "time": "1488i",
            "velocity": 0.3858267716535433
          },
          {
            "duration": 0.14322916666666607,
            "durationTicks": 22,
            "midi": 69,
            "name": "A4",
            "ticks": 1512,
            "time": "1512i",
            "velocity": 0.3858267716535433
          },
          {
            "duration": 0.14322916666666785,
            "durationTicks": 22,
            "midi": 73,
            "name": "C#5",
            "ticks": 1536,
            "time": "1536i",
            "velocity": 0.3858267716535433
          },
          {
            "duration": 0.14322916666666785,
            "durationTicks": 22,
            "midi": 69,
            "name": "A4",
            "ticks": 1560,
            "time": "1560i",
            "velocity": 0.3858267716535433
          },
          {
            "duration": 0.14322916666666785,
            "durationTicks": 22,
            "midi": 66,
            "name": "F#4",
            "ticks": 1584,
            "time": "1584i",
            "velocity": 0.3858267716535433
          },
          {
            "duration": 0.14322916666666785,
            "durationTicks": 22,
            "midi": 69,
            "name": "A4",
            "ticks": 1608,
            "time": "1608i",
            "velocity": 0.3858267716535433
          },
          {
            "duration": 0.14322916666666785,
            "durationTicks": 22,
            "midi": 73,
            "name": "C#5",
            "ticks": 1632,
            "time": "1632i",
            "velocity": 0.3858267716535433
          },
          {
            "duration": 0.14322916666666785,
            "durationTicks": 22,
            "midi": 69,
            "name": "A4",
            "ticks": 1656,
            "time": "1656i",
            "velocity": 0.3858267716535433
          },
          {
            "duration": 0.14322916666666785,
            "durationTicks": 22,
            "midi": 73,
            "name": "C#5",
            "ticks": 1680,
            "time": "1680i",
            "velocity": 0.3858267716535433
          },
          {
            "duration": 0.14322916666666785,
            "durationTicks": 22,
            "midi": 69,
            "name": "A4",
            "ticks": 1704,
            "time": "1704i",
            "velocity": 0.3858267716535433
          },
          {
            "duration": 0.14322916666666785,
            "durationTicks": 22,
            "midi": 64,
            "name": "E4",
            "ticks": 1728,
            "time": "1728i",
            "velocity": 0.3858267716535433
          },
          {
            "duration": 0.14322916666666785,
            "durationTicks": 22,
            "midi": 68,
            "name": "G#4",
            "ticks": 1752,
            "time": "1752i",
            "velocity": 0.3858267716535433
          },
          {
            "duration": 0.14322916666666785,
            "durationTicks": 22,
            "midi": 71,
            "name": "B4",
            "ticks": 1776,
            "time": "1776i",
            "velocity": 0.3858267716535433
          },
          {
            "duration": 0.14322916666666785,
            "durationTicks": 22,
            "midi": 68,
            "name": "G#4",
            "ticks": 1800,
            "time": "1800i",
            "velocity": 0.3858267716535433
          },
          {
            "duration": 0.14322916666666785,
            "durationTicks": 22,
            "midi": 71,
            "name": "B4",
            "ticks": 1824,
            "time": "1824i",
            "velocity": 0.3858267716535433
          },
          {
            "duration": 0.14322916666666785,
            "durationTicks": 22,
            "midi": 68,
            "name": "G#4",
            "ticks": 1848,
            "time": "1848i",
            "velocity": 0.3858267716535433
          },
          {
            "duration": 0.14322916666666785,
            "durationTicks": 22,
            "midi": 64,
            "name": "E4",
            "ticks": 1872,
            "time": "1872i",
            "velocity": 0.3858267716535433
          },
          {
            "duration": 0.14322916666666785,
            "durationTicks": 22,
            "midi": 68,
            "name": "G#4",
            "ticks": 1896,
            "time": "1896i",
            "velocity": 0.3858267716535433
          },
          {
            "duration": 0.14322916666666785,
            "durationTicks": 22,
            "midi": 71,
            "name": "B4",
            "ticks": 1920,
            "time": "1920i",
            "velocity": 0.3858267716535433
          },
          {
            "duration": 0.14322916666666785,
            "durationTicks": 22,
            "midi": 68,
            "name": "G#4",
            "ticks": 1944,
            "time": "1944i",
            "velocity": 0.3858267716535433
          },
          {
            "duration": 0.14322916666666785,
            "durationTicks": 22,
            "midi": 71,
            "name": "B4",
            "ticks": 1968,
            "time": "1968i",
            "velocity": 0.3858267716535433
          },
          {
            "duration": 0.14322916666666785,
            "durationTicks": 22,
            "midi": 68,
            "name": "G#4",
            "ticks": 1992,
            "time": "1992i",
            "velocity": 0.3858267716535433
          },
          {
            "duration": 0.14322916666666785,
            "durationTicks": 22,
            "midi": 64,
            "name": "E4",
            "ticks": 2016,
            "time": "2016i",
            "velocity": 0.3858267716535433
          },
          {
            "duration": 0.14322916666666785,
            "durationTicks": 22,
            "midi": 68,
            "name": "G#4",
            "ticks": 2040,
            "time": "2040i",
            "velocity": 0.3937007874015748
          },
          {
            "duration": 0.14322916666666785,
            "durationTicks": 22,
            "midi": 71,
            "name": "B4",
            "ticks": 2064,
            "time": "2064i",
            "velocity": 0.4015748031496063
          },
          {
            "duration": 0.14322916666666785,
            "durationTicks": 22,
            "midi": 68,
            "name": "G#4",
            "ticks": 2088,
            "time": "2088i",
            "velocity": 0.4094488188976378
          },
          {
            "duration": 0.14322916666666785,
            "durationTicks": 22,
            "midi": 71,
            "name": "B4",
            "ticks": 2112,
            "time": "2112i",
            "velocity": 0.4251968503937008
          },
          {
            "duration": 0.14322916666666785,
            "durationTicks": 22,
            "midi": 68,
            "name": "G#4",
            "ticks": 2136,
            "time": "2136i",
            "velocity": 0.4330708661417323
          },
          {
            "duration": 0.14322916666666785,
            "durationTicks": 22,
            "midi": 64,
            "name": "E4",
            "ticks": 2160,
            "time": "2160i",
            "velocity": 0.4409448818897638
          },
          {
            "duration": 0.14322916666666785,
            "durationTicks": 22,
            "midi": 68,
            "name": "G#4",
            "ticks": 2184,
            "time": "2184i",
            "velocity": 0.44881889763779526
          },
          {
            "duration": 0.14322916666666785,
            "durationTicks": 22,
            "midi": 71,
            "name": "B4",
            "ticks": 2208,
            "time": "2208i",
            "velocity": 0.4645669291338583
          },
          {
            "duration": 0.14322916666666785,
            "durationTicks": 22,
            "midi": 68,
            "name": "G#4",
            "ticks": 2232,
            "time": "2232i",
            "velocity": 0.47244094488188976
          },
          {
            "duration": 0.14322916666666785,
            "durationTicks": 22,
            "midi": 71,
            "name": "B4",
            "ticks": 2256,
            "time": "2256i",
            "velocity": 0.48031496062992124
          },
          {
            "duration": 0.14322916666666785,
            "durationTicks": 22,
            "midi": 68,
            "name": "G#4",
            "ticks": 2280,
            "time": "2280i",
            "velocity": 0.4881889763779528
          },
          {
            "duration": 0.14322916666666785,
            "durationTicks": 22,
            "midi": 57,
            "name": "A3",
            "ticks": 2304,
            "time": "2304i",
            "velocity": 0.5039370078740157
          },
          {
            "duration": 0.14322916666666785,
            "durationTicks": 22,
            "midi": 45,
            "name": "A2",
            "ticks": 2304,
            "time": "2304i",
            "velocity": 0.5039370078740157
          },
          {
            "duration": 0.14322916666666785,
            "durationTicks": 22,
            "midi": 61,
            "name": "C#4",
            "ticks": 2328,
            "time": "2328i",
            "velocity": 0.5039370078740157
          },
          {
            "duration": 0.14322916666666785,
            "durationTicks": 22,
            "midi": 64,
            "name": "E4",
            "ticks": 2352,
            "time": "2352i",
            "velocity": 0.5039370078740157
          },
          {
            "duration": 0.14322916666666785,
            "durationTicks": 22,
            "midi": 61,
            "name": "C#4",
            "ticks": 2376,
            "time": "2376i",
            "velocity": 0.5039370078740157
          },
          {
            "duration": 0.14322916666666785,
            "durationTicks": 22,
            "midi": 64,
            "name": "E4",
            "ticks": 2400,
            "time": "2400i",
            "velocity": 0.5039370078740157
          },
          {
            "duration": 0.14322916666666785,
            "durationTicks": 22,
            "midi": 61,
            "name": "C#4",
            "ticks": 2424,
            "time": "2424i",
            "velocity": 0.5039370078740157
          },
          {
            "duration": 0.14322916666666785,
            "durationTicks": 22,
            "midi": 57,
            "name": "A3",
            "ticks": 2448,
            "time": "2448i",
            "velocity": 0.5039370078740157
          },
          {
            "duration": 0.14322916666666785,
            "durationTicks": 22,
            "midi": 45,
            "name": "A2",
            "ticks": 2448,
            "time": "2448i",
            "velocity": 0.5039370078740157
          },
          {
            "duration": 0.14322916666666785,
            "durationTicks": 22,
            "midi": 61,
            "name": "C#4",
            "ticks": 2472,
            "time": "2472i",
            "velocity": 0.5039370078740157
          },
          {
            "duration": 0.14322916666666785,
            "durationTicks": 22,
            "midi": 64,
            "name": "E4",
            "ticks": 2496,
            "time": "2496i",
            "velocity": 0.5039370078740157
          },
          {
            "duration": 0.14322916666666785,
            "durationTicks": 22,
            "midi": 61,
            "name": "C#4",
            "ticks": 2520,
            "time": "2520i",
            "velocity": 0.5039370078740157
          },
          {
            "duration": 0.14322916666666785,
            "durationTicks": 22,
            "midi": 64,
            "name": "E4",
            "ticks": 2544,
            "time": "2544i",
            "velocity": 0.5039370078740157
          },
          {
            "duration": 0.14322916666666785,
            "durationTicks": 22,
            "midi": 61,
            "name": "C#4",
            "ticks": 2568,
            "time": "2568i",
            "velocity": 0.5039370078740157
          },
          {
            "duration": 0.14322916666666785,
            "durationTicks": 22,
            "midi": 57,
            "name": "A3",
            "ticks": 2592,
            "time": "2592i",
            "velocity": 0.5039370078740157
          },
          {
            "duration": 0.14322916666666785,
            "durationTicks": 22,
            "midi": 45,
            "name": "A2",
            "ticks": 2592,
            "time": "2592i",
            "velocity": 0.5039370078740157
          },
          {
            "duration": 0.14322916666666785,
            "durationTicks": 22,
            "midi": 61,
            "name": "C#4",
            "ticks": 2616,
            "time": "2616i",
            "velocity": 0.5039370078740157
          },
          {
            "duration": 0.14322916666666785,
            "durationTicks": 22,
            "midi": 64,
            "name": "E4",
            "ticks": 2640,
            "time": "2640i",
            "velocity": 0.5039370078740157
          },
          {
            "duration": 0.14322916666666785,
            "durationTicks": 22,
            "midi": 61,
            "name": "C#4",
            "ticks": 2664,
            "time": "2664i",
            "velocity": 0.5039370078740157
          },
          {
            "duration": 0.14322916666666785,
            "durationTicks": 22,
            "midi": 64,
            "name": "E4",
            "ticks": 2688,
            "time": "2688i",
            "velocity": 0.5039370078740157
          },
          {
            "duration": 0.14322916666666785,
            "durationTicks": 22,
            "midi": 61,
            "name": "C#4",
            "ticks": 2712,
            "time": "2712i",
            "velocity": 0.5039370078740157
          },
          {
            "duration": 0.14322916666666785,
            "durationTicks": 22,
            "midi": 57,
            "name": "A3",
            "ticks": 2736,
            "time": "2736i",
            "velocity": 0.5039370078740157
          },
          {
            "duration": 0.14322916666666785,
            "durationTicks": 22,
            "midi": 45,
            "name": "A2",
            "ticks": 2736,
            "time": "2736i",
            "velocity": 0.5039370078740157
          },
          {
            "duration": 0.14322916666666785,
            "durationTicks": 22,
            "midi": 61,
            "name": "C#4",
            "ticks": 2760,
            "time": "2760i",
            "velocity": 0.5039370078740157
          },
          {
            "duration": 0.14322916666666785,
            "durationTicks": 22,
            "midi": 64,
            "name": "E4",
            "ticks": 2784,
            "time": "2784i",
            "velocity": 0.5039370078740157
          },
          {
            "duration": 0.14322916666666785,
            "durationTicks": 22,
            "midi": 61,
            "name": "C#4",
            "ticks": 2808,
            "time": "2808i",
            "velocity": 0.5039370078740157
          },
          {
            "duration": 0.14322916666666785,
            "durationTicks": 22,
            "midi": 64,
            "name": "E4",
            "ticks": 2832,
            "time": "2832i",
            "velocity": 0.5039370078740157
          },
          {
            "duration": 0.14322916666666785,
            "durationTicks": 22,
            "midi": 61,
            "name": "C#4",
            "ticks": 2856,
            "time": "2856i",
            "velocity": 0.5039370078740157
          },
          {
            "duration": 0.14322916666666785,
            "durationTicks": 22,
            "midi": 56,
            "name": "G#3",
            "ticks": 2880,
            "time": "2880i",
            "velocity": 0.5039370078740157
          },
          {
            "duration": 0.14322916666666785,
            "durationTicks": 22,
            "midi": 44,
            "name": "G#2",
            "ticks": 2880,
            "time": "2880i",
            "velocity": 0.5039370078740157
          },
          {
            "duration": 0.14322916666666785,
            "durationTicks": 22,
            "midi": 59,
            "name": "B3",
            "ticks": 2904,
            "time": "2904i",
            "velocity": 0.5039370078740157
          },
          {
            "duration": 0.14322916666666785,
            "durationTicks": 22,
            "midi": 63,
            "name": "D#4",
            "ticks": 2928,
            "time": "2928i",
            "velocity": 0.5039370078740157
          },
          {
            "duration": 0.14322916666666785,
            "durationTicks": 22,
            "midi": 59,
            "name": "B3",
            "ticks": 2952,
            "time": "2952i",
            "velocity": 0.5039370078740157
          },
          {
            "duration": 0.14322916666666785,
            "durationTicks": 22,
            "midi": 63,
            "name": "D#4",
            "ticks": 2976,
            "time": "2976i",
            "velocity": 0.5039370078740157
          },
          {
            "duration": 0.14322916666666785,
            "durationTicks": 22,
            "midi": 59,
            "name": "B3",
            "ticks": 3000,
            "time": "3000i",
            "velocity": 0.5039370078740157
          },
          {
            "duration": 0.14322916666666785,
            "durationTicks": 22,
            "midi": 56,
            "name": "G#3",
            "ticks": 3024,
            "time": "3024i",
            "velocity": 0.5039370078740157
          },
          {
            "duration": 0.14322916666666785,
            "durationTicks": 22,
            "midi": 44,
            "name": "G#2",
            "ticks": 3024,
            "time": "3024i",
            "velocity": 0.5039370078740157
          },
          {
            "duration": 0.14322916666666785,
            "durationTicks": 22,
            "midi": 59,
            "name": "B3",
            "ticks": 3048,
            "time": "3048i",
            "velocity": 0.5039370078740157
          },
          {
            "duration": 0.1432291666666643,
            "durationTicks": 22,
            "midi": 63,
            "name": "D#4",
            "ticks": 3072,
            "time": "3072i",
            "velocity": 0.5039370078740157
          },
          {
            "duration": 0.1432291666666643,
            "durationTicks": 22,
            "midi": 59,
            "name": "B3",
            "ticks": 3096,
            "time": "3096i",
            "velocity": 0.5039370078740157
          },
          {
            "duration": 0.1432291666666643,
            "durationTicks": 22,
            "midi": 63,
            "name": "D#4",
            "ticks": 3120,
            "time": "3120i",
            "velocity": 0.5039370078740157
          },
          {
            "duration": 0.1432291666666643,
            "durationTicks": 22,
            "midi": 59,
            "name": "B3",
            "ticks": 3144,
            "time": "3144i",
            "velocity": 0.5039370078740157
          },
          {
            "duration": 0.1432291666666643,
            "durationTicks": 22,
            "midi": 56,
            "name": "G#3",
            "ticks": 3168,
            "time": "3168i",
            "velocity": 0.5039370078740157
          },
          {
            "duration": 0.1432291666666643,
            "durationTicks": 22,
            "midi": 44,
            "name": "G#2",
            "ticks": 3168,
            "time": "3168i",
            "velocity": 0.5039370078740157
          },
          {
            "duration": 0.1432291666666643,
            "durationTicks": 22,
            "midi": 59,
            "name": "B3",
            "ticks": 3192,
            "time": "3192i",
            "velocity": 0.5039370078740157
          },
          {
            "duration": 0.1432291666666643,
            "durationTicks": 22,
            "midi": 63,
            "name": "D#4",
            "ticks": 3216,
            "time": "3216i",
            "velocity": 0.5039370078740157
          },
          {
            "duration": 0.1432291666666643,
            "durationTicks": 22,
            "midi": 59,
            "name": "B3",
            "ticks": 3240,
            "time": "3240i",
            "velocity": 0.5039370078740157
          },
          {
            "duration": 0.1432291666666643,
            "durationTicks": 22,
            "midi": 63,
            "name": "D#4",
            "ticks": 3264,
            "time": "3264i",
            "velocity": 0.5039370078740157
          },
          {
            "duration": 0.1432291666666643,
            "durationTicks": 22,
            "midi": 59,
            "name": "B3",
            "ticks": 3288,
            "time": "3288i",
            "velocity": 0.5039370078740157
          },
          {
            "duration": 0.1432291666666643,
            "durationTicks": 22,
            "midi": 55,
            "name": "G3",
            "ticks": 3312,
            "time": "3312i",
            "velocity": 0.5039370078740157
          },
          {
            "duration": 0.1432291666666643,
            "durationTicks": 22,
            "midi": 43,
            "name": "G2",
            "ticks": 3312,
            "time": "3312i",
            "velocity": 0.5039370078740157
          },
          {
            "duration": 0.1432291666666643,
            "durationTicks": 22,
            "midi": 59,
            "name": "B3",
            "ticks": 3336,
            "time": "3336i",
            "velocity": 0.5039370078740157
          },
          {
            "duration": 0.1432291666666643,
            "durationTicks": 22,
            "midi": 63,
            "name": "D#4",
            "ticks": 3360,
            "time": "3360i",
            "velocity": 0.5039370078740157
          },
          {
            "duration": 0.1432291666666643,
            "durationTicks": 22,
            "midi": 59,
            "name": "B3",
            "ticks": 3384,
            "time": "3384i",
            "velocity": 0.5039370078740157
          },
          {
            "duration": 0.1432291666666643,
            "durationTicks": 22,
            "midi": 63,
            "name": "D#4",
            "ticks": 3408,
            "time": "3408i",
            "velocity": 0.5039370078740157
          },
          {
            "duration": 0.1432291666666643,
            "durationTicks": 22,
            "midi": 59,
            "name": "B3",
            "ticks": 3432,
            "time": "3432i",
            "velocity": 0.5039370078740157
          },
          {
            "duration": 0.1432291666666643,
            "durationTicks": 22,
            "midi": 54,
            "name": "F#3",
            "ticks": 3456,
            "time": "3456i",
            "velocity": 0.5039370078740157
          },
          {
            "duration": 0.1432291666666643,
            "durationTicks": 22,
            "midi": 42,
            "name": "F#2",
            "ticks": 3456,
            "time": "3456i",
            "velocity": 0.5039370078740157
          },
          {
            "duration": 0.1432291666666643,
            "durationTicks": 22,
            "midi": 57,
            "name": "A3",
            "ticks": 3480,
            "time": "3480i",
            "velocity": 0.5039370078740157
          },
          {
            "duration": 0.1432291666666643,
            "durationTicks": 22,
            "midi": 61,
            "name": "C#4",
            "ticks": 3504,
            "time": "3504i",
            "velocity": 0.5039370078740157
          },
          {
            "duration": 0.1432291666666643,
            "durationTicks": 22,
            "midi": 57,
            "name": "A3",
            "ticks": 3528,
            "time": "3528i",
            "velocity": 0.5039370078740157
          },
          {
            "duration": 0.1432291666666643,
            "durationTicks": 22,
            "midi": 61,
            "name": "C#4",
            "ticks": 3552,
            "time": "3552i",
            "velocity": 0.5039370078740157
          },
          {
            "duration": 0.1432291666666643,
            "durationTicks": 22,
            "midi": 57,
            "name": "A3",
            "ticks": 3576,
            "time": "3576i",
            "velocity": 0.5039370078740157
          },
          {
            "duration": 0.1432291666666643,
            "durationTicks": 22,
            "midi": 54,
            "name": "F#3",
            "ticks": 3600,
            "time": "3600i",
            "velocity": 0.5039370078740157
          },
          {
            "duration": 0.1432291666666643,
            "durationTicks": 22,
            "midi": 42,
            "name": "F#2",
            "ticks": 3600,
            "time": "3600i",
            "velocity": 0.5039370078740157
          },
          {
            "duration": 0.1432291666666643,
            "durationTicks": 22,
            "midi": 57,
            "name": "A3",
            "ticks": 3624,
            "time": "3624i",
            "velocity": 0.5039370078740157
          },
          {
            "duration": 0.1432291666666643,
            "durationTicks": 22,
            "midi": 61,
            "name": "C#4",
            "ticks": 3648,
            "time": "3648i",
            "velocity": 0.5039370078740157
          },
          {
            "duration": 0.1432291666666643,
            "durationTicks": 22,
            "midi": 57,
            "name": "A3",
            "ticks": 3672,
            "time": "3672i",
            "velocity": 0.5039370078740157
          },
          {
            "duration": 0.1432291666666643,
            "durationTicks": 22,
            "midi": 61,
            "name": "C#4",
            "ticks": 3696,
            "time": "3696i",
            "velocity": 0.5039370078740157
          },
          {
            "duration": 0.1432291666666643,
            "durationTicks": 22,
            "midi": 57,
            "name": "A3",
            "ticks": 3720,
            "time": "3720i",
            "velocity": 0.5039370078740157
          },
          {
            "duration": 0.1432291666666643,
            "durationTicks": 22,
            "midi": 54,
            "name": "F#3",
            "ticks": 3744,
            "time": "3744i",
            "velocity": 0.5039370078740157
          },
          {
            "duration": 0.1432291666666643,
            "durationTicks": 22,
            "midi": 42,
            "name": "F#2",
            "ticks": 3744,
            "time": "3744i",
            "velocity": 0.5039370078740157
          },
          {
            "duration": 0.1432291666666643,
            "durationTicks": 22,
            "midi": 57,
            "name": "A3",
            "ticks": 3768,
            "time": "3768i",
            "velocity": 0.5039370078740157
          },
          {
            "duration": 0.1432291666666643,
            "durationTicks": 22,
            "midi": 61,
            "name": "C#4",
            "ticks": 3792,
            "time": "3792i",
            "velocity": 0.5039370078740157
          },
          {
            "duration": 0.1432291666666643,
            "durationTicks": 22,
            "midi": 57,
            "name": "A3",
            "ticks": 3816,
            "time": "3816i",
            "velocity": 0.5039370078740157
          },
          {
            "duration": 0.1432291666666643,
            "durationTicks": 22,
            "midi": 61,
            "name": "C#4",
            "ticks": 3840,
            "time": "3840i",
            "velocity": 0.5039370078740157
          },
          {
            "duration": 0.1432291666666643,
            "durationTicks": 22,
            "midi": 57,
            "name": "A3",
            "ticks": 3864,
            "time": "3864i",
            "velocity": 0.5039370078740157
          },
          {
            "duration": 0.1432291666666643,
            "durationTicks": 22,
            "midi": 54,
            "name": "F#3",
            "ticks": 3888,
            "time": "3888i",
            "velocity": 0.5039370078740157
          },
          {
            "duration": 0.1432291666666643,
            "durationTicks": 22,
            "midi": 42,
            "name": "F#2",
            "ticks": 3888,
            "time": "3888i",
            "velocity": 0.5039370078740157
          },
          {
            "duration": 0.1432291666666643,
            "durationTicks": 22,
            "midi": 57,
            "name": "A3",
            "ticks": 3912,
            "time": "3912i",
            "velocity": 0.5039370078740157
          },
          {
            "duration": 0.1432291666666643,
            "durationTicks": 22,
            "midi": 61,
            "name": "C#4",
            "ticks": 3936,
            "time": "3936i",
            "velocity": 0.5039370078740157
          },
          {
            "duration": 0.1432291666666643,
            "durationTicks": 22,
            "midi": 57,
            "name": "A3",
            "ticks": 3960,
            "time": "3960i",
            "velocity": 0.5039370078740157
          },
          {
            "duration": 0.1432291666666643,
            "durationTicks": 22,
            "midi": 61,
            "name": "C#4",
            "ticks": 3984,
            "time": "3984i",
            "velocity": 0.5039370078740157
          },
          {
            "duration": 0.1432291666666643,
            "durationTicks": 22,
            "midi": 57,
            "name": "A3",
            "ticks": 4008,
            "time": "4008i",
            "velocity": 0.5039370078740157
          },
          {
            "duration": 0.1432291666666643,
            "durationTicks": 22,
            "midi": 52,
            "name": "E3",
            "ticks": 4032,
            "time": "4032i",
            "velocity": 0.5039370078740157
          },
          {
            "duration": 0.1432291666666643,
            "durationTicks": 22,
            "midi": 40,
            "name": "E2",
            "ticks": 4032,
            "time": "4032i",
            "velocity": 0.5039370078740157
          },
          {
            "duration": 0.1432291666666643,
            "durationTicks": 22,
            "midi": 56,
            "name": "G#3",
            "ticks": 4056,
            "time": "4056i",
            "velocity": 0.5039370078740157
          },
          {
            "duration": 0.1432291666666643,
            "durationTicks": 22,
            "midi": 59,
            "name": "B3",
            "ticks": 4080,
            "time": "4080i",
            "velocity": 0.5039370078740157
          },
          {
            "duration": 0.1432291666666643,
            "durationTicks": 22,
            "midi": 56,
            "name": "G#3",
            "ticks": 4104,
            "time": "4104i",
            "velocity": 0.5039370078740157
          },
          {
            "duration": 0.1432291666666643,
            "durationTicks": 22,
            "midi": 59,
            "name": "B3",
            "ticks": 4128,
            "time": "4128i",
            "velocity": 0.5039370078740157
          },
          {
            "duration": 0.1432291666666643,
            "durationTicks": 22,
            "midi": 56,
            "name": "G#3",
            "ticks": 4152,
            "time": "4152i",
            "velocity": 0.5039370078740157
          },
          {
            "duration": 0.1432291666666643,
            "durationTicks": 22,
            "midi": 52,
            "name": "E3",
            "ticks": 4176,
            "time": "4176i",
            "velocity": 0.5039370078740157
          },
          {
            "duration": 0.1432291666666643,
            "durationTicks": 22,
            "midi": 40,
            "name": "E2",
            "ticks": 4176,
            "time": "4176i",
            "velocity": 0.5039370078740157
          },
          {
            "duration": 0.1432291666666643,
            "durationTicks": 22,
            "midi": 56,
            "name": "G#3",
            "ticks": 4200,
            "time": "4200i",
            "velocity": 0.5039370078740157
          },
          {
            "duration": 0.1432291666666643,
            "durationTicks": 22,
            "midi": 59,
            "name": "B3",
            "ticks": 4224,
            "time": "4224i",
            "velocity": 0.5039370078740157
          },
          {
            "duration": 0.1432291666666643,
            "durationTicks": 22,
            "midi": 56,
            "name": "G#3",
            "ticks": 4248,
            "time": "4248i",
            "velocity": 0.5039370078740157
          },
          {
            "duration": 0.1432291666666643,
            "durationTicks": 22,
            "midi": 59,
            "name": "B3",
            "ticks": 4272,
            "time": "4272i",
            "velocity": 0.5039370078740157
          },
          {
            "duration": 0.1432291666666643,
            "durationTicks": 22,
            "midi": 56,
            "name": "G#3",
            "ticks": 4296,
            "time": "4296i",
            "velocity": 0.5039370078740157
          },
          {
            "duration": 0.1432291666666643,
            "durationTicks": 22,
            "midi": 52,
            "name": "E3",
            "ticks": 4320,
            "time": "4320i",
            "velocity": 0.5039370078740157
          },
          {
            "duration": 0.1432291666666643,
            "durationTicks": 22,
            "midi": 40,
            "name": "E2",
            "ticks": 4320,
            "time": "4320i",
            "velocity": 0.5039370078740157
          },
          {
            "duration": 0.1432291666666643,
            "durationTicks": 22,
            "midi": 56,
            "name": "G#3",
            "ticks": 4344,
            "time": "4344i",
            "velocity": 0.5118110236220472
          },
          {
            "duration": 0.1432291666666643,
            "durationTicks": 22,
            "midi": 59,
            "name": "B3",
            "ticks": 4368,
            "time": "4368i",
            "velocity": 0.5196850393700787
          },
          {
            "duration": 0.1432291666666643,
            "durationTicks": 22,
            "midi": 56,
            "name": "G#3",
            "ticks": 4392,
            "time": "4392i",
            "velocity": 0.5354330708661418
          },
          {
            "duration": 0.1432291666666643,
            "durationTicks": 22,
            "midi": 59,
            "name": "B3",
            "ticks": 4416,
            "time": "4416i",
            "velocity": 0.5433070866141733
          },
          {
            "duration": 0.1432291666666643,
            "durationTicks": 22,
            "midi": 56,
            "name": "G#3",
            "ticks": 4440,
            "time": "4440i",
            "velocity": 0.5511811023622047
          },
          {
            "duration": 0.1432291666666643,
            "durationTicks": 22,
            "midi": 52,
            "name": "E3",
            "ticks": 4464,
            "time": "4464i",
            "velocity": 0.5669291338582677
          },
          {
            "duration": 0.1432291666666643,
            "durationTicks": 22,
            "midi": 40,
            "name": "E2",
            "ticks": 4464,
            "time": "4464i",
            "velocity": 0.5669291338582677
          },
          {
            "duration": 0.1432291666666643,
            "durationTicks": 22,
            "midi": 56,
            "name": "G#3",
            "ticks": 4488,
            "time": "4488i",
            "velocity": 0.5748031496062992
          },
          {
            "duration": 0.1432291666666643,
            "durationTicks": 22,
            "midi": 59,
            "name": "B3",
            "ticks": 4512,
            "time": "4512i",
            "velocity": 0.5826771653543307
          },
          {
            "duration": 0.1432291666666643,
            "durationTicks": 22,
            "midi": 56,
            "name": "G#3",
            "ticks": 4536,
            "time": "4536i",
            "velocity": 0.5984251968503937
          },
          {
            "duration": 0.1432291666666643,
            "durationTicks": 22,
            "midi": 59,
            "name": "B3",
            "ticks": 4560,
            "time": "4560i",
            "velocity": 0.6062992125984252
          },
          {
            "duration": 0.1432291666666643,
            "durationTicks": 22,
            "midi": 56,
            "name": "G#3",
            "ticks": 4584,
            "time": "4584i",
            "velocity": 0.6141732283464567
          },
          {
            "duration": 0.1432291666666643,
            "durationTicks": 22,
            "midi": 57,
            "name": "A3",
            "ticks": 4608,
            "time": "4608i",
            "velocity": 0.6299212598425197
          },
          {
            "duration": 0.1432291666666643,
            "durationTicks": 22,
            "midi": 45,
            "name": "A2",
            "ticks": 4608,
            "time": "4608i",
            "velocity": 0.6299212598425197
          },
          {
            "duration": 0.1432291666666643,
            "durationTicks": 22,
            "midi": 61,
            "name": "C#4",
            "ticks": 4632,
            "time": "4632i",
            "velocity": 0.6299212598425197
          },
          {
            "duration": 0.3125,
            "durationTicks": 48,
            "midi": 64,
            "name": "E4",
            "ticks": 4656,
            "time": "4656i",
            "velocity": 0.6299212598425197
          },
          {
            "duration": 0.1432291666666643,
            "durationTicks": 22,
            "midi": 61,
            "name": "C#4",
            "ticks": 4680,
            "time": "4680i",
            "velocity": 0.6299212598425197
          },
          {
            "duration": 0.6184895833333357,
            "durationTicks": 95,
            "midi": 64,
            "name": "E4",
            "ticks": 4704,
            "time": "4704i",
            "velocity": 0.6299212598425197
          },
          {
            "duration": 0.1432291666666643,
            "durationTicks": 22,
            "midi": 61,
            "name": "C#4",
            "ticks": 4728,
            "time": "4728i",
            "velocity": 0.6299212598425197
          },
          {
            "duration": 0.1432291666666643,
            "durationTicks": 22,
            "midi": 57,
            "name": "A3",
            "ticks": 4752,
            "time": "4752i",
            "velocity": 0.6299212598425197
          },
          {
            "duration": 0.1432291666666643,
            "durationTicks": 22,
            "midi": 45,
            "name": "A2",
            "ticks": 4752,
            "time": "4752i",
            "velocity": 0.6299212598425197
          },
          {
            "duration": 0.1432291666666643,
            "durationTicks": 22,
            "midi": 61,
            "name": "C#4",
            "ticks": 4776,
            "time": "4776i",
            "velocity": 0.6299212598425197
          },
          {
            "duration": 0.29296875,
            "durationTicks": 45,
            "midi": 64,
            "name": "E4",
            "ticks": 4800,
            "time": "4800i",
            "velocity": 0.6299212598425197
          },
          {
            "duration": 0.1432291666666643,
            "durationTicks": 22,
            "midi": 61,
            "name": "C#4",
            "ticks": 4824,
            "time": "4824i",
            "velocity": 0.6299212598425197
          },
          {
            "duration": 0.1432291666666643,
            "durationTicks": 22,
            "midi": 64,
            "name": "E4",
            "ticks": 4848,
            "time": "4848i",
            "velocity": 0.6299212598425197
          },
          {
            "duration": 0.1432291666666643,
            "durationTicks": 22,
            "midi": 61,
            "name": "C#4",
            "ticks": 4872,
            "time": "4872i",
            "velocity": 0.6299212598425197
          },
          {
            "duration": 0.1432291666666643,
            "durationTicks": 22,
            "midi": 57,
            "name": "A3",
            "ticks": 4896,
            "time": "4896i",
            "velocity": 0.6299212598425197
          },
          {
            "duration": 0.1432291666666643,
            "durationTicks": 22,
            "midi": 45,
            "name": "A2",
            "ticks": 4896,
            "time": "4896i",
            "velocity": 0.6299212598425197
          },
          {
            "duration": 0.1432291666666643,
            "durationTicks": 22,
            "midi": 61,
            "name": "C#4",
            "ticks": 4920,
            "time": "4920i",
            "velocity": 0.6299212598425197
          },
          {
            "duration": 0.1432291666666643,
            "durationTicks": 22,
            "midi": 64,
            "name": "E4",
            "ticks": 4944,
            "time": "4944i",
            "velocity": 0.6299212598425197
          },
          {
            "duration": 0.1432291666666643,
            "durationTicks": 22,
            "midi": 61,
            "name": "C#4",
            "ticks": 4968,
            "time": "4968i",
            "velocity": 0.6299212598425197
          },
          {
            "duration": 0.1432291666666643,
            "durationTicks": 22,
            "midi": 64,
            "name": "E4",
            "ticks": 4992,
            "time": "4992i",
            "velocity": 0.6299212598425197
          },
          {
            "duration": 0.1432291666666643,
            "durationTicks": 22,
            "midi": 61,
            "name": "C#4",
            "ticks": 5016,
            "time": "5016i",
            "velocity": 0.6299212598425197
          },
          {
            "duration": 0.1432291666666643,
            "durationTicks": 22,
            "midi": 57,
            "name": "A3",
            "ticks": 5040,
            "time": "5040i",
            "velocity": 0.6299212598425197
          },
          {
            "duration": 0.1432291666666643,
            "durationTicks": 22,
            "midi": 45,
            "name": "A2",
            "ticks": 5040,
            "time": "5040i",
            "velocity": 0.6299212598425197
          },
          {
            "duration": 0.1432291666666643,
            "durationTicks": 22,
            "midi": 61,
            "name": "C#4",
            "ticks": 5064,
            "time": "5064i",
            "velocity": 0.6299212598425197
          },
          {
            "duration": 0.1432291666666643,
            "durationTicks": 22,
            "midi": 64,
            "name": "E4",
            "ticks": 5088,
            "time": "5088i",
            "velocity": 0.6299212598425197
          },
          {
            "duration": 0.1432291666666643,
            "durationTicks": 22,
            "midi": 61,
            "name": "C#4",
            "ticks": 5112,
            "time": "5112i",
            "velocity": 0.6299212598425197
          },
          {
            "duration": 0.1432291666666643,
            "durationTicks": 22,
            "midi": 64,
            "name": "E4",
            "ticks": 5136,
            "time": "5136i",
            "velocity": 0.6299212598425197
          },
          {
            "duration": 0.1432291666666643,
            "durationTicks": 22,
            "midi": 61,
            "name": "C#4",
            "ticks": 5160,
            "time": "5160i",
            "velocity": 0.6299212598425197
          },
          {
            "duration": 0.1432291666666643,
            "durationTicks": 22,
            "midi": 56,
            "name": "G#3",
            "ticks": 5184,
            "time": "5184i",
            "velocity": 0.6299212598425197
          },
          {
            "duration": 0.1432291666666643,
            "durationTicks": 22,
            "midi": 44,
            "name": "G#2",
            "ticks": 5184,
            "time": "5184i",
            "velocity": 0.6299212598425197
          },
          {
            "duration": 0.1432291666666643,
            "durationTicks": 22,
            "midi": 59,
            "name": "B3",
            "ticks": 5208,
            "time": "5208i",
            "velocity": 0.6299212598425197
          },
          {
            "duration": 0.1432291666666643,
            "durationTicks": 22,
            "midi": 63,
            "name": "D#4",
            "ticks": 5232,
            "time": "5232i",
            "velocity": 0.6299212598425197
          },
          {
            "duration": 0.1432291666666643,
            "durationTicks": 22,
            "midi": 59,
            "name": "B3",
            "ticks": 5256,
            "time": "5256i",
            "velocity": 0.6299212598425197
          },
          {
            "duration": 0.1432291666666643,
            "durationTicks": 22,
            "midi": 63,
            "name": "D#4",
            "ticks": 5280,
            "time": "5280i",
            "velocity": 0.6299212598425197
          },
          {
            "duration": 0.1432291666666643,
            "durationTicks": 22,
            "midi": 59,
            "name": "B3",
            "ticks": 5304,
            "time": "5304i",
            "velocity": 0.6299212598425197
          },
          {
            "duration": 0.1432291666666643,
            "durationTicks": 22,
            "midi": 56,
            "name": "G#3",
            "ticks": 5328,
            "time": "5328i",
            "velocity": 0.6299212598425197
          },
          {
            "duration": 0.1432291666666643,
            "durationTicks": 22,
            "midi": 44,
            "name": "G#2",
            "ticks": 5328,
            "time": "5328i",
            "velocity": 0.6299212598425197
          },
          {
            "duration": 0.1432291666666643,
            "durationTicks": 22,
            "midi": 59,
            "name": "B3",
            "ticks": 5352,
            "time": "5352i",
            "velocity": 0.6299212598425197
          },
          {
            "duration": 0.1432291666666643,
            "durationTicks": 22,
            "midi": 63,
            "name": "D#4",
            "ticks": 5376,
            "time": "5376i",
            "velocity": 0.6299212598425197
          },
          {
            "duration": 0.1432291666666643,
            "durationTicks": 22,
            "midi": 59,
            "name": "B3",
            "ticks": 5400,
            "time": "5400i",
            "velocity": 0.6299212598425197
          },
          {
            "duration": 0.29296875,
            "durationTicks": 45,
            "midi": 63,
            "name": "D#4",
            "ticks": 5424,
            "time": "5424i",
            "velocity": 0.6299212598425197
          },
          {
            "duration": 0.1432291666666643,
            "durationTicks": 22,
            "midi": 59,
            "name": "B3",
            "ticks": 5448,
            "time": "5448i",
            "velocity": 0.6299212598425197
          },
          {
            "duration": 0.1432291666666643,
            "durationTicks": 22,
            "midi": 56,
            "name": "G#3",
            "ticks": 5472,
            "time": "5472i",
            "velocity": 0.6299212598425197
          },
          {
            "duration": 0.1432291666666643,
            "durationTicks": 22,
            "midi": 44,
            "name": "G#2",
            "ticks": 5472,
            "time": "5472i",
            "velocity": 0.6299212598425197
          },
          {
            "duration": 0.1432291666666643,
            "durationTicks": 22,
            "midi": 59,
            "name": "B3",
            "ticks": 5496,
            "time": "5496i",
            "velocity": 0.6299212598425197
          },
          {
            "duration": 0.1432291666666643,
            "durationTicks": 22,
            "midi": 63,
            "name": "D#4",
            "ticks": 5520,
            "time": "5520i",
            "velocity": 0.6299212598425197
          },
          {
            "duration": 0.1432291666666643,
            "durationTicks": 22,
            "midi": 59,
            "name": "B3",
            "ticks": 5544,
            "time": "5544i",
            "velocity": 0.6299212598425197
          },
          {
            "duration": 0.1432291666666643,
            "durationTicks": 22,
            "midi": 63,
            "name": "D#4",
            "ticks": 5568,
            "time": "5568i",
            "velocity": 0.6299212598425197
          },
          {
            "duration": 0.1432291666666643,
            "durationTicks": 22,
            "midi": 59,
            "name": "B3",
            "ticks": 5592,
            "time": "5592i",
            "velocity": 0.6299212598425197
          },
          {
            "duration": 0.1432291666666643,
            "durationTicks": 22,
            "midi": 55,
            "name": "G3",
            "ticks": 5616,
            "time": "5616i",
            "velocity": 0.6299212598425197
          },
          {
            "duration": 0.1432291666666643,
            "durationTicks": 22,
            "midi": 43,
            "name": "G2",
            "ticks": 5616,
            "time": "5616i",
            "velocity": 0.6299212598425197
          },
          {
            "duration": 0.1432291666666643,
            "durationTicks": 22,
            "midi": 59,
            "name": "B3",
            "ticks": 5640,
            "time": "5640i",
            "velocity": 0.6299212598425197
          },
          {
            "duration": 0.1432291666666643,
            "durationTicks": 22,
            "midi": 63,
            "name": "D#4",
            "ticks": 5664,
            "time": "5664i",
            "velocity": 0.6299212598425197
          },
          {
            "duration": 0.1432291666666643,
            "durationTicks": 22,
            "midi": 59,
            "name": "B3",
            "ticks": 5688,
            "time": "5688i",
            "velocity": 0.6299212598425197
          },
          {
            "duration": 0.1432291666666643,
            "durationTicks": 22,
            "midi": 63,
            "name": "D#4",
            "ticks": 5712,
            "time": "5712i",
            "velocity": 0.6299212598425197
          },
          {
            "duration": 0.1432291666666643,
            "durationTicks": 22,
            "midi": 59,
            "name": "B3",
            "ticks": 5736,
            "time": "5736i",
            "velocity": 0.6299212598425197
          },
          {
            "duration": 0.1432291666666643,
            "durationTicks": 22,
            "midi": 54,
            "name": "F#3",
            "ticks": 5760,
            "time": "5760i",
            "velocity": 0.6299212598425197
          },
          {
            "duration": 0.1432291666666643,
            "durationTicks": 22,
            "midi": 42,
            "name": "F#2",
            "ticks": 5760,
            "time": "5760i",
            "velocity": 0.6299212598425197
          },
          {
            "duration": 0.1432291666666643,
            "durationTicks": 22,
            "midi": 57,
            "name": "A3",
            "ticks": 5784,
            "time": "5784i",
            "velocity": 0.6299212598425197
          },
          {
            "duration": 0.1432291666666643,
            "durationTicks": 22,
            "midi": 61,
            "name": "C#4",
            "ticks": 5808,
            "time": "5808i",
            "velocity": 0.6299212598425197
          },
          {
            "duration": 0.1432291666666643,
            "durationTicks": 22,
            "midi": 57,
            "name": "A3",
            "ticks": 5832,
            "time": "5832i",
            "velocity": 0.6299212598425197
          },
          {
            "duration": 0.1432291666666643,
            "durationTicks": 22,
            "midi": 61,
            "name": "C#4",
            "ticks": 5856,
            "time": "5856i",
            "velocity": 0.6299212598425197
          },
          {
            "duration": 0.1432291666666643,
            "durationTicks": 22,
            "midi": 57,
            "name": "A3",
            "ticks": 5880,
            "time": "5880i",
            "velocity": 0.6299212598425197
          },
          {
            "duration": 0.1432291666666643,
            "durationTicks": 22,
            "midi": 54,
            "name": "F#3",
            "ticks": 5904,
            "time": "5904i",
            "velocity": 0.6299212598425197
          },
          {
            "duration": 0.1432291666666643,
            "durationTicks": 22,
            "midi": 42,
            "name": "F#2",
            "ticks": 5904,
            "time": "5904i",
            "velocity": 0.6299212598425197
          },
          {
            "duration": 0.1432291666666643,
            "durationTicks": 22,
            "midi": 57,
            "name": "A3",
            "ticks": 5928,
            "time": "5928i",
            "velocity": 0.6299212598425197
          },
          {
            "duration": 0.1432291666666643,
            "durationTicks": 22,
            "midi": 61,
            "name": "C#4",
            "ticks": 5952,
            "time": "5952i",
            "velocity": 0.6299212598425197
          },
          {
            "duration": 0.1432291666666643,
            "durationTicks": 22,
            "midi": 57,
            "name": "A3",
            "ticks": 5976,
            "time": "5976i",
            "velocity": 0.6299212598425197
          },
          {
            "duration": 0.1432291666666643,
            "durationTicks": 22,
            "midi": 61,
            "name": "C#4",
            "ticks": 6000,
            "time": "6000i",
            "velocity": 0.6299212598425197
          },
          {
            "duration": 0.1432291666666643,
            "durationTicks": 22,
            "midi": 57,
            "name": "A3",
            "ticks": 6024,
            "time": "6024i",
            "velocity": 0.6299212598425197
          },
          {
            "duration": 0.1432291666666643,
            "durationTicks": 22,
            "midi": 54,
            "name": "F#3",
            "ticks": 6048,
            "time": "6048i",
            "velocity": 0.6299212598425197
          },
          {
            "duration": 0.1432291666666643,
            "durationTicks": 22,
            "midi": 42,
            "name": "F#2",
            "ticks": 6048,
            "time": "6048i",
            "velocity": 0.6299212598425197
          },
          {
            "duration": 0.1432291666666643,
            "durationTicks": 22,
            "midi": 57,
            "name": "A3",
            "ticks": 6072,
            "time": "6072i",
            "velocity": 0.6299212598425197
          },
          {
            "duration": 0.1432291666666643,
            "durationTicks": 22,
            "midi": 61,
            "name": "C#4",
            "ticks": 6096,
            "time": "6096i",
            "velocity": 0.6299212598425197
          },
          {
            "duration": 0.1432291666666643,
            "durationTicks": 22,
            "midi": 57,
            "name": "A3",
            "ticks": 6120,
            "time": "6120i",
            "velocity": 0.6299212598425197
          },
          {
            "duration": 0.29296875,
            "durationTicks": 45,
            "midi": 61,
            "name": "C#4",
            "ticks": 6144,
            "time": "6144i",
            "velocity": 0.6299212598425197
          },
          {
            "duration": 0.1432291666666714,
            "durationTicks": 22,
            "midi": 57,
            "name": "A3",
            "ticks": 6168,
            "time": "6168i",
            "velocity": 0.6299212598425197
          },
          {
            "duration": 0.1432291666666714,
            "durationTicks": 22,
            "midi": 54,
            "name": "F#3",
            "ticks": 6192,
            "time": "6192i",
            "velocity": 0.6299212598425197
          },
          {
            "duration": 0.1432291666666714,
            "durationTicks": 22,
            "midi": 42,
            "name": "F#2",
            "ticks": 6192,
            "time": "6192i",
            "velocity": 0.6299212598425197
          },
          {
            "duration": 0.1432291666666714,
            "durationTicks": 22,
            "midi": 57,
            "name": "A3",
            "ticks": 6216,
            "time": "6216i",
            "velocity": 0.6299212598425197
          },
          {
            "duration": 0.29296875,
            "durationTicks": 45,
            "midi": 61,
            "name": "C#4",
            "ticks": 6240,
            "time": "6240i",
            "velocity": 0.6299212598425197
          },
          {
            "duration": 0.1432291666666714,
            "durationTicks": 22,
            "midi": 57,
            "name": "A3",
            "ticks": 6264,
            "time": "6264i",
            "velocity": 0.6299212598425197
          },
          {
            "duration": 0.29296875,
            "durationTicks": 45,
            "midi": 61,
            "name": "C#4",
            "ticks": 6288,
            "time": "6288i",
            "velocity": 0.6299212598425197
          },
          {
            "duration": 0.1432291666666714,
            "durationTicks": 22,
            "midi": 57,
            "name": "A3",
            "ticks": 6312,
            "time": "6312i",
            "velocity": 0.6299212598425197
          },
          {
            "duration": 0.29296875,
            "durationTicks": 45,
            "midi": 56,
            "name": "G#3",
            "ticks": 6336,
            "time": "6336i",
            "velocity": 0.6299212598425197
          },
          {
            "duration": 0.29296875,
            "durationTicks": 45,
            "midi": 44,
            "name": "G#2",
            "ticks": 6336,
            "time": "6336i",
            "velocity": 0.6299212598425197
          },
          {
            "duration": 0.29296875,
            "durationTicks": 45,
            "midi": 56,
            "name": "G#3",
            "ticks": 6384,
            "time": "6384i",
            "velocity": 0.6377952755905512
          },
          {
            "duration": 0.29296875,
            "durationTicks": 45,
            "midi": 44,
            "name": "G#2",
            "ticks": 6384,
            "time": "6384i",
            "velocity": 0.6377952755905512
          },
          {
            "duration": 0.29296875,
            "durationTicks": 45,
            "midi": 56,
            "name": "G#3",
            "ticks": 6432,
            "time": "6432i",
            "velocity": 0.6456692913385826
          },
          {
            "duration": 0.29296875,
            "durationTicks": 45,
            "midi": 44,
            "name": "G#2",
            "ticks": 6432,
            "time": "6432i",
            "velocity": 0.6456692913385826
          },
          {
            "duration": 0.29296875,
            "durationTicks": 45,
            "midi": 56,
            "name": "G#3",
            "ticks": 6480,
            "time": "6480i",
            "velocity": 0.6614173228346457
          },
          {
            "duration": 0.29296875,
            "durationTicks": 45,
            "midi": 44,
            "name": "G#2",
            "ticks": 6480,
            "time": "6480i",
            "velocity": 0.6614173228346457
          },
          {
            "duration": 0.29296875,
            "durationTicks": 45,
            "midi": 56,
            "name": "G#3",
            "ticks": 6528,
            "time": "6528i",
            "velocity": 0.6692913385826772
          },
          {
            "duration": 0.29296875,
            "durationTicks": 45,
            "midi": 44,
            "name": "G#2",
            "ticks": 6528,
            "time": "6528i",
            "velocity": 0.6692913385826772
          },
          {
            "duration": 0.29296875,
            "durationTicks": 45,
            "midi": 56,
            "name": "G#3",
            "ticks": 6576,
            "time": "6576i",
            "velocity": 0.6771653543307087
          },
          {
            "duration": 0.29296875,
            "durationTicks": 45,
            "midi": 44,
            "name": "G#2",
            "ticks": 6576,
            "time": "6576i",
            "velocity": 0.6771653543307087
          },
          {
            "duration": 0.1432291666666714,
            "durationTicks": 22,
            "midi": 56,
            "name": "G#3",
            "ticks": 6624,
            "time": "6624i",
            "velocity": 0.6929133858267716
          },
          {
            "duration": 0.1432291666666714,
            "durationTicks": 22,
            "midi": 51,
            "name": "D#3",
            "ticks": 6624,
            "time": "6624i",
            "velocity": 0.6929133858267716
          },
          {
            "duration": 0.1432291666666714,
            "durationTicks": 22,
            "midi": 44,
            "name": "G#2",
            "ticks": 6648,
            "time": "6648i",
            "velocity": 0.6929133858267716
          },
          {
            "duration": 0.1432291666666714,
            "durationTicks": 22,
            "midi": 56,
            "name": "G#3",
            "ticks": 6672,
            "time": "6672i",
            "velocity": 0.7007874015748031
          },
          {
            "duration": 0.1432291666666714,
            "durationTicks": 22,
            "midi": 51,
            "name": "D#3",
            "ticks": 6672,
            "time": "6672i",
            "velocity": 0.7007874015748031
          },
          {
            "duration": 0.1432291666666714,
            "durationTicks": 22,
            "midi": 44,
            "name": "G#2",
            "ticks": 6696,
            "time": "6696i",
            "velocity": 0.7086614173228346
          },
          {
            "duration": 0.1432291666666714,
            "durationTicks": 22,
            "midi": 56,
            "name": "G#3",
            "ticks": 6720,
            "time": "6720i",
            "velocity": 0.7086614173228346
          },
          {
            "duration": 0.1432291666666714,
            "durationTicks": 22,
            "midi": 51,
            "name": "D#3",
            "ticks": 6720,
            "time": "6720i",
            "velocity": 0.7086614173228346
          },
          {
            "duration": 0.1432291666666714,
            "durationTicks": 22,
            "midi": 44,
            "name": "G#2",
            "ticks": 6744,
            "time": "6744i",
            "velocity": 0.7165354330708661
          },
          {
            "duration": 0.8854166666666714,
            "durationTicks": 136,
            "midi": 68,
            "name": "G#4",
            "ticks": 6768,
            "time": "6768i",
            "velocity": 0.7244094488188977
          },
          {
            "duration": 0.8854166666666714,
            "durationTicks": 136,
            "midi": 63,
            "name": "D#4",
            "ticks": 6768,
            "time": "6768i",
            "velocity": 0.7244094488188977
          },
          {
            "duration": 0.8854166666666714,
            "durationTicks": 136,
            "midi": 60,
            "name": "C4",
            "ticks": 6768,
            "time": "6768i",
            "velocity": 0.7244094488188977
          },
          {
            "duration": 0.29296875,
            "durationTicks": 45,
            "midi": 45,
            "name": "A2",
            "ticks": 6912,
            "time": "6912i",
            "velocity": 0.7559055118110236
          },
          {
            "duration": 0.29296875,
            "durationTicks": 45,
            "midi": 33,
            "name": "A1",
            "ticks": 6912,
            "time": "6912i",
            "velocity": 0.7559055118110236
          },
          {
            "duration": 0.8854166666666714,
            "durationTicks": 136,
            "midi": 64,
            "name": "E4",
            "ticks": 7056,
            "time": "7056i",
            "velocity": 0.7559055118110236
          },
          {
            "duration": 0.8854166666666714,
            "durationTicks": 136,
            "midi": 61,
            "name": "C#4",
            "ticks": 7056,
            "time": "7056i",
            "velocity": 0.7559055118110236
          },
          {
            "duration": 0.8854166666666714,
            "durationTicks": 136,
            "midi": 56,
            "name": "G#3",
            "ticks": 7056,
            "time": "7056i",
            "velocity": 0.7559055118110236
          },
          {
            "duration": 0.8854166666666714,
            "durationTicks": 136,
            "midi": 78,
            "name": "F#5",
            "ticks": 7200,
            "time": "7200i",
            "velocity": 0.7559055118110236
          },
          {
            "duration": 0.8854166666666714,
            "durationTicks": 136,
            "midi": 76,
            "name": "E5",
            "ticks": 7200,
            "time": "7200i",
            "velocity": 0.7559055118110236
          },
          {
            "duration": 0.8854166666666714,
            "durationTicks": 136,
            "midi": 73,
            "name": "C#5",
            "ticks": 7200,
            "time": "7200i",
            "velocity": 0.7559055118110236
          },
          {
            "duration": 0.8854166666666714,
            "durationTicks": 136,
            "midi": 68,
            "name": "G#4",
            "ticks": 7200,
            "time": "7200i",
            "velocity": 0.7559055118110236
          },
          {
            "duration": 0.8854166666666714,
            "durationTicks": 136,
            "midi": 68,
            "name": "G#4",
            "ticks": 7344,
            "time": "7344i",
            "velocity": 0.7559055118110236
          },
          {
            "duration": 0.8854166666666714,
            "durationTicks": 136,
            "midi": 64,
            "name": "E4",
            "ticks": 7344,
            "time": "7344i",
            "velocity": 0.7559055118110236
          },
          {
            "duration": 0.8854166666666714,
            "durationTicks": 136,
            "midi": 61,
            "name": "C#4",
            "ticks": 7344,
            "time": "7344i",
            "velocity": 0.7559055118110236
          },
          {
            "duration": 0.29296875,
            "durationTicks": 45,
            "midi": 45,
            "name": "A2",
            "ticks": 7488,
            "time": "7488i",
            "velocity": 0.7559055118110236
          },
          {
            "duration": 0.29296875,
            "durationTicks": 45,
            "midi": 33,
            "name": "A1",
            "ticks": 7488,
            "time": "7488i",
            "velocity": 0.7559055118110236
          },
          {
            "duration": 0.8854166666666714,
            "durationTicks": 136,
            "midi": 56,
            "name": "G#3",
            "ticks": 7632,
            "time": "7632i",
            "velocity": 0.7559055118110236
          },
          {
            "duration": 0.8854166666666714,
            "durationTicks": 136,
            "midi": 52,
            "name": "E3",
            "ticks": 7632,
            "time": "7632i",
            "velocity": 0.7559055118110236
          },
          {
            "duration": 0.8854166666666714,
            "durationTicks": 136,
            "midi": 45,
            "name": "A2",
            "ticks": 7632,
            "time": "7632i",
            "velocity": 0.7559055118110236
          },
          {
            "duration": 0.9309895833333286,
            "durationTicks": 143,
            "midi": 45,
            "name": "A2",
            "ticks": 7776,
            "time": "7776i",
            "velocity": 0.7559055118110236
          },
          {
            "duration": 0.8658854166666572,
            "durationTicks": 133,
            "midi": 52,
            "name": "E3",
            "ticks": 7786,
            "time": "7786i",
            "velocity": 0.7559055118110236
          },
          {
            "duration": 0.80078125,
            "durationTicks": 123,
            "midi": 60,
            "name": "C4",
            "ticks": 7796,
            "time": "7796i",
            "velocity": 0.7559055118110236
          },
          {
            "duration": 0.8854166666666714,
            "durationTicks": 136,
            "midi": 64,
            "name": "E4",
            "ticks": 7920,
            "time": "7920i",
            "velocity": 0.7559055118110236
          },
          {
            "duration": 0.8854166666666714,
            "durationTicks": 136,
            "midi": 60,
            "name": "C4",
            "ticks": 7920,
            "time": "7920i",
            "velocity": 0.7559055118110236
          },
          {
            "duration": 0.8854166666666714,
            "durationTicks": 136,
            "midi": 57,
            "name": "A3",
            "ticks": 7920,
            "time": "7920i",
            "velocity": 0.7559055118110236
          },
          {
            "duration": 0.8854166666666714,
            "durationTicks": 136,
            "midi": 54,
            "name": "F#3",
            "ticks": 7920,
            "time": "7920i",
            "velocity": 0.7559055118110236
          },
          {
            "duration": 0.29296875,
            "durationTicks": 45,
            "midi": 40,
            "name": "E2",
            "ticks": 8064,
            "time": "8064i",
            "velocity": 0.7559055118110236
          },
          {
            "duration": 0.29296875,
            "durationTicks": 45,
            "midi": 28,
            "name": "E1",
            "ticks": 8064,
            "time": "8064i",
            "velocity": 0.7559055118110236
          },
          {
            "duration": 0.29296875,
            "durationTicks": 45,
            "midi": 52,
            "name": "E3",
            "ticks": 8160,
            "time": "8160i",
            "velocity": 0.7559055118110236
          },
          {
            "duration": 0.29296875,
            "durationTicks": 45,
            "midi": 40,
            "name": "E2",
            "ticks": 8160,
            "time": "8160i",
            "velocity": 0.7559055118110236
          },
          {
            "duration": 0.8854166666666714,
            "durationTicks": 136,
            "midi": 63,
            "name": "D#4",
            "ticks": 8208,
            "time": "8208i",
            "velocity": 0.7559055118110236
          },
          {
            "duration": 0.8854166666666714,
            "durationTicks": 136,
            "midi": 59,
            "name": "B3",
            "ticks": 8208,
            "time": "8208i",
            "velocity": 0.7559055118110236
          },
          {
            "duration": 0.8854166666666714,
            "durationTicks": 136,
            "midi": 56,
            "name": "G#3",
            "ticks": 8208,
            "time": "8208i",
            "velocity": 0.7559055118110236
          },
          {
            "duration": 0.8854166666666714,
            "durationTicks": 136,
            "midi": 75,
            "name": "D#5",
            "ticks": 8352,
            "time": "8352i",
            "velocity": 0.7559055118110236
          },
          {
            "duration": 0.8854166666666714,
            "durationTicks": 136,
            "midi": 71,
            "name": "B4",
            "ticks": 8352,
            "time": "8352i",
            "velocity": 0.7559055118110236
          },
          {
            "duration": 0.8854166666666714,
            "durationTicks": 136,
            "midi": 68,
            "name": "G#4",
            "ticks": 8352,
            "time": "8352i",
            "velocity": 0.7559055118110236
          },
          {
            "duration": 0.8854166666666714,
            "durationTicks": 136,
            "midi": 68,
            "name": "G#4",
            "ticks": 8496,
            "time": "8496i",
            "velocity": 0.7559055118110236
          },
          {
            "duration": 0.8854166666666714,
            "durationTicks": 136,
            "midi": 63,
            "name": "D#4",
            "ticks": 8496,
            "time": "8496i",
            "velocity": 0.7559055118110236
          },
          {
            "duration": 0.8854166666666714,
            "durationTicks": 136,
            "midi": 59,
            "name": "B3",
            "ticks": 8496,
            "time": "8496i",
            "velocity": 0.7559055118110236
          },
          {
            "duration": 0.29296875,
            "durationTicks": 45,
            "midi": 40,
            "name": "E2",
            "ticks": 8640,
            "time": "8640i",
            "velocity": 0.7559055118110236
          },
          {
            "duration": 0.29296875,
            "durationTicks": 45,
            "midi": 28,
            "name": "E1",
            "ticks": 8640,
            "time": "8640i",
            "velocity": 0.7559055118110236
          },
          {
            "duration": 0.29296875,
            "durationTicks": 45,
            "midi": 52,
            "name": "E3",
            "ticks": 8736,
            "time": "8736i",
            "velocity": 0.7559055118110236
          },
          {
            "duration": 0.29296875,
            "durationTicks": 45,
            "midi": 40,
            "name": "E2",
            "ticks": 8736,
            "time": "8736i",
            "velocity": 0.7559055118110236
          },
          {
            "duration": 0.8854166666666714,
            "durationTicks": 136,
            "midi": 63,
            "name": "D#4",
            "ticks": 8784,
            "time": "8784i",
            "velocity": 0.7559055118110236
          },
          {
            "duration": 0.8854166666666714,
            "durationTicks": 136,
            "midi": 59,
            "name": "B3",
            "ticks": 8784,
            "time": "8784i",
            "velocity": 0.7559055118110236
          },
          {
            "duration": 0.8854166666666714,
            "durationTicks": 136,
            "midi": 56,
            "name": "G#3",
            "ticks": 8784,
            "time": "8784i",
            "velocity": 0.7559055118110236
          },
          {
            "duration": 0.8854166666666714,
            "durationTicks": 136,
            "midi": 42,
            "name": "F#2",
            "ticks": 8928,
            "time": "8928i",
            "velocity": 0.7559055118110236
          },
          {
            "duration": 0.8854166666666714,
            "durationTicks": 136,
            "midi": 30,
            "name": "F#1",
            "ticks": 8928,
            "time": "8928i",
            "velocity": 0.7559055118110236
          },
          {
            "duration": 0.8854166666666714,
            "durationTicks": 136,
            "midi": 44,
            "name": "G#2",
            "ticks": 9072,
            "time": "9072i",
            "velocity": 0.7559055118110236
          },
          {
            "duration": 0.8854166666666714,
            "durationTicks": 136,
            "midi": 32,
            "name": "G#1",
            "ticks": 9072,
            "time": "9072i",
            "velocity": 0.7559055118110236
          },
          {
            "duration": 0.29296875,
            "durationTicks": 45,
            "midi": 45,
            "name": "A2",
            "ticks": 9216,
            "time": "9216i",
            "velocity": 0.7559055118110236
          },
          {
            "duration": 0.29296875,
            "durationTicks": 45,
            "midi": 33,
            "name": "A1",
            "ticks": 9216,
            "time": "9216i",
            "velocity": 0.7559055118110236
          },
          {
            "duration": 0.8854166666666714,
            "durationTicks": 136,
            "midi": 64,
            "name": "E4",
            "ticks": 9360,
            "time": "9360i",
            "velocity": 0.7559055118110236
          },
          {
            "duration": 0.8854166666666714,
            "durationTicks": 136,
            "midi": 61,
            "name": "C#4",
            "ticks": 9360,
            "time": "9360i",
            "velocity": 0.7559055118110236
          },
          {
            "duration": 0.8854166666666714,
            "durationTicks": 136,
            "midi": 56,
            "name": "G#3",
            "ticks": 9360,
            "time": "9360i",
            "velocity": 0.7559055118110236
          },
          {
            "duration": 0.8854166666666714,
            "durationTicks": 136,
            "midi": 76,
            "name": "E5",
            "ticks": 9504,
            "time": "9504i",
            "velocity": 0.7559055118110236
          },
          {
            "duration": 0.8854166666666714,
            "durationTicks": 136,
            "midi": 73,
            "name": "C#5",
            "ticks": 9504,
            "time": "9504i",
            "velocity": 0.7559055118110236
          },
          {
            "duration": 0.8854166666666714,
            "durationTicks": 136,
            "midi": 68,
            "name": "G#4",
            "ticks": 9504,
            "time": "9504i",
            "velocity": 0.7559055118110236
          },
          {
            "duration": 0.8854166666666714,
            "durationTicks": 136,
            "midi": 68,
            "name": "G#4",
            "ticks": 9648,
            "time": "9648i",
            "velocity": 0.7559055118110236
          },
          {
            "duration": 0.8854166666666714,
            "durationTicks": 136,
            "midi": 64,
            "name": "E4",
            "ticks": 9648,
            "time": "9648i",
            "velocity": 0.7559055118110236
          },
          {
            "duration": 0.8854166666666714,
            "durationTicks": 136,
            "midi": 61,
            "name": "C#4",
            "ticks": 9648,
            "time": "9648i",
            "velocity": 0.7559055118110236
          },
          {
            "duration": 0.29296875,
            "durationTicks": 45,
            "midi": 45,
            "name": "A2",
            "ticks": 9792,
            "time": "9792i",
            "velocity": 0.7559055118110236
          },
          {
            "duration": 0.29296875,
            "durationTicks": 45,
            "midi": 33,
            "name": "A1",
            "ticks": 9792,
            "time": "9792i",
            "velocity": 0.7559055118110236
          },
          {
            "duration": 0.1432291666666714,
            "durationTicks": 22,
            "midi": 33,
            "name": "A1",
            "ticks": 9864,
            "time": "9864i",
            "velocity": 0.7559055118110236
          },
          {
            "duration": 0.1432291666666714,
            "durationTicks": 22,
            "midi": 45,
            "name": "A2",
            "ticks": 9888,
            "time": "9888i",
            "velocity": 0.7559055118110236
          },
          {
            "duration": 0.1432291666666714,
            "durationTicks": 22,
            "midi": 33,
            "name": "A1",
            "ticks": 9912,
            "time": "9912i",
            "velocity": 0.7559055118110236
          },
          {
            "duration": 0.8854166666666714,
            "durationTicks": 136,
            "midi": 56,
            "name": "G#3",
            "ticks": 9936,
            "time": "9936i",
            "velocity": 0.7559055118110236
          },
          {
            "duration": 0.8854166666666714,
            "durationTicks": 136,
            "midi": 52,
            "name": "E3",
            "ticks": 9936,
            "time": "9936i",
            "velocity": 0.7559055118110236
          },
          {
            "duration": 0.8854166666666714,
            "durationTicks": 136,
            "midi": 45,
            "name": "A2",
            "ticks": 9936,
            "time": "9936i",
            "velocity": 0.7559055118110236
          },
          {
            "duration": 0.3059895833333286,
            "durationTicks": 47,
            "midi": 45,
            "name": "A2",
            "ticks": 10080,
            "time": "10080i",
            "velocity": 0.7559055118110236
          },
          {
            "duration": 0.2408854166666572,
            "durationTicks": 37,
            "midi": 52,
            "name": "E3",
            "ticks": 10090,
            "time": "10090i",
            "velocity": 0.7559055118110236
          },
          {
            "duration": 0.17578125,
            "durationTicks": 27,
            "midi": 60,
            "name": "C4",
            "ticks": 10100,
            "time": "10100i",
            "velocity": 0.7559055118110236
          },
          {
            "duration": 0.1432291666666714,
            "durationTicks": 22,
            "midi": 45,
            "name": "A2",
            "ticks": 10152,
            "time": "10152i",
            "velocity": 0.7559055118110236
          },
          {
            "duration": 0.1432291666666714,
            "durationTicks": 22,
            "midi": 60,
            "name": "C4",
            "ticks": 10176,
            "time": "10176i",
            "velocity": 0.7559055118110236
          },
          {
            "duration": 0.1432291666666714,
            "durationTicks": 22,
            "midi": 52,
            "name": "E3",
            "ticks": 10176,
            "time": "10176i",
            "velocity": 0.7559055118110236
          },
          {
            "duration": 0.1432291666666714,
            "durationTicks": 22,
            "midi": 45,
            "name": "A2",
            "ticks": 10200,
            "time": "10200i",
            "velocity": 0.7559055118110236
          },
          {
            "duration": 0.8854166666666714,
            "durationTicks": 136,
            "midi": 64,
            "name": "E4",
            "ticks": 10224,
            "time": "10224i",
            "velocity": 0.7559055118110236
          },
          {
            "duration": 0.8854166666666714,
            "durationTicks": 136,
            "midi": 60,
            "name": "C4",
            "ticks": 10224,
            "time": "10224i",
            "velocity": 0.7559055118110236
          },
          {
            "duration": 0.8854166666666714,
            "durationTicks": 136,
            "midi": 57,
            "name": "A3",
            "ticks": 10224,
            "time": "10224i",
            "velocity": 0.7559055118110236
          },
          {
            "duration": 0.8854166666666714,
            "durationTicks": 136,
            "midi": 54,
            "name": "F#3",
            "ticks": 10224,
            "time": "10224i",
            "velocity": 0.7559055118110236
          },
          {
            "duration": 0.29296875,
            "durationTicks": 45,
            "midi": 40,
            "name": "E2",
            "ticks": 10368,
            "time": "10368i",
            "velocity": 0.7559055118110236
          },
          {
            "duration": 0.29296875,
            "durationTicks": 45,
            "midi": 28,
            "name": "E1",
            "ticks": 10368,
            "time": "10368i",
            "velocity": 0.7559055118110236
          },
          {
            "duration": 0.29296875,
            "durationTicks": 45,
            "midi": 52,
            "name": "E3",
            "ticks": 10464,
            "time": "10464i",
            "velocity": 0.7559055118110236
          },
          {
            "duration": 0.29296875,
            "durationTicks": 45,
            "midi": 40,
            "name": "E2",
            "ticks": 10464,
            "time": "10464i",
            "velocity": 0.7559055118110236
          },
          {
            "duration": 0.8854166666666714,
            "durationTicks": 136,
            "midi": 63,
            "name": "D#4",
            "ticks": 10512,
            "time": "10512i",
            "velocity": 0.7559055118110236
          },
          {
            "duration": 0.8854166666666714,
            "durationTicks": 136,
            "midi": 59,
            "name": "B3",
            "ticks": 10512,
            "time": "10512i",
            "velocity": 0.7559055118110236
          },
          {
            "duration": 0.8854166666666714,
            "durationTicks": 136,
            "midi": 56,
            "name": "G#3",
            "ticks": 10512,
            "time": "10512i",
            "velocity": 0.7559055118110236
          },
          {
            "duration": 0.8854166666666714,
            "durationTicks": 136,
            "midi": 75,
            "name": "D#5",
            "ticks": 10656,
            "time": "10656i",
            "velocity": 0.7559055118110236
          },
          {
            "duration": 0.8854166666666714,
            "durationTicks": 136,
            "midi": 71,
            "name": "B4",
            "ticks": 10656,
            "time": "10656i",
            "velocity": 0.7559055118110236
          },
          {
            "duration": 0.8854166666666714,
            "durationTicks": 136,
            "midi": 68,
            "name": "G#4",
            "ticks": 10656,
            "time": "10656i",
            "velocity": 0.7559055118110236
          },
          {
            "duration": 0.8854166666666714,
            "durationTicks": 136,
            "midi": 68,
            "name": "G#4",
            "ticks": 10800,
            "time": "10800i",
            "velocity": 0.7559055118110236
          },
          {
            "duration": 0.8854166666666714,
            "durationTicks": 136,
            "midi": 63,
            "name": "D#4",
            "ticks": 10800,
            "time": "10800i",
            "velocity": 0.7559055118110236
          },
          {
            "duration": 0.8854166666666714,
            "durationTicks": 136,
            "midi": 59,
            "name": "B3",
            "ticks": 10800,
            "time": "10800i",
            "velocity": 0.7559055118110236
          },
          {
            "duration": 0.29296875,
            "durationTicks": 45,
            "midi": 40,
            "name": "E2",
            "ticks": 10944,
            "time": "10944i",
            "velocity": 0.7559055118110236
          },
          {
            "duration": 0.29296875,
            "durationTicks": 45,
            "midi": 28,
            "name": "E1",
            "ticks": 10944,
            "time": "10944i",
            "velocity": 0.7559055118110236
          },
          {
            "duration": 0.29296875,
            "durationTicks": 45,
            "midi": 40,
            "name": "E2",
            "ticks": 10992,
            "time": "10992i",
            "velocity": 0.7559055118110236
          },
          {
            "duration": 0.29296875,
            "durationTicks": 45,
            "midi": 28,
            "name": "E1",
            "ticks": 10992,
            "time": "10992i",
            "velocity": 0.7559055118110236
          },
          {
            "duration": 0.29296875,
            "durationTicks": 45,
            "midi": 52,
            "name": "E3",
            "ticks": 11040,
            "time": "11040i",
            "velocity": 0.7559055118110236
          },
          {
            "duration": 0.29296875,
            "durationTicks": 45,
            "midi": 40,
            "name": "E2",
            "ticks": 11040,
            "time": "11040i",
            "velocity": 0.7559055118110236
          },
          {
            "duration": 0.8854166666666714,
            "durationTicks": 136,
            "midi": 63,
            "name": "D#4",
            "ticks": 11088,
            "time": "11088i",
            "velocity": 0.7559055118110236
          },
          {
            "duration": 0.8854166666666714,
            "durationTicks": 136,
            "midi": 59,
            "name": "B3",
            "ticks": 11088,
            "time": "11088i",
            "velocity": 0.7559055118110236
          },
          {
            "duration": 0.8854166666666714,
            "durationTicks": 136,
            "midi": 56,
            "name": "G#3",
            "ticks": 11088,
            "time": "11088i",
            "velocity": 0.7559055118110236
          },
          {
            "duration": 0.4427083333333286,
            "durationTicks": 68,
            "midi": 42,
            "name": "F#2",
            "ticks": 11232,
            "time": "11232i",
            "velocity": 0.7559055118110236
          },
          {
            "duration": 0.4427083333333286,
            "durationTicks": 68,
            "midi": 30,
            "name": "F#1",
            "ticks": 11232,
            "time": "11232i",
            "velocity": 0.7559055118110236
          },
          {
            "duration": 0.4427083333333286,
            "durationTicks": 68,
            "midi": 54,
            "name": "F#3",
            "ticks": 11304,
            "time": "11304i",
            "velocity": 0.6929133858267716
          },
          {
            "duration": 0.4427083333333286,
            "durationTicks": 68,
            "midi": 49,
            "name": "C#3",
            "ticks": 11304,
            "time": "11304i",
            "velocity": 0.6929133858267716
          },
          {
            "duration": 0.4427083333333286,
            "durationTicks": 68,
            "midi": 45,
            "name": "A2",
            "ticks": 11304,
            "time": "11304i",
            "velocity": 0.6929133858267716
          },
          {
            "duration": 0.4427083333333286,
            "durationTicks": 68,
            "midi": 42,
            "name": "F#2",
            "ticks": 11304,
            "time": "11304i",
            "velocity": 0.6929133858267716
          },
          {
            "duration": 0.4427083333333286,
            "durationTicks": 68,
            "midi": 44,
            "name": "G#2",
            "ticks": 11376,
            "time": "11376i",
            "velocity": 0.6299212598425197
          },
          {
            "duration": 0.4427083333333286,
            "durationTicks": 68,
            "midi": 32,
            "name": "G#1",
            "ticks": 11376,
            "time": "11376i",
            "velocity": 0.6299212598425197
          },
          {
            "duration": 0.4427083333333286,
            "durationTicks": 68,
            "midi": 56,
            "name": "G#3",
            "ticks": 11448,
            "time": "11448i",
            "velocity": 0.5669291338582677
          },
          {
            "duration": 0.4427083333333286,
            "durationTicks": 68,
            "midi": 54,
            "name": "F#3",
            "ticks": 11448,
            "time": "11448i",
            "velocity": 0.5669291338582677
          },
          {
            "duration": 0.4427083333333286,
            "durationTicks": 68,
            "midi": 51,
            "name": "D#3",
            "ticks": 11448,
            "time": "11448i",
            "velocity": 0.5669291338582677
          },
          {
            "duration": 0.4427083333333286,
            "durationTicks": 68,
            "midi": 44,
            "name": "G#2",
            "ticks": 11448,
            "time": "11448i",
            "velocity": 0.5669291338582677
          },
          {
            "duration": 0.1432291666666714,
            "durationTicks": 22,
            "midi": 57,
            "name": "A3",
            "ticks": 11520,
            "time": "11520i",
            "velocity": 0.5039370078740157
          },
          {
            "duration": 0.1432291666666714,
            "durationTicks": 22,
            "midi": 49,
            "name": "C#3",
            "ticks": 11520,
            "time": "11520i",
            "velocity": 0.5039370078740157
          },
          {
            "duration": 0.1432291666666714,
            "durationTicks": 22,
            "midi": 45,
            "name": "A2",
            "ticks": 11520,
            "time": "11520i",
            "velocity": 0.5039370078740157
          },
          {
            "duration": 0.1432291666666714,
            "durationTicks": 22,
            "midi": 61,
            "name": "C#4",
            "ticks": 11544,
            "time": "11544i",
            "velocity": 0.5039370078740157
          },
          {
            "duration": 0.1432291666666714,
            "durationTicks": 22,
            "midi": 57,
            "name": "A3",
            "ticks": 11544,
            "time": "11544i",
            "velocity": 0.5039370078740157
          },
          {
            "duration": 0.1432291666666714,
            "durationTicks": 22,
            "midi": 64,
            "name": "E4",
            "ticks": 11568,
            "time": "11568i",
            "velocity": 0.5039370078740157
          },
          {
            "duration": 0.1432291666666714,
            "durationTicks": 22,
            "midi": 61,
            "name": "C#4",
            "ticks": 11568,
            "time": "11568i",
            "velocity": 0.5039370078740157
          },
          {
            "duration": 0.1432291666666714,
            "durationTicks": 22,
            "midi": 61,
            "name": "C#4",
            "ticks": 11592,
            "time": "11592i",
            "velocity": 0.5039370078740157
          },
          {
            "duration": 0.1432291666666714,
            "durationTicks": 22,
            "midi": 57,
            "name": "A3",
            "ticks": 11592,
            "time": "11592i",
            "velocity": 0.5039370078740157
          },
          {
            "duration": 0.1432291666666714,
            "durationTicks": 22,
            "midi": 64,
            "name": "E4",
            "ticks": 11616,
            "time": "11616i",
            "velocity": 0.5039370078740157
          },
          {
            "duration": 0.1432291666666714,
            "durationTicks": 22,
            "midi": 61,
            "name": "C#4",
            "ticks": 11616,
            "time": "11616i",
            "velocity": 0.5039370078740157
          },
          {
            "duration": 0.1432291666666714,
            "durationTicks": 22,
            "midi": 61,
            "name": "C#4",
            "ticks": 11640,
            "time": "11640i",
            "velocity": 0.5039370078740157
          },
          {
            "duration": 0.1432291666666714,
            "durationTicks": 22,
            "midi": 57,
            "name": "A3",
            "ticks": 11640,
            "time": "11640i",
            "velocity": 0.5039370078740157
          },
          {
            "duration": 0.1432291666666714,
            "durationTicks": 22,
            "midi": 57,
            "name": "A3",
            "ticks": 11664,
            "time": "11664i",
            "velocity": 0.5039370078740157
          },
          {
            "duration": 0.1432291666666714,
            "durationTicks": 22,
            "midi": 49,
            "name": "C#3",
            "ticks": 11664,
            "time": "11664i",
            "velocity": 0.5039370078740157
          },
          {
            "duration": 0.1432291666666714,
            "durationTicks": 22,
            "midi": 45,
            "name": "A2",
            "ticks": 11664,
            "time": "11664i",
            "velocity": 0.5039370078740157
          },
          {
            "duration": 0.1432291666666714,
            "durationTicks": 22,
            "midi": 61,
            "name": "C#4",
            "ticks": 11688,
            "time": "11688i",
            "velocity": 0.5039370078740157
          },
          {
            "duration": 0.1432291666666714,
            "durationTicks": 22,
            "midi": 57,
            "name": "A3",
            "ticks": 11688,
            "time": "11688i",
            "velocity": 0.5039370078740157
          },
          {
            "duration": 0.1432291666666714,
            "durationTicks": 22,
            "midi": 64,
            "name": "E4",
            "ticks": 11712,
            "time": "11712i",
            "velocity": 0.5039370078740157
          },
          {
            "duration": 0.1432291666666714,
            "durationTicks": 22,
            "midi": 61,
            "name": "C#4",
            "ticks": 11712,
            "time": "11712i",
            "velocity": 0.5039370078740157
          },
          {
            "duration": 0.1432291666666714,
            "durationTicks": 22,
            "midi": 61,
            "name": "C#4",
            "ticks": 11736,
            "time": "11736i",
            "velocity": 0.5039370078740157
          },
          {
            "duration": 0.1432291666666714,
            "durationTicks": 22,
            "midi": 57,
            "name": "A3",
            "ticks": 11736,
            "time": "11736i",
            "velocity": 0.5039370078740157
          },
          {
            "duration": 0.1432291666666714,
            "durationTicks": 22,
            "midi": 64,
            "name": "E4",
            "ticks": 11760,
            "time": "11760i",
            "velocity": 0.5039370078740157
          },
          {
            "duration": 0.1432291666666714,
            "durationTicks": 22,
            "midi": 61,
            "name": "C#4",
            "ticks": 11760,
            "time": "11760i",
            "velocity": 0.5039370078740157
          },
          {
            "duration": 0.1432291666666714,
            "durationTicks": 22,
            "midi": 61,
            "name": "C#4",
            "ticks": 11784,
            "time": "11784i",
            "velocity": 0.5039370078740157
          },
          {
            "duration": 0.1432291666666714,
            "durationTicks": 22,
            "midi": 57,
            "name": "A3",
            "ticks": 11784,
            "time": "11784i",
            "velocity": 0.5039370078740157
          },
          {
            "duration": 0.1432291666666714,
            "durationTicks": 22,
            "midi": 57,
            "name": "A3",
            "ticks": 11808,
            "time": "11808i",
            "velocity": 0.5039370078740157
          },
          {
            "duration": 0.1432291666666714,
            "durationTicks": 22,
            "midi": 49,
            "name": "C#3",
            "ticks": 11808,
            "time": "11808i",
            "velocity": 0.5039370078740157
          },
          {
            "duration": 0.1432291666666714,
            "durationTicks": 22,
            "midi": 45,
            "name": "A2",
            "ticks": 11808,
            "time": "11808i",
            "velocity": 0.5039370078740157
          },
          {
            "duration": 0.1432291666666714,
            "durationTicks": 22,
            "midi": 61,
            "name": "C#4",
            "ticks": 11832,
            "time": "11832i",
            "velocity": 0.5039370078740157
          },
          {
            "duration": 0.1432291666666714,
            "durationTicks": 22,
            "midi": 57,
            "name": "A3",
            "ticks": 11832,
            "time": "11832i",
            "velocity": 0.5039370078740157
          },
          {
            "duration": 0.1432291666666714,
            "durationTicks": 22,
            "midi": 64,
            "name": "E4",
            "ticks": 11856,
            "time": "11856i",
            "velocity": 0.5039370078740157
          },
          {
            "duration": 0.1432291666666714,
            "durationTicks": 22,
            "midi": 61,
            "name": "C#4",
            "ticks": 11856,
            "time": "11856i",
            "velocity": 0.5039370078740157
          },
          {
            "duration": 0.1432291666666714,
            "durationTicks": 22,
            "midi": 61,
            "name": "C#4",
            "ticks": 11880,
            "time": "11880i",
            "velocity": 0.5039370078740157
          },
          {
            "duration": 0.1432291666666714,
            "durationTicks": 22,
            "midi": 57,
            "name": "A3",
            "ticks": 11880,
            "time": "11880i",
            "velocity": 0.5039370078740157
          },
          {
            "duration": 0.1432291666666714,
            "durationTicks": 22,
            "midi": 64,
            "name": "E4",
            "ticks": 11904,
            "time": "11904i",
            "velocity": 0.5039370078740157
          },
          {
            "duration": 0.1432291666666714,
            "durationTicks": 22,
            "midi": 61,
            "name": "C#4",
            "ticks": 11904,
            "time": "11904i",
            "velocity": 0.5039370078740157
          },
          {
            "duration": 0.1432291666666714,
            "durationTicks": 22,
            "midi": 61,
            "name": "C#4",
            "ticks": 11928,
            "time": "11928i",
            "velocity": 0.5039370078740157
          },
          {
            "duration": 0.1432291666666714,
            "durationTicks": 22,
            "midi": 57,
            "name": "A3",
            "ticks": 11928,
            "time": "11928i",
            "velocity": 0.5039370078740157
          },
          {
            "duration": 0.1432291666666714,
            "durationTicks": 22,
            "midi": 57,
            "name": "A3",
            "ticks": 11952,
            "time": "11952i",
            "velocity": 0.5039370078740157
          },
          {
            "duration": 0.1432291666666714,
            "durationTicks": 22,
            "midi": 49,
            "name": "C#3",
            "ticks": 11952,
            "time": "11952i",
            "velocity": 0.5039370078740157
          },
          {
            "duration": 0.1432291666666714,
            "durationTicks": 22,
            "midi": 45,
            "name": "A2",
            "ticks": 11952,
            "time": "11952i",
            "velocity": 0.5039370078740157
          },
          {
            "duration": 0.1432291666666714,
            "durationTicks": 22,
            "midi": 61,
            "name": "C#4",
            "ticks": 11976,
            "time": "11976i",
            "velocity": 0.5039370078740157
          },
          {
            "duration": 0.1432291666666714,
            "durationTicks": 22,
            "midi": 57,
            "name": "A3",
            "ticks": 11976,
            "time": "11976i",
            "velocity": 0.5039370078740157
          },
          {
            "duration": 0.1432291666666714,
            "durationTicks": 22,
            "midi": 64,
            "name": "E4",
            "ticks": 12000,
            "time": "12000i",
            "velocity": 0.5039370078740157
          },
          {
            "duration": 0.1432291666666714,
            "durationTicks": 22,
            "midi": 61,
            "name": "C#4",
            "ticks": 12000,
            "time": "12000i",
            "velocity": 0.5039370078740157
          },
          {
            "duration": 0.1432291666666714,
            "durationTicks": 22,
            "midi": 61,
            "name": "C#4",
            "ticks": 12024,
            "time": "12024i",
            "velocity": 0.5039370078740157
          },
          {
            "duration": 0.1432291666666714,
            "durationTicks": 22,
            "midi": 57,
            "name": "A3",
            "ticks": 12024,
            "time": "12024i",
            "velocity": 0.5039370078740157
          },
          {
            "duration": 0.1432291666666714,
            "durationTicks": 22,
            "midi": 64,
            "name": "E4",
            "ticks": 12048,
            "time": "12048i",
            "velocity": 0.5039370078740157
          },
          {
            "duration": 0.1432291666666714,
            "durationTicks": 22,
            "midi": 61,
            "name": "C#4",
            "ticks": 12048,
            "time": "12048i",
            "velocity": 0.5039370078740157
          },
          {
            "duration": 0.1432291666666714,
            "durationTicks": 22,
            "midi": 61,
            "name": "C#4",
            "ticks": 12072,
            "time": "12072i",
            "velocity": 0.5039370078740157
          },
          {
            "duration": 0.1432291666666714,
            "durationTicks": 22,
            "midi": 57,
            "name": "A3",
            "ticks": 12072,
            "time": "12072i",
            "velocity": 0.5039370078740157
          },
          {
            "duration": 0.1432291666666714,
            "durationTicks": 22,
            "midi": 56,
            "name": "G#3",
            "ticks": 12096,
            "time": "12096i",
            "velocity": 0.5039370078740157
          },
          {
            "duration": 0.1432291666666714,
            "durationTicks": 22,
            "midi": 47,
            "name": "B2",
            "ticks": 12096,
            "time": "12096i",
            "velocity": 0.5039370078740157
          },
          {
            "duration": 0.1432291666666714,
            "durationTicks": 22,
            "midi": 44,
            "name": "G#2",
            "ticks": 12096,
            "time": "12096i",
            "velocity": 0.5039370078740157
          },
          {
            "duration": 0.1432291666666714,
            "durationTicks": 22,
            "midi": 59,
            "name": "B3",
            "ticks": 12120,
            "time": "12120i",
            "velocity": 0.5039370078740157
          },
          {
            "duration": 0.1432291666666714,
            "durationTicks": 22,
            "midi": 56,
            "name": "G#3",
            "ticks": 12120,
            "time": "12120i",
            "velocity": 0.5039370078740157
          },
          {
            "duration": 0.1432291666666714,
            "durationTicks": 22,
            "midi": 63,
            "name": "D#4",
            "ticks": 12144,
            "time": "12144i",
            "velocity": 0.5039370078740157
          },
          {
            "duration": 0.1432291666666714,
            "durationTicks": 22,
            "midi": 59,
            "name": "B3",
            "ticks": 12144,
            "time": "12144i",
            "velocity": 0.5039370078740157
          },
          {
            "duration": 0.1432291666666714,
            "durationTicks": 22,
            "midi": 59,
            "name": "B3",
            "ticks": 12168,
            "time": "12168i",
            "velocity": 0.5039370078740157
          },
          {
            "duration": 0.1432291666666714,
            "durationTicks": 22,
            "midi": 56,
            "name": "G#3",
            "ticks": 12168,
            "time": "12168i",
            "velocity": 0.5039370078740157
          },
          {
            "duration": 0.1432291666666714,
            "durationTicks": 22,
            "midi": 63,
            "name": "D#4",
            "ticks": 12192,
            "time": "12192i",
            "velocity": 0.5039370078740157
          },
          {
            "duration": 0.1432291666666714,
            "durationTicks": 22,
            "midi": 59,
            "name": "B3",
            "ticks": 12192,
            "time": "12192i",
            "velocity": 0.5039370078740157
          },
          {
            "duration": 0.1432291666666714,
            "durationTicks": 22,
            "midi": 59,
            "name": "B3",
            "ticks": 12216,
            "time": "12216i",
            "velocity": 0.5039370078740157
          },
          {
            "duration": 0.1432291666666714,
            "durationTicks": 22,
            "midi": 56,
            "name": "G#3",
            "ticks": 12216,
            "time": "12216i",
            "velocity": 0.5039370078740157
          },
          {
            "duration": 0.1432291666666714,
            "durationTicks": 22,
            "midi": 56,
            "name": "G#3",
            "ticks": 12240,
            "time": "12240i",
            "velocity": 0.5039370078740157
          },
          {
            "duration": 0.1432291666666714,
            "durationTicks": 22,
            "midi": 47,
            "name": "B2",
            "ticks": 12240,
            "time": "12240i",
            "velocity": 0.5039370078740157
          },
          {
            "duration": 0.1432291666666714,
            "durationTicks": 22,
            "midi": 44,
            "name": "G#2",
            "ticks": 12240,
            "time": "12240i",
            "velocity": 0.5039370078740157
          },
          {
            "duration": 0.1432291666666714,
            "durationTicks": 22,
            "midi": 59,
            "name": "B3",
            "ticks": 12264,
            "time": "12264i",
            "velocity": 0.5039370078740157
          },
          {
            "duration": 0.1432291666666714,
            "durationTicks": 22,
            "midi": 56,
            "name": "G#3",
            "ticks": 12264,
            "time": "12264i",
            "velocity": 0.5039370078740157
          },
          {
            "duration": 0.1432291666666572,
            "durationTicks": 22,
            "midi": 63,
            "name": "D#4",
            "ticks": 12288,
            "time": "12288i",
            "velocity": 0.5039370078740157
          },
          {
            "duration": 0.1432291666666572,
            "durationTicks": 22,
            "midi": 59,
            "name": "B3",
            "ticks": 12288,
            "time": "12288i",
            "velocity": 0.5039370078740157
          },
          {
            "duration": 0.1432291666666572,
            "durationTicks": 22,
            "midi": 59,
            "name": "B3",
            "ticks": 12312,
            "time": "12312i",
            "velocity": 0.5039370078740157
          },
          {
            "duration": 0.1432291666666572,
            "durationTicks": 22,
            "midi": 56,
            "name": "G#3",
            "ticks": 12312,
            "time": "12312i",
            "velocity": 0.5039370078740157
          },
          {
            "duration": 0.1432291666666572,
            "durationTicks": 22,
            "midi": 63,
            "name": "D#4",
            "ticks": 12336,
            "time": "12336i",
            "velocity": 0.5039370078740157
          },
          {
            "duration": 0.1432291666666572,
            "durationTicks": 22,
            "midi": 59,
            "name": "B3",
            "ticks": 12336,
            "time": "12336i",
            "velocity": 0.5039370078740157
          },
          {
            "duration": 0.1432291666666572,
            "durationTicks": 22,
            "midi": 59,
            "name": "B3",
            "ticks": 12360,
            "time": "12360i",
            "velocity": 0.5039370078740157
          },
          {
            "duration": 0.1432291666666572,
            "durationTicks": 22,
            "midi": 56,
            "name": "G#3",
            "ticks": 12360,
            "time": "12360i",
            "velocity": 0.5039370078740157
          },
          {
            "duration": 0.1432291666666572,
            "durationTicks": 22,
            "midi": 56,
            "name": "G#3",
            "ticks": 12384,
            "time": "12384i",
            "velocity": 0.5039370078740157
          },
          {
            "duration": 0.1432291666666572,
            "durationTicks": 22,
            "midi": 47,
            "name": "B2",
            "ticks": 12384,
            "time": "12384i",
            "velocity": 0.5039370078740157
          },
          {
            "duration": 0.1432291666666572,
            "durationTicks": 22,
            "midi": 44,
            "name": "G#2",
            "ticks": 12384,
            "time": "12384i",
            "velocity": 0.5039370078740157
          },
          {
            "duration": 0.1432291666666572,
            "durationTicks": 22,
            "midi": 59,
            "name": "B3",
            "ticks": 12408,
            "time": "12408i",
            "velocity": 0.5039370078740157
          },
          {
            "duration": 0.1432291666666572,
            "durationTicks": 22,
            "midi": 56,
            "name": "G#3",
            "ticks": 12408,
            "time": "12408i",
            "velocity": 0.5039370078740157
          },
          {
            "duration": 0.1432291666666572,
            "durationTicks": 22,
            "midi": 63,
            "name": "D#4",
            "ticks": 12432,
            "time": "12432i",
            "velocity": 0.5039370078740157
          },
          {
            "duration": 0.1432291666666572,
            "durationTicks": 22,
            "midi": 59,
            "name": "B3",
            "ticks": 12432,
            "time": "12432i",
            "velocity": 0.5039370078740157
          },
          {
            "duration": 0.1432291666666572,
            "durationTicks": 22,
            "midi": 59,
            "name": "B3",
            "ticks": 12456,
            "time": "12456i",
            "velocity": 0.5039370078740157
          },
          {
            "duration": 0.1432291666666572,
            "durationTicks": 22,
            "midi": 56,
            "name": "G#3",
            "ticks": 12456,
            "time": "12456i",
            "velocity": 0.5039370078740157
          },
          {
            "duration": 0.1432291666666572,
            "durationTicks": 22,
            "midi": 63,
            "name": "D#4",
            "ticks": 12480,
            "time": "12480i",
            "velocity": 0.5039370078740157
          },
          {
            "duration": 0.1432291666666572,
            "durationTicks": 22,
            "midi": 59,
            "name": "B3",
            "ticks": 12480,
            "time": "12480i",
            "velocity": 0.5039370078740157
          },
          {
            "duration": 0.1432291666666572,
            "durationTicks": 22,
            "midi": 59,
            "name": "B3",
            "ticks": 12504,
            "time": "12504i",
            "velocity": 0.5039370078740157
          },
          {
            "duration": 0.1432291666666572,
            "durationTicks": 22,
            "midi": 56,
            "name": "G#3",
            "ticks": 12504,
            "time": "12504i",
            "velocity": 0.5039370078740157
          },
          {
            "duration": 0.1432291666666572,
            "durationTicks": 22,
            "midi": 55,
            "name": "G3",
            "ticks": 12528,
            "time": "12528i",
            "velocity": 0.5039370078740157
          },
          {
            "duration": 0.1432291666666572,
            "durationTicks": 22,
            "midi": 47,
            "name": "B2",
            "ticks": 12528,
            "time": "12528i",
            "velocity": 0.5039370078740157
          },
          {
            "duration": 0.1432291666666572,
            "durationTicks": 22,
            "midi": 43,
            "name": "G2",
            "ticks": 12528,
            "time": "12528i",
            "velocity": 0.5039370078740157
          },
          {
            "duration": 0.1432291666666572,
            "durationTicks": 22,
            "midi": 59,
            "name": "B3",
            "ticks": 12552,
            "time": "12552i",
            "velocity": 0.5039370078740157
          },
          {
            "duration": 0.1432291666666572,
            "durationTicks": 22,
            "midi": 55,
            "name": "G3",
            "ticks": 12552,
            "time": "12552i",
            "velocity": 0.5039370078740157
          },
          {
            "duration": 0.1432291666666572,
            "durationTicks": 22,
            "midi": 63,
            "name": "D#4",
            "ticks": 12576,
            "time": "12576i",
            "velocity": 0.5039370078740157
          },
          {
            "duration": 0.1432291666666572,
            "durationTicks": 22,
            "midi": 59,
            "name": "B3",
            "ticks": 12576,
            "time": "12576i",
            "velocity": 0.5039370078740157
          },
          {
            "duration": 0.1432291666666572,
            "durationTicks": 22,
            "midi": 59,
            "name": "B3",
            "ticks": 12600,
            "time": "12600i",
            "velocity": 0.5039370078740157
          },
          {
            "duration": 0.1432291666666572,
            "durationTicks": 22,
            "midi": 55,
            "name": "G3",
            "ticks": 12600,
            "time": "12600i",
            "velocity": 0.5039370078740157
          },
          {
            "duration": 0.1432291666666572,
            "durationTicks": 22,
            "midi": 63,
            "name": "D#4",
            "ticks": 12624,
            "time": "12624i",
            "velocity": 0.5039370078740157
          },
          {
            "duration": 0.1432291666666572,
            "durationTicks": 22,
            "midi": 59,
            "name": "B3",
            "ticks": 12624,
            "time": "12624i",
            "velocity": 0.5039370078740157
          },
          {
            "duration": 0.1432291666666572,
            "durationTicks": 22,
            "midi": 59,
            "name": "B3",
            "ticks": 12648,
            "time": "12648i",
            "velocity": 0.5039370078740157
          },
          {
            "duration": 0.1432291666666572,
            "durationTicks": 22,
            "midi": 55,
            "name": "G3",
            "ticks": 12648,
            "time": "12648i",
            "velocity": 0.5039370078740157
          },
          {
            "duration": 0.1432291666666572,
            "durationTicks": 22,
            "midi": 54,
            "name": "F#3",
            "ticks": 12672,
            "time": "12672i",
            "velocity": 0.5039370078740157
          },
          {
            "duration": 0.1432291666666572,
            "durationTicks": 22,
            "midi": 45,
            "name": "A2",
            "ticks": 12672,
            "time": "12672i",
            "velocity": 0.5039370078740157
          },
          {
            "duration": 0.1432291666666572,
            "durationTicks": 22,
            "midi": 42,
            "name": "F#2",
            "ticks": 12672,
            "time": "12672i",
            "velocity": 0.5039370078740157
          },
          {
            "duration": 0.1432291666666572,
            "durationTicks": 22,
            "midi": 57,
            "name": "A3",
            "ticks": 12696,
            "time": "12696i",
            "velocity": 0.5039370078740157
          },
          {
            "duration": 0.1432291666666572,
            "durationTicks": 22,
            "midi": 54,
            "name": "F#3",
            "ticks": 12696,
            "time": "12696i",
            "velocity": 0.5039370078740157
          },
          {
            "duration": 0.1432291666666572,
            "durationTicks": 22,
            "midi": 61,
            "name": "C#4",
            "ticks": 12720,
            "time": "12720i",
            "velocity": 0.5039370078740157
          },
          {
            "duration": 0.1432291666666572,
            "durationTicks": 22,
            "midi": 57,
            "name": "A3",
            "ticks": 12720,
            "time": "12720i",
            "velocity": 0.5039370078740157
          },
          {
            "duration": 0.1432291666666572,
            "durationTicks": 22,
            "midi": 57,
            "name": "A3",
            "ticks": 12744,
            "time": "12744i",
            "velocity": 0.5039370078740157
          },
          {
            "duration": 0.1432291666666572,
            "durationTicks": 22,
            "midi": 54,
            "name": "F#3",
            "ticks": 12744,
            "time": "12744i",
            "velocity": 0.5039370078740157
          },
          {
            "duration": 0.1432291666666572,
            "durationTicks": 22,
            "midi": 61,
            "name": "C#4",
            "ticks": 12768,
            "time": "12768i",
            "velocity": 0.5039370078740157
          },
          {
            "duration": 0.1432291666666572,
            "durationTicks": 22,
            "midi": 57,
            "name": "A3",
            "ticks": 12768,
            "time": "12768i",
            "velocity": 0.5039370078740157
          },
          {
            "duration": 0.1432291666666572,
            "durationTicks": 22,
            "midi": 57,
            "name": "A3",
            "ticks": 12792,
            "time": "12792i",
            "velocity": 0.5039370078740157
          },
          {
            "duration": 0.1432291666666572,
            "durationTicks": 22,
            "midi": 54,
            "name": "F#3",
            "ticks": 12792,
            "time": "12792i",
            "velocity": 0.5039370078740157
          },
          {
            "duration": 0.1432291666666572,
            "durationTicks": 22,
            "midi": 54,
            "name": "F#3",
            "ticks": 12816,
            "time": "12816i",
            "velocity": 0.5039370078740157
          },
          {
            "duration": 0.1432291666666572,
            "durationTicks": 22,
            "midi": 45,
            "name": "A2",
            "ticks": 12816,
            "time": "12816i",
            "velocity": 0.5039370078740157
          },
          {
            "duration": 0.1432291666666572,
            "durationTicks": 22,
            "midi": 42,
            "name": "F#2",
            "ticks": 12816,
            "time": "12816i",
            "velocity": 0.5039370078740157
          },
          {
            "duration": 0.1432291666666572,
            "durationTicks": 22,
            "midi": 57,
            "name": "A3",
            "ticks": 12840,
            "time": "12840i",
            "velocity": 0.5039370078740157
          },
          {
            "duration": 0.1432291666666572,
            "durationTicks": 22,
            "midi": 54,
            "name": "F#3",
            "ticks": 12840,
            "time": "12840i",
            "velocity": 0.5039370078740157
          },
          {
            "duration": 0.1432291666666572,
            "durationTicks": 22,
            "midi": 61,
            "name": "C#4",
            "ticks": 12864,
            "time": "12864i",
            "velocity": 0.5039370078740157
          },
          {
            "duration": 0.1432291666666572,
            "durationTicks": 22,
            "midi": 57,
            "name": "A3",
            "ticks": 12864,
            "time": "12864i",
            "velocity": 0.5039370078740157
          },
          {
            "duration": 0.1432291666666572,
            "durationTicks": 22,
            "midi": 57,
            "name": "A3",
            "ticks": 12888,
            "time": "12888i",
            "velocity": 0.5039370078740157
          },
          {
            "duration": 0.1432291666666572,
            "durationTicks": 22,
            "midi": 54,
            "name": "F#3",
            "ticks": 12888,
            "time": "12888i",
            "velocity": 0.5039370078740157
          },
          {
            "duration": 0.1432291666666572,
            "durationTicks": 22,
            "midi": 61,
            "name": "C#4",
            "ticks": 12912,
            "time": "12912i",
            "velocity": 0.5039370078740157
          },
          {
            "duration": 0.1432291666666572,
            "durationTicks": 22,
            "midi": 57,
            "name": "A3",
            "ticks": 12912,
            "time": "12912i",
            "velocity": 0.5039370078740157
          },
          {
            "duration": 0.1432291666666572,
            "durationTicks": 22,
            "midi": 57,
            "name": "A3",
            "ticks": 12936,
            "time": "12936i",
            "velocity": 0.5039370078740157
          },
          {
            "duration": 0.1432291666666572,
            "durationTicks": 22,
            "midi": 54,
            "name": "F#3",
            "ticks": 12936,
            "time": "12936i",
            "velocity": 0.5039370078740157
          },
          {
            "duration": 0.1432291666666572,
            "durationTicks": 22,
            "midi": 54,
            "name": "F#3",
            "ticks": 12960,
            "time": "12960i",
            "velocity": 0.5039370078740157
          },
          {
            "duration": 0.1432291666666572,
            "durationTicks": 22,
            "midi": 45,
            "name": "A2",
            "ticks": 12960,
            "time": "12960i",
            "velocity": 0.5039370078740157
          },
          {
            "duration": 0.1432291666666572,
            "durationTicks": 22,
            "midi": 42,
            "name": "F#2",
            "ticks": 12960,
            "time": "12960i",
            "velocity": 0.5039370078740157
          },
          {
            "duration": 0.1432291666666572,
            "durationTicks": 22,
            "midi": 57,
            "name": "A3",
            "ticks": 12984,
            "time": "12984i",
            "velocity": 0.5039370078740157
          },
          {
            "duration": 0.1432291666666572,
            "durationTicks": 22,
            "midi": 54,
            "name": "F#3",
            "ticks": 12984,
            "time": "12984i",
            "velocity": 0.5039370078740157
          },
          {
            "duration": 0.1432291666666572,
            "durationTicks": 22,
            "midi": 61,
            "name": "C#4",
            "ticks": 13008,
            "time": "13008i",
            "velocity": 0.5039370078740157
          },
          {
            "duration": 0.1432291666666572,
            "durationTicks": 22,
            "midi": 57,
            "name": "A3",
            "ticks": 13008,
            "time": "13008i",
            "velocity": 0.5039370078740157
          },
          {
            "duration": 0.1432291666666572,
            "durationTicks": 22,
            "midi": 57,
            "name": "A3",
            "ticks": 13032,
            "time": "13032i",
            "velocity": 0.5039370078740157
          },
          {
            "duration": 0.1432291666666572,
            "durationTicks": 22,
            "midi": 54,
            "name": "F#3",
            "ticks": 13032,
            "time": "13032i",
            "velocity": 0.5039370078740157
          },
          {
            "duration": 0.1432291666666572,
            "durationTicks": 22,
            "midi": 61,
            "name": "C#4",
            "ticks": 13056,
            "time": "13056i",
            "velocity": 0.5039370078740157
          },
          {
            "duration": 0.1432291666666572,
            "durationTicks": 22,
            "midi": 57,
            "name": "A3",
            "ticks": 13056,
            "time": "13056i",
            "velocity": 0.5039370078740157
          },
          {
            "duration": 0.1432291666666572,
            "durationTicks": 22,
            "midi": 57,
            "name": "A3",
            "ticks": 13080,
            "time": "13080i",
            "velocity": 0.5039370078740157
          },
          {
            "duration": 0.1432291666666572,
            "durationTicks": 22,
            "midi": 54,
            "name": "F#3",
            "ticks": 13080,
            "time": "13080i",
            "velocity": 0.5039370078740157
          },
          {
            "duration": 0.1432291666666572,
            "durationTicks": 22,
            "midi": 54,
            "name": "F#3",
            "ticks": 13104,
            "time": "13104i",
            "velocity": 0.5039370078740157
          },
          {
            "duration": 0.1432291666666572,
            "durationTicks": 22,
            "midi": 45,
            "name": "A2",
            "ticks": 13104,
            "time": "13104i",
            "velocity": 0.5039370078740157
          },
          {
            "duration": 0.1432291666666572,
            "durationTicks": 22,
            "midi": 42,
            "name": "F#2",
            "ticks": 13104,
            "time": "13104i",
            "velocity": 0.5039370078740157
          },
          {
            "duration": 0.1432291666666572,
            "durationTicks": 22,
            "midi": 57,
            "name": "A3",
            "ticks": 13128,
            "time": "13128i",
            "velocity": 0.5039370078740157
          },
          {
            "duration": 0.1432291666666572,
            "durationTicks": 22,
            "midi": 54,
            "name": "F#3",
            "ticks": 13128,
            "time": "13128i",
            "velocity": 0.5039370078740157
          },
          {
            "duration": 0.1432291666666572,
            "durationTicks": 22,
            "midi": 61,
            "name": "C#4",
            "ticks": 13152,
            "time": "13152i",
            "velocity": 0.5039370078740157
          },
          {
            "duration": 0.1432291666666572,
            "durationTicks": 22,
            "midi": 57,
            "name": "A3",
            "ticks": 13152,
            "time": "13152i",
            "velocity": 0.5039370078740157
          },
          {
            "duration": 0.1432291666666572,
            "durationTicks": 22,
            "midi": 57,
            "name": "A3",
            "ticks": 13176,
            "time": "13176i",
            "velocity": 0.5039370078740157
          },
          {
            "duration": 0.1432291666666572,
            "durationTicks": 22,
            "midi": 54,
            "name": "F#3",
            "ticks": 13176,
            "time": "13176i",
            "velocity": 0.5039370078740157
          },
          {
            "duration": 0.1432291666666572,
            "durationTicks": 22,
            "midi": 61,
            "name": "C#4",
            "ticks": 13200,
            "time": "13200i",
            "velocity": 0.5039370078740157
          },
          {
            "duration": 0.1432291666666572,
            "durationTicks": 22,
            "midi": 57,
            "name": "A3",
            "ticks": 13200,
            "time": "13200i",
            "velocity": 0.5039370078740157
          },
          {
            "duration": 0.1432291666666572,
            "durationTicks": 22,
            "midi": 57,
            "name": "A3",
            "ticks": 13224,
            "time": "13224i",
            "velocity": 0.5039370078740157
          },
          {
            "duration": 0.1432291666666572,
            "durationTicks": 22,
            "midi": 54,
            "name": "F#3",
            "ticks": 13224,
            "time": "13224i",
            "velocity": 0.5039370078740157
          },
          {
            "duration": 0.1432291666666572,
            "durationTicks": 22,
            "midi": 52,
            "name": "E3",
            "ticks": 13248,
            "time": "13248i",
            "velocity": 0.5039370078740157
          },
          {
            "duration": 0.1432291666666572,
            "durationTicks": 22,
            "midi": 44,
            "name": "G#2",
            "ticks": 13248,
            "time": "13248i",
            "velocity": 0.5039370078740157
          },
          {
            "duration": 0.1432291666666572,
            "durationTicks": 22,
            "midi": 40,
            "name": "E2",
            "ticks": 13248,
            "time": "13248i",
            "velocity": 0.5039370078740157
          },
          {
            "duration": 0.1432291666666572,
            "durationTicks": 22,
            "midi": 56,
            "name": "G#3",
            "ticks": 13272,
            "time": "13272i",
            "velocity": 0.5039370078740157
          },
          {
            "duration": 0.1432291666666572,
            "durationTicks": 22,
            "midi": 52,
            "name": "E3",
            "ticks": 13272,
            "time": "13272i",
            "velocity": 0.5039370078740157
          },
          {
            "duration": 0.1432291666666572,
            "durationTicks": 22,
            "midi": 59,
            "name": "B3",
            "ticks": 13296,
            "time": "13296i",
            "velocity": 0.5039370078740157
          },
          {
            "duration": 0.1432291666666572,
            "durationTicks": 22,
            "midi": 56,
            "name": "G#3",
            "ticks": 13296,
            "time": "13296i",
            "velocity": 0.5039370078740157
          },
          {
            "duration": 0.1432291666666572,
            "durationTicks": 22,
            "midi": 56,
            "name": "G#3",
            "ticks": 13320,
            "time": "13320i",
            "velocity": 0.5039370078740157
          },
          {
            "duration": 0.1432291666666572,
            "durationTicks": 22,
            "midi": 52,
            "name": "E3",
            "ticks": 13320,
            "time": "13320i",
            "velocity": 0.5039370078740157
          },
          {
            "duration": 0.1432291666666572,
            "durationTicks": 22,
            "midi": 59,
            "name": "B3",
            "ticks": 13344,
            "time": "13344i",
            "velocity": 0.5039370078740157
          },
          {
            "duration": 0.1432291666666572,
            "durationTicks": 22,
            "midi": 56,
            "name": "G#3",
            "ticks": 13344,
            "time": "13344i",
            "velocity": 0.5039370078740157
          },
          {
            "duration": 0.1432291666666572,
            "durationTicks": 22,
            "midi": 56,
            "name": "G#3",
            "ticks": 13368,
            "time": "13368i",
            "velocity": 0.5039370078740157
          },
          {
            "duration": 0.1432291666666572,
            "durationTicks": 22,
            "midi": 52,
            "name": "E3",
            "ticks": 13368,
            "time": "13368i",
            "velocity": 0.5039370078740157
          },
          {
            "duration": 0.1432291666666572,
            "durationTicks": 22,
            "midi": 52,
            "name": "E3",
            "ticks": 13392,
            "time": "13392i",
            "velocity": 0.5039370078740157
          },
          {
            "duration": 0.1432291666666572,
            "durationTicks": 22,
            "midi": 44,
            "name": "G#2",
            "ticks": 13392,
            "time": "13392i",
            "velocity": 0.5039370078740157
          },
          {
            "duration": 0.1432291666666572,
            "durationTicks": 22,
            "midi": 40,
            "name": "E2",
            "ticks": 13392,
            "time": "13392i",
            "velocity": 0.5039370078740157
          },
          {
            "duration": 0.1432291666666572,
            "durationTicks": 22,
            "midi": 56,
            "name": "G#3",
            "ticks": 13416,
            "time": "13416i",
            "velocity": 0.5039370078740157
          },
          {
            "duration": 0.1432291666666572,
            "durationTicks": 22,
            "midi": 52,
            "name": "E3",
            "ticks": 13416,
            "time": "13416i",
            "velocity": 0.5039370078740157
          },
          {
            "duration": 0.1432291666666572,
            "durationTicks": 22,
            "midi": 59,
            "name": "B3",
            "ticks": 13440,
            "time": "13440i",
            "velocity": 0.5039370078740157
          },
          {
            "duration": 0.1432291666666572,
            "durationTicks": 22,
            "midi": 56,
            "name": "G#3",
            "ticks": 13440,
            "time": "13440i",
            "velocity": 0.5039370078740157
          },
          {
            "duration": 0.1432291666666572,
            "durationTicks": 22,
            "midi": 56,
            "name": "G#3",
            "ticks": 13464,
            "time": "13464i",
            "velocity": 0.5039370078740157
          },
          {
            "duration": 0.1432291666666572,
            "durationTicks": 22,
            "midi": 52,
            "name": "E3",
            "ticks": 13464,
            "time": "13464i",
            "velocity": 0.5039370078740157
          },
          {
            "duration": 0.1432291666666572,
            "durationTicks": 22,
            "midi": 59,
            "name": "B3",
            "ticks": 13488,
            "time": "13488i",
            "velocity": 0.5039370078740157
          },
          {
            "duration": 0.1432291666666572,
            "durationTicks": 22,
            "midi": 56,
            "name": "G#3",
            "ticks": 13488,
            "time": "13488i",
            "velocity": 0.5039370078740157
          },
          {
            "duration": 0.1432291666666572,
            "durationTicks": 22,
            "midi": 56,
            "name": "G#3",
            "ticks": 13512,
            "time": "13512i",
            "velocity": 0.5039370078740157
          },
          {
            "duration": 0.1432291666666572,
            "durationTicks": 22,
            "midi": 52,
            "name": "E3",
            "ticks": 13512,
            "time": "13512i",
            "velocity": 0.5039370078740157
          },
          {
            "duration": 0.1432291666666572,
            "durationTicks": 22,
            "midi": 52,
            "name": "E3",
            "ticks": 13536,
            "time": "13536i",
            "velocity": 0.5039370078740157
          },
          {
            "duration": 0.1432291666666572,
            "durationTicks": 22,
            "midi": 44,
            "name": "G#2",
            "ticks": 13536,
            "time": "13536i",
            "velocity": 0.5039370078740157
          },
          {
            "duration": 0.1432291666666572,
            "durationTicks": 22,
            "midi": 40,
            "name": "E2",
            "ticks": 13536,
            "time": "13536i",
            "velocity": 0.5039370078740157
          },
          {
            "duration": 0.1432291666666572,
            "durationTicks": 22,
            "midi": 56,
            "name": "G#3",
            "ticks": 13560,
            "time": "13560i",
            "velocity": 0.5118110236220472
          },
          {
            "duration": 0.1432291666666572,
            "durationTicks": 22,
            "midi": 52,
            "name": "E3",
            "ticks": 13560,
            "time": "13560i",
            "velocity": 0.5118110236220472
          },
          {
            "duration": 0.1432291666666572,
            "durationTicks": 22,
            "midi": 59,
            "name": "B3",
            "ticks": 13584,
            "time": "13584i",
            "velocity": 0.5196850393700787
          },
          {
            "duration": 0.1432291666666572,
            "durationTicks": 22,
            "midi": 56,
            "name": "G#3",
            "ticks": 13584,
            "time": "13584i",
            "velocity": 0.5196850393700787
          },
          {
            "duration": 0.1432291666666572,
            "durationTicks": 22,
            "midi": 56,
            "name": "G#3",
            "ticks": 13608,
            "time": "13608i",
            "velocity": 0.5354330708661418
          },
          {
            "duration": 0.1432291666666572,
            "durationTicks": 22,
            "midi": 52,
            "name": "E3",
            "ticks": 13608,
            "time": "13608i",
            "velocity": 0.5354330708661418
          },
          {
            "duration": 0.1432291666666572,
            "durationTicks": 22,
            "midi": 59,
            "name": "B3",
            "ticks": 13632,
            "time": "13632i",
            "velocity": 0.5433070866141733
          },
          {
            "duration": 0.1432291666666572,
            "durationTicks": 22,
            "midi": 56,
            "name": "G#3",
            "ticks": 13632,
            "time": "13632i",
            "velocity": 0.5433070866141733
          },
          {
            "duration": 0.1432291666666572,
            "durationTicks": 22,
            "midi": 56,
            "name": "G#3",
            "ticks": 13656,
            "time": "13656i",
            "velocity": 0.5511811023622047
          },
          {
            "duration": 0.1432291666666572,
            "durationTicks": 22,
            "midi": 52,
            "name": "E3",
            "ticks": 13656,
            "time": "13656i",
            "velocity": 0.5511811023622047
          },
          {
            "duration": 0.1432291666666572,
            "durationTicks": 22,
            "midi": 52,
            "name": "E3",
            "ticks": 13680,
            "time": "13680i",
            "velocity": 0.5669291338582677
          },
          {
            "duration": 0.1432291666666572,
            "durationTicks": 22,
            "midi": 44,
            "name": "G#2",
            "ticks": 13680,
            "time": "13680i",
            "velocity": 0.5669291338582677
          },
          {
            "duration": 0.1432291666666572,
            "durationTicks": 22,
            "midi": 40,
            "name": "E2",
            "ticks": 13680,
            "time": "13680i",
            "velocity": 0.5669291338582677
          },
          {
            "duration": 0.1432291666666572,
            "durationTicks": 22,
            "midi": 56,
            "name": "G#3",
            "ticks": 13704,
            "time": "13704i",
            "velocity": 0.5748031496062992
          },
          {
            "duration": 0.1432291666666572,
            "durationTicks": 22,
            "midi": 52,
            "name": "E3",
            "ticks": 13704,
            "time": "13704i",
            "velocity": 0.5748031496062992
          },
          {
            "duration": 0.1432291666666572,
            "durationTicks": 22,
            "midi": 59,
            "name": "B3",
            "ticks": 13728,
            "time": "13728i",
            "velocity": 0.5826771653543307
          },
          {
            "duration": 0.1432291666666572,
            "durationTicks": 22,
            "midi": 56,
            "name": "G#3",
            "ticks": 13728,
            "time": "13728i",
            "velocity": 0.5826771653543307
          },
          {
            "duration": 0.1432291666666572,
            "durationTicks": 22,
            "midi": 56,
            "name": "G#3",
            "ticks": 13752,
            "time": "13752i",
            "velocity": 0.5984251968503937
          },
          {
            "duration": 0.1432291666666572,
            "durationTicks": 22,
            "midi": 52,
            "name": "E3",
            "ticks": 13752,
            "time": "13752i",
            "velocity": 0.5984251968503937
          },
          {
            "duration": 0.1432291666666572,
            "durationTicks": 22,
            "midi": 59,
            "name": "B3",
            "ticks": 13776,
            "time": "13776i",
            "velocity": 0.6062992125984252
          },
          {
            "duration": 0.1432291666666572,
            "durationTicks": 22,
            "midi": 56,
            "name": "G#3",
            "ticks": 13776,
            "time": "13776i",
            "velocity": 0.6062992125984252
          },
          {
            "duration": 0.1432291666666572,
            "durationTicks": 22,
            "midi": 56,
            "name": "G#3",
            "ticks": 13800,
            "time": "13800i",
            "velocity": 0.6141732283464567
          },
          {
            "duration": 0.1432291666666572,
            "durationTicks": 22,
            "midi": 52,
            "name": "E3",
            "ticks": 13800,
            "time": "13800i",
            "velocity": 0.6141732283464567
          },
          {
            "duration": 0.1432291666666572,
            "durationTicks": 22,
            "midi": 45,
            "name": "A2",
            "ticks": 13824,
            "time": "13824i",
            "velocity": 0.6299212598425197
          },
          {
            "duration": 0.1432291666666572,
            "durationTicks": 22,
            "midi": 33,
            "name": "A1",
            "ticks": 13824,
            "time": "13824i",
            "velocity": 0.6299212598425197
          },
          {
            "duration": 0.1432291666666572,
            "durationTicks": 22,
            "midi": 52,
            "name": "E3",
            "ticks": 13848,
            "time": "13848i",
            "velocity": 0.6299212598425197
          },
          {
            "duration": 0.1432291666666572,
            "durationTicks": 22,
            "midi": 57,
            "name": "A3",
            "ticks": 13872,
            "time": "13872i",
            "velocity": 0.6299212598425197
          },
          {
            "duration": 0.1432291666666572,
            "durationTicks": 22,
            "midi": 61,
            "name": "C#4",
            "ticks": 13896,
            "time": "13896i",
            "velocity": 0.6299212598425197
          },
          {
            "duration": 0.1432291666666572,
            "durationTicks": 22,
            "midi": 57,
            "name": "A3",
            "ticks": 13920,
            "time": "13920i",
            "velocity": 0.6299212598425197
          },
          {
            "duration": 0.1432291666666572,
            "durationTicks": 22,
            "midi": 52,
            "name": "E3",
            "ticks": 13944,
            "time": "13944i",
            "velocity": 0.6299212598425197
          },
          {
            "duration": 0.1432291666666572,
            "durationTicks": 22,
            "midi": 45,
            "name": "A2",
            "ticks": 13968,
            "time": "13968i",
            "velocity": 0.6299212598425197
          },
          {
            "duration": 0.1432291666666572,
            "durationTicks": 22,
            "midi": 33,
            "name": "A1",
            "ticks": 13968,
            "time": "13968i",
            "velocity": 0.6299212598425197
          },
          {
            "duration": 0.1432291666666572,
            "durationTicks": 22,
            "midi": 52,
            "name": "E3",
            "ticks": 13992,
            "time": "13992i",
            "velocity": 0.6299212598425197
          },
          {
            "duration": 0.1432291666666572,
            "durationTicks": 22,
            "midi": 57,
            "name": "A3",
            "ticks": 14016,
            "time": "14016i",
            "velocity": 0.6299212598425197
          },
          {
            "duration": 0.1432291666666572,
            "durationTicks": 22,
            "midi": 61,
            "name": "C#4",
            "ticks": 14040,
            "time": "14040i",
            "velocity": 0.6299212598425197
          },
          {
            "duration": 0.1432291666666572,
            "durationTicks": 22,
            "midi": 57,
            "name": "A3",
            "ticks": 14064,
            "time": "14064i",
            "velocity": 0.6299212598425197
          },
          {
            "duration": 0.1432291666666572,
            "durationTicks": 22,
            "midi": 52,
            "name": "E3",
            "ticks": 14088,
            "time": "14088i",
            "velocity": 0.6299212598425197
          },
          {
            "duration": 0.1432291666666572,
            "durationTicks": 22,
            "midi": 45,
            "name": "A2",
            "ticks": 14112,
            "time": "14112i",
            "velocity": 0.6299212598425197
          },
          {
            "duration": 0.1432291666666572,
            "durationTicks": 22,
            "midi": 33,
            "name": "A1",
            "ticks": 14112,
            "time": "14112i",
            "velocity": 0.6299212598425197
          },
          {
            "duration": 0.1432291666666572,
            "durationTicks": 22,
            "midi": 52,
            "name": "E3",
            "ticks": 14136,
            "time": "14136i",
            "velocity": 0.6299212598425197
          },
          {
            "duration": 0.1432291666666572,
            "durationTicks": 22,
            "midi": 57,
            "name": "A3",
            "ticks": 14160,
            "time": "14160i",
            "velocity": 0.6299212598425197
          },
          {
            "duration": 0.1432291666666572,
            "durationTicks": 22,
            "midi": 61,
            "name": "C#4",
            "ticks": 14184,
            "time": "14184i",
            "velocity": 0.6299212598425197
          },
          {
            "duration": 0.1432291666666572,
            "durationTicks": 22,
            "midi": 57,
            "name": "A3",
            "ticks": 14208,
            "time": "14208i",
            "velocity": 0.6299212598425197
          },
          {
            "duration": 0.1432291666666572,
            "durationTicks": 22,
            "midi": 52,
            "name": "E3",
            "ticks": 14232,
            "time": "14232i",
            "velocity": 0.6299212598425197
          },
          {
            "duration": 0.1432291666666572,
            "durationTicks": 22,
            "midi": 45,
            "name": "A2",
            "ticks": 14256,
            "time": "14256i",
            "velocity": 0.6299212598425197
          },
          {
            "duration": 0.1432291666666572,
            "durationTicks": 22,
            "midi": 33,
            "name": "A1",
            "ticks": 14256,
            "time": "14256i",
            "velocity": 0.6299212598425197
          },
          {
            "duration": 0.1432291666666572,
            "durationTicks": 22,
            "midi": 52,
            "name": "E3",
            "ticks": 14280,
            "time": "14280i",
            "velocity": 0.6299212598425197
          },
          {
            "duration": 0.1432291666666572,
            "durationTicks": 22,
            "midi": 57,
            "name": "A3",
            "ticks": 14304,
            "time": "14304i",
            "velocity": 0.6299212598425197
          },
          {
            "duration": 0.1432291666666572,
            "durationTicks": 22,
            "midi": 61,
            "name": "C#4",
            "ticks": 14328,
            "time": "14328i",
            "velocity": 0.6299212598425197
          },
          {
            "duration": 0.1432291666666572,
            "durationTicks": 22,
            "midi": 57,
            "name": "A3",
            "ticks": 14352,
            "time": "14352i",
            "velocity": 0.6299212598425197
          },
          {
            "duration": 0.1432291666666572,
            "durationTicks": 22,
            "midi": 52,
            "name": "E3",
            "ticks": 14376,
            "time": "14376i",
            "velocity": 0.6299212598425197
          },
          {
            "duration": 0.1432291666666572,
            "durationTicks": 22,
            "midi": 44,
            "name": "G#2",
            "ticks": 14400,
            "time": "14400i",
            "velocity": 0.6299212598425197
          },
          {
            "duration": 0.1432291666666572,
            "durationTicks": 22,
            "midi": 32,
            "name": "G#1",
            "ticks": 14400,
            "time": "14400i",
            "velocity": 0.6299212598425197
          },
          {
            "duration": 0.1432291666666572,
            "durationTicks": 22,
            "midi": 51,
            "name": "D#3",
            "ticks": 14424,
            "time": "14424i",
            "velocity": 0.6299212598425197
          },
          {
            "duration": 0.1432291666666572,
            "durationTicks": 22,
            "midi": 56,
            "name": "G#3",
            "ticks": 14448,
            "time": "14448i",
            "velocity": 0.6299212598425197
          },
          {
            "duration": 0.1432291666666572,
            "durationTicks": 22,
            "midi": 59,
            "name": "B3",
            "ticks": 14472,
            "time": "14472i",
            "velocity": 0.6299212598425197
          },
          {
            "duration": 0.1432291666666572,
            "durationTicks": 22,
            "midi": 56,
            "name": "G#3",
            "ticks": 14496,
            "time": "14496i",
            "velocity": 0.6299212598425197
          },
          {
            "duration": 0.1432291666666572,
            "durationTicks": 22,
            "midi": 51,
            "name": "D#3",
            "ticks": 14520,
            "time": "14520i",
            "velocity": 0.6299212598425197
          },
          {
            "duration": 0.1432291666666572,
            "durationTicks": 22,
            "midi": 44,
            "name": "G#2",
            "ticks": 14544,
            "time": "14544i",
            "velocity": 0.6299212598425197
          },
          {
            "duration": 0.1432291666666572,
            "durationTicks": 22,
            "midi": 32,
            "name": "G#1",
            "ticks": 14544,
            "time": "14544i",
            "velocity": 0.6299212598425197
          },
          {
            "duration": 0.1432291666666572,
            "durationTicks": 22,
            "midi": 51,
            "name": "D#3",
            "ticks": 14568,
            "time": "14568i",
            "velocity": 0.6299212598425197
          },
          {
            "duration": 0.1432291666666572,
            "durationTicks": 22,
            "midi": 56,
            "name": "G#3",
            "ticks": 14592,
            "time": "14592i",
            "velocity": 0.6299212598425197
          },
          {
            "duration": 0.1432291666666572,
            "durationTicks": 22,
            "midi": 59,
            "name": "B3",
            "ticks": 14616,
            "time": "14616i",
            "velocity": 0.6299212598425197
          },
          {
            "duration": 0.1432291666666572,
            "durationTicks": 22,
            "midi": 56,
            "name": "G#3",
            "ticks": 14640,
            "time": "14640i",
            "velocity": 0.6299212598425197
          },
          {
            "duration": 0.1432291666666572,
            "durationTicks": 22,
            "midi": 51,
            "name": "D#3",
            "ticks": 14664,
            "time": "14664i",
            "velocity": 0.6299212598425197
          },
          {
            "duration": 0.1432291666666572,
            "durationTicks": 22,
            "midi": 44,
            "name": "G#2",
            "ticks": 14688,
            "time": "14688i",
            "velocity": 0.6299212598425197
          },
          {
            "duration": 0.1432291666666572,
            "durationTicks": 22,
            "midi": 32,
            "name": "G#1",
            "ticks": 14688,
            "time": "14688i",
            "velocity": 0.6299212598425197
          },
          {
            "duration": 0.1432291666666572,
            "durationTicks": 22,
            "midi": 51,
            "name": "D#3",
            "ticks": 14712,
            "time": "14712i",
            "velocity": 0.6299212598425197
          },
          {
            "duration": 0.1432291666666572,
            "durationTicks": 22,
            "midi": 56,
            "name": "G#3",
            "ticks": 14736,
            "time": "14736i",
            "velocity": 0.6299212598425197
          },
          {
            "duration": 0.1432291666666572,
            "durationTicks": 22,
            "midi": 59,
            "name": "B3",
            "ticks": 14760,
            "time": "14760i",
            "velocity": 0.6299212598425197
          },
          {
            "duration": 0.1432291666666572,
            "durationTicks": 22,
            "midi": 56,
            "name": "G#3",
            "ticks": 14784,
            "time": "14784i",
            "velocity": 0.6299212598425197
          },
          {
            "duration": 0.1432291666666572,
            "durationTicks": 22,
            "midi": 51,
            "name": "D#3",
            "ticks": 14808,
            "time": "14808i",
            "velocity": 0.6299212598425197
          },
          {
            "duration": 0.1432291666666572,
            "durationTicks": 22,
            "midi": 43,
            "name": "G2",
            "ticks": 14832,
            "time": "14832i",
            "velocity": 0.6299212598425197
          },
          {
            "duration": 0.1432291666666572,
            "durationTicks": 22,
            "midi": 31,
            "name": "G1",
            "ticks": 14832,
            "time": "14832i",
            "velocity": 0.6299212598425197
          },
          {
            "duration": 0.1432291666666572,
            "durationTicks": 22,
            "midi": 51,
            "name": "D#3",
            "ticks": 14856,
            "time": "14856i",
            "velocity": 0.6299212598425197
          },
          {
            "duration": 0.1432291666666572,
            "durationTicks": 22,
            "midi": 56,
            "name": "G#3",
            "ticks": 14880,
            "time": "14880i",
            "velocity": 0.6299212598425197
          },
          {
            "duration": 0.1432291666666572,
            "durationTicks": 22,
            "midi": 59,
            "name": "B3",
            "ticks": 14904,
            "time": "14904i",
            "velocity": 0.6299212598425197
          },
          {
            "duration": 0.1432291666666572,
            "durationTicks": 22,
            "midi": 56,
            "name": "G#3",
            "ticks": 14928,
            "time": "14928i",
            "velocity": 0.6299212598425197
          },
          {
            "duration": 0.1432291666666572,
            "durationTicks": 22,
            "midi": 51,
            "name": "D#3",
            "ticks": 14952,
            "time": "14952i",
            "velocity": 0.6299212598425197
          },
          {
            "duration": 0.1432291666666572,
            "durationTicks": 22,
            "midi": 42,
            "name": "F#2",
            "ticks": 14976,
            "time": "14976i",
            "velocity": 0.6299212598425197
          },
          {
            "duration": 0.1432291666666572,
            "durationTicks": 22,
            "midi": 30,
            "name": "F#1",
            "ticks": 14976,
            "time": "14976i",
            "velocity": 0.6299212598425197
          },
          {
            "duration": 0.1432291666666572,
            "durationTicks": 22,
            "midi": 49,
            "name": "C#3",
            "ticks": 15000,
            "time": "15000i",
            "velocity": 0.6299212598425197
          },
          {
            "duration": 0.1432291666666572,
            "durationTicks": 22,
            "midi": 54,
            "name": "F#3",
            "ticks": 15024,
            "time": "15024i",
            "velocity": 0.6299212598425197
          },
          {
            "duration": 0.1432291666666572,
            "durationTicks": 22,
            "midi": 57,
            "name": "A3",
            "ticks": 15048,
            "time": "15048i",
            "velocity": 0.6299212598425197
          },
          {
            "duration": 0.1432291666666572,
            "durationTicks": 22,
            "midi": 54,
            "name": "F#3",
            "ticks": 15072,
            "time": "15072i",
            "velocity": 0.6299212598425197
          },
          {
            "duration": 0.1432291666666572,
            "durationTicks": 22,
            "midi": 49,
            "name": "C#3",
            "ticks": 15096,
            "time": "15096i",
            "velocity": 0.6299212598425197
          },
          {
            "duration": 0.1432291666666572,
            "durationTicks": 22,
            "midi": 42,
            "name": "F#2",
            "ticks": 15120,
            "time": "15120i",
            "velocity": 0.6299212598425197
          },
          {
            "duration": 0.1432291666666572,
            "durationTicks": 22,
            "midi": 30,
            "name": "F#1",
            "ticks": 15120,
            "time": "15120i",
            "velocity": 0.6299212598425197
          },
          {
            "duration": 0.1432291666666572,
            "durationTicks": 22,
            "midi": 49,
            "name": "C#3",
            "ticks": 15144,
            "time": "15144i",
            "velocity": 0.6299212598425197
          },
          {
            "duration": 0.1432291666666572,
            "durationTicks": 22,
            "midi": 54,
            "name": "F#3",
            "ticks": 15168,
            "time": "15168i",
            "velocity": 0.6299212598425197
          },
          {
            "duration": 0.1432291666666572,
            "durationTicks": 22,
            "midi": 57,
            "name": "A3",
            "ticks": 15192,
            "time": "15192i",
            "velocity": 0.6299212598425197
          },
          {
            "duration": 0.1432291666666572,
            "durationTicks": 22,
            "midi": 54,
            "name": "F#3",
            "ticks": 15216,
            "time": "15216i",
            "velocity": 0.6299212598425197
          },
          {
            "duration": 0.1432291666666572,
            "durationTicks": 22,
            "midi": 49,
            "name": "C#3",
            "ticks": 15240,
            "time": "15240i",
            "velocity": 0.6299212598425197
          },
          {
            "duration": 0.1432291666666572,
            "durationTicks": 22,
            "midi": 42,
            "name": "F#2",
            "ticks": 15264,
            "time": "15264i",
            "velocity": 0.6299212598425197
          },
          {
            "duration": 0.1432291666666572,
            "durationTicks": 22,
            "midi": 30,
            "name": "F#1",
            "ticks": 15264,
            "time": "15264i",
            "velocity": 0.6299212598425197
          },
          {
            "duration": 0.1432291666666572,
            "durationTicks": 22,
            "midi": 49,
            "name": "C#3",
            "ticks": 15288,
            "time": "15288i",
            "velocity": 0.6299212598425197
          },
          {
            "duration": 0.1432291666666572,
            "durationTicks": 22,
            "midi": 54,
            "name": "F#3",
            "ticks": 15312,
            "time": "15312i",
            "velocity": 0.6299212598425197
          },
          {
            "duration": 0.1432291666666572,
            "durationTicks": 22,
            "midi": 57,
            "name": "A3",
            "ticks": 15336,
            "time": "15336i",
            "velocity": 0.6299212598425197
          },
          {
            "duration": 0.1432291666666572,
            "durationTicks": 22,
            "midi": 54,
            "name": "F#3",
            "ticks": 15360,
            "time": "15360i",
            "velocity": 0.6299212598425197
          },
          {
            "duration": 0.1432291666666572,
            "durationTicks": 22,
            "midi": 49,
            "name": "C#3",
            "ticks": 15384,
            "time": "15384i",
            "velocity": 0.6299212598425197
          },
          {
            "duration": 0.1432291666666572,
            "durationTicks": 22,
            "midi": 42,
            "name": "F#2",
            "ticks": 15408,
            "time": "15408i",
            "velocity": 0.6299212598425197
          },
          {
            "duration": 0.1432291666666572,
            "durationTicks": 22,
            "midi": 30,
            "name": "F#1",
            "ticks": 15408,
            "time": "15408i",
            "velocity": 0.6299212598425197
          },
          {
            "duration": 0.1432291666666572,
            "durationTicks": 22,
            "midi": 49,
            "name": "C#3",
            "ticks": 15432,
            "time": "15432i",
            "velocity": 0.6299212598425197
          },
          {
            "duration": 0.1432291666666572,
            "durationTicks": 22,
            "midi": 54,
            "name": "F#3",
            "ticks": 15456,
            "time": "15456i",
            "velocity": 0.6299212598425197
          },
          {
            "duration": 0.1432291666666572,
            "durationTicks": 22,
            "midi": 57,
            "name": "A3",
            "ticks": 15480,
            "time": "15480i",
            "velocity": 0.6299212598425197
          },
          {
            "duration": 0.1432291666666572,
            "durationTicks": 22,
            "midi": 54,
            "name": "F#3",
            "ticks": 15504,
            "time": "15504i",
            "velocity": 0.6299212598425197
          },
          {
            "duration": 0.1432291666666572,
            "durationTicks": 22,
            "midi": 49,
            "name": "C#3",
            "ticks": 15528,
            "time": "15528i",
            "velocity": 0.6299212598425197
          },
          {
            "duration": 0.1432291666666572,
            "durationTicks": 22,
            "midi": 40,
            "name": "E2",
            "ticks": 15552,
            "time": "15552i",
            "velocity": 0.6299212598425197
          },
          {
            "duration": 0.1432291666666572,
            "durationTicks": 22,
            "midi": 28,
            "name": "E1",
            "ticks": 15552,
            "time": "15552i",
            "velocity": 0.6299212598425197
          },
          {
            "duration": 0.1432291666666572,
            "durationTicks": 22,
            "midi": 47,
            "name": "B2",
            "ticks": 15576,
            "time": "15576i",
            "velocity": 0.6299212598425197
          },
          {
            "duration": 0.1432291666666572,
            "durationTicks": 22,
            "midi": 52,
            "name": "E3",
            "ticks": 15600,
            "time": "15600i",
            "velocity": 0.6299212598425197
          },
          {
            "duration": 0.1432291666666572,
            "durationTicks": 22,
            "midi": 56,
            "name": "G#3",
            "ticks": 15624,
            "time": "15624i",
            "velocity": 0.6299212598425197
          },
          {
            "duration": 0.1432291666666572,
            "durationTicks": 22,
            "midi": 52,
            "name": "E3",
            "ticks": 15648,
            "time": "15648i",
            "velocity": 0.6299212598425197
          },
          {
            "duration": 0.1432291666666572,
            "durationTicks": 22,
            "midi": 47,
            "name": "B2",
            "ticks": 15672,
            "time": "15672i",
            "velocity": 0.6299212598425197
          },
          {
            "duration": 0.1432291666666572,
            "durationTicks": 22,
            "midi": 40,
            "name": "E2",
            "ticks": 15696,
            "time": "15696i",
            "velocity": 0.6299212598425197
          },
          {
            "duration": 0.1432291666666572,
            "durationTicks": 22,
            "midi": 28,
            "name": "E1",
            "ticks": 15696,
            "time": "15696i",
            "velocity": 0.6299212598425197
          },
          {
            "duration": 0.1432291666666572,
            "durationTicks": 22,
            "midi": 47,
            "name": "B2",
            "ticks": 15720,
            "time": "15720i",
            "velocity": 0.6299212598425197
          },
          {
            "duration": 0.1432291666666572,
            "durationTicks": 22,
            "midi": 52,
            "name": "E3",
            "ticks": 15744,
            "time": "15744i",
            "velocity": 0.6299212598425197
          },
          {
            "duration": 0.1432291666666572,
            "durationTicks": 22,
            "midi": 56,
            "name": "G#3",
            "ticks": 15768,
            "time": "15768i",
            "velocity": 0.6299212598425197
          },
          {
            "duration": 0.1432291666666572,
            "durationTicks": 22,
            "midi": 52,
            "name": "E3",
            "ticks": 15792,
            "time": "15792i",
            "velocity": 0.6299212598425197
          },
          {
            "duration": 0.1432291666666572,
            "durationTicks": 22,
            "midi": 47,
            "name": "B2",
            "ticks": 15816,
            "time": "15816i",
            "velocity": 0.6299212598425197
          },
          {
            "duration": 0.1432291666666572,
            "durationTicks": 22,
            "midi": 40,
            "name": "E2",
            "ticks": 15840,
            "time": "15840i",
            "velocity": 0.6299212598425197
          },
          {
            "duration": 0.1432291666666572,
            "durationTicks": 22,
            "midi": 28,
            "name": "E1",
            "ticks": 15840,
            "time": "15840i",
            "velocity": 0.6299212598425197
          },
          {
            "duration": 0.1432291666666572,
            "durationTicks": 22,
            "midi": 47,
            "name": "B2",
            "ticks": 15864,
            "time": "15864i",
            "velocity": 0.6299212598425197
          },
          {
            "duration": 0.1432291666666572,
            "durationTicks": 22,
            "midi": 52,
            "name": "E3",
            "ticks": 15888,
            "time": "15888i",
            "velocity": 0.6299212598425197
          },
          {
            "duration": 0.1432291666666572,
            "durationTicks": 22,
            "midi": 56,
            "name": "G#3",
            "ticks": 15912,
            "time": "15912i",
            "velocity": 0.6299212598425197
          },
          {
            "duration": 0.1432291666666572,
            "durationTicks": 22,
            "midi": 52,
            "name": "E3",
            "ticks": 15936,
            "time": "15936i",
            "velocity": 0.6299212598425197
          },
          {
            "duration": 0.1432291666666572,
            "durationTicks": 22,
            "midi": 47,
            "name": "B2",
            "ticks": 15960,
            "time": "15960i",
            "velocity": 0.6299212598425197
          },
          {
            "duration": 0.1432291666666572,
            "durationTicks": 22,
            "midi": 40,
            "name": "E2",
            "ticks": 15984,
            "time": "15984i",
            "velocity": 0.6299212598425197
          },
          {
            "duration": 0.1432291666666572,
            "durationTicks": 22,
            "midi": 28,
            "name": "E1",
            "ticks": 15984,
            "time": "15984i",
            "velocity": 0.6299212598425197
          },
          {
            "duration": 0.1432291666666572,
            "durationTicks": 22,
            "midi": 47,
            "name": "B2",
            "ticks": 16008,
            "time": "16008i",
            "velocity": 0.6299212598425197
          },
          {
            "duration": 0.1432291666666572,
            "durationTicks": 22,
            "midi": 52,
            "name": "E3",
            "ticks": 16032,
            "time": "16032i",
            "velocity": 0.6299212598425197
          },
          {
            "duration": 0.1432291666666572,
            "durationTicks": 22,
            "midi": 56,
            "name": "G#3",
            "ticks": 16056,
            "time": "16056i",
            "velocity": 0.6299212598425197
          },
          {
            "duration": 0.1432291666666572,
            "durationTicks": 22,
            "midi": 52,
            "name": "E3",
            "ticks": 16080,
            "time": "16080i",
            "velocity": 0.6299212598425197
          },
          {
            "duration": 0.1432291666666572,
            "durationTicks": 22,
            "midi": 47,
            "name": "B2",
            "ticks": 16104,
            "time": "16104i",
            "velocity": 0.6299212598425197
          },
          {
            "duration": 0.1432291666666572,
            "durationTicks": 22,
            "midi": 45,
            "name": "A2",
            "ticks": 16128,
            "time": "16128i",
            "velocity": 0.6299212598425197
          },
          {
            "duration": 0.1432291666666572,
            "durationTicks": 22,
            "midi": 33,
            "name": "A1",
            "ticks": 16128,
            "time": "16128i",
            "velocity": 0.6299212598425197
          },
          {
            "duration": 0.1432291666666572,
            "durationTicks": 22,
            "midi": 52,
            "name": "E3",
            "ticks": 16152,
            "time": "16152i",
            "velocity": 0.6299212598425197
          },
          {
            "duration": 0.1432291666666572,
            "durationTicks": 22,
            "midi": 57,
            "name": "A3",
            "ticks": 16176,
            "time": "16176i",
            "velocity": 0.6299212598425197
          },
          {
            "duration": 0.1432291666666572,
            "durationTicks": 22,
            "midi": 61,
            "name": "C#4",
            "ticks": 16200,
            "time": "16200i",
            "velocity": 0.6299212598425197
          },
          {
            "duration": 0.1432291666666572,
            "durationTicks": 22,
            "midi": 57,
            "name": "A3",
            "ticks": 16224,
            "time": "16224i",
            "velocity": 0.6299212598425197
          },
          {
            "duration": 0.1432291666666572,
            "durationTicks": 22,
            "midi": 52,
            "name": "E3",
            "ticks": 16248,
            "time": "16248i",
            "velocity": 0.6299212598425197
          },
          {
            "duration": 0.1432291666666572,
            "durationTicks": 22,
            "midi": 45,
            "name": "A2",
            "ticks": 16272,
            "time": "16272i",
            "velocity": 0.6299212598425197
          },
          {
            "duration": 0.1432291666666572,
            "durationTicks": 22,
            "midi": 33,
            "name": "A1",
            "ticks": 16272,
            "time": "16272i",
            "velocity": 0.6299212598425197
          },
          {
            "duration": 0.1432291666666572,
            "durationTicks": 22,
            "midi": 52,
            "name": "E3",
            "ticks": 16296,
            "time": "16296i",
            "velocity": 0.6299212598425197
          },
          {
            "duration": 0.1432291666666572,
            "durationTicks": 22,
            "midi": 57,
            "name": "A3",
            "ticks": 16320,
            "time": "16320i",
            "velocity": 0.6299212598425197
          },
          {
            "duration": 0.1432291666666572,
            "durationTicks": 22,
            "midi": 61,
            "name": "C#4",
            "ticks": 16344,
            "time": "16344i",
            "velocity": 0.6299212598425197
          },
          {
            "duration": 0.1432291666666572,
            "durationTicks": 22,
            "midi": 57,
            "name": "A3",
            "ticks": 16368,
            "time": "16368i",
            "velocity": 0.6299212598425197
          },
          {
            "duration": 0.1432291666666572,
            "durationTicks": 22,
            "midi": 52,
            "name": "E3",
            "ticks": 16392,
            "time": "16392i",
            "velocity": 0.6299212598425197
          },
          {
            "duration": 0.1432291666666572,
            "durationTicks": 22,
            "midi": 45,
            "name": "A2",
            "ticks": 16416,
            "time": "16416i",
            "velocity": 0.6299212598425197
          },
          {
            "duration": 0.1432291666666572,
            "durationTicks": 22,
            "midi": 33,
            "name": "A1",
            "ticks": 16416,
            "time": "16416i",
            "velocity": 0.6299212598425197
          },
          {
            "duration": 0.1432291666666572,
            "durationTicks": 22,
            "midi": 52,
            "name": "E3",
            "ticks": 16440,
            "time": "16440i",
            "velocity": 0.6299212598425197
          },
          {
            "duration": 0.1432291666666572,
            "durationTicks": 22,
            "midi": 57,
            "name": "A3",
            "ticks": 16464,
            "time": "16464i",
            "velocity": 0.6299212598425197
          },
          {
            "duration": 0.1432291666666572,
            "durationTicks": 22,
            "midi": 61,
            "name": "C#4",
            "ticks": 16488,
            "time": "16488i",
            "velocity": 0.6299212598425197
          },
          {
            "duration": 0.1432291666666572,
            "durationTicks": 22,
            "midi": 57,
            "name": "A3",
            "ticks": 16512,
            "time": "16512i",
            "velocity": 0.6299212598425197
          },
          {
            "duration": 0.1432291666666572,
            "durationTicks": 22,
            "midi": 52,
            "name": "E3",
            "ticks": 16536,
            "time": "16536i",
            "velocity": 0.6299212598425197
          },
          {
            "duration": 0.1432291666666572,
            "durationTicks": 22,
            "midi": 45,
            "name": "A2",
            "ticks": 16560,
            "time": "16560i",
            "velocity": 0.6299212598425197
          },
          {
            "duration": 0.1432291666666572,
            "durationTicks": 22,
            "midi": 33,
            "name": "A1",
            "ticks": 16560,
            "time": "16560i",
            "velocity": 0.6299212598425197
          },
          {
            "duration": 0.1432291666666572,
            "durationTicks": 22,
            "midi": 52,
            "name": "E3",
            "ticks": 16584,
            "time": "16584i",
            "velocity": 0.6299212598425197
          },
          {
            "duration": 0.1432291666666572,
            "durationTicks": 22,
            "midi": 57,
            "name": "A3",
            "ticks": 16608,
            "time": "16608i",
            "velocity": 0.6299212598425197
          },
          {
            "duration": 0.1432291666666572,
            "durationTicks": 22,
            "midi": 61,
            "name": "C#4",
            "ticks": 16632,
            "time": "16632i",
            "velocity": 0.6299212598425197
          },
          {
            "duration": 0.1432291666666572,
            "durationTicks": 22,
            "midi": 57,
            "name": "A3",
            "ticks": 16656,
            "time": "16656i",
            "velocity": 0.6299212598425197
          },
          {
            "duration": 0.1432291666666572,
            "durationTicks": 22,
            "midi": 52,
            "name": "E3",
            "ticks": 16680,
            "time": "16680i",
            "velocity": 0.6299212598425197
          },
          {
            "duration": 0.1432291666666572,
            "durationTicks": 22,
            "midi": 44,
            "name": "G#2",
            "ticks": 16704,
            "time": "16704i",
            "velocity": 0.6299212598425197
          },
          {
            "duration": 0.1432291666666572,
            "durationTicks": 22,
            "midi": 32,
            "name": "G#1",
            "ticks": 16704,
            "time": "16704i",
            "velocity": 0.6299212598425197
          },
          {
            "duration": 0.1432291666666572,
            "durationTicks": 22,
            "midi": 51,
            "name": "D#3",
            "ticks": 16728,
            "time": "16728i",
            "velocity": 0.6299212598425197
          },
          {
            "duration": 0.1432291666666572,
            "durationTicks": 22,
            "midi": 56,
            "name": "G#3",
            "ticks": 16752,
            "time": "16752i",
            "velocity": 0.6299212598425197
          },
          {
            "duration": 0.1432291666666572,
            "durationTicks": 22,
            "midi": 59,
            "name": "B3",
            "ticks": 16776,
            "time": "16776i",
            "velocity": 0.6299212598425197
          },
          {
            "duration": 0.1432291666666572,
            "durationTicks": 22,
            "midi": 56,
            "name": "G#3",
            "ticks": 16800,
            "time": "16800i",
            "velocity": 0.6299212598425197
          },
          {
            "duration": 0.1432291666666572,
            "durationTicks": 22,
            "midi": 51,
            "name": "D#3",
            "ticks": 16824,
            "time": "16824i",
            "velocity": 0.6299212598425197
          },
          {
            "duration": 0.1432291666666572,
            "durationTicks": 22,
            "midi": 44,
            "name": "G#2",
            "ticks": 16848,
            "time": "16848i",
            "velocity": 0.6299212598425197
          },
          {
            "duration": 0.1432291666666572,
            "durationTicks": 22,
            "midi": 32,
            "name": "G#1",
            "ticks": 16848,
            "time": "16848i",
            "velocity": 0.6299212598425197
          },
          {
            "duration": 0.1432291666666572,
            "durationTicks": 22,
            "midi": 51,
            "name": "D#3",
            "ticks": 16872,
            "time": "16872i",
            "velocity": 0.6299212598425197
          },
          {
            "duration": 0.1432291666666572,
            "durationTicks": 22,
            "midi": 56,
            "name": "G#3",
            "ticks": 16896,
            "time": "16896i",
            "velocity": 0.6299212598425197
          },
          {
            "duration": 0.1432291666666572,
            "durationTicks": 22,
            "midi": 59,
            "name": "B3",
            "ticks": 16920,
            "time": "16920i",
            "velocity": 0.6299212598425197
          },
          {
            "duration": 0.1432291666666572,
            "durationTicks": 22,
            "midi": 56,
            "name": "G#3",
            "ticks": 16944,
            "time": "16944i",
            "velocity": 0.6299212598425197
          },
          {
            "duration": 0.1432291666666572,
            "durationTicks": 22,
            "midi": 51,
            "name": "D#3",
            "ticks": 16968,
            "time": "16968i",
            "velocity": 0.6299212598425197
          },
          {
            "duration": 0.1432291666666572,
            "durationTicks": 22,
            "midi": 44,
            "name": "G#2",
            "ticks": 16992,
            "time": "16992i",
            "velocity": 0.6299212598425197
          },
          {
            "duration": 0.1432291666666572,
            "durationTicks": 22,
            "midi": 32,
            "name": "G#1",
            "ticks": 16992,
            "time": "16992i",
            "velocity": 0.6299212598425197
          },
          {
            "duration": 0.1432291666666572,
            "durationTicks": 22,
            "midi": 51,
            "name": "D#3",
            "ticks": 17016,
            "time": "17016i",
            "velocity": 0.6299212598425197
          },
          {
            "duration": 0.1432291666666572,
            "durationTicks": 22,
            "midi": 56,
            "name": "G#3",
            "ticks": 17040,
            "time": "17040i",
            "velocity": 0.6299212598425197
          },
          {
            "duration": 0.1432291666666572,
            "durationTicks": 22,
            "midi": 59,
            "name": "B3",
            "ticks": 17064,
            "time": "17064i",
            "velocity": 0.6299212598425197
          },
          {
            "duration": 0.1432291666666572,
            "durationTicks": 22,
            "midi": 56,
            "name": "G#3",
            "ticks": 17088,
            "time": "17088i",
            "velocity": 0.6299212598425197
          },
          {
            "duration": 0.1432291666666572,
            "durationTicks": 22,
            "midi": 51,
            "name": "D#3",
            "ticks": 17112,
            "time": "17112i",
            "velocity": 0.6299212598425197
          },
          {
            "duration": 0.1432291666666572,
            "durationTicks": 22,
            "midi": 43,
            "name": "G2",
            "ticks": 17136,
            "time": "17136i",
            "velocity": 0.6299212598425197
          },
          {
            "duration": 0.1432291666666572,
            "durationTicks": 22,
            "midi": 31,
            "name": "G1",
            "ticks": 17136,
            "time": "17136i",
            "velocity": 0.6299212598425197
          },
          {
            "duration": 0.1432291666666572,
            "durationTicks": 22,
            "midi": 51,
            "name": "D#3",
            "ticks": 17160,
            "time": "17160i",
            "velocity": 0.6299212598425197
          },
          {
            "duration": 0.1432291666666572,
            "durationTicks": 22,
            "midi": 56,
            "name": "G#3",
            "ticks": 17184,
            "time": "17184i",
            "velocity": 0.6299212598425197
          },
          {
            "duration": 0.1432291666666572,
            "durationTicks": 22,
            "midi": 59,
            "name": "B3",
            "ticks": 17208,
            "time": "17208i",
            "velocity": 0.6299212598425197
          },
          {
            "duration": 0.1432291666666572,
            "durationTicks": 22,
            "midi": 56,
            "name": "G#3",
            "ticks": 17232,
            "time": "17232i",
            "velocity": 0.6299212598425197
          },
          {
            "duration": 0.1432291666666572,
            "durationTicks": 22,
            "midi": 51,
            "name": "D#3",
            "ticks": 17256,
            "time": "17256i",
            "velocity": 0.6299212598425197
          },
          {
            "duration": 0.1432291666666572,
            "durationTicks": 22,
            "midi": 42,
            "name": "F#2",
            "ticks": 17280,
            "time": "17280i",
            "velocity": 0.6299212598425197
          },
          {
            "duration": 0.1432291666666572,
            "durationTicks": 22,
            "midi": 30,
            "name": "F#1",
            "ticks": 17280,
            "time": "17280i",
            "velocity": 0.6299212598425197
          },
          {
            "duration": 0.1432291666666572,
            "durationTicks": 22,
            "midi": 49,
            "name": "C#3",
            "ticks": 17304,
            "time": "17304i",
            "velocity": 0.6299212598425197
          },
          {
            "duration": 0.1432291666666572,
            "durationTicks": 22,
            "midi": 54,
            "name": "F#3",
            "ticks": 17328,
            "time": "17328i",
            "velocity": 0.6299212598425197
          },
          {
            "duration": 0.1432291666666572,
            "durationTicks": 22,
            "midi": 57,
            "name": "A3",
            "ticks": 17352,
            "time": "17352i",
            "velocity": 0.6299212598425197
          },
          {
            "duration": 0.1432291666666572,
            "durationTicks": 22,
            "midi": 54,
            "name": "F#3",
            "ticks": 17376,
            "time": "17376i",
            "velocity": 0.6299212598425197
          },
          {
            "duration": 0.1432291666666572,
            "durationTicks": 22,
            "midi": 49,
            "name": "C#3",
            "ticks": 17400,
            "time": "17400i",
            "velocity": 0.6299212598425197
          },
          {
            "duration": 0.1432291666666572,
            "durationTicks": 22,
            "midi": 42,
            "name": "F#2",
            "ticks": 17424,
            "time": "17424i",
            "velocity": 0.6299212598425197
          },
          {
            "duration": 0.1432291666666572,
            "durationTicks": 22,
            "midi": 30,
            "name": "F#1",
            "ticks": 17424,
            "time": "17424i",
            "velocity": 0.6299212598425197
          },
          {
            "duration": 0.1432291666666572,
            "durationTicks": 22,
            "midi": 49,
            "name": "C#3",
            "ticks": 17448,
            "time": "17448i",
            "velocity": 0.6299212598425197
          },
          {
            "duration": 0.1432291666666572,
            "durationTicks": 22,
            "midi": 54,
            "name": "F#3",
            "ticks": 17472,
            "time": "17472i",
            "velocity": 0.6299212598425197
          },
          {
            "duration": 0.1432291666666572,
            "durationTicks": 22,
            "midi": 57,
            "name": "A3",
            "ticks": 17496,
            "time": "17496i",
            "velocity": 0.6299212598425197
          },
          {
            "duration": 0.1432291666666572,
            "durationTicks": 22,
            "midi": 54,
            "name": "F#3",
            "ticks": 17520,
            "time": "17520i",
            "velocity": 0.6299212598425197
          },
          {
            "duration": 0.1432291666666572,
            "durationTicks": 22,
            "midi": 49,
            "name": "C#3",
            "ticks": 17544,
            "time": "17544i",
            "velocity": 0.6299212598425197
          },
          {
            "duration": 0.1432291666666572,
            "durationTicks": 22,
            "midi": 42,
            "name": "F#2",
            "ticks": 17568,
            "time": "17568i",
            "velocity": 0.6299212598425197
          },
          {
            "duration": 0.1432291666666572,
            "durationTicks": 22,
            "midi": 30,
            "name": "F#1",
            "ticks": 17568,
            "time": "17568i",
            "velocity": 0.6299212598425197
          },
          {
            "duration": 0.1432291666666572,
            "durationTicks": 22,
            "midi": 49,
            "name": "C#3",
            "ticks": 17592,
            "time": "17592i",
            "velocity": 0.6299212598425197
          },
          {
            "duration": 0.1432291666666572,
            "durationTicks": 22,
            "midi": 54,
            "name": "F#3",
            "ticks": 17616,
            "time": "17616i",
            "velocity": 0.6299212598425197
          },
          {
            "duration": 0.1432291666666572,
            "durationTicks": 22,
            "midi": 57,
            "name": "A3",
            "ticks": 17640,
            "time": "17640i",
            "velocity": 0.6299212598425197
          },
          {
            "duration": 0.1432291666666572,
            "durationTicks": 22,
            "midi": 54,
            "name": "F#3",
            "ticks": 17664,
            "time": "17664i",
            "velocity": 0.6299212598425197
          },
          {
            "duration": 0.1432291666666572,
            "durationTicks": 22,
            "midi": 49,
            "name": "C#3",
            "ticks": 17688,
            "time": "17688i",
            "velocity": 0.6299212598425197
          },
          {
            "duration": 0.1432291666666572,
            "durationTicks": 22,
            "midi": 42,
            "name": "F#2",
            "ticks": 17712,
            "time": "17712i",
            "velocity": 0.6299212598425197
          },
          {
            "duration": 0.1432291666666572,
            "durationTicks": 22,
            "midi": 30,
            "name": "F#1",
            "ticks": 17712,
            "time": "17712i",
            "velocity": 0.6299212598425197
          },
          {
            "duration": 0.1432291666666572,
            "durationTicks": 22,
            "midi": 49,
            "name": "C#3",
            "ticks": 17736,
            "time": "17736i",
            "velocity": 0.6299212598425197
          },
          {
            "duration": 0.1432291666666572,
            "durationTicks": 22,
            "midi": 54,
            "name": "F#3",
            "ticks": 17760,
            "time": "17760i",
            "velocity": 0.6299212598425197
          },
          {
            "duration": 0.1432291666666572,
            "durationTicks": 22,
            "midi": 57,
            "name": "A3",
            "ticks": 17784,
            "time": "17784i",
            "velocity": 0.6299212598425197
          },
          {
            "duration": 0.1432291666666572,
            "durationTicks": 22,
            "midi": 54,
            "name": "F#3",
            "ticks": 17808,
            "time": "17808i",
            "velocity": 0.6299212598425197
          },
          {
            "duration": 0.1432291666666572,
            "durationTicks": 22,
            "midi": 49,
            "name": "C#3",
            "ticks": 17832,
            "time": "17832i",
            "velocity": 0.6299212598425197
          },
          {
            "duration": 0.29296875,
            "durationTicks": 45,
            "midi": 44,
            "name": "G#2",
            "ticks": 17856,
            "time": "17856i",
            "velocity": 0.6299212598425197
          },
          {
            "duration": 0.29296875,
            "durationTicks": 45,
            "midi": 32,
            "name": "G#1",
            "ticks": 17856,
            "time": "17856i",
            "velocity": 0.6299212598425197
          },
          {
            "duration": 0.29296875,
            "durationTicks": 45,
            "midi": 56,
            "name": "G#3",
            "ticks": 17904,
            "time": "17904i",
            "velocity": 0.6456692913385826
          },
          {
            "duration": 0.29296875,
            "durationTicks": 45,
            "midi": 51,
            "name": "D#3",
            "ticks": 17904,
            "time": "17904i",
            "velocity": 0.6456692913385826
          },
          {
            "duration": 0.29296875,
            "durationTicks": 45,
            "midi": 56,
            "name": "G#3",
            "ticks": 17952,
            "time": "17952i",
            "velocity": 0.6692913385826772
          },
          {
            "duration": 0.29296875,
            "durationTicks": 45,
            "midi": 51,
            "name": "D#3",
            "ticks": 17952,
            "time": "17952i",
            "velocity": 0.6692913385826772
          },
          {
            "duration": 0.29296875,
            "durationTicks": 45,
            "midi": 44,
            "name": "G#2",
            "ticks": 18000,
            "time": "18000i",
            "velocity": 0.6929133858267716
          },
          {
            "duration": 0.29296875,
            "durationTicks": 45,
            "midi": 32,
            "name": "G#1",
            "ticks": 18000,
            "time": "18000i",
            "velocity": 0.6929133858267716
          },
          {
            "duration": 0.29296875,
            "durationTicks": 45,
            "midi": 56,
            "name": "G#3",
            "ticks": 18048,
            "time": "18048i",
            "velocity": 0.7086614173228346
          },
          {
            "duration": 0.29296875,
            "durationTicks": 45,
            "midi": 51,
            "name": "D#3",
            "ticks": 18048,
            "time": "18048i",
            "velocity": 0.7086614173228346
          },
          {
            "duration": 0.29296875,
            "durationTicks": 45,
            "midi": 56,
            "name": "G#3",
            "ticks": 18096,
            "time": "18096i",
            "velocity": 0.7322834645669292
          },
          {
            "duration": 0.29296875,
            "durationTicks": 45,
            "midi": 51,
            "name": "D#3",
            "ticks": 18096,
            "time": "18096i",
            "velocity": 0.7322834645669292
          },
          {
            "duration": 0.1432291666666572,
            "durationTicks": 22,
            "midi": 56,
            "name": "G#3",
            "ticks": 18144,
            "time": "18144i",
            "velocity": 0.7559055118110236
          },
          {
            "duration": 0.1432291666666572,
            "durationTicks": 22,
            "midi": 51,
            "name": "D#3",
            "ticks": 18144,
            "time": "18144i",
            "velocity": 0.7559055118110236
          },
          {
            "duration": 0.1432291666666572,
            "durationTicks": 22,
            "midi": 44,
            "name": "G#2",
            "ticks": 18168,
            "time": "18168i",
            "velocity": 0.7637795275590551
          },
          {
            "duration": 0.1432291666666572,
            "durationTicks": 22,
            "midi": 56,
            "name": "G#3",
            "ticks": 18192,
            "time": "18192i",
            "velocity": 0.7716535433070866
          },
          {
            "duration": 0.1432291666666572,
            "durationTicks": 22,
            "midi": 51,
            "name": "D#3",
            "ticks": 18192,
            "time": "18192i",
            "velocity": 0.7716535433070866
          },
          {
            "duration": 0.1432291666666572,
            "durationTicks": 22,
            "midi": 44,
            "name": "G#2",
            "ticks": 18216,
            "time": "18216i",
            "velocity": 0.7874015748031497
          },
          {
            "duration": 0.1432291666666572,
            "durationTicks": 22,
            "midi": 56,
            "name": "G#3",
            "ticks": 18240,
            "time": "18240i",
            "velocity": 0.7952755905511811
          },
          {
            "duration": 0.1432291666666572,
            "durationTicks": 22,
            "midi": 51,
            "name": "D#3",
            "ticks": 18240,
            "time": "18240i",
            "velocity": 0.7952755905511811
          },
          {
            "duration": 0.1432291666666572,
            "durationTicks": 22,
            "midi": 44,
            "name": "G#2",
            "ticks": 18264,
            "time": "18264i",
            "velocity": 0.8031496062992126
          },
          {
            "duration": 0.8854166666666572,
            "durationTicks": 136,
            "midi": 68,
            "name": "G#4",
            "ticks": 18288,
            "time": "18288i",
            "velocity": 0.8188976377952756
          },
          {
            "duration": 0.8854166666666572,
            "durationTicks": 136,
            "midi": 63,
            "name": "D#4",
            "ticks": 18288,
            "time": "18288i",
            "velocity": 0.8188976377952756
          },
          {
            "duration": 0.8854166666666572,
            "durationTicks": 136,
            "midi": 60,
            "name": "C4",
            "ticks": 18288,
            "time": "18288i",
            "velocity": 0.8188976377952756
          },
          {
            "duration": 0.29296875,
            "durationTicks": 45,
            "midi": 45,
            "name": "A2",
            "ticks": 18432,
            "time": "18432i",
            "velocity": 0.8818897637795275
          },
          {
            "duration": 0.29296875,
            "durationTicks": 45,
            "midi": 33,
            "name": "A1",
            "ticks": 18432,
            "time": "18432i",
            "velocity": 0.8818897637795275
          },
          {
            "duration": 0.8854166666666572,
            "durationTicks": 136,
            "midi": 64,
            "name": "E4",
            "ticks": 18576,
            "time": "18576i",
            "velocity": 0.8818897637795275
          },
          {
            "duration": 0.8854166666666572,
            "durationTicks": 136,
            "midi": 61,
            "name": "C#4",
            "ticks": 18576,
            "time": "18576i",
            "velocity": 0.8818897637795275
          },
          {
            "duration": 0.8854166666666572,
            "durationTicks": 136,
            "midi": 56,
            "name": "G#3",
            "ticks": 18576,
            "time": "18576i",
            "velocity": 0.8818897637795275
          },
          {
            "duration": 0.8854166666666572,
            "durationTicks": 136,
            "midi": 78,
            "name": "F#5",
            "ticks": 18720,
            "time": "18720i",
            "velocity": 0.8818897637795275
          },
          {
            "duration": 0.8854166666666572,
            "durationTicks": 136,
            "midi": 76,
            "name": "E5",
            "ticks": 18720,
            "time": "18720i",
            "velocity": 0.8818897637795275
          },
          {
            "duration": 0.8854166666666572,
            "durationTicks": 136,
            "midi": 73,
            "name": "C#5",
            "ticks": 18720,
            "time": "18720i",
            "velocity": 0.8818897637795275
          },
          {
            "duration": 0.8854166666666572,
            "durationTicks": 136,
            "midi": 68,
            "name": "G#4",
            "ticks": 18720,
            "time": "18720i",
            "velocity": 0.8818897637795275
          },
          {
            "duration": 0.8854166666666572,
            "durationTicks": 136,
            "midi": 68,
            "name": "G#4",
            "ticks": 18864,
            "time": "18864i",
            "velocity": 0.8818897637795275
          },
          {
            "duration": 0.8854166666666572,
            "durationTicks": 136,
            "midi": 64,
            "name": "E4",
            "ticks": 18864,
            "time": "18864i",
            "velocity": 0.8818897637795275
          },
          {
            "duration": 0.8854166666666572,
            "durationTicks": 136,
            "midi": 61,
            "name": "C#4",
            "ticks": 18864,
            "time": "18864i",
            "velocity": 0.8818897637795275
          },
          {
            "duration": 0.29296875,
            "durationTicks": 45,
            "midi": 45,
            "name": "A2",
            "ticks": 19008,
            "time": "19008i",
            "velocity": 0.8818897637795275
          },
          {
            "duration": 0.29296875,
            "durationTicks": 45,
            "midi": 33,
            "name": "A1",
            "ticks": 19008,
            "time": "19008i",
            "velocity": 0.8818897637795275
          },
          {
            "duration": 0.8854166666666572,
            "durationTicks": 136,
            "midi": 56,
            "name": "G#3",
            "ticks": 19152,
            "time": "19152i",
            "velocity": 0.8818897637795275
          },
          {
            "duration": 0.8854166666666572,
            "durationTicks": 136,
            "midi": 52,
            "name": "E3",
            "ticks": 19152,
            "time": "19152i",
            "velocity": 0.8818897637795275
          },
          {
            "duration": 0.8854166666666572,
            "durationTicks": 136,
            "midi": 45,
            "name": "A2",
            "ticks": 19152,
            "time": "19152i",
            "velocity": 0.8818897637795275
          },
          {
            "duration": 0.9309895833333428,
            "durationTicks": 143,
            "midi": 45,
            "name": "A2",
            "ticks": 19296,
            "time": "19296i",
            "velocity": 0.8818897637795275
          },
          {
            "duration": 0.8658854166666856,
            "durationTicks": 133,
            "midi": 52,
            "name": "E3",
            "ticks": 19306,
            "time": "19306i",
            "velocity": 0.8818897637795275
          },
          {
            "duration": 0.80078125,
            "durationTicks": 123,
            "midi": 60,
            "name": "C4",
            "ticks": 19316,
            "time": "19316i",
            "velocity": 0.8818897637795275
          },
          {
            "duration": 0.8854166666666572,
            "durationTicks": 136,
            "midi": 64,
            "name": "E4",
            "ticks": 19440,
            "time": "19440i",
            "velocity": 0.8818897637795275
          },
          {
            "duration": 0.8854166666666572,
            "durationTicks": 136,
            "midi": 60,
            "name": "C4",
            "ticks": 19440,
            "time": "19440i",
            "velocity": 0.8818897637795275
          },
          {
            "duration": 0.8854166666666572,
            "durationTicks": 136,
            "midi": 57,
            "name": "A3",
            "ticks": 19440,
            "time": "19440i",
            "velocity": 0.8818897637795275
          },
          {
            "duration": 0.8854166666666572,
            "durationTicks": 136,
            "midi": 54,
            "name": "F#3",
            "ticks": 19440,
            "time": "19440i",
            "velocity": 0.8818897637795275
          },
          {
            "duration": 0.29296875,
            "durationTicks": 45,
            "midi": 40,
            "name": "E2",
            "ticks": 19584,
            "time": "19584i",
            "velocity": 0.8818897637795275
          },
          {
            "duration": 0.29296875,
            "durationTicks": 45,
            "midi": 28,
            "name": "E1",
            "ticks": 19584,
            "time": "19584i",
            "velocity": 0.8818897637795275
          },
          {
            "duration": 0.29296875,
            "durationTicks": 45,
            "midi": 52,
            "name": "E3",
            "ticks": 19680,
            "time": "19680i",
            "velocity": 0.8818897637795275
          },
          {
            "duration": 0.29296875,
            "durationTicks": 45,
            "midi": 40,
            "name": "E2",
            "ticks": 19680,
            "time": "19680i",
            "velocity": 0.8818897637795275
          },
          {
            "duration": 0.8854166666666572,
            "durationTicks": 136,
            "midi": 63,
            "name": "D#4",
            "ticks": 19728,
            "time": "19728i",
            "velocity": 0.8818897637795275
          },
          {
            "duration": 0.8854166666666572,
            "durationTicks": 136,
            "midi": 59,
            "name": "B3",
            "ticks": 19728,
            "time": "19728i",
            "velocity": 0.8818897637795275
          },
          {
            "duration": 0.8854166666666572,
            "durationTicks": 136,
            "midi": 56,
            "name": "G#3",
            "ticks": 19728,
            "time": "19728i",
            "velocity": 0.8818897637795275
          },
          {
            "duration": 0.8854166666666572,
            "durationTicks": 136,
            "midi": 75,
            "name": "D#5",
            "ticks": 19872,
            "time": "19872i",
            "velocity": 0.8818897637795275
          },
          {
            "duration": 0.8854166666666572,
            "durationTicks": 136,
            "midi": 71,
            "name": "B4",
            "ticks": 19872,
            "time": "19872i",
            "velocity": 0.8818897637795275
          },
          {
            "duration": 0.8854166666666572,
            "durationTicks": 136,
            "midi": 68,
            "name": "G#4",
            "ticks": 19872,
            "time": "19872i",
            "velocity": 0.8818897637795275
          },
          {
            "duration": 0.8854166666666572,
            "durationTicks": 136,
            "midi": 68,
            "name": "G#4",
            "ticks": 20016,
            "time": "20016i",
            "velocity": 0.8818897637795275
          },
          {
            "duration": 0.8854166666666572,
            "durationTicks": 136,
            "midi": 63,
            "name": "D#4",
            "ticks": 20016,
            "time": "20016i",
            "velocity": 0.8818897637795275
          },
          {
            "duration": 0.8854166666666572,
            "durationTicks": 136,
            "midi": 59,
            "name": "B3",
            "ticks": 20016,
            "time": "20016i",
            "velocity": 0.8818897637795275
          },
          {
            "duration": 0.29296875,
            "durationTicks": 45,
            "midi": 40,
            "name": "E2",
            "ticks": 20160,
            "time": "20160i",
            "velocity": 0.8818897637795275
          },
          {
            "duration": 0.29296875,
            "durationTicks": 45,
            "midi": 28,
            "name": "E1",
            "ticks": 20160,
            "time": "20160i",
            "velocity": 0.8818897637795275
          },
          {
            "duration": 0.29296875,
            "durationTicks": 45,
            "midi": 52,
            "name": "E3",
            "ticks": 20256,
            "time": "20256i",
            "velocity": 0.8818897637795275
          },
          {
            "duration": 0.29296875,
            "durationTicks": 45,
            "midi": 40,
            "name": "E2",
            "ticks": 20256,
            "time": "20256i",
            "velocity": 0.8818897637795275
          },
          {
            "duration": 0.8854166666666572,
            "durationTicks": 136,
            "midi": 63,
            "name": "D#4",
            "ticks": 20304,
            "time": "20304i",
            "velocity": 0.8818897637795275
          },
          {
            "duration": 0.8854166666666572,
            "durationTicks": 136,
            "midi": 59,
            "name": "B3",
            "ticks": 20304,
            "time": "20304i",
            "velocity": 0.8818897637795275
          },
          {
            "duration": 0.8854166666666572,
            "durationTicks": 136,
            "midi": 56,
            "name": "G#3",
            "ticks": 20304,
            "time": "20304i",
            "velocity": 0.8818897637795275
          },
          {
            "duration": 0.8854166666666572,
            "durationTicks": 136,
            "midi": 42,
            "name": "F#2",
            "ticks": 20448,
            "time": "20448i",
            "velocity": 0.8818897637795275
          },
          {
            "duration": 0.8854166666666572,
            "durationTicks": 136,
            "midi": 39,
            "name": "D#2",
            "ticks": 20448,
            "time": "20448i",
            "velocity": 0.8818897637795275
          },
          {
            "duration": 0.8854166666666572,
            "durationTicks": 136,
            "midi": 30,
            "name": "F#1",
            "ticks": 20448,
            "time": "20448i",
            "velocity": 0.8818897637795275
          },
          {
            "duration": 0.8854166666666572,
            "durationTicks": 136,
            "midi": 44,
            "name": "G#2",
            "ticks": 20592,
            "time": "20592i",
            "velocity": 0.8818897637795275
          },
          {
            "duration": 0.8854166666666572,
            "durationTicks": 136,
            "midi": 38,
            "name": "D2",
            "ticks": 20592,
            "time": "20592i",
            "velocity": 0.8818897637795275
          },
          {
            "duration": 0.8854166666666572,
            "durationTicks": 136,
            "midi": 32,
            "name": "G#1",
            "ticks": 20592,
            "time": "20592i",
            "velocity": 0.8818897637795275
          },
          {
            "duration": 0.29296875,
            "durationTicks": 45,
            "midi": 33,
            "name": "A1",
            "ticks": 20736,
            "time": "20736i",
            "velocity": 0.8818897637795275
          },
          {
            "duration": 0.29296875,
            "durationTicks": 45,
            "midi": 45,
            "name": "A2",
            "ticks": 20736,
            "time": "20736i",
            "velocity": 0.8818897637795275
          },
          {
            "duration": 0.29296875,
            "durationTicks": 45,
            "midi": 45,
            "name": "A2",
            "ticks": 20832,
            "time": "20832i",
            "velocity": 0.8818897637795275
          },
          {
            "duration": 0.29296875,
            "durationTicks": 45,
            "midi": 57,
            "name": "A3",
            "ticks": 20832,
            "time": "20832i",
            "velocity": 0.8818897637795275
          },
          {
            "duration": 0.8854166666666572,
            "durationTicks": 136,
            "midi": 56,
            "name": "G#3",
            "ticks": 20880,
            "time": "20880i",
            "velocity": 0.8818897637795275
          },
          {
            "duration": 0.8854166666666572,
            "durationTicks": 136,
            "midi": 61,
            "name": "C#4",
            "ticks": 20880,
            "time": "20880i",
            "velocity": 0.8818897637795275
          },
          {
            "duration": 0.8854166666666572,
            "durationTicks": 136,
            "midi": 64,
            "name": "E4",
            "ticks": 20880,
            "time": "20880i",
            "velocity": 0.8818897637795275
          },
          {
            "duration": 0.8854166666666572,
            "durationTicks": 136,
            "midi": 68,
            "name": "G#4",
            "ticks": 21024,
            "time": "21024i",
            "velocity": 0.8818897637795275
          },
          {
            "duration": 0.8854166666666572,
            "durationTicks": 136,
            "midi": 73,
            "name": "C#5",
            "ticks": 21024,
            "time": "21024i",
            "velocity": 0.8818897637795275
          },
          {
            "duration": 0.8854166666666572,
            "durationTicks": 136,
            "midi": 76,
            "name": "E5",
            "ticks": 21024,
            "time": "21024i",
            "velocity": 0.8818897637795275
          },
          {
            "duration": 0.8854166666666572,
            "durationTicks": 136,
            "midi": 61,
            "name": "C#4",
            "ticks": 21168,
            "time": "21168i",
            "velocity": 0.8818897637795275
          },
          {
            "duration": 0.8854166666666572,
            "durationTicks": 136,
            "midi": 64,
            "name": "E4",
            "ticks": 21168,
            "time": "21168i",
            "velocity": 0.8818897637795275
          },
          {
            "duration": 0.8854166666666572,
            "durationTicks": 136,
            "midi": 68,
            "name": "G#4",
            "ticks": 21168,
            "time": "21168i",
            "velocity": 0.8818897637795275
          },
          {
            "duration": 0.29296875,
            "durationTicks": 45,
            "midi": 33,
            "name": "A1",
            "ticks": 21312,
            "time": "21312i",
            "velocity": 0.8818897637795275
          },
          {
            "duration": 0.29296875,
            "durationTicks": 45,
            "midi": 45,
            "name": "A2",
            "ticks": 21312,
            "time": "21312i",
            "velocity": 0.8818897637795275
          },
          {
            "duration": 0.1432291666666572,
            "durationTicks": 22,
            "midi": 33,
            "name": "A1",
            "ticks": 21384,
            "time": "21384i",
            "velocity": 0.8818897637795275
          },
          {
            "duration": 0.1432291666666572,
            "durationTicks": 22,
            "midi": 45,
            "name": "A2",
            "ticks": 21408,
            "time": "21408i",
            "velocity": 0.8818897637795275
          },
          {
            "duration": 0.1432291666666572,
            "durationTicks": 22,
            "midi": 33,
            "name": "A1",
            "ticks": 21432,
            "time": "21432i",
            "velocity": 0.8818897637795275
          },
          {
            "duration": 0.8854166666666572,
            "durationTicks": 136,
            "midi": 45,
            "name": "A2",
            "ticks": 21456,
            "time": "21456i",
            "velocity": 0.8818897637795275
          },
          {
            "duration": 0.8854166666666572,
            "durationTicks": 136,
            "midi": 52,
            "name": "E3",
            "ticks": 21456,
            "time": "21456i",
            "velocity": 0.8818897637795275
          },
          {
            "duration": 0.8854166666666572,
            "durationTicks": 136,
            "midi": 56,
            "name": "G#3",
            "ticks": 21456,
            "time": "21456i",
            "velocity": 0.8818897637795275
          },
          {
            "duration": 0.3059895833333428,
            "durationTicks": 47,
            "midi": 45,
            "name": "A2",
            "ticks": 21600,
            "time": "21600i",
            "velocity": 0.8818897637795275
          },
          {
            "duration": 0.24088541666668561,
            "durationTicks": 37,
            "midi": 52,
            "name": "E3",
            "ticks": 21610,
            "time": "21610i",
            "velocity": 0.8818897637795275
          },
          {
            "duration": 0.17578125,
            "durationTicks": 27,
            "midi": 60,
            "name": "C4",
            "ticks": 21620,
            "time": "21620i",
            "velocity": 0.8818897637795275
          },
          {
            "duration": 0.1432291666666572,
            "durationTicks": 22,
            "midi": 45,
            "name": "A2",
            "ticks": 21672,
            "time": "21672i",
            "velocity": 0.8818897637795275
          },
          {
            "duration": 0.1432291666666572,
            "durationTicks": 22,
            "midi": 52,
            "name": "E3",
            "ticks": 21696,
            "time": "21696i",
            "velocity": 0.8818897637795275
          },
          {
            "duration": 0.1432291666666572,
            "durationTicks": 22,
            "midi": 60,
            "name": "C4",
            "ticks": 21696,
            "time": "21696i",
            "velocity": 0.8818897637795275
          },
          {
            "duration": 0.1432291666666572,
            "durationTicks": 22,
            "midi": 45,
            "name": "A2",
            "ticks": 21720,
            "time": "21720i",
            "velocity": 0.8818897637795275
          },
          {
            "duration": 0.8854166666666572,
            "durationTicks": 136,
            "midi": 54,
            "name": "F#3",
            "ticks": 21744,
            "time": "21744i",
            "velocity": 0.8818897637795275
          },
          {
            "duration": 0.8854166666666572,
            "durationTicks": 136,
            "midi": 57,
            "name": "A3",
            "ticks": 21744,
            "time": "21744i",
            "velocity": 0.8818897637795275
          },
          {
            "duration": 0.8854166666666572,
            "durationTicks": 136,
            "midi": 60,
            "name": "C4",
            "ticks": 21744,
            "time": "21744i",
            "velocity": 0.8818897637795275
          },
          {
            "duration": 0.8854166666666572,
            "durationTicks": 136,
            "midi": 64,
            "name": "E4",
            "ticks": 21744,
            "time": "21744i",
            "velocity": 0.8818897637795275
          },
          {
            "duration": 0.29296875,
            "durationTicks": 45,
            "midi": 28,
            "name": "E1",
            "ticks": 21888,
            "time": "21888i",
            "velocity": 0.8818897637795275
          },
          {
            "duration": 0.29296875,
            "durationTicks": 45,
            "midi": 35,
            "name": "B1",
            "ticks": 21888,
            "time": "21888i",
            "velocity": 0.8818897637795275
          },
          {
            "duration": 0.29296875,
            "durationTicks": 45,
            "midi": 40,
            "name": "E2",
            "ticks": 21888,
            "time": "21888i",
            "velocity": 0.8818897637795275
          },
          {
            "duration": 0.29296875,
            "durationTicks": 45,
            "midi": 40,
            "name": "E2",
            "ticks": 21984,
            "time": "21984i",
            "velocity": 0.8818897637795275
          },
          {
            "duration": 0.29296875,
            "durationTicks": 45,
            "midi": 52,
            "name": "E3",
            "ticks": 21984,
            "time": "21984i",
            "velocity": 0.8818897637795275
          },
          {
            "duration": 0.8854166666666572,
            "durationTicks": 136,
            "midi": 56,
            "name": "G#3",
            "ticks": 22032,
            "time": "22032i",
            "velocity": 0.8818897637795275
          },
          {
            "duration": 0.8854166666666572,
            "durationTicks": 136,
            "midi": 59,
            "name": "B3",
            "ticks": 22032,
            "time": "22032i",
            "velocity": 0.8818897637795275
          },
          {
            "duration": 0.8854166666666572,
            "durationTicks": 136,
            "midi": 63,
            "name": "D#4",
            "ticks": 22032,
            "time": "22032i",
            "velocity": 0.8818897637795275
          },
          {
            "duration": 0.8854166666666572,
            "durationTicks": 136,
            "midi": 68,
            "name": "G#4",
            "ticks": 22176,
            "time": "22176i",
            "velocity": 0.8818897637795275
          },
          {
            "duration": 0.8854166666666572,
            "durationTicks": 136,
            "midi": 71,
            "name": "B4",
            "ticks": 22176,
            "time": "22176i",
            "velocity": 0.8818897637795275
          },
          {
            "duration": 0.8854166666666572,
            "durationTicks": 136,
            "midi": 75,
            "name": "D#5",
            "ticks": 22176,
            "time": "22176i",
            "velocity": 0.8818897637795275
          },
          {
            "duration": 0.8854166666666572,
            "durationTicks": 136,
            "midi": 59,
            "name": "B3",
            "ticks": 22320,
            "time": "22320i",
            "velocity": 0.8818897637795275
          },
          {
            "duration": 0.8854166666666572,
            "durationTicks": 136,
            "midi": 63,
            "name": "D#4",
            "ticks": 22320,
            "time": "22320i",
            "velocity": 0.8818897637795275
          },
          {
            "duration": 0.8854166666666572,
            "durationTicks": 136,
            "midi": 68,
            "name": "G#4",
            "ticks": 22320,
            "time": "22320i",
            "velocity": 0.8818897637795275
          },
          {
            "duration": 0.29296875,
            "durationTicks": 45,
            "midi": 28,
            "name": "E1",
            "ticks": 22464,
            "time": "22464i",
            "velocity": 0.8818897637795275
          },
          {
            "duration": 0.29296875,
            "durationTicks": 45,
            "midi": 40,
            "name": "E2",
            "ticks": 22464,
            "time": "22464i",
            "velocity": 0.8818897637795275
          },
          {
            "duration": 0.29296875,
            "durationTicks": 45,
            "midi": 28,
            "name": "E1",
            "ticks": 22512,
            "time": "22512i",
            "velocity": 0.84251968503937
          },
          {
            "duration": 0.29296875,
            "durationTicks": 45,
            "midi": 40,
            "name": "E2",
            "ticks": 22512,
            "time": "22512i",
            "velocity": 0.84251968503937
          },
          {
            "duration": 0.29296875,
            "durationTicks": 45,
            "midi": 40,
            "name": "E2",
            "ticks": 22560,
            "time": "22560i",
            "velocity": 0.8031496062992126
          },
          {
            "duration": 0.29296875,
            "durationTicks": 45,
            "midi": 52,
            "name": "E3",
            "ticks": 22560,
            "time": "22560i",
            "velocity": 0.8031496062992126
          },
          {
            "duration": 0.8854166666666572,
            "durationTicks": 136,
            "midi": 56,
            "name": "G#3",
            "ticks": 22608,
            "time": "22608i",
            "velocity": 0.7637795275590551
          },
          {
            "duration": 0.8854166666666572,
            "durationTicks": 136,
            "midi": 59,
            "name": "B3",
            "ticks": 22608,
            "time": "22608i",
            "velocity": 0.7637795275590551
          },
          {
            "duration": 0.8854166666666572,
            "durationTicks": 136,
            "midi": 63,
            "name": "D#4",
            "ticks": 22608,
            "time": "22608i",
            "velocity": 0.7637795275590551
          },
          {
            "duration": 0.4427083333333428,
            "durationTicks": 68,
            "midi": 30,
            "name": "F#1",
            "ticks": 22752,
            "time": "22752i",
            "velocity": 0.6377952755905512
          },
          {
            "duration": 0.4427083333333428,
            "durationTicks": 68,
            "midi": 42,
            "name": "F#2",
            "ticks": 22752,
            "time": "22752i",
            "velocity": 0.6377952755905512
          },
          {
            "duration": 0.4427083333333428,
            "durationTicks": 68,
            "midi": 42,
            "name": "F#2",
            "ticks": 22824,
            "time": "22824i",
            "velocity": 0.5748031496062992
          },
          {
            "duration": 0.4427083333333428,
            "durationTicks": 68,
            "midi": 45,
            "name": "A2",
            "ticks": 22824,
            "time": "22824i",
            "velocity": 0.5748031496062992
          },
          {
            "duration": 0.4427083333333428,
            "durationTicks": 68,
            "midi": 49,
            "name": "C#3",
            "ticks": 22824,
            "time": "22824i",
            "velocity": 0.5748031496062992
          },
          {
            "duration": 0.4427083333333428,
            "durationTicks": 68,
            "midi": 54,
            "name": "F#3",
            "ticks": 22824,
            "time": "22824i",
            "velocity": 0.5748031496062992
          },
          {
            "duration": 0.4427083333333428,
            "durationTicks": 68,
            "midi": 32,
            "name": "G#1",
            "ticks": 22896,
            "time": "22896i",
            "velocity": 0.5118110236220472
          },
          {
            "duration": 0.4427083333333428,
            "durationTicks": 68,
            "midi": 44,
            "name": "G#2",
            "ticks": 22896,
            "time": "22896i",
            "velocity": 0.5118110236220472
          },
          {
            "duration": 0.4427083333333428,
            "durationTicks": 68,
            "midi": 44,
            "name": "G#2",
            "ticks": 22968,
            "time": "22968i",
            "velocity": 0.44881889763779526
          },
          {
            "duration": 0.4427083333333428,
            "durationTicks": 68,
            "midi": 51,
            "name": "D#3",
            "ticks": 22968,
            "time": "22968i",
            "velocity": 0.44881889763779526
          },
          {
            "duration": 0.4427083333333428,
            "durationTicks": 68,
            "midi": 54,
            "name": "F#3",
            "ticks": 22968,
            "time": "22968i",
            "velocity": 0.44881889763779526
          },
          {
            "duration": 0.4427083333333428,
            "durationTicks": 68,
            "midi": 56,
            "name": "G#3",
            "ticks": 22968,
            "time": "22968i",
            "velocity": 0.44881889763779526
          },
          {
            "duration": 0.1432291666666572,
            "durationTicks": 22,
            "midi": 45,
            "name": "A2",
            "ticks": 23040,
            "time": "23040i",
            "velocity": 0.3858267716535433
          },
          {
            "duration": 0.1432291666666572,
            "durationTicks": 22,
            "midi": 49,
            "name": "C#3",
            "ticks": 23064,
            "time": "23064i",
            "velocity": 0.3858267716535433
          },
          {
            "duration": 0.1432291666666572,
            "durationTicks": 22,
            "midi": 52,
            "name": "E3",
            "ticks": 23088,
            "time": "23088i",
            "velocity": 0.3858267716535433
          },
          {
            "duration": 0.1432291666666572,
            "durationTicks": 22,
            "midi": 56,
            "name": "G#3",
            "ticks": 23112,
            "time": "23112i",
            "velocity": 0.3858267716535433
          },
          {
            "duration": 0.1432291666666572,
            "durationTicks": 22,
            "midi": 61,
            "name": "C#4",
            "ticks": 23136,
            "time": "23136i",
            "velocity": 0.3858267716535433
          },
          {
            "duration": 0.1432291666666572,
            "durationTicks": 22,
            "midi": 64,
            "name": "E4",
            "ticks": 23160,
            "time": "23160i",
            "velocity": 0.3858267716535433
          },
          {
            "duration": 2.669270833333343,
            "durationTicks": 410,
            "midi": 68,
            "name": "G#4",
            "ticks": 23184,
            "time": "23184i",
            "velocity": 0.3858267716535433
          },
          {
            "duration": 2.669270833333343,
            "durationTicks": 410,
            "midi": 64,
            "name": "E4",
            "ticks": 23184,
            "time": "23184i",
            "velocity": 0.3858267716535433
          },
          {
            "duration": 2.669270833333343,
            "durationTicks": 410,
            "midi": 61,
            "name": "C#4",
            "ticks": 23184,
            "time": "23184i",
            "velocity": 0.3858267716535433
          },
          {
            "duration": 2.669270833333343,
            "durationTicks": 410,
            "midi": 57,
            "name": "A3",
            "ticks": 23184,
            "time": "23184i",
            "velocity": 0.3858267716535433
          },
          {
            "duration": 1.77734375,
            "durationTicks": 273,
            "midi": 45,
            "name": "A2",
            "ticks": 23616,
            "time": "23616i",
            "velocity": 0.3858267716535433
          },
          {
            "duration": 1.8684895833333428,
            "durationTicks": 287,
            "midi": 52,
            "name": "E3",
            "ticks": 23904,
            "time": "23904i",
            "velocity": 0.3858267716535433
          },
          {
            "duration": 1.8033854166666856,
            "durationTicks": 277,
            "midi": 54,
            "name": "F#3",
            "ticks": 23914,
            "time": "23914i",
            "velocity": 0.3858267716535433
          },
          {
            "duration": 1.73828125,
            "durationTicks": 267,
            "midi": 57,
            "name": "A3",
            "ticks": 23924,
            "time": "23924i",
            "velocity": 0.3858267716535433
          },
          {
            "duration": 1.6731770833333428,
            "durationTicks": 257,
            "midi": 60,
            "name": "C4",
            "ticks": 23934,
            "time": "23934i",
            "velocity": 0.3858267716535433
          }
        ],
        "endOfTrackTicks": 31393
      }
    ]
  }